<svg xmlns="http://www.w3.org/2000/svg" id="Layer_2" data-name="Layer 2" viewBox="0 0 987.58 601.05"><defs><style>.cls-1{opacity:.2}.cls-1,.cls-2,.cls-3{fill:#9fe870}.cls-3{opacity:.5}</style></defs><g id="icon"><path d="M241.08 150.77h4.99v4.99h-4.99zM223.22 158.31h4.99v4.99h-4.99zM232.15 158.31h4.99v4.99h-4.99zM241.08 158.31h4.99v4.99h-4.99zM205.36 165.85h4.99v4.99h-4.99zM214.29 165.85h4.99v4.99h-4.99zM223.22 165.85h4.99v4.99h-4.99zM232.15 165.85h4.99v4.99h-4.99zM241.08 165.85h4.99v4.99h-4.99zM187.5 173.39h4.99v4.99h-4.99zM196.43 173.39h4.99v4.99h-4.99zM205.36 173.39h4.99v4.99h-4.99zM214.29 173.39h4.99v4.99h-4.99zM223.22 173.39h4.99v4.99h-4.99zM232.15 173.39h4.99v4.99h-4.99zM241.08 173.39h4.99v4.99h-4.99zM169.65 180.92h4.99v4.99h-4.99zM178.58 180.92h4.99v4.99h-4.99zM187.5 180.92h4.99v4.99h-4.99zM196.43 180.92h4.99v4.99h-4.99zM205.36 180.92h4.99v4.99h-4.99zM214.29 180.92h4.99v4.99h-4.99zM223.22 180.92h4.99v4.99h-4.99zM232.15 180.92h4.99v4.99h-4.99zM241.08 180.92h4.99v4.99h-4.99zM151.79 188.46h4.99v4.99h-4.99zM160.72 188.46h4.99v4.99h-4.99zM169.65 188.46h4.99v4.99h-4.99zM178.58 188.46h4.99v4.99h-4.99zM187.5 188.46h4.99v4.99h-4.99z" class="cls-2"/><path d="M196.43 188.46h4.99v4.99h-4.99z" class="cls-1"/><path d="M205.36 188.46h4.99v4.99h-4.99zM214.29 188.46h4.99v4.99h-4.99zM223.22 188.46h4.99v4.99h-4.99zM232.15 188.46h4.99v4.99h-4.99zM241.08 188.46h4.99v4.99h-4.99zM133.93 196h4.99v4.99h-4.99zM142.86 196h4.99v4.99h-4.99zM151.79 196h4.99v4.99h-4.99zM160.72 196h4.99v4.99h-4.99zM169.65 196h4.99v4.99h-4.99zM178.58 196h4.99v4.99h-4.99zM187.5 196h4.99v4.99h-4.99zM196.43 196h4.99v4.99h-4.99zM205.36 196h4.99v4.99h-4.99zM214.29 196h4.99v4.99h-4.99zM223.22 196h4.99v4.99h-4.99zM232.15 196h4.99v4.99h-4.99zM241.08 196h4.99v4.99h-4.99zM116.07 203.54h4.99v4.99h-4.99zM125 203.54h4.99v4.99H125zM133.93 203.54h4.99v4.99h-4.99zM142.86 203.54h4.99v4.99h-4.99zM151.79 203.54h4.99v4.99h-4.99zM160.72 203.54h4.99v4.99h-4.99zM169.65 203.54h4.99v4.99h-4.99zM178.58 203.54h4.99v4.99h-4.99zM187.5 203.54h4.99v4.99h-4.99zM196.43 203.54h4.99v4.99h-4.99zM205.36 203.54h4.99v4.99h-4.99zM214.29 203.54h4.99v4.99h-4.99zM223.22 203.54h4.99v4.99h-4.99zM232.15 203.54h4.99v4.99h-4.99zM241.08 203.54h4.99v4.99h-4.99zM98.22 211.08h4.99v4.99h-4.99zM107.15 211.08h4.99v4.99h-4.99zM116.07 211.08h4.99v4.99h-4.99zM125 211.08h4.99v4.99H125zM133.93 211.08h4.99v4.99h-4.99zM142.86 211.08h4.99v4.99h-4.99zM151.79 211.08h4.99v4.99h-4.99zM160.72 211.08h4.99v4.99h-4.99zM169.65 211.08h4.99v4.99h-4.99zM178.58 211.08h4.99v4.99h-4.99zM187.5 211.08h4.99v4.99h-4.99zM196.43 211.08h4.99v4.99h-4.99zM205.36 211.08h4.99v4.99h-4.99zM214.29 211.08h4.99v4.99h-4.99zM223.22 211.08h4.99v4.99h-4.99zM232.15 211.08h4.99v4.99h-4.99zM241.08 211.08h4.99v4.99h-4.99zM80.36 218.62h4.99v4.99h-4.99zM89.29 218.62h4.99v4.99h-4.99zM98.22 218.62h4.99v4.99h-4.99zM107.15 218.62h4.99v4.99h-4.99zM116.07 218.62h4.99v4.99h-4.99zM125 218.62h4.99v4.99H125zM133.93 218.62h4.99v4.99h-4.99zM142.86 218.62h4.99v4.99h-4.99zM151.79 218.62h4.99v4.99h-4.99zM160.72 218.62h4.99v4.99h-4.99zM169.65 218.62h4.99v4.99h-4.99zM178.58 218.62h4.99v4.99h-4.99zM187.5 218.62h4.99v4.99h-4.99zM196.43 218.62h4.99v4.99h-4.99zM205.36 218.62h4.99v4.99h-4.99zM214.29 218.62h4.99v4.99h-4.99zM223.22 218.62h4.99v4.99h-4.99zM232.15 218.62h4.99v4.99h-4.99zM241.08 218.62h4.99v4.99h-4.99zM62.5 226.68h4.99v4.99H62.5zM71.43 226.68h4.99v4.99h-4.99zM80.36 226.68h4.99v4.99h-4.99zM89.29 226.68h4.99v4.99h-4.99zM98.22 226.68h4.99v4.99h-4.99z" class="cls-2"/><path d="M107.15 226.68h4.99v4.99h-4.99z" class="cls-1"/><path d="M116.07 226.68h4.99v4.99h-4.99zM125 226.68h4.99v4.99H125zM133.93 226.68h4.99v4.99h-4.99zM142.86 226.68h4.99v4.99h-4.99z" class="cls-2"/><path d="M160.72 226.68h4.99v4.99h-4.99z" class="cls-3"/><path d="M169.65 226.68h4.99v4.99h-4.99zM178.58 226.68h4.99v4.99h-4.99zM187.5 226.68h4.99v4.99h-4.99zM196.43 226.68h4.99v4.99h-4.99zM205.36 226.68h4.99v4.99h-4.99zM214.29 226.68h4.99v4.99h-4.99zM223.22 226.68h4.99v4.99h-4.99zM232.15 226.68h4.99v4.99h-4.99zM241.08 226.68h4.99v4.99h-4.99zM35.72 234.21h4.99v4.99h-4.99zM44.64 234.21h4.99v4.99h-4.99zM53.57 234.21h4.99v4.99h-4.99zM62.5 234.21h4.99v4.99H62.5zM71.43 234.21h4.99v4.99h-4.99zM80.36 234.21h4.99v4.99h-4.99zM89.29 234.21h4.99v4.99h-4.99zM98.22 234.21h4.99v4.99h-4.99zM107.15 234.21h4.99v4.99h-4.99zM116.07 234.21h4.99v4.99h-4.99zM125 234.21h4.99v4.99H125zM133.93 234.21h4.99v4.99h-4.99zM142.86 234.21h4.99v4.99h-4.99zM151.79 234.21h4.99v4.99h-4.99zM160.72 234.21h4.99v4.99h-4.99zM169.65 234.21h4.99v4.99h-4.99zM178.58 234.21h4.99v4.99h-4.99zM187.5 234.21h4.99v4.99h-4.99zM196.43 234.21h4.99v4.99h-4.99zM205.36 234.21h4.99v4.99h-4.99zM214.29 234.21h4.99v4.99h-4.99zM223.22 234.21h4.99v4.99h-4.99zM232.15 234.21h4.99v4.99h-4.99zM241.08 234.21h4.99v4.99h-4.99zM26.79 241.75h4.99v4.99h-4.99zM35.72 241.75h4.99v4.99h-4.99zM44.64 241.75h4.99v4.99h-4.99zM53.57 241.75h4.99v4.99h-4.99zM62.5 241.75h4.99v4.99H62.5zM71.43 241.75h4.99v4.99h-4.99zM80.36 241.75h4.99v4.99h-4.99z" class="cls-2"/><path d="M89.29 241.75h4.99v4.99h-4.99z" class="cls-3"/><path d="M98.22 241.75h4.99v4.99h-4.99zM107.15 241.75h4.99v4.99h-4.99zM116.07 241.75h4.99v4.99h-4.99z" class="cls-2"/><path d="M125 241.75h4.99v4.99H125z" class="cls-3"/><path d="M133.93 241.75h4.99v4.99h-4.99z" class="cls-1"/><path d="M142.86 241.75h4.99v4.99h-4.99z" class="cls-2"/><path d="M151.79 241.75h4.99v4.99h-4.99z" class="cls-1"/><path d="M160.72 241.75h4.99v4.99h-4.99zM169.65 241.75h4.99v4.99h-4.99zM178.58 241.75h4.99v4.99h-4.99z" class="cls-2"/><path d="M187.5 241.75h4.99v4.99h-4.99z" class="cls-1"/><path d="M196.43 241.75h4.99v4.99h-4.99zM205.36 241.75h4.99v4.99h-4.99zM214.29 241.75h4.99v4.99h-4.99zM223.22 241.75h4.99v4.99h-4.99zM232.15 241.75h4.99v4.99h-4.99zM241.08 241.75h4.99v4.99h-4.99zM8.93 249.29h4.99v4.99H8.93zM17.86 249.29h4.99v4.99h-4.99zM26.79 249.29h4.99v4.99h-4.99zM35.72 249.29h4.99v4.99h-4.99zM44.64 249.29h4.99v4.99h-4.99zM53.57 249.29h4.99v4.99h-4.99zM62.5 249.29h4.99v4.99H62.5zM71.43 249.29h4.99v4.99h-4.99zM80.36 249.29h4.99v4.99h-4.99zM89.29 249.29h4.99v4.99h-4.99zM98.22 249.29h4.99v4.99h-4.99zM107.15 249.29h4.99v4.99h-4.99zM116.07 249.29h4.99v4.99h-4.99zM125 249.29h4.99v4.99H125zM133.93 249.29h4.99v4.99h-4.99zM142.86 249.29h4.99v4.99h-4.99zM151.79 249.29h4.99v4.99h-4.99zM160.72 249.29h4.99v4.99h-4.99zM169.65 249.29h4.99v4.99h-4.99zM178.58 249.29h4.99v4.99h-4.99zM187.5 249.29h4.99v4.99h-4.99zM196.43 249.29h4.99v4.99h-4.99zM205.36 249.29h4.99v4.99h-4.99zM214.29 249.29h4.99v4.99h-4.99zM223.22 249.29h4.99v4.99h-4.99zM232.15 249.29h4.99v4.99h-4.99zM0 256.83h4.99v4.99H0zM8.93 256.83h4.99v4.99H8.93zM17.86 256.83h4.99v4.99h-4.99zM26.79 256.83h4.99v4.99h-4.99zM35.72 256.83h4.99v4.99h-4.99zM44.64 256.83h4.99v4.99h-4.99zM53.57 256.83h4.99v4.99h-4.99zM62.5 256.83h4.99v4.99H62.5zM71.43 256.83h4.99v4.99h-4.99zM80.36 256.83h4.99v4.99h-4.99zM89.29 256.83h4.99v4.99h-4.99zM98.22 256.83h4.99v4.99h-4.99zM107.15 256.83h4.99v4.99h-4.99zM116.07 256.83h4.99v4.99h-4.99zM125 256.83h4.99v4.99H125zM133.93 256.83h4.99v4.99h-4.99zM142.86 256.83h4.99v4.99h-4.99zM151.79 256.83h4.99v4.99h-4.99zM160.72 256.83h4.99v4.99h-4.99zM169.65 256.83h4.99v4.99h-4.99zM178.58 256.83h4.99v4.99h-4.99zM187.5 256.83h4.99v4.99h-4.99zM196.43 256.83h4.99v4.99h-4.99zM205.36 256.83h4.99v4.99h-4.99zM0 264.37h4.99v4.99H0z" class="cls-2"/><path d="M8.93 264.37h4.99v4.99H8.93z" class="cls-3"/><path d="M17.86 264.37h4.99v4.99h-4.99zM26.79 264.37h4.99v4.99h-4.99z" class="cls-2"/><path d="M44.64 264.37h4.99v4.99h-4.99z" class="cls-3"/><path d="M53.57 264.37h4.99v4.99h-4.99zM62.5 264.37h4.99v4.99H62.5zM71.43 264.37h4.99v4.99h-4.99zM80.36 264.37h4.99v4.99h-4.99z" class="cls-2"/><path d="M89.29 264.37h4.99v4.99h-4.99z" class="cls-3"/><path d="M98.22 264.37h4.99v4.99h-4.99zM107.15 264.37h4.99v4.99h-4.99z" class="cls-2"/><path d="M116.07 264.37h4.99v4.99h-4.99z" class="cls-3"/><path d="M125 264.37h4.99v4.99H125zM133.93 264.37h4.99v4.99h-4.99zM142.86 264.37h4.99v4.99h-4.99z" class="cls-2"/><path d="M151.79 264.37h4.99v4.99h-4.99z" class="cls-1"/><path d="M160.72 264.37h4.99v4.99h-4.99zM169.65 264.37h4.99v4.99h-4.99zM178.58 264.37h4.99v4.99h-4.99zM187.5 264.37h4.99v4.99h-4.99zM0 271.91h4.99v4.99H0zM8.93 271.91h4.99v4.99H8.93zM17.86 271.91h4.99v4.99h-4.99zM26.79 271.91h4.99v4.99h-4.99zM35.72 271.91h4.99v4.99h-4.99zM44.64 271.91h4.99v4.99h-4.99zM53.57 271.91h4.99v4.99h-4.99zM62.5 271.91h4.99v4.99H62.5zM71.43 271.91h4.99v4.99h-4.99zM80.36 271.91h4.99v4.99h-4.99zM89.29 271.91h4.99v4.99h-4.99zM98.22 271.91h4.99v4.99h-4.99zM107.15 271.91h4.99v4.99h-4.99zM116.07 271.91h4.99v4.99h-4.99zM125 271.91h4.99v4.99H125zM133.93 271.91h4.99v4.99h-4.99zM142.86 271.91h4.99v4.99h-4.99zM151.79 271.91h4.99v4.99h-4.99zM160.72 271.91h4.99v4.99h-4.99zM169.65 271.91h4.99v4.99h-4.99zM0 279.44h4.99v4.99H0zM8.93 279.44h4.99v4.99H8.93z" class="cls-2"/><path d="M17.86 279.44h4.99v4.99h-4.99z" class="cls-3"/><path d="M26.79 279.44h4.99v4.99h-4.99zM35.72 279.44h4.99v4.99h-4.99zM44.64 279.44h4.99v4.99h-4.99zM53.57 279.44h4.99v4.99h-4.99zM62.5 279.44h4.99v4.99H62.5zM71.43 279.44h4.99v4.99h-4.99zM80.36 279.44h4.99v4.99h-4.99zM89.29 279.44h4.99v4.99h-4.99zM98.22 279.44h4.99v4.99h-4.99zM107.15 279.44h4.99v4.99h-4.99zM125 279.44h4.99v4.99H125zM133.93 279.44h4.99v4.99h-4.99zM142.86 279.44h4.99v4.99h-4.99zM0 286.98h4.99v4.99H0zM8.93 286.98h4.99v4.99H8.93zM17.86 286.98h4.99v4.99h-4.99zM26.79 286.98h4.99v4.99h-4.99zM35.72 286.98h4.99v4.99h-4.99zM44.64 286.98h4.99v4.99h-4.99zM53.57 286.98h4.99v4.99h-4.99zM62.5 286.98h4.99v4.99H62.5zM80.36 286.98h4.99v4.99h-4.99zM89.29 286.98h4.99v4.99h-4.99zM98.22 286.98h4.99v4.99h-4.99zM107.15 286.98h4.99v4.99h-4.99zM116.07 286.98h4.99v4.99h-4.99zM125 286.98h4.99v4.99H125zM0 294.52h4.99v4.99H0zM8.93 294.52h4.99v4.99H8.93zM26.79 294.52h4.99v4.99h-4.99zM35.72 294.52h4.99v4.99h-4.99zM44.64 294.52h4.99v4.99h-4.99zM53.57 294.52h4.99v4.99h-4.99zM62.5 294.52h4.99v4.99H62.5zM71.43 294.52h4.99v4.99h-4.99zM80.36 294.52h4.99v4.99h-4.99z" class="cls-2"/><path d="M89.29 294.52h4.99v4.99h-4.99z" class="cls-1"/><path d="M98.22 294.52h4.99v4.99h-4.99zM107.15 294.52h4.99v4.99h-4.99zM0 302.06h4.99v4.99H0zM8.93 302.06h4.99v4.99H8.93zM17.86 302.06h4.99v4.99h-4.99zM26.79 302.06h4.99v4.99h-4.99zM44.64 302.06h4.99v4.99h-4.99zM53.57 302.06h4.99v4.99h-4.99zM62.5 302.06h4.99v4.99H62.5zM71.43 302.06h4.99v4.99h-4.99zM80.36 302.06h4.99v4.99h-4.99zM89.29 302.06h4.99v4.99h-4.99zM98.22 302.06h4.99v4.99h-4.99zM107.15 302.06h4.99v4.99h-4.99zM116.07 302.06h4.99v4.99h-4.99zM125 302.06h4.99v4.99H125zM0 309.6h4.99v4.99H0z" class="cls-2"/><path d="M8.93 309.6h4.99v4.99H8.93z" class="cls-1"/><path d="M17.86 309.6h4.99v4.99h-4.99zM26.79 309.6h4.99v4.99h-4.99zM35.72 309.6h4.99v4.99h-4.99zM44.64 309.6h4.99v4.99h-4.99zM53.57 309.6h4.99v4.99h-4.99zM62.5 309.6h4.99v4.99H62.5zM71.43 309.6h4.99v4.99h-4.99zM80.36 309.6h4.99v4.99h-4.99zM89.29 309.6h4.99v4.99h-4.99zM98.22 309.6h4.99v4.99h-4.99zM107.15 309.6h4.99v4.99h-4.99zM116.07 309.6h4.99v4.99h-4.99zM125 309.6h4.99v4.99H125zM133.93 309.6h4.99v4.99h-4.99zM142.86 309.6h4.99v4.99h-4.99zM151.79 309.6h4.99v4.99h-4.99zM0 317.14h4.99v4.99H0zM8.93 317.14h4.99v4.99H8.93zM17.86 317.14h4.99v4.99h-4.99z" class="cls-2"/><path d="M26.79 317.14h4.99v4.99h-4.99z" class="cls-1"/><path d="M35.72 317.14h4.99v4.99h-4.99zM44.64 317.14h4.99v4.99h-4.99zM53.57 317.14h4.99v4.99h-4.99zM62.5 317.14h4.99v4.99H62.5zM71.43 317.14h4.99v4.99h-4.99zM80.36 317.14h4.99v4.99h-4.99zM89.29 317.14h4.99v4.99h-4.99zM98.22 317.14h4.99v4.99h-4.99zM107.15 317.14h4.99v4.99h-4.99zM116.07 317.14h4.99v4.99h-4.99zM125 317.14h4.99v4.99H125zM133.93 317.14h4.99v4.99h-4.99zM142.86 317.14h4.99v4.99h-4.99zM151.79 317.14h4.99v4.99h-4.99zM160.72 317.14h4.99v4.99h-4.99zM169.65 317.14h4.99v4.99h-4.99zM0 324.68h4.99v4.99H0zM17.86 324.68h4.99v4.99h-4.99zM26.79 324.68h4.99v4.99h-4.99zM35.72 324.68h4.99v4.99h-4.99zM44.64 324.68h4.99v4.99h-4.99z" class="cls-2"/><path d="M53.57 324.68h4.99v4.99h-4.99z" class="cls-3"/><path d="M62.5 324.68h4.99v4.99H62.5zM71.43 324.68h4.99v4.99h-4.99zM80.36 324.68h4.99v4.99h-4.99zM89.29 324.68h4.99v4.99h-4.99zM98.22 324.68h4.99v4.99h-4.99zM116.07 324.68h4.99v4.99h-4.99zM125 324.68h4.99v4.99H125zM133.93 324.68h4.99v4.99h-4.99zM142.86 324.68h4.99v4.99h-4.99zM151.79 324.68h4.99v4.99h-4.99zM160.72 324.68h4.99v4.99h-4.99zM169.65 324.68h4.99v4.99h-4.99zM178.58 324.68h4.99v4.99h-4.99zM187.5 324.68h4.99v4.99h-4.99zM0 332.21h4.99v4.99H0z" class="cls-2"/><path d="M8.93 332.21h4.99v4.99H8.93z" class="cls-3"/><path d="M17.86 332.21h4.99v4.99h-4.99zM44.64 332.21h4.99v4.99h-4.99z" class="cls-2"/><path d="M53.57 332.21h4.99v4.99h-4.99z" class="cls-1"/><path d="M62.5 332.21h4.99v4.99H62.5zM71.43 332.21h4.99v4.99h-4.99zM80.36 332.21h4.99v4.99h-4.99zM89.29 332.21h4.99v4.99h-4.99zM98.22 332.21h4.99v4.99h-4.99zM107.15 332.21h4.99v4.99h-4.99zM116.07 332.21h4.99v4.99h-4.99zM125 332.21h4.99v4.99H125z" class="cls-2"/><path d="M133.93 332.21h4.99v4.99h-4.99z" class="cls-3"/><path d="M142.86 332.21h4.99v4.99h-4.99zM151.79 332.21h4.99v4.99h-4.99zM160.72 332.21h4.99v4.99h-4.99zM169.65 332.21h4.99v4.99h-4.99zM178.58 332.21h4.99v4.99h-4.99zM187.5 332.21h4.99v4.99h-4.99zM196.43 332.21h4.99v4.99h-4.99zM205.36 332.21h4.99v4.99h-4.99zM214.29 332.21h4.99v4.99h-4.99zM0 339.75h4.99v4.99H0zM8.93 339.75h4.99v4.99H8.93zM17.86 339.75h4.99v4.99h-4.99zM35.72 339.75h4.99v4.99h-4.99zM44.64 339.75h4.99v4.99h-4.99zM53.57 339.75h4.99v4.99h-4.99zM62.5 339.75h4.99v4.99H62.5zM71.43 339.75h4.99v4.99h-4.99zM80.36 339.75h4.99v4.99h-4.99zM89.29 339.75h4.99v4.99h-4.99z" class="cls-2"/><path d="M98.22 339.75h4.99v4.99h-4.99z" class="cls-3"/><path d="M116.07 339.75h4.99v4.99h-4.99zM125 339.75h4.99v4.99H125zM133.93 339.75h4.99v4.99h-4.99zM142.86 339.75h4.99v4.99h-4.99zM160.72 339.75h4.99v4.99h-4.99zM169.65 339.75h4.99v4.99h-4.99z" class="cls-2"/><path d="M178.58 339.75h4.99v4.99h-4.99z" class="cls-1"/><path d="M187.5 339.75h4.99v4.99h-4.99zM196.43 339.75h4.99v4.99h-4.99zM205.36 339.75h4.99v4.99h-4.99zM214.29 339.75h4.99v4.99h-4.99zM223.22 339.75h4.99v4.99h-4.99zM232.15 339.75h4.99v4.99h-4.99zM8.93 347.29h4.99v4.99H8.93zM26.79 347.29h4.99v4.99h-4.99zM35.72 347.29h4.99v4.99h-4.99zM44.64 347.29h4.99v4.99h-4.99zM53.57 347.29h4.99v4.99h-4.99z" class="cls-2"/><path d="M62.5 347.29h4.99v4.99H62.5z" class="cls-1"/><path d="M71.43 347.29h4.99v4.99h-4.99z" class="cls-2"/><path d="M80.36 347.29h4.99v4.99h-4.99z" class="cls-3"/><path d="M89.29 347.29h4.99v4.99h-4.99zM98.22 347.29h4.99v4.99h-4.99zM107.15 347.29h4.99v4.99h-4.99zM116.07 347.29h4.99v4.99h-4.99zM125 347.29h4.99v4.99H125zM133.93 347.29h4.99v4.99h-4.99zM142.86 347.29h4.99v4.99h-4.99zM151.79 347.29h4.99v4.99h-4.99zM160.72 347.29h4.99v4.99h-4.99zM169.65 347.29h4.99v4.99h-4.99zM178.58 347.29h4.99v4.99h-4.99z" class="cls-2"/><path d="M187.5 347.29h4.99v4.99h-4.99z" class="cls-3"/><path d="M196.43 347.29h4.99v4.99h-4.99zM205.36 347.29h4.99v4.99h-4.99zM214.29 347.29h4.99v4.99h-4.99zM223.22 347.29h4.99v4.99h-4.99zM232.15 347.29h4.99v4.99h-4.99zM241.08 347.29h4.99v4.99h-4.99zM0 354.83h4.99v4.99H0zM8.93 354.83h4.99v4.99H8.93zM17.86 354.83h4.99v4.99h-4.99zM44.64 354.83h4.99v4.99h-4.99zM53.57 354.83h4.99v4.99h-4.99zM62.5 354.83h4.99v4.99H62.5zM71.43 354.83h4.99v4.99h-4.99zM80.36 354.83h4.99v4.99h-4.99z" class="cls-2"/><path d="M89.29 354.83h4.99v4.99h-4.99z" class="cls-1"/><path d="M98.22 354.83h4.99v4.99h-4.99zM107.15 354.83h4.99v4.99h-4.99zM116.07 354.83h4.99v4.99h-4.99z" class="cls-2"/><path d="M125 354.83h4.99v4.99H125z" class="cls-3"/><path d="M133.93 354.83h4.99v4.99h-4.99zM142.86 354.83h4.99v4.99h-4.99zM151.79 354.83h4.99v4.99h-4.99zM160.72 354.83h4.99v4.99h-4.99zM169.65 354.83h4.99v4.99h-4.99zM178.58 354.83h4.99v4.99h-4.99zM196.43 354.83h4.99v4.99h-4.99zM205.36 354.83h4.99v4.99h-4.99zM214.29 354.83h4.99v4.99h-4.99zM223.22 354.83h4.99v4.99h-4.99zM232.15 354.83h4.99v4.99h-4.99zM241.08 354.83h4.99v4.99h-4.99z" class="cls-2"/><path d="M17.86 362.37h4.99v4.99h-4.99z" class="cls-3"/><path d="M26.79 362.37h4.99v4.99h-4.99zM35.72 362.37h4.99v4.99h-4.99zM53.57 362.37h4.99v4.99h-4.99zM62.5 362.37h4.99v4.99H62.5zM71.43 362.37h4.99v4.99h-4.99zM80.36 362.37h4.99v4.99h-4.99zM89.29 362.37h4.99v4.99h-4.99zM107.15 362.37h4.99v4.99h-4.99zM125 362.37h4.99v4.99H125z" class="cls-2"/><path d="M133.93 362.37h4.99v4.99h-4.99z" class="cls-1"/><path d="M142.86 362.37h4.99v4.99h-4.99zM160.72 362.37h4.99v4.99h-4.99zM169.65 362.37h4.99v4.99h-4.99z" class="cls-2"/><path d="M178.58 362.37h4.99v4.99h-4.99z" class="cls-3"/><path d="M187.5 362.37h4.99v4.99h-4.99zM196.43 362.37h4.99v4.99h-4.99zM205.36 362.37h4.99v4.99h-4.99z" class="cls-2"/><path d="M214.29 362.37h4.99v4.99h-4.99z" class="cls-3"/><path d="M223.22 362.37h4.99v4.99h-4.99zM232.15 362.37h4.99v4.99h-4.99zM241.08 362.37h4.99v4.99h-4.99zM0 369.91h4.99v4.99H0zM8.93 369.91h4.99v4.99H8.93zM17.86 369.91h4.99v4.99h-4.99z" class="cls-2"/><path d="M26.79 369.91h4.99v4.99h-4.99z" class="cls-3"/><path d="M44.64 369.91h4.99v4.99h-4.99zM53.57 369.91h4.99v4.99h-4.99zM71.43 369.91h4.99v4.99h-4.99zM80.36 369.91h4.99v4.99h-4.99zM89.29 369.91h4.99v4.99h-4.99zM98.22 369.91h4.99v4.99h-4.99zM116.07 369.91h4.99v4.99h-4.99zM125 369.91h4.99v4.99H125zM133.93 369.91h4.99v4.99h-4.99zM142.86 369.91h4.99v4.99h-4.99zM151.79 369.91h4.99v4.99h-4.99zM160.72 369.91h4.99v4.99h-4.99z" class="cls-2"/><path d="M169.65 369.91h4.99v4.99h-4.99z" class="cls-3"/><path d="M178.58 369.91h4.99v4.99h-4.99zM187.5 369.91h4.99v4.99h-4.99zM196.43 369.91h4.99v4.99h-4.99zM205.36 369.91h4.99v4.99h-4.99zM214.29 369.91h4.99v4.99h-4.99zM223.22 369.91h4.99v4.99h-4.99zM232.15 369.91h4.99v4.99h-4.99zM241.08 369.91h4.99v4.99h-4.99zM26.79 377.44h4.99v4.99h-4.99z" class="cls-2"/><path d="M53.57 377.44h4.99v4.99h-4.99z" class="cls-3"/><path d="M62.5 377.44h4.99v4.99H62.5zM71.43 377.44h4.99v4.99h-4.99zM98.22 377.44h4.99v4.99h-4.99zM107.15 377.44h4.99v4.99h-4.99zM116.07 377.44h4.99v4.99h-4.99zM125 377.44h4.99v4.99H125z" class="cls-2"/><path d="M142.86 377.44h4.99v4.99h-4.99z" class="cls-1"/><path d="M151.79 377.44h4.99v4.99h-4.99zM160.72 377.44h4.99v4.99h-4.99z" class="cls-2"/><path d="M169.65 377.44h4.99v4.99h-4.99z" class="cls-1"/><path d="M178.58 377.44h4.99v4.99h-4.99zM187.5 377.44h4.99v4.99h-4.99zM196.43 377.44h4.99v4.99h-4.99zM214.29 377.44h4.99v4.99h-4.99zM223.22 377.44h4.99v4.99h-4.99zM232.15 377.44h4.99v4.99h-4.99zM241.08 377.44h4.99v4.99h-4.99zM544.66 0h4.99v4.99h-4.99zM553.58 0h4.99v4.99h-4.99zM562.51 0h4.99v4.99h-4.99zM571.44 0h4.99v4.99h-4.99zM580.37 0h4.99v4.99h-4.99zM589.3 0h4.99v4.99h-4.99zM598.23 0h4.99v4.99h-4.99zM607.16 0h4.99v4.99h-4.99zM616.09 0h4.99v4.99h-4.99zM544.66 7.54h4.99v4.99h-4.99zM553.58 7.54h4.99v4.99h-4.99zM562.51 7.54h4.99v4.99h-4.99zM571.44 7.54h4.99v4.99h-4.99zM580.37 7.54h4.99v4.99h-4.99zM589.3 7.54h4.99v4.99h-4.99zM598.23 7.54h4.99v4.99h-4.99zM607.16 7.54h4.99v4.99h-4.99zM616.09 7.54h4.99v4.99h-4.99zM535.73 15.08h4.99v4.99h-4.99zM544.66 15.08h4.99v4.99h-4.99zM553.58 15.08h4.99v4.99h-4.99zM562.51 15.08h4.99v4.99h-4.99zM571.44 15.08h4.99v4.99h-4.99zM580.37 15.08h4.99v4.99h-4.99zM589.3 15.08h4.99v4.99h-4.99zM598.23 15.08h4.99v4.99h-4.99zM607.16 15.08h4.99v4.99h-4.99zM616.09 15.08h4.99v4.99h-4.99zM535.73 22.62h4.99v4.99h-4.99zM544.66 22.62h4.99v4.99h-4.99zM553.58 22.62h4.99v4.99h-4.99zM562.51 22.62h4.99v4.99h-4.99zM571.44 22.62h4.99v4.99h-4.99z" class="cls-2"/><path d="M580.37 22.62h4.99v4.99h-4.99z" class="cls-1"/><path d="M589.3 22.62h4.99v4.99h-4.99zM598.23 22.62h4.99v4.99h-4.99zM607.16 22.62h4.99v4.99h-4.99zM535.73 30.15h4.99v4.99h-4.99zM544.66 30.15h4.99v4.99h-4.99zM553.58 30.15h4.99v4.99h-4.99zM562.51 30.15h4.99v4.99h-4.99zM571.44 30.15h4.99v4.99h-4.99zM580.37 30.15h4.99v4.99h-4.99zM589.3 30.15h4.99v4.99h-4.99zM598.23 30.15h4.99v4.99h-4.99zM607.16 30.15h4.99v4.99h-4.99zM535.73 37.69h4.99v4.99h-4.99zM544.66 37.69h4.99v4.99h-4.99zM553.58 37.69h4.99v4.99h-4.99zM562.51 37.69h4.99v4.99h-4.99zM571.44 37.69h4.99v4.99h-4.99zM580.37 37.69h4.99v4.99h-4.99zM589.3 37.69h4.99v4.99h-4.99zM598.23 37.69h4.99v4.99h-4.99zM607.16 37.69h4.99v4.99h-4.99zM526.8 45.23h4.99v4.99h-4.99zM535.73 45.23h4.99v4.99h-4.99zM544.66 45.23h4.99v4.99h-4.99zM553.58 45.23h4.99v4.99h-4.99zM562.51 45.23h4.99v4.99h-4.99zM571.44 45.23h4.99v4.99h-4.99zM580.37 45.23h4.99v4.99h-4.99zM589.3 45.23h4.99v4.99h-4.99zM598.23 45.23h4.99v4.99h-4.99zM607.16 45.23h4.99v4.99h-4.99zM526.8 52.77h4.99v4.99h-4.99zM535.73 52.77h4.99v4.99h-4.99zM544.66 52.77h4.99v4.99h-4.99zM553.58 52.77h4.99v4.99h-4.99zM562.51 52.77h4.99v4.99h-4.99zM571.44 52.77h4.99v4.99h-4.99zM580.37 52.77h4.99v4.99h-4.99zM589.3 52.77h4.99v4.99h-4.99zM598.23 52.77h4.99v4.99h-4.99zM526.8 60.31h4.99v4.99h-4.99zM535.73 60.31h4.99v4.99h-4.99zM544.66 60.31h4.99v4.99h-4.99zM553.58 60.31h4.99v4.99h-4.99zM562.51 60.31h4.99v4.99h-4.99zM571.44 60.31h4.99v4.99h-4.99zM580.37 60.31h4.99v4.99h-4.99zM589.3 60.31h4.99v4.99h-4.99zM598.23 60.31h4.99v4.99h-4.99zM517.87 67.85h4.99v4.99h-4.99zM526.8 67.85h4.99v4.99h-4.99zM535.73 67.85h4.99v4.99h-4.99zM544.66 67.85h4.99v4.99h-4.99z" class="cls-2"/><path d="M553.58 67.85h4.99v4.99h-4.99z" class="cls-1"/><path d="M562.51 67.85h4.99v4.99h-4.99zM571.44 67.85h4.99v4.99h-4.99zM580.37 67.85h4.99v4.99h-4.99zM589.3 67.85h4.99v4.99h-4.99zM517.87 75.38h4.99v4.99h-4.99zM526.8 75.38h4.99v4.99h-4.99zM535.73 75.38h4.99v4.99h-4.99zM544.66 75.38h4.99v4.99h-4.99zM553.58 75.38h4.99v4.99h-4.99zM562.51 75.38h4.99v4.99h-4.99zM571.44 75.38h4.99v4.99h-4.99zM580.37 75.38h4.99v4.99h-4.99zM589.3 75.38h4.99v4.99h-4.99zM517.87 82.92h4.99v4.99h-4.99zM526.8 82.92h4.99v4.99h-4.99zM535.73 82.92h4.99v4.99h-4.99zM544.66 82.92h4.99v4.99h-4.99zM553.58 82.92h4.99v4.99h-4.99zM562.51 82.92h4.99v4.99h-4.99zM571.44 82.92h4.99v4.99h-4.99zM580.37 82.92h4.99v4.99h-4.99zM589.3 82.92h4.99v4.99h-4.99zM508.94 90.46h4.99v4.99h-4.99zM517.87 90.46h4.99v4.99h-4.99zM526.8 90.46h4.99v4.99h-4.99zM535.73 90.46h4.99v4.99h-4.99zM544.66 90.46h4.99v4.99h-4.99zM553.58 90.46h4.99v4.99h-4.99zM562.51 90.46h4.99v4.99h-4.99zM571.44 90.46h4.99v4.99h-4.99zM580.37 90.46h4.99v4.99h-4.99zM589.3 90.46h4.99v4.99h-4.99zM508.94 98h4.99v4.99h-4.99zM517.87 98h4.99v4.99h-4.99zM526.8 98h4.99v4.99h-4.99zM535.73 98h4.99v4.99h-4.99zM544.66 98h4.99v4.99h-4.99zM553.58 98h4.99v4.99h-4.99zM562.51 98h4.99v4.99h-4.99zM571.44 98h4.99v4.99h-4.99zM580.37 98h4.99v4.99h-4.99zM508.94 105.54h4.99v4.99h-4.99z" class="cls-2"/><path d="M517.87 105.54h4.99v4.99h-4.99z" class="cls-1"/><path d="M526.8 105.54h4.99v4.99h-4.99zM535.73 105.54h4.99v4.99h-4.99zM544.66 105.54h4.99v4.99h-4.99zM553.58 105.54h4.99v4.99h-4.99zM562.51 105.54h4.99v4.99h-4.99zM571.44 105.54h4.99v4.99h-4.99zM580.37 105.54h4.99v4.99h-4.99zM580.37 113.08h4.99v4.99h-4.99zM508.94 113.08h4.99v4.99h-4.99zM517.87 113.08h4.99v4.99h-4.99zM526.8 113.08h4.99v4.99h-4.99zM535.73 113.08h4.99v4.99h-4.99zM544.66 113.08h4.99v4.99h-4.99zM553.58 113.08h4.99v4.99h-4.99zM562.51 113.08h4.99v4.99h-4.99zM571.44 113.08h4.99v4.99h-4.99zM303.58 120.62h4.99v4.99h-4.99zM312.51 120.62h4.99v4.99h-4.99zM500.01 120.62H505v4.99h-4.99zM508.94 120.62h4.99v4.99h-4.99zM517.87 120.62h4.99v4.99h-4.99zM526.8 120.62h4.99v4.99h-4.99zM535.73 120.62h4.99v4.99h-4.99zM544.66 120.62h4.99v4.99h-4.99zM553.58 120.62h4.99v4.99h-4.99zM562.51 120.62h4.99v4.99h-4.99zM571.44 120.62h4.99v4.99h-4.99zM294.65 128.15h4.99v4.99h-4.99zM303.58 128.15h4.99v4.99h-4.99zM312.51 128.15h4.99v4.99h-4.99zM500.01 128.15H505v4.99h-4.99zM508.94 128.15h4.99v4.99h-4.99zM517.87 128.15h4.99v4.99h-4.99zM526.8 128.15h4.99v4.99h-4.99zM535.73 128.15h4.99v4.99h-4.99zM544.66 128.15h4.99v4.99h-4.99zM553.58 128.15h4.99v4.99h-4.99zM562.51 128.15h4.99v4.99h-4.99zM571.44 128.15h4.99v4.99h-4.99zM276.79 135.69h4.99v4.99h-4.99zM285.72 135.69h4.99v4.99h-4.99zM294.65 135.69h4.99v4.99h-4.99zM303.58 135.69h4.99v4.99h-4.99zM312.51 135.69h4.99v4.99h-4.99zM500.01 135.69H505v4.99h-4.99zM508.94 135.69h4.99v4.99h-4.99zM517.87 135.69h4.99v4.99h-4.99zM526.8 135.69h4.99v4.99h-4.99zM535.73 135.69h4.99v4.99h-4.99zM544.66 135.69h4.99v4.99h-4.99zM553.58 135.69h4.99v4.99h-4.99zM562.51 135.69h4.99v4.99h-4.99zM571.44 135.69h4.99v4.99h-4.99zM258.93 143.23h4.99v4.99h-4.99zM267.86 143.23h4.99v4.99h-4.99zM276.79 143.23h4.99v4.99h-4.99zM285.72 143.23h4.99v4.99h-4.99zM294.65 143.23h4.99v4.99h-4.99zM303.58 143.23h4.99v4.99h-4.99zM312.51 143.23h4.99v4.99h-4.99zM491.08 143.23h4.99v4.99h-4.99zM500.01 143.23H505v4.99h-4.99zM517.87 143.23h4.99v4.99h-4.99zM526.8 143.23h4.99v4.99h-4.99zM535.73 143.23h4.99v4.99h-4.99zM553.58 143.23h4.99v4.99h-4.99zM562.51 143.23h4.99v4.99h-4.99zM571.44 143.23h4.99v4.99h-4.99zM250.01 150.77H255v4.99h-4.99zM258.93 150.77h4.99v4.99h-4.99zM267.86 150.77h4.99v4.99h-4.99zM276.79 150.77h4.99v4.99h-4.99zM285.72 150.77h4.99v4.99h-4.99zM294.65 150.77h4.99v4.99h-4.99zM303.58 150.77h4.99v4.99h-4.99zM312.51 150.77h4.99v4.99h-4.99zM491.08 150.77h4.99v4.99h-4.99zM500.01 150.77H505v4.99h-4.99zM508.94 150.77h4.99v4.99h-4.99zM517.87 150.77h4.99v4.99h-4.99zM526.8 150.77h4.99v4.99h-4.99zM535.73 150.77h4.99v4.99h-4.99zM544.66 150.77h4.99v4.99h-4.99zM553.58 150.77h4.99v4.99h-4.99zM562.51 150.77h4.99v4.99h-4.99zM250.01 158.31H255v4.99h-4.99zM258.93 158.31h4.99v4.99h-4.99zM267.86 158.31h4.99v4.99h-4.99zM276.79 158.31h4.99v4.99h-4.99zM285.72 158.31h4.99v4.99h-4.99zM294.65 158.31h4.99v4.99h-4.99zM303.58 158.31h4.99v4.99h-4.99zM312.51 158.31h4.99v4.99h-4.99zM491.08 158.31h4.99v4.99h-4.99zM500.01 158.31H505v4.99h-4.99zM508.94 158.31h4.99v4.99h-4.99zM517.87 158.31h4.99v4.99h-4.99zM526.8 158.31h4.99v4.99h-4.99zM535.73 158.31h4.99v4.99h-4.99zM544.66 158.31h4.99v4.99h-4.99zM553.58 158.31h4.99v4.99h-4.99zM562.51 158.31h4.99v4.99h-4.99zM250.01 165.85H255v4.99h-4.99zM258.93 165.85h4.99v4.99h-4.99zM267.86 165.85h4.99v4.99h-4.99zM276.79 165.85h4.99v4.99h-4.99zM285.72 165.85h4.99v4.99h-4.99zM294.65 165.85h4.99v4.99h-4.99zM303.58 165.85h4.99v4.99h-4.99zM312.51 165.85h4.99v4.99h-4.99zM491.08 165.85h4.99v4.99h-4.99zM500.01 165.85H505v4.99h-4.99zM508.94 165.85h4.99v4.99h-4.99zM517.87 165.85h4.99v4.99h-4.99zM526.8 165.85h4.99v4.99h-4.99z" class="cls-2"/><path d="M535.73 165.85h4.99v4.99h-4.99z" class="cls-1"/><path d="M544.66 165.85h4.99v4.99h-4.99zM553.58 165.85h4.99v4.99h-4.99zM562.51 165.85h4.99v4.99h-4.99zM250.01 173.39H255v4.99h-4.99zM258.93 173.39h4.99v4.99h-4.99zM267.86 173.39h4.99v4.99h-4.99zM276.79 173.39h4.99v4.99h-4.99zM285.72 173.39h4.99v4.99h-4.99zM294.65 173.39h4.99v4.99h-4.99zM303.58 173.39h4.99v4.99h-4.99zM312.51 173.39h4.99v4.99h-4.99zM482.15 173.39h4.99v4.99h-4.99z" class="cls-2"/><path d="M491.08 173.39h4.99v4.99h-4.99z" class="cls-3"/><path d="M500.01 173.39H505v4.99h-4.99zM508.94 173.39h4.99v4.99h-4.99zM517.87 173.39h4.99v4.99h-4.99zM526.8 173.39h4.99v4.99h-4.99zM535.73 173.39h4.99v4.99h-4.99zM544.66 173.39h4.99v4.99h-4.99zM562.51 173.39h4.99v4.99h-4.99zM250.01 180.92H255v4.99h-4.99zM258.93 180.92h4.99v4.99h-4.99zM267.86 180.92h4.99v4.99h-4.99zM276.79 180.92h4.99v4.99h-4.99zM285.72 180.92h4.99v4.99h-4.99zM294.65 180.92h4.99v4.99h-4.99zM303.58 180.92h4.99v4.99h-4.99zM312.51 180.92h4.99v4.99h-4.99zM491.08 180.92h4.99v4.99h-4.99zM500.01 180.92H505v4.99h-4.99zM508.94 180.92h4.99v4.99h-4.99zM517.87 180.92h4.99v4.99h-4.99zM535.73 180.92h4.99v4.99h-4.99zM544.66 180.92h4.99v4.99h-4.99zM553.58 180.92h4.99v4.99h-4.99zM250.01 188.46H255v4.99h-4.99zM258.93 188.46h4.99v4.99h-4.99zM267.86 188.46h4.99v4.99h-4.99zM276.79 188.46h4.99v4.99h-4.99zM285.72 188.46h4.99v4.99h-4.99zM294.65 188.46h4.99v4.99h-4.99zM303.58 188.46h4.99v4.99h-4.99zM312.51 188.46h4.99v4.99h-4.99zM482.15 188.46h4.99v4.99h-4.99zM491.08 188.46h4.99v4.99h-4.99zM500.01 188.46H505v4.99h-4.99zM508.94 188.46h4.99v4.99h-4.99zM517.87 188.46h4.99v4.99h-4.99zM526.8 188.46h4.99v4.99h-4.99zM535.73 188.46h4.99v4.99h-4.99zM544.66 188.46h4.99v4.99h-4.99zM553.58 188.46h4.99v4.99h-4.99zM250.01 196H255v4.99h-4.99zM258.93 196h4.99v4.99h-4.99zM267.86 196h4.99v4.99h-4.99zM276.79 196h4.99v4.99h-4.99zM285.72 196h4.99v4.99h-4.99zM294.65 196h4.99v4.99h-4.99zM303.58 196h4.99v4.99h-4.99zM312.51 196h4.99v4.99h-4.99zM473.23 196h4.99v4.99h-4.99zM482.15 196h4.99v4.99h-4.99zM491.08 196h4.99v4.99h-4.99zM508.94 196h4.99v4.99h-4.99zM517.87 196h4.99v4.99h-4.99zM526.8 196h4.99v4.99h-4.99zM535.73 196h4.99v4.99h-4.99zM544.66 196h4.99v4.99h-4.99zM553.58 196h4.99v4.99h-4.99zM250.01 203.54H255v4.99h-4.99zM258.93 203.54h4.99v4.99h-4.99zM267.86 203.54h4.99v4.99h-4.99zM276.79 203.54h4.99v4.99h-4.99zM285.72 203.54h4.99v4.99h-4.99zM294.65 203.54h4.99v4.99h-4.99zM303.58 203.54h4.99v4.99h-4.99zM312.51 203.54h4.99v4.99h-4.99zM473.23 203.54h4.99v4.99h-4.99zM482.15 203.54h4.99v4.99h-4.99zM491.08 203.54h4.99v4.99h-4.99zM500.01 203.54H505v4.99h-4.99zM508.94 203.54h4.99v4.99h-4.99zM517.87 203.54h4.99v4.99h-4.99z" class="cls-2"/><path d="M526.8 203.54h4.99v4.99h-4.99z" class="cls-3"/><path d="M535.73 203.54h4.99v4.99h-4.99zM544.66 203.54h4.99v4.99h-4.99zM553.58 203.54h4.99v4.99h-4.99zM250.01 211.08H255v4.99h-4.99zM258.93 211.08h4.99v4.99h-4.99zM267.86 211.08h4.99v4.99h-4.99zM276.79 211.08h4.99v4.99h-4.99zM285.72 211.08h4.99v4.99h-4.99zM294.65 211.08h4.99v4.99h-4.99zM303.58 211.08h4.99v4.99h-4.99zM312.51 211.08h4.99v4.99h-4.99zM473.23 211.08h4.99v4.99h-4.99zM482.15 211.08h4.99v4.99h-4.99zM491.08 211.08h4.99v4.99h-4.99zM500.01 211.08H505v4.99h-4.99zM508.94 211.08h4.99v4.99h-4.99zM517.87 211.08h4.99v4.99h-4.99zM526.8 211.08h4.99v4.99h-4.99zM535.73 211.08h4.99v4.99h-4.99zM544.66 211.08h4.99v4.99h-4.99zM250.01 218.62H255v4.99h-4.99zM258.93 218.62h4.99v4.99h-4.99zM267.86 218.62h4.99v4.99h-4.99zM276.79 218.62h4.99v4.99h-4.99zM285.72 218.62h4.99v4.99h-4.99zM294.65 218.62h4.99v4.99h-4.99zM303.58 218.62h4.99v4.99h-4.99zM312.51 218.62h4.99v4.99h-4.99zM473.23 218.62h4.99v4.99h-4.99zM482.15 218.62h4.99v4.99h-4.99zM500.01 218.62H505v4.99h-4.99zM508.94 218.62h4.99v4.99h-4.99zM517.87 218.62h4.99v4.99h-4.99zM526.8 218.62h4.99v4.99h-4.99zM535.73 218.62h4.99v4.99h-4.99zM544.66 218.62h4.99v4.99h-4.99zM250.01 226.68H255v4.99h-4.99zM258.93 226.68h4.99v4.99h-4.99zM267.86 226.68h4.99v4.99h-4.99zM276.79 226.68h4.99v4.99h-4.99zM285.72 226.68h4.99v4.99h-4.99zM294.65 226.68h4.99v4.99h-4.99zM464.3 226.68h4.99v4.99h-4.99zM473.23 226.68h4.99v4.99h-4.99zM482.15 226.68h4.99v4.99h-4.99zM491.08 226.68h4.99v4.99h-4.99zM500.01 226.68H505v4.99h-4.99z" class="cls-2"/><path d="M508.94 226.68h4.99v4.99h-4.99z" class="cls-1"/><path d="M517.87 226.68h4.99v4.99h-4.99zM526.8 226.68h4.99v4.99h-4.99zM535.73 226.68h4.99v4.99h-4.99zM544.66 226.68h4.99v4.99h-4.99zM250.01 234.21H255v4.99h-4.99zM258.93 234.21h4.99v4.99h-4.99zM267.86 234.21h4.99v4.99h-4.99zM276.79 234.21h4.99v4.99h-4.99zM464.3 234.21h4.99v4.99h-4.99zM473.23 234.21h4.99v4.99h-4.99zM482.15 234.21h4.99v4.99h-4.99zM491.08 234.21h4.99v4.99h-4.99zM500.01 234.21H505v4.99h-4.99zM508.94 234.21h4.99v4.99h-4.99zM526.8 234.21h4.99v4.99h-4.99zM535.73 234.21h4.99v4.99h-4.99zM250.01 241.75H255v4.99h-4.99zM464.3 241.75h4.99v4.99h-4.99zM482.15 241.75h4.99v4.99h-4.99z" class="cls-2"/><path d="M491.08 241.75h4.99v4.99h-4.99z" class="cls-3"/><path d="M500.01 241.75H505v4.99h-4.99zM508.94 241.75h4.99v4.99h-4.99zM517.87 241.75h4.99v4.99h-4.99z" class="cls-2"/><path d="M535.73 241.75h4.99v4.99h-4.99z" class="cls-1"/><path d="M464.3 249.29h4.99v4.99h-4.99zM473.23 249.29h4.99v4.99h-4.99zM482.15 249.29h4.99v4.99h-4.99zM491.08 249.29h4.99v4.99h-4.99zM500.01 249.29H505v4.99h-4.99zM508.94 249.29h4.99v4.99h-4.99zM517.87 249.29h4.99v4.99h-4.99zM526.8 249.29h4.99v4.99h-4.99zM535.73 249.29h4.99v4.99h-4.99zM464.3 256.83h4.99v4.99h-4.99zM473.23 256.83h4.99v4.99h-4.99zM482.15 256.83h4.99v4.99h-4.99z" class="cls-2"/><path d="M491.08 256.83h4.99v4.99h-4.99z" class="cls-3"/><path d="M500.01 256.83H505v4.99h-4.99zM508.94 256.83h4.99v4.99h-4.99zM517.87 256.83h4.99v4.99h-4.99zM526.8 256.83h4.99v4.99h-4.99zM535.73 256.83h4.99v4.99h-4.99zM455.37 264.37h4.99v4.99h-4.99zM464.3 264.37h4.99v4.99h-4.99zM473.23 264.37h4.99v4.99h-4.99zM482.15 264.37h4.99v4.99h-4.99zM491.08 264.37h4.99v4.99h-4.99zM500.01 264.37H505v4.99h-4.99zM508.94 264.37h4.99v4.99h-4.99zM517.87 264.37h4.99v4.99h-4.99zM526.8 264.37h4.99v4.99h-4.99zM455.37 271.91h4.99v4.99h-4.99zM464.3 271.91h4.99v4.99h-4.99zM473.23 271.91h4.99v4.99h-4.99zM482.15 271.91h4.99v4.99h-4.99zM491.08 271.91h4.99v4.99h-4.99zM500.01 271.91H505v4.99h-4.99zM508.94 271.91h4.99v4.99h-4.99zM517.87 271.91h4.99v4.99h-4.99zM526.8 271.91h4.99v4.99h-4.99zM535.73 271.91h4.99v4.99h-4.99zM446.44 279.44h4.99v4.99h-4.99zM455.37 279.44h4.99v4.99h-4.99zM464.3 279.44h4.99v4.99h-4.99zM473.23 279.44h4.99v4.99h-4.99zM482.15 279.44h4.99v4.99h-4.99zM491.08 279.44h4.99v4.99h-4.99zM500.01 279.44H505v4.99h-4.99zM508.94 279.44h4.99v4.99h-4.99zM526.8 279.44h4.99v4.99h-4.99zM446.44 286.98h4.99v4.99h-4.99zM455.37 286.98h4.99v4.99h-4.99zM473.23 286.98h4.99v4.99h-4.99zM482.15 286.98h4.99v4.99h-4.99zM500.01 286.98H505v4.99h-4.99zM508.94 286.98h4.99v4.99h-4.99zM517.87 286.98h4.99v4.99h-4.99zM526.8 286.98h4.99v4.99h-4.99zM446.44 294.52h4.99v4.99h-4.99zM455.37 294.52h4.99v4.99h-4.99zM464.3 294.52h4.99v4.99h-4.99zM473.23 294.52h4.99v4.99h-4.99zM482.15 294.52h4.99v4.99h-4.99zM491.08 294.52h4.99v4.99h-4.99zM500.01 294.52H505v4.99h-4.99zM517.87 294.52h4.99v4.99h-4.99z" class="cls-2"/><path d="M526.8 294.52h4.99v4.99h-4.99z" class="cls-3"/><path d="M446.44 302.06h4.99v4.99h-4.99zM455.37 302.06h4.99v4.99h-4.99zM464.3 302.06h4.99v4.99h-4.99zM473.23 302.06h4.99v4.99h-4.99z" class="cls-2"/><path d="M482.15 302.06h4.99v4.99h-4.99z" class="cls-1"/><path d="M491.08 302.06h4.99v4.99h-4.99zM508.94 302.06h4.99v4.99h-4.99zM517.87 302.06h4.99v4.99h-4.99zM526.8 302.06h4.99v4.99h-4.99zM437.51 309.6h4.99v4.99h-4.99zM446.44 309.6h4.99v4.99h-4.99zM455.37 309.6h4.99v4.99h-4.99zM464.3 309.6h4.99v4.99h-4.99zM473.23 309.6h4.99v4.99h-4.99zM482.15 309.6h4.99v4.99h-4.99zM491.08 309.6h4.99v4.99h-4.99z" class="cls-2"/><path d="M500.01 309.6H505v4.99h-4.99z" class="cls-1"/><path d="M508.94 309.6h4.99v4.99h-4.99zM517.87 309.6h4.99v4.99h-4.99zM437.51 317.14h4.99v4.99h-4.99zM455.37 317.14h4.99v4.99h-4.99zM464.3 317.14h4.99v4.99h-4.99zM473.23 317.14h4.99v4.99h-4.99zM482.15 317.14h4.99v4.99h-4.99zM491.08 317.14h4.99v4.99h-4.99zM500.01 317.14H505v4.99h-4.99zM508.94 317.14h4.99v4.99h-4.99zM517.87 317.14h4.99v4.99h-4.99zM428.58 324.68h4.99v4.99h-4.99zM437.51 324.68h4.99v4.99h-4.99zM446.44 324.68h4.99v4.99h-4.99zM455.37 324.68h4.99v4.99h-4.99zM464.3 324.68h4.99v4.99h-4.99zM473.23 324.68h4.99v4.99h-4.99zM482.15 324.68h4.99v4.99h-4.99zM491.08 324.68h4.99v4.99h-4.99zM500.01 324.68H505v4.99h-4.99zM508.94 324.68h4.99v4.99h-4.99z" class="cls-2"/><path d="M517.87 324.68h4.99v4.99h-4.99z" class="cls-3"/><path d="M428.58 332.21h4.99v4.99h-4.99zM437.51 332.21h4.99v4.99h-4.99zM455.37 332.21h4.99v4.99h-4.99zM464.3 332.21h4.99v4.99h-4.99zM473.23 332.21h4.99v4.99h-4.99zM482.15 332.21h4.99v4.99h-4.99zM491.08 332.21h4.99v4.99h-4.99zM500.01 332.21H505v4.99h-4.99zM508.94 332.21h4.99v4.99h-4.99zM517.87 332.21h4.99v4.99h-4.99zM428.58 339.75h4.99v4.99h-4.99zM437.51 339.75h4.99v4.99h-4.99zM446.44 339.75h4.99v4.99h-4.99zM455.37 339.75h4.99v4.99h-4.99zM464.3 339.75h4.99v4.99h-4.99zM482.15 339.75h4.99v4.99h-4.99zM491.08 339.75h4.99v4.99h-4.99z" class="cls-2"/><path d="M500.01 339.75H505v4.99h-4.99z" class="cls-1"/><path d="M508.94 339.75h4.99v4.99h-4.99zM250.01 347.29H255v4.99h-4.99zM428.58 347.29h4.99v4.99h-4.99zM437.51 347.29h4.99v4.99h-4.99zM446.44 347.29h4.99v4.99h-4.99zM455.37 347.29h4.99v4.99h-4.99zM473.23 347.29h4.99v4.99h-4.99zM482.15 347.29h4.99v4.99h-4.99zM500.01 347.29H505v4.99h-4.99zM508.94 347.29h4.99v4.99h-4.99zM250.01 354.83H255v4.99h-4.99zM258.93 354.83h4.99v4.99h-4.99zM267.86 354.83h4.99v4.99h-4.99zM276.79 354.83h4.99v4.99h-4.99zM419.65 354.83h4.99v4.99h-4.99zM428.58 354.83h4.99v4.99h-4.99zM437.51 354.83h4.99v4.99h-4.99zM446.44 354.83h4.99v4.99h-4.99zM455.37 354.83h4.99v4.99h-4.99zM464.3 354.83h4.99v4.99h-4.99zM473.23 354.83h4.99v4.99h-4.99zM482.15 354.83h4.99v4.99h-4.99zM491.08 354.83h4.99v4.99h-4.99zM500.01 354.83H505v4.99h-4.99z" class="cls-2"/><path d="M508.94 354.83h4.99v4.99h-4.99z" class="cls-3"/><path d="M250.01 362.37H255v4.99h-4.99zM258.93 362.37h4.99v4.99h-4.99zM267.86 362.37h4.99v4.99h-4.99zM276.79 362.37h4.99v4.99h-4.99zM285.72 362.37h4.99v4.99h-4.99zM294.65 362.37h4.99v4.99h-4.99zM419.65 362.37h4.99v4.99h-4.99zM428.58 362.37h4.99v4.99h-4.99zM437.51 362.37h4.99v4.99h-4.99z" class="cls-2"/><path d="M446.44 362.37h4.99v4.99h-4.99z" class="cls-1"/><path d="M455.37 362.37h4.99v4.99h-4.99zM464.3 362.37h4.99v4.99h-4.99zM473.23 362.37h4.99v4.99h-4.99z" class="cls-2"/><path d="M482.15 362.37h4.99v4.99h-4.99z" class="cls-3"/><path d="M491.08 362.37h4.99v4.99h-4.99zM500.01 362.37H505v4.99h-4.99zM517.87 362.37h4.99v4.99h-4.99zM250.01 369.91H255v4.99h-4.99z" class="cls-2"/><path d="M258.93 369.91h4.99v4.99h-4.99z" class="cls-3"/><path d="M267.86 369.91h4.99v4.99h-4.99zM276.79 369.91h4.99v4.99h-4.99zM285.72 369.91h4.99v4.99h-4.99zM294.65 369.91h4.99v4.99h-4.99zM303.58 369.91h4.99v4.99h-4.99zM312.51 369.91h4.99v4.99h-4.99zM419.65 369.91h4.99v4.99h-4.99zM428.58 369.91h4.99v4.99h-4.99zM437.51 369.91h4.99v4.99h-4.99zM446.44 369.91h4.99v4.99h-4.99zM455.37 369.91h4.99v4.99h-4.99zM464.3 369.91h4.99v4.99h-4.99z" class="cls-2"/><path d="M473.23 369.91h4.99v4.99h-4.99z" class="cls-1"/><path d="M482.15 369.91h4.99v4.99h-4.99zM491.08 369.91h4.99v4.99h-4.99zM500.01 369.91H505v4.99h-4.99zM508.94 369.91h4.99v4.99h-4.99z" class="cls-2"/><path d="M526.8 369.91h4.99v4.99h-4.99zM250.01 377.44H255v4.99h-4.99z" class="cls-3"/><path d="M258.93 377.44h4.99v4.99h-4.99zM267.86 377.44h4.99v4.99h-4.99zM276.79 377.44h4.99v4.99h-4.99zM285.72 377.44h4.99v4.99h-4.99zM294.65 377.44h4.99v4.99h-4.99zM303.58 377.44h4.99v4.99h-4.99zM312.51 377.44h4.99v4.99h-4.99zM410.72 377.44h4.99v4.99h-4.99zM419.65 377.44h4.99v4.99h-4.99zM437.51 377.44h4.99v4.99h-4.99zM446.44 377.44h4.99v4.99h-4.99z" class="cls-2"/><path d="M455.37 377.44h4.99v4.99h-4.99z" class="cls-3"/><path d="M464.3 377.44h4.99v4.99h-4.99zM473.23 377.44h4.99v4.99h-4.99zM482.15 377.44h4.99v4.99h-4.99zM491.08 377.44h4.99v4.99h-4.99z" class="cls-2"/><path d="M500.01 377.44H505v4.99h-4.99z" class="cls-3"/><path d="M517.87 377.44h4.99v4.99h-4.99zM678.8 128.15h4.99v4.99h-4.99zM687.73 128.15h4.99v4.99h-4.99zM678.8 135.69h4.99v4.99h-4.99zM687.73 135.69h4.99v4.99h-4.99zM696.66 135.69h4.99v4.99h-4.99zM678.8 143.23h4.99v4.99h-4.99zM687.73 143.23h4.99v4.99h-4.99zM696.66 143.23h4.99v4.99h-4.99zM678.8 150.77h4.99v4.99h-4.99zM687.73 150.77h4.99v4.99h-4.99zM696.66 150.77h4.99v4.99h-4.99zM678.8 158.31h4.99v4.99h-4.99zM687.73 158.31h4.99v4.99h-4.99zM696.66 158.31h4.99v4.99h-4.99zM678.8 165.85h4.99v4.99h-4.99zM687.73 165.85h4.99v4.99h-4.99zM696.66 165.85h4.99v4.99h-4.99zM678.8 173.39h4.99v4.99h-4.99zM687.73 173.39h4.99v4.99h-4.99zM696.66 173.39h4.99v4.99h-4.99zM678.8 180.92h4.99v4.99h-4.99zM687.73 180.92h4.99v4.99h-4.99zM696.66 180.92h4.99v4.99h-4.99zM678.8 188.46h4.99v4.99h-4.99zM687.73 188.46h4.99v4.99h-4.99zM696.66 188.46h4.99v4.99h-4.99zM678.8 196h4.99v4.99h-4.99zM687.73 196h4.99v4.99h-4.99zM696.66 196h4.99v4.99h-4.99zM678.8 203.54h4.99v4.99h-4.99zM687.73 203.54h4.99v4.99h-4.99zM696.66 203.54h4.99v4.99h-4.99zM678.8 211.08h4.99v4.99h-4.99zM687.73 211.08h4.99v4.99h-4.99z" class="cls-2"/><path d="M696.66 211.08h4.99v4.99h-4.99z" class="cls-1"/><path d="M678.8 218.62h4.99v4.99h-4.99zM687.73 218.62h4.99v4.99h-4.99zM696.66 218.62h4.99v4.99h-4.99zM696.66 226.68h4.99v4.99h-4.99zM696.66 362.37h4.99v4.99h-4.99zM678.8 369.91h4.99v4.99h-4.99zM687.73 369.91h4.99v4.99h-4.99zM696.66 369.91h4.99v4.99h-4.99zM678.8 377.44h4.99v4.99h-4.99zM687.73 377.44h4.99v4.99h-4.99zM696.66 377.44h4.99v4.99h-4.99z" class="cls-2"/><path d="M0 384.98h4.99v4.99H0z" class="cls-3"/><path d="M8.93 384.98h4.99v4.99H8.93zM35.72 384.98h4.99v4.99h-4.99zM53.57 384.98h4.99v4.99h-4.99zM71.43 384.98h4.99v4.99h-4.99zM80.36 384.98h4.99v4.99h-4.99zM89.29 384.98h4.99v4.99h-4.99zM116.07 384.98h4.99v4.99h-4.99zM142.86 384.98h4.99v4.99h-4.99zM151.79 384.98h4.99v4.99h-4.99zM160.72 384.98h4.99v4.99h-4.99zM169.65 384.98h4.99v4.99h-4.99zM178.58 384.98h4.99v4.99h-4.99zM187.5 384.98h4.99v4.99h-4.99zM196.43 384.98h4.99v4.99h-4.99zM205.36 384.98h4.99v4.99h-4.99zM214.29 384.98h4.99v4.99h-4.99zM223.22 384.98h4.99v4.99h-4.99zM232.15 384.98h4.99v4.99h-4.99zM241.08 384.98h4.99v4.99h-4.99zM250.01 384.98H255v4.99h-4.99zM258.93 384.98h4.99v4.99h-4.99zM267.86 384.98h4.99v4.99h-4.99z" class="cls-2"/><path d="M276.79 384.98h4.99v4.99h-4.99z" class="cls-3"/><path d="M285.72 384.98h4.99v4.99h-4.99zM294.65 384.98h4.99v4.99h-4.99zM303.58 384.98h4.99v4.99h-4.99zM312.51 384.98h4.99v4.99h-4.99zM410.72 384.98h4.99v4.99h-4.99zM419.65 384.98h4.99v4.99h-4.99zM428.58 384.98h4.99v4.99h-4.99zM437.51 384.98h4.99v4.99h-4.99zM446.44 384.98h4.99v4.99h-4.99zM455.37 384.98h4.99v4.99h-4.99zM0 392.52h4.99v4.99H0zM8.93 392.52h4.99v4.99H8.93zM17.86 392.52h4.99v4.99h-4.99zM26.79 392.52h4.99v4.99h-4.99zM35.72 392.52h4.99v4.99h-4.99zM44.64 392.52h4.99v4.99h-4.99zM53.57 392.52h4.99v4.99h-4.99zM71.43 392.52h4.99v4.99h-4.99zM89.29 392.52h4.99v4.99h-4.99zM107.15 392.52h4.99v4.99h-4.99zM125 392.52h4.99v4.99H125zM133.93 392.52h4.99v4.99h-4.99zM142.86 392.52h4.99v4.99h-4.99z" class="cls-2"/><path d="M151.79 392.52h4.99v4.99h-4.99z" class="cls-1"/><path d="M160.72 392.52h4.99v4.99h-4.99zM196.43 392.52h4.99v4.99h-4.99z" class="cls-2"/><path d="M205.36 392.52h4.99v4.99h-4.99z" class="cls-1"/><path d="M214.29 392.52h4.99v4.99h-4.99zM223.22 392.52h4.99v4.99h-4.99z" class="cls-2"/><path d="M250.01 392.52H255v4.99h-4.99z" class="cls-1"/><path d="M258.93 392.52h4.99v4.99h-4.99z" class="cls-2"/><path d="M267.86 392.52h4.99v4.99h-4.99z" class="cls-1"/><path d="M276.79 392.52h4.99v4.99h-4.99zM285.72 392.52h4.99v4.99h-4.99zM294.65 392.52h4.99v4.99h-4.99zM303.58 392.52h4.99v4.99h-4.99zM312.51 392.52h4.99v4.99h-4.99zM410.72 392.52h4.99v4.99h-4.99zM419.65 392.52h4.99v4.99h-4.99zM428.58 392.52h4.99v4.99h-4.99zM437.51 392.52h4.99v4.99h-4.99zM446.44 392.52h4.99v4.99h-4.99zM455.37 392.52h4.99v4.99h-4.99zM17.86 400.06h4.99v4.99h-4.99zM35.72 400.06h4.99v4.99h-4.99z" class="cls-2"/><path d="M44.64 400.06h4.99v4.99h-4.99z" class="cls-3"/><path d="M62.5 400.06h4.99v4.99H62.5zM80.36 400.06h4.99v4.99h-4.99zM125 400.06h4.99v4.99H125zM142.86 400.06h4.99v4.99h-4.99zM151.79 400.06h4.99v4.99h-4.99zM160.72 400.06h4.99v4.99h-4.99zM169.65 400.06h4.99v4.99h-4.99zM178.58 400.06h4.99v4.99h-4.99zM187.5 400.06h4.99v4.99h-4.99zM196.43 400.06h4.99v4.99h-4.99zM205.36 400.06h4.99v4.99h-4.99zM214.29 400.06h4.99v4.99h-4.99zM223.22 400.06h4.99v4.99h-4.99zM232.15 400.06h4.99v4.99h-4.99zM241.08 400.06h4.99v4.99h-4.99zM250.01 400.06H255v4.99h-4.99zM258.93 400.06h4.99v4.99h-4.99zM267.86 400.06h4.99v4.99h-4.99zM276.79 400.06h4.99v4.99h-4.99zM294.65 400.06h4.99v4.99h-4.99zM303.58 400.06h4.99v4.99h-4.99zM312.51 400.06h4.99v4.99h-4.99zM410.72 400.06h4.99v4.99h-4.99zM428.58 400.06h4.99v4.99h-4.99zM437.51 400.06h4.99v4.99h-4.99zM446.44 400.06h4.99v4.99h-4.99zM455.37 400.06h4.99v4.99h-4.99zM17.86 407.6h4.99v4.99h-4.99zM26.79 407.6h4.99v4.99h-4.99z" class="cls-2"/><path d="M53.57 407.6h4.99v4.99h-4.99z" class="cls-3"/><path d="M71.43 407.6h4.99v4.99h-4.99zM80.36 407.6h4.99v4.99h-4.99zM89.29 407.6h4.99v4.99h-4.99zM98.22 407.6h4.99v4.99h-4.99zM107.15 407.6h4.99v4.99h-4.99zM142.86 407.6h4.99v4.99h-4.99zM151.79 407.6h4.99v4.99h-4.99zM169.65 407.6h4.99v4.99h-4.99zM178.58 407.6h4.99v4.99h-4.99zM187.5 407.6h4.99v4.99h-4.99zM205.36 407.6h4.99v4.99h-4.99zM223.22 407.6h4.99v4.99h-4.99zM232.15 407.6h4.99v4.99h-4.99zM241.08 407.6h4.99v4.99h-4.99zM258.93 407.6h4.99v4.99h-4.99zM267.86 407.6h4.99v4.99h-4.99zM276.79 407.6h4.99v4.99h-4.99zM285.72 407.6h4.99v4.99h-4.99zM294.65 407.6h4.99v4.99h-4.99z" class="cls-2"/><path d="M303.58 407.6h4.99v4.99h-4.99z" class="cls-1"/><path d="M312.51 407.6h4.99v4.99h-4.99zM401.8 407.6h4.99v4.99h-4.99zM410.72 407.6h4.99v4.99h-4.99zM419.65 407.6h4.99v4.99h-4.99zM428.58 407.6h4.99v4.99h-4.99zM437.51 407.6h4.99v4.99h-4.99z" class="cls-2"/><path d="M446.44 407.6h4.99v4.99h-4.99z" class="cls-3"/><path d="M455.37 407.6h4.99v4.99h-4.99zM8.93 415.14h4.99v4.99H8.93zM53.57 415.14h4.99v4.99h-4.99zM80.36 415.14h4.99v4.99h-4.99zM89.29 415.14h4.99v4.99h-4.99zM125 415.14h4.99v4.99H125zM133.93 415.14h4.99v4.99h-4.99zM142.86 415.14h4.99v4.99h-4.99zM178.58 415.14h4.99v4.99h-4.99zM187.5 415.14h4.99v4.99h-4.99zM196.43 415.14h4.99v4.99h-4.99zM205.36 415.14h4.99v4.99h-4.99z" class="cls-2"/><path d="M214.29 415.14h4.99v4.99h-4.99z" class="cls-1"/><path d="M223.22 415.14h4.99v4.99h-4.99zM232.15 415.14h4.99v4.99h-4.99zM241.08 415.14h4.99v4.99h-4.99zM250.01 415.14H255v4.99h-4.99zM258.93 415.14h4.99v4.99h-4.99z" class="cls-2"/><path d="M267.86 415.14h4.99v4.99h-4.99z" class="cls-1"/><path d="M276.79 415.14h4.99v4.99h-4.99z" class="cls-2"/><path d="M285.72 415.14h4.99v4.99h-4.99z" class="cls-1"/><path d="M294.65 415.14h4.99v4.99h-4.99zM303.58 415.14h4.99v4.99h-4.99zM312.51 415.14h4.99v4.99h-4.99zM401.8 415.14h4.99v4.99h-4.99zM410.72 415.14h4.99v4.99h-4.99zM419.65 415.14h4.99v4.99h-4.99zM428.58 415.14h4.99v4.99h-4.99zM437.51 415.14h4.99v4.99h-4.99zM446.44 415.14h4.99v4.99h-4.99zM455.37 415.14h4.99v4.99h-4.99zM26.79 422.68h4.99v4.99h-4.99zM53.57 422.68h4.99v4.99h-4.99z" class="cls-2"/><path d="M71.43 422.68h4.99v4.99h-4.99z" class="cls-3"/><path d="M80.36 422.68h4.99v4.99h-4.99zM107.15 422.68h4.99v4.99h-4.99zM125 422.68h4.99v4.99H125zM160.72 422.68h4.99v4.99h-4.99zM169.65 422.68h4.99v4.99h-4.99zM178.58 422.68h4.99v4.99h-4.99zM196.43 422.68h4.99v4.99h-4.99zM214.29 422.68h4.99v4.99h-4.99zM232.15 422.68h4.99v4.99h-4.99z" class="cls-2"/><path d="M241.08 422.68h4.99v4.99h-4.99z" class="cls-1"/><path d="M250.01 422.68H255v4.99h-4.99zM258.93 422.68h4.99v4.99h-4.99zM267.86 422.68h4.99v4.99h-4.99zM276.79 422.68h4.99v4.99h-4.99zM285.72 422.68h4.99v4.99h-4.99zM294.65 422.68h4.99v4.99h-4.99z" class="cls-2"/><path d="M303.58 422.68h4.99v4.99h-4.99z" class="cls-3"/><path d="M312.51 422.68h4.99v4.99h-4.99zM401.8 422.68h4.99v4.99h-4.99zM410.72 422.68h4.99v4.99h-4.99zM419.65 422.68h4.99v4.99h-4.99zM428.58 422.68h4.99v4.99h-4.99zM446.44 422.68h4.99v4.99h-4.99zM455.37 422.68h4.99v4.99h-4.99zM80.36 430.21h4.99v4.99h-4.99zM107.15 430.21h4.99v4.99h-4.99zM116.07 430.21h4.99v4.99h-4.99zM133.93 430.21h4.99v4.99h-4.99zM142.86 430.21h4.99v4.99h-4.99zM160.72 430.21h4.99v4.99h-4.99zM169.65 430.21h4.99v4.99h-4.99z" class="cls-2"/><path d="M178.58 430.21h4.99v4.99h-4.99z" class="cls-3"/><path d="M187.5 430.21h4.99v4.99h-4.99zM196.43 430.21h4.99v4.99h-4.99zM214.29 430.21h4.99v4.99h-4.99zM223.22 430.21h4.99v4.99h-4.99z" class="cls-2"/><path d="M232.15 430.21h4.99v4.99h-4.99z" class="cls-1"/><path d="M241.08 430.21h4.99v4.99h-4.99zM250.01 430.21H255v4.99h-4.99zM267.86 430.21h4.99v4.99h-4.99z" class="cls-2"/><path d="M276.79 430.21h4.99v4.99h-4.99z" class="cls-3"/><path d="M285.72 430.21h4.99v4.99h-4.99z" class="cls-2"/><path d="M303.58 430.21h4.99v4.99h-4.99z" class="cls-1"/><path d="M312.51 430.21h4.99v4.99h-4.99zM401.8 430.21h4.99v4.99h-4.99zM410.72 430.21h4.99v4.99h-4.99zM419.65 430.21h4.99v4.99h-4.99zM428.58 430.21h4.99v4.99h-4.99z" class="cls-2"/><path d="M437.51 430.21h4.99v4.99h-4.99z" class="cls-3"/><path d="M446.44 430.21h4.99v4.99h-4.99zM455.37 430.21h4.99v4.99h-4.99zM89.29 437.75h4.99v4.99h-4.99z" class="cls-2"/><path d="M125 437.75h4.99v4.99H125zM133.93 437.75h4.99v4.99h-4.99z" class="cls-1"/><path d="M160.72 437.75h4.99v4.99h-4.99zM187.5 437.75h4.99v4.99h-4.99zM196.43 437.75h4.99v4.99h-4.99zM205.36 437.75h4.99v4.99h-4.99z" class="cls-2"/><path d="M241.08 437.75h4.99v4.99h-4.99z" class="cls-1"/><path d="M250.01 437.75H255v4.99h-4.99zM258.93 437.75h4.99v4.99h-4.99zM267.86 437.75h4.99v4.99h-4.99zM276.79 437.75h4.99v4.99h-4.99zM285.72 437.75h4.99v4.99h-4.99zM294.65 437.75h4.99v4.99h-4.99zM303.58 437.75h4.99v4.99h-4.99zM312.51 437.75h4.99v4.99h-4.99zM392.87 437.75h4.99v4.99h-4.99zM401.8 437.75h4.99v4.99h-4.99zM410.72 437.75h4.99v4.99h-4.99zM419.65 437.75h4.99v4.99h-4.99zM428.58 437.75h4.99v4.99h-4.99zM437.51 437.75h4.99v4.99h-4.99zM446.44 437.75h4.99v4.99h-4.99z" class="cls-2"/><path d="M107.15 445.29h4.99v4.99h-4.99z" class="cls-1"/><path d="M116.07 445.29h4.99v4.99h-4.99zM133.93 445.29h4.99v4.99h-4.99zM142.86 445.29h4.99v4.99h-4.99zM151.79 445.29h4.99v4.99h-4.99zM169.65 445.29h4.99v4.99h-4.99z" class="cls-2"/><path d="M178.58 445.29h4.99v4.99h-4.99z" class="cls-3"/><path d="M187.5 445.29h4.99v4.99h-4.99z" class="cls-2"/><path d="M214.29 445.29h4.99v4.99h-4.99z" class="cls-3"/><path d="M223.22 445.29h4.99v4.99h-4.99zM250.01 445.29H255v4.99h-4.99zM258.93 445.29h4.99v4.99h-4.99z" class="cls-2"/><path d="M267.86 445.29h4.99v4.99h-4.99z" class="cls-1"/><path d="M276.79 445.29h4.99v4.99h-4.99z" class="cls-2"/><path d="M285.72 445.29h4.99v4.99h-4.99z" class="cls-1"/><path d="M294.65 445.29h4.99v4.99h-4.99zM312.51 445.29h4.99v4.99h-4.99zM392.87 445.29h4.99v4.99h-4.99z" class="cls-2"/><path d="M401.8 445.29h4.99v4.99h-4.99z" class="cls-3"/><path d="M410.72 445.29h4.99v4.99h-4.99z" class="cls-2"/><path d="M419.65 445.29h4.99v4.99h-4.99z" class="cls-1"/><path d="M428.58 445.29h4.99v4.99h-4.99zM437.51 445.29h4.99v4.99h-4.99zM446.44 445.29h4.99v4.99h-4.99zM455.37 445.29h4.99v4.99h-4.99zM80.36 452.83h4.99v4.99h-4.99zM107.15 452.83h4.99v4.99h-4.99z" class="cls-2"/><path d="M142.86 452.83h4.99v4.99h-4.99z" class="cls-3"/><path d="M151.79 452.83h4.99v4.99h-4.99zM160.72 452.83h4.99v4.99h-4.99zM178.58 452.83h4.99v4.99h-4.99zM196.43 452.83h4.99v4.99h-4.99zM205.36 452.83h4.99v4.99h-4.99zM232.15 452.83h4.99v4.99h-4.99zM250.01 452.83H255v4.99h-4.99zM276.79 452.83h4.99v4.99h-4.99zM285.72 452.83h4.99v4.99h-4.99zM294.65 452.83h4.99v4.99h-4.99zM303.58 452.83h4.99v4.99h-4.99zM312.51 452.83h4.99v4.99h-4.99zM392.87 452.83h4.99v4.99h-4.99zM401.8 452.83h4.99v4.99h-4.99zM410.72 452.83h4.99v4.99h-4.99zM419.65 452.83h4.99v4.99h-4.99zM428.58 452.83h4.99v4.99h-4.99z" class="cls-2"/><path d="M437.51 452.83h4.99v4.99h-4.99z" class="cls-1"/><path d="M446.44 452.83h4.99v4.99h-4.99zM455.37 452.83h4.99v4.99h-4.99z" class="cls-2"/><path d="M89.29 460.37h4.99v4.99h-4.99z" class="cls-3"/><path d="M107.15 460.37h4.99v4.99h-4.99z" class="cls-1"/><path d="M116.07 460.37h4.99v4.99h-4.99zM133.93 460.37h4.99v4.99h-4.99zM160.72 460.37h4.99v4.99h-4.99zM169.65 460.37h4.99v4.99h-4.99zM178.58 460.37h4.99v4.99h-4.99zM187.5 460.37h4.99v4.99h-4.99zM196.43 460.37h4.99v4.99h-4.99zM223.22 460.37h4.99v4.99h-4.99zM232.15 460.37h4.99v4.99h-4.99zM250.01 460.37H255v4.99h-4.99z" class="cls-2"/><path d="M258.93 460.37h4.99v4.99h-4.99z" class="cls-3"/><path d="M267.86 460.37h4.99v4.99h-4.99zM285.72 460.37h4.99v4.99h-4.99zM294.65 460.37h4.99v4.99h-4.99z" class="cls-2"/><path d="M303.58 460.37h4.99v4.99h-4.99z" class="cls-1"/><path d="M312.51 460.37h4.99v4.99h-4.99zM392.87 460.37h4.99v4.99h-4.99zM401.8 460.37h4.99v4.99h-4.99zM410.72 460.37h4.99v4.99h-4.99zM419.65 460.37h4.99v4.99h-4.99zM428.58 460.37h4.99v4.99h-4.99zM437.51 460.37h4.99v4.99h-4.99zM446.44 460.37h4.99v4.99h-4.99zM89.29 467.91h4.99v4.99h-4.99zM125 467.91h4.99v4.99H125zM142.86 467.91h4.99v4.99h-4.99zM160.72 467.91h4.99v4.99h-4.99z" class="cls-2"/><path d="M178.58 467.91h4.99v4.99h-4.99z" class="cls-3"/><path d="M214.29 467.91h4.99v4.99h-4.99z" class="cls-1"/><path d="M223.22 467.91h4.99v4.99h-4.99zM250.01 467.91H255v4.99h-4.99zM258.93 467.91h4.99v4.99h-4.99z" class="cls-2"/><path d="M276.79 467.91h4.99v4.99h-4.99zM285.72 467.91h4.99v4.99h-4.99z" class="cls-3"/><path d="M303.58 467.91h4.99v4.99h-4.99zM312.51 467.91h4.99v4.99h-4.99zM383.94 467.91h4.99v4.99h-4.99zM392.87 467.91h4.99v4.99h-4.99zM401.8 467.91h4.99v4.99h-4.99zM410.72 467.91h4.99v4.99h-4.99zM437.51 467.91h4.99v4.99h-4.99zM446.44 467.91h4.99v4.99h-4.99zM455.37 467.91h4.99v4.99h-4.99zM80.36 475.45h4.99v4.99h-4.99z" class="cls-2"/><path d="M71.43 445.29h4.99v4.99h-4.99z" class="cls-3"/><path d="M71.43 452.83h4.99v4.99h-4.99zM107.15 475.45h4.99v4.99h-4.99zM116.07 475.45h4.99v4.99h-4.99zM151.79 475.45h4.99v4.99h-4.99zM169.65 475.45h4.99v4.99h-4.99zM178.58 475.45h4.99v4.99h-4.99z" class="cls-2"/><path d="M187.5 475.45h4.99v4.99h-4.99z" class="cls-3"/><path d="M232.15 475.45h4.99v4.99h-4.99zM241.08 475.45h4.99v4.99h-4.99z" class="cls-2"/><path d="M250.01 475.45H255v4.99h-4.99z" class="cls-3"/><path d="M267.86 475.45h4.99v4.99h-4.99zM276.79 475.45h4.99v4.99h-4.99zM285.72 475.45h4.99v4.99h-4.99zM294.65 475.45h4.99v4.99h-4.99zM303.58 475.45h4.99v4.99h-4.99zM383.94 475.45h4.99v4.99h-4.99zM392.87 475.45h4.99v4.99h-4.99zM401.8 475.45h4.99v4.99h-4.99z" class="cls-2"/><path d="M410.72 475.45h4.99v4.99h-4.99z" class="cls-3"/><path d="M419.65 475.45h4.99v4.99h-4.99zM437.51 475.45h4.99v4.99h-4.99zM446.44 475.45h4.99v4.99h-4.99zM455.37 475.45h4.99v4.99h-4.99z" class="cls-2"/><path d="M151.79 482.98h4.99v4.99h-4.99z" class="cls-1"/><path d="M169.65 482.98h4.99v4.99h-4.99zM187.5 482.98h4.99v4.99h-4.99zM223.22 482.98h4.99v4.99h-4.99zM232.15 482.98h4.99v4.99h-4.99zM258.93 482.98h4.99v4.99h-4.99zM303.58 482.98h4.99v4.99h-4.99zM312.51 482.98h4.99v4.99h-4.99zM383.94 482.98h4.99v4.99h-4.99zM392.87 482.98h4.99v4.99h-4.99zM401.8 482.98h4.99v4.99h-4.99zM410.72 482.98h4.99v4.99h-4.99zM419.65 482.98h4.99v4.99h-4.99zM428.58 482.98h4.99v4.99h-4.99zM437.51 482.98h4.99v4.99h-4.99z" class="cls-2"/><path d="M446.44 482.98h4.99v4.99h-4.99z" class="cls-3"/><path d="M455.37 482.98h4.99v4.99h-4.99zM116.07 490.52h4.99v4.99h-4.99zM160.72 490.52h4.99v4.99h-4.99zM178.58 490.52h4.99v4.99h-4.99zM187.5 490.52h4.99v4.99h-4.99zM196.43 490.52h4.99v4.99h-4.99zM241.08 490.52h4.99v4.99h-4.99zM250.01 490.52H255v4.99h-4.99zM258.93 490.52h4.99v4.99h-4.99z" class="cls-2"/><path d="M285.72 490.52h4.99v4.99h-4.99z" class="cls-3"/><path d="M294.65 490.52h4.99v4.99h-4.99zM303.58 490.52h4.99v4.99h-4.99z" class="cls-2"/><path d="M312.51 490.52h4.99v4.99h-4.99z" class="cls-3"/><path d="M375.01 490.52H380v4.99h-4.99zM383.94 490.52h4.99v4.99h-4.99z" class="cls-2"/><path d="M392.87 490.52h4.99v4.99h-4.99z" class="cls-3"/><path d="M401.8 490.52h4.99v4.99h-4.99zM410.72 490.52h4.99v4.99h-4.99zM419.65 490.52h4.99v4.99h-4.99zM428.58 490.52h4.99v4.99h-4.99zM437.51 490.52h4.99v4.99h-4.99zM446.44 490.52h4.99v4.99h-4.99zM455.37 490.52h4.99v4.99h-4.99zM107.15 498.06h4.99v4.99h-4.99zM116.07 498.06h4.99v4.99h-4.99zM151.79 498.06h4.99v4.99h-4.99zM160.72 498.06h4.99v4.99h-4.99zM178.58 498.06h4.99v4.99h-4.99zM223.22 498.06h4.99v4.99h-4.99zM267.86 498.06h4.99v4.99h-4.99zM285.72 498.06h4.99v4.99h-4.99zM375.01 498.06H380v4.99h-4.99zM383.94 498.06h4.99v4.99h-4.99zM401.8 498.06h4.99v4.99h-4.99zM419.65 498.06h4.99v4.99h-4.99z" class="cls-2"/><path d="M428.58 498.06h4.99v4.99h-4.99z" class="cls-1"/><path d="M437.51 498.06h4.99v4.99h-4.99zM446.44 498.06h4.99v4.99h-4.99zM455.37 498.06h4.99v4.99h-4.99zM125 505.6h4.99v4.99H125zM151.79 505.6h4.99v4.99h-4.99zM160.72 505.6h4.99v4.99h-4.99zM187.5 505.6h4.99v4.99h-4.99zM223.22 505.6h4.99v4.99h-4.99zM250.01 505.6H255v4.99h-4.99z" class="cls-2"/><path d="M258.93 505.6h4.99v4.99h-4.99z" class="cls-3"/><path d="M267.86 505.6h4.99v4.99h-4.99zM303.58 505.6h4.99v4.99h-4.99zM312.51 505.6h4.99v4.99h-4.99zM375.01 505.6H380v4.99h-4.99zM383.94 505.6h4.99v4.99h-4.99zM392.87 505.6h4.99v4.99h-4.99z" class="cls-2"/><path d="M401.8 505.6h4.99v4.99h-4.99z" class="cls-1"/><path d="M410.72 505.6h4.99v4.99h-4.99zM419.65 505.6h4.99v4.99h-4.99zM428.58 505.6h4.99v4.99h-4.99z" class="cls-2"/><path d="M437.51 505.6h4.99v4.99h-4.99z" class="cls-1"/><path d="M446.44 505.6h4.99v4.99h-4.99z" class="cls-2"/><path d="M455.37 505.6h4.99v4.99h-4.99zM116.07 513.14h4.99v4.99h-4.99z" class="cls-3"/><path d="M160.72 513.14h4.99v4.99h-4.99zM178.58 513.14h4.99v4.99h-4.99z" class="cls-2"/><path d="M187.5 513.14h4.99v4.99h-4.99z" class="cls-1"/><path d="M241.08 513.14h4.99v4.99h-4.99zM267.86 513.14h4.99v4.99h-4.99zM285.72 513.14h4.99v4.99h-4.99zM375.01 513.14H380v4.99h-4.99zM383.94 513.14h4.99v4.99h-4.99zM392.87 513.14h4.99v4.99h-4.99zM401.8 513.14h4.99v4.99h-4.99zM410.72 513.14h4.99v4.99h-4.99zM419.65 513.14h4.99v4.99h-4.99zM428.58 513.14h4.99v4.99h-4.99zM437.51 513.14h4.99v4.99h-4.99zM446.44 513.14h4.99v4.99h-4.99zM125 520.68h4.99v4.99H125zM151.79 520.68h4.99v4.99h-4.99zM160.72 520.68h4.99v4.99h-4.99z" class="cls-2"/><path d="M178.58 520.68h4.99v4.99h-4.99z" class="cls-3"/><path d="M187.5 520.68h4.99v4.99h-4.99zM196.43 520.68h4.99v4.99h-4.99zM241.08 520.68h4.99v4.99h-4.99z" class="cls-2"/><path d="M250.01 520.68H255v4.99h-4.99z" class="cls-1"/><path d="M258.93 520.68h4.99v4.99h-4.99z" class="cls-2"/><path d="M294.65 520.68h4.99v4.99h-4.99z" class="cls-3"/><path d="M366.08 520.68h4.99v4.99h-4.99zM375.01 520.68H380v4.99h-4.99zM383.94 520.68h4.99v4.99h-4.99z" class="cls-2"/><path d="M392.87 520.68h4.99v4.99h-4.99z" class="cls-3"/><path d="M401.8 520.68h4.99v4.99h-4.99zM410.72 520.68h4.99v4.99h-4.99zM437.51 520.68h4.99v4.99h-4.99zM446.44 520.68h4.99v4.99h-4.99zM455.37 520.68h4.99v4.99h-4.99zM116.07 528.21h4.99v4.99h-4.99zM125 528.21h4.99v4.99H125zM250.01 528.21H255v4.99h-4.99zM258.93 528.21h4.99v4.99h-4.99zM267.86 528.21h4.99v4.99h-4.99zM294.65 528.21h4.99v4.99h-4.99zM303.58 528.21h4.99v4.99h-4.99zM366.08 528.21h4.99v4.99h-4.99zM375.01 528.21H380v4.99h-4.99zM383.94 528.21h4.99v4.99h-4.99zM392.87 528.21h4.99v4.99h-4.99zM401.8 528.21h4.99v4.99h-4.99zM410.72 528.21h4.99v4.99h-4.99zM419.65 528.21h4.99v4.99h-4.99zM428.58 528.21h4.99v4.99h-4.99zM437.51 528.21h4.99v4.99h-4.99zM107.15 535.75h4.99v4.99h-4.99zM151.79 535.75h4.99v4.99h-4.99zM169.65 535.75h4.99v4.99h-4.99zM187.5 535.75h4.99v4.99h-4.99z" class="cls-2"/><path d="M241.08 535.75h4.99v4.99h-4.99zM267.86 535.75h4.99v4.99h-4.99zM294.65 535.75h4.99v4.99h-4.99z" class="cls-3"/><path d="M303.58 535.75h4.99v4.99h-4.99zM366.08 535.75h4.99v4.99h-4.99z" class="cls-2"/><path d="M375.01 535.75H380v4.99h-4.99z" class="cls-1"/><path d="M392.87 535.75h4.99v4.99h-4.99z" class="cls-2"/><path d="M401.8 535.75h4.99v4.99h-4.99z" class="cls-3"/><path d="M410.72 535.75h4.99v4.99h-4.99z" class="cls-2"/><path d="M419.65 535.75h4.99v4.99h-4.99z" class="cls-3"/><path d="M428.58 535.75h4.99v4.99h-4.99zM437.51 535.75h4.99v4.99h-4.99zM446.44 535.75h4.99v4.99h-4.99zM107.15 543.29h4.99v4.99h-4.99zM169.65 543.29h4.99v4.99h-4.99zM267.86 543.29h4.99v4.99h-4.99zM285.72 543.29h4.99v4.99h-4.99zM303.58 543.29h4.99v4.99h-4.99zM357.15 543.29h4.99v4.99h-4.99zM366.08 543.29h4.99v4.99h-4.99zM383.94 543.29h4.99v4.99h-4.99zM392.87 543.29h4.99v4.99h-4.99zM410.72 543.29h4.99v4.99h-4.99zM419.65 543.29h4.99v4.99h-4.99zM437.51 543.29h4.99v4.99h-4.99z" class="cls-2"/><path d="M107.15 550.83h4.99v4.99h-4.99z" class="cls-3"/><path d="M125 550.83h4.99v4.99H125zM151.79 550.83h4.99v4.99h-4.99z" class="cls-2"/><path d="M169.65 550.83h4.99v4.99h-4.99z" class="cls-3"/><path d="M250.01 550.83H255v4.99h-4.99zM294.65 550.83h4.99v4.99h-4.99zM357.15 550.83h4.99v4.99h-4.99z" class="cls-2"/><path d="M366.08 550.83h4.99v4.99h-4.99z" class="cls-3"/><path d="M375.01 550.83H380v4.99h-4.99zM383.94 550.83h4.99v4.99h-4.99zM392.87 550.83h4.99v4.99h-4.99zM401.8 550.83h4.99v4.99h-4.99zM410.72 550.83h4.99v4.99h-4.99zM419.65 550.83h4.99v4.99h-4.99zM428.58 550.83h4.99v4.99h-4.99zM437.51 550.83h4.99v4.99h-4.99zM446.44 550.83h4.99v4.99h-4.99zM107.15 558.37h4.99v4.99h-4.99zM169.65 558.37h4.99v4.99h-4.99zM241.08 558.37h4.99v4.99h-4.99zM250.01 558.37H255v4.99h-4.99zM285.72 558.37h4.99v4.99h-4.99zM294.65 558.37h4.99v4.99h-4.99zM303.58 558.37h4.99v4.99h-4.99zM357.15 558.37h4.99v4.99h-4.99zM366.08 558.37h4.99v4.99h-4.99zM383.94 558.37h4.99v4.99h-4.99zM419.65 558.37h4.99v4.99h-4.99zM437.51 558.37h4.99v4.99h-4.99z" class="cls-2"/><path d="M107.15 565.91h4.99v4.99h-4.99z" class="cls-3"/><path d="M116.07 565.91h4.99v4.99h-4.99zM125 565.91h4.99v4.99H125zM151.79 565.91h4.99v4.99h-4.99zM285.72 565.91h4.99v4.99h-4.99zM357.15 565.91h4.99v4.99h-4.99zM375.01 565.91H380v4.99h-4.99zM383.94 565.91h4.99v4.99h-4.99zM392.87 565.91h4.99v4.99h-4.99zM401.8 565.91h4.99v4.99h-4.99zM428.58 565.91h4.99v4.99h-4.99zM437.51 565.91h4.99v4.99h-4.99zM446.44 565.91h4.99v4.99h-4.99zM392.87 573.45h4.99v4.99h-4.99z" class="cls-2"/><path d="M409.92 573.37h5.51v4.86h-5.51z" class="cls-3"/><path d="M419.65 573.45h4.99v4.99h-4.99z" class="cls-2"/><path d="M437.51 573.45h4.99v4.99h-4.99z" class="cls-3"/><path d="M446.44 573.45h4.99v4.99h-4.99z" class="cls-1"/><path d="M107.15 580.98h4.99v4.99h-4.99zM250.01 580.98H255v4.99h-4.99zM294.65 580.98h4.99v4.99h-4.99zM303.58 580.98h4.99v4.99h-4.99zM366.08 580.98h4.99v4.99h-4.99z" class="cls-2"/><path d="M383.94 580.98h4.99v4.99h-4.99z" class="cls-3"/><path d="M401.8 580.98h4.99v4.99h-4.99zM428.58 580.98h4.99v4.99h-4.99zM437.51 580.98h4.99v4.99h-4.99zM107.15 588.52h4.99v4.99h-4.99zM125 588.52h4.99v4.99H125zM348.22 588.52h4.99v4.99h-4.99z" class="cls-2"/><path d="M357.15 588.52h4.99v4.99h-4.99z" class="cls-3"/><path d="M366.08 588.52h4.99v4.99h-4.99zM419.65 588.52h4.99v4.99h-4.99zM428.58 588.52h4.99v4.99h-4.99zM446.44 588.52h4.99v4.99h-4.99zM142.86 596.06h4.99v4.99h-4.99zM294.65 596.06h4.99v4.99h-4.99zM357.15 596.06h4.99v4.99h-4.99zM392.87 596.06h4.99v4.99h-4.99zM437.51 596.06h4.99v4.99h-4.99zM705.8 135.69h4.99v4.99h-4.99zM705.8 143.23h4.99v4.99h-4.99zM714.73 143.23h4.99v4.99h-4.99zM723.65 143.23h4.99v4.99h-4.99zM705.8 150.77h4.99v4.99h-4.99zM714.73 150.77h4.99v4.99h-4.99zM723.65 150.77h4.99v4.99h-4.99zM732.58 150.77h4.99v4.99h-4.99zM741.51 150.77h4.99v4.99h-4.99zM705.8 158.31h4.99v4.99h-4.99zM723.65 158.31h4.99v4.99h-4.99zM732.58 158.31h4.99v4.99h-4.99zM741.51 158.31h4.99v4.99h-4.99zM750.44 158.31h4.99v4.99h-4.99zM759.37 158.31h4.99v4.99h-4.99zM705.8 165.85h4.99v4.99h-4.99zM714.73 165.85h4.99v4.99h-4.99zM723.65 165.85h4.99v4.99h-4.99zM732.58 165.85h4.99v4.99h-4.99zM741.51 165.85h4.99v4.99h-4.99zM750.44 165.85h4.99v4.99h-4.99zM759.37 165.85h4.99v4.99h-4.99zM768.3 165.85h4.99v4.99h-4.99zM705.8 173.39h4.99v4.99h-4.99zM714.73 173.39h4.99v4.99h-4.99zM723.65 173.39h4.99v4.99h-4.99zM732.58 173.39h4.99v4.99h-4.99zM741.51 173.39h4.99v4.99h-4.99zM750.44 173.39h4.99v4.99h-4.99zM759.37 173.39h4.99v4.99h-4.99zM768.3 173.39h4.99v4.99h-4.99zM777.23 173.39h4.99v4.99h-4.99zM786.16 173.39h4.99v4.99h-4.99zM795.08 173.39h4.99v4.99h-4.99zM705.8 180.92h4.99v4.99h-4.99zM714.73 180.92h4.99v4.99h-4.99zM723.65 180.92h4.99v4.99h-4.99zM732.58 180.92h4.99v4.99h-4.99zM741.51 180.92h4.99v4.99h-4.99zM750.44 180.92h4.99v4.99h-4.99zM759.37 180.92h4.99v4.99h-4.99zM768.3 180.92h4.99v4.99h-4.99zM777.23 180.92h4.99v4.99h-4.99zM786.16 180.92h4.99v4.99h-4.99zM795.08 180.92h4.99v4.99h-4.99zM804.01 180.92H809v4.99h-4.99zM812.94 180.92h4.99v4.99h-4.99zM705.8 188.46h4.99v4.99h-4.99zM714.73 188.46h4.99v4.99h-4.99zM723.65 188.46h4.99v4.99h-4.99zM732.58 188.46h4.99v4.99h-4.99zM741.51 188.46h4.99v4.99h-4.99z" class="cls-2"/><path d="M750.44 188.46h4.99v4.99h-4.99z" class="cls-1"/><path d="M759.37 188.46h4.99v4.99h-4.99zM768.3 188.46h4.99v4.99h-4.99zM777.23 188.46h4.99v4.99h-4.99zM795.08 188.46h4.99v4.99h-4.99zM804.01 188.46H809v4.99h-4.99zM812.94 188.46h4.99v4.99h-4.99zM821.87 188.46h4.99v4.99h-4.99zM830.8 188.46h4.99v4.99h-4.99zM705.8 196h4.99v4.99h-4.99zM714.73 196h4.99v4.99h-4.99zM723.65 196h4.99v4.99h-4.99zM732.58 196h4.99v4.99h-4.99zM741.51 196h4.99v4.99h-4.99zM750.44 196h4.99v4.99h-4.99zM759.37 196h4.99v4.99h-4.99zM768.3 196h4.99v4.99h-4.99zM777.23 196h4.99v4.99h-4.99zM786.16 196h4.99v4.99h-4.99zM795.08 196h4.99v4.99h-4.99zM804.01 196H809v4.99h-4.99zM812.94 196h4.99v4.99h-4.99zM821.87 196h4.99v4.99h-4.99zM830.8 196h4.99v4.99h-4.99zM839.73 196h4.99v4.99h-4.99zM848.66 196h4.99v4.99h-4.99zM705.8 203.54h4.99v4.99h-4.99zM714.73 203.54h4.99v4.99h-4.99zM723.65 203.54h4.99v4.99h-4.99zM732.58 203.54h4.99v4.99h-4.99z" class="cls-2"/><path d="M741.51 203.54h4.99v4.99h-4.99z" class="cls-1"/><path d="M750.44 203.54h4.99v4.99h-4.99zM759.37 203.54h4.99v4.99h-4.99zM768.3 203.54h4.99v4.99h-4.99zM777.23 203.54h4.99v4.99h-4.99zM786.16 203.54h4.99v4.99h-4.99zM795.08 203.54h4.99v4.99h-4.99zM804.01 203.54H809v4.99h-4.99zM812.94 203.54h4.99v4.99h-4.99zM830.8 203.54h4.99v4.99h-4.99zM839.73 203.54h4.99v4.99h-4.99zM848.66 203.54h4.99v4.99h-4.99zM857.59 203.54h4.99v4.99h-4.99zM866.52 203.54h4.99v4.99h-4.99zM705.8 211.08h4.99v4.99h-4.99zM714.73 211.08h4.99v4.99h-4.99zM723.65 211.08h4.99v4.99h-4.99zM732.58 211.08h4.99v4.99h-4.99zM741.51 211.08h4.99v4.99h-4.99zM750.44 211.08h4.99v4.99h-4.99zM759.37 211.08h4.99v4.99h-4.99zM768.3 211.08h4.99v4.99h-4.99zM777.23 211.08h4.99v4.99h-4.99zM786.16 211.08h4.99v4.99h-4.99zM795.08 211.08h4.99v4.99h-4.99zM804.01 211.08H809v4.99h-4.99zM812.94 211.08h4.99v4.99h-4.99zM821.87 211.08h4.99v4.99h-4.99zM830.8 211.08h4.99v4.99h-4.99zM839.73 211.08h4.99v4.99h-4.99zM848.66 211.08h4.99v4.99h-4.99zM857.59 211.08h4.99v4.99h-4.99zM866.52 211.08h4.99v4.99h-4.99zM875.44 211.08h4.99v4.99h-4.99zM884.37 211.08h4.99v4.99h-4.99zM705.8 218.62h4.99v4.99h-4.99zM714.73 218.62h4.99v4.99h-4.99zM723.65 218.62h4.99v4.99h-4.99zM732.58 218.62h4.99v4.99h-4.99zM741.51 218.62h4.99v4.99h-4.99zM750.44 218.62h4.99v4.99h-4.99zM759.37 218.62h4.99v4.99h-4.99zM768.3 218.62h4.99v4.99h-4.99zM777.23 218.62h4.99v4.99h-4.99zM786.16 218.62h4.99v4.99h-4.99zM795.08 218.62h4.99v4.99h-4.99zM804.01 218.62H809v4.99h-4.99zM812.94 218.62h4.99v4.99h-4.99zM821.87 218.62h4.99v4.99h-4.99zM830.8 218.62h4.99v4.99h-4.99zM839.73 218.62h4.99v4.99h-4.99zM848.66 218.62h4.99v4.99h-4.99zM857.59 218.62h4.99v4.99h-4.99zM875.44 218.62h4.99v4.99h-4.99zM893.3 218.62h4.99v4.99h-4.99zM902.23 218.62h4.99v4.99h-4.99zM705.8 226.68h4.99v4.99h-4.99zM714.73 226.68h4.99v4.99h-4.99zM723.65 226.68h4.99v4.99h-4.99zM732.58 226.68h4.99v4.99h-4.99zM741.51 226.68h4.99v4.99h-4.99zM750.44 226.68h4.99v4.99h-4.99zM768.3 226.68h4.99v4.99h-4.99zM777.23 226.68h4.99v4.99h-4.99zM786.16 226.68h4.99v4.99h-4.99zM795.08 226.68h4.99v4.99h-4.99zM804.01 226.68H809v4.99h-4.99zM821.87 226.68h4.99v4.99h-4.99zM830.8 226.68h4.99v4.99h-4.99zM839.73 226.68h4.99v4.99h-4.99zM848.66 226.68h4.99v4.99h-4.99zM857.59 226.68h4.99v4.99h-4.99zM866.52 226.68h4.99v4.99h-4.99zM875.44 226.68h4.99v4.99h-4.99zM884.37 226.68h4.99v4.99h-4.99zM893.3 226.68h4.99v4.99h-4.99zM902.23 226.68h4.99v4.99h-4.99zM911.16 226.68h4.99v4.99h-4.99zM920.09 226.68h4.99v4.99h-4.99zM714.73 234.21h4.99v4.99h-4.99zM723.65 234.21h4.99v4.99h-4.99zM732.58 234.21h4.99v4.99h-4.99zM741.51 234.21h4.99v4.99h-4.99zM750.44 234.21h4.99v4.99h-4.99zM759.37 234.21h4.99v4.99h-4.99zM768.3 234.21h4.99v4.99h-4.99zM777.23 234.21h4.99v4.99h-4.99zM786.16 234.21h4.99v4.99h-4.99zM795.08 234.21h4.99v4.99h-4.99zM804.01 234.21H809v4.99h-4.99zM812.94 234.21h4.99v4.99h-4.99zM821.87 234.21h4.99v4.99h-4.99zM830.8 234.21h4.99v4.99h-4.99zM839.73 234.21h4.99v4.99h-4.99zM848.66 234.21h4.99v4.99h-4.99zM857.59 234.21h4.99v4.99h-4.99zM866.52 234.21h4.99v4.99h-4.99zM875.44 234.21h4.99v4.99h-4.99zM884.37 234.21h4.99v4.99h-4.99zM893.3 234.21h4.99v4.99h-4.99zM902.23 234.21h4.99v4.99h-4.99zM911.16 234.21h4.99v4.99h-4.99zM920.09 234.21h4.99v4.99h-4.99zM929.02 234.21h4.99v4.99h-4.99zM937.95 234.21h4.99v4.99h-4.99zM741.51 241.75h4.99v4.99h-4.99zM750.44 241.75h4.99v4.99h-4.99zM759.37 241.75h4.99v4.99h-4.99zM777.23 241.75h4.99v4.99h-4.99zM786.16 241.75h4.99v4.99h-4.99zM795.08 241.75h4.99v4.99h-4.99z" class="cls-2"/><path d="M804.01 241.75H809v4.99h-4.99z" class="cls-1"/><path d="M812.94 241.75h4.99v4.99h-4.99zM821.87 241.75h4.99v4.99h-4.99zM830.8 241.75h4.99v4.99h-4.99zM839.73 241.75h4.99v4.99h-4.99zM848.66 241.75h4.99v4.99h-4.99z" class="cls-2"/><path d="M857.59 241.75h4.99v4.99h-4.99z" class="cls-1"/><path d="M866.52 241.75h4.99v4.99h-4.99zM875.44 241.75h4.99v4.99h-4.99zM884.37 241.75h4.99v4.99h-4.99zM893.3 241.75h4.99v4.99h-4.99zM902.23 241.75h4.99v4.99h-4.99zM911.16 241.75h4.99v4.99h-4.99zM920.09 241.75h4.99v4.99h-4.99zM929.02 241.75h4.99v4.99h-4.99zM937.95 241.75h4.99v4.99h-4.99zM946.87 241.75h4.99v4.99h-4.99zM955.8 241.75h4.99v4.99h-4.99zM759.37 249.29h4.99v4.99h-4.99zM768.3 249.29h4.99v4.99h-4.99zM777.23 249.29h4.99v4.99h-4.99zM786.16 249.29h4.99v4.99h-4.99zM795.08 249.29h4.99v4.99h-4.99zM804.01 249.29H809v4.99h-4.99zM812.94 249.29h4.99v4.99h-4.99zM821.87 249.29h4.99v4.99h-4.99zM830.8 249.29h4.99v4.99h-4.99zM839.73 249.29h4.99v4.99h-4.99zM848.66 249.29h4.99v4.99h-4.99zM857.59 249.29h4.99v4.99h-4.99zM866.52 249.29h4.99v4.99h-4.99zM875.44 249.29h4.99v4.99h-4.99zM884.37 249.29h4.99v4.99h-4.99zM893.3 249.29h4.99v4.99h-4.99zM902.23 249.29h4.99v4.99h-4.99zM920.09 249.29h4.99v4.99h-4.99zM929.02 249.29h4.99v4.99h-4.99zM937.95 249.29h4.99v4.99h-4.99zM946.87 249.29h4.99v4.99h-4.99zM955.8 249.29h4.99v4.99h-4.99zM964.73 249.29h4.99v4.99h-4.99zM973.66 249.29h4.99v4.99h-4.99zM777.23 256.83h4.99v4.99h-4.99zM786.16 256.83h4.99v4.99h-4.99zM795.08 256.83h4.99v4.99h-4.99zM804.01 256.83H809v4.99h-4.99zM812.94 256.83h4.99v4.99h-4.99zM821.87 256.83h4.99v4.99h-4.99zM830.8 256.83h4.99v4.99h-4.99zM839.73 256.83h4.99v4.99h-4.99zM848.66 256.83h4.99v4.99h-4.99zM857.59 256.83h4.99v4.99h-4.99zM866.52 256.83h4.99v4.99h-4.99zM875.44 256.83h4.99v4.99h-4.99zM884.37 256.83h4.99v4.99h-4.99zM893.3 256.83h4.99v4.99h-4.99zM902.23 256.83h4.99v4.99h-4.99zM911.16 256.83h4.99v4.99h-4.99zM920.09 256.83h4.99v4.99h-4.99zM929.02 256.83h4.99v4.99h-4.99zM937.95 256.83h4.99v4.99h-4.99zM946.87 256.83h4.99v4.99h-4.99zM955.8 256.83h4.99v4.99h-4.99zM964.73 256.83h4.99v4.99h-4.99zM973.66 256.83h4.99v4.99h-4.99zM982.59 256.83h4.99v4.99h-4.99zM804.01 264.37H809v4.99h-4.99zM812.94 264.37h4.99v4.99h-4.99zM821.87 264.37h4.99v4.99h-4.99zM830.8 264.37h4.99v4.99h-4.99zM848.66 264.37h4.99v4.99h-4.99zM857.59 264.37h4.99v4.99h-4.99zM866.52 264.37h4.99v4.99h-4.99zM884.37 264.37h4.99v4.99h-4.99zM893.3 264.37h4.99v4.99h-4.99zM902.23 264.37h4.99v4.99h-4.99zM911.16 264.37h4.99v4.99h-4.99zM920.09 264.37h4.99v4.99h-4.99zM929.02 264.37h4.99v4.99h-4.99zM937.95 264.37h4.99v4.99h-4.99zM946.87 264.37h4.99v4.99h-4.99zM955.8 264.37h4.99v4.99h-4.99zM964.73 264.37h4.99v4.99h-4.99zM973.66 264.37h4.99v4.99h-4.99zM982.59 264.37h4.99v4.99h-4.99zM821.87 271.91h4.99v4.99h-4.99zM830.8 271.91h4.99v4.99h-4.99zM839.73 271.91h4.99v4.99h-4.99zM848.66 271.91h4.99v4.99h-4.99zM857.59 271.91h4.99v4.99h-4.99zM866.52 271.91h4.99v4.99h-4.99zM875.44 271.91h4.99v4.99h-4.99zM884.37 271.91h4.99v4.99h-4.99zM893.3 271.91h4.99v4.99h-4.99zM902.23 271.91h4.99v4.99h-4.99zM911.16 271.91h4.99v4.99h-4.99zM920.09 271.91h4.99v4.99h-4.99zM929.02 271.91h4.99v4.99h-4.99zM937.95 271.91h4.99v4.99h-4.99z" class="cls-2"/><path d="M946.87 271.91h4.99v4.99h-4.99z" class="cls-3"/><path d="M955.8 271.91h4.99v4.99h-4.99zM973.66 271.91h4.99v4.99h-4.99zM982.59 271.91h4.99v4.99h-4.99zM848.66 279.44h4.99v4.99h-4.99zM857.59 279.44h4.99v4.99h-4.99zM866.52 279.44h4.99v4.99h-4.99zM875.44 279.44h4.99v4.99h-4.99zM884.37 279.44h4.99v4.99h-4.99zM893.3 279.44h4.99v4.99h-4.99zM902.23 279.44h4.99v4.99h-4.99zM920.09 279.44h4.99v4.99h-4.99zM929.02 279.44h4.99v4.99h-4.99zM937.95 279.44h4.99v4.99h-4.99zM946.87 279.44h4.99v4.99h-4.99zM955.8 279.44h4.99v4.99h-4.99zM964.73 279.44h4.99v4.99h-4.99zM973.66 279.44h4.99v4.99h-4.99zM982.59 279.44h4.99v4.99h-4.99zM866.52 286.98h4.99v4.99h-4.99zM875.44 286.98h4.99v4.99h-4.99zM884.37 286.98h4.99v4.99h-4.99zM893.3 286.98h4.99v4.99h-4.99zM902.23 286.98h4.99v4.99h-4.99zM911.16 286.98h4.99v4.99h-4.99zM920.09 286.98h4.99v4.99h-4.99zM937.95 286.98h4.99v4.99h-4.99zM946.87 286.98h4.99v4.99h-4.99zM955.8 286.98h4.99v4.99h-4.99zM964.73 286.98h4.99v4.99h-4.99zM973.66 286.98h4.99v4.99h-4.99zM982.59 286.98h4.99v4.99h-4.99zM884.37 294.52h4.99v4.99h-4.99zM893.3 294.52h4.99v4.99h-4.99zM902.23 294.52h4.99v4.99h-4.99zM911.16 294.52h4.99v4.99h-4.99zM920.09 294.52h4.99v4.99h-4.99z" class="cls-2"/><path d="M929.02 294.52h4.99v4.99h-4.99z" class="cls-3"/><path d="M937.95 294.52h4.99v4.99h-4.99zM946.87 294.52h4.99v4.99h-4.99zM955.8 294.52h4.99v4.99h-4.99zM964.73 294.52h4.99v4.99h-4.99zM973.66 294.52h4.99v4.99h-4.99zM982.59 294.52h4.99v4.99h-4.99zM866.52 302.06h4.99v4.99h-4.99zM875.44 302.06h4.99v4.99h-4.99zM884.37 302.06h4.99v4.99h-4.99zM893.3 302.06h4.99v4.99h-4.99zM902.23 302.06h4.99v4.99h-4.99zM911.16 302.06h4.99v4.99h-4.99zM920.09 302.06h4.99v4.99h-4.99zM929.02 302.06h4.99v4.99h-4.99zM937.95 302.06h4.99v4.99h-4.99zM946.87 302.06h4.99v4.99h-4.99z" class="cls-2"/><path d="M955.8 302.06h4.99v4.99h-4.99z" class="cls-3"/><path d="M964.73 302.06h4.99v4.99h-4.99zM973.66 302.06h4.99v4.99h-4.99zM982.59 302.06h4.99v4.99h-4.99zM839.73 309.6h4.99v4.99h-4.99zM848.66 309.6h4.99v4.99h-4.99zM857.59 309.6h4.99v4.99h-4.99zM866.52 309.6h4.99v4.99h-4.99zM875.44 309.6h4.99v4.99h-4.99zM884.37 309.6h4.99v4.99h-4.99zM893.3 309.6h4.99v4.99h-4.99zM902.23 309.6h4.99v4.99h-4.99zM911.16 309.6h4.99v4.99h-4.99zM920.09 309.6h4.99v4.99h-4.99zM929.02 309.6h4.99v4.99h-4.99zM937.95 309.6h4.99v4.99h-4.99zM946.87 309.6h4.99v4.99h-4.99zM955.8 309.6h4.99v4.99h-4.99z" class="cls-2"/><path d="M964.73 309.6h4.99v4.99h-4.99z" class="cls-1"/><path d="M973.66 309.6h4.99v4.99h-4.99zM982.59 309.6h4.99v4.99h-4.99zM821.87 317.14h4.99v4.99h-4.99zM830.8 317.14h4.99v4.99h-4.99zM839.73 317.14h4.99v4.99h-4.99zM848.66 317.14h4.99v4.99h-4.99zM857.59 317.14h4.99v4.99h-4.99zM866.52 317.14h4.99v4.99h-4.99zM875.44 317.14h4.99v4.99h-4.99zM884.37 317.14h4.99v4.99h-4.99zM893.3 317.14h4.99v4.99h-4.99zM902.23 317.14h4.99v4.99h-4.99zM911.16 317.14h4.99v4.99h-4.99zM920.09 317.14h4.99v4.99h-4.99zM929.02 317.14h4.99v4.99h-4.99z" class="cls-2"/><path d="M937.95 317.14h4.99v4.99h-4.99z" class="cls-1"/><path d="M946.87 317.14h4.99v4.99h-4.99zM955.8 317.14h4.99v4.99h-4.99z" class="cls-2"/><path d="M964.73 317.14h4.99v4.99h-4.99z" class="cls-1"/><path d="M973.66 317.14h4.99v4.99h-4.99zM982.59 317.14h4.99v4.99h-4.99zM804.01 324.68H809v4.99h-4.99zM812.94 324.68h4.99v4.99h-4.99zM821.87 324.68h4.99v4.99h-4.99zM830.8 324.68h4.99v4.99h-4.99zM839.73 324.68h4.99v4.99h-4.99zM848.66 324.68h4.99v4.99h-4.99zM857.59 324.68h4.99v4.99h-4.99zM866.52 324.68h4.99v4.99h-4.99zM884.37 324.68h4.99v4.99h-4.99zM893.3 324.68h4.99v4.99h-4.99z" class="cls-2"/><path d="M902.23 324.68h4.99v4.99h-4.99z" class="cls-3"/><path d="M911.16 324.68h4.99v4.99h-4.99z" class="cls-2"/><path d="M920.09 324.68h4.99v4.99h-4.99z" class="cls-1"/><path d="M929.02 324.68h4.99v4.99h-4.99zM937.95 324.68h4.99v4.99h-4.99zM946.87 324.68h4.99v4.99h-4.99zM955.8 324.68h4.99v4.99h-4.99zM973.66 324.68h4.99v4.99h-4.99zM982.59 324.68h4.99v4.99h-4.99zM777.23 332.21h4.99v4.99h-4.99zM786.16 332.21h4.99v4.99h-4.99zM795.08 332.21h4.99v4.99h-4.99zM804.01 332.21H809v4.99h-4.99zM812.94 332.21h4.99v4.99h-4.99zM821.87 332.21h4.99v4.99h-4.99zM830.8 332.21h4.99v4.99h-4.99zM839.73 332.21h4.99v4.99h-4.99zM848.66 332.21h4.99v4.99h-4.99zM857.59 332.21h4.99v4.99h-4.99z" class="cls-2"/><path d="M866.52 332.21h4.99v4.99h-4.99z" class="cls-3"/><path d="M875.44 332.21h4.99v4.99h-4.99zM884.37 332.21h4.99v4.99h-4.99zM893.3 332.21h4.99v4.99h-4.99zM902.23 332.21h4.99v4.99h-4.99zM911.16 332.21h4.99v4.99h-4.99zM929.02 332.21h4.99v4.99h-4.99zM937.95 332.21h4.99v4.99h-4.99zM955.8 332.21h4.99v4.99h-4.99zM964.73 332.21h4.99v4.99h-4.99zM973.66 332.21h4.99v4.99h-4.99zM759.37 339.75h4.99v4.99h-4.99zM768.3 339.75h4.99v4.99h-4.99zM777.23 339.75h4.99v4.99h-4.99zM786.16 339.75h4.99v4.99h-4.99zM795.08 339.75h4.99v4.99h-4.99zM804.01 339.75H809v4.99h-4.99zM812.94 339.75h4.99v4.99h-4.99zM830.8 339.75h4.99v4.99h-4.99zM839.73 339.75h4.99v4.99h-4.99zM857.59 339.75h4.99v4.99h-4.99zM866.52 339.75h4.99v4.99h-4.99zM875.44 339.75h4.99v4.99h-4.99z" class="cls-2"/><path d="M884.37 339.75h4.99v4.99h-4.99z" class="cls-1"/><path d="M893.3 339.75h4.99v4.99h-4.99zM902.23 339.75h4.99v4.99h-4.99zM911.16 339.75h4.99v4.99h-4.99zM920.09 339.75h4.99v4.99h-4.99zM929.02 339.75h4.99v4.99h-4.99zM937.95 339.75h4.99v4.99h-4.99zM946.87 339.75h4.99v4.99h-4.99zM955.8 339.75h4.99v4.99h-4.99zM964.73 339.75h4.99v4.99h-4.99zM973.66 339.75h4.99v4.99h-4.99zM982.59 339.75h4.99v4.99h-4.99zM741.51 347.29h4.99v4.99h-4.99zM750.44 347.29h4.99v4.99h-4.99zM759.37 347.29h4.99v4.99h-4.99zM768.3 347.29h4.99v4.99h-4.99zM777.23 347.29h4.99v4.99h-4.99zM786.16 347.29h4.99v4.99h-4.99zM795.08 347.29h4.99v4.99h-4.99zM804.01 347.29H809v4.99h-4.99zM812.94 347.29h4.99v4.99h-4.99zM821.87 347.29h4.99v4.99h-4.99zM830.8 347.29h4.99v4.99h-4.99zM839.73 347.29h4.99v4.99h-4.99zM848.66 347.29h4.99v4.99h-4.99z" class="cls-2"/><path d="M857.59 347.29h4.99v4.99h-4.99z" class="cls-3"/><path d="M866.52 347.29h4.99v4.99h-4.99zM875.44 347.29h4.99v4.99h-4.99zM884.37 347.29h4.99v4.99h-4.99zM893.3 347.29h4.99v4.99h-4.99zM902.23 347.29h4.99v4.99h-4.99zM911.16 347.29h4.99v4.99h-4.99zM920.09 347.29h4.99v4.99h-4.99zM937.95 347.29h4.99v4.99h-4.99zM946.87 347.29h4.99v4.99h-4.99zM955.8 347.29h4.99v4.99h-4.99zM973.66 347.29h4.99v4.99h-4.99z" class="cls-2"/><path d="M982.59 347.29h4.99v4.99h-4.99z" class="cls-3"/><path d="M714.73 354.83h4.99v4.99h-4.99zM723.65 354.83h4.99v4.99h-4.99zM732.58 354.83h4.99v4.99h-4.99zM741.51 354.83h4.99v4.99h-4.99zM750.44 354.83h4.99v4.99h-4.99zM759.37 354.83h4.99v4.99h-4.99zM768.3 354.83h4.99v4.99h-4.99zM777.23 354.83h4.99v4.99h-4.99zM786.16 354.83h4.99v4.99h-4.99zM795.08 354.83h4.99v4.99h-4.99z" class="cls-2"/><path d="M804.01 354.83H809v4.99h-4.99z" class="cls-3"/><path d="M812.94 354.83h4.99v4.99h-4.99zM821.87 354.83h4.99v4.99h-4.99zM830.8 354.83h4.99v4.99h-4.99zM839.73 354.83h4.99v4.99h-4.99zM848.66 354.83h4.99v4.99h-4.99zM866.52 354.83h4.99v4.99h-4.99zM884.37 354.83h4.99v4.99h-4.99zM893.3 354.83h4.99v4.99h-4.99zM902.23 354.83h4.99v4.99h-4.99zM911.16 354.83h4.99v4.99h-4.99zM920.09 354.83h4.99v4.99h-4.99zM929.02 354.83h4.99v4.99h-4.99zM946.87 354.83h4.99v4.99h-4.99z" class="cls-2"/><path d="M955.8 354.83h4.99v4.99h-4.99z" class="cls-1"/><path d="M964.73 354.83h4.99v4.99h-4.99z" class="cls-2"/><path d="M973.66 354.83h4.99v4.99h-4.99z" class="cls-3"/><path d="M705.8 362.37h4.99v4.99h-4.99zM714.73 362.37h4.99v4.99h-4.99zM723.65 362.37h4.99v4.99h-4.99zM732.58 362.37h4.99v4.99h-4.99zM750.44 362.37h4.99v4.99h-4.99zM759.37 362.37h4.99v4.99h-4.99zM768.3 362.37h4.99v4.99h-4.99zM777.23 362.37h4.99v4.99h-4.99zM786.16 362.37h4.99v4.99h-4.99zM795.08 362.37h4.99v4.99h-4.99zM804.01 362.37H809v4.99h-4.99zM812.94 362.37h4.99v4.99h-4.99zM821.87 362.37h4.99v4.99h-4.99zM830.8 362.37h4.99v4.99h-4.99zM839.73 362.37h4.99v4.99h-4.99zM848.66 362.37h4.99v4.99h-4.99zM857.59 362.37h4.99v4.99h-4.99zM866.52 362.37h4.99v4.99h-4.99zM875.44 362.37h4.99v4.99h-4.99zM884.37 362.37h4.99v4.99h-4.99zM893.3 362.37h4.99v4.99h-4.99zM902.23 362.37h4.99v4.99h-4.99zM911.16 362.37h4.99v4.99h-4.99zM920.09 362.37h4.99v4.99h-4.99zM929.02 362.37h4.99v4.99h-4.99zM937.95 362.37h4.99v4.99h-4.99zM946.87 362.37h4.99v4.99h-4.99zM955.8 362.37h4.99v4.99h-4.99zM973.66 362.37h4.99v4.99h-4.99zM705.8 369.91h4.99v4.99h-4.99zM714.73 369.91h4.99v4.99h-4.99zM723.65 369.91h4.99v4.99h-4.99zM732.58 369.91h4.99v4.99h-4.99zM741.51 369.91h4.99v4.99h-4.99zM750.44 369.91h4.99v4.99h-4.99zM759.37 369.91h4.99v4.99h-4.99zM768.3 369.91h4.99v4.99h-4.99zM777.23 369.91h4.99v4.99h-4.99zM804.01 369.91H809v4.99h-4.99zM821.87 369.91h4.99v4.99h-4.99zM830.8 369.91h4.99v4.99h-4.99z" class="cls-2"/><path d="M839.73 369.91h4.99v4.99h-4.99zM848.66 369.91h4.99v4.99h-4.99z" class="cls-3"/><path d="M857.59 369.91h4.99v4.99h-4.99zM866.52 369.91h4.99v4.99h-4.99zM875.44 369.91h4.99v4.99h-4.99zM884.37 369.91h4.99v4.99h-4.99zM893.3 369.91h4.99v4.99h-4.99zM902.23 369.91h4.99v4.99h-4.99zM911.16 369.91h4.99v4.99h-4.99zM937.95 369.91h4.99v4.99h-4.99zM955.8 369.91h4.99v4.99h-4.99zM964.73 369.91h4.99v4.99h-4.99z" class="cls-2"/><path d="M973.66 369.91h4.99v4.99h-4.99z" class="cls-3"/><path d="M714.73 377.44h4.99v4.99h-4.99zM723.65 377.44h4.99v4.99h-4.99zM732.58 377.44h4.99v4.99h-4.99zM750.44 377.44h4.99v4.99h-4.99zM759.37 377.44h4.99v4.99h-4.99zM768.3 377.44h4.99v4.99h-4.99z" class="cls-2"/><path d="M777.23 377.44h4.99v4.99h-4.99z" class="cls-3"/><path d="M786.16 377.44h4.99v4.99h-4.99zM795.08 377.44h4.99v4.99h-4.99zM804.01 377.44H809v4.99h-4.99z" class="cls-2"/><path d="M812.94 377.44h4.99v4.99h-4.99z" class="cls-1"/><path d="M830.8 377.44h4.99v4.99h-4.99zM848.66 377.44h4.99v4.99h-4.99zM866.52 377.44h4.99v4.99h-4.99zM875.44 377.44h4.99v4.99h-4.99zM884.37 377.44h4.99v4.99h-4.99zM893.3 377.44h4.99v4.99h-4.99zM920.09 377.44h4.99v4.99h-4.99zM929.02 377.44h4.99v4.99h-4.99zM937.95 377.44h4.99v4.99h-4.99zM946.87 377.44h4.99v4.99h-4.99zM955.8 377.44h4.99v4.99h-4.99zM982.59 377.44h4.99v4.99h-4.99zM482.58 384.98h4.99v4.99h-4.99zM491.51 384.98h4.99v4.99h-4.99zM500.43 384.98h4.99v4.99h-4.99zM509.36 384.98h4.99v4.99h-4.99zM679.01 384.98H684v4.99h-4.99zM687.94 384.98h4.99v4.99h-4.99zM696.87 384.98h4.99v4.99h-4.99zM705.8 384.98h4.99v4.99h-4.99zM714.73 384.98h4.99v4.99h-4.99zM723.65 384.98h4.99v4.99h-4.99zM732.58 384.98h4.99v4.99h-4.99zM741.51 384.98h4.99v4.99h-4.99zM750.44 384.98h4.99v4.99h-4.99zM759.37 384.98h4.99v4.99h-4.99zM777.23 384.98h4.99v4.99h-4.99zM786.16 384.98h4.99v4.99h-4.99zM795.08 384.98h4.99v4.99h-4.99zM804.01 384.98H809v4.99h-4.99zM812.94 384.98h4.99v4.99h-4.99zM821.87 384.98h4.99v4.99h-4.99zM830.8 384.98h4.99v4.99h-4.99zM839.73 384.98h4.99v4.99h-4.99zM848.66 384.98h4.99v4.99h-4.99zM866.52 384.98h4.99v4.99h-4.99zM875.44 384.98h4.99v4.99h-4.99zM893.3 384.98h4.99v4.99h-4.99zM902.23 384.98h4.99v4.99h-4.99zM920.09 384.98h4.99v4.99h-4.99zM929.02 384.98h4.99v4.99h-4.99z" class="cls-2"/><path d="M937.95 384.98h4.99v4.99h-4.99z" class="cls-3"/><path d="M946.87 384.98h4.99v4.99h-4.99z" class="cls-2"/><path d="M955.8 384.98h4.99v4.99h-4.99z" class="cls-3"/><path d="M964.73 384.98h4.99v4.99h-4.99zM982.59 384.98h4.99v4.99h-4.99zM464.72 392.52h4.99v4.99h-4.99zM473.65 392.52h4.99v4.99h-4.99zM482.58 392.52h4.99v4.99h-4.99z" class="cls-2"/><path d="M491.51 392.52h4.99v4.99h-4.99z" class="cls-3"/><path d="M500.43 392.52h4.99v4.99h-4.99zM679.01 392.52H684v4.99h-4.99zM687.94 392.52h4.99v4.99h-4.99zM696.87 392.52h4.99v4.99h-4.99zM705.8 392.52h4.99v4.99h-4.99z" class="cls-2"/><path d="M714.73 392.52h4.99v4.99h-4.99z" class="cls-3"/><path d="M723.65 392.52h4.99v4.99h-4.99z" class="cls-2"/><path d="M732.58 392.52h4.99v4.99h-4.99z" class="cls-3"/><path d="M741.51 392.52h4.99v4.99h-4.99zM750.44 392.52h4.99v4.99h-4.99zM759.37 392.52h4.99v4.99h-4.99zM768.3 392.52h4.99v4.99h-4.99zM777.23 392.52h4.99v4.99h-4.99zM786.16 392.52h4.99v4.99h-4.99zM795.08 392.52h4.99v4.99h-4.99zM804.01 392.52H809v4.99h-4.99zM812.94 392.52h4.99v4.99h-4.99zM821.87 392.52h4.99v4.99h-4.99zM830.8 392.52h4.99v4.99h-4.99zM848.66 392.52h4.99v4.99h-4.99zM857.59 392.52h4.99v4.99h-4.99zM875.44 392.52h4.99v4.99h-4.99zM884.37 392.52h4.99v4.99h-4.99zM893.3 392.52h4.99v4.99h-4.99z" class="cls-2"/><path d="M902.23 392.52h4.99v4.99h-4.99z" class="cls-3"/><path d="M911.16 392.52h4.99v4.99h-4.99zM929.02 392.52h4.99v4.99h-4.99zM937.95 392.52h4.99v4.99h-4.99zM955.8 392.52h4.99v4.99h-4.99z" class="cls-2"/><path d="M464.72 400.06h4.99v4.99h-4.99z" class="cls-1"/><path d="M482.58 400.06h4.99v4.99h-4.99zM491.51 400.06h4.99v4.99h-4.99zM500.43 400.06h4.99v4.99h-4.99zM509.36 400.06h4.99v4.99h-4.99z" class="cls-2"/><path d="M679.01 400.06H684v4.99h-4.99z" class="cls-3"/><path d="M687.94 400.06h4.99v4.99h-4.99zM696.87 400.06h4.99v4.99h-4.99zM705.8 400.06h4.99v4.99h-4.99zM714.73 400.06h4.99v4.99h-4.99zM723.65 400.06h4.99v4.99h-4.99zM732.58 400.06h4.99v4.99h-4.99zM741.51 400.06h4.99v4.99h-4.99zM750.44 400.06h4.99v4.99h-4.99zM759.37 400.06h4.99v4.99h-4.99zM768.3 400.06h4.99v4.99h-4.99zM786.16 400.06h4.99v4.99h-4.99zM795.08 400.06h4.99v4.99h-4.99zM804.01 400.06H809v4.99h-4.99zM821.87 400.06h4.99v4.99h-4.99zM830.8 400.06h4.99v4.99h-4.99z" class="cls-2"/><path d="M884.37 400.06h4.99v4.99h-4.99z" class="cls-3"/><path d="M893.3 400.06h4.99v4.99h-4.99zM911.16 400.06h4.99v4.99h-4.99zM937.95 400.06h4.99v4.99h-4.99zM946.87 400.06h4.99v4.99h-4.99zM955.8 400.06h4.99v4.99h-4.99zM464.72 407.6h4.99v4.99h-4.99zM473.65 407.6h4.99v4.99h-4.99zM482.58 407.6h4.99v4.99h-4.99zM491.51 407.6h4.99v4.99h-4.99zM518.29 407.6h4.99v4.99h-4.99zM679.01 407.6H684v4.99h-4.99zM687.94 407.6h4.99v4.99h-4.99zM696.87 407.6h4.99v4.99h-4.99zM705.8 407.6h4.99v4.99h-4.99zM714.73 407.6h4.99v4.99h-4.99zM723.65 407.6h4.99v4.99h-4.99zM732.58 407.6h4.99v4.99h-4.99z" class="cls-2"/><path d="M741.51 407.6h4.99v4.99h-4.99z" class="cls-3"/><path d="M750.44 407.6h4.99v4.99h-4.99zM759.37 407.6h4.99v4.99h-4.99zM768.3 407.6h4.99v4.99h-4.99z" class="cls-2"/><path d="M777.23 407.6h4.99v4.99h-4.99z" class="cls-3"/><path d="M804.01 407.6H809v4.99h-4.99zM821.87 407.6h4.99v4.99h-4.99zM830.8 407.6h4.99v4.99h-4.99zM848.66 407.6h4.99v4.99h-4.99zM857.59 407.6h4.99v4.99h-4.99zM866.52 407.6h4.99v4.99h-4.99zM875.44 407.6h4.99v4.99h-4.99z" class="cls-2"/><path d="M902.23 407.6h4.99v4.99h-4.99z" class="cls-3"/><path d="M911.16 407.6h4.99v4.99h-4.99z" class="cls-2"/><path d="M920.09 407.6h4.99v4.99h-4.99z" class="cls-1"/><path d="M937.95 407.6h4.99v4.99h-4.99zM946.87 407.6h4.99v4.99h-4.99zM464.72 415.14h4.99v4.99h-4.99zM473.65 415.14h4.99v4.99h-4.99zM482.58 415.14h4.99v4.99h-4.99zM500.43 415.14h4.99v4.99h-4.99zM679.01 415.14H684v4.99h-4.99zM687.94 415.14h4.99v4.99h-4.99z" class="cls-2"/><path d="M696.87 415.14h4.99v4.99h-4.99z" class="cls-1"/><path d="M714.73 415.14h4.99v4.99h-4.99z" class="cls-3"/><path d="M732.58 415.14h4.99v4.99h-4.99zM741.51 415.14h4.99v4.99h-4.99z" class="cls-2"/><path d="M750.44 415.14h4.99v4.99h-4.99z" class="cls-3"/><path d="M759.37 415.14h4.99v4.99h-4.99zM768.3 415.14h4.99v4.99h-4.99zM777.23 415.14h4.99v4.99h-4.99zM786.16 415.14h4.99v4.99h-4.99zM795.08 415.14h4.99v4.99h-4.99zM804.01 415.14H809v4.99h-4.99zM812.94 415.14h4.99v4.99h-4.99zM821.87 415.14h4.99v4.99h-4.99zM830.8 415.14h4.99v4.99h-4.99z" class="cls-2"/><path d="M848.66 415.14h4.99v4.99h-4.99z" class="cls-1"/><path d="M857.59 415.14h4.99v4.99h-4.99z" class="cls-2"/><path d="M866.52 415.14h4.99v4.99h-4.99z" class="cls-3"/><path d="M875.44 415.14h4.99v4.99h-4.99zM884.37 415.14h4.99v4.99h-4.99zM893.3 415.14h4.99v4.99h-4.99zM902.23 415.14h4.99v4.99h-4.99zM920.09 415.14h4.99v4.99h-4.99zM929.02 415.14h4.99v4.99h-4.99zM946.87 415.14h4.99v4.99h-4.99zM464.72 422.68h4.99v4.99h-4.99zM473.65 422.68h4.99v4.99h-4.99zM482.58 422.68h4.99v4.99h-4.99zM679.01 422.68H684v4.99h-4.99z" class="cls-2"/><path d="M687.94 422.68h4.99v4.99h-4.99z" class="cls-3"/><path d="M696.87 422.68h4.99v4.99h-4.99zM705.8 422.68h4.99v4.99h-4.99zM714.73 422.68h4.99v4.99h-4.99zM732.58 422.68h4.99v4.99h-4.99zM741.51 422.68h4.99v4.99h-4.99zM750.44 422.68h4.99v4.99h-4.99zM759.37 422.68h4.99v4.99h-4.99zM768.3 422.68h4.99v4.99h-4.99zM777.23 422.68h4.99v4.99h-4.99zM786.16 422.68h4.99v4.99h-4.99zM795.08 422.68h4.99v4.99h-4.99zM812.94 422.68h4.99v4.99h-4.99zM830.8 422.68h4.99v4.99h-4.99zM848.66 422.68h4.99v4.99h-4.99z" class="cls-2"/><path d="M857.59 422.68h4.99v4.99h-4.99z" class="cls-1"/><path d="M866.52 422.68h4.99v4.99h-4.99zM875.44 422.68h4.99v4.99h-4.99z" class="cls-2"/><path d="M902.23 422.68h4.99v4.99h-4.99zM911.16 422.68h4.99v4.99h-4.99z" class="cls-1"/><path d="M929.02 422.68h4.99v4.99h-4.99zM937.95 422.68h4.99v4.99h-4.99zM464.72 430.21h4.99v4.99h-4.99zM473.65 430.21h4.99v4.99h-4.99zM482.58 430.21h4.99v4.99h-4.99zM491.51 430.21h4.99v4.99h-4.99zM500.43 430.21h4.99v4.99h-4.99zM509.36 430.21h4.99v4.99h-4.99z" class="cls-2"/><path d="M518.29 430.21h4.99v4.99h-4.99zM679.01 430.21H684v4.99h-4.99z" class="cls-3"/><path d="M687.94 430.21h4.99v4.99h-4.99zM696.87 430.21h4.99v4.99h-4.99zM705.8 430.21h4.99v4.99h-4.99zM714.73 430.21h4.99v4.99h-4.99zM723.65 430.21h4.99v4.99h-4.99z" class="cls-2"/><path d="M732.58 430.21h4.99v4.99h-4.99z" class="cls-3"/><path d="M741.51 430.21h4.99v4.99h-4.99zM750.44 430.21h4.99v4.99h-4.99zM759.37 430.21h4.99v4.99h-4.99zM768.3 430.21h4.99v4.99h-4.99z" class="cls-2"/><path d="M795.08 430.21h4.99v4.99h-4.99z" class="cls-1"/><path d="M804.01 430.21H809v4.99h-4.99zM821.87 430.21h4.99v4.99h-4.99zM848.66 430.21h4.99v4.99h-4.99zM875.44 430.21h4.99v4.99h-4.99zM884.37 430.21h4.99v4.99h-4.99zM893.3 430.21h4.99v4.99h-4.99z" class="cls-2"/><path d="M929.02 430.21h4.99v4.99h-4.99z" class="cls-1"/><path d="M937.95 430.21h4.99v4.99h-4.99zM464.72 437.75h4.99v4.99h-4.99zM473.65 437.75h4.99v4.99h-4.99zM482.58 437.75h4.99v4.99h-4.99zM491.51 437.75h4.99v4.99h-4.99zM679.01 437.75H684v4.99h-4.99zM687.94 437.75h4.99v4.99h-4.99zM696.87 437.75h4.99v4.99h-4.99z" class="cls-2"/><path d="M705.8 437.75h4.99v4.99h-4.99z" class="cls-1"/><path d="M714.73 437.75h4.99v4.99h-4.99zM732.58 437.75h4.99v4.99h-4.99zM750.44 437.75h4.99v4.99h-4.99zM759.37 437.75h4.99v4.99h-4.99zM777.23 437.75h4.99v4.99h-4.99zM786.16 437.75h4.99v4.99h-4.99zM795.08 437.75h4.99v4.99h-4.99zM804.01 437.75H809v4.99h-4.99zM812.94 437.75h4.99v4.99h-4.99zM848.66 437.75h4.99v4.99h-4.99zM866.52 437.75h4.99v4.99h-4.99z" class="cls-2"/><path d="M875.44 437.75h4.99v4.99h-4.99zM884.37 437.75h4.99v4.99h-4.99z" class="cls-1"/><path d="M893.3 437.75h4.99v4.99h-4.99zM920.09 437.75h4.99v4.99h-4.99zM946.87 437.75h4.99v4.99h-4.99zM464.72 445.29h4.99v4.99h-4.99zM473.65 445.29h4.99v4.99h-4.99zM679.01 445.29H684v4.99h-4.99z" class="cls-2"/><path d="M687.94 445.29h4.99v4.99h-4.99z" class="cls-3"/><path d="M696.87 445.29h4.99v4.99h-4.99zM705.8 445.29h4.99v4.99h-4.99zM732.58 445.29h4.99v4.99h-4.99z" class="cls-2"/><path d="M741.51 445.29h4.99v4.99h-4.99z" class="cls-1"/><path d="M750.44 445.29h4.99v4.99h-4.99zM759.37 445.29h4.99v4.99h-4.99zM777.23 445.29h4.99v4.99h-4.99zM804.01 445.29H809v4.99h-4.99zM812.94 445.29h4.99v4.99h-4.99z" class="cls-2"/><path d="M839.73 445.29h4.99v4.99h-4.99z" class="cls-3"/><path d="M857.59 445.29h4.99v4.99h-4.99zM884.37 445.29h4.99v4.99h-4.99zM902.23 445.29h4.99v4.99h-4.99zM911.16 445.29h4.99v4.99h-4.99zM920.09 445.29h4.99v4.99h-4.99zM937.95 445.29h4.99v4.99h-4.99zM464.72 452.83h4.99v4.99h-4.99z" class="cls-2"/><path d="M473.65 452.83h4.99v4.99h-4.99z" class="cls-3"/><path d="M482.58 452.83h4.99v4.99h-4.99z" class="cls-2"/><path d="M491.51 452.83h4.99v4.99h-4.99z" class="cls-3"/><path d="M679.01 452.83H684v4.99h-4.99zM687.94 452.83h4.99v4.99h-4.99zM705.8 452.83h4.99v4.99h-4.99zM714.73 452.83h4.99v4.99h-4.99zM723.65 452.83h4.99v4.99h-4.99zM732.58 452.83h4.99v4.99h-4.99zM741.51 452.83h4.99v4.99h-4.99z" class="cls-2"/><path d="M786.16 452.83h4.99v4.99h-4.99z" class="cls-3"/><path d="M804.01 452.83H809v4.99h-4.99z" class="cls-2"/><path d="M839.73 452.83h4.99v4.99h-4.99z" class="cls-1"/><path d="M902.23 452.83h4.99v4.99h-4.99zM929.02 452.83h4.99v4.99h-4.99zM464.72 460.37h4.99v4.99h-4.99zM473.65 460.37h4.99v4.99h-4.99zM482.58 460.37h4.99v4.99h-4.99zM679.01 460.37H684v4.99h-4.99zM687.94 460.37h4.99v4.99h-4.99zM696.87 460.37h4.99v4.99h-4.99z" class="cls-2"/><path d="M705.8 460.37h4.99v4.99h-4.99z" class="cls-3"/><path d="M732.58 460.37h4.99v4.99h-4.99zM741.51 460.37h4.99v4.99h-4.99zM750.44 460.37h4.99v4.99h-4.99z" class="cls-2"/><path d="M759.37 460.37h4.99v4.99h-4.99z" class="cls-3"/><path d="M768.3 460.37h4.99v4.99h-4.99zM786.16 460.37h4.99v4.99h-4.99zM795.08 460.37h4.99v4.99h-4.99zM812.94 460.37h4.99v4.99h-4.99zM848.66 460.37h4.99v4.99h-4.99z" class="cls-2"/><path d="M893.3 460.37h4.99v4.99h-4.99z" class="cls-1"/><path d="M902.23 460.37h4.99v4.99h-4.99zM929.02 460.37h4.99v4.99h-4.99zM464.72 467.91h4.99v4.99h-4.99zM482.58 467.91h4.99v4.99h-4.99zM491.51 467.91h4.99v4.99h-4.99z" class="cls-2"/><path d="M500.43 467.91h4.99v4.99h-4.99z" class="cls-3"/><path d="M679.01 467.91H684v4.99h-4.99zM714.73 467.91h4.99v4.99h-4.99z" class="cls-2"/><path d="M750.44 467.91h4.99v4.99h-4.99z" class="cls-1"/><path d="M759.37 467.91h4.99v4.99h-4.99z" class="cls-2"/><path d="M777.23 467.91h4.99v4.99h-4.99z" class="cls-1"/><path d="M839.73 467.91h4.99v4.99h-4.99zM848.66 467.91h4.99v4.99h-4.99zM911.16 467.91h4.99v4.99h-4.99zM464.72 475.45h4.99v4.99h-4.99zM473.65 475.45h4.99v4.99h-4.99zM679.01 475.45H684v4.99h-4.99z" class="cls-2"/><path d="M687.94 475.45h4.99v4.99h-4.99zM696.87 475.45h4.99v4.99h-4.99z" class="cls-1"/><path d="M705.8 475.45h4.99v4.99h-4.99zM714.73 475.45h4.99v4.99h-4.99zM732.58 475.45h4.99v4.99h-4.99z" class="cls-2"/><path d="M750.44 475.45h4.99v4.99h-4.99z" class="cls-1"/><path d="M768.3 475.45h4.99v4.99h-4.99zM786.16 475.45h4.99v4.99h-4.99zM795.08 475.45h4.99v4.99h-4.99zM812.94 475.45h4.99v4.99h-4.99z" class="cls-2"/><path d="M911.16 475.45h4.99v4.99h-4.99z" class="cls-1"/><path d="M464.72 482.98h4.99v4.99h-4.99z" class="cls-3"/><path d="M473.65 482.98h4.99v4.99h-4.99z" class="cls-1"/><path d="M491.51 482.98h4.99v4.99h-4.99z" class="cls-3"/><path d="M500.43 482.98h4.99v4.99h-4.99zM687.94 482.98h4.99v4.99h-4.99zM696.87 482.98h4.99v4.99h-4.99zM714.73 482.98h4.99v4.99h-4.99z" class="cls-2"/><path d="M732.58 482.98h4.99v4.99h-4.99z" class="cls-3"/><path d="M741.51 482.98h4.99v4.99h-4.99zM750.44 482.98h4.99v4.99h-4.99zM759.37 482.98h4.99v4.99h-4.99zM768.3 482.98h4.99v4.99h-4.99zM777.23 482.98h4.99v4.99h-4.99zM812.94 482.98h4.99v4.99h-4.99zM839.73 482.98h4.99v4.99h-4.99zM902.23 482.98h4.99v4.99h-4.99zM473.65 490.52h4.99v4.99h-4.99zM679.01 490.52H684v4.99h-4.99z" class="cls-2"/><path d="M696.87 490.52h4.99v4.99h-4.99z" class="cls-3"/><path d="M705.8 490.52h4.99v4.99h-4.99zM723.65 490.52h4.99v4.99h-4.99zM732.58 490.52h4.99v4.99h-4.99z" class="cls-2"/><path d="M750.44 490.52h4.99v4.99h-4.99zM812.94 490.52h4.99v4.99h-4.99z" class="cls-1"/><path d="M839.73 490.52h4.99v4.99h-4.99z" class="cls-3"/><path d="M848.66 490.52h4.99v4.99h-4.99zM911.16 490.52h4.99v4.99h-4.99z" class="cls-2"/><path d="M473.65 498.06h4.99v4.99h-4.99z" class="cls-3"/><path d="M482.58 498.06h4.99v4.99h-4.99z" class="cls-2"/><path d="M679.01 498.06H684v4.99h-4.99z" class="cls-3"/><path d="M687.94 498.06h4.99v4.99h-4.99zM696.87 498.06h4.99v4.99h-4.99zM750.44 498.06h4.99v4.99h-4.99zM759.37 498.06h4.99v4.99h-4.99z" class="cls-2"/><path d="M768.3 498.06h4.99v4.99h-4.99z" class="cls-1"/><path d="M848.66 498.06h4.99v4.99h-4.99zM687.94 505.6h4.99v4.99h-4.99zM714.73 505.6h4.99v4.99h-4.99zM741.51 505.6h4.99v4.99h-4.99zM750.44 505.6h4.99v4.99h-4.99zM759.37 505.6h4.99v4.99h-4.99zM768.3 505.6h4.99v4.99h-4.99zM473.65 513.14h4.99v4.99h-4.99zM491.51 513.14h4.99v4.99h-4.99zM679.01 513.14H684v4.99h-4.99zM687.94 513.14h4.99v4.99h-4.99zM759.37 513.14h4.99v4.99h-4.99zM777.23 513.14h4.99v4.99h-4.99zM679.01 520.68H684v4.99h-4.99z" class="cls-2"/><path d="M696.87 520.68h4.99v4.99h-4.99z" class="cls-3"/><path d="M705.8 520.68h4.99v4.99h-4.99zM732.58 520.68h4.99v4.99h-4.99zM750.44 520.68h4.99v4.99h-4.99zM804.01 520.68H809v4.99h-4.99zM473.65 528.21h4.99v4.99h-4.99z" class="cls-2"/><path d="M482.58 528.21h4.99v4.99h-4.99z" class="cls-3"/><path d="M491.51 528.21h4.99v4.99h-4.99zM687.94 528.21h4.99v4.99h-4.99zM696.87 528.21h4.99v4.99h-4.99zM750.44 528.21h4.99v4.99h-4.99zM768.3 528.21h4.99v4.99h-4.99zM777.23 528.21h4.99v4.99h-4.99z" class="cls-2"/><path d="M804.01 528.21H809v4.99h-4.99z" class="cls-3"/><path d="M482.58 535.75h4.99v4.99h-4.99zM696.87 535.75h4.99v4.99h-4.99zM705.8 535.75h4.99v4.99h-4.99zM732.58 535.75h4.99v4.99h-4.99zM768.3 535.75h4.99v4.99h-4.99zM750.44 543.29h4.99v4.99h-4.99z" class="cls-2"/><path d="M768.3 543.29h4.99v4.99h-4.99z" class="cls-1"/><path d="M777.23 543.29h4.99v4.99h-4.99zM696.87 550.83h4.99v4.99h-4.99z" class="cls-2"/><path d="M705.8 550.83h4.99v4.99h-4.99z" class="cls-1"/><path d="M768.3 550.83h4.99v4.99h-4.99z" class="cls-2"/><path d="M777.23 550.83h4.99v4.99h-4.99z" class="cls-1"/><path d="M696.87 558.37h4.99v4.99h-4.99zM705.8 558.37h4.99v4.99h-4.99zM804.01 558.37H809v4.99h-4.99zM768.3 565.91h4.99v4.99h-4.99zM768.3 573.45h4.99v4.99h-4.99z" class="cls-2"/><path d="M696.87 580.98h4.99v4.99h-4.99z" class="cls-1"/></g></svg>