<?xml version="1.0" encoding="UTF-8"?>
<svg xmlns="http://www.w3.org/2000/svg" xmlns:xlink="http://www.w3.org/1999/xlink" viewBox="0 0 694.96 558.88">
  <defs>
    <style>
      .cls-1 {
        opacity: .6;
      }

      .cls-2 {
        fill: url(#linear-gradient-2);
      }

      .cls-3 {
        fill: #fff;
      }

      .cls-4 {
        fill: #d0d2d3;
      }

      .cls-4, .cls-5 {
        mix-blend-mode: multiply;
      }

      .cls-5 {
        fill: #c6c9ca;
      }

      .cls-6 {
        fill: none;
      }

      .cls-7 {
        fill: url(#linear-gradient-4);
      }

      .cls-8 {
        fill: url(#linear-gradient-3);
      }

      .cls-9 {
        fill: #455c33;
      }

      .cls-10 {
        fill: url(#linear-gradient-5);
      }

      .cls-11 {
        fill: #163300;
      }

      .cls-12 {
        fill: #9fe870;
      }

      .cls-13 {
        isolation: isolate;
      }

      .cls-14 {
        fill: url(#linear-gradient);
      }

      .cls-15 {
        fill: #c5f1a9;
      }
    </style>
    <linearGradient id="linear-gradient" x1="-60.41" y1="441.64" x2="149.3" y2="549.74" gradientUnits="userSpaceOnUse">
      <stop offset="0" stop-color="#b2ed8d"/>
      <stop offset=".57" stop-color="#a5e979"/>
      <stop offset="1" stop-color="#9fe870"/>
    </linearGradient>
    <linearGradient id="linear-gradient-2" x1="160.96" y1="288.95" x2="169.81" y2="545.78" gradientUnits="userSpaceOnUse">
      <stop offset="0" stop-color="#c5f1a9"/>
      <stop offset=".8" stop-color="#b6ed93"/>
      <stop offset="1" stop-color="#b2ed8d"/>
    </linearGradient>
    <linearGradient id="linear-gradient-3" x1="99.59" y1="305.35" x2="309.3" y2="413.45" gradientUnits="userSpaceOnUse">
      <stop offset="0" stop-color="#9fe870"/>
      <stop offset=".23" stop-color="#97d66e"/>
      <stop offset=".68" stop-color="#82a869"/>
      <stop offset="1" stop-color="#738566"/>
    </linearGradient>
    <linearGradient id="linear-gradient-4" x1="316.53" y1="158.18" x2="325.2" y2="409.62" gradientUnits="userSpaceOnUse">
      <stop offset="0" stop-color="#9fe870"/>
      <stop offset=".13" stop-color="#99df6c"/>
      <stop offset=".34" stop-color="#8ac862"/>
      <stop offset=".6" stop-color="#72a352"/>
      <stop offset=".9" stop-color="#516f3b"/>
      <stop offset="1" stop-color="#455c33"/>
    </linearGradient>
    <linearGradient id="linear-gradient-5" x1="501.15" y1="-48.38" x2="496.53" y2="241.72" gradientUnits="userSpaceOnUse">
      <stop offset="0" stop-color="#455c33"/>
      <stop offset=".4" stop-color="#344d21"/>
      <stop offset="1" stop-color="#163300"/>
    </linearGradient>
  </defs>
  <g class="cls-13">
    <g id="Layer_2" data-name="Layer 2">
      <g id="Layer_1-2" data-name="Layer 1">
        <g>
          <g>
            <g>
              <polygon class="cls-14" points="0 484.34 162.59 558.88 162.59 545.04 0 470.49 0 484.34"/>
              <polygon class="cls-2" points="322.59 471.41 334.28 466.06 322.59 460.7 322.59 422.59 160 348.04 160 396.87 0 470.49 162.59 545.04 322.59 471.41 322.59 471.41 322.59 471.41"/>
              <polygon class="cls-15" points="322.59 422.59 322.59 471.41 162.59 545.04 162.59 558.88 334.28 479.9 334.28 466.06 334.28 417.23 322.59 422.59"/>
              <polygon class="cls-4" points="160 396.87 322.59 471.41 322.59 422.59 160 348.04 160 396.87"/>
            </g>
            <g>
              <polygon class="cls-8" points="160 348.04 322.59 422.59 322.59 408.75 160 334.2 160 348.04"/>
              <polygon class="cls-7" points="473.51 339.56 485.19 334.2 473.51 328.84 473.51 290.73 310.91 216.19 310.91 265.01 160 334.2 322.59 408.75 473.5 339.56 473.51 339.56 473.51 339.56"/>
              <polygon class="cls-12" points="473.51 290.73 473.51 339.56 322.59 408.75 322.59 422.59 485.19 348.04 485.19 334.2 485.19 285.38 473.51 290.73"/>
              <polygon class="cls-4" points="310.91 265.01 473.51 339.56 473.51 290.73 310.91 216.19 310.91 265.01"/>
            </g>
            <g>
              <polygon class="cls-11" points="310.91 216.19 473.51 290.73 473.51 276.89 310.91 202.34 310.91 216.19"/>
              <g>
                <polygon class="cls-6" points="624.41 207.71 473.51 276.89 624.41 207.71 624.41 207.71"/>
                <polygon class="cls-10" points="543.83 4.89 417.17 62.21 461.82 84.87 461.82 133.16 310.91 202.34 473.51 276.89 624.41 207.71 624.41 207.71 624.41 196.99 624.41 159.15 636.1 164.49 683.67 186.22 543.83 4.89"/>
                <polygon class="cls-9" points="624.41 159.15 624.41 196.99 624.41 207.71 473.51 276.89 473.51 290.73 636.1 216.19 636.1 202.34 636.1 164.49 624.41 159.15"/>
                <polygon class="cls-5" points="624.41 207.71 624.41 159.15 683.67 186.22 543.83 4.89 417.17 62.21 461.82 84.87 461.82 133.16 624.41 207.71"/>
                <polygon class="cls-9" points="694.96 180.47 683.67 186.22 543.83 4.89 555.75 0 694.96 180.47"/>
              </g>
            </g>
          </g>
          <g class="cls-1">
            <path class="cls-3" d="M91.19,463.76l8.49-3.9c12.86-5.89,27.26-5.2,43.21,2.07l36.71,16.75c16.27,7.42,18,14.07,5.2,19.93l-8.75,4.01c-12.71,5.83-27.03,5.12-42.94-2.14l-37.19-16.97c-15.99-7.29-17.56-13.88-4.73-19.76ZM107.08,471.12c-4.21,1.93-3.68,4.1,1.59,6.5l37.03,16.89c5.45,2.49,10.27,2.76,14.48.83l8.62-3.96c4.32-1.98,3.76-4.21-1.69-6.7l-37.24-16.99c-5.13-2.34-9.86-2.51-14.18-.53l-8.62,3.95Z"/>
            <path class="cls-3" d="M235.04,475.38c-4.33,1.98-9.19,1.75-14.6-.73l-60.74-27.71c-4.35,2-9.07,1.8-14.14-.6-5.34-2.44-5.93-4.66-1.77-6.66l6.29-2.99c4.34-1.92,9.14-1.68,14.41.72l68.75,31.36c5.41,2.47,6.01,4.67,1.8,6.6Z"/>
          </g>
          <g class="cls-1">
            <path class="cls-3" d="M245.56,332.31l8.49-3.9c12.86-5.89,27.26-5.2,43.21,2.07l36.71,16.75c16.27,7.42,18,14.06,5.2,19.94l-8.75,4.01c-12.71,5.83-27.03,5.12-42.94-2.14l-37.18-16.96c-15.99-7.29-17.56-13.88-4.74-19.77ZM261.45,339.67c-4.21,1.93-3.68,4.1,1.59,6.5l37.03,16.89c5.45,2.49,10.27,2.76,14.48.83l8.62-3.95c4.32-1.98,3.76-4.21-1.68-6.7l-37.24-16.99c-5.13-2.34-9.85-2.52-14.18-.53l-8.62,3.95Z"/>
            <path class="cls-3" d="M287.58,313.28l21.42-9.82c12.86-5.9,27.26-5.21,43.21,2.07l2.23,1.02c16.27,7.42,18,14.07,5.2,19.93-9.87,4.53-11.34,8.37-4.41,11.53l8.11,3.7,27.99-12.83c4.11-1.7,8.7-1.39,13.79.9,5.17,2.36,5.82,4.43,1.95,6.24l-34.64,15.89c-4.18,1.92-8.98,1.61-14.41-.91l-15.38-7.02c-17.76-8.13-17.43-16.37,1-24.73,4.32-1.98,3.76-4.21-1.68-6.69l-2.76-1.26c-5.13-2.34-9.86-2.52-14.18-.54l-21.29,9.76c-4.37,1.94-9.15,1.72-14.35-.65-5.41-2.47-6.01-4.67-1.8-6.6Z"/>
          </g>
          <g class="cls-1">
            <path class="cls-3" d="M393.23,201.85l8.49-3.89c12.86-5.9,27.26-5.21,43.21,2.06l36.71,16.75c16.26,7.42,18,14.07,5.2,19.94l-8.75,4.02c-12.71,5.83-27.03,5.11-42.94-2.14l-37.18-16.97c-15.99-7.29-17.57-13.88-4.74-19.76ZM409.12,209.21c-4.2,1.93-3.67,4.1,1.59,6.5l37.03,16.89c5.45,2.49,10.28,2.76,14.49.84l8.62-3.95c4.32-1.99,3.76-4.22-1.68-6.7l-37.24-16.99c-5.13-2.34-9.86-2.52-14.18-.54l-8.62,3.95Z"/>
            <path class="cls-3" d="M504.23,214.33l21.36-9.85c4.35-1.99,3.82-4.22-1.59-6.7l-13.16-6-19.33,8.82c-4.27,1.96-8.97,1.74-14.11-.62-5.41-2.47-5.98-4.71-1.74-6.73l19.26-8.74-15.86-7.24-27.6,12.7c-4.42,1.94-9.24,1.73-14.43-.61-5.3-2.42-5.7-4.65-1.2-6.68l33.88-15.54c4.26-1.96,9.05-1.73,14.35.7l23.55,10.74c5.16,2.46,5.64,4.62,1.44,6.48,4.56-1.77,9.41-1.5,14.52.81l12.83,5.85c16.28,7.42,18,14.07,5.2,19.94l-21.42,9.82c-4.26,1.96-9.01,1.74-14.25-.65-5.34-2.43-5.92-4.61-1.73-6.53Z"/>
          </g>
        </g>
      </g>
    </g>
  </g>
</svg>