<?xml version="1.0" encoding="UTF-8"?>
<svg id="Layer_2" data-name="Layer 2" xmlns="http://www.w3.org/2000/svg" xmlns:xlink="http://www.w3.org/1999/xlink" viewBox="0 0 357.04 339.31">
  <defs>
    <style>
      .cls-1 {
        fill: rgba(115, 133, 102, 0);
      }

      .cls-2 {
        fill: #9fe870;
      }

      .cls-2, .cls-3, .cls-4, .cls-5, .cls-6, .cls-7, .cls-8 {
        isolation: isolate;
      }

      .cls-3 {
        fill: #455c33;
      }

      .cls-4 {
        fill: #738566;
      }

      .cls-5 {
        fill: #fff;
      }

      .cls-9 {
        fill: rgba(22, 51, 0, 0);
      }

      .cls-10 {
        fill: none;
      }

      .cls-11 {
        fill: rgba(159, 232, 112, 0);
      }

      .cls-6 {
        fill: #163300;
      }

      .cls-7 {
        fill: #ecfae2;
      }

      .cls-8 {
        fill: #c5f1a9;
      }

      .cls-12 {
        clip-path: url(#clippath);
      }
    </style>
    <clipPath id="clippath">
      <rect class="cls-10" x="47.78" width="305.51" height="288"/>
    </clipPath>
  </defs>
  <g id="Layer_1-2" data-name="Layer 1">
    <g class="cls-12">
      <g>
        <polygon class="cls-8" points="201 145.16 203.21 145.35 195.56 140.57 192.94 140.12 201 145.16"/>
        <polygon class="cls-7" points="198.1 144.91 200.6 145.12 192.47 140.04 189.51 139.54 198.1 144.91"/>
        <polygon class="cls-7" points="194.78 144.62 197.64 144.87 188.96 139.45 185.59 138.88 194.78 144.62"/>
        <polygon class="cls-2" points="190.96 144.3 194.26 144.58 184.97 138.78 181.07 138.12 190.96 144.3"/>
        <polygon class="cls-8" points="186.52 143.92 190.36 144.24 180.35 138 175.82 137.23 186.52 143.92"/>
        <polygon class="cls-6" points="181.28 143.47 185.81 143.85 174.97 137.09 169.62 136.18 181.28 143.47"/>
        <polygon class="cls-3" points="175.01 142.93 180.43 143.4 168.62 136.01 162.21 134.93 175.01 142.93"/>
        <polygon class="cls-2" points="167.38 142.28 173.99 142.84 161 134.73 153.18 133.41 167.38 142.28"/>
        <polygon class="cls-7" points="157.88 141.46 166.12 142.17 151.69 133.16 141.94 131.51 157.88 141.46"/>
        <polygon class="cls-4" points="145.74 140.42 156.29 141.33 140.07 131.19 127.58 129.08 145.74 140.42"/>
        <polygon class="cls-6" points="129.66 139.05 143.67 140.25 125.14 128.67 108.57 125.87 129.66 139.05"/>
        <polygon class="cls-2" points="107.39 137.14 126.87 138.81 105.26 125.31 82.23 121.42 107.39 137.14"/>
        <polygon class="cls-7" points="74.46 134.32 103.39 136.79 77.49 120.62 43.28 114.84 74.46 134.32"/>
        <polygon class="cls-4" points="0 107.53 35.96 113.61 68.27 133.79 20.83 129.72 1.11 117.4 0 107.53"/>
        <polygon class="cls-5" points="1.81 123.67 10.02 128.8 2.31 128.14 1.81 123.67"/>
        <polygon class="cls-9" points="210.36 151 212.1 150.9 204.45 146.12 202.3 145.97 210.36 151"/>
        <polygon class="cls-4" points="208.07 151.14 210.04 151.02 201.91 145.94 199.49 145.78 208.07 151.14"/>
        <polygon class="cls-2" points="205.46 151.3 207.71 151.16 199.04 145.74 196.27 145.55 205.46 151.3"/>
        <polygon class="cls-7" points="202.46 151.48 205.05 151.32 195.76 145.52 192.57 145.3 202.46 151.48"/>
        <polygon class="cls-8" points="198.96 151.68 201.98 151.5 191.98 145.26 188.25 145 198.96 151.68"/>
        <polygon class="cls-3" points="194.83 151.93 198.4 151.72 187.56 144.95 183.17 144.65 194.83 151.93"/>
        <polygon class="cls-2" points="189.89 152.22 194.16 151.97 182.35 144.59 177.09 144.23 189.89 152.22"/>
        <polygon class="cls-7" points="183.88 152.58 189.09 152.27 176.1 144.16 169.68 143.71 183.88 152.58"/>
        <polygon class="cls-8" points="176.4 153.03 182.89 152.64 168.46 143.63 160.46 143.07 176.4 153.03"/>
        <polygon class="cls-2" points="166.83 153.6 175.15 153.1 158.92 142.97 148.68 142.26 166.83 153.6"/>
        <polygon class="cls-3" points="154.17 154.35 165.2 153.7 146.67 142.12 133.08 141.18 154.17 154.35"/>
        <polygon class="cls-4" points="136.62 155.4 151.97 154.48 130.36 140.99 111.46 139.68 136.62 155.4"/>
        <polygon class="cls-8" points="110.69 156.95 133.47 155.59 107.58 139.41 79.51 137.47 110.69 156.95"/>
        <polygon class="cls-6" points="68.44 159.46 105.81 157.24 73.5 137.05 27.47 133.87 68.44 159.46"/>
        <polygon class="cls-2" points="2.76 132.16 16.97 133.14 59.93 159.97 6.24 163.17 2.76 132.16"/>
        <polygon class="cls-8" points="219.72 156.85 221 156.46 213.34 151.67 211.67 151.82 219.72 156.85"/>
        <polygon class="cls-7" points="218.05 157.37 219.49 156.92 211.36 151.85 209.46 152.01 218.05 157.37"/>
        <polygon class="cls-8" points="216.15 157.97 217.79 157.46 209.12 152.04 206.95 152.23 216.15 157.97"/>
        <polygon class="cls-2" points="213.95 158.65 215.84 158.06 206.55 152.26 204.06 152.48 213.95 158.65"/>
        <polygon class="cls-4" points="211.39 159.45 213.6 158.76 203.6 152.51 200.69 152.77 211.39 159.45"/>
        <polygon class="cls-2" points="208.38 160.39 210.98 159.58 200.15 152.81 196.72 153.11 208.38 160.39"/>
        <polygon class="cls-8" points="204.77 161.52 207.89 160.54 196.08 153.16 191.97 153.52 204.77 161.52"/>
        <polygon class="cls-4" points="200.38 162.89 204.18 161.7 191.19 153.59 186.18 154.02 200.38 162.89"/>
        <polygon class="cls-2" points="194.91 164.59 199.65 163.11 185.23 154.1 178.98 154.64 194.91 164.59"/>
        <polygon class="cls-7" points="187.93 166.77 194 164.88 177.77 154.74 169.77 155.43 187.93 166.77"/>
        <polygon class="cls-8" points="178.68 169.66 186.74 167.15 168.2 155.57 157.59 156.49 178.68 169.66"/>
        <polygon class="cls-6" points="165.86 173.66 177.07 170.16 155.46 156.67 140.7 157.94 165.86 173.66"/>
        <polygon class="cls-7" points="146.91 179.57 163.56 174.38 137.66 158.21 115.73 160.1 146.91 179.57"/>
        <polygon class="cls-2" points="116.06 189.2 143.35 180.68 111.04 160.5 75.08 163.61 116.06 189.2"/>
        <polygon class="cls-4" points="6.95 169.49 66.88 164.31 109.83 191.14 56.91 207.66 7.78 176.97 6.95 169.49"/>
        <polygon class="cls-5" points="9.31 190.6 43.39 211.88 12.77 221.43 9.31 190.6"/>
        <polygon class="cls-2" points="229.09 162.7 229.89 162.01 222.24 157.23 221.03 157.67 229.09 162.7"/>
        <polygon class="cls-4" points="228.03 163.61 228.94 162.82 220.81 157.75 219.44 158.24 228.03 163.61"/>
        <polygon class="cls-8" points="226.83 164.64 227.87 163.75 219.19 158.33 217.63 158.9 226.83 164.64"/>
        <polygon class="cls-7" points="225.44 165.83 226.64 164.8 217.35 159 215.55 159.65 225.44 165.83"/>
        <polygon class="cls-8" points="223.83 167.22 225.22 166.02 215.22 159.77 213.12 160.53 223.83 167.22"/>
        <polygon class="cls-3" points="221.93 168.85 223.57 167.44 212.74 160.68 210.27 161.57 221.93 168.85"/>
        <polygon class="cls-2" points="219.65 170.81 221.62 169.12 209.8 161.74 206.85 162.81 219.65 170.81"/>
        <polygon class="cls-6" points="216.88 173.19 219.28 171.13 206.29 163.01 202.68 164.32 216.88 173.19"/>
        <polygon class="cls-4" points="213.43 176.16 216.42 173.59 201.99 164.57 197.49 166.21 213.43 176.16"/>
        <polygon class="cls-8" points="209.02 179.95 212.85 176.65 196.63 166.52 190.87 168.61 209.02 179.95"/>
        <polygon class="cls-7" points="203.18 184.97 208.27 180.6 189.74 169.02 182.09 171.79 203.18 184.97"/>
        <polygon class="cls-2" points="195.1 191.92 202.17 185.84 180.57 172.35 169.93 176.2 195.1 191.92"/>
        <polygon class="cls-8" points="183.14 202.2 193.64 193.17 167.75 177 151.96 182.73 183.14 202.2"/>
        <polygon class="cls-7" points="163.67 218.94 180.89 204.13 148.58 183.95 122.69 193.35 163.67 218.94"/>
        <polygon class="cls-3" points="126.35 251.02 159.74 222.32 116.79 195.49 66.59 213.7 126.35 251.02"/>
        <polygon class="cls-2" points="14.04 232.76 53.76 218.35 117.81 258.36 25.88 337.4 25.76 337.33 14.04 232.76"/>
        <polygon class="cls-7" points="238.45 168.55 238.78 167.56 231.13 162.78 230.39 163.51 238.45 168.55"/>
        <polygon class="cls-4" points="238.01 169.84 238.39 168.73 230.26 163.65 229.42 164.48 238.01 169.84"/>
        <polygon class="cls-8" points="237.51 171.31 237.94 170.04 229.27 164.63 228.32 165.57 237.51 171.31"/>
        <polygon class="cls-2" points="236.93 173.01 237.43 171.55 228.14 165.74 227.04 166.83 236.93 173.01"/>
        <polygon class="cls-7" points="236.26 174.99 236.84 173.28 226.84 167.03 225.56 168.3 236.26 174.99"/>
        <polygon class="cls-6" points="235.48 177.32 236.16 175.3 225.32 168.54 223.81 170.03 235.48 177.32"/>
        <polygon class="cls-7" points="234.53 180.1 235.35 177.69 223.53 170.31 221.72 172.11 234.53 180.1"/>
        <polygon class="cls-2" points="233.38 183.5 234.38 180.56 221.38 172.44 219.18 174.63 233.38 183.5"/>
        <polygon class="cls-8" points="231.95 187.72 233.19 184.06 218.76 175.05 216.01 177.77 231.95 187.72"/>
        <polygon class="cls-7" points="230.12 193.12 231.71 188.43 215.48 178.3 211.96 181.79 230.12 193.12"/>
        <polygon class="cls-4" points="227.69 200.27 229.8 194.04 211.27 182.47 206.6 187.1 227.69 200.27"/>
        <polygon class="cls-3" points="224.33 210.18 227.27 201.52 205.67 188.02 199.17 194.46 224.33 210.18"/>
        <polygon class="cls-6" points="219.37 224.83 223.73 211.96 197.84 195.79 188.19 205.35 219.37 224.83"/>
        <polygon class="cls-2" points="211.28 248.68 218.43 227.58 186.12 207.4 170.3 223.08 211.28 248.68"/>
        <polygon class="cls-7" points="195.78 294.39 209.65 253.49 166.7 226.66 136.02 257.07 195.78 294.39"/>
        <polygon class="cls-6" points="53.07 339.31 128.18 264.84 192.24 304.85 185.59 324.45 53.07 339.31"/>
        <polygon class="cls-6" points="247.81 174.4 247.68 173.12 240.02 168.34 239.75 169.36 247.81 174.4"/>
        <polygon class="cls-8" points="247.99 176.07 247.84 174.63 239.7 169.55 239.4 170.71 247.99 176.07"/>
        <polygon class="cls-7" points="248.19 177.99 248.02 176.34 239.35 170.92 239 172.24 248.19 177.99"/>
        <polygon class="cls-3" points="248.43 180.19 248.23 178.29 238.94 172.49 238.54 174.01 248.43 180.19"/>
        <polygon class="cls-4" points="248.7 182.76 248.47 180.54 238.46 174.29 238 176.07 248.7 182.76"/>
        <polygon class="cls-8" points="249.02 185.78 248.74 183.17 237.91 176.4 237.36 178.5 249.02 185.78"/>
        <polygon class="cls-2" points="249.41 189.4 249.08 186.27 237.26 178.89 236.6 181.4 249.41 189.4"/>
        <polygon class="cls-7" points="249.88 193.8 249.47 189.99 236.48 181.87 235.68 184.94 249.88 193.8"/>
        <polygon class="cls-4" points="250.46 199.29 249.96 194.53 235.53 185.52 234.53 189.34 250.46 199.29"/>
        <polygon class="cls-3" points="251.21 206.3 250.56 200.21 234.33 190.07 233.06 194.96 251.21 206.3"/>
        <polygon class="cls-6" points="252.2 215.58 251.34 207.49 232.8 195.92 231.11 202.41 252.2 215.58"/>
        <polygon class="cls-2" points="253.57 228.44 252.37 217.2 230.77 203.7 228.41 212.73 253.57 228.44"/>
        <polygon class="cls-8" points="255.59 247.46 253.82 230.75 227.92 214.58 224.42 227.98 255.59 247.46"/>
        <polygon class="cls-7" points="258.89 278.42 255.98 251.03 223.67 230.85 217.92 252.82 258.89 278.42"/>
        <polygon class="cls-4" points="235.03 318.91 205.46 300.43 216.6 257.83 259.56 284.66 262.87 315.79 235.03 318.91"/>
        <polygon class="cls-5" points="199.58 322.88 202.61 311.33 217.83 320.84 199.58 322.88"/>
        <polygon class="cls-4" points="257.17 180.24 256.57 178.67 248.91 173.89 249.12 175.21 257.17 180.24"/>
        <polygon class="cls-2" points="257.97 182.3 257.28 180.53 249.15 175.45 249.38 176.94 257.97 182.3"/>
        <polygon class="cls-7" points="258.88 184.66 258.09 182.63 249.42 177.21 249.68 178.91 258.88 184.66"/>
        <polygon class="cls-8" points="259.92 187.37 259.02 185.03 249.73 179.23 250.03 181.19 259.92 187.37"/>
        <polygon class="cls-2" points="261.14 190.52 260.09 187.8 250.09 181.55 250.43 183.84 261.14 190.52"/>
        <polygon class="cls-6" points="262.57 194.24 261.33 191.03 250.5 184.26 250.91 186.96 262.57 194.24"/>
        <polygon class="cls-3" points="264.29 198.69 262.8 194.84 250.99 187.46 251.48 190.69 264.29 198.69"/>
        <polygon class="cls-6" points="266.38 204.11 264.57 199.42 251.58 191.3 252.18 195.24 266.38 204.11"/>
        <polygon class="cls-8" points="268.98 210.85 266.72 205.01 252.29 195.99 253.04 200.9 268.98 210.85"/>
        <polygon class="cls-2" points="272.3 219.48 269.41 211.98 253.19 201.85 254.15 208.14 272.3 219.48"/>
        <polygon class="cls-4" points="276.71 230.89 272.87 220.94 254.34 209.37 255.61 217.71 276.71 230.89"/>
        <polygon class="cls-8" points="282.81 246.7 277.47 232.88 255.87 219.38 257.64 230.99 282.81 246.7"/>
        <polygon class="cls-3" points="291.82 270.08 283.9 249.54 258.01 233.37 260.64 250.61 291.82 270.08"/>
        <polygon class="cls-11" points="306.51 308.16 293.51 274.48 261.21 254.29 265.53 282.56 306.51 308.16"/>
        <polygon class="cls-5" points="270.48 314.93 266.51 289 302.31 311.36 270.48 314.93"/>
        <polygon class="cls-6" points="266.54 186.09 265.46 184.23 257.81 179.45 258.48 181.06 266.54 186.09"/>
        <polygon class="cls-2" points="267.95 188.54 266.73 186.43 258.6 181.35 259.36 183.17 267.95 188.54"/>
        <polygon class="cls-8" points="269.56 191.33 268.17 188.92 259.5 183.51 260.37 185.59 269.56 191.33"/>
        <polygon class="cls-4" points="271.41 194.55 269.81 191.77 260.52 185.97 261.52 188.37 271.41 194.55"/>
        <polygon class="cls-3" points="273.57 198.29 271.71 195.06 261.71 188.81 262.87 191.6 273.57 198.29"/>
        <polygon class="cls-7" points="276.12 202.7 273.92 198.89 263.09 192.12 264.46 195.42 276.12 202.7"/>
        <polygon class="cls-8" points="279.17 207.99 276.53 203.42 264.72 196.04 266.36 199.99 279.17 207.99"/>
        <polygon class="cls-4" points="282.88 214.42 279.67 208.85 266.67 200.73 268.68 205.55 282.88 214.42"/>
        <polygon class="cls-3" points="287.5 222.42 283.49 215.48 269.06 206.46 271.56 212.47 287.5 222.42"/>
        <polygon class="cls-2" points="293.4 232.65 288.27 223.76 272.04 213.62 275.24 221.31 293.4 232.65"/>
        <polygon class="cls-6" points="301.21 246.2 294.4 234.39 275.87 222.82 280.12 233.02 301.21 246.2"/>
        <polygon class="cls-7" points="312.04 264.96 302.57 248.55 280.97 235.06 286.88 249.25 312.04 264.96"/>
        <polygon class="cls-2" points="328.05 292.71 313.99 268.34 288.09 252.16 296.87 273.23 328.05 292.71"/>
        <polygon class="cls-4" points="312.28 310.25 298.75 277.74 331.06 297.92 336.59 307.52 312.28 310.25"/>
        <polygon class="cls-7" points="275.9 191.94 274.35 189.78 266.7 185 267.84 186.9 275.9 191.94"/>
        <polygon class="cls-8" points="277.93 194.77 276.18 192.33 268.05 187.25 269.34 189.41 277.93 194.77"/>
        <polygon class="cls-2" points="280.24 198 278.25 195.22 269.57 189.8 271.05 192.26 280.24 198"/>
        <polygon class="cls-1" points="282.91 201.73 280.61 198.51 271.32 192.71 273.02 195.55 282.91 201.73"/>
        <polygon class="cls-3" points="286.01 206.06 283.33 202.32 273.33 196.07 275.31 199.37 286.01 206.06"/>
        <polygon class="cls-6" points="289.67 211.17 286.51 206.75 275.68 199.99 278.01 203.88 289.67 211.17"/>
        <polygon class="cls-7" points="294.05 217.28 290.26 211.99 278.45 204.61 281.24 209.28 294.05 217.28"/>
        <polygon class="cls-8" points="299.38 224.72 294.76 218.28 281.77 210.16 285.18 215.85 299.38 224.72"/>
        <polygon class="cls-2" points="306.01 233.99 300.26 225.95 285.83 216.94 290.08 224.03 306.01 233.99"/>
        <polygon class="cls-6" points="314.49 245.83 307.12 235.53 290.9 225.4 296.34 234.49 314.49 245.83"/>
        <polygon class="cls-3" points="325.72 261.5 315.94 247.84 297.4 236.27 304.63 248.33 325.72 261.5"/>
        <polygon class="cls-4" points="341.28 283.23 327.67 264.23 306.07 250.74 316.11 267.51 341.28 283.23"/>
        <polygon class="cls-2" points="349.45 306.08 333.1 295.86 318.18 270.95 344.07 287.13 357.04 305.23 349.45 306.08"/>
        <polygon class="cls-5" points="339.86 307.15 336.29 301.19 344.93 306.59 339.86 307.15"/>
      </g>
    </g>
  </g>
</svg>