<?xml version="1.0" encoding="UTF-8"?>
<svg id="Layer_2" data-name="Layer 2" xmlns="http://www.w3.org/2000/svg" viewBox="0 0 4094.09 3238.29">
  <defs>
    <style>
      .cls-1 {
        fill: #9fe870;
      }

      .cls-2 {
        fill: #c5f1a9;
      }
    </style>
  </defs>
  <g id="Layer_1-2" data-name="Layer 1">
    <g id="OBJECT">
      <g>
        <g>
          <g>
            <circle class="cls-1" cx="2110.79" cy="1534.36" r="144.26" transform="translate(-466.72 1941.96) rotate(-45)"/>
            <path class="cls-1" d="M2313.64,2047.46h-402.53c-54.34,0-98.39-44.05-98.39-98.39v-116.82c0-54.34,44.05-98.39,98.39-98.39h402.53c54.34,0,98.39,44.05,98.39,98.39v116.82c0,54.34-44.05,98.39-98.39,98.39Z"/>
          </g>
          <path class="cls-1" d="M2112.37,2319.32c-81.06,0-159.71-15.88-233.76-47.2-71.51-30.25-135.74-73.55-190.88-128.69-55.15-55.15-98.44-119.37-128.69-190.88-31.32-74.05-47.2-152.7-47.2-233.77s15.88-159.71,47.2-233.77c30.25-71.52,73.55-135.74,128.69-190.88s119.37-98.44,190.88-128.69c74.05-31.32,152.7-47.2,233.76-47.2s159.71,15.88,233.77,47.2c71.51,30.25,135.74,73.55,190.88,128.69,55.15,55.15,98.45,119.37,128.69,190.88,31.32,74.05,47.2,152.7,47.2,233.76s-15.88,159.71-47.2,233.77c-30.25,71.51-73.55,135.74-128.69,190.88-55.15,55.15-119.37,98.45-190.88,128.69-74.05,31.32-152.7,47.2-233.77,47.2ZM2112.37,1160.99c-307.56,0-557.79,250.22-557.79,557.79s250.22,557.79,557.79,557.79,557.79-250.22,557.79-557.79c0-307.56-250.22-557.79-557.79-557.79Z"/>
          <g>
            <circle class="cls-1" cx="3283.88" cy="713.63" r="70"/>
            <path class="cls-1" d="M3382.29,962.6h-195.32c-26.37,0-47.74-21.38-47.74-47.74v-56.69c0-26.37,21.38-47.74,47.74-47.74h195.32c26.37,0,47.74,21.38,47.74,47.74v56.69c0,26.37-21.38,47.74-47.74,47.74Z"/>
          </g>
          <path class="cls-1" d="M3284.63,1099.82c-79.25,0-153.76-30.86-209.8-86.9s-86.9-130.55-86.9-209.8,30.86-153.76,86.9-209.8,130.55-86.9,209.8-86.9,153.76,30.86,209.8,86.9,86.9,130.55,86.9,209.8-30.86,153.76-86.9,209.8-130.55,86.9-209.8,86.9ZM3284.63,537.77c-146.31,0-265.35,119.04-265.35,265.35s119.04,265.35,265.35,265.35,265.35-119.04,265.35-265.35-119.04-265.35-265.35-265.35Z"/>
          <g>
            <circle class="cls-1" cx="3796.64" cy="2698.65" r="70"/>
            <path class="cls-1" d="M3895.05,2947.62h-195.32c-26.37,0-47.74-21.38-47.74-47.74v-56.69c0-26.37,21.38-47.74,47.74-47.74h195.32c26.37,0,47.74,21.38,47.74,47.74v56.69c0,26.37-21.38,47.74-47.74,47.74Z"/>
          </g>
          <path class="cls-1" d="M3797.39,3084.84c-79.25,0-153.76-30.86-209.8-86.9-56.04-56.04-86.9-130.55-86.9-209.8s30.86-153.76,86.9-209.8c56.04-56.04,130.55-86.9,209.8-86.9s153.76,30.86,209.8,86.9,86.9,130.55,86.9,209.8-30.86,153.76-86.9,209.8-130.55,86.9-209.8,86.9ZM3797.39,2522.78c-146.31,0-265.35,119.04-265.35,265.35s119.04,265.35,265.35,265.35,265.35-119.04,265.35-265.35-119.04-265.35-265.35-265.35Z"/>
          <g>
            <circle class="cls-1" cx="1757.13" cy="2851.84" r="70"/>
            <path class="cls-1" d="M1855.5,3101.07h-195.32c-26.37,0-47.74-21.38-47.74-47.74v-56.69c0-26.37,21.38-47.74,47.74-47.74h195.32c26.37,0,47.74,21.38,47.74,47.74v56.69c0,26.37-21.38,47.74-47.74,47.74Z"/>
          </g>
          <path class="cls-1" d="M1757.84,3238.29c-79.25,0-153.76-30.86-209.8-86.9-56.04-56.04-86.9-130.55-86.9-209.8s30.86-153.76,86.9-209.8c56.04-56.04,130.55-86.9,209.8-86.9s153.76,30.86,209.8,86.9c56.04,56.04,86.9,130.55,86.9,209.8s-30.86,153.76-86.9,209.8c-56.04,56.04-130.55,86.9-209.8,86.9ZM1757.84,2676.23c-146.31,0-265.35,119.04-265.35,265.35s119.04,265.35,265.35,265.35,265.35-119.04,265.35-265.35c0-146.32-119.04-265.35-265.35-265.35Z"/>
          <g>
            <circle class="cls-1" cx="295.83" cy="2417.31" r="70" transform="translate(-446.12 97.74) rotate(-10.76)"/>
            <path class="cls-1" d="M394.37,2666.28h-195.32c-26.37,0-47.74-21.38-47.74-47.74v-56.69c0-26.37,21.38-47.74,47.74-47.74h195.32c26.37,0,47.74,21.38,47.74,47.74v56.69c0,26.37-21.38,47.74-47.74,47.74Z"/>
          </g>
          <path class="cls-1" d="M296.71,2803.5c-79.25,0-153.76-30.86-209.8-86.9C30.86,2660.55,0,2586.04,0,2506.79s30.86-153.76,86.9-209.8c56.04-56.04,130.55-86.9,209.8-86.9s153.76,30.86,209.8,86.9c56.04,56.04,86.9,130.55,86.9,209.8s-30.86,153.76-86.9,209.8c-56.04,56.04-130.55,86.9-209.8,86.9ZM296.71,2241.44c-146.32,0-265.35,119.04-265.35,265.35s119.04,265.35,265.35,265.35,265.35-119.04,265.35-265.35c0-146.32-119.04-265.35-265.35-265.35Z"/>
          <g>
            <circle class="cls-1" cx="1337.67" cy="188.23" r="63.07" transform="translate(-12.88 216.72) rotate(-9.22)"/>
            <path class="cls-1" d="M1426.3,412.58h-175.98c-23.76,0-43.02-19.26-43.02-43.02v-51.07c0-23.76,19.26-43.02,43.02-43.02h175.98c23.76,0,43.02,19.26,43.02,43.02v51.07c0,23.76-19.26,43.02-43.02,43.02Z"/>
          </g>
          <path class="cls-1" d="M1338.31,537.77c-71.82,0-139.34-27.97-190.13-78.75-50.79-50.79-78.75-118.31-78.75-190.13s27.97-139.34,78.75-190.13C1198.97,27.97,1266.49,0,1338.31,0s139.34,27.97,190.13,78.75c50.79,50.79,78.75,118.31,78.75,190.13s-27.97,139.34-78.75,190.13c-50.79,50.78-118.31,78.75-190.13,78.75ZM1338.31,31.35c-130.97,0-237.53,106.56-237.53,237.53s106.56,237.53,237.53,237.53,237.53-106.55,237.53-237.53c0-130.97-106.56-237.53-237.53-237.53Z"/>
          <g>
            <circle class="cls-1" cx="497.31" cy="1146.56" r="61.03" transform="translate(-180.78 96.74) rotate(-9.41)"/>
            <path class="cls-1" d="M583.17,1363.65h-170.29c-22.99,0-41.62-18.64-41.62-41.62v-49.42c0-22.99,18.64-41.62,41.62-41.62h170.29c22.99,0,41.62,18.64,41.62,41.62v49.42c0,22.99-18.64,41.62-41.62,41.62Z"/>
          </g>
          <path class="cls-1" d="M498.03,1485.3c-69.63,0-135.09-27.12-184.33-76.35-49.24-49.24-76.35-114.7-76.35-184.33s27.12-135.09,76.35-184.33c49.24-49.24,114.7-76.35,184.33-76.35s135.09,27.12,184.33,76.35c49.24,49.24,76.35,114.7,76.35,184.33s-27.12,135.09-76.35,184.33c-49.24,49.24-114.7,76.35-184.33,76.35ZM498.03,995.28c-126.45,0-229.33,102.88-229.33,229.33s102.88,229.33,229.33,229.33,229.33-102.88,229.33-229.33c0-126.45-102.88-229.33-229.33-229.33Z"/>
          <rect class="cls-1" x="2535.8" y="1186.63" width="625.21" height="31.35" transform="translate(-139.89 1995.44) rotate(-37.75)"/>
          <rect class="cls-1" x="1134.17" y="977.14" width="31.36" height="865.13" transform="translate(-510.1 2154.01) rotate(-74.95)"/>
          <rect class="cls-1" x="1641.32" y="436.54" width="31.35" height="818.12" transform="translate(-191.7 1052.95) rotate(-33.44)"/>
          <rect class="cls-1" x="3073.98" y="1756.1" width="31.35" height="1146.8" transform="translate(-512.59 3742.43) rotate(-58.43)"/>
          <rect class="cls-1" x="1698.46" y="2458.45" width="418.6" height="31.36" transform="translate(-1012.25 3585.16) rotate(-73.2)"/>
          <rect class="cls-1" x="510.73" y="2196.72" width="1135.67" height="31.35" transform="translate(-763.01 579.43) rotate(-22.45)"/>
          <rect class="cls-1" x="2136.53" y="972.7" width="366.06" height="31.36" transform="translate(743.06 2956.09) rotate(-74.38)"/>
          <rect class="cls-1" x="2690.7" y="1655.54" width="642.57" height="31.36" transform="translate(-116.86 230.6) rotate(-4.3)"/>
          <path class="cls-1" d="M2393.75,831.54c-66.66-2.59-118.79-58.92-116.2-125.58,2.59-66.66,58.92-118.79,125.58-116.2,66.66,2.59,118.79,58.92,116.2,125.58-2.59,66.66-58.92,118.79-125.58,116.2ZM2401.92,621.09c-49.38-1.92-91.12,36.7-93.03,86.09-1.92,49.38,36.7,91.12,86.08,93.04,49.39,1.92,91.12-36.7,93.04-86.08s-36.7-91.12-86.08-93.04Z"/>
          <path class="cls-1" d="M3455.32,1783.71c-76.49,0-138.71-62.23-138.71-138.71s62.23-138.71,138.71-138.71,138.71,62.23,138.71,138.71-62.22,138.71-138.71,138.71ZM3455.32,1537.64c-59.2,0-107.36,48.16-107.36,107.36s48.16,107.36,107.36,107.36,107.36-48.16,107.36-107.36-48.16-107.36-107.36-107.36Z"/>
          <rect class="cls-1" x="2438.93" y="2215.11" width="31.36" height="342.66" transform="translate(-928.95 1865.17) rotate(-35.44)"/>
          <path class="cls-1" d="M2619.51,2768.96c-11.15,0-22.38-1.35-33.49-4.1-35.97-8.88-66.33-31.23-85.49-62.95-39.55-65.47-18.46-150.91,47.01-190.45,31.71-19.16,68.99-24.82,104.96-15.94,35.97,8.88,66.33,31.23,85.49,62.95s24.82,68.99,15.94,104.96c-8.88,35.97-31.24,66.33-62.95,85.49h0c-21.92,13.24-46.5,20.04-71.47,20.04ZM2619.06,2522.79c-19.33,0-38.35,5.26-55.32,15.51-50.67,30.61-66.99,96.73-36.38,147.4,14.83,24.55,38.33,41.85,66.17,48.72,27.84,6.87,56.69,2.49,81.24-12.34h0c24.55-14.83,41.85-38.33,48.72-66.17,6.87-27.84,2.49-56.69-12.34-81.24-14.83-24.55-38.32-41.85-66.17-48.72-8.59-2.12-17.29-3.17-25.92-3.17Z"/>
        </g>
        <g>
          <circle class="cls-2" cx="2691.54" cy="2331.2" r="33.26"/>
          <circle class="cls-2" cx="685.61" cy="2080.71" r="33.26"/>
          <circle class="cls-2" cx="1047.23" cy="1665.12" r="63.9"/>
          <circle class="cls-2" cx="3014.69" cy="1881" r="43.2"/>
          <circle class="cls-2" cx="3419.14" cy="2139.48" r="81.54"/>
          <circle class="cls-2" cx="1983.25" cy="533.06" r="56.61"/>
          <circle class="cls-2" cx="1380.05" cy="2528.66" r="42.41"/>
          <circle class="cls-2" cx="1337.63" cy="1116.53" r="30.96"/>
          <circle class="cls-2" cx="2658.19" cy="979.39" r="66.52"/>
        </g>
      </g>
    </g>
  </g>
</svg>