<?xml version="1.0" encoding="UTF-8"?>
<svg id="Layer_2" data-name="Layer 2" xmlns="http://www.w3.org/2000/svg" viewBox="0 0 2066.17 1045.53">
  <defs>
    <style>
      .cls-1, .cls-2, .cls-3 {
        opacity: .6;
      }

      .cls-2, .cls-4 {
        fill: #9fe870;
      }

      .cls-5, .cls-3 {
        fill: #fff;
      }

      .cls-6 {
        fill: #5cbf68;
      }

      .cls-7 {
        fill: #455c33;
      }

      .cls-8 {
        fill: #163300;
      }

      .cls-9 {
        opacity: .2;
      }
    </style>
  </defs>
  <g id="rost">
    <path class="cls-8" d="M1851.61,981.63H632.51c-.13,0-.26-.05-.35-.15l-54.34-54.34c-.09-.09-.15-.22-.15-.35v-229.14l-82.95-82.95H228.34c-.13,0-.26-.05-.35-.14l-18.49-18.25c-.14-.14-.19-.36-.11-.54.08-.19.26-.31.46-.31l287.69.07,77.45-77.45V167.5c0-.13.05-.26.15-.35l61.19-61.19c.09-.09.22-.15.35-.15h1179.37c.13,0,.26.05.35.15l68.22,68.22c.09.09.15.22.15.35v563.09c0,.28-.22.5-.5.5s-.5-.22-.5-.5V174.74l-67.92-67.92H636.88l-60.89,60.89v350.56c0,.13-.05.26-.15.35l-77.74,77.74c-.09.09-.22.15-.35.15h0l-286.68-.07,17.48,17.25h266.37c.13,0,.26.05.35.15l83.25,83.24c.09.09.15.22.15.35v229.14l54.05,54.05h1218.69l32.36-32.35v-178.5c0-.28.22-.5.5-.5s.5.22.5.5v178.71c0,.13-.05.26-.15.35l-32.65,32.65c-.09.09-.22.15-.35.15Z"/>
    <polygon class="cls-2" points="575.56 595.01 515.84 595.01 575.56 535.29 575.56 595.01"/>
    <polygon class="cls-3" points="0 532.9 0 467.04 65.87 532.9 0 532.9"/>
    <g>
      <path class="cls-5" d="M89.53,533.3c-.13,0-.26-.05-.35-.15L1.84,445.81c-.09-.09-.15-.22-.15-.35V111.03c0-.13.05-.26.15-.35L70.68,41.83c.2-.2.51-.2.71,0s.2.51,0,.71L2.69,111.24v334.01l87.2,87.2c.2.2.2.51,0,.71-.1.1-.23.15-.35.15Z"/>
      <path class="cls-5" d="M68.75,35.4c0,4.88,3.96,8.84,8.84,8.84s8.84-3.96,8.84-8.84-3.96-8.84-8.84-8.84-8.84,3.96-8.84,8.84Z"/>
    </g>
    <path class="cls-7" d="M281.54,510.58c-119.27,0-216.3-97.04-216.3-216.33s97.03-216.24,216.3-216.24,216.2,97,216.2,216.24-96.99,216.33-216.2,216.33ZM281.54,83.41c-116.29,0-210.9,94.58-210.9,210.84s94.61,210.92,210.9,210.92,210.8-94.62,210.8-210.92-94.57-210.84-210.8-210.84Z"/>
    <g>
      <path class="cls-4" d="M384.92,1045.53h-30.34c-.55,0-1-.45-1-1v-200.27c0-.55.45-1,1-1h30.34c.55,0,1,.45,1,1s-.45,1-1,1h-29.34v198.27h29.34c.55,0,1,.45,1,1s-.45,1-1,1Z"/>
      <path class="cls-4" d="M2065.17,1045.53h-30.35c-.55,0-1-.45-1-1s.45-1,1-1h29.35v-198.27h-29.35c-.55,0-1-.45-1-1s.45-1,1-1h30.35c.55,0,1,.45,1,1v200.27c0,.55-.45,1-1,1Z"/>
      <g>
        <path class="cls-4" d="M380.16,866.6c-.55,0-1-.45-1-1v-10.23c0-.55.45-1,1-1s1,.45,1,1v10.23c0,.55-.45,1-1,1Z"/>
        <path class="cls-4" d="M385.28,861.48h-10.23c-.55,0-1-.45-1-1s.45-1,1-1h10.23c.55,0,1,.45,1,1s-.45,1-1,1Z"/>
      </g>
      <g>
        <path class="cls-4" d="M380.16,1032.41c-.55,0-1-.45-1-1v-10.23c0-.55.45-1,1-1s1,.45,1,1v10.23c0,.55-.45,1-1,1Z"/>
        <path class="cls-4" d="M385.28,1027.3h-10.23c-.55,0-1-.45-1-1s.45-1,1-1h10.23c.55,0,1,.45,1,1s-.45,1-1,1Z"/>
      </g>
      <g>
        <path class="cls-4" d="M2039.71,866.6c-.55,0-1-.45-1-1v-10.23c0-.55.45-1,1-1s1,.45,1,1v10.23c0,.55-.45,1-1,1Z"/>
        <path class="cls-4" d="M2044.83,861.48h-10.23c-.55,0-1-.45-1-1s.45-1,1-1h10.23c.55,0,1,.45,1,1s-.45,1-1,1Z"/>
      </g>
      <g>
        <path class="cls-4" d="M2039.71,1032.41c-.55,0-1-.45-1-1v-10.23c0-.55.45-1,1-1s1,.45,1,1v10.23c0,.55-.45,1-1,1Z"/>
        <path class="cls-4" d="M2044.83,1027.3h-10.23c-.55,0-1-.45-1-1s.45-1,1-1h10.23c.55,0,1,.45,1,1s-.45,1-1,1Z"/>
      </g>
      <path class="cls-6" d="M443.43,852.4c-4.49,0-8.14-3.65-8.14-8.14s3.65-8.14,8.14-8.14,8.14,3.65,8.14,8.14-3.65,8.14-8.14,8.14ZM443.43,838.12c-3.39,0-6.14,2.75-6.14,6.14s2.75,6.14,6.14,6.14,6.14-2.75,6.14-6.14-2.75-6.14-6.14-6.14Z"/>
      <path class="cls-7" d="M1998.63,845.26H450.57c-.55,0-1-.45-1-1s.45-1,1-1h1548.07c.55,0,1,.45,1,1s-.45,1-1,1Z"/>
      <path class="cls-6" d="M2002.8,844.26c0-2.3-1.86-4.17-4.16-4.17s-4.16,1.86-4.16,4.17,1.86,4.16,4.16,4.16,4.16-1.86,4.16-4.16Z"/>
      <path class="cls-8" d="M2002.8,1027.3H406.31c-.55,0-1-.45-1-1v-115.11c0-.27.11-.52.29-.71l43.24-43.24c.19-.19.44-.29.71-.29h1553.25c.55,0,1,.45,1,1s-.45,1-1,1H449.96l-42.65,42.65v113.7h1595.49c.55,0,1,.45,1,1s-.45,1-1,1Z"/>
      <path class="cls-5" d="M2010.39,876.54c-4.74,0-8.59-3.85-8.59-8.59s3.85-8.59,8.59-8.59,8.59,3.85,8.59,8.59-3.85,8.59-8.59,8.59ZM2010.39,861.36c-3.63,0-6.59,2.96-6.59,6.59s2.96,6.59,6.59,6.59,6.59-2.96,6.59-6.59-2.96-6.59-6.59-6.59Z"/>
      <g class="cls-1">
        <polygon class="cls-4" points="428.71 916.64 422.81 916.64 419.53 919.92 419.53 925.82 428.71 916.64"/>
        <polygon class="cls-4" points="443.43 921.44 443.43 916.64 442.33 916.64 419.53 939.44 419.53 945.33 443.43 921.44"/>
        <polygon class="cls-4" points="443.43 940.96 443.43 935.07 419.53 958.96 419.53 964.86 443.43 940.96"/>
        <polygon class="cls-4" points="443.43 960.48 443.43 954.59 419.53 978.48 419.53 984.37 443.43 960.48"/>
        <polygon class="cls-4" points="443.43 980 443.43 974.1 420.96 996.57 426.85 996.57 443.43 980"/>
        <polygon class="cls-4" points="443.43 993.62 440.48 996.57 443.43 996.57 443.43 993.62"/>
      </g>
    </g>
    <g>
      <g>
        <g class="cls-9">
          <path class="cls-4" d="M771.29,163.52c-12.32,0-22.3,9.99-22.3,22.3v726.29c0,12.32,9.99,22.3,22.3,22.3s22.3-9.99,22.3-22.3V185.82c0-12.32-9.99-22.3-22.3-22.3Z"/>
          <path class="cls-4" d="M862,163.52c-12.32,0-22.3,9.99-22.3,22.3v726.29c0,12.32,9.99,22.3,22.3,22.3s22.3-9.99,22.3-22.3V185.82c0-12.32-9.99-22.3-22.3-22.3Z"/>
          <path class="cls-4" d="M952.71,163.52c-12.32,0-22.31,9.99-22.31,22.3v726.29c0,12.32,9.99,22.3,22.31,22.3s22.3-9.99,22.3-22.3V185.82c0-12.32-9.99-22.3-22.3-22.3Z"/>
          <path class="cls-4" d="M1043.42,163.52c-12.32,0-22.3,9.99-22.3,22.3v726.29c0,12.32,9.99,22.3,22.3,22.3s22.31-9.99,22.31-22.3V185.82c0-12.32-9.99-22.3-22.31-22.3Z"/>
          <path class="cls-4" d="M1134.13,163.52c-12.32,0-22.3,9.99-22.3,22.3v726.29c0,12.32,9.99,22.3,22.3,22.3s22.31-9.99,22.31-22.3V185.82c0-12.32-9.99-22.3-22.31-22.3Z"/>
          <path class="cls-4" d="M1224.85,163.52c-12.32,0-22.31,9.99-22.31,22.3v726.29c0,12.32,9.99,22.3,22.31,22.3s22.3-9.99,22.3-22.3V185.82c0-12.32-9.99-22.3-22.3-22.3Z"/>
          <path class="cls-4" d="M1315.56,163.52c-12.32,0-22.31,9.99-22.31,22.3v726.29c0,12.32,9.98,22.3,22.31,22.3s22.3-9.99,22.3-22.3V185.82c0-12.32-9.99-22.3-22.3-22.3Z"/>
          <path class="cls-4" d="M1406.26,163.52c-12.32,0-22.3,9.99-22.3,22.3v726.29c0,12.32,9.99,22.3,22.3,22.3s22.31-9.99,22.31-22.3V185.82c0-12.32-9.99-22.3-22.31-22.3Z"/>
          <path class="cls-4" d="M1496.98,163.52c-12.32,0-22.31,9.99-22.31,22.3v726.29c0,12.32,9.99,22.3,22.31,22.3s22.3-9.99,22.3-22.3V185.82c0-12.32-9.99-22.3-22.3-22.3Z"/>
          <path class="cls-4" d="M1587.69,163.52c-12.32,0-22.31,9.99-22.31,22.3v726.29c0,12.32,9.99,22.3,22.31,22.3s22.3-9.99,22.3-22.3V185.82c0-12.32-9.99-22.3-22.3-22.3Z"/>
          <path class="cls-4" d="M1678.4,163.52c-12.32,0-22.3,9.99-22.3,22.3v726.29c0,12.32,9.98,22.3,22.3,22.3s22.31-9.99,22.31-22.3V185.82c0-12.32-9.99-22.3-22.31-22.3Z"/>
          <path class="cls-4" d="M1769.11,163.52c-12.32,0-22.3,9.99-22.3,22.3v726.29c0,12.32,9.99,22.3,22.3,22.3s22.31-9.99,22.31-22.3V185.82c0-12.32-9.99-22.3-22.31-22.3Z"/>
        </g>
        <g>
          <path class="cls-4" d="M771.29,843.3c-12.32,0-22.3,9.98-22.3,22.31v46.51c0,12.32,9.99,22.3,22.3,22.3s22.3-9.99,22.3-22.3v-46.51c0-12.32-9.99-22.31-22.3-22.31Z"/>
          <path class="cls-4" d="M862,793.3c-12.32,0-22.3,9.98-22.3,22.31v96.51c0,12.32,9.99,22.3,22.3,22.3s22.3-9.99,22.3-22.3v-96.51c0-12.32-9.99-22.31-22.3-22.31Z"/>
          <path class="cls-4" d="M952.71,740.73c-12.32,0-22.31,9.99-22.31,22.3v149.08c0,12.32,9.99,22.3,22.31,22.3s22.3-9.99,22.3-22.3v-149.08c0-12.32-9.99-22.3-22.3-22.3Z"/>
          <path class="cls-4" d="M1043.42,694.11c-12.32,0-22.3,9.99-22.3,22.31v195.69c0,12.32,9.99,22.3,22.3,22.3s22.31-9.99,22.31-22.3v-195.69c0-12.32-9.99-22.31-22.31-22.31Z"/>
          <path class="cls-4" d="M1134.13,646.07c-12.32,0-22.3,9.99-22.3,22.31v243.73c0,12.32,9.99,22.3,22.3,22.3s22.31-9.99,22.31-22.3v-243.73c0-12.32-9.99-22.31-22.31-22.31Z"/>
          <path class="cls-4" d="M1224.85,598.86c-12.32,0-22.31,9.99-22.31,22.3v290.95c0,12.32,9.99,22.3,22.31,22.3s22.3-9.99,22.3-22.3v-290.95c0-12.32-9.99-22.3-22.3-22.3Z"/>
          <path class="cls-4" d="M1315.56,558.15c-12.32,0-22.31,9.99-22.31,22.31v331.65c0,12.32,9.98,22.3,22.31,22.3s22.3-9.99,22.3-22.3v-331.65c0-12.32-9.99-22.31-22.3-22.31Z"/>
          <path class="cls-4" d="M1406.26,524.86c-12.32,0-22.3,9.99-22.3,22.3v364.95c0,12.32,9.99,22.3,22.3,22.3s22.31-9.99,22.31-22.3v-364.95c0-12.32-9.99-22.3-22.31-22.3Z"/>
          <path class="cls-4" d="M1496.98,472.46c-12.32,0-22.31,9.99-22.31,22.31v417.34c0,12.32,9.99,22.3,22.31,22.3s22.3-9.99,22.3-22.3v-417.34c0-12.32-9.99-22.31-22.3-22.31Z"/>
          <path class="cls-4" d="M1587.69,429.41c-12.32,0-22.31,9.99-22.31,22.31v460.4c0,12.32,9.99,22.3,22.31,22.3s22.3-9.99,22.3-22.3v-460.4c0-12.32-9.99-22.31-22.3-22.31Z"/>
          <path class="cls-4" d="M1678.4,385.66c-12.32,0-22.3,9.99-22.3,22.31v504.15c0,12.32,9.98,22.3,22.3,22.3s22.31-9.99,22.31-22.3v-504.15c0-12.32-9.99-22.31-22.31-22.31Z"/>
          <path class="cls-4" d="M1769.11,330.8c-12.32,0-22.3,9.98-22.3,22.31v559.01c0,12.32,9.99,22.3,22.3,22.3s22.31-9.99,22.31-22.3V353.1c0-12.32-9.99-22.31-22.31-22.31Z"/>
        </g>
        <path class="cls-4" d="M1837.16,313.08h-5.44c-.67,0-1.22-.55-1.22-1.22s.55-1.22,1.22-1.22h5.44c.67,0,1.22.55,1.22,1.22s-.54,1.22-1.22,1.22ZM1826.29,313.08h-5.44c-.67,0-1.22-.55-1.22-1.22s.54-1.22,1.22-1.22h5.44c.67,0,1.22.55,1.22,1.22s-.54,1.22-1.22,1.22ZM1815.41,313.08h-5.44c-.67,0-1.22-.55-1.22-1.22s.54-1.22,1.22-1.22h5.44c.67,0,1.22.55,1.22,1.22s-.55,1.22-1.22,1.22ZM1804.54,313.08h-5.44c-.67,0-1.22-.55-1.22-1.22s.54-1.22,1.22-1.22h5.44c.67,0,1.22.55,1.22,1.22s-.54,1.22-1.22,1.22ZM1793.67,313.08h-5.44c-.67,0-1.22-.55-1.22-1.22s.54-1.22,1.22-1.22h5.44c.67,0,1.22.55,1.22,1.22s-.54,1.22-1.22,1.22ZM1782.8,313.08h-5.44c-.67,0-1.22-.55-1.22-1.22s.54-1.22,1.22-1.22h5.44c.67,0,1.22.55,1.22,1.22s-.54,1.22-1.22,1.22ZM1771.92,313.08h-5.44c-.67,0-1.22-.55-1.22-1.22s.55-1.22,1.22-1.22h5.44c.67,0,1.22.55,1.22,1.22s-.55,1.22-1.22,1.22ZM1761.05,313.08h-5.44c-.67,0-1.22-.55-1.22-1.22s.54-1.22,1.22-1.22h5.44c.67,0,1.22.55,1.22,1.22s-.55,1.22-1.22,1.22ZM1750.18,313.08h-5.44c-.67,0-1.22-.55-1.22-1.22s.54-1.22,1.22-1.22h5.44c.67,0,1.22.55,1.22,1.22s-.54,1.22-1.22,1.22ZM1739.31,313.08h-5.44c-.67,0-1.22-.55-1.22-1.22s.54-1.22,1.22-1.22h5.44c.67,0,1.22.55,1.22,1.22s-.54,1.22-1.22,1.22ZM1728.43,313.08h-5.44c-.67,0-1.22-.55-1.22-1.22s.54-1.22,1.22-1.22h5.44c.67,0,1.22.55,1.22,1.22s-.55,1.22-1.22,1.22ZM1717.56,313.08h-5.44c-.67,0-1.22-.55-1.22-1.22s.54-1.22,1.22-1.22h5.44c.67,0,1.22.55,1.22,1.22s-.54,1.22-1.22,1.22ZM1706.69,313.08h-5.44c-.67,0-1.22-.55-1.22-1.22s.54-1.22,1.22-1.22h5.44c.67,0,1.22.55,1.22,1.22s-.55,1.22-1.22,1.22ZM1695.82,313.08h-5.44c-.67,0-1.22-.55-1.22-1.22s.55-1.22,1.22-1.22h5.44c.67,0,1.22.55,1.22,1.22s-.55,1.22-1.22,1.22ZM1684.94,313.08h-5.44c-.67,0-1.22-.55-1.22-1.22s.54-1.22,1.22-1.22h5.44c.67,0,1.22.55,1.22,1.22s-.54,1.22-1.22,1.22ZM1674.07,313.08h-5.44c-.67,0-1.22-.55-1.22-1.22s.55-1.22,1.22-1.22h5.44c.67,0,1.22.55,1.22,1.22s-.54,1.22-1.22,1.22ZM1663.2,313.08h-5.44c-.67,0-1.22-.55-1.22-1.22s.54-1.22,1.22-1.22h5.44c.67,0,1.22.55,1.22,1.22s-.54,1.22-1.22,1.22ZM1652.32,313.08h-5.44c-.67,0-1.22-.55-1.22-1.22s.55-1.22,1.22-1.22h5.44c.67,0,1.22.55,1.22,1.22s-.54,1.22-1.22,1.22ZM1641.45,313.08h-5.44c-.67,0-1.22-.55-1.22-1.22s.54-1.22,1.22-1.22h5.44c.67,0,1.22.55,1.22,1.22s-.54,1.22-1.22,1.22ZM1630.58,313.08h-5.44c-.67,0-1.22-.55-1.22-1.22s.54-1.22,1.22-1.22h5.44c.67,0,1.22.55,1.22,1.22s-.54,1.22-1.22,1.22ZM1619.71,313.08h-5.44c-.67,0-1.22-.55-1.22-1.22s.55-1.22,1.22-1.22h5.44c.67,0,1.22.55,1.22,1.22s-.54,1.22-1.22,1.22ZM1608.83,313.08h-5.44c-.67,0-1.22-.55-1.22-1.22s.54-1.22,1.22-1.22h5.44c.67,0,1.22.55,1.22,1.22s-.54,1.22-1.22,1.22ZM1597.96,313.08h-5.44c-.67,0-1.22-.55-1.22-1.22s.54-1.22,1.22-1.22h5.44c.67,0,1.22.55,1.22,1.22s-.55,1.22-1.22,1.22ZM1587.09,313.08h-5.44c-.67,0-1.22-.55-1.22-1.22s.54-1.22,1.22-1.22h5.44c.67,0,1.22.55,1.22,1.22s-.54,1.22-1.22,1.22ZM1576.22,313.08h-5.44c-.67,0-1.22-.55-1.22-1.22s.54-1.22,1.22-1.22h5.44c.67,0,1.22.55,1.22,1.22s-.55,1.22-1.22,1.22ZM1565.34,313.08h-5.44c-.67,0-1.22-.55-1.22-1.22s.55-1.22,1.22-1.22h5.44c.67,0,1.22.55,1.22,1.22s-.54,1.22-1.22,1.22ZM1554.47,313.08h-5.44c-.67,0-1.22-.55-1.22-1.22s.54-1.22,1.22-1.22h5.44c.67,0,1.22.55,1.22,1.22s-.54,1.22-1.22,1.22ZM1543.6,313.08h-5.44c-.67,0-1.22-.55-1.22-1.22s.55-1.22,1.22-1.22h5.44c.67,0,1.22.55,1.22,1.22s-.55,1.22-1.22,1.22ZM1532.73,313.08h-5.44c-.67,0-1.22-.55-1.22-1.22s.54-1.22,1.22-1.22h5.44c.67,0,1.22.55,1.22,1.22s-.54,1.22-1.22,1.22ZM1521.85,313.08h-5.44c-.67,0-1.22-.55-1.22-1.22s.55-1.22,1.22-1.22h5.44c.67,0,1.22.55,1.22,1.22s-.55,1.22-1.22,1.22ZM1510.98,313.08h-5.44c-.67,0-1.22-.55-1.22-1.22s.55-1.22,1.22-1.22h5.44c.67,0,1.22.55,1.22,1.22s-.54,1.22-1.22,1.22ZM1500.11,313.08h-5.44c-.67,0-1.22-.55-1.22-1.22s.55-1.22,1.22-1.22h5.44c.67,0,1.22.55,1.22,1.22s-.55,1.22-1.22,1.22ZM1489.24,313.08h-5.44c-.67,0-1.22-.55-1.22-1.22s.54-1.22,1.22-1.22h5.44c.67,0,1.22.55,1.22,1.22s-.55,1.22-1.22,1.22ZM1478.36,313.08h-5.44c-.67,0-1.22-.55-1.22-1.22s.54-1.22,1.22-1.22h5.44c.67,0,1.22.55,1.22,1.22s-.54,1.22-1.22,1.22ZM1467.49,313.08h-5.44c-.67,0-1.22-.55-1.22-1.22s.55-1.22,1.22-1.22h5.44c.67,0,1.22.55,1.22,1.22s-.55,1.22-1.22,1.22ZM1456.62,313.08h-5.44c-.67,0-1.22-.55-1.22-1.22s.55-1.22,1.22-1.22h5.44c.67,0,1.22.55,1.22,1.22s-.55,1.22-1.22,1.22ZM1445.74,313.08h-5.44c-.67,0-1.22-.55-1.22-1.22s.55-1.22,1.22-1.22h5.44c.67,0,1.22.55,1.22,1.22s-.55,1.22-1.22,1.22ZM1434.87,313.08h-5.44c-.67,0-1.22-.55-1.22-1.22s.54-1.22,1.22-1.22h5.44c.67,0,1.22.55,1.22,1.22s-.55,1.22-1.22,1.22ZM1424,313.08h-5.44c-.67,0-1.22-.55-1.22-1.22s.55-1.22,1.22-1.22h5.44c.67,0,1.22.55,1.22,1.22s-.55,1.22-1.22,1.22ZM1413.13,313.08h-5.44c-.67,0-1.22-.55-1.22-1.22s.54-1.22,1.22-1.22h5.44c.67,0,1.22.55,1.22,1.22s-.54,1.22-1.22,1.22ZM1402.25,313.08h-5.44c-.67,0-1.22-.55-1.22-1.22s.55-1.22,1.22-1.22h5.44c.67,0,1.22.55,1.22,1.22s-.55,1.22-1.22,1.22ZM1391.38,313.08h-5.44c-.67,0-1.22-.55-1.22-1.22s.55-1.22,1.22-1.22h5.44c.67,0,1.22.55,1.22,1.22s-.55,1.22-1.22,1.22ZM1380.51,313.08h-5.44c-.67,0-1.22-.55-1.22-1.22s.54-1.22,1.22-1.22h5.44c.67,0,1.22.55,1.22,1.22s-.54,1.22-1.22,1.22ZM1369.64,313.08h-5.44c-.67,0-1.22-.55-1.22-1.22s.55-1.22,1.22-1.22h5.44c.67,0,1.22.55,1.22,1.22s-.54,1.22-1.22,1.22ZM1358.76,313.08h-5.44c-.67,0-1.22-.55-1.22-1.22s.54-1.22,1.22-1.22h5.44c.67,0,1.22.55,1.22,1.22s-.54,1.22-1.22,1.22ZM1347.89,313.08h-5.44c-.67,0-1.22-.55-1.22-1.22s.55-1.22,1.22-1.22h5.44c.67,0,1.22.55,1.22,1.22s-.55,1.22-1.22,1.22ZM1337.02,313.08h-5.44c-.67,0-1.22-.55-1.22-1.22s.54-1.22,1.22-1.22h5.44c.67,0,1.22.55,1.22,1.22s-.54,1.22-1.22,1.22ZM1326.15,313.08h-5.44c-.67,0-1.22-.55-1.22-1.22s.54-1.22,1.22-1.22h5.44c.67,0,1.22.55,1.22,1.22s-.54,1.22-1.22,1.22ZM1315.27,313.08h-5.44c-.67,0-1.22-.55-1.22-1.22s.54-1.22,1.22-1.22h5.44c.67,0,1.22.55,1.22,1.22s-.54,1.22-1.22,1.22ZM1304.4,313.08h-5.44c-.67,0-1.22-.55-1.22-1.22s.54-1.22,1.22-1.22h5.44c.67,0,1.22.55,1.22,1.22s-.54,1.22-1.22,1.22ZM1293.53,313.08h-5.44c-.67,0-1.22-.55-1.22-1.22s.55-1.22,1.22-1.22h5.44c.67,0,1.22.55,1.22,1.22s-.55,1.22-1.22,1.22ZM1282.66,313.08h-5.44c-.67,0-1.22-.55-1.22-1.22s.54-1.22,1.22-1.22h5.44c.67,0,1.22.55,1.22,1.22s-.54,1.22-1.22,1.22ZM1271.78,313.08h-5.44c-.67,0-1.22-.55-1.22-1.22s.54-1.22,1.22-1.22h5.44c.67,0,1.22.55,1.22,1.22s-.55,1.22-1.22,1.22ZM1260.91,313.08h-5.44c-.67,0-1.22-.55-1.22-1.22s.54-1.22,1.22-1.22h5.44c.67,0,1.22.55,1.22,1.22s-.54,1.22-1.22,1.22ZM1250.04,313.08h-5.44c-.67,0-1.22-.55-1.22-1.22s.54-1.22,1.22-1.22h5.44c.67,0,1.22.55,1.22,1.22s-.54,1.22-1.22,1.22ZM1239.16,313.08h-5.44c-.67,0-1.22-.55-1.22-1.22s.55-1.22,1.22-1.22h5.44c.67,0,1.22.55,1.22,1.22s-.55,1.22-1.22,1.22ZM1228.29,313.08h-5.44c-.67,0-1.22-.55-1.22-1.22s.54-1.22,1.22-1.22h5.44c.67,0,1.22.55,1.22,1.22s-.54,1.22-1.22,1.22ZM1217.42,313.08h-5.44c-.67,0-1.22-.55-1.22-1.22s.55-1.22,1.22-1.22h5.44c.67,0,1.22.55,1.22,1.22s-.54,1.22-1.22,1.22ZM1206.55,313.08h-5.44c-.67,0-1.22-.55-1.22-1.22s.54-1.22,1.22-1.22h5.44c.67,0,1.22.55,1.22,1.22s-.54,1.22-1.22,1.22ZM1195.67,313.08h-5.44c-.67,0-1.22-.55-1.22-1.22s.55-1.22,1.22-1.22h5.44c.67,0,1.22.55,1.22,1.22s-.55,1.22-1.22,1.22ZM1184.8,313.08h-5.44c-.67,0-1.22-.55-1.22-1.22s.55-1.22,1.22-1.22h5.44c.67,0,1.22.55,1.22,1.22s-.55,1.22-1.22,1.22ZM1173.93,313.08h-5.44c-.67,0-1.22-.55-1.22-1.22s.54-1.22,1.22-1.22h5.44c.67,0,1.22.55,1.22,1.22s-.54,1.22-1.22,1.22ZM1163.06,313.08h-5.44c-.67,0-1.22-.55-1.22-1.22s.54-1.22,1.22-1.22h5.44c.67,0,1.22.55,1.22,1.22s-.54,1.22-1.22,1.22ZM1152.18,313.08h-5.44c-.67,0-1.22-.55-1.22-1.22s.54-1.22,1.22-1.22h5.44c.67,0,1.22.55,1.22,1.22s-.54,1.22-1.22,1.22ZM1141.31,313.08h-5.44c-.67,0-1.22-.55-1.22-1.22s.54-1.22,1.22-1.22h5.44c.67,0,1.22.55,1.22,1.22s-.54,1.22-1.22,1.22ZM1130.44,313.08h-5.44c-.67,0-1.22-.55-1.22-1.22s.55-1.22,1.22-1.22h5.44c.67,0,1.22.55,1.22,1.22s-.55,1.22-1.22,1.22ZM1119.57,313.08h-5.44c-.67,0-1.22-.55-1.22-1.22s.55-1.22,1.22-1.22h5.44c.67,0,1.22.55,1.22,1.22s-.55,1.22-1.22,1.22ZM1108.69,313.08h-5.44c-.67,0-1.22-.55-1.22-1.22s.54-1.22,1.22-1.22h5.44c.67,0,1.22.55,1.22,1.22s-.54,1.22-1.22,1.22ZM1097.82,313.08h-5.44c-.67,0-1.22-.55-1.22-1.22s.55-1.22,1.22-1.22h5.44c.67,0,1.22.55,1.22,1.22s-.54,1.22-1.22,1.22ZM1086.95,313.08h-5.44c-.67,0-1.22-.55-1.22-1.22s.54-1.22,1.22-1.22h5.44c.67,0,1.22.55,1.22,1.22s-.54,1.22-1.22,1.22ZM1076.08,313.08h-5.44c-.67,0-1.22-.55-1.22-1.22s.55-1.22,1.22-1.22h5.44c.67,0,1.22.55,1.22,1.22s-.55,1.22-1.22,1.22ZM1065.2,313.08h-5.44c-.67,0-1.22-.55-1.22-1.22s.54-1.22,1.22-1.22h5.44c.67,0,1.22.55,1.22,1.22s-.54,1.22-1.22,1.22ZM1054.33,313.08h-5.44c-.67,0-1.22-.55-1.22-1.22s.54-1.22,1.22-1.22h5.44c.67,0,1.22.55,1.22,1.22s-.54,1.22-1.22,1.22ZM1043.46,313.08h-5.44c-.67,0-1.22-.55-1.22-1.22s.55-1.22,1.22-1.22h5.44c.67,0,1.22.55,1.22,1.22s-.55,1.22-1.22,1.22ZM1032.58,313.08h-5.44c-.67,0-1.22-.55-1.22-1.22s.54-1.22,1.22-1.22h5.44c.67,0,1.22.55,1.22,1.22s-.54,1.22-1.22,1.22ZM1021.71,313.08h-5.44c-.67,0-1.22-.55-1.22-1.22s.54-1.22,1.22-1.22h5.44c.67,0,1.22.55,1.22,1.22s-.55,1.22-1.22,1.22ZM1010.84,313.08h-5.44c-.67,0-1.22-.55-1.22-1.22s.54-1.22,1.22-1.22h5.44c.67,0,1.22.55,1.22,1.22s-.54,1.22-1.22,1.22ZM999.97,313.08h-5.44c-.67,0-1.22-.55-1.22-1.22s.54-1.22,1.22-1.22h5.44c.67,0,1.22.55,1.22,1.22s-.54,1.22-1.22,1.22ZM989.09,313.08h-5.44c-.67,0-1.22-.55-1.22-1.22s.55-1.22,1.22-1.22h5.44c.67,0,1.22.55,1.22,1.22s-.54,1.22-1.22,1.22ZM978.22,313.08h-5.44c-.67,0-1.22-.55-1.22-1.22s.54-1.22,1.22-1.22h5.44c.67,0,1.22.55,1.22,1.22s-.54,1.22-1.22,1.22ZM967.35,313.08h-5.44c-.67,0-1.22-.55-1.22-1.22s.55-1.22,1.22-1.22h5.44c.67,0,1.22.55,1.22,1.22s-.55,1.22-1.22,1.22ZM956.48,313.08h-5.44c-.67,0-1.22-.55-1.22-1.22s.54-1.22,1.22-1.22h5.44c.67,0,1.22.55,1.22,1.22s-.54,1.22-1.22,1.22ZM945.6,313.08h-5.44c-.67,0-1.22-.55-1.22-1.22s.55-1.22,1.22-1.22h5.44c.67,0,1.22.55,1.22,1.22s-.54,1.22-1.22,1.22ZM934.73,313.08h-5.44c-.67,0-1.22-.55-1.22-1.22s.55-1.22,1.22-1.22h5.44c.67,0,1.22.55,1.22,1.22s-.54,1.22-1.22,1.22ZM923.86,313.08h-5.44c-.67,0-1.22-.55-1.22-1.22s.54-1.22,1.22-1.22h5.44c.67,0,1.22.55,1.22,1.22s-.54,1.22-1.22,1.22ZM912.99,313.08h-5.44c-.67,0-1.22-.55-1.22-1.22s.54-1.22,1.22-1.22h5.44c.67,0,1.22.55,1.22,1.22s-.55,1.22-1.22,1.22ZM902.11,313.08h-5.44c-.67,0-1.22-.55-1.22-1.22s.54-1.22,1.22-1.22h5.44c.67,0,1.22.55,1.22,1.22s-.54,1.22-1.22,1.22ZM891.24,313.08h-5.44c-.67,0-1.22-.55-1.22-1.22s.55-1.22,1.22-1.22h5.44c.67,0,1.22.55,1.22,1.22s-.55,1.22-1.22,1.22ZM880.37,313.08h-5.44c-.67,0-1.22-.55-1.22-1.22s.54-1.22,1.22-1.22h5.44c.67,0,1.22.55,1.22,1.22s-.55,1.22-1.22,1.22ZM869.5,313.08h-5.44c-.67,0-1.22-.55-1.22-1.22s.54-1.22,1.22-1.22h5.44c.67,0,1.22.55,1.22,1.22s-.54,1.22-1.22,1.22ZM858.62,313.08h-5.44c-.67,0-1.22-.55-1.22-1.22s.54-1.22,1.22-1.22h5.44c.67,0,1.22.55,1.22,1.22s-.55,1.22-1.22,1.22ZM847.75,313.08h-5.44c-.67,0-1.22-.55-1.22-1.22s.54-1.22,1.22-1.22h5.44c.67,0,1.22.55,1.22,1.22s-.54,1.22-1.22,1.22ZM836.88,313.08h-5.44c-.67,0-1.22-.55-1.22-1.22s.54-1.22,1.22-1.22h5.44c.67,0,1.22.55,1.22,1.22s-.54,1.22-1.22,1.22ZM826,313.08h-5.44c-.67,0-1.22-.55-1.22-1.22s.55-1.22,1.22-1.22h5.44c.67,0,1.22.55,1.22,1.22s-.54,1.22-1.22,1.22ZM815.13,313.08h-5.44c-.67,0-1.22-.55-1.22-1.22s.55-1.22,1.22-1.22h5.44c.67,0,1.22.55,1.22,1.22s-.55,1.22-1.22,1.22ZM804.26,313.08h-5.44c-.67,0-1.22-.55-1.22-1.22s.55-1.22,1.22-1.22h5.44c.67,0,1.22.55,1.22,1.22s-.54,1.22-1.22,1.22ZM793.39,313.08h-5.44c-.67,0-1.22-.55-1.22-1.22s.55-1.22,1.22-1.22h5.44c.67,0,1.22.55,1.22,1.22s-.54,1.22-1.22,1.22ZM782.51,313.08h-5.44c-.67,0-1.22-.55-1.22-1.22s.54-1.22,1.22-1.22h5.44c.67,0,1.22.55,1.22,1.22s-.54,1.22-1.22,1.22ZM771.64,313.08h-5.44c-.67,0-1.22-.55-1.22-1.22s.55-1.22,1.22-1.22h5.44c.67,0,1.22.55,1.22,1.22s-.54,1.22-1.22,1.22ZM760.77,313.08h-5.44c-.67,0-1.22-.55-1.22-1.22s.54-1.22,1.22-1.22h5.44c.67,0,1.22.55,1.22,1.22s-.54,1.22-1.22,1.22ZM749.9,313.08h-5.44c-.67,0-1.22-.55-1.22-1.22s.54-1.22,1.22-1.22h5.44c.67,0,1.22.55,1.22,1.22s-.55,1.22-1.22,1.22ZM739.02,313.08h-5.44c-.67,0-1.22-.55-1.22-1.22s.54-1.22,1.22-1.22h5.44c.67,0,1.22.55,1.22,1.22s-.54,1.22-1.22,1.22ZM728.15,313.08h-5.44c-.67,0-1.22-.55-1.22-1.22s.54-1.22,1.22-1.22h5.44c.67,0,1.22.55,1.22,1.22s-.54,1.22-1.22,1.22ZM717.28,313.08h-5.44c-.67,0-1.22-.55-1.22-1.22s.55-1.22,1.22-1.22h5.44c.67,0,1.22.55,1.22,1.22s-.55,1.22-1.22,1.22ZM706.41,313.08h-5.44c-.67,0-1.22-.55-1.22-1.22s.54-1.22,1.22-1.22h5.44c.67,0,1.22.55,1.22,1.22s-.54,1.22-1.22,1.22ZM695.53,313.08h-5.44c-.67,0-1.22-.55-1.22-1.22s.54-1.22,1.22-1.22h5.44c.67,0,1.22.55,1.22,1.22s-.55,1.22-1.22,1.22Z"/>
      </g>
      <g>
        <path class="cls-4" d="M1884.26,770.27c-8.81,0-15.97-7.17-15.97-15.97s7.17-15.97,15.97-15.97,15.97,7.17,15.97,15.97-7.17,15.97-15.97,15.97ZM1884.26,739.32c-8.26,0-14.97,6.72-14.97,14.97s6.72,14.97,14.97,14.97,14.97-6.72,14.97-14.97-6.72-14.97-14.97-14.97Z"/>
        <g>
          <path class="cls-4" d="M547.09,142.09c-.13,0-.26-.05-.35-.15-.2-.2-.2-.51,0-.71l87.34-87.34c.09-.09.22-.15.35-.15h302.92c.2,0,.38.12.46.31.08.19.03.4-.11.54l-29.56,29.56c-.09.09-.22.15-.35.15h-251.04c-.28,0-.5-.22-.5-.5s.22-.5.5-.5h250.83l28.56-28.56h-301.51l-87.2,87.2c-.1.1-.23.15-.35.15Z"/>
          <path class="cls-4" d="M464.67,572.94H118.34c-.28,0-.5-.22-.5-.5s.22-.5.5-.5h346.12l82.28-82.28c.2-.2.51-.2.71,0,.2.2.2.51,0,.71l-82.42,82.43c-.09.09-.22.15-.35.15Z"/>
          <path class="cls-4" d="M102.13,588.74c-8.99,0-16.3-7.31-16.3-16.3s7.31-16.3,16.3-16.3,16.3,7.31,16.3,16.3-7.31,16.3-16.3,16.3ZM102.13,557.14c-8.43,0-15.3,6.86-15.3,15.3s6.86,15.3,15.3,15.3,15.3-6.86,15.3-15.3-6.86-15.3-15.3-15.3Z"/>
          <path class="cls-4" d="M534.88,167.32c-8.99,0-16.3-7.31-16.3-16.3s7.31-16.3,16.3-16.3,16.3,7.31,16.3,16.3-7.31,16.3-16.3,16.3ZM534.88,135.72c-8.43,0-15.3,6.86-15.3,15.3s6.86,15.3,15.3,15.3,15.3-6.86,15.3-15.3-6.86-15.3-15.3-15.3Z"/>
        </g>
      </g>
    </g>
    <path class="cls-8" d="M281.55,550.04c-141.03,0-255.76-114.75-255.76-255.8S140.52,38.55,281.55,38.55s255.65,114.7,255.65,255.69-114.69,255.8-255.65,255.8ZM281.55,39.55c-140.48,0-254.76,114.25-254.76,254.69s114.29,254.8,254.76,254.8,254.65-114.3,254.65-254.8S421.96,39.55,281.55,39.55Z"/>
    <path class="cls-4" d="M19.26,127.56c-.13,0-.25-.05-.35-.14-.2-.19-.2-.51,0-.71L123.06,20.46c.09-.1.22-.15.36-.15h323.79L427.9,1H145.3c-.28,0-.5-.22-.5-.5s.22-.5.5-.5h282.81c.13,0,.26.05.35.15l20.31,20.31c.14.14.19.36.11.54-.08.19-.26.31-.46.31H123.63L19.61,127.41c-.1.1-.23.15-.36.15Z"/>
    <path class="cls-5" d="M1885.92,152.56c-.13,0-.26-.05-.35-.15l-47.92-47.92c-.2-.2-.2-.51,0-.71.2-.2.51-.2.71,0l47.92,47.92c.2.2.2.51,0,.71-.1.1-.23.15-.35.15Z"/>
    <g>
      <path class="cls-4" d="M297.12,187.08c-.73,0-1.43.09-2.16.11-13.8-28.6-43-48.42-76.82-48.42-47.05,0-85.34,38.28-85.34,85.33,0,28.17,13.78,53.12,34.88,68.67-1.74,8.55-2.67,17.39-2.67,26.44,0,72.84,59.26,132.11,132.11,132.11s132.11-59.27,132.11-132.11-59.26-132.12-132.11-132.12ZM297.12,444.95c-69.34,0-125.76-56.41-125.76-125.75,0-7.69.8-15.18,2.13-22.5,2.79,1.73,5.69,3.3,8.69,4.7-1.57,14.39-1.68,33.41,4.14,52.22,10.9,35.24,34.48,49.33,45.8,56.1l2.3,1.38c4.82,2.96,5.32,3.09,6.29,3.09h0c1.38,0,2.63-.91,3.06-2.23.79-2.46-.62-3.47-5.9-7.24-1.43-.97-4.11-3.62-3.74-6.02.64-3.98,1.45-8.95-6.98-10.95-2.21-.53-2.44-.91-3.18-2.19-.67-1.14-1.58-2.7-3.64-4.32-.79-.62-1.69-1.26-2.62-1.9-.87-.62-2.11-1.49-3.01-2.24,4.58-2.04,8.74-5.39,7.6-13.46-.9-6.55-5.66-9.59-9.14-11.82l-1.27-.87c.16-1.78.03-4.02-2.23-7.65-3.28-5.26-3.81-7.47-4.54-10.48-.42-1.66-.44-2.93-.49-8.1l-.08-6.1c-.07-3.45-1.95-5.14-3.34-6.38-1.16-1.05-2.5-2.29-3.42-5.35,3.03.75,6.11,1.34,9.25,1.75-.49,1.97-.11,4.03.18,5.57.31,1.56.61,3.17.38,4.73-.71,4.72,1.03,10.54,2.57,15.68.59,1.98,1.16,3.85,1.49,5.42,1.44,6.79,4.64,8.79,8.66,10.7.66.31,1.19,1.01,2,2.13,1.45,1.99,3.42,4.71,7.81,5.68.6.13,1.2.2,1.79.2,6.04,0,8.59-6.53,10.71-12.03.77-2.01.8-4.52.47-7.04.04.02.07.04.12.06,2.76,1.22,5.6,1.56,7.88,1.83.98.11,2.31.28,2.22.04,1.34,1.98,4.86,7.29,11.63,8.29,3.32.51,4.39,1.88,4.1,5.21-.35,3.68.03,5.22.79,7.84.25.83.53,1.83.85,3.15,1.35,5.75,3.59,9.05,8.45,14.74,1.28,1.5,2.13,2.73,2.78,3.65,1.29,1.83,2.61,3.71,5.17,3.71,1.4,0,2.68-.61,4.16-1.52,5.57-3.39,5.85-8.76,6.12-14.44.13-2.47,2.91-4.86,5.59-7.16,1.68-1.44,3.27-2.81,4.44-4.37,1.84-2.45,7.53-4.11,9.4-2.92q1.95,1.26,2.3,3.98l.18,1.31c.78,5.56,3.6,6.4,5.2,6.4.99,0,2.37-.34,3.78-1.85.12.25.24.54.36.9.48,1.5,1.78,5.51,5.69,5.51,1.28,0,2.43-.47,3.55-.96.42,0,1.48.39,2.7.85,1.17.44,2.62.99,4.51,1.57,1.51.48,2.47.86,3.11,1.11,2.63,1,4.71-.19,5.4-.91.18-.18.43-.46.81-.79,1.06-.88,3.2-2.07,4.94-3.03,3.29-1.82,4.66-2.6,5.33-3.93,1.44-2.71-.47-5.69-5.01-10.94-1.36-1.58-1.36-1.92-.04-5.2.75-1.84,1.36-2.2,4.9-4.09l2.52-1.35c.63-.35,1.28-.67,1.93-1,5.24-2.63,12.4-6.23,11.74-20.15-.02-.51.2-1.4.4-2.24.6-2.45,1.85-7.55-3.38-10.12-2.41-1.19-2.62-5.25-2.62-5.28,0-.3-.06-.6-.15-.89,1.76,1.22,3.25,1.79,4.68,1.79,2.07,0,4.72-1.11,5.51-6.35.4-2.69-.49-3.99-1.51-5.18-.83-.94-2.34-2.71-3.81-10.91q-.31-1.79.6-2.83c.44-.48.94-1.06,1.49-1.79,3.61-4.7-.3-11.47-4.09-18.03-3.52-6.09-8.12-7.39-11.95-7.63-.01-.96.27-2.61.68-3.48,1.05,0,4.21,2.12,6.75,3.82l.88.59c2.7,1.79,3.83,2.31,5.03,2.31s2.44-.73,2.99-1.75c1.14-2.09.23-3.51-3.17-8.77l-1.57-2.44c-3.09-4.83-6.32-6.76-8.93-8.32-1.85-1.1-3.07-1.82-3.96-3.33-3.66-6.27-14.37-9.19-21.22-5.5-1.89,1.01-3.28,2-4.47,2.86-2.45,1.76-3.33,2.22-6.34,1.77-2.9-.42-5.43-.22-7.54-.02-1.59.15-3,.14-3.06,0-.83-1.34-2.66-2.95-6.66-2.95s-9.46,1.68-12.53,3.72c.4-3.34.66-6.73.66-10.18,0-10.8-2.1-21.11-5.78-30.63,69.07.32,125.18,56.59,125.18,125.74s-56.41,125.75-125.76,125.75ZM218.14,145.12c43.56,0,78.98,35.43,78.98,78.98s-35.43,78.99-78.98,78.99-78.98-35.44-78.98-78.99,35.43-78.98,78.98-78.98ZM208.44,356.3l1.32.86c2.97,1.9,5.77,3.71,6.27,7.35.53,3.72-.08,5.28-4.75,7.14-2.94,1.18-3.74,3.02-3.89,4.35-.41,3.52,3.04,5.95,6.69,8.53.83.59,1.65,1.16,2.35,1.71,1.12.87,1.55,1.61,2.09,2.53,1.28,2.19,2.7,4.1,7.21,5.17,1.96.46,2.41.88,2.44.88.13.39-.1,1.82-.39,3.61-.06.34-.08.68-.09,1.01-11.68-7.81-27.09-21.24-35.27-47.7-5.22-16.88-5.32-34.24-4.01-47.76.84.32,1.67.64,2.52.93,1.08,6.88,3.55,9.78,6.08,12.05,1.21,1.09,1.21,1.16,1.23,1.77l.08,6.06c.06,5.33.08,7.12.84,10.2.62,2.59,1.33,5.54,5.16,11.68,1.46,2.31,1.35,3.17,1.27,3.93-.24,2.13.16,3.92,2.87,5.71ZM360.3,259.17c.87,1.8,2.5,2.86,4.49,2.92,2.67.06,5.26.44,7.59,4.49,1.53,2.64,5.58,9.65,4.55,10.99-.46.59-.87,1.05-1.21,1.44-1.84,2.08-2.89,3.66-2.1,8.14,1.63,9.15,3.57,12,5.28,14.02-.01.17-.04.31-.06.44-.36-.23-.82-.56-1.39-1.04-3.95-3.28-7.85-3.05-9.49-.2-1.17,2.02-.85,4.93.91,8.23.24,2.14,1.38,7.63,6.5,10.21.17.38-.2,1.86-.39,2.65-.29,1.24-.64,2.63-.57,4.05.45,9.8-3.4,11.73-8.25,14.18-.73.37-1.46.73-2.14,1.12l-2.44,1.31c-3.85,2.04-6.18,3.27-7.82,7.32-1.33,3.33-2.85,7.11,1.12,11.73,1.75,2.02,2.73,3.31,3.28,4.13-.6.34-1.29.72-1.87,1.05-2.07,1.15-4.42,2.45-5.96,3.73-.16.14-.31.26-.44.39-.68-.26-1.6-.59-2.87-.99-1.76-.55-3.11-1.06-4.19-1.47-3.02-1.14-4.49-2.02-7.85-.58-.08-.21-.18-.49-.29-.83-1.23-3.82-3.62-6.11-6.37-6.11-.64,0-1.67.14-2.82.95l-.06-.46c-.47-3.71-.93-5.78-5.15-8.51-4.84-3.16-14.17-.59-17.94,4.45-.75.99-2.08,2.14-3.49,3.35-3.36,2.88-7.54,6.47-7.8,11.66-.29,5.81-.59,7.82-3.09,9.34-.13.08-.26.16-.37.22-.15-.21-.31-.43-.46-.64-.74-1.06-1.71-2.44-3.16-4.12-4.77-5.62-6.1-7.87-7.09-12.07-.35-1.47-.66-2.56-.93-3.48-.59-2.06-.81-2.82-.56-5.48.6-6.66-2.85-11.06-9.48-12.07-3.99-.59-6.22-3.93-7.32-5.59-1.39-2.12-3.98-2.44-6.73-2.76-1.95-.24-4.16-.5-6.03-1.33-3.06-1.37-5.68-4.99-6.43-6.27-.6-1-1.66-1.56-2.75-1.56-.49,0-.99.11-1.46.36-1.5.77-2.13,2.58-1.44,4.12,1.81,4,3.99,11.18,2.87,14.09-1.19,3.07-2.98,7.68-5.07,7.68h-.04c-2.05-.45-2.84-1.55-4.05-3.22-1.07-1.46-2.26-3.12-4.42-4.14-2.85-1.34-4.27-2.02-5.17-6.26-.36-1.73-.97-3.77-1.62-5.93-1.28-4.28-2.87-9.6-2.37-12.91.4-2.65-.06-5-.42-6.89-.19-.95-.47-2.39-.32-2.76,0,0,.15-.19.8-.45.34-.14.54-.38.86-.53,1.11.04,2.19.17,3.29.17,40.44,0,74.34-28.32,83.08-66.15.51-.52,1.15-.97,1.99-1.54.85-.58,1.75-1.19,2.64-1.97,1.29-1.1,6.16-2.88,9.5-2.88.87,0,1.32.14,1.32.04,1.95,3.07,5.14,3.07,6.21,3.07.84,0,1.78-.09,2.8-.19,1.69-.16,3.67-.37,5.99-.02,6,.88,8.29-.96,11-2.9,1-.73,2.16-1.56,3.74-2.42,3.94-2.07,10.75-.3,12.75,3.11,1.72,2.93,3.99,4.28,6.19,5.59,1.62.96,3.19,1.89,4.75,3.56-3.24-1.39-6.35-.89-8.16,1.58-2,2.72-3.2,7.64-1.64,10.83Z"/>
      <path class="cls-4" d="M395.31,368.65c-.65-4.48-4.76-7.6-9.98-7.6s-10.4,3.31-13.47,8.88c-2.79,5.03-3.03,7.66-3.21,9.58-.15,1.61-.23,2.5-4.35,6.4-3.86,3.65-5.4,5.42-6.81,7.01-1.76,2.01-3.29,3.73-9.6,9.23-4.77,4.16-7.91,8.09-10.69,11.58-3.86,4.84-6.64,8.32-12,10.27-1.51.54-2.38,2.14-2.02,3.72.34,1.45,1.63,2.45,3.1,2.45.12,0,.25-.01.36-.03.84-.08,20.71-2.6,43.35-21.29,23.05-19.04,27.14-24.35,27.68-30.63.3-3.26-.2-4.69-1.29-6.32-.4-.59-.78-1.16-1.07-3.24ZM340.9,419.29c.42-.53.84-1.05,1.26-1.59,2.61-3.26,5.56-6.97,9.91-10.75,6.61-5.78,8.27-7.65,10.18-9.82,1.32-1.5,2.78-3.16,6.41-6.61,5.27-4.99,6-7.09,6.31-10.41.14-1.51.3-3.23,2.44-7.1,1.94-3.51,4.89-5.61,7.91-5.61,1.96,0,3.51.91,3.69,2.16.47,3.24,1.29,4.66,2.08,5.86.3.44.39.59.25,2.22-.36,3.97-4.11,8.7-25.41,26.3-9.25,7.64-18.06,12.41-25.04,15.35Z"/>
      <path class="cls-4" d="M403.45,271.09c-3.45-3.61-7.36-5.16-11.07-4.37-4.97,1.07-4.58,6.67-4.16,12.6.15,2.15.32,4.56.32,7.09,0,1.6-.38,3.39-.79,5.28-.92,4.31-1.95,9.2,1.17,13.77,4.47,6.59,5.41,13.95,2.67,22.21-1.04,3.2-.09,6.41.76,9.26.73,2.46,1.43,4.79.63,6.33-1.48,2.84-1.48,5.41-.84,7.49-.52,1.11-.38,2.47.47,3.44,3.98,4.61,3.98,7.34,4,7.34-.27,1.57.67,3.11,2.2,3.58.3.09.61.13.92.13.55,0,1.09-.13,1.58-.4,1.19-.66,2.14-1.19,5.85-14.96,11.59-43.01,5.69-68.9-3.7-78.79ZM400.08,351.63c-.2-.44-.5-.85-.9-1.17-.2-.17-1.93-1.66-.57-4.26,2-3.82.8-7.85-.18-11.08-.63-2.14-1.24-4.17-.71-5.77,4.1-12.35.33-21.75-3.55-27.47-1.49-2.17-1.07-4.8-.21-8.86.45-2.13.92-4.32.93-6.59,0-2.68-.17-5.26-.34-7.55-.14-2.04-.33-4.73-.15-6,1.31.07,2.91.98,4.43,2.59,7.83,8.24,13.1,32.25,2.18,72.77-.34,1.26-.65,2.38-.93,3.39Z"/>
      <path class="cls-4" d="M216.91,288.59c.41.12.82.19,1.26.14l.29-3.16-.26,3.16c.08,0,.16.01.24.01.33,0,.65-.06.96-.16,21.46-2.33,36.45-12.34,42.25-28.24,5.93-16.31.59-36.28-13.61-50.9-26.25-26.97-26.55-46.61-26.55-46.78,0-.85-.5-1.68-1.09-2.28-1.18-1.2-3.48-1.2-4.67,0-.59.6-.94,1.42-.94,2.25,0,.2-.29,19.84-26.53,46.81-14.21,14.62-19.56,34.6-13.61,50.9,5.79,15.89,20.79,25.9,42.26,28.23ZM192.82,213.89c14.91-15.34,21.97-28.52,25.32-37.68,3.35,9.16,10.42,22.34,25.34,37.68,12.52,12.87,17.32,30.25,12.2,44.28-4.96,13.63-18.29,22.21-37.53,24.16-19.24-1.95-32.57-10.53-37.54-24.15-5.11-14.03-.32-31.42,12.2-44.29Z"/>
      <path class="cls-4" d="M194.94,263.59c4.27,4.52,10.66,10,19.77,10,2.03,0,4.21-.27,6.51-.89,1.7-.45,2.7-2.19,2.25-3.88-.46-1.71-2.22-2.72-3.88-2.25-9.31,2.51-15.58-2.62-20.02-7.33-10.89-11.53-2.88-26.27-2.53-26.89.85-1.53.3-3.47-1.21-4.32-1.52-.86-3.46-.32-4.32,1.2-3.76,6.66-7.87,22.4,3.44,34.37Z"/>
    </g>
  </g>
</svg>