<?xml version="1.0" encoding="UTF-8"?>
<svg xmlns="http://www.w3.org/2000/svg" xmlns:xlink="http://www.w3.org/1999/xlink" viewBox="0 0 1027.9 1027.9">
  <defs>
    <style>
      .cls-1 {
        fill: url(#linear-gradient-2);
      }

      .cls-2 {
        fill: url(#linear-gradient-4);
      }

      .cls-3 {
        fill: url(#linear-gradient-3);
      }

      .cls-4 {
        fill: url(#linear-gradient-5);
      }

      .cls-5 {
        fill: #9fe870;
      }

      .cls-6 {
        isolation: isolate;
      }

      .cls-7 {
        fill: #d9f6c6;
        mix-blend-mode: overlay;
        opacity: .37;
      }

      .cls-8 {
        fill: #33cfff;
      }

      .cls-9 {
        fill: url(#linear-gradient);
      }
    </style>
    <linearGradient id="linear-gradient" x1="513.95" y1="21.94" x2="513.95" y2="1092.72" gradientUnits="userSpaceOnUse">
      <stop offset="0" stop-color="#9fe870"/>
      <stop offset="1" stop-color="#163300"/>
    </linearGradient>
    <linearGradient id="linear-gradient-2" x1="513.95" y1="143.84" x2="513.95" y2="1566.39" gradientUnits="userSpaceOnUse">
      <stop offset="0" stop-color="#9fe870"/>
      <stop offset="1" stop-color="#163300"/>
    </linearGradient>
    <linearGradient id="linear-gradient-3" x1="513.95" y1="544.89" x2="513.95" y2="-215.82" gradientTransform="translate(513.95 -212.88) rotate(45)" gradientUnits="userSpaceOnUse">
      <stop offset="0" stop-color="#9fe870"/>
      <stop offset="1" stop-color="#163300"/>
    </linearGradient>
    <linearGradient id="linear-gradient-4" x1="513.95" y1="784.12" x2="513.95" y2="83.84" gradientUnits="userSpaceOnUse">
      <stop offset="0" stop-color="#9fe870"/>
      <stop offset="1" stop-color="#163300"/>
    </linearGradient>
    <linearGradient id="linear-gradient-5" x1="513.95" y1="130.35" x2="513.95" y2="1114.61" gradientUnits="userSpaceOnUse">
      <stop offset="0" stop-color="#738566"/>
      <stop offset=".72" stop-color="#163300"/>
    </linearGradient>
  </defs>
  <g class="cls-6">
    <g id="Layer_2" data-name="Layer 2">
      <g id="Artwork">
        <g>
          <g>
            <circle class="cls-9" cx="513.95" cy="513.95" r="513.95"/>
            <circle class="cls-1" cx="513.95" cy="513.95" r="505.46"/>
            <circle class="cls-3" cx="513.95" cy="513.95" r="398.75" transform="translate(-212.88 513.95) rotate(-45)"/>
            <circle class="cls-2" cx="513.95" cy="513.95" r="388.05"/>
            <circle class="cls-4" cx="513.95" cy="513.95" r="378.61"/>
            <path class="cls-7" d="M1008.18,407.51C959.3,179.46,756.59,8.49,513.95,8.49S68.6,179.46,19.72,407.51c133.21-74.9,305.74-120.1,494.23-120.1s361.02,45.19,494.23,120.1Z"/>
          </g>
          <g id="Symbol">
            <path class="cls-5" d="M298.05,591.6c0,7.45,0,14.72,0,21.99,0,7.55.05,15.1-.05,22.64-.02,1.81.45,2.89,2.11,3.85,56.5,32.52,112.97,65.09,169.45,97.66,14,8.07,28.02,16.11,41.97,24.28,2,1.17,3.35,1.04,5.31-.09,34.66-20.07,69.37-40.05,104.06-60.05,35.71-20.58,71.41-41.18,107.14-61.73,1.58-.91,2.23-1.93,2.23-3.82-.07-58.95-.08-117.89-.11-176.84,0-2.43.1-4.88-.2-7.27-.3-2.38.72-3.25,2.83-3.9,8.64-2.67,17.23-5.49,25.82-8.29,1.67-.54,3.29-1.25,5.26-2.01,0,1.38,0,2.18,0,2.98,0,73.68,0,147.37.03,221.05,0,2.12-.37,3.33-2.58,4.55-10.33,5.71-20.41,11.88-30.64,17.78-8.81,5.08-17.75,9.94-26.55,15.02-11.6,6.7-23.1,13.56-34.69,20.28-8.77,5.09-17.63,10.03-26.42,15.08-10.13,5.83-20.22,11.75-30.36,17.59-7.79,4.49-15.62,8.89-23.41,13.37-10.59,6.08-21.16,12.19-31.74,18.3-9,5.2-18.02,10.39-26.99,15.63-4.38,2.56-8.66,5.29-13.05,7.85-2.23,1.3-4.45,1.63-6.96.14-8.89-5.26-17.91-10.31-26.85-15.48-11.91-6.88-23.81-13.8-35.71-20.69-10.48-6.07-20.95-12.15-31.44-18.19-12.93-7.45-25.9-14.84-38.82-22.29-21.14-12.19-42.28-24.4-63.39-36.64-12.88-7.47-25.7-15.04-38.57-22.53-3.2-1.86-6.56-3.45-9.66-5.44-.98-.63-1.96-2.16-1.97-3.29-.12-19.59-.1-39.18-.02-58.77,0-.79.73-2.07,1.41-2.3,10.39-3.55,20.83-6.97,31.26-10.4.24-.08.52,0,1.3,0Z"/>
            <path class="cls-5" d="M537.34,722.19c48.39-40.33,70.03-93.51,77.22-153.97-21.71,57.87-58.11,103.81-110.85,137.53-.3-3.33-.6-5.94-.75-8.57-1.62-27.08,4.98-52.07,19.03-75.2,10.88-17.92,24.78-33.4,38.84-48.8,13.8-15.11,27.77-30.1,40.89-45.79,13.11-15.68,23.56-33.12,30.16-52.65.05-.15.22-.26.58-.67.58.99,1.11,1.84,1.59,2.72,10.26,19.07,19.5,38.61,25.05,59.62,14.68,55.52,1.31,103.74-38.61,144.72-10.02,10.29-21.58,18.7-34.21,25.49-11.39,6.12-23.07,11.7-35.87,14.27-4.27.86-8.7.89-13.06,1.3Z"/>
            <path class="cls-8" d="M264,590.02v-4.39c0-73.51.01-147.02-.05-220.53,0-2.34.67-3.52,2.76-4.68,12.13-6.7,24.14-13.61,36.19-20.46,17.5-9.95,35.03-19.85,52.48-29.88,11.02-6.33,21.87-12.95,32.87-19.3,11.44-6.6,23.01-12.99,34.46-19.58,12.19-7.02,24.27-14.23,36.48-21.23,12.63-7.24,25.4-14.24,38.02-21.49,4.31-2.48,8.35-5.41,12.54-8.11,2.62-1.69,5.48-1.41,7.77.49,1.29,1.07,2.74,1.98,4.2,2.83,6.43,3.72,12.89,7.39,19.34,11.08,7.41,4.24,14.82,8.47,22.22,12.71,8.61,4.94,17.2,9.91,25.81,14.84,9.25,5.3,18.54,10.53,27.78,15.87,12.58,7.27,25.09,14.67,37.69,21.9,12.35,7.09,24.78,14.04,37.16,21.09,5.53,3.15,10.98,6.44,16.49,9.61,12.69,7.3,25.39,14.56,38.09,21.84,5.36,3.07,10.7,6.19,16.13,9.14,1.41.77,1.45,1.75,1.45,3.03-.02,19.86-.07,39.72.07,59.58.02,2.51-1.43,3.02-3.05,3.5-7.89,2.32-15.82,4.51-23.73,6.79-2.39.69-4.74,1.51-7.29,2.33-.08-.76-.17-1.27-.17-1.78-.09-14.2-.21-28.39-.22-42.59,0-1.7-.35-2.85-1.89-3.75-10.61-6.22-21.15-12.56-31.77-18.77-15.03-8.8-30.09-17.56-45.18-26.26-25.67-14.8-51.38-29.54-77.07-44.31-13.55-7.79-27.08-15.59-40.62-23.38-6.26-3.6-12.51-7.21-19.14-11.03-12.19,7.02-24.54,14.13-36.88,21.26-22.55,13.02-45.09,26.06-67.64,39.09-15.71,9.07-31.4,18.15-47.13,27.18-18.54,10.64-37.11,21.2-55.66,31.83-8.03,4.6-7.97,4.64-7.97,13.88,0,58.86-.02,117.72-.04,176.59,0,4.1-.07,3.98-3.94,5.23-7.79,2.52-15.53,5.2-23.3,7.77-2.32.76-4.71,1.34-7.25,2.06Z"/>
            <path class="cls-8" d="M455.63,712.9c-5.58-2.17-10.57-5.1-15.17-8.67-17.25-13.37-26.76-30.96-28.77-52.71-1.42-15.39,2.99-29.42,9.27-43.13,10.25-22.37,23.94-42.55,39.77-61.22,17.24-20.34,35.13-40.12,52.62-60.25,17.87-20.57,34.51-42.04,47.12-66.36,5.9-11.39,10.75-23.22,14.55-35.86.48.52.79.77,1.01,1.09,14.76,20.96,21.58,44.16,19.53,69.8-.91,11.32-3.38,22.36-7.37,32.98-2.55,6.8-5.34,13.55-8.57,20.05-10.6,21.3-24.67,40.23-40.07,58.27-14.92,17.47-29.99,34.85-44.2,52.89-15.04,19.09-26.55,40.32-33.26,63.81-2.63,9.19-4.11,18.72-6.12,28.09-.07.33-.17.66-.32,1.24Z"/>
            <path class="cls-8" d="M521.13,297.31c.31.52.56,1.09.94,1.55,12.2,14.98,18.57,32.37,21.25,51.3,4.56,32.16-5.28,60.59-22.54,87.1-12.75,19.58-28.34,36.83-44.1,53.95-16.61,18.03-33.7,35.63-48.09,55.59-20.46,28.37-34.94,59.46-42.63,93.64-.59,2.6-1.04,5.24-1.55,7.85-.25.07-.5.14-.76.22-2.76-6.06-5.79-12.01-8.24-18.19-7.97-20.07-11.36-40.93-9.95-62.5,1.27-19.39,7.55-37.31,16.51-54.39,11.29-21.52,25.96-40.69,41.63-59.12,16.69-19.64,33.79-38.93,50.38-58.65,13.43-15.96,25.68-32.81,34.76-51.72,6.82-14.21,11.41-29.02,11.64-44.95,0-.42.1-.84.16-1.26.2-.14.4-.28.6-.41Z"/>
          </g>
        </g>
      </g>
    </g>
  </g>
</svg>