<?xml version="1.0" encoding="UTF-8"?>
<svg id="Layer_2" data-name="Layer 2" xmlns="http://www.w3.org/2000/svg" xmlns:xlink="http://www.w3.org/1999/xlink" viewBox="0 0 251.92 257.66">
  <defs>
    <style>
      .cls-1 {
        fill: url(#New_Gradient_Swatch_copy);
      }

      .cls-2 {
        fill: url(#New_Gradient_Swatch_copy-14);
      }

      .cls-2, .cls-3, .cls-4, .cls-5, .cls-6, .cls-7, .cls-8, .cls-9, .cls-10, .cls-11, .cls-12, .cls-13, .cls-14, .cls-15, .cls-16, .cls-17, .cls-18, .cls-19, .cls-20, .cls-21, .cls-22, .cls-23, .cls-24, .cls-25, .cls-26, .cls-27, .cls-28, .cls-29, .cls-30, .cls-31, .cls-32, .cls-33, .cls-34, .cls-35, .cls-36, .cls-37 {
        isolation: isolate;
      }

      .cls-2, .cls-3, .cls-4, .cls-5, .cls-6, .cls-8, .cls-9, .cls-10, .cls-11, .cls-12, .cls-13, .cls-14, .cls-16, .cls-17, .cls-19, .cls-20, .cls-21, .cls-22, .cls-23, .cls-24, .cls-25, .cls-27, .cls-28, .cls-29, .cls-31, .cls-32, .cls-33, .cls-34, .cls-36, .cls-37 {
        opacity: .7;
      }

      .cls-3 {
        fill: url(#New_Gradient_Swatch_copy-13);
      }

      .cls-4 {
        fill: url(#New_Gradient_Swatch_copy-20);
      }

      .cls-5 {
        fill: url(#New_Gradient_Swatch_copy_2);
      }

      .cls-38 {
        fill: #b2ed8d;
      }

      .cls-6 {
        fill: url(#New_Gradient_Swatch_copy-7);
      }

      .cls-7 {
        opacity: .2;
      }

      .cls-7, .cls-26 {
        fill: #d9f6c6;
      }

      .cls-8 {
        fill: url(#New_Gradient_Swatch_copy-18);
      }

      .cls-9 {
        fill: url(#New_Gradient_Swatch_copy-3);
      }

      .cls-10 {
        fill: url(#New_Gradient_Swatch-7);
      }

      .cls-11 {
        fill: url(#New_Gradient_Swatch-5);
      }

      .cls-12 {
        fill: url(#New_Gradient_Swatch_copy-4);
      }

      .cls-13 {
        fill: url(#New_Gradient_Swatch_copy-11);
      }

      .cls-39 {
        fill: #455c33;
      }

      .cls-14 {
        fill: url(#New_Gradient_Swatch_copy-16);
      }

      .cls-40, .cls-25 {
        fill: #163300;
      }

      .cls-41, .cls-15, .cls-35 {
        fill: #9fe870;
      }

      .cls-15, .cls-18, .cls-26 {
        opacity: .5;
      }

      .cls-16 {
        fill: url(#New_Gradient_Swatch_copy-6);
      }

      .cls-17 {
        fill: url(#New_Gradient_Swatch-2);
      }

      .cls-18 {
        fill: #a2ad99;
      }

      .cls-42 {
        fill: url(#New_Gradient_Swatch_copy-2);
      }

      .cls-19 {
        fill: url(#New_Gradient_Swatch);
      }

      .cls-20 {
        fill: url(#New_Gradient_Swatch-9);
      }

      .cls-21 {
        fill: url(#New_Gradient_Swatch-6);
      }

      .cls-22 {
        fill: url(#New_Gradient_Swatch_copy-8);
      }

      .cls-23 {
        fill: url(#New_Gradient_Swatch_copy-10);
      }

      .cls-24 {
        fill: url(#New_Gradient_Swatch_copy-9);
      }

      .cls-43 {
        fill: url(#New_Gradient_Swatch-3);
      }

      .cls-44 {
        fill: url(#New_Gradient_Swatch-10);
      }

      .cls-27 {
        fill: url(#New_Gradient_Swatch-8);
      }

      .cls-28 {
        fill: url(#New_Gradient_Swatch_copy-12);
      }

      .cls-29 {
        fill: url(#New_Gradient_Swatch-4);
      }

      .cls-30 {
        fill: #c5f1a9;
        opacity: .6;
      }

      .cls-31 {
        fill: url(#New_Gradient_Swatch_copy_2-3);
      }

      .cls-32 {
        fill: url(#New_Gradient_Swatch_copy-17);
      }

      .cls-33 {
        fill: url(#New_Gradient_Swatch_copy-15);
      }

      .cls-34 {
        fill: url(#New_Gradient_Swatch_copy_2-2);
      }

      .cls-35 {
        opacity: .3;
      }

      .cls-36 {
        fill: url(#New_Gradient_Swatch_copy-19);
      }

      .cls-37 {
        fill: url(#New_Gradient_Swatch_copy-5);
      }
    </style>
    <linearGradient id="New_Gradient_Swatch" data-name="New Gradient Swatch" x1="-1240.28" y1="156.74" x2="-1335.76" y2="209.1" gradientTransform="translate(1427.86 233.48) scale(1 -1)" gradientUnits="userSpaceOnUse">
      <stop offset="0" stop-color="#163300"/>
      <stop offset=".09" stop-color="#455c33"/>
      <stop offset=".25" stop-color="#738566"/>
      <stop offset=".44" stop-color="#9fe870"/>
      <stop offset=".66" stop-color="#b2ed8d"/>
      <stop offset=".9" stop-color="#c5f1a9"/>
      <stop offset="1" stop-color="#d9f6c6"/>
    </linearGradient>
    <linearGradient id="New_Gradient_Swatch-2" data-name="New Gradient Swatch" x1="-1270.8" y1="186.55" x2="-1348.7" y2="237.14" xlink:href="#New_Gradient_Swatch"/>
    <linearGradient id="New_Gradient_Swatch_copy" data-name="New Gradient Swatch copy" x1="-1317.21" y1="189.39" x2="-1250.81" y2="189.39" gradientTransform="translate(1427.86 233.48) scale(1 -1)" gradientUnits="userSpaceOnUse">
      <stop offset="0" stop-color="#9fe870"/>
      <stop offset="1" stop-color="#163300"/>
    </linearGradient>
    <linearGradient id="New_Gradient_Swatch_copy_2" data-name="New Gradient Swatch copy 2" x1="-1304.64" y1="177.92" x2="-1359.07" y2="208.61" gradientTransform="translate(1427.86 233.48) scale(1 -1)" gradientUnits="userSpaceOnUse">
      <stop offset="0" stop-color="#163300"/>
      <stop offset=".1" stop-color="#455c33"/>
      <stop offset=".25" stop-color="#738566"/>
      <stop offset=".28" stop-color="#a2ad99"/>
      <stop offset=".38" stop-color="#9fe870"/>
      <stop offset=".57" stop-color="#b2ed8d"/>
      <stop offset=".83" stop-color="#c5f1a9"/>
      <stop offset="1" stop-color="#d9f6c6"/>
    </linearGradient>
    <linearGradient id="New_Gradient_Swatch-3" data-name="New Gradient Swatch" x1="-1286.29" y1="203.16" x2="-1348.92" y2="217.31" xlink:href="#New_Gradient_Swatch"/>
    <linearGradient id="New_Gradient_Swatch-4" data-name="New Gradient Swatch" x1="-1185.95" y1="33.78" x2="-1281.42" y2="86.13" xlink:href="#New_Gradient_Swatch"/>
    <linearGradient id="New_Gradient_Swatch-5" data-name="New Gradient Swatch" x1="-1216.46" y1="63.58" x2="-1294.37" y2="114.18" xlink:href="#New_Gradient_Swatch"/>
    <linearGradient id="New_Gradient_Swatch_copy-2" data-name="New Gradient Swatch copy" x1="133.98" y1="149.78" x2="180.97" y2="149.78" gradientTransform="matrix(1,0,0,1,0,0)" xlink:href="#New_Gradient_Swatch_copy"/>
    <linearGradient id="New_Gradient_Swatch_copy_2-2" data-name="New Gradient Swatch copy 2" x1="-1185.95" y1="64.3" x2="-1281.42" y2="116.66" xlink:href="#New_Gradient_Swatch_copy_2"/>
    <linearGradient id="New_Gradient_Swatch_copy_2-3" data-name="New Gradient Swatch copy 2" x1="-1216.46" y1="94.11" x2="-1294.37" y2="144.71" xlink:href="#New_Gradient_Swatch_copy_2"/>
    <linearGradient id="New_Gradient_Swatch_copy-3" data-name="New Gradient Swatch copy" x1="-1185.95" y1="94.83" x2="-1281.42" y2="147.19" xlink:href="#New_Gradient_Swatch_copy"/>
    <linearGradient id="New_Gradient_Swatch_copy-4" data-name="New Gradient Swatch copy" x1="-1216.46" y1="124.64" x2="-1294.37" y2="175.24" xlink:href="#New_Gradient_Swatch_copy"/>
    <linearGradient id="New_Gradient_Swatch_copy-5" data-name="New Gradient Swatch copy" x1="-1185.95" y1="125.36" x2="-1281.42" y2="177.72" xlink:href="#New_Gradient_Swatch_copy"/>
    <linearGradient id="New_Gradient_Swatch_copy-6" data-name="New Gradient Swatch copy" x1="-1216.46" y1="155.17" x2="-1294.37" y2="205.76" xlink:href="#New_Gradient_Swatch_copy"/>
    <linearGradient id="New_Gradient_Swatch_copy-7" data-name="New Gradient Swatch copy" x1="-1294.62" y1="33.49" x2="-1390.09" y2="85.84" xlink:href="#New_Gradient_Swatch_copy"/>
    <linearGradient id="New_Gradient_Swatch_copy-8" data-name="New Gradient Swatch copy" x1="-1325.13" y1="63.29" x2="-1403.03" y2="113.89" xlink:href="#New_Gradient_Swatch_copy"/>
    <linearGradient id="New_Gradient_Swatch_copy-9" data-name="New Gradient Swatch copy" x1="-1294.62" y1="64.01" x2="-1390.09" y2="116.37" xlink:href="#New_Gradient_Swatch_copy"/>
    <linearGradient id="New_Gradient_Swatch_copy-10" data-name="New Gradient Swatch copy" x1="-1325.13" y1="93.82" x2="-1403.03" y2="144.42" xlink:href="#New_Gradient_Swatch_copy"/>
    <linearGradient id="New_Gradient_Swatch_copy-11" data-name="New Gradient Swatch copy" x1="-1294.62" y1="94.54" x2="-1390.09" y2="146.9" xlink:href="#New_Gradient_Swatch_copy"/>
    <linearGradient id="New_Gradient_Swatch_copy-12" data-name="New Gradient Swatch copy" x1="-1325.13" y1="124.35" x2="-1403.03" y2="174.95" xlink:href="#New_Gradient_Swatch_copy"/>
    <linearGradient id="New_Gradient_Swatch_copy-13" data-name="New Gradient Swatch copy" x1="-1294.62" y1="125.07" x2="-1390.09" y2="177.43" xlink:href="#New_Gradient_Swatch_copy"/>
    <linearGradient id="New_Gradient_Swatch_copy-14" data-name="New Gradient Swatch copy" x1="-1325.13" y1="154.88" x2="-1403.03" y2="205.47" xlink:href="#New_Gradient_Swatch_copy"/>
    <linearGradient id="New_Gradient_Swatch-6" data-name="New Gradient Swatch" x1="-1240.28" y1="2.11" x2="-1335.76" y2="54.46" xlink:href="#New_Gradient_Swatch"/>
    <linearGradient id="New_Gradient_Swatch-7" data-name="New Gradient Swatch" x1="-1296.91" y1="2.59" x2="-1357.38" y2="36.97" xlink:href="#New_Gradient_Swatch"/>
    <linearGradient id="New_Gradient_Swatch-8" data-name="New Gradient Swatch" x1="-1270.8" y1="31.91" x2="-1348.7" y2="82.51" xlink:href="#New_Gradient_Swatch"/>
    <linearGradient id="New_Gradient_Swatch-9" data-name="New Gradient Swatch" x1="-1304.64" y1="23.29" x2="-1359.07" y2="53.98" xlink:href="#New_Gradient_Swatch"/>
    <linearGradient id="New_Gradient_Swatch-10" data-name="New Gradient Swatch" x1="-1286.29" y1="48.53" x2="-1348.92" y2="62.67" xlink:href="#New_Gradient_Swatch"/>
    <linearGradient id="New_Gradient_Swatch_copy-15" data-name="New Gradient Swatch copy" x1="-1240.28" y1="32.63" x2="-1335.76" y2="84.99" xlink:href="#New_Gradient_Swatch_copy"/>
    <linearGradient id="New_Gradient_Swatch_copy-16" data-name="New Gradient Swatch copy" x1="-1270.8" y1="62.44" x2="-1348.7" y2="113.04" xlink:href="#New_Gradient_Swatch_copy"/>
    <linearGradient id="New_Gradient_Swatch_copy-17" data-name="New Gradient Swatch copy" x1="-1240.28" y1="63.16" x2="-1335.76" y2="115.52" xlink:href="#New_Gradient_Swatch_copy"/>
    <linearGradient id="New_Gradient_Swatch_copy-18" data-name="New Gradient Swatch copy" x1="-1270.8" y1="92.97" x2="-1348.7" y2="143.57" xlink:href="#New_Gradient_Swatch_copy"/>
    <linearGradient id="New_Gradient_Swatch_copy-19" data-name="New Gradient Swatch copy" x1="-1240.28" y1="93.69" x2="-1335.76" y2="146.05" xlink:href="#New_Gradient_Swatch_copy"/>
    <linearGradient id="New_Gradient_Swatch_copy-20" data-name="New Gradient Swatch copy" x1="-1270.8" y1="123.5" x2="-1348.7" y2="174.09" xlink:href="#New_Gradient_Swatch_copy"/>
  </defs>
  <g id="_Ñëîé_1" data-name="Ñëîé 1">
    <g>
      <g>
        <path class="cls-41" d="M125.32,256.19c-3.55,0-6.94-.72-9.47-2.17L5.29,190.18c-2.47-1.43-3.83-3.41-3.83-5.59,0-2.62,1.96-5.25,5.38-7.22l107.46-62.04c6.43-3.71,16.2-4.11,21.77-.89l110.56,63.83c2.47,1.43,3.84,3.41,3.84,5.59,0,2.62-1.96,5.25-5.38,7.22l-107.47,62.04c-3.51,2.03-8.02,3.07-12.3,3.07ZM126.6,112.66c-4.2,0-8.64,1.02-12.1,3.02L7.04,177.73c-3.29,1.9-5.18,4.4-5.18,6.86,0,2.02,1.29,3.88,3.63,5.23l110.57,63.84c5.46,3.15,15.04,2.75,21.36-.89l107.47-62.04c3.29-1.9,5.18-4.4,5.18-6.86,0-2.02-1.29-3.88-3.63-5.23l-110.57-63.84c-2.47-1.43-5.79-2.13-9.26-2.13Z"/>
        <path class="cls-35" d="M125.34,257.66c-3.8,0-7.44-.79-10.22-2.39L4.56,191.43c-2.94-1.7-4.56-4.13-4.56-6.84,0-3.15,2.23-6.24,6.11-8.48l107.46-62.04c6.95-4.01,17.15-4.4,23.22-.89l110.56,63.84c2.94,1.7,4.56,4.13,4.56,6.84,0,3.15-2.23,6.24-6.11,8.48l-107.46,62.04c-3.77,2.18-8.5,3.29-13,3.29ZM126.63,114.13c-3.97,0-8.19.96-11.4,2.81L7.77,178.98c-2.83,1.63-4.45,3.68-4.45,5.61s1.58,3.21,2.9,3.97l110.57,63.84c4.97,2.87,14.09,2.46,19.91-.89l107.47-62.04c2.83-1.63,4.45-3.68,4.45-5.61s-1.58-3.21-2.9-3.97l-110.57-63.83c-2.23-1.29-5.29-1.92-8.51-1.92Z"/>
      </g>
      <g>
        <g>
          <polygon class="cls-40" points="126.09 77.55 79.64 50.73 126.09 23.92 172.54 50.73 126.09 77.55"/>
          <polygon class="cls-40" points="126.09 69.84 79.64 43.02 126.09 16.2 172.54 43.02 126.09 69.84"/>
          <polygon class="cls-19" points="126.09 63.72 90.23 43.02 126.09 22.32 161.95 43.02 126.09 63.72"/>
          <polygon class="cls-40" points="126.09 61.35 79.64 34.53 126.09 7.71 172.54 34.53 126.09 61.35"/>
          <polygon class="cls-40" points="126.09 53.63 79.64 26.82 126.09 0 172.54 26.82 126.09 53.63"/>
          <polygon class="cls-17" points="126.09 53.63 79.64 26.82 126.09 0 172.54 26.82 126.09 53.63"/>
          <polygon class="cls-1" points="172.54 26.82 172.54 34.53 126.09 61.35 126.09 53.63 172.54 26.82"/>
          <polygon class="cls-41" points="79.64 26.82 79.64 34.53 126.09 61.35 126.09 53.63 79.64 26.82"/>
          <polygon class="cls-5" points="79.64 26.82 79.64 34.53 126.09 61.35 126.09 53.63 79.64 26.82"/>
          <polygon class="cls-35" points="126.09 61.35 126.09 69.84 79.64 43.02 79.64 34.53 126.09 61.35"/>
          <g>
            <polygon class="cls-35" points="90.23 40.64 90.23 43.02 126.09 63.72 161.95 43.02 161.95 40.64 126.09 61.35 90.23 40.64"/>
            <polygon class="cls-35" points="126.09 61.35 126.09 63.72 90.23 43.02 90.23 40.64 126.09 61.35"/>
          </g>
          <polygon class="cls-26" points="79.64 34.53 79.64 43.02 126.09 69.84 172.54 43.02 172.54 34.53 126.09 61.35 79.64 34.53"/>
          <polygon class="cls-43" points="80.74 26.82 126.64 .32 126.09 0 79.64 26.82 126.09 53.63 126.64 53.32 80.74 26.82"/>
        </g>
        <polygon class="cls-18" points="180.42 211.3 134.35 184.7 180.42 158.1 226.5 184.7 180.42 211.3"/>
        <g>
          <g>
            <g>
              <polygon class="cls-40" points="180.42 200.51 133.98 173.7 180.42 146.88 226.87 173.7 180.42 200.51"/>
              <polygon class="cls-40" points="180.42 192.8 133.98 165.98 180.42 139.17 226.87 165.98 180.42 192.8"/>
              <polygon class="cls-29" points="180.42 186.69 144.56 165.98 180.42 145.28 216.28 165.98 180.42 186.69"/>
              <polygon class="cls-40" points="226.87 165.98 226.87 173.7 180.42 200.51 180.42 192.8 226.87 165.98"/>
              <polygon class="cls-40" points="133.98 165.98 133.98 173.7 180.42 200.51 180.42 192.8 133.98 165.98"/>
              <polygon class="cls-25" points="133.98 165.98 133.98 173.7 180.42 200.51 180.42 192.8 133.98 165.98"/>
              <polygon class="cls-40" points="180.42 184.31 133.98 157.49 180.42 130.68 226.87 157.49 180.42 184.31"/>
              <polygon class="cls-40" points="180.42 176.59 133.98 149.78 180.42 122.96 226.87 149.78 180.42 176.59"/>
              <polygon class="cls-11" points="180.42 176.59 133.98 149.78 180.42 122.96 226.87 149.78 180.42 176.59"/>
              <g>
                <polygon class="cls-35" points="180.42 159.71 163.23 149.78 180.42 139.85 197.62 149.78 180.42 159.71"/>
                <polygon class="cls-35" points="180.42 146.59 191.78 153.15 197.62 149.78 180.42 139.85 163.23 149.78 169.06 153.15 180.42 146.59"/>
                <polygon class="cls-41" points="180.42 146.59 191.78 153.15 197.62 149.78 180.42 139.85 163.23 149.78 169.06 153.15 180.42 146.59"/>
              </g>
              <polygon class="cls-40" points="226.87 149.78 226.87 157.49 180.42 184.31 180.42 176.59 226.87 149.78"/>
              <polygon class="cls-40" points="133.98 149.78 133.98 157.49 180.42 184.31 180.42 176.59 133.98 149.78"/>
              <polygon class="cls-25" points="133.98 149.78 133.98 157.49 180.42 184.31 180.42 176.59 133.98 149.78"/>
              <polygon class="cls-35" points="180.42 184.31 180.42 192.8 133.98 165.98 133.98 157.49 180.42 184.31"/>
              <g>
                <polygon class="cls-35" points="144.56 163.6 144.56 165.98 180.42 186.69 216.28 165.98 216.28 163.61 180.42 184.31 144.56 163.6"/>
                <polygon class="cls-35" points="180.42 184.31 180.42 186.69 144.56 165.98 144.56 163.6 180.42 184.31"/>
              </g>
              <polygon class="cls-15" points="133.98 157.49 133.98 165.98 180.42 192.8 226.87 165.98 226.87 157.49 180.42 184.31 133.98 157.49"/>
              <polygon class="cls-42" points="135.07 149.78 180.97 123.28 180.42 122.96 133.98 149.78 180.42 176.59 180.97 176.28 135.07 149.78"/>
            </g>
            <polygon class="cls-15" points="133.98 157.49 133.98 165.98 134.61 166.35 134.61 157.86 133.98 157.49"/>
            <polygon class="cls-15" points="226.87 157.49 226.87 165.98 226.23 166.35 226.23 157.86 226.87 157.49"/>
            <polygon class="cls-15" points="180.42 184.31 180.42 184.31 179.33 183.68 179.33 192.17 180.42 192.8 180.42 192.8 180.42 192.8 180.42 192.8 180.42 192.8 181.52 192.17 181.52 183.68 180.42 184.31"/>
          </g>
          <g>
            <g>
              <polygon class="cls-40" points="180.42 169.98 133.98 143.17 180.42 116.35 226.87 143.17 180.42 169.98"/>
              <polygon class="cls-40" points="180.42 162.27 133.98 135.45 180.42 108.64 226.87 135.46 180.42 162.27"/>
              <polygon class="cls-34" points="180.42 156.16 144.56 135.45 180.42 114.75 216.28 135.46 180.42 156.16"/>
              <polygon class="cls-40" points="226.87 135.46 226.87 143.17 180.42 169.98 180.42 162.27 226.87 135.46"/>
              <polygon class="cls-40" points="133.98 135.45 133.98 143.17 180.42 169.98 180.42 162.27 133.98 135.45"/>
              <polygon class="cls-25" points="133.98 135.45 133.98 143.17 180.42 169.98 180.42 162.27 133.98 135.45"/>
              <polygon class="cls-40" points="180.42 153.78 133.98 126.97 180.42 100.15 226.87 126.97 180.42 153.78"/>
              <polygon class="cls-40" points="180.42 146.07 133.98 119.25 180.42 92.44 226.87 119.25 180.42 146.07"/>
              <polygon class="cls-31" points="180.42 146.07 133.98 119.25 180.42 92.44 226.87 119.25 180.42 146.07"/>
              <g>
                <polygon class="cls-35" points="180.42 129.18 163.23 119.25 180.42 109.32 197.62 119.25 180.42 129.18"/>
                <polygon class="cls-35" points="180.42 116.06 191.78 122.62 197.62 119.25 180.42 109.32 163.23 119.25 169.06 122.62 180.42 116.06"/>
                <polygon class="cls-41" points="180.42 116.06 191.78 122.62 197.62 119.25 180.42 109.32 163.23 119.25 169.06 122.62 180.42 116.06"/>
              </g>
              <polygon class="cls-40" points="226.87 119.25 226.87 126.97 180.42 153.78 180.42 146.07 226.87 119.25"/>
              <polygon class="cls-40" points="133.98 119.25 133.98 126.97 180.42 153.78 180.42 146.07 133.98 119.25"/>
              <polygon class="cls-25" points="133.98 119.25 133.98 126.97 180.42 153.78 180.42 146.07 133.98 119.25"/>
              <polygon class="cls-35" points="180.42 153.78 180.42 162.27 133.98 135.45 133.98 126.97 180.42 153.78"/>
              <g>
                <polygon class="cls-35" points="144.56 133.08 144.56 135.45 180.42 156.16 216.28 135.46 216.28 133.08 180.42 153.78 144.56 133.08"/>
                <polygon class="cls-35" points="180.42 153.78 180.42 156.16 144.56 135.45 144.56 133.08 180.42 153.78"/>
              </g>
              <polygon class="cls-15" points="133.98 126.97 133.98 135.45 180.42 162.27 226.87 135.46 226.87 126.97 180.42 153.78 133.98 126.97"/>
              <polygon class="cls-41" points="135.07 119.25 180.97 92.75 180.42 92.44 133.98 119.25 180.42 146.07 180.97 145.75 135.07 119.25"/>
            </g>
            <polygon class="cls-15" points="133.98 126.97 133.98 135.45 134.61 135.82 134.61 127.33 133.98 126.97"/>
            <polygon class="cls-15" points="226.87 126.97 226.87 135.45 226.23 135.82 226.23 127.33 226.87 126.97"/>
            <polygon class="cls-15" points="180.42 153.78 180.42 153.78 179.33 153.15 179.33 161.65 180.42 162.27 180.42 162.27 180.42 162.27 180.42 162.27 180.42 162.27 181.52 161.65 181.52 153.15 180.42 153.78"/>
          </g>
          <g>
            <g>
              <polygon class="cls-40" points="180.42 139.46 133.98 112.64 180.42 85.83 226.87 112.64 180.42 139.46"/>
              <polygon class="cls-40" points="180.42 131.74 133.98 104.93 180.42 78.11 226.87 104.93 180.42 131.74"/>
              <polygon class="cls-9" points="180.42 125.63 144.56 104.93 180.42 84.22 216.28 104.93 180.42 125.63"/>
              <polygon class="cls-40" points="226.87 104.93 226.87 112.64 180.42 139.46 180.42 131.74 226.87 104.93"/>
              <polygon class="cls-40" points="133.98 104.93 133.98 112.64 180.42 139.46 180.42 131.74 133.98 104.93"/>
              <polygon class="cls-25" points="133.98 104.93 133.98 112.64 180.42 139.46 180.42 131.74 133.98 104.93"/>
              <polygon class="cls-40" points="180.42 123.25 133.98 96.44 180.42 69.62 226.87 96.44 180.42 123.25"/>
              <polygon class="cls-40" points="180.42 115.54 133.98 88.72 180.42 61.91 226.87 88.72 180.42 115.54"/>
              <polygon class="cls-12" points="180.42 115.54 133.98 88.72 180.42 61.91 226.87 88.72 180.42 115.54"/>
              <g>
                <polygon class="cls-35" points="180.42 98.65 163.23 88.72 180.42 78.8 197.62 88.72 180.42 98.65"/>
                <polygon class="cls-35" points="180.42 85.53 191.78 92.09 197.62 88.72 180.42 78.8 163.23 88.72 169.06 92.09 180.42 85.53"/>
                <polygon class="cls-41" points="180.42 85.53 191.78 92.09 197.62 88.72 180.42 78.8 163.23 88.72 169.06 92.09 180.42 85.53"/>
              </g>
              <polygon class="cls-40" points="226.87 88.72 226.87 96.44 180.42 123.25 180.42 115.54 226.87 88.72"/>
              <polygon class="cls-40" points="133.98 88.72 133.98 96.44 180.42 123.25 180.42 115.54 133.98 88.72"/>
              <polygon class="cls-25" points="133.98 88.72 133.98 96.44 180.42 123.25 180.42 115.54 133.98 88.72"/>
              <polygon class="cls-35" points="180.42 123.25 180.42 131.74 133.98 104.93 133.98 96.44 180.42 123.25"/>
              <g>
                <polygon class="cls-35" points="144.56 102.55 144.56 104.93 180.42 125.63 216.28 104.93 216.28 102.55 180.42 123.25 144.56 102.55"/>
                <polygon class="cls-35" points="180.42 123.25 180.42 125.63 144.56 104.93 144.56 102.55 180.42 123.25"/>
              </g>
              <polygon class="cls-15" points="133.98 96.44 133.98 104.93 180.42 131.74 226.87 104.93 226.87 96.44 180.42 123.25 133.98 96.44"/>
              <polygon class="cls-41" points="135.07 88.72 180.97 62.22 180.42 61.91 133.98 88.72 180.42 115.54 180.97 115.22 135.07 88.72"/>
            </g>
            <polygon class="cls-15" points="133.98 96.44 133.98 104.93 134.61 105.3 134.61 96.81 133.98 96.44"/>
            <polygon class="cls-15" points="226.87 96.44 226.87 104.93 226.23 105.3 226.23 96.81 226.87 96.44"/>
            <polygon class="cls-15" points="180.42 123.25 180.42 123.25 179.33 122.62 179.33 131.12 180.42 131.74 180.42 131.74 180.42 131.74 180.42 131.74 180.42 131.74 181.52 131.12 181.52 122.62 180.42 123.25"/>
          </g>
          <g>
            <g>
              <polygon class="cls-40" points="180.42 108.93 133.98 82.11 180.42 55.3 226.87 82.11 180.42 108.93"/>
              <polygon class="cls-40" points="180.42 101.22 133.98 74.4 180.42 47.58 226.87 74.4 180.42 101.22"/>
              <polygon class="cls-37" points="180.42 95.11 144.56 74.4 180.42 53.7 216.28 74.4 180.42 95.11"/>
              <polygon class="cls-40" points="226.87 74.4 226.87 82.11 180.42 108.93 180.42 101.22 226.87 74.4"/>
              <polygon class="cls-40" points="133.98 74.4 133.98 82.11 180.42 108.93 180.42 101.22 133.98 74.4"/>
              <polygon class="cls-25" points="133.98 74.4 133.98 82.11 180.42 108.93 180.42 101.22 133.98 74.4"/>
              <polygon class="cls-40" points="180.42 92.73 133.98 65.91 180.42 39.09 226.87 65.91 180.42 92.73"/>
              <polygon class="cls-40" points="180.42 85.01 133.98 58.2 180.42 31.38 226.87 58.2 180.42 85.01"/>
              <polygon class="cls-16" points="180.42 85.01 133.98 58.2 180.42 31.38 226.87 58.2 180.42 85.01"/>
              <polygon class="cls-40" points="226.87 58.2 226.87 65.91 180.42 92.73 180.42 85.01 226.87 58.2"/>
              <polygon class="cls-40" points="133.98 58.2 133.98 65.91 180.42 92.73 180.42 85.01 133.98 58.2"/>
              <polygon class="cls-25" points="133.98 58.2 133.98 65.91 180.42 92.73 180.42 85.01 133.98 58.2"/>
              <polygon class="cls-35" points="180.42 92.73 180.42 101.22 133.98 74.4 133.98 65.91 180.42 92.73"/>
              <g>
                <polygon class="cls-35" points="144.56 72.02 144.56 74.4 180.42 95.11 216.28 74.4 216.28 72.02 180.42 92.73 144.56 72.02"/>
                <polygon class="cls-35" points="180.42 92.73 180.42 95.11 144.56 74.4 144.56 72.02 180.42 92.73"/>
              </g>
              <polygon class="cls-15" points="133.98 65.91 133.98 74.4 180.42 101.22 226.87 74.4 226.87 65.91 180.42 92.73 133.98 65.91"/>
              <polygon class="cls-41" points="135.07 58.2 180.97 31.7 180.42 31.38 133.98 58.2 180.42 85.01 180.97 84.7 135.07 58.2"/>
            </g>
            <polygon class="cls-15" points="133.98 65.91 133.98 74.4 134.61 74.77 134.61 66.28 133.98 65.91"/>
            <polygon class="cls-15" points="226.87 65.91 226.87 74.4 226.23 74.77 226.23 66.28 226.87 65.91"/>
            <polygon class="cls-15" points="180.42 92.73 180.42 92.73 179.33 92.09 179.33 100.59 180.42 101.22 180.42 101.22 180.42 101.22 180.42 101.22 180.42 101.22 181.52 100.59 181.52 92.09 180.42 92.73"/>
          </g>
        </g>
        <polygon class="cls-18" points="71.76 211.59 25.68 184.99 71.76 158.39 117.83 184.99 71.76 211.59"/>
        <g>
          <g>
            <g>
              <polygon class="cls-40" points="71.76 200.8 25.31 173.99 71.76 147.17 118.2 173.99 71.76 200.8"/>
              <polygon class="cls-40" points="71.76 193.09 25.31 166.27 71.76 139.46 118.2 166.27 71.76 193.09"/>
              <polygon class="cls-6" points="71.76 186.98 35.89 166.27 71.76 145.57 107.62 166.27 71.76 186.98"/>
              <polygon class="cls-40" points="118.2 166.27 118.2 173.99 71.76 200.8 71.76 193.09 118.2 166.27"/>
              <polygon class="cls-40" points="25.31 166.27 25.31 173.99 71.76 200.8 71.76 193.09 25.31 166.27"/>
              <polygon class="cls-25" points="25.31 166.27 25.31 173.99 71.76 200.8 71.76 193.09 25.31 166.27"/>
              <polygon class="cls-40" points="71.76 184.6 25.31 157.78 71.76 130.97 118.2 157.78 71.76 184.6"/>
              <polygon class="cls-40" points="71.76 176.88 25.31 150.07 71.76 123.25 118.2 150.07 71.76 176.88"/>
              <polygon class="cls-22" points="71.76 176.88 25.31 150.07 71.76 123.25 118.2 150.07 71.76 176.88"/>
              <g>
                <polygon class="cls-35" points="71.76 160 54.56 150.07 71.76 140.14 88.95 150.07 71.76 160"/>
                <polygon class="cls-35" points="71.76 146.88 83.12 153.44 88.95 150.07 71.76 140.14 54.56 150.07 60.39 153.44 71.76 146.88"/>
                <polygon class="cls-41" points="71.76 146.88 83.12 153.44 88.95 150.07 71.76 140.14 54.56 150.07 60.39 153.44 71.76 146.88"/>
              </g>
              <polygon class="cls-40" points="118.2 150.07 118.2 157.78 71.76 184.6 71.76 176.88 118.2 150.07"/>
              <polygon class="cls-40" points="25.31 150.07 25.31 157.78 71.76 184.6 71.76 176.88 25.31 150.07"/>
              <polygon class="cls-25" points="25.31 150.07 25.31 157.78 71.76 184.6 71.76 176.88 25.31 150.07"/>
              <polygon class="cls-35" points="71.76 184.6 71.76 193.09 25.31 166.27 25.31 157.78 71.76 184.6"/>
              <g>
                <polygon class="cls-35" points="35.89 163.89 35.89 166.27 71.76 186.98 107.62 166.27 107.62 163.89 71.76 184.6 35.89 163.89"/>
                <polygon class="cls-35" points="71.76 184.6 71.76 186.98 35.89 166.27 35.89 163.89 71.76 184.6"/>
              </g>
              <polygon class="cls-15" points="25.31 157.78 25.31 166.27 71.76 193.09 118.2 166.27 118.2 157.78 71.76 184.6 25.31 157.78"/>
              <polygon class="cls-41" points="26.41 150.07 72.3 123.57 71.76 123.25 25.31 150.07 71.76 176.88 72.3 176.57 26.41 150.07"/>
            </g>
            <polygon class="cls-15" points="25.31 157.78 25.31 166.27 25.95 166.64 25.95 158.15 25.31 157.78"/>
            <polygon class="cls-15" points="118.2 157.78 118.2 166.27 117.56 166.64 117.56 158.15 118.2 157.78"/>
            <polygon class="cls-15" points="71.76 184.6 71.76 184.6 70.66 183.97 70.66 192.46 71.76 193.09 71.76 193.09 71.76 193.09 71.76 193.09 71.76 193.09 72.85 192.46 72.85 183.97 71.76 184.6"/>
          </g>
          <g>
            <g>
              <polygon class="cls-40" points="71.76 170.27 25.31 143.46 71.76 116.64 118.2 143.46 71.76 170.27"/>
              <polygon class="cls-40" points="71.76 162.56 25.31 135.74 71.76 108.93 118.2 135.75 71.76 162.56"/>
              <polygon class="cls-24" points="71.76 156.45 35.89 135.74 71.76 115.04 107.62 135.75 71.76 156.45"/>
              <polygon class="cls-40" points="118.2 135.75 118.2 143.46 71.76 170.27 71.76 162.56 118.2 135.75"/>
              <polygon class="cls-40" points="25.31 135.74 25.31 143.46 71.76 170.27 71.76 162.56 25.31 135.74"/>
              <polygon class="cls-25" points="25.31 135.74 25.31 143.46 71.76 170.27 71.76 162.56 25.31 135.74"/>
              <polygon class="cls-40" points="71.76 154.07 25.31 127.25 71.76 100.44 118.2 127.25 71.76 154.07"/>
              <polygon class="cls-40" points="71.76 146.36 25.31 119.54 71.76 92.72 118.2 119.54 71.76 146.36"/>
              <polygon class="cls-23" points="71.76 146.36 25.31 119.54 71.76 92.72 118.2 119.54 71.76 146.36"/>
              <g>
                <polygon class="cls-35" points="71.76 129.47 54.56 119.54 71.76 109.61 88.95 119.54 71.76 129.47"/>
                <polygon class="cls-35" points="71.76 116.35 83.12 122.91 88.95 119.54 71.76 109.61 54.56 119.54 60.39 122.91 71.76 116.35"/>
                <polygon class="cls-41" points="71.76 116.35 83.12 122.91 88.95 119.54 71.76 109.61 54.56 119.54 60.39 122.91 71.76 116.35"/>
              </g>
              <polygon class="cls-40" points="118.2 119.54 118.2 127.25 71.76 154.07 71.76 146.36 118.2 119.54"/>
              <polygon class="cls-40" points="25.31 119.54 25.31 127.25 71.76 154.07 71.76 146.36 25.31 119.54"/>
              <polygon class="cls-25" points="25.31 119.54 25.31 127.25 71.76 154.07 71.76 146.36 25.31 119.54"/>
              <polygon class="cls-35" points="71.76 154.07 71.76 162.56 25.31 135.74 25.31 127.25 71.76 154.07"/>
              <g>
                <polygon class="cls-35" points="35.89 133.37 35.89 135.74 71.76 156.45 107.62 135.75 107.62 133.37 71.76 154.07 35.89 133.37"/>
                <polygon class="cls-35" points="71.76 154.07 71.76 156.45 35.89 135.74 35.89 133.37 71.76 154.07"/>
              </g>
              <polygon class="cls-15" points="25.31 127.25 25.31 135.74 71.76 162.56 118.2 135.75 118.2 127.25 71.76 154.07 25.31 127.25"/>
              <polygon class="cls-41" points="26.41 119.54 72.3 93.04 71.76 92.72 25.31 119.54 71.76 146.36 72.3 146.04 26.41 119.54"/>
            </g>
            <polygon class="cls-15" points="25.31 127.25 25.31 135.74 25.95 136.11 25.95 127.62 25.31 127.25"/>
            <polygon class="cls-15" points="118.2 127.25 118.2 135.74 117.56 136.11 117.56 127.62 118.2 127.25"/>
            <polygon class="cls-15" points="71.76 154.07 71.76 154.07 70.66 153.44 70.66 161.94 71.76 162.56 71.76 162.56 71.76 162.56 71.76 162.56 71.76 162.56 72.85 161.94 72.85 153.44 71.76 154.07"/>
          </g>
          <g>
            <g>
              <polygon class="cls-40" points="71.76 139.75 25.31 112.93 71.76 86.11 118.2 112.93 71.76 139.75"/>
              <polygon class="cls-40" points="71.76 132.03 25.31 105.22 71.76 78.4 118.2 105.22 71.76 132.03"/>
              <polygon class="cls-13" points="71.76 125.92 35.89 105.22 71.76 84.51 107.62 105.22 71.76 125.92"/>
              <polygon class="cls-40" points="118.2 105.22 118.2 112.93 71.76 139.75 71.76 132.03 118.2 105.22"/>
              <polygon class="cls-40" points="25.31 105.22 25.31 112.93 71.76 139.75 71.76 132.03 25.31 105.22"/>
              <polygon class="cls-25" points="25.31 105.22 25.31 112.93 71.76 139.75 71.76 132.03 25.31 105.22"/>
              <polygon class="cls-40" points="71.76 123.54 25.31 96.73 71.76 69.91 118.2 96.73 71.76 123.54"/>
              <polygon class="cls-40" points="71.76 115.83 25.31 89.01 71.76 62.2 118.2 89.01 71.76 115.83"/>
              <polygon class="cls-28" points="71.76 115.83 25.31 89.01 71.76 62.2 118.2 89.01 71.76 115.83"/>
              <g>
                <polygon class="cls-35" points="71.76 98.94 54.56 89.01 71.76 79.08 88.95 89.01 71.76 98.94"/>
                <polygon class="cls-35" points="71.76 85.82 83.12 92.38 88.95 89.01 71.76 79.08 54.56 89.01 60.39 92.38 71.76 85.82"/>
                <polygon class="cls-41" points="71.76 85.82 83.12 92.38 88.95 89.01 71.76 79.08 54.56 89.01 60.39 92.38 71.76 85.82"/>
              </g>
              <polygon class="cls-40" points="118.2 89.01 118.2 96.73 71.76 123.54 71.76 115.83 118.2 89.01"/>
              <polygon class="cls-40" points="25.31 89.01 25.31 96.73 71.76 123.54 71.76 115.83 25.31 89.01"/>
              <polygon class="cls-25" points="25.31 89.01 25.31 96.73 71.76 123.54 71.76 115.83 25.31 89.01"/>
              <polygon class="cls-35" points="71.76 123.54 71.76 132.03 25.31 105.22 25.31 96.73 71.76 123.54"/>
              <g>
                <polygon class="cls-35" points="35.89 102.84 35.89 105.22 71.76 125.92 107.62 105.22 107.62 102.84 71.76 123.54 35.89 102.84"/>
                <polygon class="cls-35" points="71.76 123.54 71.76 125.92 35.89 105.22 35.89 102.84 71.76 123.54"/>
              </g>
              <polygon class="cls-15" points="25.31 96.73 25.31 105.22 71.76 132.03 118.2 105.22 118.2 96.73 71.76 123.54 25.31 96.73"/>
              <polygon class="cls-41" points="26.41 89.01 72.3 62.51 71.76 62.2 25.31 89.01 71.76 115.83 72.3 115.51 26.41 89.01"/>
            </g>
            <polygon class="cls-15" points="25.31 96.73 25.31 105.22 25.95 105.59 25.95 97.09 25.31 96.73"/>
            <polygon class="cls-15" points="118.2 96.73 118.2 105.22 117.56 105.59 117.56 97.09 118.2 96.73"/>
            <polygon class="cls-15" points="71.76 123.54 71.76 123.54 70.66 122.91 70.66 131.41 71.76 132.03 71.76 132.03 71.76 132.03 71.76 132.03 71.76 132.03 72.85 131.41 72.85 122.91 71.76 123.54"/>
          </g>
          <g>
            <g>
              <polygon class="cls-40" points="71.76 109.22 25.31 82.4 71.76 55.59 118.2 82.4 71.76 109.22"/>
              <polygon class="cls-40" points="71.76 101.51 25.31 74.69 71.76 47.87 118.2 74.69 71.76 101.51"/>
              <polygon class="cls-3" points="71.76 95.39 35.89 74.69 71.76 53.99 107.62 74.69 71.76 95.39"/>
              <polygon class="cls-40" points="118.2 74.69 118.2 82.4 71.76 109.22 71.76 101.51 118.2 74.69"/>
              <polygon class="cls-40" points="25.31 74.69 25.31 82.4 71.76 109.22 71.76 101.51 25.31 74.69"/>
              <polygon class="cls-25" points="25.31 74.69 25.31 82.4 71.76 109.22 71.76 101.51 25.31 74.69"/>
              <polygon class="cls-40" points="71.76 93.01 25.31 66.2 71.76 39.38 118.2 66.2 71.76 93.01"/>
              <polygon class="cls-40" points="71.76 85.3 25.31 58.49 71.76 31.67 118.2 58.49 71.76 85.3"/>
              <polygon class="cls-2" points="71.76 85.3 25.31 58.49 71.76 31.67 118.2 58.49 71.76 85.3"/>
              <polygon class="cls-40" points="118.2 58.49 118.2 66.2 71.76 93.01 71.76 85.3 118.2 58.49"/>
              <polygon class="cls-40" points="25.31 58.49 25.31 66.2 71.76 93.01 71.76 85.3 25.31 58.49"/>
              <polygon class="cls-25" points="25.31 58.49 25.31 66.2 71.76 93.01 71.76 85.3 25.31 58.49"/>
              <polygon class="cls-35" points="71.76 93.01 71.76 101.51 25.31 74.69 25.31 66.2 71.76 93.01"/>
              <g>
                <polygon class="cls-35" points="35.89 72.31 35.89 74.69 71.76 95.39 107.62 74.69 107.62 72.31 71.76 93.01 35.89 72.31"/>
                <polygon class="cls-35" points="71.76 93.01 71.76 95.39 35.89 74.69 35.89 72.31 71.76 93.01"/>
              </g>
              <polygon class="cls-15" points="25.31 66.2 25.31 74.69 71.76 101.51 118.2 74.69 118.2 66.2 71.76 93.01 25.31 66.2"/>
              <polygon class="cls-41" points="26.41 58.49 72.3 31.99 71.76 31.67 25.31 58.49 71.76 85.3 72.3 84.98 26.41 58.49"/>
            </g>
            <polygon class="cls-15" points="25.31 66.2 25.31 74.69 25.95 75.06 25.95 66.57 25.31 66.2"/>
            <polygon class="cls-15" points="118.2 66.2 118.2 74.69 117.56 75.06 117.56 66.57 118.2 66.2"/>
            <polygon class="cls-15" points="71.76 93.01 71.76 93.01 70.66 92.38 70.66 100.88 71.76 101.51 71.76 101.51 71.76 101.51 71.76 101.51 71.76 101.51 72.85 100.88 72.85 92.38 71.76 93.01"/>
          </g>
        </g>
        <polygon class="cls-18" points="126.09 242.97 80.02 216.37 126.09 189.77 172.16 216.37 126.09 242.97"/>
        <g>
          <g>
            <g>
              <polygon class="cls-40" points="126.09 232.18 79.64 205.37 126.09 178.55 172.54 205.37 126.09 232.18"/>
              <polygon class="cls-40" points="126.09 224.47 79.64 197.65 126.09 170.84 172.54 197.65 126.09 224.47"/>
              <polygon class="cls-21" points="126.09 218.36 90.23 197.65 126.09 176.95 161.95 197.65 126.09 218.36"/>
              <polygon class="cls-40" points="172.54 197.65 172.54 205.37 126.09 232.18 126.09 224.47 172.54 197.65"/>
              <polygon class="cls-39" points="79.64 197.65 79.64 205.37 126.09 232.18 126.09 224.47 79.64 197.65"/>
              <polygon class="cls-10" points="79.64 197.65 79.64 205.37 126.09 232.18 126.09 224.47 79.64 197.65"/>
              <polygon class="cls-40" points="126.09 215.98 79.64 189.16 126.09 162.35 172.54 189.16 126.09 215.98"/>
              <polygon class="cls-40" points="126.09 208.26 79.64 181.45 126.09 154.63 172.54 181.45 126.09 208.26"/>
              <polygon class="cls-27" points="126.09 208.26 79.64 181.45 126.09 154.63 172.54 181.45 126.09 208.26"/>
              <g>
                <polygon class="cls-35" points="126.09 191.38 108.89 181.45 126.09 171.52 143.29 181.45 126.09 191.38"/>
                <polygon class="cls-35" points="126.09 178.26 137.45 184.82 143.29 181.45 126.09 171.52 108.89 181.45 114.73 184.82 126.09 178.26"/>
                <polygon class="cls-41" points="126.09 178.26 137.45 184.82 143.29 181.45 126.09 171.52 108.89 181.45 114.73 184.82 126.09 178.26"/>
              </g>
              <polygon class="cls-40" points="172.54 181.45 172.54 189.16 126.09 215.98 126.09 208.26 172.54 181.45"/>
              <polygon class="cls-39" points="79.64 181.45 79.64 189.16 126.09 215.98 126.09 208.26 79.64 181.45"/>
              <polygon class="cls-20" points="79.64 181.45 79.64 189.16 126.09 215.98 126.09 208.26 79.64 181.45"/>
              <polygon class="cls-35" points="126.09 215.98 126.09 224.47 79.64 197.65 79.64 189.16 126.09 215.98"/>
              <g>
                <polygon class="cls-35" points="90.23 195.27 90.23 197.65 126.09 218.36 161.95 197.65 161.95 195.28 126.09 215.98 90.23 195.27"/>
                <polygon class="cls-35" points="126.09 215.98 126.09 218.36 90.23 197.65 90.23 195.27 126.09 215.98"/>
              </g>
              <polygon class="cls-15" points="79.64 189.16 79.64 197.65 126.09 224.47 172.54 197.65 172.54 189.16 126.09 215.98 79.64 189.16"/>
              <polygon class="cls-44" points="80.74 181.45 126.64 154.95 126.09 154.63 79.64 181.45 126.09 208.26 126.64 207.95 80.74 181.45"/>
            </g>
            <polygon class="cls-15" points="79.64 189.16 79.64 197.65 80.28 198.02 80.28 189.53 79.64 189.16"/>
            <polygon class="cls-15" points="172.54 189.16 172.54 197.65 171.9 198.02 171.9 189.53 172.54 189.16"/>
            <polygon class="cls-15" points="126.09 215.98 126.09 215.98 124.99 215.34 124.99 223.84 126.09 224.47 126.09 224.47 126.09 224.47 126.09 224.47 126.09 224.47 127.19 223.84 127.19 215.34 126.09 215.98"/>
          </g>
          <g>
            <g>
              <polygon class="cls-40" points="126.09 201.65 79.64 174.84 126.09 148.02 172.54 174.84 126.09 201.65"/>
              <polygon class="cls-40" points="126.09 193.94 79.64 167.12 126.09 140.31 172.54 167.13 126.09 193.94"/>
              <polygon class="cls-33" points="126.09 187.83 90.23 167.12 126.09 146.42 161.95 167.13 126.09 187.83"/>
              <polygon class="cls-40" points="172.54 167.13 172.54 174.84 126.09 201.65 126.09 193.94 172.54 167.13"/>
              <polygon class="cls-40" points="79.64 167.12 79.64 174.84 126.09 201.65 126.09 193.94 79.64 167.12"/>
              <polygon class="cls-25" points="79.64 167.12 79.64 174.84 126.09 201.65 126.09 193.94 79.64 167.12"/>
              <polygon class="cls-40" points="126.09 185.45 79.64 158.64 126.09 131.82 172.54 158.64 126.09 185.45"/>
              <polygon class="cls-40" points="126.09 177.74 79.64 150.92 126.09 124.11 172.54 150.92 126.09 177.74"/>
              <polygon class="cls-14" points="126.09 177.74 79.64 150.92 126.09 124.11 172.54 150.92 126.09 177.74"/>
              <g>
                <polygon class="cls-35" points="126.09 160.85 108.89 150.92 126.09 140.99 143.29 150.92 126.09 160.85"/>
                <polygon class="cls-35" points="126.09 147.73 137.45 154.29 143.29 150.92 126.09 140.99 108.89 150.92 114.73 154.29 126.09 147.73"/>
                <polygon class="cls-41" points="126.09 147.73 137.45 154.29 143.29 150.92 126.09 140.99 108.89 150.92 114.73 154.29 126.09 147.73"/>
              </g>
              <polygon class="cls-40" points="172.54 150.92 172.54 158.64 126.09 185.45 126.09 177.74 172.54 150.92"/>
              <polygon class="cls-40" points="79.64 150.92 79.64 158.64 126.09 185.45 126.09 177.74 79.64 150.92"/>
              <polygon class="cls-25" points="79.64 150.92 79.64 158.64 126.09 185.45 126.09 177.74 79.64 150.92"/>
              <polygon class="cls-35" points="126.09 185.45 126.09 193.94 79.64 167.12 79.64 158.64 126.09 185.45"/>
              <g>
                <polygon class="cls-35" points="90.23 164.75 90.23 167.12 126.09 187.83 161.95 167.13 161.95 164.75 126.09 185.45 90.23 164.75"/>
                <polygon class="cls-35" points="126.09 185.45 126.09 187.83 90.23 167.12 90.23 164.75 126.09 185.45"/>
              </g>
              <polygon class="cls-15" points="79.64 158.64 79.64 167.12 126.09 193.94 172.54 167.13 172.54 158.64 126.09 185.45 79.64 158.64"/>
              <polygon class="cls-41" points="80.74 150.92 126.64 124.42 126.09 124.11 79.64 150.92 126.09 177.74 126.64 177.42 80.74 150.92"/>
            </g>
            <polygon class="cls-15" points="79.64 158.64 79.64 167.12 80.28 167.49 80.28 159 79.64 158.64"/>
            <polygon class="cls-15" points="172.54 158.64 172.54 167.12 171.9 167.49 171.9 159 172.54 158.64"/>
            <polygon class="cls-15" points="126.09 185.45 126.09 185.45 124.99 184.82 124.99 193.32 126.09 193.94 126.09 193.94 126.09 193.94 126.09 193.94 126.09 193.94 127.19 193.32 127.19 184.82 126.09 185.45"/>
          </g>
          <g>
            <g>
              <polygon class="cls-40" points="126.09 171.13 79.64 144.31 126.09 117.5 172.54 144.31 126.09 171.13"/>
              <polygon class="cls-40" points="126.09 163.41 79.64 136.6 126.09 109.78 172.54 136.6 126.09 163.41"/>
              <polygon class="cls-32" points="126.09 157.3 90.23 136.6 126.09 115.89 161.95 136.6 126.09 157.3"/>
              <polygon class="cls-40" points="172.54 136.6 172.54 144.31 126.09 171.13 126.09 163.41 172.54 136.6"/>
              <polygon class="cls-40" points="79.64 136.6 79.64 144.31 126.09 171.13 126.09 163.41 79.64 136.6"/>
              <polygon class="cls-25" points="79.64 136.6 79.64 144.31 126.09 171.13 126.09 163.41 79.64 136.6"/>
              <polygon class="cls-40" points="126.09 154.92 79.64 128.11 126.09 101.29 172.54 128.11 126.09 154.92"/>
              <polygon class="cls-40" points="126.09 147.21 79.64 120.39 126.09 93.58 172.54 120.39 126.09 147.21"/>
              <polygon class="cls-8" points="126.09 147.21 79.64 120.39 126.09 93.58 172.54 120.39 126.09 147.21"/>
              <g>
                <polygon class="cls-35" points="126.09 130.32 108.89 120.39 126.09 110.47 143.29 120.39 126.09 130.32"/>
                <polygon class="cls-35" points="126.09 117.2 137.45 123.76 143.29 120.39 126.09 110.47 108.89 120.39 114.73 123.76 126.09 117.2"/>
                <polygon class="cls-41" points="126.09 117.2 137.45 123.76 143.29 120.39 126.09 110.47 108.89 120.39 114.73 123.76 126.09 117.2"/>
              </g>
              <polygon class="cls-40" points="172.54 120.39 172.54 128.11 126.09 154.92 126.09 147.21 172.54 120.39"/>
              <polygon class="cls-40" points="79.64 120.39 79.64 128.11 126.09 154.92 126.09 147.21 79.64 120.39"/>
              <polygon class="cls-25" points="79.64 120.39 79.64 128.11 126.09 154.92 126.09 147.21 79.64 120.39"/>
              <polygon class="cls-35" points="126.09 154.92 126.09 163.41 79.64 136.6 79.64 128.11 126.09 154.92"/>
              <g>
                <polygon class="cls-35" points="90.23 134.22 90.23 136.6 126.09 157.3 161.95 136.6 161.95 134.22 126.09 154.92 90.23 134.22"/>
                <polygon class="cls-35" points="126.09 154.92 126.09 157.3 90.23 136.6 90.23 134.22 126.09 154.92"/>
              </g>
              <polygon class="cls-15" points="79.64 128.11 79.64 136.6 126.09 163.41 172.54 136.6 172.54 128.11 126.09 154.92 79.64 128.11"/>
              <polygon class="cls-41" points="80.74 120.39 126.64 93.89 126.09 93.58 79.64 120.39 126.09 147.21 126.64 146.89 80.74 120.39"/>
            </g>
            <polygon class="cls-15" points="79.64 128.11 79.64 136.6 80.28 136.97 80.28 128.48 79.64 128.11"/>
            <polygon class="cls-15" points="172.54 128.11 172.54 136.6 171.9 136.97 171.9 128.48 172.54 128.11"/>
            <polygon class="cls-15" points="126.09 154.92 126.09 154.92 124.99 154.29 124.99 162.79 126.09 163.41 126.09 163.41 126.09 163.41 126.09 163.41 126.09 163.41 127.19 162.79 127.19 154.29 126.09 154.92"/>
          </g>
          <g>
            <g>
              <polygon class="cls-40" points="126.09 140.6 79.64 113.78 126.09 86.97 172.54 113.78 126.09 140.6"/>
              <polygon class="cls-40" points="126.09 132.89 79.64 106.07 126.09 79.25 172.54 106.07 126.09 132.89"/>
              <polygon class="cls-36" points="126.09 126.77 90.23 106.07 126.09 85.37 161.95 106.07 126.09 126.77"/>
              <polygon class="cls-40" points="172.54 106.07 172.54 113.78 126.09 140.6 126.09 132.89 172.54 106.07"/>
              <polygon class="cls-40" points="79.64 106.07 79.64 113.78 126.09 140.6 126.09 132.89 79.64 106.07"/>
              <polygon class="cls-25" points="79.64 106.07 79.64 113.78 126.09 140.6 126.09 132.89 79.64 106.07"/>
              <polygon class="cls-40" points="126.09 124.4 79.64 97.58 126.09 70.76 172.54 97.58 126.09 124.4"/>
              <polygon class="cls-40" points="126.09 116.68 79.64 89.87 126.09 63.05 172.54 89.87 126.09 116.68"/>
              <polygon class="cls-4" points="126.09 116.68 79.64 89.87 126.09 63.05 172.54 89.87 126.09 116.68"/>
              <polygon class="cls-40" points="172.54 89.87 172.54 97.58 126.09 124.4 126.09 116.68 172.54 89.87"/>
              <polygon class="cls-40" points="79.64 89.87 79.64 97.58 126.09 124.4 126.09 116.68 79.64 89.87"/>
              <polygon class="cls-25" points="79.64 89.87 79.64 97.58 126.09 124.4 126.09 116.68 79.64 89.87"/>
              <polygon class="cls-35" points="126.09 124.4 126.09 132.89 79.64 106.07 79.64 97.58 126.09 124.4"/>
              <g>
                <polygon class="cls-35" points="90.23 103.69 90.23 106.07 126.09 126.77 161.95 106.07 161.95 103.69 126.09 124.4 90.23 103.69"/>
                <polygon class="cls-35" points="126.09 124.4 126.09 126.77 90.23 106.07 90.23 103.69 126.09 124.4"/>
              </g>
              <polygon class="cls-15" points="79.64 97.58 79.64 106.07 126.09 132.89 172.54 106.07 172.54 97.58 126.09 124.4 79.64 97.58"/>
              <polygon class="cls-41" points="80.74 89.87 126.64 63.37 126.09 63.05 79.64 89.87 126.09 116.68 126.64 116.36 80.74 89.87"/>
            </g>
            <polygon class="cls-15" points="79.64 97.58 79.64 106.07 80.28 106.44 80.28 97.95 79.64 97.58"/>
            <polygon class="cls-15" points="172.54 97.58 172.54 106.07 171.9 106.44 171.9 97.95 172.54 97.58"/>
            <polygon class="cls-15" points="126.09 124.4 126.09 124.4 124.99 123.76 124.99 132.26 126.09 132.89 126.09 132.89 126.09 132.89 126.09 132.89 126.09 132.89 127.19 132.26 127.19 123.76 126.09 124.4"/>
          </g>
        </g>
      </g>
      <polygon class="cls-26" points="25.31 58.49 25.31 173.99 71.76 200.8 71.76 85.3 25.31 58.49"/>
      <polygon class="cls-26" points="79.64 89.87 79.64 205.37 126.09 232.18 126.09 116.68 79.64 89.87"/>
      <g>
        <path class="cls-7" d="M123.7,91.24c.62.36.62.94,0,1.3-.62.36-1.63.36-2.26,0-.62-.36-.62-.94,0-1.3.62-.36,1.63-.36,2.26,0Z"/>
        <path class="cls-30" d="M127.22,89.22c.62.36.62.94,0,1.3-.62.36-1.63.36-2.26,0-.62-.36-.62-.94,0-1.3.62-.36,1.63-.36,2.26,0Z"/>
        <path class="cls-38" d="M130.73,87.19c.62.36.62.94,0,1.3-.62.36-1.63.36-2.26,0s-.62-.94,0-1.3c.62-.36,1.63-.36,2.26,0Z"/>
      </g>
      <g>
        <path class="cls-7" d="M178.04,59.57c.62.36.62.94,0,1.3-.62.36-1.63.36-2.26,0-.62-.36-.62-.94,0-1.3.62-.36,1.63-.36,2.26,0Z"/>
        <path class="cls-30" d="M181.55,57.54c.62.36.62.94,0,1.3-.62.36-1.63.36-2.26,0s-.62-.94,0-1.3,1.63-.36,2.26,0Z"/>
        <path class="cls-38" d="M185.06,55.52c.62.36.62.94,0,1.3-.62.36-1.63.36-2.26,0s-.62-.94,0-1.3c.62-.36,1.63-.36,2.26,0Z"/>
      </g>
      <g>
        <path class="cls-7" d="M123.7,28.19c.62.36.62.94,0,1.3-.62.36-1.63.36-2.26,0-.62-.36-.62-.94,0-1.3.62-.36,1.63-.36,2.26,0Z"/>
        <path class="cls-30" d="M127.22,26.17c.62.36.62.94,0,1.3-.62.36-1.63.36-2.26,0-.62-.36-.62-.94,0-1.3.62-.36,1.63-.36,2.26,0Z"/>
        <path class="cls-38" d="M130.73,24.14c.62.36.62.94,0,1.3-.62.36-1.63.36-2.26,0-.62-.36-.62-.94,0-1.3.62-.36,1.63-.36,2.26,0Z"/>
      </g>
    </g>
  </g>
</svg>