<?xml version="1.0" encoding="UTF-8"?>
<svg id="Layer_2" data-name="Layer 2" xmlns="http://www.w3.org/2000/svg" viewBox="0 0 2500 1899.58">
  <defs>
    <style>
      .cls-1 {
        fill: #fff;
      }

      .cls-2 {
        fill: #163300;
      }

      .cls-3 {
        fill: #9fe870;
      }
    </style>
  </defs>
  <g id="Layer_1-2" data-name="Layer 1">
    <g>
      <circle class="cls-1" cx="1224.43" cy="882.18" r="879.5"/>
      <path class="cls-3" d="M1201.87,1788.84c-490.02-7.44-882.47-415.9-875.7-911.41C332.82,390.29,742.28-7.77,1228.62.12c500.96,8.12,895.95,410.63,888.92,905.84-7.07,498.03-414.12,890.5-915.67,882.88ZM1395.07,460.8c-39.14,12.94-41.24,13.51-36.96,29.19,7.14,26.15-9.33,30.99-27.56,32.6-20.04,1.77-52.63,35.42-49.88,58.09,3.18,26.23,26.6,26.65,45.95,27.45,44.6,1.85,79.3-17.86,102.61-55.26,19.54-31.35,50.29-28.53,70.51-13.05,16.99,13,56.25,27.99,29.04,66.43-10.98,15.52,1.6,20.15,14.33,17.56,11.85-2.41,23.04-8.38,34.28-13.32,17.78-7.81,18.98-18.51,3.5-29.87-11.87-8.71-26.34-13.85-35.39-26.43-2.98-4.14-5.94-8.06-1.63-12.88,2.61-2.92,6.04-4.95,9.21-1.31,17.81,20.53,48.1,26.6,60.95,52.93,7.19,14.73,6.86,48.85,33.74,10.76,9.72-13.78,14.51,4,18.47,11.82,12.19,24.13,28.41,39.8,58.57,32.27,11.77-2.94,29.24-12.43,33.74,6.78,4.39,18.71-6.23,33.7-26.59,38.05-31.09,6.63-62.41,6.52-89.89-10.51-14.8-9.18-24.46-9.05-39.98-1.56-29.7,14.34-75.75-3.67-86.55-35.43-9.45-27.78-26.44-32.87-50.92-29.52-30.66,4.19-62.29,13.1-92.14,5.02-45.81-12.41-68.9,18.75-96.55,42.55-9.26,7.97-15.76,19.19-25.17,26.93-38.24,31.45-73.78,55.57-72.35,120.43.95,43.11-3.42,69.69,27.23,108.83,35.8,45.71,72.12,57.84,120.13,49.2,49.62-8.92,96.85-10.84,145.69,4.27,20.97,6.49,31.33,11.32,22.69,34.39-7.93,21.19-2.97,40.32,9.12,59.68,25.99,41.64,31.2,85.33,6.69,130.16-10.06,18.4-6.43,36.48-3.4,56.91,8.14,54.92,27.51,106.51,40.37,159.92,3.05,12.68,3.07,24.05,21.4,22.86,77.47-5.06,163.61-98.07,161.91-177.02-.41-19.06,2.63-36.62,20.51-44,49.73-20.52,58.68-59.13,51.21-106.27-6.23-39.27,8.56-68.93,38.03-94.73,25.96-22.73,52.24-46,69.71-76.64,4.69-8.22,12.01-17.6,5.83-27.63-7.27-11.82-19.06-8.61-30.08-6.06-17.06,3.94-35.56,9.19-47.92-7.76-27.65-37.94-54.17-76.72-80.26-115.76-4.52-6.76-5.42-16.34-6.57-24.82-.99-7.32-.47-15.81,7.42-19.41,9.29-4.24,13.73,3.89,16.55,10.18,20.4,45.62,58.86,79.67,79.73,124.7,7.08,15.27,14.49,22.11,30.31,13.62,35.12-18.86,65.54-44.6,94.91-70.76,18.44-16.43,10.08-33.77-14.99-38.38-15.78-2.9-31.69-5.06-47.47-7.97-13.03-2.4-22.01-9.87-27.87-22.06-4.13-8.6-6.26-16.3,1.31-23.66,11.74-11.41,14.86,2.97,18.86,7.84,15.56,18.94,33.3,36.05,58.87,33.42,43.9-4.52,84.01-2.29,111.4,47.42,2.22-13,3.69-16.54,3.25-19.83-23.23-175.05-90.39-330.66-206.38-464.48-27.2-31.38-51.38-70.54-103.71-46.29-2,.93-5.61.97-7.21-.24-22.9-17.29-28.67.04-36.09,16.8-6.04,13.64-14.9,24.39-36.78,12.76,14.34-6.33,28.14-11.47,23.65-26.77-4.06-13.83-17.6-17.88-29.88-18.03-22.87-.28-44.25-5.17-64.27-15.55-34.58-17.93-65.14-7.9-92.89,14.04-23.28,18.4-44.61,39.13-70.36,54.52-10.81,6.46-18.8,16.55-15.54,31.01,3.67,16.28,16.17,20.65,30.59,21.82,14.62,1.18,29.44-.6,41.92,11.03,7.43,6.93,11.21,27.53,27.48,13.25,10.9-9.57,27.71-17.97,14.9-39.43-8.61-14.43-.33-28.82,12.08-38.88,3.02-2.45,9.12-2.17,13.44-1.33,1.45.28,3.66,7.61,2.35,9.41-20.91,28.66,6.13,34.48,21.74,44.36-2.31,13.53-15.93,10.94-22,19.54-32.66,46.29-51.08,47.43-87.63,5.51-7.2-8.26-18.56-12.19-19.86-4.58-6.09,35.79-40.75,39.08-59.72,58.53-11.33-27.31-35.34-47.22-39.43-77.97-1.52-11.45-15.55-10.63-25.33-8.38-9.49,2.18-16.12,9.96-13.39,19.23,6.2,21.02,16.46,39.84,16.24,63.84-.13,14.11,26.47,6.01,38.13,15.96ZM1145.88,84.98c-23.24-3.63-36.99,17.89-57.08,15.41-61.6-7.62-109.3,25.36-158.47,53.61-31.19,17.93-60.79,36.39-99.99,33.28-21.49-1.71-43.46,6.99-61.5,21.8-26.88,22.07-57.61,38.29-86.79,56.91-37.91,24.19-71.49,54.11-69.97,105.81.45,15.25-9.77,27.28-21.91,18.65-33.54-23.85-31.03,1.34-32.79,21.33-2.48,28.18-11.45,51.22-42.98,56.54-7.49,1.27-18.17,6.16-22.39-5.56-2.85-7.91,1.04-13.7,9.07-17.56,9.15-4.4,17.08-10.74,15.11-22.81-.83-5.08-3.57-10.16-9.38-9.13-11.25,2.02-14.53,12.88-19.53,20.94-84.71,136.68-130.75,285.26-130.51,446.29.04,23.55,18.42,47.35,29.69,70.35,1.89,3.86,12.13,7.4,16.39,5.72,37.03-14.64,70.05,5.02,104.85,10.16,40.41,5.97,66.87,34.15,97.53,55.87,6.39,4.52,7.31,11.7,6.21,19.96-6.38,48.1,53.72,150.83,101.11,168.06,27.99,10.18,38.76,30.44,49.95,55.01,45.22,99.29,61.53,210,129.4,301.14,31.84,42.76,62.83,74.04,115.75,80.75,5.9.75,12.64,4.67,16.15-2.85,3.04-6.5-.57-12.59-6.43-15.48-14.4-7.11-23.27-18.95-27.56-33.49-11.4-38.65-18.45-78.81-43.92-112.04-7.08-9.23-4.35-23.47,3.75-26.33,28.93-10.23,30.66-39.74,38.51-59.8,9.71-24.81,27.46-53.53,18.58-80.45-11.5-34.85,1.08-47.08,31.4-56.21,41-12.35,47.14-26.57,28.9-65.76-11.65-25.04-17.61-49.07-2.83-74.21,15.26-25.94,4.81-44.3-15.99-60.62-32.12-25.2-70.74-27.3-108.86-31.57-30.22-3.38-61.08-2.9-80.4-34.93-8.93-14.81-27.87-19.33-46.16-19.88-12.31-.37-30.04,2.38-35.97-4.42-35.59-40.86-78.7-20.57-119.85-18.9-13.02.53-23.92,3.36-34.24,11.39-32.71,25.44-38.38,23.66-55.24-15.55-10.09-23.48-33.93-34.62-50.34-52.25-9.97-10.72-20.75,15.53-33.68,21.31-23.87,10.67-36.16-1.21-38.87-23.05-3.37-27.1,1.27-53.18,29.92-65.86,27.64-12.23,56.23-24.18,78.79,9.97,4.6,6.96,11.27,16.56,20.72,10.79,9.57-5.84,2.26-15.19-.19-23.25-4.18-13.72-15.84-29.65-1.89-41.57,24.55-20.96,31.2-48.82,38.22-77.75,5.6-23.06,21.8-38.78,42.63-48.92,21.07-10.26,43.06-18.63,64.22-28.73,9.61-4.59,22.01-9.04,15.75-24.39-5.33-13.05-5.48-12.98,5.44-13.2,30.54-.6,41.98-20.23,35.35-49.96-6.32-28.37-33.9-39.64-44.44-65.47-7.1-17.39-23.43,11.79-38.28,7.22-3.45-1.06-7.45-.55-10.74-1.9-38.42-15.75-46.48-10.77-54.58,34.08-9.63,53.3-26.8,65.78-73.43,52.91-24.7-6.82-33.52-18.28-13.32-40.94,35.9-40.27,70.58-81.62,106.25-122.09,5.44-6.17,1.86-27.83,19.78-14.75,8.64,6.31,20.92,14.92,3.88,28.85-14.09,11.52-5.56,18.19,9.25,19.98,11.02,1.33,21.82,4.52,32.84,5.79,43.83,5.07,36.8-40.12,53.49-60.16,12.53-15.05-19.11-21.25-34.15-26.61-18.32-6.52-36.32-12.86-32.57-37.31,3.66-23.87,67.05-77.65,93.58-80.18.17,14.47-23.97,18.74-16.73,36.65,17.35.52,28.22-23.71,48.3-7.57,19.91,16,12.63,35.69,12.07,54.64-.25,8.49-4.64,16.78-5.46,25.33-2.41,24.8-7.12,56.4,18.62,66.48,28.88,11.31,38.77-21.77,47.89-41.13,18.98-40.28,45.24-69.52,88.61-83.36,19.16-6.11,33.23-21.47,45.77-37.02,20.38-25.26,40.97-48.71,55.09-80.34,13.7-30.7,30.78-64.32,60.62-87.66ZM1807.52,1273.19c4.41,15.32.96,35.34,20.57,40.26,13.64,3.42,24.11-8.87,27.4-20.09,10.26-35.03,17.15-71,33.41-104.22,2.94-6.01,2.51-15.16-4.03-20.49-7.25-5.91-12.75,1.25-19.41,3.16-53.18,15.24-41.99,65.89-57.93,101.38ZM1479.35,149.4c23.75,29.51,52.31,20.39,78.31,19.65,12.52-.35,19.49-12.09,18.66-23.54-1.06-14.53-14.32-10.53-23.3-9.95-24.04,1.53-48.9-.22-73.67,13.84ZM1126.38,239.7c-18.87,7.09-33.65,24.4-55.73,25.73-10.08.61-16.93,4.33-11.83,16.34,3.81,8.96,10.02,14.97,19.95,10.61,20.31-8.92,39.11-20.71,54.47-36.79,6.47-6.77,3.84-13.4-6.86-15.9ZM540.96,872.65c20.64,12.09,39.09,3.49,54.74,12.43,8.28,4.73,21.34,6.73,22.81-7.5,1.01-9.8-7.11-18.84-18.39-19.13-18.95-.5-38.28-.75-59.16,14.2ZM1339.36,410.25c-.84-5-5.19-16.75-18.23-14.91-10.72,1.51-20.89,11.23-21.36,22.79-.58,14.39,11.7,16.13,23.53,16.55,12.93.47,17.82-5.76,16.06-24.44Z"/>
    </g>
    <g>
      <g>
        <path class="cls-2" d="M304.53,1838.96l16.03,4.3s-22.73-86.55-18.37-108.66c0,0-15.7,44.08,2.35,104.36Z"/>
        <path class="cls-2" d="M336.11,1834.99l10.29-5.74s-17.43-68.05-14.42-75.31c0,0-5.73,52.38,4.13,81.05Z"/>
        <path class="cls-2" d="M243.15,1874.56l-13.88-3.78s-12.62-68.45-19.27-74.91c0,0,30.56,49.43,33.15,78.69Z"/>
        <path class="cls-2" d="M374.27,1834.69l6.91-5.48-11.43-56.61s-2.56,45.81,4.52,62.08Z"/>
        <path class="cls-2" d="M287.76,1841.74s-12.56-56.5-25.87-69.46c0,0,11.78,53.07,10.68,63.69l15.19,5.78Z"/>
        <path class="cls-2" d="M448.59,1851.9s-12.56-56.51-25.87-69.46c0,0,11.78,53.07,10.68,63.68l15.19,5.78Z"/>
        <path class="cls-2" d="M355.78,1845.32s1.2-41.49,26.23-54.06c0,0-21.64,38.24-13.62,58.64l-12.61-4.58Z"/>
        <path class="cls-2" d="M355.1,1847.55s1.2-41.49,26.23-54.06c0,0-21.65,38.26-13.64,58.65l-12.59-4.59Z"/>
        <path class="cls-2" d="M335.15,1835.88s-9.76-49.02-36.27-58.79c0,0,26.36,45.56,27.01,69.37l9.26-10.57Z"/>
        <path class="cls-2" d="M288.39,1855.02s-15.81-55.55-6.09-79.49c0,0,11.02,75.58,19.61,88.21l-13.53-8.72Z"/>
        <path class="cls-2" d="M262.72,1833.59s-7.45-38.68-17.64-53.28c0,0,11.88,58.67,8.72,75.77l8.92-22.48Z"/>
        <path class="cls-2" d="M275.72,1855.35s-14.13-37.44-48.54-51.48c0,0,42.76,46.33,41.74,62.55l6.8-11.08Z"/>
        <path class="cls-2" d="M428.07,1832.75s-14.13-37.44-48.53-51.48c0,0,42.75,46.34,41.73,62.55l6.8-11.07Z"/>
        <path class="cls-2" d="M389.79,1841.84s-6.77-14.88,7.23-30.05c0,0-.45,34.42,6.54,45.07l-13.77-15.02Z"/>
        <path class="cls-2" d="M384.69,1851.02s-9.85-44.28,6.57-62.34c0,0-2.81,57.67,6.69,78.72l-13.26-16.37Z"/>
        <path class="cls-2" d="M253.03,1848.07s-25.93-60.77-33.63-66.13c0,0,22.43,63.69,20.08,76.2l13.56-10.07Z"/>
        <path class="cls-2" d="M344.81,1849.91s-3.35-52.81,5.14-68.78c0,0,4.64,42.53,7.18,53.96l-12.32,14.82Z"/>
        <path class="cls-2" d="M405.62,1847.86s-3.35-52.81,5.14-68.76c0,0,4.64,42.52,7.18,53.95l-12.32,14.82Z"/>
        <path class="cls-2" d="M296.09,1841.51s-.5-61.76-14.39-81c0,0,32.21,58.46,29.77,90.66l-15.38-9.66Z"/>
        <path class="cls-2" d="M39.16,1863.89l-13.8,5.71s-12.36-71.26-25.36-87.97c0,0,32.68,32.32,39.16,82.26Z"/>
        <path class="cls-2" d="M119.9,1854.88l10-7.07s-21.61-86.86-19.03-96.02c0,0-2.6,66.45,9.03,103.1Z"/>
        <path class="cls-2" d="M113.67,1887.38l11.73-5.86s-17.72-68.02-14.13-75.33c0,0-7.88,52.57,2.4,81.2Z"/>
        <path class="cls-2" d="M158.06,1854.57l6.91-5.47-11.43-56.61s-2.56,45.82,4.52,62.08Z"/>
        <path class="cls-2" d="M56.31,1862.86s-12.56-56.51-5.37-71.12c0,0,11.8,53.05,17.51,63.11l-12.14,8Z"/>
        <path class="cls-2" d="M232.38,1871.79s-12.56-56.5-25.87-69.46c0,0,11.78,53.07,10.68,63.68l15.19,5.78Z"/>
        <path class="cls-2" d="M139.57,1865.2s1.2-41.49,26.23-54.06c0,0-21.64,38.25-13.62,58.65l-12.61-4.59Z"/>
        <path class="cls-2" d="M8.07,1864.8s-12-48.84,9.3-62.49c0,0-5.53,48.15,4.23,71.22l-13.53-8.72Z"/>
        <path class="cls-2" d="M61.5,1875.78s-8.99-56.11-28.85-77.65c0,0,22.38,74.66,19.61,88.21l9.24-10.57Z"/>
        <path class="cls-2" d="M76.91,1851.01s-9.72-38.51-6.25-54.22c0,0,14.14,58.49,24.66,74.47l-18.41-20.25Z"/>
        <path class="cls-2" d="M211.85,1852.64s-14.13-37.43-48.53-51.48c0,0,42.74,46.33,41.73,62.56l6.8-11.08Z"/>
        <path class="cls-2" d="M173.58,1861.73s-6.77-14.88,7.23-30.05c0,0-.46,34.41,6.54,45.07l-13.77-15.01Z"/>
        <path class="cls-2" d="M168.48,1870.91s-9.84-44.27,6.57-62.34c0,0-2.81,57.67,6.68,78.72l-13.25-16.38Z"/>
        <path class="cls-2" d="M92.57,1863.42s-1.53-62.75,3.56-69.15c0,0,6.18,65.01,13.92,76.69l-17.48-7.54Z"/>
        <path class="cls-2" d="M128.6,1869.8s-3.35-52.81,5.14-68.78c0,0,4.64,42.53,7.18,53.96l-12.32,14.82Z"/>
        <path class="cls-2" d="M189.41,1867.76s-3.35-52.82,5.14-68.78c0,0,4.64,42.54,7.18,53.96l-12.32,14.82Z"/>
        <path class="cls-2" d="M48.18,1863.99s-26.49-59.65-21.5-80.42c0,0-5.53,61.54,10.9,92.2l10.6-11.77Z"/>
        <path class="cls-2" d="M109.45,1869.85s-19.29-39.83-48.9-47.94c0,0,37.57,33.42,38.75,54.38l10.16-6.44Z"/>
        <path class="cls-2" d="M175.03,1865.83s-14.13-37.43-48.54-51.48c0,0,42.76,46.33,41.74,62.56l6.8-11.08Z"/>
      </g>
      <g>
        <path class="cls-2" d="M740.19,1813l16.03,4.3s-22.73-86.55-18.37-108.66c0,0-15.7,44.08,2.35,104.36Z"/>
        <path class="cls-2" d="M771.77,1809.03l10.29-5.74s-17.43-68.05-14.42-75.31c0,0-5.73,52.38,4.13,81.05Z"/>
        <path class="cls-2" d="M678.81,1848.6l-13.88-3.78s-12.62-68.45-19.27-74.91c0,0,30.56,49.43,33.15,78.69Z"/>
        <path class="cls-2" d="M809.93,1808.73l6.91-5.48-11.43-56.61s-2.56,45.81,4.52,62.08Z"/>
        <path class="cls-2" d="M723.42,1815.78s-12.56-56.5-25.87-69.46c0,0,11.78,53.07,10.68,63.69l15.19,5.78Z"/>
        <path class="cls-2" d="M884.25,1825.94s-12.56-56.51-25.87-69.46c0,0,11.78,53.07,10.68,63.68l15.19,5.78Z"/>
        <path class="cls-2" d="M791.44,1819.36s1.2-41.49,26.23-54.06c0,0-21.64,38.24-13.62,58.64l-12.61-4.58Z"/>
        <path class="cls-2" d="M790.76,1821.59s1.2-41.49,26.23-54.06c0,0-21.65,38.26-13.64,58.65l-12.59-4.59Z"/>
        <path class="cls-2" d="M770.81,1809.92s-9.76-49.02-36.27-58.79c0,0,26.36,45.56,27.01,69.37l9.26-10.57Z"/>
        <path class="cls-2" d="M724.05,1829.06s-15.81-55.55-6.09-79.49c0,0,11.02,75.58,19.61,88.21l-13.53-8.72Z"/>
        <path class="cls-2" d="M698.38,1807.63s-7.45-38.68-17.64-53.28c0,0,11.88,58.67,8.72,75.77l8.92-22.48Z"/>
        <path class="cls-2" d="M711.37,1829.39s-14.13-37.44-48.54-51.48c0,0,42.76,46.33,41.74,62.55l6.8-11.08Z"/>
        <path class="cls-2" d="M863.73,1806.79s-14.13-37.44-48.53-51.48c0,0,42.75,46.34,41.73,62.55l6.8-11.07Z"/>
        <path class="cls-2" d="M825.45,1815.88s-6.77-14.88,7.23-30.05c0,0-.45,34.42,6.54,45.07l-13.77-15.02Z"/>
        <path class="cls-2" d="M820.35,1825.06s-9.85-44.28,6.57-62.34c0,0-2.81,57.67,6.69,78.72l-13.26-16.37Z"/>
        <path class="cls-2" d="M688.69,1822.11s-25.93-60.77-33.63-66.13c0,0,22.43,63.69,20.08,76.2l13.56-10.07Z"/>
        <path class="cls-2" d="M780.47,1823.94s-3.35-52.81,5.14-68.78c0,0,4.64,42.53,7.18,53.96l-12.32,14.82Z"/>
        <path class="cls-2" d="M841.28,1821.9s-3.35-52.81,5.14-68.76c0,0,4.64,42.52,7.18,53.95l-12.32,14.82Z"/>
        <path class="cls-2" d="M731.75,1815.55s-.5-61.76-14.39-81c0,0,32.21,58.46,29.77,90.66l-15.38-9.66Z"/>
        <path class="cls-2" d="M474.82,1837.92l-13.8,5.71s-12.36-71.26-25.36-87.97c0,0,32.68,32.31,39.16,82.26Z"/>
        <path class="cls-2" d="M555.56,1828.92l10-7.07s-21.61-86.86-19.03-96.02c0,0-2.6,66.45,9.03,103.1Z"/>
        <path class="cls-2" d="M549.33,1861.42l11.73-5.86s-17.72-68.02-14.13-75.33c0,0-7.88,52.57,2.4,81.2Z"/>
        <path class="cls-2" d="M593.72,1828.61l6.91-5.47-11.43-56.61s-2.56,45.82,4.52,62.08Z"/>
        <path class="cls-2" d="M491.97,1836.9s-12.56-56.51-5.37-71.12c0,0,11.8,53.05,17.51,63.11l-12.14,8Z"/>
        <path class="cls-2" d="M668.04,1845.83s-12.56-56.5-25.87-69.46c0,0,11.78,53.07,10.68,63.68l15.19,5.78Z"/>
        <path class="cls-2" d="M575.23,1839.24s1.2-41.49,26.23-54.06c0,0-21.64,38.25-13.62,58.65l-12.61-4.59Z"/>
        <path class="cls-2" d="M443.72,1838.84s-12-48.84,9.3-62.49c0,0-5.53,48.15,4.23,71.22l-13.53-8.72Z"/>
        <path class="cls-2" d="M497.16,1849.82s-8.99-56.11-28.85-77.65c0,0,22.38,74.66,19.61,88.21l9.24-10.57Z"/>
        <path class="cls-2" d="M512.57,1825.05s-9.72-38.51-6.25-54.22c0,0,14.14,58.49,24.66,74.47l-18.41-20.25Z"/>
        <path class="cls-2" d="M647.51,1826.68s-14.13-37.43-48.53-51.48c0,0,42.74,46.33,41.73,62.56l6.8-11.08Z"/>
        <path class="cls-2" d="M609.24,1835.77s-6.77-14.88,7.23-30.05c0,0-.46,34.41,6.54,45.07l-13.77-15.01Z"/>
        <path class="cls-2" d="M604.14,1844.95s-9.84-44.27,6.57-62.34c0,0-2.81,57.67,6.68,78.72l-13.25-16.38Z"/>
        <path class="cls-2" d="M528.23,1837.46s-1.53-62.75,3.56-69.15c0,0,6.18,65.01,13.92,76.69l-17.48-7.54Z"/>
        <path class="cls-2" d="M564.25,1843.84s-3.35-52.81,5.14-68.78c0,0,4.64,42.53,7.18,53.96l-12.32,14.82Z"/>
        <path class="cls-2" d="M625.07,1841.8s-3.35-52.82,5.14-68.78c0,0,4.64,42.54,7.18,53.96l-12.32,14.82Z"/>
        <path class="cls-2" d="M483.84,1838.03s-26.49-59.65-21.5-80.42c0,0-5.53,61.54,10.9,92.2l10.59-11.77Z"/>
        <path class="cls-2" d="M545.11,1843.88s-19.29-39.83-48.9-47.94c0,0,37.57,33.42,38.75,54.38l10.16-6.44Z"/>
        <path class="cls-2" d="M610.69,1839.87s-14.13-37.43-48.54-51.48c0,0,42.76,46.33,41.74,62.56l6.8-11.08Z"/>
      </g>
      <g>
        <path class="cls-2" d="M1187.21,1790.69l16.03,4.3s-22.73-86.55-18.37-108.66c0,0-15.7,44.08,2.35,104.36Z"/>
        <path class="cls-2" d="M1218.79,1786.71l10.29-5.74s-17.43-68.05-14.42-75.31c0,0-5.73,52.38,4.13,81.05Z"/>
        <path class="cls-2" d="M1125.83,1826.28l-13.88-3.78s-12.62-68.45-19.27-74.91c0,0,30.56,49.43,33.15,78.69Z"/>
        <path class="cls-2" d="M1256.95,1786.41l6.91-5.48-11.43-56.61s-2.56,45.81,4.52,62.08Z"/>
        <path class="cls-2" d="M1170.43,1793.46s-12.56-56.5-25.87-69.46c0,0,11.78,53.07,10.68,63.69l15.19,5.78Z"/>
        <path class="cls-2" d="M1331.27,1803.62s-12.56-56.51-25.87-69.46c0,0,11.78,53.07,10.68,63.68l15.19,5.78Z"/>
        <path class="cls-2" d="M1238.46,1797.04s1.2-41.49,26.23-54.06c0,0-21.64,38.24-13.62,58.64l-12.61-4.58Z"/>
        <path class="cls-2" d="M1237.77,1799.27s1.2-41.49,26.23-54.06c0,0-21.65,38.26-13.64,58.65l-12.59-4.59Z"/>
        <path class="cls-2" d="M1217.83,1787.61s-9.76-49.02-36.27-58.79c0,0,26.36,45.56,27.01,69.37l9.26-10.57Z"/>
        <path class="cls-2" d="M1171.07,1806.74s-15.81-55.55-6.09-79.49c0,0,11.02,75.58,19.61,88.21l-13.53-8.72Z"/>
        <path class="cls-2" d="M1145.4,1785.31s-7.45-38.68-17.64-53.28c0,0,11.88,58.67,8.72,75.77l8.92-22.48Z"/>
        <path class="cls-2" d="M1158.39,1807.07s-14.13-37.44-48.54-51.48c0,0,42.76,46.33,41.74,62.55l6.8-11.08Z"/>
        <path class="cls-2" d="M1310.74,1784.47s-14.13-37.44-48.53-51.48c0,0,42.75,46.34,41.73,62.55l6.8-11.07Z"/>
        <path class="cls-2" d="M1272.47,1793.56s-6.77-14.88,7.23-30.05c0,0-.45,34.42,6.54,45.07l-13.77-15.02Z"/>
        <path class="cls-2" d="M1267.37,1802.74s-9.85-44.28,6.57-62.34c0,0-2.81,57.67,6.69,78.72l-13.26-16.37Z"/>
        <path class="cls-2" d="M1135.7,1799.79s-25.93-60.77-33.63-66.13c0,0,22.43,63.69,20.08,76.2l13.56-10.07Z"/>
        <path class="cls-2" d="M1227.48,1801.63s-3.35-52.81,5.14-68.78c0,0,4.64,42.53,7.18,53.96l-12.32,14.82Z"/>
        <path class="cls-2" d="M1288.29,1799.58s-3.35-52.81,5.14-68.76c0,0,4.64,42.52,7.18,53.95l-12.32,14.82Z"/>
        <path class="cls-2" d="M1178.76,1793.24s-.5-61.76-14.39-81c0,0,32.21,58.46,29.77,90.66l-15.38-9.66Z"/>
        <path class="cls-2" d="M921.84,1815.61l-13.8,5.71s-12.36-71.26-25.36-87.97c0,0,32.68,32.32,39.16,82.26Z"/>
        <path class="cls-2" d="M1002.58,1806.6l10-7.07s-21.61-86.86-19.03-96.02c0,0-2.6,66.45,9.03,103.1Z"/>
        <path class="cls-2" d="M996.35,1839.1l11.73-5.86s-17.72-68.02-14.13-75.33c0,0-7.88,52.57,2.4,81.2Z"/>
        <path class="cls-2" d="M1040.73,1806.29l6.91-5.47-11.43-56.61s-2.56,45.82,4.52,62.08Z"/>
        <path class="cls-2" d="M938.98,1814.58s-12.56-56.51-5.37-71.12c0,0,11.8,53.05,17.51,63.11l-12.14,8Z"/>
        <path class="cls-2" d="M1115.06,1823.51s-12.56-56.5-25.87-69.46c0,0,11.78,53.07,10.68,63.68l15.19,5.78Z"/>
        <path class="cls-2" d="M1022.24,1816.92s1.2-41.49,26.23-54.06c0,0-21.64,38.25-13.62,58.65l-12.61-4.59Z"/>
        <path class="cls-2" d="M890.74,1816.52s-12-48.84,9.3-62.49c0,0-5.53,48.15,4.23,71.22l-13.53-8.72Z"/>
        <path class="cls-2" d="M944.18,1827.5s-8.99-56.11-28.85-77.65c0,0,22.38,74.65,19.61,88.21l9.24-10.57Z"/>
        <path class="cls-2" d="M959.58,1802.73s-9.72-38.51-6.25-54.22c0,0,14.14,58.49,24.66,74.47l-18.41-20.25Z"/>
        <path class="cls-2" d="M1094.53,1804.36s-14.13-37.43-48.53-51.48c0,0,42.74,46.33,41.73,62.56l6.8-11.08Z"/>
        <path class="cls-2" d="M1056.25,1813.45s-6.77-14.88,7.23-30.05c0,0-.46,34.41,6.54,45.07l-13.77-15.01Z"/>
        <path class="cls-2" d="M1051.16,1822.63s-9.84-44.27,6.57-62.34c0,0-2.81,57.67,6.68,78.72l-13.25-16.38Z"/>
        <path class="cls-2" d="M975.24,1815.14s-1.53-62.75,3.56-69.15c0,0,6.18,65.01,13.92,76.69l-17.48-7.54Z"/>
        <path class="cls-2" d="M1011.27,1821.52s-3.35-52.81,5.14-68.78c0,0,4.64,42.53,7.18,53.95l-12.32,14.82Z"/>
        <path class="cls-2" d="M1072.08,1819.48s-3.35-52.82,5.14-68.78c0,0,4.64,42.54,7.18,53.96l-12.32,14.82Z"/>
        <path class="cls-2" d="M930.86,1815.71s-26.49-59.65-21.5-80.42c0,0-5.53,61.54,10.9,92.19l10.6-11.77Z"/>
        <path class="cls-2" d="M992.13,1821.57s-19.29-39.83-48.9-47.94c0,0,37.57,33.42,38.75,54.38l10.16-6.44Z"/>
        <path class="cls-2" d="M1057.71,1817.55s-14.13-37.43-48.54-51.48c0,0,42.76,46.33,41.74,62.56l6.8-11.08Z"/>
      </g>
      <g>
        <path class="cls-2" d="M1607.22,1795.85l14.15,6.27s8.19-87.5,20.21-108.54c0,0-30.82,41.05-34.36,102.27Z"/>
        <path class="cls-2" d="M1639.47,1796.03l12.07-4.29s6.87-68.74,12.36-75.44c0,0-23.99,50.45-24.43,79.73Z"/>
        <path class="cls-2" d="M1534.74,1822.74l-12.24-5.48s11.71-68.51,7.48-75.68c0,0,12.5,52.23,4.75,81.16Z"/>
        <path class="cls-2" d="M1676.87,1800.64l8.67-4.46,8.72-56.78s-18.59,44.43-17.39,61.24Z"/>
        <path class="cls-2" d="M1589.86,1796.4s7.57-56.83-.88-71.21c0,0-7.13,53.37-11.93,63.61l12.82,7.6Z"/>
        <path class="cls-2" d="M1743.44,1827.03s7.57-56.83-.88-71.2c0,0-7.13,53.37-11.93,63.6l12.82,7.6Z"/>
        <path class="cls-2" d="M1655.07,1808.65s15.75-40.39,44.61-49.45c0,0-34.57,34.58-33.9,55.55l-10.71-6.1Z"/>
        <path class="cls-2" d="M1653.61,1810.75s15.75-40.39,44.61-49.45c0,0-34.59,34.6-33.92,55.55l-10.69-6.1Z"/>
        <path class="cls-2" d="M1638.22,1796.78s7.68-49.16-14.79-62.12c0,0,9.76,47.91,2.03,71.26l12.76-9.14Z"/>
        <path class="cls-2" d="M1585.81,1809.46s4.06-56.31,21.97-78.46c0,0-15.78,75.27-11.82,88.71l-10.16-10.26Z"/>
        <path class="cls-2" d="M1568.25,1785.22s6.31-38.76,1.48-54.34c0,0-8.99,58.85-18.09,75.16l16.61-20.82Z"/>
        <path class="cls-2" d="M1573.31,1808.15s-.66-38.4-29.35-56.54c0,0,25.51,50.77,18.81,66.49l10.54-9.95Z"/>
        <path class="cls-2" d="M1730.11,1805.68s-.66-38.4-29.34-56.55c0,0,25.49,50.78,18.8,66.49l10.54-9.94Z"/>
        <path class="cls-2" d="M1689.52,1809.63s-1.39-15.41,17.62-28.43c0,0-12.53,33.57-9.44,44.88l-8.18-16.45Z"/>
        <path class="cls-2" d="M1681.32,1817.94s5.93-44.54,28.31-60.07c0,0-23,55.99-21.11,77.78l-7.2-17.71Z"/>
        <path class="cls-2" d="M1553.7,1798.12s-4-62.72-9.64-68.94c0,0-.45,65.12-7.15,77.04l16.78-8.1Z"/>
        <path class="cls-2" d="M1642.73,1811.72s15.28-52.04,29.17-66.54c0,0-10.4,42.16-11.93,53.65l-17.24,12.89Z"/>
        <path class="cls-2" d="M1702.87,1817.55s15.28-52.03,29.17-66.53c0,0-10.4,42.15-11.93,53.64l-17.24,12.89Z"/>
        <path class="cls-2" d="M1598.07,1797.25s21.2-60.42,14.38-81c0,0,10.94,61.27-2.75,92.42l-11.64-11.42Z"/>
        <path class="cls-2" d="M1339.16,1786.05l-15.49,3.81s12.95-71.22,6.11-89.23c0,0,20.59,35.78,9.38,85.42Z"/>
        <path class="cls-2" d="M1421.22,1787.64l12.25-5.63s9.39-87.66,15.13-96.28c0,0-25.88,64.6-27.38,101.9Z"/>
        <path class="cls-2" d="M1403.72,1818.6l13.52-4.22s6.58-68.75,12.65-75.43c0,0-26.16,50.36-26.17,79.65Z"/>
        <path class="cls-2" d="M1458.61,1792.25l8.67-4.46,8.72-56.79s-18.59,44.44-17.39,61.24Z"/>
        <path class="cls-2" d="M1356.28,1787.26s7.57-56.83,19.73-70.18c0,0-7.11,53.36-5.06,63.92l-14.67,6.26Z"/>
        <path class="cls-2" d="M1525.19,1818.64s7.57-56.83-.88-71.2c0,0-7.13,53.37-11.93,63.6l12.82,7.6Z"/>
        <path class="cls-2" d="M1436.81,1800.26s15.75-40.39,44.61-49.45c0,0-34.57,34.59-33.9,55.55l-10.71-6.11Z"/>
        <path class="cls-2" d="M1308.46,1782.95s5.43-49.27,31.04-59.87c0,0-22.31,46.34-20.88,70.13l-10.15-10.26Z"/>
        <path class="cls-2" d="M1356.81,1800.55s10.92-55.99-.92-79.58c0,0-4.35,75.83-11.82,88.72l12.74-9.14Z"/>
        <path class="cls-2" d="M1380.57,1778.33s4.02-38.88,12.93-53.79c0,0-6.72,58.97-2.06,75.94l-10.88-22.15Z"/>
        <path class="cls-2" d="M1511.86,1797.28s-.66-38.4-29.34-56.54c0,0,25.49,50.77,18.8,66.5l10.54-9.95Z"/>
        <path class="cls-2" d="M1471.26,1801.24s-1.39-15.41,17.62-28.43c0,0-12.53,33.56-9.44,44.88l-8.18-16.44Z"/>
        <path class="cls-2" d="M1463.06,1809.56s5.93-44.52,28.31-60.07c0,0-23,55.99-21.12,77.78l-7.19-17.71Z"/>
        <path class="cls-2" d="M1391.51,1792.47s20.54-61.52,27.77-67.11c0,0-16.8,64.32-13.34,76.73l-14.43-9.62Z"/>
        <path class="cls-2" d="M1424.48,1803.34s15.28-52.04,29.18-66.54c0,0-10.4,42.16-11.93,53.65l-17.24,12.9Z"/>
        <path class="cls-2" d="M1484.62,1809.17s15.28-52.04,29.18-66.55c0,0-10.41,42.16-11.93,53.65l-17.24,12.9Z"/>
        <path class="cls-2" d="M1347.94,1787.32s-4.94-61.69,7.24-81.35c0,0-27.01,59.42-21.73,91.49l14.49-10.14Z"/>
        <path class="cls-2" d="M1405.75,1800.92s-4.86-41.4-30.95-53.14c0,0,24.98,37.49,18.76,58.12l12.19-4.98Z"/>
        <path class="cls-2" d="M1471.24,1805.43s-.66-38.4-29.35-56.55c0,0,25.51,50.77,18.81,66.5l10.54-9.95Z"/>
      </g>
      <g>
        <path class="cls-2" d="M2027.57,1828.45l13.68,6.64s14.53-87.2,28.06-107.9c0,0-33.76,40.19-41.74,101.26Z"/>
        <path class="cls-2" d="M2059.77,1829.48l12.37-3.96s11.84-68.49,17.81-75.04c0,0-27.63,49.76-30.19,79.01Z"/>
        <path class="cls-2" d="M1953.21,1853.39l-11.83-5.8s16.67-68.13,12.96-75.41c0,0,8.7,52.51-1.14,81.21Z"/>
        <path class="cls-2" d="M2096.8,1835.09l8.99-4.23,12.82-56.5s-21.8,43.89-21.81,60.72Z"/>
        <path class="cls-2" d="M2010.18,1828.54s11.68-56.57,4.28-71.16c0,0-10.99,53.13-16.53,63.23l12.25,7.93Z"/>
        <path class="cls-2" d="M2161.4,1863.22s11.68-56.58,4.28-71.15c0,0-10.99,53.13-16.53,63.22l12.25,7.93Z"/>
        <path class="cls-2" d="M2074.44,1842.51s18.66-39.93,48.15-48.22c0,0-37.05,33.63-37.9,54.59l-10.26-6.38Z"/>
        <path class="cls-2" d="M2072.83,1844.57s18.66-39.93,48.15-48.22c0,0-37.07,33.65-37.92,54.6l-10.24-6.38Z"/>
        <path class="cls-2" d="M2058.47,1830.2s11.24-48.9-10.27-62.45c0,0,6.27,48.12-3.14,71.24l13.41-8.79Z"/>
        <path class="cls-2" d="M2005.19,1841.48s8.13-56.15,27.64-77.8c0,0-21.22,74.77-18.23,88.31l-9.4-10.52Z"/>
        <path class="cls-2" d="M1989.41,1816.79s9.11-38.55,5.41-54.24c0,0-13.25,58.56-23.52,74.61l18.11-20.36Z"/>
        <path class="cls-2" d="M1992.79,1839.84s2.13-38.38-25.22-57.27c0,0,21.81,51.4,13.98,66.93l11.25-9.66Z"/>
        <path class="cls-2" d="M2149.62,1841.53s2.13-38.38-25.21-57.28c0,0,21.79,51.41,13.97,66.93l11.25-9.65Z"/>
        <path class="cls-2" d="M2108.79,1844.4s-.27-15.43,19.66-27.94c0,0-14.95,33.21-12.69,44.59l-6.98-16.65Z"/>
        <path class="cls-2" d="M2099.99,1852.49s9.15-44.34,32.64-59.26c0,0-27.04,55.33-26.73,77.14l-5.91-17.88Z"/>
        <path class="cls-2" d="M1973.93,1829.29s.55-62.76-4.63-69.13c0,0-5.17,65.05-12.72,76.78l17.36-7.65Z"/>
        <path class="cls-2" d="M2061.89,1845.25s19.04-51.58,33.97-65.7c0,0-13.45,41.84-15.81,53.28l-18.16,12.42Z"/>
        <path class="cls-2" d="M2121.55,1852.67s19.03-51.58,33.97-65.69c0,0-13.45,41.83-15.81,53.27l-18.16,12.42Z"/>
        <path class="cls-2" d="M2018.32,1829.61s25.56-59.8,20.24-80.54c0,0,6.49,61.5-9.45,92.25l-10.8-11.72Z"/>
        <path class="cls-2" d="M1760.48,1811.54l-15.75,3.39s18.1-70.81,12.57-88.98c0,0,17.97,36.29,3.18,85.58Z"/>
        <path class="cls-2" d="M1842.34,1815.31l12.65-5.29s15.73-87.32,22.1-95.78c0,0-30.53,63.85-34.74,101.08Z"/>
        <path class="cls-2" d="M1822.61,1845.78l13.81-3.86s11.56-68.51,18.11-75.02c0,0-29.79,49.61-31.92,78.88Z"/>
        <path class="cls-2" d="M1879.36,1820.91l8.99-4.22,12.83-56.5s-21.8,43.91-21.81,60.72Z"/>
        <path class="cls-2" d="M1777.48,1813.2s11.68-56.58,24.8-69.59c0,0-10.97,53.12-9.69,63.73l-15.11,5.86Z"/>
        <path class="cls-2" d="M1943.96,1849.04s11.68-56.57,4.28-71.16c0,0-10.99,53.13-16.53,63.22l12.25,7.93Z"/>
        <path class="cls-2" d="M1857,1828.33s18.66-39.93,48.15-48.22c0,0-37.05,33.64-37.9,54.6l-10.26-6.38Z"/>
        <path class="cls-2" d="M1730.02,1807.63s8.99-49.07,35.35-58.99c0,0-25.65,45.7-25.95,69.51l-9.4-10.52Z"/>
        <path class="cls-2" d="M1777.06,1826.5s14.97-55.64,4.85-79.53c0,0-9.84,75.64-18.24,88.32l13.39-8.79Z"/>
        <path class="cls-2" d="M1802.4,1804.93s6.84-38.73,16.82-53.39c0,0-10.99,58.74-7.56,75.81l-9.26-22.42Z"/>
        <path class="cls-2" d="M1932.19,1827.35s2.13-38.38-25.22-57.27c0,0,21.79,51.4,13.96,66.93l11.25-9.66Z"/>
        <path class="cls-2" d="M1891.35,1830.23s-.27-15.44,19.66-27.94c0,0-14.95,33.2-12.68,44.58l-6.98-16.64Z"/>
        <path class="cls-2" d="M1882.55,1838.32s9.15-44.32,32.64-59.26c0,0-27.04,55.33-26.74,77.15l-5.9-17.88Z"/>
        <path class="cls-2" d="M1812.31,1819.34s24.98-60.91,32.61-66.31c0,0-21.45,63.82-18.88,76.3l-13.72-9.99Z"/>
        <path class="cls-2" d="M1844.45,1831.08s19.04-51.58,33.97-65.7c0,0-13.45,41.84-15.81,53.28l-18.16,12.43Z"/>
        <path class="cls-2" d="M1904.11,1838.5s19.04-51.59,33.97-65.71c0,0-13.45,41.85-15.81,53.28l-18.16,12.43Z"/>
        <path class="cls-2" d="M1769.15,1813.04s-.46-61.77,13.13-81.08c0,0-31.3,58.65-28.34,90.83l15.21-9.74Z"/>
        <path class="cls-2" d="M1825.92,1828.17s-1.86-41.49-27.07-53.91c0,0,22.23,38.11,14.53,58.56l12.53-4.65Z"/>
        <path class="cls-2" d="M1891.02,1834.41s2.13-38.38-25.22-57.28c0,0,21.81,51.4,13.97,66.93l11.25-9.66Z"/>
      </g>
      <g>
        <path class="cls-2" d="M2359.43,1857.66l13.68,6.64s14.53-87.2,28.06-107.9c0,0-33.77,40.19-41.74,101.26Z"/>
        <path class="cls-2" d="M2391.64,1858.69l12.37-3.96s11.84-68.49,17.81-75.04c0,0-27.63,49.76-30.19,79.01Z"/>
        <path class="cls-2" d="M2285.07,1882.6l-11.83-5.8s16.67-68.13,12.96-75.41c0,0,8.7,52.51-1.14,81.21Z"/>
        <path class="cls-2" d="M2428.66,1864.3l8.99-4.23,12.82-56.5s-21.8,43.89-21.81,60.72Z"/>
        <path class="cls-2" d="M2342.04,1857.75s11.68-56.57,4.28-71.16c0,0-10.99,53.13-16.53,63.23l12.25,7.93Z"/>
        <path class="cls-2" d="M2493.26,1892.43s11.68-56.58,4.28-71.16c0,0-10.99,53.13-16.53,63.22l12.25,7.93Z"/>
        <path class="cls-2" d="M2406.3,1871.72s18.66-39.93,48.15-48.22c0,0-37.05,33.63-37.9,54.59l-10.26-6.38Z"/>
        <path class="cls-2" d="M2404.7,1873.78s18.66-39.93,48.15-48.22c0,0-37.07,33.65-37.92,54.6l-10.24-6.38Z"/>
        <path class="cls-2" d="M2390.33,1859.41s11.24-48.9-10.27-62.45c0,0,6.27,48.12-3.14,71.24l13.41-8.79Z"/>
        <path class="cls-2" d="M2337.05,1870.69s8.13-56.15,27.64-77.8c0,0-21.22,74.77-18.23,88.31l-9.4-10.52Z"/>
        <path class="cls-2" d="M2321.27,1846s9.11-38.55,5.41-54.24c0,0-13.25,58.56-23.52,74.61l18.11-20.36Z"/>
        <path class="cls-2" d="M2324.66,1869.05s2.13-38.38-25.22-57.27c0,0,21.81,51.4,13.98,66.93l11.25-9.66Z"/>
        <path class="cls-2" d="M2481.49,1870.74s2.13-38.38-25.21-57.28c0,0,21.79,51.41,13.97,66.93l11.25-9.65Z"/>
        <path class="cls-2" d="M2440.65,1873.61s-.27-15.43,19.66-27.94c0,0-14.95,33.21-12.69,44.59l-6.98-16.65Z"/>
        <path class="cls-2" d="M2431.85,1881.7s9.15-44.34,32.64-59.26c0,0-27.04,55.33-26.73,77.14l-5.91-17.88Z"/>
        <path class="cls-2" d="M2305.8,1858.5s.55-62.76-4.63-69.13c0,0-5.17,65.05-12.72,76.78l17.36-7.65Z"/>
        <path class="cls-2" d="M2393.76,1874.46s19.04-51.58,33.97-65.7c0,0-13.45,41.84-15.81,53.28l-18.16,12.42Z"/>
        <path class="cls-2" d="M2453.42,1881.88s19.03-51.58,33.97-65.69c0,0-13.45,41.83-15.81,53.27l-18.16,12.42Z"/>
        <path class="cls-2" d="M2350.19,1858.82s25.56-59.8,20.24-80.54c0,0,6.49,61.5-9.45,92.25l-10.8-11.72Z"/>
        <path class="cls-2" d="M2092.34,1840.75l-15.75,3.39s18.1-70.81,12.57-88.98c0,0,17.97,36.29,3.18,85.58Z"/>
        <path class="cls-2" d="M2174.2,1844.52l12.65-5.29s15.73-87.32,22.1-95.78c0,0-30.53,63.85-34.74,101.08Z"/>
        <path class="cls-2" d="M2154.48,1874.99l13.81-3.86s11.56-68.51,18.11-75.02c0,0-29.79,49.61-31.92,78.88Z"/>
        <path class="cls-2" d="M2211.23,1850.12l8.99-4.22,12.83-56.5s-21.8,43.91-21.81,60.72Z"/>
        <path class="cls-2" d="M2109.35,1842.41s11.68-56.58,24.8-69.59c0,0-10.97,53.12-9.69,63.73l-15.11,5.86Z"/>
        <path class="cls-2" d="M2275.83,1878.25s11.68-56.57,4.28-71.16c0,0-10.99,53.13-16.53,63.22l12.25,7.93Z"/>
        <path class="cls-2" d="M2188.87,1857.54s18.66-39.93,48.15-48.22c0,0-37.05,33.64-37.9,54.6l-10.26-6.38Z"/>
        <path class="cls-2" d="M2061.89,1836.83s8.99-49.07,35.35-58.99c0,0-25.65,45.7-25.95,69.51l-9.4-10.52Z"/>
        <path class="cls-2" d="M2108.92,1855.71s14.97-55.64,4.85-79.53c0,0-9.84,75.64-18.24,88.32l13.39-8.79Z"/>
        <path class="cls-2" d="M2134.27,1834.14s6.84-38.73,16.82-53.39c0,0-10.99,58.74-7.56,75.81l-9.26-22.42Z"/>
        <path class="cls-2" d="M2264.06,1856.56s2.13-38.38-25.21-57.27c0,0,21.79,51.4,13.96,66.93l11.25-9.66Z"/>
        <path class="cls-2" d="M2223.22,1859.44s-.27-15.44,19.66-27.94c0,0-14.95,33.2-12.68,44.58l-6.98-16.64Z"/>
        <path class="cls-2" d="M2214.42,1867.53s9.15-44.32,32.64-59.26c0,0-27.04,55.33-26.74,77.15l-5.9-17.88Z"/>
        <path class="cls-2" d="M2144.18,1848.55s24.98-60.91,32.61-66.31c0,0-21.45,63.82-18.88,76.3l-13.72-9.99Z"/>
        <path class="cls-2" d="M2176.32,1860.29s19.04-51.58,33.97-65.7c0,0-13.45,41.84-15.81,53.28l-18.16,12.43Z"/>
        <path class="cls-2" d="M2235.98,1867.71s19.04-51.59,33.97-65.71c0,0-13.45,41.85-15.81,53.28l-18.16,12.43Z"/>
        <path class="cls-2" d="M2101.02,1842.25s-.46-61.76,13.13-81.08c0,0-31.3,58.65-28.34,90.83l15.21-9.74Z"/>
        <path class="cls-2" d="M2157.79,1857.38s-1.86-41.49-27.07-53.91c0,0,22.23,38.11,14.53,58.56l12.53-4.65Z"/>
        <path class="cls-2" d="M2222.89,1863.62s2.13-38.38-25.22-57.28c0,0,21.81,51.4,13.97,66.93l11.25-9.66Z"/>
      </g>
    </g>
    <path class="cls-2" d="M2131.77,1479.23c.08-.26.04-.56-.08-.87,1.04-11.04-9.13-19.61-9.13-19.61-6.75-5.25-17.62-20.61-17.62-20.61-3-7.87-19.87-27.36-19.87-27.36-4.87-10.49-37.86-56.6-37.86-56.6l-15.74-14.24c-.29-1.34-.61-2.56-.94-3.68l21.5-7.83-7.43-12.26,6.57-2.45c4.47-5.76-9.84-17.49-9.84-17.49l-10.9,3.97,5.5-23.13-.02.04c10.53-32.02-.7-42.98-.7-42.98,0,23.15-29.02,62.36-29.02,62.36-4.96,5.06-8.45,10.86-10.91,16.5l-52.78,19.21c-.49-.57-.77-.9-.77-.9-4.99-10.74-38.74-57.92-38.74-57.92l-16.11-14.58c-2.8-12.84-7.59-15.3-10.91-15.27-4.4-4.14-9.54-7.61-14.53-10.48-10-5.75-21.17-11.64-32.89-12.29-6.19-.34-12.64,0-18.71,1.32,12.38,4.32,26.11,14.86,35.39,22.88-12.78-1.06-26.37.76-37.47,5.73-4.51,2.02-8.97,4.67-12.42,8.27-.52.54-2.57,3.87-3.21,4.01,14.44-3.09,26.84-2.58,36.67-.76-18.28,7.75-44.49,23.88-46.17,24.92l-6.76-4.88-27.21-13.74-16.16-34.72s-6.81-6.99-9.36-1.84c-1.11,2.24-1.05,4.89-.04,7.17l9.4,21.23-10.52-5.31-11.35-47.88c-.03-.1-.05-.19-.08-.29-1.79-6.16-11.03-3.75-9.63,2.5l8.82,39.48-6.35-3.21c-17.56-18.08-39.54-30.93-61.27-27.52-.26.04-.51.08-.76.12,0,0,0,0-.01,0h0c-2.26.37-4.19.91-5.77,1.48-5.94,2-11.46,5.39-15.87,9.7-20.01,17.29-5.55,37.06-5.55,37.06-21.86,24.93-55.24,19.95-55.24,19.95,0,0-30.3-3.45-35.67-3.84-5.37-.38-33.76-1.15-33.76-1.15,0,0-76.96-3.83-77.1-3.84-38.14-1.9-77.1-.88-114.17,9.19-19.95,5.42-42.36,12.74-60.98,24.37,0,0-40.81,16.72-60.56,61.57l-55.91,2.3h-13.08l-82.07,8.07-7.23-1.92-6.68,2.2-88.75,1.95h-4.17l-1.42.38h0l-8.04,2.13-76.23,8.35-46.87,4.92c-.57-1.22-4.42-7.86-23.51-14.39l-17.32-4.01-122.43-34.94c-8.24-3.12-50.85-65.05-50.85-65.05,0,0-3.69-7.1-4.83-14.49-1.14-7.39-19.03-15.34-19.03-15.34-1.88-3.91-4.4-7.73-7.26-11.35l2.72-3.42,13.92,4.26c2.6.65,6.21.48,6.14-3.06-.02-.92-.19-1.87.09-2.74.75-2.35,3.54-3.31,5.7-3.71,0,0,2.27-.42,2.27-.42,3.66,1.05,4.61-.63,4.79-2.08.12-.97-.35-1.91-1.17-2.43l-1.43-3.79c7.6,1.34,7.76-2.01,7.31-3.88-.19-1.55-1.25-3.81-2.34-4.48-.04-.23-.05-.38-.05-.38,8.52-.28,7.95-5.11,7.95-5.11-1.7-5.91-3.34-11.84-5.14-17.73-.1-.31-.19-.64-.14-.96.14-.87,2.06-2.05,2.69-2.63l3.39-3.1c1.38-1.27.52-4.81.45-6.54-.03-.72-.05-1.44-.07-2.16-.02-.92.18-2.42.14-3.77,3.21-.54,5.23-1.07,5.46-1.57,0,0,0,0,0,0,10.17-2.55,5.22-14.06,5.22-14.06,5.85-8.29,0-22.44,0-22.44-2.67-3.17-5.64-4.23-8.39-4.25-5.33-3.51-13.02,5.01-13.02,5.01.7-25.66-15.25-17.87-15.25-17.87-8.14-6.57-14.53,3.12-14.53,3.12-20.21-8.38-34.01,2.77-34.01,2.77-1.96.13-3.66.45-5.14.9-1.8-.57-2.82-.9-2.82-.9-18.54,5.85-16.1,39.47-16.1,39.47,0,0-.95,3.23-2.41,8.34-8.85,3.7-18.67,7.8-20.03,10.24-1.74,3.14,6.72,13.8,11.7,19.63-4.54,16.89-8.65,33.53-7.95,36.06l-9.61,5.67c-21.02,16.76-26.7,29.26-26.7,29.26l.57,40.9.57,92.32-11.36,42.89c-16.48,42.61-3.41,39.77-3.41,39.77.09.13.29.27.54.41,4.95,16.74,22.73,48.23,22.73,48.23l-13.02,76.06-14.07,39.13-25.01,106.22-21.36,57.83c.67.25,1.34.48,2,.72h-.02s-4.59,19.6-4.59,19.6l68.25,14.59s29.69,7.29,31.26-8.34c0,0,.98-8.43-41.5-31.08l-1.22-4.35,3.65-4.17-2.08-9.9,11.46-8.86,25.53-76.58,6.77-5.73s33.58-74.53,43.37-95.42l19.14,35.44,5.73,58.42,5.68,88.79c-3.64,5.17-9.74,15.66.05,16.44,13.02,1.04,100.55,0,100.55,0,0,0,35.17-17.64-6.25-22.92h-17.19l-15.48-7.88c.46-.18.77-.34.89-.46,2.08-2.08-9.9-18.23-9.9-18.23v-152.63c0-10.25-2.73-20.31-7.9-29.15l-41.73-71.3,4.31-.11c60.56,6.18,107.18,25.53,107.18,25.53l8.47,13.02c15.83,24.58,52.33,130.81,66.3,172.36-1,4.07-1.89,7.96-2.64,11.4l-16.34,5.35s-11.92,8.53-7.41,15.44c.09.16.15.24.15.24,4.32,9.42,11.38,11.13,16.91,10.74l-23.5,10.92c.47,1.59.91,2.91,1.34,4.04l1.96,5.9,1.67-.11c.45.2.71.06.71.06l31.88-2.16c7.1,22.72,12.54,32.89,14.81,36.55h0c0,8.49,11.35,13.69,20.7,13.69s19.86-11.37,19.86-19.85c0-2.96-1.28-5.18-3.34-6.81-2.95-4.73-7.02-18.6-11.17-35.17l19.7-6.49h0l68.73-22.63,96.28-36.6,167.09-59.98-7.44,42.27c-14.44,9.85-9.19,14.77-9.19,14.77-2.12.93-4.01,1.95-5.71,3.03-17.9,10.14-15.84,30.92-15.84,30.92l-4.42,12.12,39.38,7.68,12.12-35.15c10.91-6.67,11.19-18.79,11.19-18.79l-.91.72c1.14-4.05.91-6.76.91-6.76,3.55-20.38,12.06-48.41,17.1-64.15l29.53-10.6c-.21,1.32-.46,2.52-.78,3.58h.72l.2,2.37s-1.13,6.64,0,18.02c1.13,11.38,10.55,23.12,9.7,28.26-1.66,9.94-14.42,11.59-21.34,16.66,5.61,2.71,12.92,1.97,18.89.99,9.42-1.54,14.01-5.99,17.19-14.61,0,0,7.89-21.39-1.65-33.87-5.37-7.02-8.84-13.86-10.85-18.49.24-1.19.76-3.92,1.32-7.72l34.92-12.54c.5,1.86,1.29,3.68,2.45,5.41,6.48,9.63,31.15,55.28,48.16,87.07l-11,62.55c-14.11,9.62-8.98,14.43-8.98,14.43-2.07.91-3.92,1.91-5.58,2.96-17.49,9.9-15.47,30.21-15.47,30.21l-4.32,11.85,38.47,7.5,11.85-34.35c10.66-6.51,10.93-18.36,10.93-18.36l-.89.7c1.12-3.96.89-6.6.89-6.6,1.34-7.71,3.41-16.53,5.73-25.35,3.61,6.19,8.47,12.58,13.76,14.06,10.91,3.03,50.84.79,50.84.79l-5.64-5.98c17.87,1.64,49.05.44,53.97-26.81,18.34,33.61,40.03,74.59,40.03,74.59l.93.9c-1.25-.16-2.1-.16-2.37.06,0,0,8.88,23.39,19.54,26.35s49.68.77,49.68.77l-17.13-18.18-5-7.93-18.53-15.22-39.7-70.46s-7.05-29.45,7.72-55.92l26.86-63.99c1.02.16,2.04.31,3.05.46,15.72,2.95,49.03,12.14,76.05,18.27,4.26,1.16,8.83,2.21,13.82,3.1-.96,6.29-1.81,17.18,1.06,28.32,0,0-4.06,59.01-3.68,78-.11.04-.18.07-.18.07l-1.02,20.68,19.77,12.31s30.58-.61,34.83,0c4.24.61-15.69-27.92-15.69-27.92,2.21-3.32-9.1-16.66-9.65-36.05-.55-19.39-3.86-36.56,2.78-44.86,0,0,8.51-5.84,14.66-27.19,7.89.02,15.75-.76,23.59-1.86,6.67-.65,13.36-1.43,20.07-2.23,17.45-2.09,35.76-5.18,53.2-2.22,4.44.75,8.51,1.91,12.52,3.31,1.03.52,1.56.86,1.56.86l8.38,3.13-9.64,63.42s-4.33,16.24,0,33.01c0,0-3.97,57.66-3.59,76.21-.11.04-.17.07-.17.07l-1,20.2,19.31,12.02s29.88-.59,34.03,0-15.33-27.28-15.33-27.28c2.16-3.25-8.89-16.28-9.43-35.22-.54-18.94-3.77-35.72,2.71-43.84,0,0,5.79-3.96,11.19-17.38l.12,10.42c-1.62,2.21,43.67,40.74,54.4,35.08.27-1.13.23-2.67-.04-4.5.01-.02.03-.03.04-.05l-.07-.17c-2.1-13.5-16.55-42.2-16.55-42.2h0s1.26-20.53,0-27.81c-1.09-6.29.24-19.01-6.21-29.62,23.05,7.1,48.67,2.94,69.45-3.54,3.02,1.91,30.37,19.92,35.87,48.03l9.93,68.9h0l.06,5.39c-.19,1.9-.3,4.76.1,8.22l.16,13.18c-1.58,2.16,42.67,39.8,53.16,34.27.26-1.11.23-2.61-.04-4.4.01-.02.03-.03.04-.05l-.07-.17c-2.06-13.19-16.17-41.24-16.17-41.24h0s1.23-20.06,0-27.17c-1.23-7.12.71-22.64-9.64-33.64-10.35-11-14.88-38.17-14.88-38.17,0,0,1.94-25.87,0-33.32-1.14-4.37-6.52-12.87-10.77-19.14,8.72-3.71,13.69-13.13,13.69-13.13,0,0,12.37-20.24,11.99-26.99-.37-6.75-3.75-10.87-3.75-10.87l5.25-10.12c18.37-15.74,15.74-33.73,15.74-37.48,0-2.09,4.53-12.29,8.54-20.94l8.3,11.66c5.37,1.79,13.42-7.16,13.42-7.16l-7.53-10.16c7.45,2.85,15.18,5.13,23.44,6.63,9.28,1.68,23.06,2.17,32.37,0,8.06-1.88,13.23-9.73,21.83-6.86,4.64,1.55,11.09,4.86,14.85,8,5.97,4.99,14.09,7.3,21.79,6.2,6.6-.94,13.01-4.41,17.27-9.57.82-.7,1.62-1.42,2.39-2.17h0c1.01.04,2.37-1.91,3.63-4.3,1.53-2.27,2.46-4.5,2.93-6.66.17-.48.31-.88.4-1.18ZM1404.53,1612.69c3.41-2.33,7.15-4.63,11.07-6.87,1.56-.89,3.14-1.77,4.74-2.63,0,0,5.46,8.48-4.5,34.72-8.05-14.33-11.29-25.16-11.31-25.22ZM1189.41,1381.4l6.26-.13c-2.02,35.7,9.81,74.97.3,109.48-2.91-12.17-5.54-22.8-7.25-29.63-4.32-17.24-16.01-41.07.69-79.72ZM1339.06,1513.81c1.37.26,2.87.56,4.48.9l-9.8,3.85,2.19-5.23c1.05.17,2.09.32,3.13.48ZM1216.31,1564.7c7.96-6.88,14.14-13.51,14.14-13.51,4.66-6.67,14.68-13.75,26.11-20.27,1.59-.91,3.21-1.81,4.85-2.69,0,0,3.13,4.87.42,18.59l-45.53,17.89ZM1197.7,1365.13c-.46,2.24-.84,4.5-1.14,6.77l-2.66.11c1.17-2.25,2.44-4.54,3.8-6.88ZM781.4,1401.59h0l-2.32.24,2.32-.24ZM664.62,1504.98s-5.65-1.91-14.65-4.42h0c-.92-.26-1.87-.52-2.85-.78-.05-.01-.1-.03-.15-.04-5.3-1.43-11.51-3.01-18.29-4.51-.15-.03-.31-.07-.47-.1-1.67-.37-3.34-.73-4.99-1.08-25.89-5.5-57.79-10.7-76.58-10.84,2.82-8.69,3.74-16.14,5.29-17.86,2.56-2.84,17.9-108.51,17.9-108.51,20.74,28.12,57.24,39.48,57.24,39.48l106.38,16.48c.55-.27,1.08-.64,1.6-1.09l13.18,15.34s8.73,2.78,9.65-3.34c0,0,3.7,5.01,8.71-.83,0,0,7.23,5.59,9.74-3.61,0,0,10.59,4.52,7.8-8.46l29.2-1.29c13.63,4.45,30.05-3.62,30.05-3.62l63.43-9.18c10.29,3.62,20.87-1.11,20.87-1.11l78.46-3.06c11.96,3.62,24.2-1.39,24.2-1.39,18.08-4.73,73.73-6.96,75.4-6.35,9.05,3.3,12.24,0,12.24,0l18.64-2.28,36.51-.78c-5.41,15.66-8.22,34.32-6.34,56.38,0,0,9.57,36.3,18.15,76.84-14.21,21.44-33.94,30.64-33.94,30.64-26.95,11.49-11.44,32.49-11.44,32.49l-1.58,14.09-238.12,76.68-102.4,35.07s0,0,0,0l-29.9,9.79c-3.58-16.93-6.03-29.53-6.03-29.53-9.9-9.38-17.31-2.93-17.31-2.93l-50.56-161.22-2.98-66.12h-.03c-.26-1.46-2.72-2.61-5.7-2.61s-5.44,1.14-5.7,2.61h-.03c-1.56,36.47-14.59,51.06-14.59,51.06ZM1358.45,1557.21c-.97,5.83-2.45,11.55-4.6,17.12-12.51,32.39-41.41,45.86-41.41,45.86-6.65,2.83-10.65,6.26-12.92,9.8-1.26-10.17-2.07-31.47,8.92-51.15l1.81-4.32,48.2-17.3ZM1404.53,1712.2c-1.55,9.26-10.75,17.87-18.39,18.53l-14.44,7.99-6.45-6.85-5.12-8.11-18.96-15.58-9.66-17.14c.94-2.84,1.5-4.47,1.5-4.47,3.85-20.2,25.66-35.28,25.66-35.28,10.3-5.03,22.75-16.86,28.39-22.52h0s-2.04,11.97,0,32.48c2.04,20.51,19.03,41.69,17.48,50.95Z"/>
  </g>
</svg>