<?xml version="1.0" encoding="UTF-8"?>
<svg id="Layer_2" data-name="Layer 2" xmlns="http://www.w3.org/2000/svg" xmlns:xlink="http://www.w3.org/1999/xlink" viewBox="0 0 45.47 31.15">
  <defs>
    <style>
      .cls-1 {
        clip-path: url(#clippath-6);
      }

      .cls-2 {
        clip-path: url(#clippath-7);
      }

      .cls-3 {
        clip-path: url(#clippath-4);
      }

      .cls-4 {
        fill: none;
      }

      .cls-5 {
        clip-path: url(#clippath-1);
      }

      .cls-6 {
        fill: #163300;
      }

      .cls-7 {
        fill: #9fe870;
      }

      .cls-8 {
        clip-path: url(#clippath-5);
      }

      .cls-9 {
        clip-path: url(#clippath-8);
      }

      .cls-10 {
        clip-path: url(#clippath-3);
      }

      .cls-11 {
        clip-path: url(#clippath-2);
      }

      .cls-12 {
        clip-path: url(#clippath);
      }

      .cls-13 {
        fill: #c5f1a9;
      }
    </style>
    <clipPath id="clippath">
      <rect class="cls-4" width="45.47" height="31.15"/>
    </clipPath>
    <clipPath id="clippath-1">
      <rect class="cls-4" width="45.47" height="31.15"/>
    </clipPath>
    <clipPath id="clippath-2">
      <rect class="cls-4" width="45.47" height="31.15"/>
    </clipPath>
    <clipPath id="clippath-3">
      <rect class="cls-4" width="45.47" height="31.15"/>
    </clipPath>
    <clipPath id="clippath-4">
      <rect class="cls-4" width="45.47" height="31.15"/>
    </clipPath>
    <clipPath id="clippath-5">
      <rect class="cls-4" width="45.47" height="31.15"/>
    </clipPath>
    <clipPath id="clippath-6">
      <rect class="cls-4" width="45.47" height="31.15"/>
    </clipPath>
    <clipPath id="clippath-7">
      <rect class="cls-4" width="45.47" height="31.15"/>
    </clipPath>
    <clipPath id="clippath-8">
      <rect class="cls-4" width="45.47" height="31.15"/>
    </clipPath>
  </defs>
  <g id="Layer_1-2" data-name="Layer 1">
    <g>
      <g class="cls-12">
        <g>
          <g>
            <path class="cls-6" d="M19.35,7.82c-.1,0-.19.11-.21.26l-5.98.36-.99-1.45-17.89,1.32v.12l17.84-1.29.99,1.46,6.04-.36c.02.13.11.22.21.21.12,0,.22-.15.22-.33,0-.18-.1-.31-.22-.3ZM19.35,8.21s-.05-.03-.05-.07c0-.05.02-.08.05-.08.03,0,.05.03.05.08,0,.04-.02.08-.05.08Z"/>
            <path class="cls-6" d="M21.32,4.04c-.11.01-.2.12-.22.27h0l-5.38.48-.41-.42-21.04,1.96v.13l21.04-1.93.41.42,5.38-.47h0c.03.13.11.22.22.21.12-.01.22-.16.22-.34,0-.18-.1-.31-.22-.3ZM21.32,4.44s-.06-.03-.06-.08c0-.04.03-.08.06-.08.03,0,.05.03.05.07,0,.05-.03.08-.05.08Z"/>
            <path class="cls-6" d="M22.1,3.6c-.12.01-.22.16-.22.34,0,.09.03.16.07.22h0l-.52.78h0l-6.01.51-.5-.71-20.63,1.87v.13l20.63-1.84.5.71,6.01-.5h0l.58-.88h0s.06.03.09.02c.12-.01.23-.17.23-.34,0-.18-.1-.31-.23-.3ZM22.1,4s-.05-.03-.05-.08c0-.04.02-.08.05-.08h0s.06.03.06.08c0,.05-.03.08-.06.08Z"/>
            <path class="cls-6" d="M22.9,3.52c-.13.01-.23.16-.23.34,0,.09.02.17.07.22h0l-.86,1.3h0l-6.86.55-.5-.71-20.23,1.76v.12l20.23-1.73.5.71,6.86-.54h0l.92-1.39h0s.06.03.1.02c.12-.01.23-.17.23-.35,0-.18-.1-.31-.23-.3ZM22.9,3.92s-.06-.03-.06-.08c0-.05.02-.08.06-.08.02,0,.04.01.04.03.02.05,0,.12-.05.12Z"/>
            <path class="cls-6" d="M23.7,3.45c-.13.01-.23.16-.23.34,0,.09.03.17.07.22h0l-1.44,2.15-7.09.53-.7-1-20.03,1.66v.13l20.03-1.64.7,1,7.09-.52,1.5-2.25h0s.06.03.1.02c.13-.01.23-.17.23-.35,0-.18-.1-.31-.23-.3ZM23.7,3.85s-.06-.03-.06-.08.03-.08.06-.08.06.03.06.07-.03.08-.06.09Z"/>
            <path class="cls-6" d="M24.51,3.37c-.13.01-.23.16-.23.35,0,.09.03.17.07.22h0l-1.91,2.84h0l-7.63.53-.8-1.15-19.74,1.57v.13l19.74-1.54.8,1.15,7.63-.52h0l1.97-2.94h0s.06.03.1.02c.13-.01.23-.17.23-.35s-.1-.32-.23-.3ZM24.49,3.77s-.02-.02-.03-.03c-.03-.06,0-.13.05-.13h0s.06.03.06.08c0,.05-.04.1-.08.08Z"/>
          </g>
          <g>
            <path class="cls-6" d="M9.95,7.72c-.09,0-.16.11-.18.24h0l-1.98.13-.36-.4-13.16.93v.13l13.16-.91.36.4,1.98-.13h0c.02.12.09.2.18.2.1,0,.18-.14.18-.3s-.08-.28-.18-.28ZM9.95,8.08s-.05-.02-.05-.07c0-.04.02-.07.05-.07.02,0,.05.03.05.07,0,.04-.02.07-.05.08Z"/>
            <path class="cls-6" d="M10.6,7.68c-.1,0-.18.14-.18.3,0,.08.02.15.05.2h0l-.43.7-2.51.15-.44-.68-12.81.83v.13l12.81-.82.44.68,2.51-.14.48-.79h0s.05.03.07.02c.1,0,.19-.14.19-.31,0-.16-.08-.29-.19-.28ZM10.6,8.04s-.04-.03-.04-.07c0-.04.02-.07.04-.08h0s.05.03.05.07c0,.04-.02.07-.05.08Z"/>
            <path class="cls-6" d="M11.26,7.63c-.11,0-.19.14-.19.3,0,.08.02.15.05.2h0l-.71,1.16h0l-3.24.18-.44-.68-12.45.76v.12l12.45-.75.44.68,3.24-.17h0l.77-1.24h0s.05.03.08.02c.1,0,.19-.15.19-.31,0-.16-.08-.29-.19-.28ZM11.26,7.99s-.05-.03-.05-.07c0-.04.02-.07.05-.07.02,0,.03.01.04.03.02.05,0,.11-.04.11Z"/>
            <path class="cls-6" d="M11.92,7.58c-.1,0-.19.14-.19.3,0,.08.02.15.06.2h0l-1.19,1.92h0l-3.42.17-.61-.96-12.28.7v.13l12.28-.69.61.96,3.42-.16h0l1.24-2.01h0s.05.03.08.02c.11,0,.19-.15.19-.31,0-.16-.08-.29-.19-.28ZM11.92,7.95s-.05-.03-.05-.07.02-.07.05-.07c.03,0,.05.03.05.07,0,.04-.02.08-.05.08Z"/>
          </g>
          <g>
            <path class="cls-6" d="M21.08,8.66c-.09,0-.17.1-.2.23l-9.44.51-.71,1.15-16.45.73v.12l16.45-.71.71-1.15,9.43-.49c.02.13.11.23.21.23.12,0,.21-.15.21-.31,0-.17-.1-.3-.21-.3ZM21.08,9.04s-.05-.03-.05-.07.02-.08.05-.08c.03,0,.05.03.05.07s-.02.07-.05.08Z"/>
            <path class="cls-6" d="M13.22,10c-.08,0-.16.1-.18.21l-1.73.08-.71,1.14-16.31.6v.12l16.31-.58.71-1.14,1.73-.08c.02.12.1.22.18.21.1,0,.19-.14.19-.29,0-.16-.08-.28-.19-.27ZM13.22,10.35s-.05-.03-.05-.07.02-.07.05-.07c.03,0,.05.03.05.07,0,.04-.02.07-.05.07Z"/>
            <path class="cls-6" d="M12.47,11.04c-.08,0-.15.09-.18.21h-.32s-.49.85-.49.85l-17.2.53v.12l17.21-.51.49-.83h.31c.02.11.09.2.18.2.1,0,.18-.13.18-.29,0-.15-.08-.28-.18-.27ZM12.47,11.39s-.05-.03-.05-.07.02-.07.05-.07c.02,0,.05.03.05.07,0,.04-.02.07-.05.07Z"/>
            <path class="cls-6" d="M19,11.21c-.09,0-.17.1-.2.22l-4.56.16-1.48,2.3-18.48.28v.12l18.48-.26,1.48-2.3,4.56-.15c.02.14.1.23.2.23.11,0,.2-.14.2-.31,0-.16-.09-.29-.2-.29ZM19,11.58s-.05-.03-.05-.07c0-.04.02-.07.05-.07.03,0,.05.04.05.07,0,.04-.02.08-.05.08Z"/>
            <path class="cls-6" d="M19.92,9.68c-.09,0-.17.1-.2.22l-5.39.25-1.85,2.9-18.2.41v.12l18.2-.39,1.85-2.89,5.39-.24c.02.13.1.23.2.23.12,0,.21-.15.21-.31,0-.17-.09-.29-.21-.29ZM19.92,10.05s-.05-.03-.05-.07.02-.08.05-.08c.03,0,.05.03.05.07s-.02.07-.05.08Z"/>
            <path class="cls-6" d="M18.29,11.97c-.09,0-.17.09-.19.22l-3.57.1-1.49,2.3-18.75.18v.12l18.75-.15,1.49-2.3,3.57-.1c.02.13.1.23.2.22.11,0,.2-.14.2-.3,0-.16-.09-.29-.2-.29ZM18.29,12.34s-.05-.04-.05-.08c0-.04.02-.07.05-.07.03,0,.05.03.05.07,0,.04-.02.08-.05.08Z"/>
            <path class="cls-6" d="M18.42,13.76c-.09,0-.17.09-.19.22h-.33s-1.58,2.35-1.58,2.35l-22.04-.11v.12l22.04.14,1.58-2.34h.33c.02.13.1.22.2.22.11,0,.2-.13.2-.3,0-.16-.09-.29-.2-.29ZM18.42,14.13s-.05-.04-.05-.08c0-.04.02-.07.05-.07.03,0,.05.03.05.07,0,.04-.02.08-.05.08Z"/>
            <path class="cls-6" d="M17.01,13.13c-.11,0-.2.13-.2.29,0,.08.02.15.06.2l-1.03,1.54-21.56.1v.12l21.56-.07,1.09-1.62s.05.03.08.02c.11,0,.2-.14.2-.3,0-.16-.09-.29-.2-.29ZM17.01,13.49s-.05-.04-.05-.07c0-.04.02-.07.05-.07s.05.03.05.07c0,.04-.02.07-.05.07Z"/>
            <path class="cls-6" d="M18.16,14.77c-.11,0-.2.13-.2.3,0,.08.02.15.06.2l-1.05,1.55-22.69-.2v.12l22.69.23,1.11-1.64s.05.03.08.03c.11,0,.2-.14.2-.3,0-.17-.09-.29-.2-.29ZM18.16,15.14s-.05-.04-.05-.07c0-.04.02-.07.05-.07s.05.03.05.07c0,.04-.02.07-.05.07Z"/>
          </g>
          <g>
            <path class="cls-6" d="M8.96,19.75c-.07,0-.14.07-.15.18l-.85-.03-.23-.37-13.45-.45v.11l13.37.46.23.37.93.04c.02.1.08.18.15.18.09,0,.16-.11.16-.24,0-.14-.07-.25-.16-.25ZM8.96,20.05s-.04-.03-.04-.06c0-.04.02-.06.04-.06.02,0,.04.03.04.06,0,.03-.02.06-.04.06Z"/>
            <path class="cls-6" d="M11.98,17.57c-.08,0-.14.08-.16.2l-1.29-.02-.32-.38-15.94-.23v.11l15.94.24.32.38,1.29.02c.02.1.08.18.16.18.09,0,.17-.11.17-.25,0-.14-.07-.25-.17-.26ZM11.98,17.89s-.04-.03-.04-.07.02-.06.04-.06.04.03.04.07-.02.06-.04.06Z"/>
            <path class="cls-6" d="M12.56,17.58c-.09,0-.17.11-.17.25,0,.07.02.13.05.18l-.38.57-1.77-.04-.39-.63-15.62-.3v.11l15.62.31.39.63,1.77.05.42-.65s.05.03.07.03c.09,0,.17-.11.17-.25s-.07-.26-.17-.26ZM12.56,17.9s-.04-.03-.04-.07.01-.06.04-.06c.02,0,.04.03.04.07s-.02.06-.04.06Z"/>
            <path class="cls-6" d="M13.14,17.59c-.09,0-.17.11-.17.25,0,.07.02.13.05.18l-.63.95-2.41-.07-.39-.63-15.31-.34v.1l15.31.35.39.63,2.41.07.68-1.02s.04.03.07.03c.09,0,.17-.11.17-.25,0-.14-.07-.26-.16-.26ZM13.14,17.91s-.04-.03-.04-.07.02-.06.04-.06.04.03.04.07-.02.06-.04.06Z"/>
            <path class="cls-6" d="M13.73,17.6c-.09,0-.17.11-.17.26,0,.07.02.14.05.18l-1.05,1.58-2.58-.08-.55-.88-15.15-.38v.11l15.15.4.55.88,2.58.09,1.1-1.65s.05.03.07.03c.09,0,.17-.11.17-.26s-.08-.26-.17-.26ZM13.73,17.92s-.04-.03-.04-.07.02-.06.04-.06.04.03.04.07-.02.07-.04.07Z"/>
            <path class="cls-6" d="M14.32,17.61c-.09,0-.17.11-.17.26,0,.07.02.14.05.18l-1.39,2.08-2.98-.11-.63-1.02-14.91-.42v.11l14.91.44.63,1.01,2.98.11,1.44-2.16s.05.03.07.03c.09,0,.17-.11.17-.26s-.08-.26-.17-.26ZM14.32,17.93s-.04-.03-.04-.07.02-.06.04-.06.04.03.04.07-.02.07-.04.06Z"/>
            <path class="cls-6" d="M17.75,18.86c-.13-.12-.26-.04-.3.12l-2.96-.08-1.52,2.25-18.69-.85v.11l18.69.87,1.52-2.25,2.96.08c.02.12.09.21.18.21.14,0,.25-.25.12-.47ZM17.63,19.13s-.05-.03-.05-.07c0-.04.02-.06.05-.06.02,0,.04.03.04.06,0,.04-.02.07-.04.07Z"/>
            <path class="cls-6" d="M18.71,18.29c-.08,0-.15.08-.18.19l-4.04-.09-1.52,2.26-18.69-.77v.11l18.69.79,1.52-2.26,4.04.09c.03.17.17.29.32.15.11-.24,0-.47-.14-.47ZM18.71,18.62s-.05-.03-.05-.06c0-.04.02-.07.05-.07.02,0,.04.03.04.07,0,.04-.02.06-.04.06Z"/>
            <path class="cls-6" d="M15.87,19.37c-.1,0-.17.11-.17.25,0,.04,0,.08.02.11l-.39.56-1.43-.05-.84,1.24-18.77-.91v.11l18.77.93.84-1.24,1.43.05.42-.61s.08.08.12.08c.1,0,.17-.11.17-.26,0-.14-.08-.26-.17-.26ZM15.87,19.7s-.04-.03-.04-.07c0-.04.02-.06.04-.06.02,0,.04.03.04.06,0,.04-.02.07-.04.07Z"/>
            <path class="cls-6" d="M17.3,19.97c-.08,0-.15.08-.17.18l-1.19-.04-.44.64-1.52-.06-.76,1.11-3.72-.19-.16.12-15.07-.78v.11l15.07.8.16-.12,3.72.19.76-1.12,1.52.06.44-.63,1.19.04c.02.12.09.21.17.21.1,0,.18-.11.18-.26s-.08-.27-.18-.27ZM17.3,20.3s-.05-.03-.05-.07c0-.03.02-.06.05-.06.02,0,.04.03.04.06,0,.04-.02.07-.04.07Z"/>
            <path class="cls-6" d="M19.65,21.13c-.08,0-.15.08-.18.19l-5.4-.24-.76,1.12-19.03-1.03v.11l19.03,1.05.76-1.12,5.4.25c.02.12.09.22.18.22.1,0,.19-.11.19-.26s-.08-.28-.19-.28ZM19.65,21.47s-.05-.03-.05-.07c0-.04.02-.07.05-.07.02,0,.05.03.05.07,0,.03-.02.06-.05.06Z"/>
            <path class="cls-6" d="M18.12,22.13c-.08,0-.15.07-.17.19l-3.05-.16-.34-.54-.4-.02-.68.99-19.19-1.1v.11l19.19,1.12.68-.99.4.02.34.53,3.05.17c.02.12.09.21.18.22.1,0,.18-.11.18-.26,0-.15-.08-.27-.18-.28ZM18.12,22.46s-.05-.03-.05-.07c0-.04.02-.07.05-.07.02,0,.04.04.04.07s-.02.06-.04.06Z"/>
            <path class="cls-6" d="M21.67,23.41c-.09,0-.16.07-.18.19l-27.2-1.67v.1l27.2,1.7c.02.13.1.22.19.22.11,0,.19-.11.19-.26,0-.15-.09-.28-.19-.28ZM21.67,23.75s-.05-.04-.05-.07.02-.07.05-.07c.02,0,.05.04.05.07s-.02.07-.05.07Z"/>
            <path class="cls-6" d="M23.31,24.76c-.09,0-.16.07-.19.18l-5.56-.39-.54-.83-9.22-.6-.53.81-13-.94v.11l13,.95.53-.82,9.22.61.54.83,5.55.4c.02.12.1.22.19.23.11,0,.2-.11.2-.26,0-.16-.09-.29-.2-.29ZM23.31,25.1s-.05-.04-.05-.07c0-.04.02-.07.05-.07.03,0,.05.04.05.08,0,.03-.02.06-.05.06Z"/>
            <path class="cls-6" d="M28.43,26.41c-.1,0-.18.08-.21.2l-11.64-.94-.96-1.51-5.08-.35-.71,1.07-15.54-1.22v.11l15.54,1.24.71-1.07,5.08.36.96,1.51,11.64.95c.04.18.2.3.36.17.14-.23.01-.5-.15-.51ZM28.48,26.7s-.02.07-.05.06c-.03,0-.05-.03-.05-.07,0-.04.02-.07.05-.07.03,0,.06.03.05.08Z"/>
            <path class="cls-6" d="M9.35,23.9c-.08,0-.14.07-.15.18l-.85-.06-.23.35-13.83-1.05v.11l13.83,1.06.23-.35.86.06c.02.11.08.19.15.19.09,0,.16-.1.16-.24s-.07-.25-.16-.26ZM9.35,24.22s-.04-.03-.04-.07.02-.06.04-.06c.02,0,.04.03.04.07,0,.03-.02.06-.04.06Z"/>
            <path class="cls-6" d="M15.08,25.42c-.08,0-.14.07-.17.17l-4.17-.34-.64.94-15.82-1.42v.11l15.82,1.44.64-.94,4.17.34c.02.12.09.21.17.22.1,0,.17-.1.17-.25,0-.14-.08-.26-.17-.27ZM15.08,25.74s-.04-.03-.04-.07.02-.06.04-.06c.02,0,.04.03.04.06s-.02.06-.04.06Z"/>
            <path class="cls-6" d="M14.56,26.21c-.08,0-.14.07-.16.17l-3.78-.33-.64.94-15.7-1.52v.11l15.7,1.54.64-.93,3.78.34c.02.12.08.21.17.21.1,0,.17-.1.17-.24,0-.14-.08-.27-.17-.28ZM14.56,26.53s-.04-.03-.04-.07c0-.04.02-.07.04-.06.02,0,.04.04.04.07,0,.03-.01.06-.04.06Z"/>
            <path class="cls-6" d="M24.59,28.16c-.09,0-.17.07-.19.18l-13.16-1.27-.48.61-16.48-1.68v.11l16.56,1.71.48-.61,13.08,1.28c.02.13.1.23.2.24.11.01.2-.11.2-.26s-.09-.29-.2-.3ZM24.59,28.52s-.05-.04-.05-.08.02-.07.05-.06c.03,0,.05.03.05.07,0,.04-.02.07-.05.07Z"/>
            <path class="cls-6" d="M27.25,27.54c-.16-.19-.32-.09-.36.09l-10.4-.93-1.23-1.93-4.49-.33-.95,1.42-15.54-1.35v.11l15.54,1.37.95-1.42,4.49.34,1.23,1.93,10.39.94c.02.13.1.23.2.24.16.01.28-.22.16-.47ZM27.09,27.8s-.05-.04-.05-.08c0-.04.02-.07.05-.07.03,0,.05.04.05.08,0,.04-.03.07-.05.07Z"/>
          </g>
        </g>
      </g>
      <g class="cls-5">
        <g>
          <g>
            <path class="cls-6" d="M58.64,28.85l-14.49-1.15-1.57-2.03-11.39-.76c-.03-.15-.13-.26-.25-.26-.14,0-.26.14-.26.32s.11.35.26.36c.12,0,.23-.1.25-.25l11.31.77,1.56,2.03,14.57,1.18v-.2h0ZM30.95,25.07s-.06-.04-.06-.09c0-.05.03-.08.06-.08.03,0,.06.04.06.09,0,.05-.03.09-.06.08Z"/>
            <path class="cls-6" d="M58.64,32.55l-19.35-1.97-.58-.6-6.92-.68h0c-.04-.15-.13-.26-.25-.27-.14-.01-.26.13-.26.32s.12.35.26.37c.12.01.23-.09.25-.24h0l6.92.69.58.6,19.35,2v-.21ZM31.54,29.45s-.06-.04-.06-.09c0-.05.03-.08.06-.08.04,0,.07.04.07.09,0,.05-.03.08-.07.07Z"/>
            <path class="cls-6" d="M58.64,31.64l-18.77-1.81-.73-.98-7.74-.7h0l-.67.83h0s-.07-.04-.1-.04c-.14-.01-.26.13-.26.32s.12.35.26.36c.14.01.25-.12.25-.31,0-.1-.03-.18-.08-.25h0l.59-.73h0l7.74.71.73.98,18.77,1.83v-.21h0ZM30.64,29.37h0s-.07-.05-.07-.09c0-.05.03-.08.07-.08.03,0,.06.04.06.09,0,.05-.02.08-.06.08Z"/>
            <path class="cls-6" d="M58.64,31.02l-18.18-1.68-.73-.98-8.84-.76h0l-1.04,1.3h0s-.07-.04-.11-.05c-.14-.01-.25.13-.25.32s.11.35.25.36c.14.01.26-.12.26-.31,0-.1-.03-.18-.07-.25h0l.97-1.21h0l8.84.77.73.98,18.18,1.71v-.2h0ZM29.74,29.27s-.04-.02-.05-.05c-.02-.06.01-.12.05-.12.04,0,.06.05.06.09,0,.05-.03.08-.07.07Z"/>
            <path class="cls-6" d="M58.64,30.4l-17.89-1.59-1.03-1.37-9.09-.73-1.67,2.1h0s-.07-.04-.1-.04c-.14-.01-.25.13-.25.32,0,.19.11.35.25.36.14.01.25-.12.25-.31,0-.1-.03-.18-.07-.24h0l1.6-2,9.09.74,1.03,1.37,17.89,1.61v-.21ZM28.86,29.18s-.07-.04-.07-.09.03-.08.07-.08c.03,0,.06.05.06.09s-.03.08-.06.07Z"/>
            <path class="cls-6" d="M58.64,29.78l-17.45-1.48-1.18-1.56-9.77-.73h0l-2.15,2.73h0s-.07-.04-.1-.04c-.14-.01-.24.13-.24.31s.11.34.24.36.25-.12.25-.31c0-.1-.03-.18-.07-.24h0l2.08-2.63h0l9.77.74,1.18,1.57,17.45,1.51v-.21h0ZM27.99,29.1h0s-.06-.05-.06-.09c0-.05.04-.1.08-.07.01,0,.02.02.03.03.03.06,0,.13-.05.12Z"/>
          </g>
          <g>
            <path class="cls-6" d="M58.64,26.8l-4.81-.32-.87-1.05-5.97-.36h0l-1.3,1.48h0s-.08-.04-.13-.05c-.17-.01-.31.15-.31.36s.14.39.31.4c.17.01.32-.14.32-.35,0-.11-.03-.2-.09-.27h0l1.21-1.37h0l5.97.37.87,1.05,4.81.33v-.2h0ZM45.56,26.96s-.05-.02-.06-.05c-.03-.07.01-.14.07-.13.05,0,.08.05.08.1s-.04.09-.08.08Z"/>
            <path class="cls-6" d="M58.64,26.18l-4.46-.28-1.22-1.47-6.28-.34h0l-2.08,2.38h0s-.08-.04-.13-.05c-.17-.01-.31.15-.31.36,0,.21.14.38.31.4.17.01.31-.14.31-.35,0-.11-.04-.2-.09-.27h0l1.99-2.26h0l6.28.35,1.22,1.47,4.46.29v-.21h0ZM44.47,26.88s-.08-.04-.08-.1.04-.09.08-.09c.04,0,.08.05.08.1,0,.05-.04.09-.08.08Z"/>
          </g>
          <g>
            <path class="cls-6" d="M58.64,24l-12.19-.61-1.2,1.38-12.96-.77c-.03-.15-.13-.26-.24-.27-.14,0-.25.14-.25.31,0,.18.11.34.25.35.11,0,.21-.09.24-.22l12.97.79,1.2-1.37,12.19.62v-.19h0ZM32.05,24.12s-.06-.04-.06-.09.03-.08.06-.08.06.04.06.08-.02.08-.06.08Z"/>
            <path class="cls-6" d="M58.64,22.74l-11.96-.51-1.2,1.39-2.79-.14c-.03-.16-.15-.28-.28-.29-.16,0-.29.15-.29.34s.13.36.29.36c.13,0,.24-.1.28-.23l2.79.15,1.2-1.39,11.96.52v-.2ZM42.42,23.63s-.07-.04-.07-.09.03-.08.07-.08c.04,0,.07.04.07.09,0,.05-.03.09-.07.08Z"/>
            <path class="cls-6" d="M58.64,21.76l-13.46-.49-.81,1.01-.5-.02c-.03-.16-.15-.28-.29-.29-.16,0-.29.14-.29.35s.13.36.29.36c.13,0,.25-.1.28-.24l.52.02.81-1.01,13.45.51v-.19h0ZM43.59,22.42s-.07-.04-.07-.09c0-.05.03-.09.07-.08.04,0,.08.04.08.09s-.03.09-.08.08Z"/>
            <path class="cls-6" d="M58.64,19.23l-15.51-.33-2.27,2.74-6.88-.28c-.03-.15-.13-.26-.25-.27-.14,0-.25.14-.25.33s.11.33.25.34c.12,0,.21-.09.24-.23l6.88.28,2.27-2.73,15.51.35v-.2h0ZM33.73,21.51s-.07-.04-.07-.08c0-.05.03-.08.07-.08.03,0,.06.04.06.09,0,.04-.03.08-.06.08Z"/>
            <path class="cls-6" d="M58.64,20.4l-15.07-.43-2.85,3.39-7.19-.37c-.03-.15-.12-.27-.24-.27-.14,0-.25.14-.25.32s.11.33.25.34c.11,0,.21-.09.24-.22l7.2.38,2.85-3.4,15.07.45v-.19h0ZM33.29,23.14s-.06-.04-.06-.09.02-.08.06-.08c.03,0,.06.04.06.08,0,.05-.03.08-.06.08Z"/>
            <path class="cls-6" d="M58.64,18.25l-15.94-.25-2.26,2.74-6.01-.21c-.02-.15-.13-.26-.25-.27-.14,0-.25.14-.25.33s.11.33.25.34c.12,0,.21-.09.25-.23l6.01.21,2.26-2.74,15.94.26v-.2h0ZM34.19,20.69s-.06-.04-.06-.08c0-.05.03-.09.06-.09.04,0,.07.04.07.09,0,.04-.03.08-.07.07Z"/>
            <path class="cls-6" d="M58.64,15.89l-20.98-.02-2.11,2.68h-.58c-.02-.16-.13-.27-.25-.28-.14,0-.26.14-.26.33s.11.33.26.33c.12,0,.21-.1.25-.24h.58s2.11-2.67,2.11-2.67l20.98.05v-.2h0ZM34.73,18.69s-.06-.04-.06-.08c0-.05.03-.09.06-.09.04,0,.07.04.07.09,0,.04-.03.08-.07.07Z"/>
            <path class="cls-6" d="M58.64,17.63v-.19l-16.51-.17-1.57,1.92s-.08-.03-.12-.03c-.16,0-.28.15-.28.34,0,.19.12.35.28.35.16,0,.28-.15.28-.34,0-.09-.04-.18-.08-.25l1.49-1.82,16.51.19ZM40.44,19.59s-.07-.04-.07-.09c0-.04.03-.08.07-.08.04,0,.07.05.07.09,0,.05-.03.09-.07.09Z"/>
            <path class="cls-6" d="M58.64,15.42v-.2l-22.02.06-1.46,1.88s-.07-.04-.1-.04c-.14,0-.26.15-.26.33s.11.34.26.34c.14,0,.26-.14.26-.33,0-.09-.03-.17-.08-.23l1.38-1.78,22.02-.04ZM35.05,17.55s-.07-.04-.07-.08c0-.04.03-.08.07-.08.04,0,.06.04.06.08,0,.05-.02.08-.06.08Z"/>
          </g>
          <g>
            <path class="cls-6" d="M58.64,14.39l-11.31.09-.55-.49-2.15.02c-.04-.13-.13-.23-.26-.23-.15,0-.27.15-.27.33s.12.32.27.32c.13,0,.23-.11.26-.26l2.15-.02.55.49,11.31-.08v-.18h0ZM44.38,14.19s-.07-.04-.07-.08.03-.08.07-.08.07.04.07.08-.03.08-.07.08Z"/>
            <path class="cls-6" d="M58.64,13.6l-10.76.14-.69-.81-2.95.05-.68.85s-.07-.03-.11-.03c-.14,0-.26.15-.26.33s.12.32.26.32c.15,0,.27-.15.27-.33,0-.09-.03-.17-.08-.23l.61-.74,2.95-.05.69.81,10.76-.13v-.18ZM43.45,14.2s-.06-.04-.06-.08.03-.08.06-.08c.04,0,.06.04.06.08s-.02.08-.06.08Z"/>
            <path class="cls-6" d="M58.64,13.07l-10.2.16-.7-.81-4.03.09-1.07,1.33s-.07-.03-.11-.03c-.14,0-.26.15-.26.32s.11.32.26.32c.14,0,.26-.15.26-.32,0-.08-.03-.17-.07-.22l.99-1.23,4.03-.08.7.81,10.2-.15v-.17h0ZM42.54,14.21s-.06-.04-.06-.08.03-.08.06-.08.06.04.06.08-.03.08-.06.08Z"/>
            <path class="cls-6" d="M58.64,12.54l-9.92.19-.98-1.13-4.3.11-1.71,2.13s-.07-.03-.11-.03c-.14,0-.26.15-.26.32s.11.32.26.32c.14,0,.26-.15.26-.32,0-.08-.03-.17-.08-.22l1.63-2.03,4.3-.11.98,1.13,9.92-.18v-.18h0ZM41.64,14.22s-.07-.04-.07-.08.03-.08.07-.08c.04,0,.07.04.07.08s-.03.08-.07.08Z"/>
            <path class="cls-6" d="M58.64,12.02l-9.49.21-1.12-1.29-4.96.15-2.21,2.77s-.07-.03-.1-.03c-.14,0-.25.15-.25.32s.11.31.25.31c.14,0,.25-.14.25-.32,0-.08-.03-.17-.08-.22l2.14-2.67,4.96-.15,1.12,1.3,9.49-.2v-.18h0ZM40.75,14.23s-.06-.04-.06-.08.03-.08.06-.08c.03,0,.07.04.07.08s-.03.08-.07.08Z"/>
            <path class="cls-6" d="M58.64,9.2l-15.85.62-2.3,2.91-1.14.02c-.03-.14-.12-.24-.24-.23-.19,0-.34.3-.17.55.18.14.36.03.41-.16l1.15-.02,2.3-2.91,15.85-.61v-.18ZM39.11,12.91s-.06-.03-.06-.07c0-.05.03-.08.06-.09.04,0,.06.04.06.08,0,.04-.03.07-.06.07Z"/>
            <path class="cls-6" d="M58.64,9.9l-15.85.56-2.3,2.9-5.09.08c-.04-.19-.22-.32-.4-.15-.14.27,0,.53.17.53.11,0,.2-.09.23-.22l5.1-.08,2.3-2.9,15.85-.54v-.17ZM35.17,13.59s-.06-.03-.06-.08c0-.04.03-.07.06-.07.04,0,.06.03.06.07,0,.05-.02.08-.06.08Z"/>
            <path class="cls-6" d="M58.64,8.75l-15.97.67-1.29,1.63-2.1.07-.6.76c-.04-.06-.11-.09-.17-.08-.13,0-.24.15-.24.32s.11.3.24.3c.14,0,.24-.15.24-.31,0-.05,0-.09-.03-.13l.55-.7,2.1-.06,1.29-1.63,15.97-.66v-.17h0ZM38.51,12.18s-.06-.03-.06-.07c0-.05.03-.08.06-.08.03,0,.06.03.06.08,0,.04-.03.07-.06.07Z"/>
            <path class="cls-6" d="M58.64,8.14l-9.78.45-.28.18-6.18.28-1.15,1.47-2.23.08-.61.79-4.08.12c-.02-.14-.11-.23-.23-.23-.13,0-.23.14-.23.31,0,.16.1.29.23.29.11,0,.19-.1.22-.22l4.08-.12.61-.8,2.23-.08,1.15-1.46,6.18-.27.28-.18,9.78-.44v-.18h0ZM34.12,11.66s-.06-.03-.06-.07c0-.05.03-.08.06-.08.03,0,.06.03.06.07,0,.04-.03.07-.06.07Z"/>
            <path class="cls-6" d="M58.64,7.79l-16.36.79-1.15,1.47-7.09.27c-.02-.14-.11-.23-.22-.23-.13,0-.23.14-.23.3,0,.17.1.3.23.3.1,0,.19-.1.22-.22l7.1-.27,1.15-1.48,16.36-.77v-.17h0ZM33.81,10.47s-.06-.03-.06-.08c0-.04.03-.07.06-.07.03,0,.06.03.06.07,0,.04-.03.08-.06.08Z"/>
            <path class="cls-6" d="M58.64,7.26l-16.62.85-1.02,1.31-.6.03-.5-.6-6.56.31c-.02-.13-.11-.23-.22-.22-.12,0-.23.15-.23.31s.1.3.23.29c.1,0,.19-.1.22-.23l6.57-.3.5.61.6-.02,1.02-1.31,16.62-.83v-.18h0ZM33.11,9.31s-.05-.04-.05-.08.03-.07.05-.07c.03,0,.06.03.06.07,0,.04-.03.08-.06.08Z"/>
            <path class="cls-6" d="M58.64,6.56l-26.49,1.47c-.02-.13-.11-.22-.22-.22-.12,0-.22.14-.22.3s.1.29.22.28c.1,0,.19-.1.21-.23l26.49-1.44v-.17ZM31.94,8.18s-.05-.03-.05-.07.03-.08.05-.08c.03,0,.06.03.06.07s-.03.08-.06.08Z"/>
            <path class="cls-6" d="M58.64,4.79l-5.88.39-1.03,1.25-14.82.87-.71-.88-5.83.38c-.02-.13-.11-.22-.21-.21-.12,0-.22.15-.22.3,0,.17.1.29.22.28.1,0,.18-.1.21-.22l5.83-.37.71.87,14.82-.85,1.03-1.25,5.88-.38v-.18ZM30.16,6.96s-.06-.03-.06-.07c0-.04.03-.07.06-.07.03,0,.05.03.05.07,0,.04-.02.08-.05.08Z"/>
            <path class="cls-6" d="M58.64,3.71l-10.62.77-1.24,1.57-7.93.5-1.34-1.61-13.32,1c-.02-.11-.1-.19-.19-.19-.11,0-.2.14-.2.29s.09.27.2.27c.1,0,.17-.11.19-.23l13.32-.98,1.34,1.6,7.93-.49,1.24-1.56,10.62-.76v-.18ZM24,6.1s-.05-.02-.05-.07c0-.04.02-.07.05-.07.03,0,.05.02.05.06,0,.04-.02.07-.05.07Z"/>
            <path class="cls-6" d="M58.64,1.88l-11.11.93-1.1,1.4-6.56.49c-.02-.14-.13-.24-.24-.23-.14.01-.25.16-.25.33s.11.3.25.29c.11,0,.21-.11.24-.24l6.56-.49,1.1-1.39,11.11-.92v-.17h0ZM39.64,4.86s-.06-.03-.06-.07.03-.08.06-.08c.04,0,.06.03.06.07,0,.04-.03.08-.06.08Z"/>
            <path class="cls-6" d="M58.64.74l-10.89.99-1.1,1.4-6.01.49c-.03-.14-.13-.23-.25-.22-.14.01-.25.16-.25.33s.11.31.25.3c.12,0,.21-.12.24-.24l6.02-.49,1.1-1.41,10.89-.98v-.18ZM40.39,3.8s-.06-.03-.06-.08c0-.04.02-.08.06-.08.03,0,.06.03.06.07,0,.04-.03.08-.06.09Z"/>
            <path class="cls-6" d="M58.64-.14l-12.02,1.15-.69,1.02-19.98,1.79c-.02-.12-.1-.21-.2-.2-.11.01-.2.15-.2.3s.09.27.2.27c.09,0,.17-.1.2-.22l20.11-1.78.7-1.02L58.64.03v-.17h0ZM25.75,3.97s-.05-.02-.05-.06c0-.04.02-.07.05-.08.03,0,.05.03.05.07,0,.04-.02.07-.05.07Z"/>
            <path class="cls-6" d="M58.64,2.33l-10.62.86-1.65,2.09-7.02.48-1.72-2.04-12.48,1.04c-.02-.12-.1-.21-.2-.2-.16.01-.27.26-.15.49.15.16.31.03.35-.15l12.48-1.02,1.72,2.04,7.02-.47,1.65-2.09,10.62-.85v-.17ZM24.96,4.91s-.05-.03-.05-.07c0-.04.02-.07.05-.08s.05.03.05.07c0,.04-.02.07-.05.08Z"/>
          </g>
        </g>
      </g>
      <g class="cls-11">
        <g>
          <g>
            <g>
              <path class="cls-6" d="M34.86,34.73c-.2-.23-.42-.12-.46.11l-21.14-2.87-.99-1.65-17.98-2.21v.12l17.93,2.23.99,1.65,21.2,2.9c.03.15.14.27.26.29.22.03.37-.27.2-.58ZM34.66,35.04s-.07-.05-.07-.1c0-.05.03-.09.07-.08.04,0,.07.05.07.1,0,.05-.03.08-.07.08Z"/>
              <path class="cls-6" d="M22.21,28.89c-.12-.01-.22.12-.22.3,0,.09.03.17.07.23h0l-.52.68h0l-6.02-.68-.51-.82-20.73-2.2v.13l20.73,2.22.51.82,6.02.68h0l.58-.77h0s.06.04.09.04c.12.01.23-.12.23-.3s-.1-.33-.23-.34ZM22.21,29.29s-.05-.04-.05-.09c0-.04.02-.07.05-.08h0s.06.04.06.09c0,.05-.03.08-.06.07Z"/>
              <path class="cls-6" d="M23.01,28.97c-.13-.01-.23.12-.23.3,0,.09.02.17.07.23h0l-.86,1.13h0l-6.88-.8-.5-.81-20.33-2.23v.12l20.33,2.26.5.81,6.88.81h0l.92-1.21h0s.06.04.1.04c.12.01.23-.12.23-.3,0-.18-.1-.33-.23-.34ZM23.01,29.37s-.06-.04-.06-.09c0-.05.02-.08.06-.07.02,0,.04.02.04.04.02.06-.01.12-.05.11Z"/>
              <path class="cls-6" d="M23.81,29.05c-.13-.01-.23.12-.23.3,0,.09.03.17.07.24h0l-1.44,1.87-7.1-.87-.7-1.14-20.13-2.29v.13l20.13,2.31.7,1.14,7.1.88,1.51-1.96h0s.06.04.1.04c.13.01.23-.12.23-.3,0-.18-.1-.33-.23-.35ZM23.81,29.45s-.06-.04-.06-.09.03-.07.06-.07c.03,0,.06.04.06.08s-.03.08-.06.08Z"/>
              <path class="cls-6" d="M24.63,29.13c-.13-.01-.23.12-.23.3,0,.09.03.17.07.24h0l-1.91,2.47h0l-7.64-.97-.8-1.31-19.83-2.33v.13l19.83,2.35.8,1.31,7.64.98h0l1.98-2.56h0s.06.04.1.04c.13.01.23-.12.23-.3s-.1-.34-.23-.35ZM24.61,29.53s-.02-.02-.03-.03c-.03-.06,0-.13.05-.12h0s.06.04.06.09c0,.05-.04.09-.08.07Z"/>
            </g>
            <g>
              <path class="cls-6" d="M11.22,31.29c-.09-.01-.16.07-.18.19h0l-3.15-.42-.36.38-13.24-1.83v.13l13.24,1.84.36-.38,3.15.43h0c.02.13.09.24.18.25.1.01.19-.1.19-.27s-.08-.31-.19-.32ZM11.22,31.66s-.05-.04-.05-.08c0-.05.02-.07.05-.07.02,0,.05.04.05.08,0,.04-.02.07-.05.06Z"/>
              <path class="cls-6" d="M11.88,31.38s-.05,0-.08.02h0l-.49-.83-3.7-.47-.44.65-12.89-1.7v.13l12.89,1.72.44-.65,3.7.47.44.73h0s-.06.12-.06.2c0,.16.08.3.19.32.11.01.19-.1.19-.27,0-.16-.09-.31-.19-.32ZM11.88,31.75h0s-.04-.04-.04-.08c0-.05.02-.07.04-.07.03,0,.05.04.05.08,0,.04-.02.07-.05.07Z"/>
            </g>
          </g>
          <g>
            <path class="cls-6" d="M58.64,32.32l-11.87-1.19-.7.88-20.01-2.14c-.02-.13-.1-.23-.2-.24-.11-.01-.2.11-.2.26s.09.29.2.3c.09.01.17-.07.2-.18l20.15,2.17.7-.89,11.73,1.19v-.17ZM25.87,29.98s-.05-.04-.05-.07c0-.04.02-.07.05-.07.03,0,.05.04.05.08,0,.04-.02.06-.05.06Z"/>
            <path class="cls-6" d="M58.64,34.79l-10.46-1.21-1.66,1.77-7.03-.9-1.72-2.38-12.5-1.42c-.02-.13-.1-.23-.2-.24-.16-.02-.27.21-.15.46.15.19.31.09.35-.08l12.5,1.43,1.72,2.38,7.03.91,1.66-1.77,10.46,1.22v-.17h0ZM25.08,30.76s-.05-.04-.05-.08c0-.04.02-.07.05-.07s.05.04.05.08c0,.04-.02.07-.05.07Z"/>
          </g>
        </g>
      </g>
      <g class="cls-10">
        <g>
          <g>
            <path class="cls-6" d="M58.64-.7l-19.35,1.92-.58-.48-6.92.71h0c-.04-.14-.13-.24-.25-.22-.14.01-.26.18-.26.37s.12.33.26.32c.12-.01.23-.14.25-.29h0l6.92-.71.58.48L58.64-.49v-.21ZM31.54,1.66s-.06-.03-.06-.07c0-.05.03-.09.06-.09.04,0,.07.03.07.08,0,.05-.03.08-.07.09Z"/>
            <path class="cls-6" d="M58.64-1.68L40.46.23l-.73-.83-8.84.99h0l-1.04,1.51h0s-.07-.03-.11-.02c-.14.01-.25.18-.25.37s.11.32.25.31c.14-.01.26-.17.26-.36,0-.1-.03-.17-.07-.23h0l.97-1.4h0l8.84-.98.73.84,18.18-1.89v-.2h0ZM29.74,2.29s-.04-.01-.05-.04c-.02-.06.01-.13.05-.13.04,0,.06.03.06.08,0,.05-.03.09-.07.09Z"/>
            <path class="cls-6" d="M58.64-2.3L40.76-.35l-1.03-1.16L30.64-.45l-1.67,2.43h0s-.07-.03-.1-.02c-.14.01-.25.18-.25.37,0,.19.11.32.25.31.14-.01.25-.17.25-.36,0-.1-.03-.17-.07-.23h0l1.6-2.32,9.09-1.06,1.03,1.16,17.89-1.93v-.21ZM28.86,2.38s-.07-.03-.07-.07.03-.09.07-.09c.03,0,.06.03.06.08s-.03.08-.06.09Z"/>
            <path class="cls-6" d="M58.64-2.92l-17.45,1.97-1.18-1.33-9.77,1.2h0l-2.15,3.15h0s-.07-.03-.1-.02c-.14.01-.24.18-.24.36s.11.32.24.31.25-.17.25-.36c0-.1-.03-.17-.07-.23h0l2.08-3.04h0l9.77-1.19,1.18,1.33,17.45-1.95v-.21h0ZM27.99,2.47h0s-.06-.03-.06-.08c0-.05.04-.1.08-.09.01,0,.02.01.03.03.03.06,0,.13-.05.14Z"/>
          </g>
          <g>
            <path class="cls-6" d="M26.45-1.36c-.09.01-.17.11-.2.23L17.56-.03l-.54-.72L7.81.48l-.53.92-13,1.64v.11L7.28,1.52l.53-.92,9.22-1.22.54.73,8.69-1.09c.02.12.11.21.2.19.11-.01.21-.15.21-.31,0-.16-.09-.27-.21-.26ZM26.45-1s-.05-.03-.05-.06c0-.04.02-.07.05-.08.03,0,.05.02.05.07,0,.03-.02.07-.05.07Z"/>
            <path class="cls-6" d="M28.54-.33c-.1.01-.18.12-.21.24l-11.74,1.38L15.62-.02l-5.08.65-.71,1.21-15.54,1.85v.11l15.54-1.84.71-1.21L15.62.11l.96,1.32L28.33.07c.03.12.11.2.2.18.12-.01.21-.15.21-.31,0-.16-.1-.28-.21-.26ZM28.59-.04s-.02.07-.05.07-.05-.02-.05-.06c0-.04.02-.07.05-.08.03,0,.06.02.05.07Z"/>
            <path class="cls-6" d="M9.35.96c-.08.01-.14.1-.15.21l-.85.11-.23.39-13.83,1.69v.11l13.83-1.68.23-.4.86-.11c.02.1.08.17.15.16.09-.01.16-.13.16-.27s-.07-.24-.16-.23ZM9.35,1.27s-.04-.02-.04-.06.02-.06.04-.07c.02,0,.04.02.04.06,0,.03-.02.06-.04.07Z"/>
            <path class="cls-6" d="M6.9.41c-.08.01-.14.1-.15.21l-.85.11-.23.39-13.83,1.69v.11L5.66,1.25l.23-.4.86-.11c.02.1.08.17.15.16.09-.01.16-.13.16-.27,0-.13-.07-.24-.16-.23ZM6.9.72s-.04-.02-.04-.06.02-.06.04-.07c.02,0,.04.02.04.06,0,.03-.02.06-.04.07Z"/>
            <path class="cls-6" d="M5.44.26c-.08.01-.14.1-.15.21l-.85.11-.23.39-13.83,1.69v.11L4.2,1.1l.23-.4.86-.11c.02.1.08.17.15.16.09-.01.16-.13.16-.27,0-.14-.07-.24-.16-.23ZM5.44.57s-.04-.02-.04-.06.02-.06.04-.07c.02,0,.04.02.04.06s-.02.06-.04.07Z"/>
            <path class="cls-6" d="M15.08,1.35c-.08,0-.14.1-.17.21l-4.17.49-.64,1.07-15.82,1.71v.11l15.82-1.69.64-1.07,4.17-.48c.02.12.09.2.17.19.1-.01.17-.14.17-.28,0-.14-.08-.25-.17-.24ZM15.08,1.66s-.04-.02-.04-.06.02-.07.04-.07c.02,0,.04.02.04.06s-.02.06-.04.07Z"/>
            <path class="cls-6" d="M14.56,2.24c-.08,0-.14.1-.16.2l-3.78.42-.64,1.07-15.7,1.59v.11l15.7-1.57.64-1.06,3.78-.41c.02.11.08.19.17.18.1-.01.17-.13.17-.28,0-.14-.08-.25-.17-.24ZM14.56,2.56s-.04-.02-.04-.06.02-.07.04-.07c.02,0,.04.03.04.06,0,.03-.01.07-.04.07Z"/>
            <path class="cls-6" d="M26.48,2.25c-.09,0-.17.11-.2.22l-15.5,1.55-.23.47-16.27,1.56v.11l16.35-1.55.23-.47,15.42-1.52c.02.12.1.21.2.2.11-.01.21-.15.21-.3s-.09-.28-.21-.26ZM26.48,2.61s-.05-.03-.05-.07.02-.07.05-.07c.03,0,.05.02.05.06,0,.04-.02.07-.05.08Z"/>
            <path class="cls-6" d="M27.68,1.01c-.16-.16-.32-.02-.36.16l-10.83,1.18-1.23-1.69-4.49.56-.95,1.61-15.54,1.72v.11l15.54-1.71.95-1.6,4.49-.55,1.23,1.69,10.82-1.16c.02.12.11.21.2.2.16-.02.28-.28.16-.5ZM27.52,1.3s-.05-.03-.05-.07c0-.04.02-.07.05-.08.03,0,.05.02.05.07,0,.04-.03.08-.05.08Z"/>
          </g>
        </g>
      </g>
      <g class="cls-3">
        <g>
          <path class="cls-7" d="M20.7,20.26h0c.18.4.4.78.63,1.13h0s-.28.35-.28.35h0c-.21-.33-.4-.66-.58-1.01-.03-.07-.07-.14-.1-.21h0s.33-.26.33-.26ZM21.31,21.39c-.23-.34-.44-.71-.62-1.09l-.29.21c.03.07.06.13.09.19.17.34.36.67.57.98l.25-.29Z"/>
          <path class="cls-7" d="M20.43,11.3l.32.27h0c-1.22,2.52-1.31,5.66-.23,8.27h0s-.33.26-.33.26v-.02c-.32-.76-.55-1.57-.68-2.42-.17-1.09-.18-2.18-.02-3.27.15-1.09.47-2.13.94-3.09h0ZM20.72,11.57l-.28-.23c-.46.95-.77,1.98-.93,3.06-.15,1.08-.15,2.17.02,3.25.13.84.35,1.64.66,2.4l.29-.21c-1.07-2.62-.99-5.76.23-8.27Z"/>
          <path class="cls-7" d="M22.56,8.52l.2.43h-.01c-.71.6-1.31,1.34-1.79,2.22h0s-.32-.25-.32-.25h0c.46-.86,1.04-1.6,1.71-2.2.07-.06.14-.12.21-.18h.01ZM22.73,8.94l-.18-.37c-.07.06-.13.11-.19.17-.66.6-1.23,1.33-1.69,2.17l.28.23c.48-.87,1.08-1.6,1.78-2.2Z"/>
          <path class="cls-7" d="M23.95,7.61l.12.49h-.01c-.33.17-.66.37-.97.59h-.01s-.2-.42-.2-.42h.01c.33-.26.68-.47,1.05-.65h.01ZM24.04,8.08l-.11-.42c-.35.17-.7.39-1.02.62l.18.38c.3-.22.62-.41.95-.57Z"/>
          <path class="cls-7" d="M25.48,7.1l.04.52h-.01c-.36.07-.71.18-1.05.32h-.01s-.12-.48-.12-.48h.01c.16-.07.32-.13.48-.18.22-.07.44-.13.66-.17h.01ZM25.48,7.59l-.03-.45c-.21.04-.43.1-.65.17-.15.05-.31.11-.46.17l.11.42c.33-.13.68-.24,1.03-.31Z"/>
          <path class="cls-7" d="M26.23,7h0c.44-.03.89,0,1.33.07.98.16,1.91.57,2.77,1.2.87.65,1.61,1.49,2.19,2.52.35.61.64,1.27.85,1.97v.02s-.44.18-.44.18v-.02c-.55-1.77-1.54-3.23-2.85-4.21-1.17-.87-2.5-1.29-3.85-1.2-.11,0-.22.02-.33.03h-.01s-.04-.52-.04-.52h.01c.12-.02.24-.03.36-.04ZM33.34,12.75c-.21-.69-.5-1.34-.84-1.95-.58-1.02-1.32-1.86-2.18-2.51-.85-.64-1.78-1.04-2.75-1.2-.44-.07-.89-.1-1.33-.07h0c-.11,0-.23.02-.35.03l.03.45c.11-.01.21-.02.32-.03,1.35-.08,2.69.33,3.86,1.21,1.3.98,2.3,2.43,2.85,4.21l.39-.15Z"/>
          <path class="cls-7" d="M33.51,13.25v.02c.07.27.13.55.18.83.16.93.2,1.87.13,2.81v.02s-.47-.08-.47-.08v-.02c.09-1.15,0-2.29-.28-3.39v-.02s.44-.17.44-.17ZM33.79,16.89c.07-.93.03-1.86-.13-2.78-.05-.27-.11-.55-.17-.81l-.39.15c.27,1.09.37,2.23.28,3.37l.41.07Z"/>
          <path class="cls-7" d="M33.3,17.34l.46.08v.02c-.02.1-.03.2-.04.29-.07.42-.16.84-.27,1.24v.02s-.44-.21-.44-.21v-.02c.13-.46.23-.93.29-1.41v-.02ZM33.73,17.46l-.41-.07c-.06.47-.16.93-.28,1.38l.38.18c.11-.39.2-.8.27-1.22.01-.09.03-.18.04-.27Z"/>
          <g>
            <path class="cls-7" d="M21.59,21.74h0c.3.4.63.77.98,1.08.76.68,1.6,1.16,2.52,1.41h.01s-.06.51-.06.51h-.01s-.09-.03-.12-.04c-.92-.28-1.78-.78-2.55-1.48-.38-.34-.73-.73-1.05-1.15h0s.28-.35.28-.35ZM25.08,24.27c-.91-.25-1.76-.73-2.51-1.41-.35-.32-.68-.68-.98-1.07l-.25.29c.31.41.66.79,1.03,1.13.77.7,1.62,1.19,2.54,1.47.03.01.07.02.11.03l.05-.45Z"/>
            <path class="cls-7" d="M32.86,19.25l.43.21v.02c-.21.59-.46,1.17-.77,1.7-.59,1.03-1.32,1.88-2.18,2.52-.82.61-1.72,1.01-2.66,1.18-.49.09-.98.12-1.46.08-.26-.02-.52-.06-.78-.11h-.01s.06-.52.06-.52h.01c.24.05.48.08.72.1,2.33.15,4.57-1.17,5.93-3.57.28-.5.52-1.03.71-1.59v-.02ZM33.26,19.48l-.38-.18c-.19.55-.43,1.09-.71,1.58-1.37,2.41-3.61,3.73-5.96,3.58-.24-.02-.47-.05-.71-.09l-.05.45c.25.05.51.09.76.1.48.03.97,0,1.46-.08.94-.17,1.83-.57,2.65-1.17.86-.64,1.59-1.48,2.17-2.51.3-.52.55-1.09.75-1.67Z"/>
          </g>
        </g>
      </g>
      <g class="cls-8">
        <g>
          <g>
            <path class="cls-13" d="M23.06,22.74l.1.08v.02s0,0,0,.01l-.06.13s-.05-.04-.07-.05l-.05-.04.07-.15Z"/>
            <path class="cls-13" d="M23.28,22.94s.08.05.11.08l-.05.13s-.08-.06-.12-.08l.05-.13ZM23.51,23.1s.08.05.12.08l-.05.13s-.08-.05-.12-.08l.05-.13ZM23.75,23.25s.08.05.12.07l-.04.14s-.08-.05-.12-.07l.05-.13Z"/>
            <path class="cls-13" d="M24.01,23.37l.11.05-.04.16-.06-.03s-.05-.03-.07-.04l.04-.14s.01,0,.02,0v-.02Z"/>
            <path class="cls-13" d="M24.1,22.97s.05.02.07.04l.05.03-.04.16-.11-.05v-.02s0,0-.01-.01l.04-.14Z"/>
            <path class="cls-13" d="M23.49,22.6s.1.07.15.1l-.05.13c-.05-.03-.1-.07-.15-.11l.05-.13ZM23.79,22.8c.05.03.1.06.15.09l-.05.14c-.05-.03-.1-.06-.16-.09l.05-.13Z"/>
            <path class="cls-13" d="M23.23,22.4l.05.04s.04.03.07.05l-.06.13s-.01,0-.02-.01v.02s-.11-.08-.11-.08l.07-.14Z"/>
          </g>
          <g>
            <path class="cls-13" d="M20.27,15.32l.13.02v.07s0,.06,0,.1h-.11s0-.03,0-.04h-.02s.01-.15.01-.15Z"/>
            <path class="cls-13" d="M19.97,15.28l.13.02v.14s-.03,0-.03,0c0,0,0,.01,0,.02h-.11s0-.07,0-.11v-.07Z"/>
            <path class="cls-13" d="M19.95,15.64h.11c0,.07,0,.13,0,.19h-.11c0-.06,0-.13,0-.19ZM20.05,16.02c0,.06,0,.13,0,.19h-.11c0-.06,0-.12,0-.19h.11ZM20.06,16.4c0,.06,0,.12,0,.19h-.11c0-.05,0-.12,0-.18h.11ZM20.09,16.77c0,.06.01.12.02.19l-.11.02c0-.06-.01-.13-.02-.19l.11-.02ZM20.12,17.14c0,.06.02.12.02.18l-.11.02c0-.06-.02-.13-.02-.19l.11-.02ZM20.17,17.51c.01.06.02.12.03.18l-.11.03c-.01-.06-.02-.12-.03-.19l.11-.03ZM20.24,17.88c.01.06.02.12.04.18l-.11.04c-.01-.06-.03-.12-.04-.18l.11-.03ZM20.32,18.24s.01.05.02.07c0,.04.02.07.03.11l-.11.04s-.02-.07-.03-.11c0-.02-.01-.05-.02-.07l.11-.04ZM20.41,18.6c.02.06.03.12.05.18l-.1.05c-.02-.06-.04-.12-.05-.18l.11-.05ZM20.52,18.95c.02.06.04.12.06.17l-.1.06c-.02-.06-.04-.12-.06-.18l.1-.05ZM20.64,19.3c.02.06.04.12.06.17l-.1.06c-.02-.06-.05-.12-.07-.17l.1-.06ZM20.77,19.64c.02.06.05.11.07.17l-.1.07c-.02-.06-.05-.11-.07-.17l.1-.07ZM20.91,19.97c.03.05.05.11.08.16l-.09.08c-.03-.05-.05-.11-.08-.17l.1-.07ZM21.07,20.29c.03.05.06.11.08.16l-.09.08c-.03-.05-.06-.11-.08-.16l.09-.08ZM21.24,20.61c.03.05.06.1.09.15l-.09.09c-.03-.05-.06-.11-.09-.16l.09-.08ZM21.42,20.91s.01.02.02.03c.02.04.05.08.08.12l-.08.09s-.05-.08-.08-.12c0-.01-.01-.02-.02-.03l.09-.09ZM21.61,21.2s.07.1.1.14l-.08.1s-.07-.1-.1-.15l.08-.09ZM21.82,21.49s.07.09.11.14l-.08.1s-.07-.09-.11-.14l.08-.1ZM22.03,21.76s.07.09.11.13l-.07.11s-.08-.09-.11-.13l.08-.11ZM22.25,22.02s.08.08.12.12l-.07.11s-.08-.08-.12-.13l.07-.11ZM22.49,22.26s.08.08.12.12l-.07.12s-.08-.08-.12-.12l.07-.11Z"/>
            <path class="cls-13" d="M22.76,22.49l.1.08-.07.15-.05-.05s-.04-.04-.06-.06l.06-.12s0,0,.01.01v-.02Z"/>
            <path class="cls-13" d="M22.91,22.13s.04.04.06.06l.05.04-.07.14-.1-.08v-.02s0-.01,0-.02l.06-.12Z"/>
            <path class="cls-13" d="M20.27,15.68h.11c0,.07,0,.13,0,.19h-.11c0-.07,0-.13,0-.19ZM20.38,16.06c0,.06,0,.12,0,.18h-.11c0-.06,0-.12,0-.18h.11ZM20.39,16.43c0,.06,0,.12.01.18h-.11c0-.05,0-.11-.01-.18h.11ZM20.42,16.8c0,.06.01.12.02.18l-.11.02c0-.06-.01-.12-.02-.18l.11-.02ZM20.46,17.17c0,.06.02.12.02.18l-.11.03c0-.06-.02-.12-.02-.19l.11-.02ZM20.51,17.53c.01.06.02.12.03.18l-.11.03c-.01-.06-.02-.12-.03-.18l.11-.03ZM20.58,17.89c.01.06.03.12.04.18l-.11.04c-.01-.06-.03-.12-.04-.18l.11-.04ZM20.66,18.25c.02.06.03.12.05.18l-.11.05c-.02-.06-.03-.12-.05-.18l.1-.04ZM20.76,18.6c.02.06.04.12.05.17l-.1.05c-.02-.06-.04-.12-.05-.18l.1-.05ZM20.87,18.94c.02.06.04.11.06.17l-.1.06c-.02-.06-.04-.12-.06-.17l.1-.05ZM20.99,19.28c.02.06.04.11.07.17l-.1.07c-.02-.06-.05-.11-.07-.17l.1-.06ZM21.13,19.61c.02.05.05.11.07.16l-.1.07c-.02-.05-.05-.11-.08-.17l.1-.07ZM21.28,19.94c.02.05.05.11.08.16l-.09.08c-.03-.05-.05-.11-.08-.16l.09-.07ZM21.44,20.25c.03.05.06.1.09.15l-.09.09c-.03-.05-.06-.1-.09-.16l.09-.08ZM21.62,20.55s.06.1.09.15l-.09.09s-.06-.1-.09-.15l.09-.09ZM21.81,20.85s.07.1.1.14l-.08.1s-.07-.1-.1-.15l.09-.09ZM22.01,21.13s.07.09.1.14l-.08.1s-.07-.09-.11-.14l.08-.1ZM22.22,21.4s.07.09.11.13l-.08.11s-.07-.09-.11-.13l.08-.11ZM22.44,21.66s.08.08.11.12l-.07.11s-.08-.08-.12-.13l.07-.11ZM22.67,21.9s.08.08.12.12l-.07.11s-.08-.08-.12-.12l.07-.11Z"/>
          </g>
          <g>
            <path class="cls-13" d="M20.78,11.96l.11.08-.06.12h-.02s0,0,0,0l-.1-.07s.02-.06.04-.08l.03-.06Z"/>
            <path class="cls-13" d="M20.65,12.28l.1.07c-.02.05-.05.11-.07.17l-.1-.06c.02-.06.04-.11.07-.17ZM20.52,12.62l.1.06c-.02.06-.04.11-.06.17l-.1-.06c.02-.06.04-.12.06-.17ZM20.4,12.97l.1.05c-.02.06-.04.12-.05.17l-.1-.05c.02-.06.04-.12.05-.18ZM20.29,13.33l.1.05c-.02.06-.03.12-.05.18l-.11-.04c.02-.06.03-.12.05-.18ZM20.2,13.7l.11.04c-.01.06-.03.12-.04.18l-.11-.04c.01-.06.03-.12.04-.18ZM20.12,14.07l.11.03c-.01.06-.02.12-.03.18l-.11-.03c.01-.06.02-.12.03-.19ZM20.06,14.44l.11.03c0,.06-.02.12-.03.18l-.11-.02c0-.06.02-.12.03-.19Z"/>
            <path class="cls-13" d="M20.01,14.81l.11.02s0,.01,0,.02h.02s-.01.15-.01.15l-.13-.02v-.07s.01-.07.02-.1Z"/>
            <path class="cls-13" d="M20.33,14.85l.11.02s0,.06-.01.1v.07s-.13-.02-.13-.02v-.14s.03,0,.03,0c0-.01,0-.02,0-.03Z"/>
            <path class="cls-13" d="M20.92,12.5l.1.07c-.02.06-.05.12-.07.18l-.1-.06c.02-.06.05-.13.07-.19ZM20.78,12.88l.1.06c-.02.06-.04.12-.06.18l-.1-.05c.02-.06.04-.13.06-.19ZM20.66,13.26l.1.05c-.02.06-.04.13-.05.19l-.11-.05c.02-.07.04-.13.06-.2ZM20.55,13.65l.11.04c-.02.06-.03.13-.05.19l-.11-.04c.02-.07.03-.13.05-.2ZM20.46,14.04l.11.04c-.01.07-.03.13-.04.2l-.11-.03c.01-.07.02-.13.04-.2ZM20.39,14.44l.11.03c-.01.07-.02.13-.03.2l-.11-.02c0-.07.02-.13.03-.2Z"/>
            <path class="cls-13" d="M21.05,12.16l.11.08-.03.06s-.02.05-.04.08l-.1-.07s0-.02.01-.02h-.02s.06-.14.06-.14Z"/>
          </g>
          <g>
            <path class="cls-13" d="M21.6,10.53l.1.11-.08.11v-.02s-.02.01-.02.02l-.08-.1s.03-.05.05-.08l.04-.05Z"/>
            <path class="cls-13" d="M21.4,10.83l.09.09c-.04.06-.07.11-.11.17l-.09-.09c.04-.06.07-.12.11-.17ZM21.18,11.19l.09.08c-.03.06-.07.12-.1.18l-.09-.08c.04-.06.07-.12.1-.18Z"/>
            <path class="cls-13" d="M20.98,11.55l.09.08s0,.01,0,.02h.01s-.06.14-.06.14l-.11-.09.03-.06s.03-.06.04-.08Z"/>
            <path class="cls-13" d="M21.27,11.76l.09.08s-.03.05-.04.08l-.03.06-.11-.08.06-.13h.02s0,0,.01-.01Z"/>
            <path class="cls-13" d="M21.65,11.11l.08.09c-.03.05-.07.11-.1.16l-.09-.09c.03-.05.07-.11.1-.16ZM21.45,11.43l.09.08c-.03.05-.06.11-.09.16l-.09-.08c.03-.06.06-.11.09-.17Z"/>
            <path class="cls-13" d="M21.83,10.81l.09.11-.04.05s-.03.05-.05.07l-.08-.09s.01-.01.01-.02v-.02s.07-.11.07-.11Z"/>
          </g>
          <g>
            <path class="cls-13" d="M22.65,9.35l.07.14-.1.08v-.02s-.02,0-.02.01l-.07-.12s.04-.04.06-.06l.05-.05Z"/>
            <path class="cls-13" d="M22.39,9.59l.07.11s-.09.09-.14.14l-.07-.11c.05-.05.09-.1.14-.14ZM22.12,9.88l.07.11s-.09.1-.13.15l-.08-.11c.04-.05.09-.1.13-.15Z"/>
            <path class="cls-13" d="M21.86,10.18l.08.1s0,0-.01.02h.01s-.08.12-.08.12l-.1-.11.04-.06s.04-.05.06-.07Z"/>
            <path class="cls-13" d="M22.11,10.47l.08.1s-.04.05-.05.07l-.04.05-.09-.11.08-.11.02.02s.01-.01.02-.02Z"/>
            <path class="cls-13" d="M22.59,9.93l.07.11s-.08.08-.12.13l-.07-.11s.08-.09.12-.13ZM22.34,10.2l.07.11s-.08.09-.12.14l-.08-.11s.08-.09.12-.14Z"/>
            <path class="cls-13" d="M22.82,9.68l.07.14-.05.04s-.04.04-.06.06l-.07-.11s.01-.01.02-.02v-.02s.08-.08.08-.08Z"/>
          </g>
          <g>
            <path class="cls-13" d="M23.12,9.42v.02s.02,0,.03-.02l.06.12s-.04.04-.07.05l-.05.04-.07-.14.09-.08Z"/>
            <path class="cls-13" d="M26.22,8.22v.15c-.05,0-.11,0-.16.01v-.15c.05,0,.11,0,.16-.01ZM26.38,8.21c.05,0,.11,0,.17,0v.15c-.06,0-.11,0-.17,0v-.15ZM25.89,8.25v.15s-.1.01-.15.02v-.15s.1-.02.15-.02ZM26.71,8.21s.05,0,.07,0c.03,0,.06,0,.09,0v.15s-.07,0-.1,0c-.02,0-.05,0-.07,0v-.15ZM25.56,8.3v.15s-.09.02-.14.03l-.02-.15c.05-.01.11-.02.16-.03ZM27.04,8.24c.05,0,.11.01.17.02l-.02.15c-.05,0-.11-.01-.16-.02l.02-.15ZM25.24,8.37l.02.15c-.05.01-.11.03-.16.04l-.02-.15c.05-.02.11-.03.16-.04ZM27.37,8.28c.05.01.11.02.17.03l-.03.15c-.05-.01-.11-.02-.16-.03l.02-.15ZM24.92,8.47l.03.14c-.05.02-.1.03-.15.05l-.03-.14c.05-.02.1-.04.16-.05ZM27.7,8.35c.05.01.11.03.16.04l-.03.15c-.05-.01-.11-.03-.16-.04l.03-.15ZM24.61,8.58l.03.14s-.1.04-.15.06l-.03-.14s.1-.04.15-.06ZM28.03,8.44c.05.02.11.03.16.05l-.04.15c-.05-.02-.11-.03-.16-.05l.04-.15ZM24.3,8.71l.04.14s-.1.05-.15.07l-.04-.14c.05-.02.1-.05.15-.07ZM28.35,8.55c.05.02.11.04.16.06l-.05.15c-.05-.02-.1-.04-.16-.06l.04-.15ZM24,8.86l.04.14s-.1.05-.14.08l-.05-.13s.1-.06.15-.08ZM28.67,8.69c.05.02.11.05.16.08l-.05.14s-.1-.05-.15-.07l.05-.14ZM23.71,9.03l.05.13s-.09.06-.14.09l-.05-.13s.09-.06.14-.09ZM28.98,8.84c.05.03.1.05.15.09l-.06.14c-.05-.03-.1-.06-.15-.08l.05-.14ZM23.43,9.22l.05.13s-.09.06-.14.1l-.06-.12s.09-.07.14-.1ZM29.29,9.02s.1.06.15.1l-.06.14s-.1-.06-.15-.09l.06-.14ZM29.58,9.22s.1.07.14.11l-.07.13s-.1-.07-.14-.1l.07-.14ZM29.87,9.43s.09.08.14.12l-.08.13s-.09-.08-.14-.11l.07-.13ZM30.15,9.67s.09.08.14.12l-.08.12s-.09-.08-.13-.12l.08-.13Z"/>
            <path class="cls-13" d="M30.46,9.92l.09.11-.1.13-.05-.05-.06-.06.08-.12s.01.01.02.02l.02-.02Z"/>
            <path class="cls-13" d="M30.69,9.58s.04.04.07.07l.05.05-.11.14-.09-.1v-.02s0-.01,0-.01l.08-.12Z"/>
            <path class="cls-13" d="M26.22,7.78s.03,0,.05,0v.15s-.03,0-.05,0c-.04,0-.07,0-.11,0v-.15s.08,0,.11,0ZM26.43,7.77c.05,0,.11,0,.16,0v.15c-.06,0-.11,0-.17,0v-.15ZM25.94,7.8v.15s-.1.01-.15.02v-.15s.1-.02.15-.02ZM26.75,7.77s.05,0,.07,0c.03,0,.06,0,.09,0v.15s-.07,0-.1,0c-.02,0-.05,0-.07,0v-.15ZM25.62,7.85v.15s-.09.02-.15.03v-.15s.09-.02.15-.03ZM27.07,7.79c.05,0,.11.01.16.02l-.02.15c-.05,0-.11-.01-.16-.02l.02-.15ZM25.31,7.91l.02.15c-.05.01-.1.02-.15.04l-.02-.15c.05-.01.1-.03.16-.04ZM27.4,7.83c.05,0,.11.02.16.03l-.02.15c-.05,0-.11-.02-.16-.03l.02-.15ZM24.99,7.99l.02.14s-.1.03-.15.05l-.02-.14c.05-.02.1-.03.15-.05ZM27.72,7.9c.05.01.11.02.16.04l-.03.15c-.05-.01-.11-.02-.16-.04l.03-.15ZM24.69,8.1l.03.14s-.1.04-.15.06l-.03-.14s.1-.04.15-.06ZM28.04,7.98c.05.02.11.03.16.05l-.04.15c-.05-.02-.11-.03-.16-.05l.03-.15ZM24.38,8.21l.03.14s-.09.04-.14.06h-.01s-.04-.13-.04-.13h.01s.09-.05.14-.07ZM28.36,8.08c.05.02.11.04.16.06l-.04.14c-.05-.02-.1-.04-.15-.06l.04-.15ZM24.08,8.35l.04.14s-.1.05-.14.07l-.04-.14s.1-.05.15-.08ZM28.67,8.2c.05.02.11.04.15.07l-.05.14s-.1-.05-.15-.07l.05-.14ZM23.79,8.51l.04.14s-.1.05-.14.08l-.05-.13s.09-.06.14-.08ZM28.98,8.34s.1.05.15.08l-.05.14c-.05-.03-.1-.05-.15-.08l.05-.14ZM23.51,8.68l.05.13s-.09.06-.14.09l-.05-.13s.09-.06.14-.09ZM29.28,8.5s.08.05.12.07c.01,0,.02.01.03.02l-.06.14s-.02-.01-.03-.02c-.04-.02-.08-.05-.11-.07l.06-.14ZM23.23,8.87l.05.13s-.09.06-.13.1l-.05-.12s.09-.07.13-.1ZM29.58,8.68s.1.06.15.1l-.07.14s-.1-.06-.14-.1l.06-.14ZM29.87,8.88s.1.07.14.11l-.07.13s-.09-.07-.14-.11l.07-.13ZM30.15,9.1s.09.08.14.11l-.08.13s-.09-.08-.14-.11l.07-.13ZM30.43,9.33s.09.08.13.12l-.08.12s-.09-.08-.13-.12l.08-.12Z"/>
            <path class="cls-13" d="M22.96,9.07l.06.12s-.01,0-.02.01v.02s-.09.08-.09.08l-.08-.14.05-.04s.05-.04.07-.05Z"/>
          </g>
          <g>
            <path class="cls-13" d="M32.19,12.73s0,.02.01.03h.02s.05.13.05.13l-.14.07-.02-.07s-.02-.06-.03-.09l.12-.07Z"/>
            <path class="cls-13" d="M32.56,12.56s.02.07.04.1l.03.08-.15.07-.05-.15h.02s0-.02,0-.03l.12-.07Z"/>
            <path class="cls-13" d="M31.23,10.19s.08.1.11.15l-.1.11s-.08-.1-.11-.15l.1-.11ZM31.46,10.49s.02.02.03.04c.03.04.06.08.08.12l-.1.1s-.05-.08-.08-.12c0-.01-.02-.02-.02-.04l.1-.1ZM31.67,10.8c.04.05.07.11.1.16l-.11.1c-.03-.05-.07-.11-.1-.16l.1-.1ZM31.88,11.13c.03.05.07.11.1.17l-.11.09c-.03-.05-.06-.11-.1-.16l.11-.09ZM32.07,11.47c.03.06.06.12.09.17l-.11.08c-.03-.06-.06-.12-.09-.17l.11-.09ZM32.25,11.82c.03.06.06.12.08.18l-.12.08c-.03-.06-.05-.12-.08-.18l.11-.08ZM32.41,12.19c.02.06.05.12.08.18l-.12.07c-.02-.06-.05-.12-.07-.18l.12-.07Z"/>
            <path class="cls-13" d="M31,9.91l.05.05s.04.05.06.07l-.09.11s0-.01-.01-.02l-.02.02-.09-.1.11-.14Z"/>
            <path class="cls-13" d="M30.75,10.24l.09.1-.02.02s.01.01.02.02l-.09.11s-.04-.05-.06-.07l-.05-.05.1-.13Z"/>
            <path class="cls-13" d="M30.97,10.54c.04.05.08.11.12.16l-.1.11c-.04-.05-.08-.11-.12-.16l.1-.11ZM31.21,10.87c.04.06.08.11.12.17l-.1.1c-.04-.06-.08-.11-.11-.17l.1-.1ZM31.44,11.21c.04.06.07.12.11.18l-.11.09c-.03-.06-.07-.12-.11-.17l.1-.1ZM31.65,11.57c.03.06.07.12.1.18l-.11.08c-.03-.06-.07-.12-.1-.18l.11-.09ZM31.85,11.94c.03.06.06.13.09.19l-.11.08c-.03-.06-.06-.13-.09-.19l.11-.08ZM32.03,12.33c.03.07.06.13.08.2l-.12.07c-.03-.07-.05-.13-.08-.19l.12-.08Z"/>
          </g>
          <g>
            <path class="cls-13" d="M33.04,14.39s.01.07.02.11v.08s-.15.02-.15.02l-.02-.16h.02s0-.02,0-.02l.13-.03Z"/>
            <path class="cls-13" d="M32.84,13.44c.02.08.04.15.06.23l-.13.05c-.02-.08-.04-.15-.06-.23l.13-.05ZM32.95,13.91c.02.08.03.16.05.24l-.13.04c-.01-.08-.03-.16-.05-.23l.13-.04Z"/>
            <path class="cls-13" d="M32.72,13.04l.02.08s.02.07.03.1l-.12.05s0-.02,0-.02h-.02s-.05-.14-.05-.14l.14-.07Z"/>
            <path class="cls-13" d="M32.37,13.2l.05.15h-.02s0,.03,0,.04l-.13.05s-.02-.07-.03-.1l-.02-.07.15-.07Z"/>
            <path class="cls-13" d="M32.46,13.59c.02.07.04.14.05.21l-.13.05c-.02-.07-.03-.14-.05-.21l.13-.05ZM32.56,14.02c.02.07.03.14.04.22l-.13.04c-.01-.07-.03-.14-.04-.21l.13-.04Z"/>
            <path class="cls-13" d="M32.64,14.46s0,.02,0,.03h.02s.02.15.02.15l-.15.02v-.08s-.02-.07-.03-.1l.13-.03Z"/>
          </g>
          <g>
            <g>
              <path class="cls-13" d="M28.39,23.68l.05.17-.06.02s-.05.02-.08.03l-.04-.15s.01,0,.02,0v-.02s.11-.05.11-.05Z"/>
              <path class="cls-13" d="M28.27,23.27l.05.17-.12.05v-.03s-.02,0-.03,0l-.04-.15s.05-.02.08-.03l.06-.02Z"/>
              <path class="cls-13" d="M27.98,23.37l.04.15c-.05.02-.11.03-.16.05l-.03-.15c.05-.01.1-.03.15-.04ZM24.73,23.26s.1.04.15.05l-.03.14s-.1-.04-.15-.05l.03-.14ZM27.67,23.46l.03.15c-.05.01-.11.02-.16.04l-.02-.15c.05-.01.1-.02.16-.04ZM25.03,23.37s.1.03.15.04l-.02.15c-.05-.01-.1-.03-.15-.05l.02-.14ZM27.36,23.52l.02.15c-.05,0-.11.02-.16.03l-.02-.15c.05,0,.1-.01.16-.02ZM25.34,23.45s.1.02.15.04v.15c-.07-.01-.12-.02-.17-.04l.02-.15ZM27.05,23.56l.02.15c-.05,0-.11.01-.16.02v-.15s.09,0,.15-.02ZM25.64,23.51s.02,0,.04,0c.04,0,.08.01.12.02v.15s-.09-.01-.13-.02c-.01,0-.03,0-.04,0v-.15ZM26.73,23.59v.15s-.1,0-.15,0v-.15s.1,0,.15,0ZM25.95,23.56c.05,0,.1.01.16.02v.15c-.06,0-.11-.01-.16-.02v-.15ZM26.42,23.59v.15s-.1,0-.16,0v-.15c.05,0,.11,0,.16,0Z"/>
              <path class="cls-13" d="M24.46,23.15l.05.02s.05.02.08.03l-.03.14s-.01,0-.02,0v.03s-.12-.05-.12-.05l.04-.16Z"/>
              <path class="cls-13" d="M24.35,23.53l.11.05v.02s0,0,0,0l-.03.14s-.05-.02-.08-.03l-.06-.02.04-.16Z"/>
              <path class="cls-13" d="M28.11,23.8l.04.15c-.05.02-.1.03-.15.05l-.03-.15s.1-.03.15-.04ZM24.62,23.67s.1.04.14.05l-.03.14s-.1-.04-.15-.05l.03-.14ZM27.81,23.89l.03.15c-.05.01-.1.02-.15.04l-.03-.15c.05-.01.1-.02.15-.03ZM24.92,23.78s.1.03.15.05l-.02.15s-.1-.03-.15-.05l.02-.14ZM27.5,23.95l.02.15c-.05,0-.11.02-.16.03l-.02-.15s.1-.02.15-.03ZM25.21,23.86s.1.02.15.04l-.02.15c-.05-.01-.1-.02-.15-.04l.02-.15ZM27.2,24l.02.15c-.05,0-.11.01-.16.02l-.02-.15c.05,0,.1-.01.15-.02ZM25.51,23.93s.09.02.14.03h.01s-.01.15-.01.15h-.01s-.09-.02-.14-.03v-.15ZM26.89,24.03v.15s-.09,0-.15,0v-.15s.09,0,.15,0ZM25.81,23.98s.1.01.15.02v.15c-.06,0-.11-.01-.16-.02v-.15ZM26.58,24.04v.15s-.1,0-.15,0v-.15s.1,0,.15,0ZM26.12,24.02c.05,0,.1,0,.15.01v.15c-.05,0-.1,0-.16-.01v-.15Z"/>
            </g>
            <g>
              <path class="cls-13" d="M28.65,23.11l.05.14s-.01,0-.02.01v.03s-.11.05-.11.05l-.05-.17.06-.02s.05-.02.08-.04Z"/>
              <path class="cls-13" d="M28.75,23.53v.02s.02,0,.02,0l.05.14s-.05.02-.08.04l-.06.03-.05-.17.12-.05Z"/>
              <path class="cls-13" d="M33.14,15.31c0,.07,0,.14.01.22h-.13c0-.06,0-.13-.01-.2h.13ZM33.16,15.74c0,.07,0,.14,0,.22h-.13c0-.07,0-.14,0-.21h.13ZM33.02,16.17h.13c0,.08,0,.15,0,.22h-.13c0-.08,0-.15,0-.22ZM33.01,16.59h.13c0,.07,0,.12-.01.17,0,.02,0,.04,0,.06l-.13-.02s0-.04,0-.06c0-.05,0-.1,0-.16ZM32.97,17.01l.13.02c0,.07-.02.14-.02.21l-.13-.02c0-.07.02-.14.02-.21ZM32.92,17.43l.13.03c-.01.07-.02.14-.03.21l-.13-.03c.01-.07.02-.14.03-.21ZM32.85,17.85l.13.04c-.01.07-.03.14-.04.21l-.13-.04c.01-.07.03-.14.04-.21ZM32.77,18.26l.13.05c-.02.07-.03.14-.05.2l-.13-.05c.02-.07.03-.13.05-.2ZM32.66,18.66l.13.05c-.02.07-.04.14-.06.2l-.12-.06c.02-.06.04-.13.06-.2ZM32.54,19.05l.12.06c-.02.07-.05.13-.07.2l-.12-.06c.02-.06.05-.13.07-.2ZM32.4,19.44l.12.07c-.02.06-.05.13-.08.19l-.12-.07c.02-.06.05-.13.07-.19ZM32.25,19.82l.12.08s-.04.09-.06.13c0,.02-.02.04-.03.06l-.12-.08s.02-.04.03-.06c.02-.04.04-.08.06-.13ZM32.08,20.18l.11.08c-.03.06-.06.12-.09.18l-.11-.09c.03-.06.06-.12.09-.18ZM31.9,20.53l.11.09c-.03.06-.07.12-.1.18l-.11-.09c.03-.06.07-.11.1-.17ZM31.7,20.87l.11.1c-.04.06-.07.11-.11.17l-.1-.1c.04-.05.07-.11.1-.17ZM31.49,21.2l.1.1c-.04.05-.08.11-.11.16l-.1-.11c.04-.05.07-.1.11-.16ZM31.26,21.51l.1.11c-.04.05-.08.1-.12.15l-.1-.11s.08-.1.12-.15ZM31.02,21.81l.09.11s-.08.1-.12.14l-.09-.11s.08-.09.12-.14ZM30.78,22.09l.09.12s-.09.09-.13.14l-.08-.12s.09-.09.13-.13ZM30.52,22.35l.08.12h-.01c-.04.05-.08.09-.12.13l-.08-.12s.08-.08.12-.11h0ZM30.25,22.6l.08.13s-.09.08-.14.12l-.08-.13s.09-.08.14-.12ZM29.97,22.83l.07.13s-.1.07-.14.11l-.07-.13s.1-.07.14-.11ZM29.68,23.04l.07.14s-.1.07-.15.1l-.06-.14s.1-.07.15-.1ZM29.39,23.23l.06.14s-.1.06-.15.09l-.06-.14c.05-.03.1-.06.15-.09ZM29.08,23.4l.05.14c-.05.03-.1.05-.16.08l-.05-.14c.05-.03.1-.05.15-.08Z"/>
              <path class="cls-13" d="M33.1,14.91v.08s.01.07.02.11l-.13.02s0-.02,0-.02h-.02s-.02-.15-.02-.15l.15-.02Z"/>
              <path class="cls-13" d="M32.74,14.96l.02.16h-.02s0,.02,0,.03l-.13.02s0-.07-.01-.1v-.08s.15-.03.15-.03Z"/>
              <path class="cls-13" d="M32.75,15.36c0,.07,0,.14.01.21h-.13c0-.06,0-.13-.01-.2h.13ZM32.77,15.78c0,.07,0,.13,0,.2h0s-.13.01-.13.01h0c0-.08,0-.14,0-.21h.13ZM32.63,16.2h.13c0,.07,0,.15,0,.21h-.13c0-.08,0-.15,0-.21ZM32.61,16.62h.13s0,.07,0,.1c0,.04,0,.08-.01.12l-.13-.02s0-.08,0-.12c0-.03,0-.06,0-.09ZM32.58,17.03l.13.02c0,.07-.02.14-.02.21l-.13-.03c0-.07.02-.14.02-.21ZM32.52,17.44l.13.03c-.01.07-.02.14-.04.21l-.13-.03c.01-.07.02-.13.03-.2ZM32.45,17.84l.13.04c-.01.07-.03.14-.04.2l-.13-.04c.02-.07.03-.13.04-.2ZM32.36,18.24l.13.05c-.02.07-.03.14-.05.2l-.13-.05c.02-.07.04-.13.05-.2ZM32.25,18.63l.12.05c-.02.07-.04.13-.06.2l-.12-.06c.02-.06.04-.13.06-.19ZM32.13,19.02l.12.06c-.02.06-.05.13-.07.19l-.12-.07c.02-.06.05-.12.07-.19ZM31.99,19.39l.12.07c-.03.06-.05.12-.08.19l-.12-.08c.03-.06.05-.12.08-.18ZM31.83,19.75l.12.08c-.03.06-.06.12-.09.18l-.11-.08c.03-.06.06-.12.08-.18ZM31.66,20.11l.11.08c-.03.06-.06.12-.09.18l-.11-.09c.03-.06.06-.11.09-.17ZM31.47,20.45l.11.09c-.03.06-.07.11-.1.17l-.11-.09c.03-.06.07-.11.1-.17ZM31.27,20.77l.1.1c-.04.05-.07.11-.11.16l-.1-.1c.04-.05.07-.1.11-.16ZM31.06,21.08l.1.11c-.04.05-.08.1-.11.15l-.1-.11c.04-.05.08-.1.11-.15ZM30.83,21.38l.09.11s-.08.1-.12.15l-.09-.11s.08-.09.12-.14ZM30.59,21.66l.09.11s-.08.09-.13.14l-.09-.12s.08-.09.12-.13ZM30.34,21.92l.08.12s-.09.09-.13.13l-.08-.12s.09-.08.13-.13ZM30.08,22.17l.08.13s-.09.08-.14.12l-.08-.13s.09-.08.13-.12ZM29.81,22.39l.07.13s-.1.07-.14.11l-.07-.13s.09-.07.14-.11ZM29.53,22.6l.07.13s-.1.07-.15.1l-.06-.14s.1-.07.14-.1ZM29.24,22.79l.06.14s-.1.06-.15.09l-.06-.14s.1-.06.15-.09ZM28.95,22.96l.06.14s-.1.05-.15.08l-.05-.14c.05-.02.1-.05.15-.08Z"/>
            </g>
          </g>
        </g>
      </g>
      <g class="cls-1">
        <g>
          <g>
            <path class="cls-7" d="M20.7,20.26h0c.18.4.4.78.63,1.13h0s-.28.35-.28.35h0c-.21-.33-.4-.66-.58-1.01-.03-.07-.07-.14-.1-.21h0s.33-.26.33-.26ZM21.31,21.39c-.23-.34-.44-.71-.62-1.09l-.29.21c.03.07.06.13.09.19.17.34.36.67.57.98l.25-.29Z"/>
            <path class="cls-7" d="M20.43,11.3l.32.27h0c-1.22,2.52-1.31,5.66-.23,8.27h0s-.33.26-.33.26v-.02c-.32-.76-.55-1.57-.68-2.42-.17-1.09-.18-2.18-.02-3.27.15-1.09.47-2.13.94-3.09h0ZM20.72,11.57l-.28-.23c-.46.95-.77,1.98-.93,3.06-.15,1.08-.15,2.17.02,3.25.13.84.35,1.64.66,2.4l.29-.21c-1.07-2.62-.99-5.76.23-8.27Z"/>
            <path class="cls-7" d="M22.56,8.52l.2.43h-.01c-.71.6-1.31,1.34-1.79,2.22h0s-.32-.25-.32-.25h0c.46-.86,1.04-1.6,1.71-2.2.07-.06.14-.12.21-.18h.01ZM22.73,8.94l-.18-.37c-.07.06-.13.11-.19.17-.66.6-1.23,1.33-1.69,2.17l.28.23c.48-.87,1.08-1.6,1.78-2.2Z"/>
            <path class="cls-7" d="M23.95,7.61l.12.49h-.01c-.33.17-.66.37-.97.59h-.01s-.2-.42-.2-.42h.01c.33-.26.68-.47,1.05-.65h.01ZM24.04,8.08l-.11-.42c-.35.17-.7.39-1.02.62l.18.38c.3-.22.62-.41.95-.57Z"/>
            <path class="cls-7" d="M25.48,7.1l.04.52h-.01c-.36.07-.71.18-1.05.32h-.01s-.12-.48-.12-.48h.01c.16-.07.32-.13.48-.18.22-.07.44-.13.66-.17h.01ZM25.48,7.59l-.03-.45c-.21.04-.43.1-.65.17-.15.05-.31.11-.46.17l.11.42c.33-.13.68-.24,1.03-.31Z"/>
            <path class="cls-7" d="M26.23,7h0c.44-.03.89,0,1.33.07.98.16,1.91.57,2.77,1.2.87.65,1.61,1.49,2.19,2.52.35.61.64,1.27.85,1.97v.02s-.44.18-.44.18v-.02c-.55-1.77-1.54-3.23-2.85-4.21-1.17-.87-2.5-1.29-3.85-1.2-.11,0-.22.02-.33.03h-.01s-.04-.52-.04-.52h.01c.12-.02.24-.03.36-.04ZM33.34,12.75c-.21-.69-.5-1.34-.84-1.95-.58-1.02-1.32-1.86-2.18-2.51-.85-.64-1.78-1.04-2.75-1.2-.44-.07-.89-.1-1.33-.07h0c-.11,0-.23.02-.35.03l.03.45c.11-.01.21-.02.32-.03,1.35-.08,2.69.33,3.86,1.21,1.3.98,2.3,2.43,2.85,4.21l.39-.15Z"/>
            <path class="cls-7" d="M33.51,13.25v.02c.07.27.13.55.18.83.16.93.2,1.87.13,2.81v.02s-.47-.08-.47-.08v-.02c.09-1.15,0-2.29-.28-3.39v-.02s.44-.17.44-.17ZM33.79,16.89c.07-.93.03-1.86-.13-2.78-.05-.27-.11-.55-.17-.81l-.39.15c.27,1.09.37,2.23.28,3.37l.41.07Z"/>
            <path class="cls-7" d="M33.3,17.34l.46.08v.02c-.02.1-.03.2-.04.29-.07.42-.16.84-.27,1.24v.02s-.44-.21-.44-.21v-.02c.13-.46.23-.93.29-1.41v-.02ZM33.73,17.46l-.41-.07c-.06.47-.16.93-.28,1.38l.38.18c.11-.39.2-.8.27-1.22.01-.09.03-.18.04-.27Z"/>
            <g>
              <path class="cls-7" d="M21.59,21.74h0c.3.4.63.77.98,1.08.76.68,1.6,1.16,2.52,1.41h.01s-.06.51-.06.51h-.01s-.09-.03-.12-.04c-.92-.28-1.78-.78-2.55-1.48-.38-.34-.73-.73-1.05-1.15h0s.28-.35.28-.35ZM25.08,24.27c-.91-.25-1.76-.73-2.51-1.41-.35-.32-.68-.68-.98-1.07l-.25.29c.31.41.66.79,1.03,1.13.77.7,1.62,1.19,2.54,1.47.03.01.07.02.11.03l.05-.45Z"/>
              <path class="cls-7" d="M32.86,19.25l.43.21v.02c-.21.59-.46,1.17-.77,1.7-.59,1.03-1.32,1.88-2.18,2.52-.82.61-1.72,1.01-2.66,1.18-.49.09-.98.12-1.46.08-.26-.02-.52-.06-.78-.11h-.01s.06-.52.06-.52h.01c.24.05.48.08.72.1,2.33.15,4.57-1.17,5.93-3.57.28-.5.52-1.03.71-1.59v-.02ZM33.26,19.48l-.38-.18c-.19.55-.43,1.09-.71,1.58-1.37,2.41-3.61,3.73-5.96,3.58-.24-.02-.47-.05-.71-.09l-.05.45c.25.05.51.09.76.1.48.03.97,0,1.46-.08.94-.17,1.83-.57,2.65-1.17.86-.64,1.59-1.48,2.17-2.51.3-.52.55-1.09.75-1.67Z"/>
            </g>
          </g>
          <g>
            <g>
              <path class="cls-13" d="M23.06,22.74l.1.08v.02s0,0,0,.01l-.06.13s-.05-.04-.07-.05l-.05-.04.07-.15Z"/>
              <path class="cls-13" d="M23.28,22.94s.08.05.11.08l-.05.13s-.08-.06-.12-.08l.05-.13ZM23.51,23.1s.08.05.12.08l-.05.13s-.08-.05-.12-.08l.05-.13ZM23.75,23.25s.08.05.12.07l-.04.14s-.08-.05-.12-.07l.05-.13Z"/>
              <path class="cls-13" d="M24.01,23.37l.11.05-.04.16-.06-.03s-.05-.03-.07-.04l.04-.14s.01,0,.02,0v-.02Z"/>
              <path class="cls-13" d="M24.1,22.97s.05.02.07.04l.05.03-.04.16-.11-.05v-.02s0,0-.01-.01l.04-.14Z"/>
              <path class="cls-13" d="M23.49,22.6s.1.07.15.1l-.05.13c-.05-.03-.1-.07-.15-.11l.05-.13ZM23.79,22.8c.05.03.1.06.15.09l-.05.14c-.05-.03-.1-.06-.16-.09l.05-.13Z"/>
              <path class="cls-13" d="M23.23,22.4l.05.04s.04.03.07.05l-.06.13s-.01,0-.02-.01v.02s-.11-.08-.11-.08l.07-.14Z"/>
            </g>
            <g>
              <path class="cls-13" d="M20.27,15.32l.13.02v.07s0,.06,0,.1h-.11s0-.03,0-.04h-.02s.01-.15.01-.15Z"/>
              <path class="cls-13" d="M19.97,15.28l.13.02v.14s-.03,0-.03,0c0,0,0,.01,0,.02h-.11s0-.07,0-.11v-.07Z"/>
              <path class="cls-13" d="M19.95,15.64h.11c0,.07,0,.13,0,.19h-.11c0-.06,0-.13,0-.19ZM20.05,16.02c0,.06,0,.13,0,.19h-.11c0-.06,0-.12,0-.19h.11ZM20.06,16.4c0,.06,0,.12,0,.19h-.11c0-.05,0-.12,0-.18h.11ZM20.09,16.77c0,.06.01.12.02.19l-.11.02c0-.06-.01-.13-.02-.19l.11-.02ZM20.12,17.14c0,.06.02.12.02.18l-.11.02c0-.06-.02-.13-.02-.19l.11-.02ZM20.17,17.51c.01.06.02.12.03.18l-.11.03c-.01-.06-.02-.12-.03-.19l.11-.03ZM20.24,17.88c.01.06.02.12.04.18l-.11.04c-.01-.06-.03-.12-.04-.18l.11-.03ZM20.32,18.24s.01.05.02.07c0,.04.02.07.03.11l-.11.04s-.02-.07-.03-.11c0-.02-.01-.05-.02-.07l.11-.04ZM20.41,18.6c.02.06.03.12.05.18l-.1.05c-.02-.06-.04-.12-.05-.18l.11-.05ZM20.52,18.95c.02.06.04.12.06.17l-.1.06c-.02-.06-.04-.12-.06-.18l.1-.05ZM20.64,19.3c.02.06.04.12.06.17l-.1.06c-.02-.06-.05-.12-.07-.17l.1-.06ZM20.77,19.64c.02.06.05.11.07.17l-.1.07c-.02-.06-.05-.11-.07-.17l.1-.07ZM20.91,19.97c.03.05.05.11.08.16l-.09.08c-.03-.05-.05-.11-.08-.17l.1-.07ZM21.07,20.29c.03.05.06.11.08.16l-.09.08c-.03-.05-.06-.11-.08-.16l.09-.08ZM21.24,20.61c.03.05.06.1.09.15l-.09.09c-.03-.05-.06-.11-.09-.16l.09-.08ZM21.42,20.91s.01.02.02.03c.02.04.05.08.08.12l-.08.09s-.05-.08-.08-.12c0-.01-.01-.02-.02-.03l.09-.09ZM21.61,21.2s.07.1.1.14l-.08.1s-.07-.1-.1-.15l.08-.09ZM21.82,21.49s.07.09.11.14l-.08.1s-.07-.09-.11-.14l.08-.1ZM22.03,21.76s.07.09.11.13l-.07.11s-.08-.09-.11-.13l.08-.11ZM22.25,22.02s.08.08.12.12l-.07.11s-.08-.08-.12-.13l.07-.11ZM22.49,22.26s.08.08.12.12l-.07.12s-.08-.08-.12-.12l.07-.11Z"/>
              <path class="cls-13" d="M22.76,22.49l.1.08-.07.15-.05-.05s-.04-.04-.06-.06l.06-.12s0,0,.01.01v-.02Z"/>
              <path class="cls-13" d="M22.91,22.13s.04.04.06.06l.05.04-.07.14-.1-.08v-.02s0-.01,0-.02l.06-.12Z"/>
              <path class="cls-13" d="M20.27,15.68h.11c0,.07,0,.13,0,.19h-.11c0-.07,0-.13,0-.19ZM20.38,16.06c0,.06,0,.12,0,.18h-.11c0-.06,0-.12,0-.18h.11ZM20.39,16.43c0,.06,0,.12.01.18h-.11c0-.05,0-.11-.01-.18h.11ZM20.42,16.8c0,.06.01.12.02.18l-.11.02c0-.06-.01-.12-.02-.18l.11-.02ZM20.46,17.17c0,.06.02.12.02.18l-.11.03c0-.06-.02-.12-.02-.19l.11-.02ZM20.51,17.53c.01.06.02.12.03.18l-.11.03c-.01-.06-.02-.12-.03-.18l.11-.03ZM20.58,17.89c.01.06.03.12.04.18l-.11.04c-.01-.06-.03-.12-.04-.18l.11-.04ZM20.66,18.25c.02.06.03.12.05.18l-.11.05c-.02-.06-.03-.12-.05-.18l.1-.04ZM20.76,18.6c.02.06.04.12.05.17l-.1.05c-.02-.06-.04-.12-.05-.18l.1-.05ZM20.87,18.94c.02.06.04.11.06.17l-.1.06c-.02-.06-.04-.12-.06-.17l.1-.05ZM20.99,19.28c.02.06.04.11.07.17l-.1.07c-.02-.06-.05-.11-.07-.17l.1-.06ZM21.13,19.61c.02.05.05.11.07.16l-.1.07c-.02-.05-.05-.11-.08-.17l.1-.07ZM21.28,19.94c.02.05.05.11.08.16l-.09.08c-.03-.05-.05-.11-.08-.16l.09-.07ZM21.44,20.25c.03.05.06.1.09.15l-.09.09c-.03-.05-.06-.1-.09-.16l.09-.08ZM21.62,20.55s.06.1.09.15l-.09.09s-.06-.1-.09-.15l.09-.09ZM21.81,20.85s.07.1.1.14l-.08.1s-.07-.1-.1-.15l.09-.09ZM22.01,21.13s.07.09.1.14l-.08.1s-.07-.09-.11-.14l.08-.1ZM22.22,21.4s.07.09.11.13l-.08.11s-.07-.09-.11-.13l.08-.11ZM22.44,21.66s.08.08.11.12l-.07.11s-.08-.08-.12-.13l.07-.11ZM22.67,21.9s.08.08.12.12l-.07.11s-.08-.08-.12-.12l.07-.11Z"/>
            </g>
            <g>
              <path class="cls-13" d="M20.78,11.96l.11.08-.06.12h-.02s0,0,0,0l-.1-.07s.02-.06.04-.08l.03-.06Z"/>
              <path class="cls-13" d="M20.65,12.28l.1.07c-.02.05-.05.11-.07.17l-.1-.06c.02-.06.04-.11.07-.17ZM20.52,12.62l.1.06c-.02.06-.04.11-.06.17l-.1-.06c.02-.06.04-.12.06-.17ZM20.4,12.97l.1.05c-.02.06-.04.12-.05.17l-.1-.05c.02-.06.04-.12.05-.18ZM20.29,13.33l.1.05c-.02.06-.03.12-.05.18l-.11-.04c.02-.06.03-.12.05-.18ZM20.2,13.7l.11.04c-.01.06-.03.12-.04.18l-.11-.04c.01-.06.03-.12.04-.18ZM20.12,14.07l.11.03c-.01.06-.02.12-.03.18l-.11-.03c.01-.06.02-.12.03-.19ZM20.06,14.44l.11.03c0,.06-.02.12-.03.18l-.11-.02c0-.06.02-.12.03-.19Z"/>
              <path class="cls-13" d="M20.01,14.81l.11.02s0,.01,0,.02h.02s-.01.15-.01.15l-.13-.02v-.07s.01-.07.02-.1Z"/>
              <path class="cls-13" d="M20.33,14.85l.11.02s0,.06-.01.1v.07s-.13-.02-.13-.02v-.14s.03,0,.03,0c0-.01,0-.02,0-.03Z"/>
              <path class="cls-13" d="M20.92,12.5l.1.07c-.02.06-.05.12-.07.18l-.1-.06c.02-.06.05-.13.07-.19ZM20.78,12.88l.1.06c-.02.06-.04.12-.06.18l-.1-.05c.02-.06.04-.13.06-.19ZM20.66,13.26l.1.05c-.02.06-.04.13-.05.19l-.11-.05c.02-.07.04-.13.06-.2ZM20.55,13.65l.11.04c-.02.06-.03.13-.05.19l-.11-.04c.02-.07.03-.13.05-.2ZM20.46,14.04l.11.04c-.01.07-.03.13-.04.2l-.11-.03c.01-.07.02-.13.04-.2ZM20.39,14.44l.11.03c-.01.07-.02.13-.03.2l-.11-.02c0-.07.02-.13.03-.2Z"/>
              <path class="cls-13" d="M21.05,12.16l.11.08-.03.06s-.02.05-.04.08l-.1-.07s0-.02.01-.02h-.02s.06-.14.06-.14Z"/>
            </g>
            <g>
              <path class="cls-13" d="M21.6,10.53l.1.11-.08.11v-.02s-.02.01-.02.02l-.08-.1s.03-.05.05-.08l.04-.05Z"/>
              <path class="cls-13" d="M21.4,10.83l.09.09c-.04.06-.07.11-.11.17l-.09-.09c.04-.06.07-.12.11-.17ZM21.18,11.19l.09.08c-.03.06-.07.12-.1.18l-.09-.08c.04-.06.07-.12.1-.18Z"/>
              <path class="cls-13" d="M20.98,11.55l.09.08s0,.01,0,.02h.01s-.06.14-.06.14l-.11-.09.03-.06s.03-.06.04-.08Z"/>
              <path class="cls-13" d="M21.27,11.76l.09.08s-.03.05-.04.08l-.03.06-.11-.08.06-.13h.02s0,0,.01-.01Z"/>
              <path class="cls-13" d="M21.65,11.11l.08.09c-.03.05-.07.11-.1.16l-.09-.09c.03-.05.07-.11.1-.16ZM21.45,11.43l.09.08c-.03.05-.06.11-.09.16l-.09-.08c.03-.06.06-.11.09-.17Z"/>
              <path class="cls-13" d="M21.83,10.81l.09.11-.04.05s-.03.05-.05.07l-.08-.09s.01-.01.01-.02v-.02s.07-.11.07-.11Z"/>
            </g>
            <g>
              <path class="cls-13" d="M22.65,9.35l.07.14-.1.08v-.02s-.02,0-.02.01l-.07-.12s.04-.04.06-.06l.05-.05Z"/>
              <path class="cls-13" d="M22.39,9.59l.07.11s-.09.09-.14.14l-.07-.11c.05-.05.09-.1.14-.14ZM22.12,9.88l.07.11s-.09.1-.13.15l-.08-.11c.04-.05.09-.1.13-.15Z"/>
              <path class="cls-13" d="M21.86,10.18l.08.1s0,0-.01.02h.01s-.08.12-.08.12l-.1-.11.04-.06s.04-.05.06-.07Z"/>
              <path class="cls-13" d="M22.11,10.47l.08.1s-.04.05-.05.07l-.04.05-.09-.11.08-.11.02.02s.01-.01.02-.02Z"/>
              <path class="cls-13" d="M22.59,9.93l.07.11s-.08.08-.12.13l-.07-.11s.08-.09.12-.13ZM22.34,10.2l.07.11s-.08.09-.12.14l-.08-.11s.08-.09.12-.14Z"/>
              <path class="cls-13" d="M22.82,9.68l.07.14-.05.04s-.04.04-.06.06l-.07-.11s.01-.01.02-.02v-.02s.08-.08.08-.08Z"/>
            </g>
            <g>
              <path class="cls-13" d="M23.12,9.42v.02s.02,0,.03-.02l.06.12s-.04.04-.07.05l-.05.04-.07-.14.09-.08Z"/>
              <path class="cls-13" d="M26.22,8.22v.15c-.05,0-.11,0-.16.01v-.15c.05,0,.11,0,.16-.01ZM26.38,8.21c.05,0,.11,0,.17,0v.15c-.06,0-.11,0-.17,0v-.15ZM25.89,8.25v.15s-.1.01-.15.02v-.15s.1-.02.15-.02ZM26.71,8.21s.05,0,.07,0c.03,0,.06,0,.09,0v.15s-.07,0-.1,0c-.02,0-.05,0-.07,0v-.15ZM25.56,8.3v.15s-.09.02-.14.03l-.02-.15c.05-.01.11-.02.16-.03ZM27.04,8.24c.05,0,.11.01.17.02l-.02.15c-.05,0-.11-.01-.16-.02l.02-.15ZM25.24,8.37l.02.15c-.05.01-.11.03-.16.04l-.02-.15c.05-.02.11-.03.16-.04ZM27.37,8.28c.05.01.11.02.17.03l-.03.15c-.05-.01-.11-.02-.16-.03l.02-.15ZM24.92,8.47l.03.14c-.05.02-.1.03-.15.05l-.03-.14c.05-.02.1-.04.16-.05ZM27.7,8.35c.05.01.11.03.16.04l-.03.15c-.05-.01-.11-.03-.16-.04l.03-.15ZM24.61,8.58l.03.14s-.1.04-.15.06l-.03-.14s.1-.04.15-.06ZM28.03,8.44c.05.02.11.03.16.05l-.04.15c-.05-.02-.11-.03-.16-.05l.04-.15ZM24.3,8.71l.04.14s-.1.05-.15.07l-.04-.14c.05-.02.1-.05.15-.07ZM28.35,8.55c.05.02.11.04.16.06l-.05.15c-.05-.02-.1-.04-.16-.06l.04-.15ZM24,8.86l.04.14s-.1.05-.14.08l-.05-.13s.1-.06.15-.08ZM28.67,8.69c.05.02.11.05.16.08l-.05.14s-.1-.05-.15-.07l.05-.14ZM23.71,9.03l.05.13s-.09.06-.14.09l-.05-.13s.09-.06.14-.09ZM28.98,8.84c.05.03.1.05.15.09l-.06.14c-.05-.03-.1-.06-.15-.08l.05-.14ZM23.43,9.22l.05.13s-.09.06-.14.1l-.06-.12s.09-.07.14-.1ZM29.29,9.02s.1.06.15.1l-.06.14s-.1-.06-.15-.09l.06-.14ZM29.58,9.22s.1.07.14.11l-.07.13s-.1-.07-.14-.1l.07-.14ZM29.87,9.43s.09.08.14.12l-.08.13s-.09-.08-.14-.11l.07-.13ZM30.15,9.67s.09.08.14.12l-.08.12s-.09-.08-.13-.12l.08-.13Z"/>
              <path class="cls-13" d="M30.46,9.92l.09.11-.1.13-.05-.05-.06-.06.08-.12s.01.01.02.02l.02-.02Z"/>
              <path class="cls-13" d="M30.69,9.58s.04.04.07.07l.05.05-.11.14-.09-.1v-.02s0-.01,0-.01l.08-.12Z"/>
              <path class="cls-13" d="M26.22,7.78s.03,0,.05,0v.15s-.03,0-.05,0c-.04,0-.07,0-.11,0v-.15s.08,0,.11,0ZM26.43,7.77c.05,0,.11,0,.16,0v.15c-.06,0-.11,0-.17,0v-.15ZM25.94,7.8v.15s-.1.01-.15.02v-.15s.1-.02.15-.02ZM26.75,7.77s.05,0,.07,0c.03,0,.06,0,.09,0v.15s-.07,0-.1,0c-.02,0-.05,0-.07,0v-.15ZM25.62,7.85v.15s-.09.02-.15.03v-.15s.09-.02.15-.03ZM27.07,7.79c.05,0,.11.01.16.02l-.02.15c-.05,0-.11-.01-.16-.02l.02-.15ZM25.31,7.91l.02.15c-.05.01-.1.02-.15.04l-.02-.15c.05-.01.1-.03.16-.04ZM27.4,7.83c.05,0,.11.02.16.03l-.02.15c-.05,0-.11-.02-.16-.03l.02-.15ZM24.99,7.99l.02.14s-.1.03-.15.05l-.02-.14c.05-.02.1-.03.15-.05ZM27.72,7.9c.05.01.11.02.16.04l-.03.15c-.05-.01-.11-.02-.16-.04l.03-.15ZM24.69,8.1l.03.14s-.1.04-.15.06l-.03-.14s.1-.04.15-.06ZM28.04,7.98c.05.02.11.03.16.05l-.04.15c-.05-.02-.11-.03-.16-.05l.03-.15ZM24.38,8.21l.03.14s-.09.04-.14.06h-.01s-.04-.13-.04-.13h.01s.09-.05.14-.07ZM28.36,8.08c.05.02.11.04.16.06l-.04.14c-.05-.02-.1-.04-.15-.06l.04-.15ZM24.08,8.35l.04.14s-.1.05-.14.07l-.04-.14s.1-.05.15-.08ZM28.67,8.2c.05.02.11.04.15.07l-.05.14s-.1-.05-.15-.07l.05-.14ZM23.79,8.51l.04.14s-.1.05-.14.08l-.05-.13s.09-.06.14-.08ZM28.98,8.34s.1.05.15.08l-.05.14c-.05-.03-.1-.05-.15-.08l.05-.14ZM23.51,8.68l.05.13s-.09.06-.14.09l-.05-.13s.09-.06.14-.09ZM29.28,8.5s.08.05.12.07c.01,0,.02.01.03.02l-.06.14s-.02-.01-.03-.02c-.04-.02-.08-.05-.11-.07l.06-.14ZM23.23,8.87l.05.13s-.09.06-.13.1l-.05-.12s.09-.07.13-.1ZM29.58,8.68s.1.06.15.1l-.07.14s-.1-.06-.14-.1l.06-.14ZM29.87,8.88s.1.07.14.11l-.07.13s-.09-.07-.14-.11l.07-.13ZM30.15,9.1s.09.08.14.11l-.08.13s-.09-.08-.14-.11l.07-.13ZM30.43,9.33s.09.08.13.12l-.08.12s-.09-.08-.13-.12l.08-.12Z"/>
              <path class="cls-13" d="M22.96,9.07l.06.12s-.01,0-.02.01v.02s-.09.08-.09.08l-.08-.14.05-.04s.05-.04.07-.05Z"/>
            </g>
            <g>
              <path class="cls-13" d="M32.19,12.73s0,.02.01.03h.02s.05.13.05.13l-.14.07-.02-.07s-.02-.06-.03-.09l.12-.07Z"/>
              <path class="cls-13" d="M32.56,12.56s.02.07.04.1l.03.08-.15.07-.05-.15h.02s0-.02,0-.03l.12-.07Z"/>
              <path class="cls-13" d="M31.23,10.19s.08.1.11.15l-.1.11s-.08-.1-.11-.15l.1-.11ZM31.46,10.49s.02.02.03.04c.03.04.06.08.08.12l-.1.1s-.05-.08-.08-.12c0-.01-.02-.02-.02-.04l.1-.1ZM31.67,10.8c.04.05.07.11.1.16l-.11.1c-.03-.05-.07-.11-.1-.16l.1-.1ZM31.88,11.13c.03.05.07.11.1.17l-.11.09c-.03-.05-.06-.11-.1-.16l.11-.09ZM32.07,11.47c.03.06.06.12.09.17l-.11.08c-.03-.06-.06-.12-.09-.17l.11-.09ZM32.25,11.82c.03.06.06.12.08.18l-.12.08c-.03-.06-.05-.12-.08-.18l.11-.08ZM32.41,12.19c.02.06.05.12.08.18l-.12.07c-.02-.06-.05-.12-.07-.18l.12-.07Z"/>
              <path class="cls-13" d="M31,9.91l.05.05s.04.05.06.07l-.09.11s0-.01-.01-.02l-.02.02-.09-.1.11-.14Z"/>
              <path class="cls-13" d="M30.75,10.24l.09.1-.02.02s.01.01.02.02l-.09.11s-.04-.05-.06-.07l-.05-.05.1-.13Z"/>
              <path class="cls-13" d="M30.97,10.54c.04.05.08.11.12.16l-.1.11c-.04-.05-.08-.11-.12-.16l.1-.11ZM31.21,10.87c.04.06.08.11.12.17l-.1.1c-.04-.06-.08-.11-.11-.17l.1-.1ZM31.44,11.21c.04.06.07.12.11.18l-.11.09c-.03-.06-.07-.12-.11-.17l.1-.1ZM31.65,11.57c.03.06.07.12.1.18l-.11.08c-.03-.06-.07-.12-.1-.18l.11-.09ZM31.85,11.94c.03.06.06.13.09.19l-.11.08c-.03-.06-.06-.13-.09-.19l.11-.08ZM32.03,12.33c.03.07.06.13.08.2l-.12.07c-.03-.07-.05-.13-.08-.19l.12-.08Z"/>
            </g>
            <g>
              <path class="cls-13" d="M33.04,14.39s.01.07.02.11v.08s-.15.02-.15.02l-.02-.16h.02s0-.02,0-.02l.13-.03Z"/>
              <path class="cls-13" d="M32.84,13.44c.02.08.04.15.06.23l-.13.05c-.02-.08-.04-.15-.06-.23l.13-.05ZM32.95,13.91c.02.08.03.16.05.24l-.13.04c-.01-.08-.03-.16-.05-.23l.13-.04Z"/>
              <path class="cls-13" d="M32.72,13.04l.02.08s.02.07.03.1l-.12.05s0-.02,0-.02h-.02s-.05-.14-.05-.14l.14-.07Z"/>
              <path class="cls-13" d="M32.37,13.2l.05.15h-.02s0,.03,0,.04l-.13.05s-.02-.07-.03-.1l-.02-.07.15-.07Z"/>
              <path class="cls-13" d="M32.46,13.59c.02.07.04.14.05.21l-.13.05c-.02-.07-.03-.14-.05-.21l.13-.05ZM32.56,14.02c.02.07.03.14.04.22l-.13.04c-.01-.07-.03-.14-.04-.21l.13-.04Z"/>
              <path class="cls-13" d="M32.64,14.46s0,.02,0,.03h.02s.02.15.02.15l-.15.02v-.08s-.02-.07-.03-.1l.13-.03Z"/>
            </g>
            <g>
              <g>
                <path class="cls-13" d="M28.39,23.68l.05.17-.06.02s-.05.02-.08.03l-.04-.15s.01,0,.02,0v-.02s.11-.05.11-.05Z"/>
                <path class="cls-13" d="M28.27,23.27l.05.17-.12.05v-.03s-.02,0-.03,0l-.04-.15s.05-.02.08-.03l.06-.02Z"/>
                <path class="cls-13" d="M27.98,23.37l.04.15c-.05.02-.11.03-.16.05l-.03-.15c.05-.01.1-.03.15-.04ZM24.73,23.26s.1.04.15.05l-.03.14s-.1-.04-.15-.05l.03-.14ZM27.67,23.46l.03.15c-.05.01-.11.02-.16.04l-.02-.15c.05-.01.1-.02.16-.04ZM25.03,23.37s.1.03.15.04l-.02.15c-.05-.01-.1-.03-.15-.05l.02-.14ZM27.36,23.52l.02.15c-.05,0-.11.02-.16.03l-.02-.15c.05,0,.1-.01.16-.02ZM25.34,23.45s.1.02.15.04v.15c-.07-.01-.12-.02-.17-.04l.02-.15ZM27.05,23.56l.02.15c-.05,0-.11.01-.16.02v-.15s.09,0,.15-.02ZM25.64,23.51s.02,0,.04,0c.04,0,.08.01.12.02v.15s-.09-.01-.13-.02c-.01,0-.03,0-.04,0v-.15ZM26.73,23.59v.15s-.1,0-.15,0v-.15s.1,0,.15,0ZM25.95,23.56c.05,0,.1.01.16.02v.15c-.06,0-.11-.01-.16-.02v-.15ZM26.42,23.59v.15s-.1,0-.16,0v-.15c.05,0,.11,0,.16,0Z"/>
                <path class="cls-13" d="M24.46,23.15l.05.02s.05.02.08.03l-.03.14s-.01,0-.02,0v.03s-.12-.05-.12-.05l.04-.16Z"/>
                <path class="cls-13" d="M24.35,23.53l.11.05v.02s0,0,0,0l-.03.14s-.05-.02-.08-.03l-.06-.02.04-.16Z"/>
                <path class="cls-13" d="M28.11,23.8l.04.15c-.05.02-.1.03-.15.05l-.03-.15s.1-.03.15-.04ZM24.62,23.67s.1.04.14.05l-.03.14s-.1-.04-.15-.05l.03-.14ZM27.81,23.89l.03.15c-.05.01-.1.02-.15.04l-.03-.15c.05-.01.1-.02.15-.03ZM24.92,23.78s.1.03.15.05l-.02.15s-.1-.03-.15-.05l.02-.14ZM27.5,23.95l.02.15c-.05,0-.11.02-.16.03l-.02-.15s.1-.02.15-.03ZM25.21,23.86s.1.02.15.04l-.02.15c-.05-.01-.1-.02-.15-.04l.02-.15ZM27.2,24l.02.15c-.05,0-.11.01-.16.02l-.02-.15c.05,0,.1-.01.15-.02ZM25.51,23.93s.09.02.14.03h.01s-.01.15-.01.15h-.01s-.09-.02-.14-.03v-.15ZM26.89,24.03v.15s-.09,0-.15,0v-.15s.09,0,.15,0ZM25.81,23.98s.1.01.15.02v.15c-.06,0-.11-.01-.16-.02v-.15ZM26.58,24.04v.15s-.1,0-.15,0v-.15s.1,0,.15,0ZM26.12,24.02c.05,0,.1,0,.15.01v.15c-.05,0-.1,0-.16-.01v-.15Z"/>
              </g>
              <g>
                <path class="cls-13" d="M28.65,23.11l.05.14s-.01,0-.02.01v.03s-.11.05-.11.05l-.05-.17.06-.02s.05-.02.08-.04Z"/>
                <path class="cls-13" d="M28.75,23.53v.02s.02,0,.02,0l.05.14s-.05.02-.08.04l-.06.03-.05-.17.12-.05Z"/>
                <path class="cls-13" d="M33.14,15.31c0,.07,0,.14.01.22h-.13c0-.06,0-.13-.01-.2h.13ZM33.16,15.74c0,.07,0,.14,0,.22h-.13c0-.07,0-.14,0-.21h.13ZM33.02,16.17h.13c0,.08,0,.15,0,.22h-.13c0-.08,0-.15,0-.22ZM33.01,16.59h.13c0,.07,0,.12-.01.17,0,.02,0,.04,0,.06l-.13-.02s0-.04,0-.06c0-.05,0-.1,0-.16ZM32.97,17.01l.13.02c0,.07-.02.14-.02.21l-.13-.02c0-.07.02-.14.02-.21ZM32.92,17.43l.13.03c-.01.07-.02.14-.03.21l-.13-.03c.01-.07.02-.14.03-.21ZM32.85,17.85l.13.04c-.01.07-.03.14-.04.21l-.13-.04c.01-.07.03-.14.04-.21ZM32.77,18.26l.13.05c-.02.07-.03.14-.05.2l-.13-.05c.02-.07.03-.13.05-.2ZM32.66,18.66l.13.05c-.02.07-.04.14-.06.2l-.12-.06c.02-.06.04-.13.06-.2ZM32.54,19.05l.12.06c-.02.07-.05.13-.07.2l-.12-.06c.02-.06.05-.13.07-.2ZM32.4,19.44l.12.07c-.02.06-.05.13-.08.19l-.12-.07c.02-.06.05-.13.07-.19ZM32.25,19.82l.12.08s-.04.09-.06.13c0,.02-.02.04-.03.06l-.12-.08s.02-.04.03-.06c.02-.04.04-.08.06-.13ZM32.08,20.18l.11.08c-.03.06-.06.12-.09.18l-.11-.09c.03-.06.06-.12.09-.18ZM31.9,20.53l.11.09c-.03.06-.07.12-.1.18l-.11-.09c.03-.06.07-.11.1-.17ZM31.7,20.87l.11.1c-.04.06-.07.11-.11.17l-.1-.1c.04-.05.07-.11.1-.17ZM31.49,21.2l.1.1c-.04.05-.08.11-.11.16l-.1-.11c.04-.05.07-.1.11-.16ZM31.26,21.51l.1.11c-.04.05-.08.1-.12.15l-.1-.11s.08-.1.12-.15ZM31.02,21.81l.09.11s-.08.1-.12.14l-.09-.11s.08-.09.12-.14ZM30.78,22.09l.09.12s-.09.09-.13.14l-.08-.12s.09-.09.13-.13ZM30.52,22.35l.08.12h-.01c-.04.05-.08.09-.12.13l-.08-.12s.08-.08.12-.11h0ZM30.25,22.6l.08.13s-.09.08-.14.12l-.08-.13s.09-.08.14-.12ZM29.97,22.83l.07.13s-.1.07-.14.11l-.07-.13s.1-.07.14-.11ZM29.68,23.04l.07.14s-.1.07-.15.1l-.06-.14s.1-.07.15-.1ZM29.39,23.23l.06.14s-.1.06-.15.09l-.06-.14c.05-.03.1-.06.15-.09ZM29.08,23.4l.05.14c-.05.03-.1.05-.16.08l-.05-.14c.05-.03.1-.05.15-.08Z"/>
                <path class="cls-13" d="M33.1,14.91v.08s.01.07.02.11l-.13.02s0-.02,0-.02h-.02s-.02-.15-.02-.15l.15-.02Z"/>
                <path class="cls-13" d="M32.74,14.96l.02.16h-.02s0,.02,0,.03l-.13.02s0-.07-.01-.1v-.08s.15-.03.15-.03Z"/>
                <path class="cls-13" d="M32.75,15.36c0,.07,0,.14.01.21h-.13c0-.06,0-.13-.01-.2h.13ZM32.77,15.78c0,.07,0,.13,0,.2h0s-.13.01-.13.01h0c0-.08,0-.14,0-.21h.13ZM32.63,16.2h.13c0,.07,0,.15,0,.21h-.13c0-.08,0-.15,0-.21ZM32.61,16.62h.13s0,.07,0,.1c0,.04,0,.08-.01.12l-.13-.02s0-.08,0-.12c0-.03,0-.06,0-.09ZM32.58,17.03l.13.02c0,.07-.02.14-.02.21l-.13-.03c0-.07.02-.14.02-.21ZM32.52,17.44l.13.03c-.01.07-.02.14-.04.21l-.13-.03c.01-.07.02-.13.03-.2ZM32.45,17.84l.13.04c-.01.07-.03.14-.04.2l-.13-.04c.02-.07.03-.13.04-.2ZM32.36,18.24l.13.05c-.02.07-.03.14-.05.2l-.13-.05c.02-.07.04-.13.05-.2ZM32.25,18.63l.12.05c-.02.07-.04.13-.06.2l-.12-.06c.02-.06.04-.13.06-.19ZM32.13,19.02l.12.06c-.02.06-.05.13-.07.19l-.12-.07c.02-.06.05-.12.07-.19ZM31.99,19.39l.12.07c-.03.06-.05.12-.08.19l-.12-.08c.03-.06.05-.12.08-.18ZM31.83,19.75l.12.08c-.03.06-.06.12-.09.18l-.11-.08c.03-.06.06-.12.08-.18ZM31.66,20.11l.11.08c-.03.06-.06.12-.09.18l-.11-.09c.03-.06.06-.11.09-.17ZM31.47,20.45l.11.09c-.03.06-.07.11-.1.17l-.11-.09c.03-.06.07-.11.1-.17ZM31.27,20.77l.1.1c-.04.05-.07.11-.11.16l-.1-.1c.04-.05.07-.1.11-.16ZM31.06,21.08l.1.11c-.04.05-.08.1-.11.15l-.1-.11c.04-.05.08-.1.11-.15ZM30.83,21.38l.09.11s-.08.1-.12.15l-.09-.11s.08-.09.12-.14ZM30.59,21.66l.09.11s-.08.09-.13.14l-.09-.12s.08-.09.12-.13ZM30.34,21.92l.08.12s-.09.09-.13.13l-.08-.12s.09-.08.13-.13ZM30.08,22.17l.08.13s-.09.08-.14.12l-.08-.13s.09-.08.13-.12ZM29.81,22.39l.07.13s-.1.07-.14.11l-.07-.13s.09-.07.14-.11ZM29.53,22.6l.07.13s-.1.07-.15.1l-.06-.14s.1-.07.14-.1ZM29.24,22.79l.06.14s-.1.06-.15.09l-.06-.14s.1-.06.15-.09ZM28.95,22.96l.06.14s-.1.05-.15.08l-.05-.14c.05-.02.1-.05.15-.08Z"/>
              </g>
            </g>
          </g>
        </g>
      </g>
      <g class="cls-2">
        <g>
          <g>
            <path class="cls-7" d="M21.64,19.47h0c.15.33.32.64.51.92h0s-.23.28-.23.28h0c-.17-.27-.33-.54-.47-.82-.03-.05-.05-.11-.08-.17h0s.27-.21.27-.21ZM22.14,20.4c-.19-.28-.36-.58-.5-.89l-.24.17c.03.05.05.11.08.16.14.28.3.55.46.8l.2-.24Z"/>
            <path class="cls-7" d="M21.42,12.16l.26.22h0c-1,2.05-1.07,4.61-.19,6.75h0s-.27.21-.27.21h0c-.26-.63-.44-1.3-.55-1.98-.14-.89-.14-1.78-.02-2.67.13-.89.38-1.74.76-2.52h0ZM21.65,12.39l-.23-.19c-.38.77-.63,1.61-.76,2.5-.13.88-.12,1.77.02,2.65.11.68.29,1.34.54,1.95l.24-.17c-.88-2.14-.81-4.7.19-6.74Z"/>
            <path class="cls-7" d="M23.16,9.89l.17.35h0c-.58.49-1.07,1.1-1.46,1.81h0s-.26-.21-.26-.21h0c.38-.7.85-1.3,1.39-1.8.05-.05.11-.1.17-.15h0ZM23.3,10.24l-.14-.3c-.05.05-.11.09-.16.14-.54.49-1.01,1.08-1.38,1.77l.23.19c.39-.71.88-1.31,1.46-1.79Z"/>
            <path class="cls-7" d="M24.29,9.15l.1.4h-.01c-.27.14-.54.3-.79.48h0s-.17-.35-.17-.35h.01c.27-.21.56-.39.85-.53h.01ZM24.36,9.54l-.09-.35c-.29.14-.57.31-.83.51l.15.31c.25-.18.51-.34.77-.47Z"/>
            <path class="cls-7" d="M25.53,8.73l.03.42h-.01c-.29.06-.58.15-.86.26h0s-.1-.39-.1-.39h.01c.13-.06.26-.11.39-.15.18-.06.36-.1.54-.14h.01ZM25.54,9.13l-.03-.37c-.17.04-.35.08-.53.14-.13.04-.25.09-.38.14l.09.35c.27-.11.56-.19.84-.25Z"/>
            <path class="cls-7" d="M26.15,8.65h0c.36-.02.73,0,1.09.05.8.13,1.56.46,2.26.98.71.53,1.31,1.22,1.79,2.05.29.5.52,1.04.7,1.61h0s-.36.16-.36.16h0c-.45-1.46-1.26-2.65-2.32-3.44-.95-.71-2.04-1.05-3.14-.98-.09,0-.18.01-.27.02h-.01s-.03-.42-.03-.42h.01c.1-.01.2-.02.29-.03ZM31.95,13.34c-.17-.56-.4-1.1-.69-1.59-.47-.83-1.08-1.52-1.78-2.05-.7-.52-1.45-.85-2.25-.98-.36-.06-.72-.08-1.08-.05h0c-.09,0-.19.02-.28.03l.03.37c.09-.01.17-.02.26-.02,1.1-.07,2.19.27,3.15.98,1.07.8,1.87,1.98,2.33,3.43l.32-.12Z"/>
            <path class="cls-7" d="M32.09,13.75h0c.06.24.11.46.14.69.13.76.17,1.53.1,2.29v.02s-.38-.07-.38-.07h0c.07-.95,0-1.88-.23-2.78h0s.36-.15.36-.15ZM32.32,16.72c.06-.76.03-1.52-.1-2.27-.04-.22-.09-.45-.14-.66l-.32.12c.22.89.3,1.82.23,2.75l.33.06Z"/>
            <path class="cls-7" d="M31.92,17.09l.38.07v.02c-.01.08-.02.16-.04.23-.05.34-.13.68-.22,1.01h0s-.36-.16-.36-.16h0c.11-.39.18-.77.23-1.16h0ZM32.27,17.19l-.33-.06c-.05.38-.13.76-.23,1.13l.31.15c.09-.32.16-.66.22-.99.01-.07.02-.14.03-.22Z"/>
            <g>
              <path class="cls-7" d="M22.36,20.68h0c.24.33.51.62.8.88.62.56,1.31.95,2.05,1.15h.01s-.05.42-.05.42h-.01s-.07-.02-.1-.03c-.75-.23-1.45-.63-2.08-1.2-.31-.28-.6-.59-.85-.94h0s.23-.28.23-.28ZM25.21,22.74c-.74-.21-1.43-.6-2.05-1.15-.29-.26-.55-.55-.8-.87l-.2.24c.25.34.54.65.84.92.63.57,1.32.97,2.08,1.2.03,0,.05.02.09.02l.04-.36Z"/>
              <path class="cls-7" d="M31.56,18.65l.35.17h0c-.17.5-.38.96-.62,1.4-.48.84-1.08,1.53-1.78,2.05-.67.5-1.4.82-2.17.96-.4.07-.8.1-1.19.07-.21-.02-.43-.05-.64-.09h-.01s.05-.42.05-.42h.01c.19.04.39.07.58.08,1.9.12,3.73-.95,4.84-2.91.23-.41.42-.84.58-1.3h0ZM31.88,18.84l-.31-.15c-.15.45-.35.89-.58,1.29-1.12,1.97-2.95,3.05-4.86,2.92-.19-.01-.39-.04-.58-.08l-.04.37c.2.04.42.07.62.08.39.03.79,0,1.19-.07.77-.14,1.5-.46,2.17-.96.7-.52,1.3-1.21,1.77-2.05.24-.43.45-.89.61-1.36Z"/>
            </g>
          </g>
          <g>
            <g>
              <path class="cls-13" d="M23.56,21.5l.08.07v.02s0,0,0,0l-.05.1s-.04-.03-.06-.04l-.04-.03.06-.12Z"/>
              <path class="cls-13" d="M23.74,21.66s.06.05.09.07l-.04.11s-.06-.05-.1-.07l.04-.1ZM23.93,21.79s.06.04.1.06l-.04.11s-.07-.04-.1-.06l.04-.11ZM24.12,21.91s.07.04.1.06l-.04.11s-.07-.04-.1-.06l.04-.11Z"/>
              <path class="cls-13" d="M24.34,22.01l.09.04-.03.13-.05-.02s-.04-.02-.06-.03l.03-.11s0,0,.01,0v-.02Z"/>
              <path class="cls-13" d="M24.41,21.69s.04.02.06.03l.04.02-.03.13-.09-.04v-.02s0,0-.01,0l.03-.11Z"/>
              <path class="cls-13" d="M23.91,21.38s.08.06.12.08l-.04.11s-.08-.06-.12-.09l.04-.1ZM24.16,21.54s.08.05.13.08l-.04.11s-.08-.05-.13-.08l.04-.11Z"/>
              <path class="cls-13" d="M23.7,21.22l.04.03s.04.03.05.04l-.05.1s-.01,0-.02-.01v.02s-.09-.07-.09-.07l.06-.12Z"/>
            </g>
            <g>
              <path class="cls-13" d="M21.29,15.44h.1s0,.07,0,.07c0,.03,0,.05,0,.08h-.09s0-.02,0-.03h-.02s0-.12,0-.12Z"/>
              <path class="cls-13" d="M21.04,15.41h.11s0,.13,0,.13h-.01s0,0,0,.02h-.09s0-.06,0-.09v-.06Z"/>
              <path class="cls-13" d="M21.03,15.7h.09c0,.05,0,.11,0,.16h-.09c0-.05,0-.11,0-.16ZM21.11,16.01c0,.05,0,.1,0,.15h-.09s0-.1,0-.15h.09ZM21.12,16.32c0,.05,0,.1,0,.15h-.09s0-.1,0-.15h.09ZM21.14,16.62c0,.05,0,.1.01.15h-.09s0-.09-.01-.14h.09ZM21.17,16.93s.01.1.02.15l-.09.02c0-.05-.01-.1-.02-.15l.09-.02ZM21.21,17.23s.02.1.02.15l-.09.03s-.02-.1-.02-.15l.09-.02ZM21.26,17.53s.02.1.03.15l-.09.03s-.02-.1-.03-.15l.09-.03ZM21.33,17.82s0,.04.01.06c0,.03.01.06.02.09l-.08.04s-.02-.06-.02-.09c0-.02-.01-.04-.01-.06l.09-.03ZM21.4,18.12s.03.1.04.14l-.08.04s-.03-.1-.04-.15l.09-.04ZM21.49,18.4s.03.1.05.14l-.08.05s-.03-.1-.05-.14l.08-.04ZM21.58,18.69s.04.09.05.14l-.08.05s-.04-.1-.05-.14l.08-.05ZM21.69,18.96s.04.09.06.14l-.08.06s-.04-.09-.06-.14l.08-.05ZM21.81,19.23s.04.09.06.13l-.08.06s-.04-.09-.06-.14l.08-.06ZM21.94,19.5s.05.09.07.13l-.07.07s-.05-.09-.07-.13l.08-.06ZM22.08,19.75s.05.08.07.12l-.07.07s-.05-.09-.08-.13l.07-.07ZM22.22,20s.01.02.02.02c.02.03.04.07.06.1l-.07.07s-.04-.07-.06-.1c0,0-.01-.02-.02-.03l.07-.07ZM22.38,20.24s.05.08.08.12l-.07.08s-.06-.08-.08-.12l.07-.08ZM22.55,20.47s.06.08.09.11l-.06.08s-.06-.08-.09-.11l.06-.08ZM22.72,20.69s.06.07.09.11l-.06.09s-.06-.07-.09-.11l.06-.09ZM22.91,20.91s.06.07.1.1l-.06.09s-.07-.07-.1-.1l.06-.09ZM23.1,21.11s.07.06.1.1l-.05.1s-.07-.07-.1-.1l.06-.09Z"/>
              <path class="cls-13" d="M23.32,21.29l.08.07-.06.12-.04-.04s-.04-.03-.05-.05l.05-.1s0,0,.01.01v-.02Z"/>
              <path class="cls-13" d="M23.44,21s.03.03.05.05l.04.03-.05.11-.08-.07v-.02s0,0,0-.01l.05-.1Z"/>
              <path class="cls-13" d="M21.29,15.74h.09c0,.05,0,.11,0,.15h-.09c0-.05,0-.1,0-.15ZM21.38,16.04s0,.1,0,.15h-.09s0-.1,0-.15h.09ZM21.39,16.35c0,.05,0,.1,0,.15h-.09s0-.09,0-.14h.09ZM21.41,16.65s.01.1.02.15l-.09.02c0-.05-.01-.1-.02-.15l.09-.02ZM21.44,16.95s.01.1.02.15l-.09.02s-.02-.1-.02-.15l.09-.02ZM21.48,17.24s.02.1.03.15l-.09.03s-.02-.1-.03-.15l.09-.02ZM21.54,17.54s.02.1.03.14l-.09.03s-.02-.1-.03-.15l.09-.03ZM21.61,17.83s.02.1.04.14l-.09.04s-.03-.1-.04-.15l.09-.04ZM21.68,18.11s.03.1.04.14l-.08.04s-.03-.1-.04-.14l.08-.04ZM21.78,18.4s.03.09.05.14l-.08.05s-.03-.1-.05-.14l.08-.05ZM21.88,18.67s.04.09.05.14l-.08.05s-.04-.09-.06-.14l.08-.05ZM21.99,18.94s.04.09.06.13l-.08.06s-.04-.09-.06-.14l.08-.06ZM22.11,19.21s.04.09.07.13l-.08.06s-.05-.09-.07-.13l.08-.06ZM22.24,19.46s.05.08.07.12l-.07.07s-.05-.08-.07-.13l.07-.07ZM22.39,19.71s.05.08.08.12l-.07.07s-.05-.08-.08-.12l.07-.07ZM22.54,19.95s.05.08.08.12l-.07.08s-.05-.08-.08-.12l.07-.08ZM22.7,20.18s.06.08.08.11l-.07.08s-.06-.08-.09-.11l.07-.08ZM22.88,20.4s.06.07.09.11l-.06.09s-.06-.07-.09-.11l.06-.08ZM23.05,20.61s.06.07.09.1l-.06.09s-.06-.07-.1-.1l.06-.09ZM23.24,20.81s.07.07.1.1l-.05.09s-.07-.06-.1-.1l.05-.09Z"/>
            </g>
            <g>
              <path class="cls-13" d="M21.71,12.7l.09.07-.05.1h-.01s0,0,0,0l-.08-.05s.02-.05.03-.07l.02-.05Z"/>
              <path class="cls-13" d="M21.6,12.96l.08.05s-.04.09-.05.14l-.08-.05s.04-.09.05-.14ZM21.49,13.24l.08.05s-.03.09-.05.14l-.08-.05s.03-.1.05-.14ZM21.39,13.53l.08.04s-.03.1-.05.14l-.08-.04s.03-.1.04-.15ZM21.3,13.82l.08.04s-.03.1-.04.15l-.09-.04s.03-.1.04-.15ZM21.23,14.12l.09.03s-.02.1-.03.15l-.09-.03s.02-.1.03-.15ZM21.17,14.42l.09.03s-.02.1-.03.15l-.09-.02c0-.05.02-.1.03-.15ZM21.11,14.72l.09.02s-.02.1-.02.15l-.09-.02s.02-.1.02-.15Z"/>
              <path class="cls-13" d="M21.08,15.03l.09.02s0,.01,0,.02h.01s0,.12,0,.12h-.11s0-.07,0-.07c0-.03,0-.05,0-.08Z"/>
              <path class="cls-13" d="M21.34,15.06l.09.02s0,.05,0,.08v.05s-.11-.01-.11-.01v-.12s.02,0,.02,0c0,0,0-.01,0-.02Z"/>
              <path class="cls-13" d="M21.82,13.14l.08.05s-.04.1-.06.15l-.08-.05c.02-.05.04-.1.06-.15ZM21.71,13.45l.08.05s-.04.1-.05.15l-.08-.04c.02-.05.03-.1.05-.15ZM21.61,13.76l.08.04c-.02.05-.03.1-.05.15l-.08-.04c.02-.05.03-.11.05-.16ZM21.52,14.08l.09.04c-.01.05-.03.11-.04.16l-.09-.03c.01-.05.03-.11.04-.16ZM21.44,14.4l.09.03c-.01.05-.02.11-.03.16l-.09-.03c.01-.05.02-.11.03-.16ZM21.39,14.73l.09.02c0,.05-.02.11-.02.16l-.09-.02c0-.05.01-.11.02-.17Z"/>
              <path class="cls-13" d="M21.92,12.86l.09.07-.02.05s-.02.05-.03.07l-.08-.05s0-.01,0-.02h-.01s.05-.11.05-.11Z"/>
            </g>
            <g>
              <path class="cls-13" d="M22.37,11.53l.08.09-.06.09h0s0,0-.01,0l-.07-.08s.03-.04.04-.06l.03-.04Z"/>
              <path class="cls-13" d="M22.2,11.78l.07.08s-.06.09-.09.14l-.07-.07s.06-.1.09-.14ZM22.03,12.07l.07.07s-.05.1-.08.15l-.07-.07s.06-.1.08-.15Z"/>
              <path class="cls-13" d="M21.87,12.37l.08.07s0,0,0,.01h.01s-.05.11-.05.11l-.09-.07.03-.05s.02-.05.03-.07Z"/>
              <path class="cls-13" d="M22.1,12.54l.08.07s-.02.04-.03.07l-.02.05-.09-.07.05-.1h.02s0,0,.01,0Z"/>
              <path class="cls-13" d="M22.41,12.01l.07.07s-.05.09-.08.13l-.07-.07s.05-.09.08-.13ZM22.25,12.27l.07.07s-.05.09-.08.13l-.08-.07s.05-.09.08-.13Z"/>
              <path class="cls-13" d="M22.56,11.76l.08.09-.03.05s-.03.04-.04.06l-.07-.08s0-.01.01-.02v-.02s.05-.09.05-.09Z"/>
            </g>
            <g>
              <path class="cls-13" d="M23.23,10.57l.06.11-.08.07h0s0,0-.01,0l-.05-.1s.03-.03.05-.05l.04-.04Z"/>
              <path class="cls-13" d="M23.02,10.76l.06.09s-.07.08-.11.11l-.06-.09s.07-.08.11-.12ZM22.8,11l.06.09s-.07.08-.11.12l-.06-.09s.07-.08.11-.12Z"/>
              <path class="cls-13" d="M22.59,11.25l.06.08s0,0,0,.01h0s-.06.1-.06.1l-.08-.09.03-.05s.03-.04.05-.06Z"/>
              <path class="cls-13" d="M22.78,11.49l.06.08s-.03.04-.05.05l-.03.04-.08-.09.06-.09v.02s.02,0,.03-.02Z"/>
              <path class="cls-13" d="M23.18,11.04l.06.09s-.07.07-.1.1l-.06-.09s.07-.07.1-.11ZM22.98,11.26l.06.09s-.06.07-.1.11l-.06-.09s.06-.07.1-.11Z"/>
              <path class="cls-13" d="M23.37,10.84l.06.11-.04.04s-.04.03-.05.05l-.05-.09s0-.01.01-.02v-.02s.07-.07.07-.07Z"/>
            </g>
            <g>
              <path class="cls-13" d="M23.61,10.63v.02s.02,0,.03-.01l.05.1s-.04.03-.05.04l-.04.03-.06-.11.08-.07Z"/>
              <path class="cls-13" d="M26.14,9.65v.12s-.09,0-.13.01v-.12s.09,0,.13-.01ZM26.27,9.64s.09,0,.14,0v.12s-.09,0-.14,0v-.12ZM25.87,9.67v.12s-.08.01-.12.02v-.12s.08-.01.12-.02ZM26.54,9.64s.04,0,.06,0c.02,0,.05,0,.07,0v.12s-.06,0-.08,0c-.02,0-.04,0-.06,0v-.12ZM25.61,9.71v.12s-.08.02-.12.03v-.12s.07-.02.12-.03ZM26.81,9.66s.09.01.13.02l-.02.12s-.09-.01-.13-.02v-.12ZM25.34,9.77l.02.12s-.09.02-.13.04l-.02-.12s.09-.02.13-.04ZM27.08,9.7s.09.02.14.02l-.02.12s-.09-.02-.13-.03l.02-.12ZM25.08,9.85l.02.12s-.08.03-.13.04l-.02-.12s.09-.03.13-.04ZM27.35,9.76s.09.02.13.03l-.03.12s-.09-.02-.13-.03l.03-.12ZM24.83,9.94l.03.11s-.08.04-.12.05l-.03-.11s.08-.03.13-.05ZM27.62,9.83s.09.03.13.04l-.03.12s-.09-.03-.13-.04l.03-.12ZM24.58,10.05l.03.11s-.08.04-.12.06l-.03-.11s.08-.04.12-.06ZM27.88,9.92s.09.03.13.05l-.04.12s-.08-.04-.13-.05l.03-.12ZM24.33,10.17l.04.11s-.08.04-.12.07l-.04-.11s.08-.05.12-.07ZM28.14,10.03s.09.04.13.06l-.04.11s-.08-.04-.12-.06l.04-.12ZM24.1,10.31l.04.11s-.08.05-.11.08l-.04-.11s.08-.05.12-.08ZM28.39,10.16s.08.05.12.07l-.05.11s-.08-.05-.12-.07l.04-.12ZM23.86,10.47l.04.11s-.07.05-.11.08l-.05-.1s.07-.06.11-.08ZM28.64,10.3s.08.05.12.08l-.05.11s-.08-.05-.12-.08l.05-.11ZM28.89,10.46s.08.06.12.09l-.06.11s-.08-.06-.12-.08l.06-.11ZM29.12,10.64s.08.06.12.1l-.06.1s-.08-.06-.11-.09l.06-.11ZM29.35,10.83s.07.07.11.1l-.07.1s-.07-.07-.11-.1l.07-.1Z"/>
              <path class="cls-13" d="M29.6,11.04l.08.09-.08.11-.04-.04s-.03-.03-.05-.05l.07-.1s.01.01.02.02v-.02Z"/>
              <path class="cls-13" d="M29.79,10.76s.04.04.05.05l.04.04-.09.11-.08-.08h.01s0-.02-.01-.02l.07-.1Z"/>
              <path class="cls-13" d="M26.14,9.29s.02,0,.04,0v.12s-.03,0-.04,0c-.03,0-.06,0-.09,0v-.12s.06,0,.09,0ZM26.31,9.28s.09,0,.13,0v.12s-.09,0-.14,0v-.12ZM25.92,9.3v.12s-.08,0-.12.02v-.12s.08-.01.12-.02ZM26.57,9.28s.04,0,.06,0c.02,0,.05,0,.08,0v.12s-.06,0-.08,0c-.02,0-.04,0-.05,0v-.12ZM25.65,9.34v.12s-.08.02-.12.02v-.12s.08-.02.12-.02ZM26.84,9.3s.09.01.13.01l-.02.12s-.09-.01-.13-.02v-.12ZM25.4,9.39v.12s-.07.02-.11.03l-.02-.12s.09-.02.13-.03ZM27.1,9.33s.09.01.13.02l-.02.12s-.09-.02-.13-.02l.02-.12ZM25.14,9.46l.02.12s-.08.02-.12.04l-.02-.12s.08-.03.13-.04ZM27.36,9.38s.09.02.13.03l-.02.12s-.09-.02-.13-.03l.02-.12ZM24.89,9.55l.02.12s-.08.03-.12.05l-.02-.11s.08-.03.12-.05ZM27.62,9.45s.09.03.13.04l-.03.12s-.08-.03-.13-.04l.03-.12ZM24.64,9.64l.03.11s-.07.03-.11.05h0s-.03-.11-.03-.11h0s.07-.04.11-.06ZM27.88,9.53s.09.03.13.05l-.04.12s-.08-.03-.13-.05l.03-.12ZM24.4,9.76l.03.11s-.08.04-.12.06l-.03-.11s.08-.04.12-.06ZM28.14,9.63s.09.04.13.05l-.04.12s-.08-.04-.12-.06l.04-.12ZM24.16,9.88l.04.11s-.08.04-.11.07l-.04-.11s.08-.05.12-.07ZM28.39,9.75s.08.04.12.06l-.04.12s-.08-.04-.12-.06l.04-.12ZM23.93,10.02l.04.11s-.08.05-.11.07l-.04-.11s.07-.05.11-.08ZM28.64,9.88s.06.04.1.06c0,0,.02.01.03.02l-.05.11s-.02-.01-.03-.02c-.03-.02-.06-.04-.09-.05l.05-.12ZM23.7,10.18l.04.1s-.07.05-.11.08l-.05-.1s.07-.05.11-.08ZM28.88,10.02s.08.05.12.08l-.05.11s-.08-.05-.12-.08l.05-.11ZM29.12,10.19s.08.06.12.09l-.06.11s-.08-.06-.11-.08l.06-.11ZM29.35,10.36s.08.06.11.09l-.06.1s-.07-.06-.11-.09l.06-.11ZM29.57,10.55s.07.07.11.1l-.07.1s-.07-.07-.11-.1l.07-.1Z"/>
              <path class="cls-13" d="M23.48,10.35l.05.1s0,0-.01.01h0s-.08.08-.08.08l-.06-.12.04-.03s.04-.03.05-.04Z"/>
            </g>
            <g>
              <path class="cls-13" d="M31.01,13.33s0,.02,0,.02h.02s.04.11.04.11l-.12.05-.02-.06s-.02-.05-.03-.08l.1-.05Z"/>
              <path class="cls-13" d="M31.31,13.19s.02.05.03.08l.02.06-.12.05-.04-.12h.01s0-.02,0-.02l.1-.05Z"/>
              <path class="cls-13" d="M30.23,11.25s.06.08.09.12l-.08.09s-.06-.08-.09-.12l.08-.09ZM30.42,11.5s.01.02.02.03c.02.03.05.06.07.1l-.08.08s-.05-.06-.07-.1c0-.01-.01-.02-.02-.03l.08-.08ZM30.59,11.75s.06.09.08.13l-.09.08s-.05-.09-.08-.13l.08-.08ZM30.76,12.02s.05.09.08.14l-.09.07s-.05-.09-.08-.13l.09-.07ZM30.92,12.3s.05.09.07.14l-.09.07s-.05-.1-.07-.14l.09-.07ZM31.06,12.59s.05.1.07.15l-.1.06-.07-.14.09-.07ZM31.19,12.88s.04.1.06.15l-.1.06s-.04-.1-.06-.15l.1-.06Z"/>
              <path class="cls-13" d="M30.04,11.03l.04.05s.03.04.05.06l-.08.09s0,0-.01-.01h-.01s-.08-.07-.08-.07l.09-.11Z"/>
              <path class="cls-13" d="M29.84,11.3l.08.08v.02s0,.01,0,.02l-.08.09s-.03-.04-.05-.06l-.04-.04.08-.11Z"/>
              <path class="cls-13" d="M30.02,11.54s.07.09.1.13l-.08.09s-.07-.09-.1-.13l.08-.09ZM30.21,11.81s.06.09.1.14l-.08.08s-.06-.09-.09-.14l.08-.08ZM30.4,12.09s.06.1.09.15l-.09.08s-.06-.1-.09-.14l.09-.08ZM30.57,12.38s.05.1.08.15l-.09.07s-.05-.1-.08-.15l.09-.07ZM30.73,12.68c.02.05.05.11.07.16l-.09.06c-.02-.05-.05-.1-.07-.15l.09-.07ZM30.88,13c.02.05.05.11.07.16l-.1.06c-.02-.05-.04-.11-.07-.16l.1-.06Z"/>
            </g>
            <g>
              <path class="cls-13" d="M31.7,14.68s0,.06.01.09v.07s-.12.02-.12.02v-.13s0,0,0,0c0,0,0-.01,0-.02l.11-.03Z"/>
              <path class="cls-13" d="M31.54,13.91c.02.06.03.13.05.19l-.11.04c-.02-.06-.03-.13-.05-.19l.1-.04ZM31.63,14.29c.01.06.03.13.04.19l-.11.03c-.01-.06-.02-.13-.04-.19l.11-.03Z"/>
              <path class="cls-13" d="M31.44,13.58l.02.06s.02.05.02.08l-.1.05s0-.01,0-.02h-.02s-.04-.11-.04-.11l.12-.06Z"/>
              <path class="cls-13" d="M31.16,13.71l.04.12h-.02s0,.02,0,.03l-.1.04s-.02-.05-.02-.08l-.02-.06.12-.05Z"/>
              <path class="cls-13" d="M31.23,14.03c.02.06.03.12.04.17l-.1.04c-.01-.06-.03-.11-.04-.17l.1-.04ZM31.32,14.38c.01.06.02.12.04.18l-.11.03c-.01-.06-.02-.12-.03-.17l.1-.03Z"/>
              <path class="cls-13" d="M31.38,14.74s0,.02,0,.02h.02s.01.12.01.12l-.12.02v-.06s-.02-.05-.02-.08l.11-.03Z"/>
            </g>
            <g>
              <g>
                <path class="cls-13" d="M27.91,22.26l.04.14-.05.02s-.04.02-.06.02l-.03-.12s0,0,.01,0v-.02s.09-.04.09-.04Z"/>
                <path class="cls-13" d="M27.82,21.93l.04.14-.1.04v-.02s-.02,0-.02,0l-.03-.12s.04-.02.07-.02l.05-.02Z"/>
                <path class="cls-13" d="M27.58,22.01l.03.12s-.09.03-.13.04l-.03-.12s.08-.02.13-.04ZM24.93,21.92s.08.03.12.04l-.02.12s-.08-.03-.12-.04l.02-.12ZM27.33,22.08l.02.12s-.09.02-.13.03l-.02-.12s.08-.02.13-.03ZM25.17,22.01s.08.02.12.04l-.02.12s-.08-.02-.13-.04l.02-.12ZM27.07,22.13l.02.12s-.09.02-.13.02l-.02-.12s.09-.01.13-.02ZM25.42,22.07s.08.02.12.03v.12c-.05-.01-.1-.02-.14-.03v-.12ZM26.82,22.17v.12s-.07,0-.12.01v-.12s.08,0,.12-.01ZM25.67,22.13s.02,0,.03,0c.03,0,.06.01.1.02v.12s-.07-.01-.1-.02c-.01,0-.02,0-.03,0v-.12ZM26.56,22.19v.12s-.08,0-.12,0v-.12s.08,0,.12,0ZM25.92,22.16s.08,0,.13.01v.12s-.09,0-.13-.01v-.12ZM26.3,22.19v.12s-.08,0-.13,0v-.12s.09,0,.13,0Z"/>
                <path class="cls-13" d="M24.7,21.83l.04.02s.04.02.06.02l-.03.11s-.01,0-.02,0v.02s-.1-.04-.1-.04l.04-.13Z"/>
                <path class="cls-13" d="M24.62,22.14l.09.04v.02s0,0,0,0l-.02.11s-.04-.02-.06-.03l-.05-.02.03-.13Z"/>
                <path class="cls-13" d="M27.68,22.36l.03.12s-.08.02-.13.04l-.03-.12s.08-.02.12-.04ZM24.84,22.26s.08.03.12.04l-.02.12s-.08-.03-.12-.05l.02-.11ZM27.44,22.43l.02.12s-.08.02-.13.03l-.02-.12s.08-.02.13-.03ZM25.08,22.34s.08.02.12.04l-.02.12s-.08-.02-.12-.04l.02-.12ZM27.19,22.48l.02.12s-.09.02-.13.02l-.02-.12s.08-.01.13-.02ZM25.32,22.41s.08.02.12.03v.12c-.05-.01-.1-.02-.14-.03v-.12ZM26.94,22.52l.02.12s-.09,0-.13.01v-.12s.07,0,.11-.01ZM25.56,22.47s.08.01.11.02h.01s0,.12,0,.12h-.01s-.08-.02-.11-.02v-.12ZM26.68,22.54v.12s-.08,0-.12,0v-.12s.08,0,.12,0ZM25.81,22.51s.08.01.12.02v.12s-.09,0-.13-.02v-.12ZM26.43,22.55v.12s-.08,0-.12,0v-.12s.08,0,.12,0ZM26.06,22.54s.08,0,.12,0v.12s-.08,0-.13-.01v-.12Z"/>
              </g>
              <g>
                <path class="cls-13" d="M28.12,21.8l.04.12s-.01,0-.02,0v.02s-.09.04-.09.04l-.04-.14.05-.02s.04-.02.06-.03Z"/>
                <path class="cls-13" d="M28.21,22.14v.02s.02,0,.02,0l.04.12s-.04.02-.06.03l-.05.02-.04-.14.09-.04Z"/>
                <path class="cls-13" d="M31.79,15.43c0,.06,0,.12.01.18h-.11c0-.05,0-.11-.01-.17h.11ZM31.8,15.78c0,.06,0,.12,0,.18h-.11c0-.06,0-.12,0-.17h.11ZM31.69,16.13h.11c0,.06,0,.12,0,.18h-.11c0-.06,0-.12,0-.18ZM31.68,16.48h.11c0,.05,0,.1,0,.14,0,.02,0,.03,0,.05h-.11s0-.04,0-.06c0-.04,0-.08.01-.13ZM31.65,16.82l.11.02c0,.06-.01.12-.02.17l-.11-.02c0-.06.01-.11.02-.17ZM31.61,17.16l.11.02c0,.06-.02.12-.03.17l-.11-.03c0-.05.02-.11.03-.17ZM31.55,17.5l.11.03c-.01.06-.02.11-.03.17l-.11-.03c.01-.05.02-.11.03-.17ZM31.48,17.84l.1.04c-.01.06-.03.11-.04.17l-.1-.04c.01-.05.03-.11.04-.16ZM31.4,18.16l.1.04c-.02.05-.03.11-.05.16l-.1-.05c.02-.05.03-.11.05-.16ZM31.3,18.49l.1.05c-.02.05-.04.11-.06.16l-.1-.05c.02-.05.04-.11.05-.16ZM31.19,18.8l.1.05c-.02.05-.04.11-.06.16l-.1-.06c.02-.05.04-.1.06-.15ZM31.06,19.11l.1.06s-.03.07-.05.11c0,.02-.01.03-.02.05l-.1-.07s.02-.03.02-.05c.02-.03.03-.07.05-.1ZM30.92,19.41l.09.07s-.05.1-.07.15l-.09-.07s.05-.1.07-.14ZM30.77,19.7l.09.07s-.05.1-.08.14l-.09-.08s.05-.09.08-.14ZM30.61,19.97l.09.08s-.06.09-.09.14l-.08-.08s.06-.09.08-.14ZM30.44,20.24l.08.08s-.06.09-.09.13l-.08-.09s.06-.09.09-.13ZM30.26,20.49l.08.09s-.06.08-.1.13l-.08-.09s.06-.08.09-.12ZM30.06,20.74l.08.09s-.07.08-.1.12l-.07-.09s.07-.08.1-.12ZM29.86,20.96l.07.1s-.07.08-.11.11l-.07-.1s.07-.07.11-.11ZM29.64,21.18l.07.1h0s-.07.07-.1.1l-.07-.1s.07-.06.1-.09h0ZM29.43,21.38l.06.1s-.08.07-.11.1l-.06-.11s.08-.06.11-.1ZM29.2,21.57l.06.11s-.08.06-.12.09l-.06-.11s.08-.06.12-.09ZM28.96,21.74l.05.11s-.08.05-.12.08l-.05-.11s.08-.05.12-.08ZM28.72,21.89l.05.11s-.08.05-.12.07l-.05-.11s.08-.05.12-.07ZM28.48,22.03l.04.11s-.08.04-.13.06l-.04-.11s.08-.04.12-.06Z"/>
                <path class="cls-13" d="M31.76,15.1v.06s.01.06.01.09h-.11s0,0,0,0h-.02s-.01-.12-.01-.12l.13-.02Z"/>
                <path class="cls-13" d="M31.46,15.15v.13s0,0,0,0c0,0,0,.02,0,.02h-.11s0-.04,0-.07v-.06s.12-.02.12-.02Z"/>
                <path class="cls-13" d="M31.47,15.47c0,.06,0,.11,0,.17h-.11s0-.11,0-.16h.11ZM31.48,15.82c0,.05,0,.11,0,.16h0s-.11,0-.11,0h0c0-.06,0-.12,0-.17h.11ZM31.37,16.16h.11c0,.06,0,.12,0,.18h-.11c0-.06,0-.12,0-.18ZM31.36,16.5h.11s0,.06,0,.08c0,.03,0,.07,0,.1h-.11s0-.08,0-.11c0-.02,0-.05,0-.07ZM31.33,16.83l.11.02c0,.06-.01.11-.02.17l-.11-.02c0-.06.01-.11.02-.17ZM31.28,17.17l.11.02c0,.06-.02.11-.03.17l-.11-.03c0-.05.02-.11.03-.16ZM31.23,17.5l.1.03c-.01.06-.02.11-.04.17l-.11-.04c.01-.05.02-.11.04-.16ZM31.15,17.82l.1.04c-.01.05-.03.11-.04.17l-.1-.04c.02-.05.03-.11.04-.16ZM31.06,18.14l.1.05c-.02.05-.03.11-.05.16l-.1-.05c.02-.05.03-.11.05-.16ZM30.96,18.46l.1.05c-.02.05-.04.11-.06.16l-.1-.05c.02-.05.04-.1.06-.15ZM30.85,18.76l.1.06c-.02.05-.04.1-.06.15l-.1-.06s.04-.1.06-.15ZM30.72,19.06l.1.06s-.05.1-.07.15l-.09-.07s.05-.1.07-.15ZM30.58,19.35l.09.07s-.05.1-.08.14l-.09-.07s.05-.09.07-.14ZM30.43,19.62l.09.08s-.05.09-.08.14l-.09-.08s.05-.09.08-.14ZM30.26,19.89l.08.08s-.06.09-.09.13l-.08-.08s.06-.08.09-.13ZM30.09,20.14l.08.09s-.06.08-.09.12l-.08-.09s.06-.08.09-.12ZM29.9,20.38l.08.09s-.07.08-.1.12l-.07-.09s.06-.08.1-.12ZM29.7,20.61l.07.09s-.07.08-.1.11l-.07-.1s.07-.07.1-.11ZM29.5,20.83l.07.1s-.07.07-.11.1l-.07-.1s.07-.07.11-.1ZM29.29,21.03l.06.1s-.07.07-.11.1l-.06-.1s.07-.06.11-.1ZM29.07,21.21l.06.11s-.08.06-.12.09l-.06-.11s.08-.06.11-.09ZM28.84,21.38l.05.11s-.08.05-.12.08l-.05-.11s.08-.05.12-.08ZM28.61,21.54l.05.11s-.08.05-.12.07l-.05-.11s.08-.05.12-.07ZM28.36,21.68l.05.11s-.08.04-.12.06l-.04-.12s.08-.04.12-.06Z"/>
              </g>
            </g>
          </g>
        </g>
      </g>
      <g class="cls-9">
        <path class="cls-13" d="M27.99,14.08c0-1.22-.8-2.18-1.77-2.15-.96.03-1.72,1.01-1.72,2.2,0,.8.35,1.51.88,1.87l-.77,3.98,3.27.11-.8-4.08c.54-.37.91-1.09.91-1.92Z"/>
      </g>
    </g>
  </g>
</svg>