<svg width="103" height="38" viewBox="0 0 103 38" fill="none" xmlns="http://www.w3.org/2000/svg">
<path fill-rule="evenodd" clip-rule="evenodd" d="M15.7068 12.6481C15.9175 12.1553 16.0344 11.6116 16.0344 11.0402C16.0344 8.80886 14.2525 7 12.0544 7C9.85643 7 8.07456 8.80886 8.07456 11.0402C8.07456 11.6116 8.19142 12.1553 8.4022 12.6481C7.6788 11.6372 6.50506 10.9799 5.18009 10.9799C2.98205 10.9799 1.2002 12.7888 1.2002 15.0201C1.2002 17.0129 2.62151 18.6688 4.49122 19C2.62151 19.3312 1.2002 20.9871 1.2002 22.9799C1.2002 25.2112 2.98205 27.0201 5.18009 27.0201C6.50506 27.0201 7.6788 26.3628 8.4022 25.352C8.19142 25.8447 8.07456 26.3884 8.07456 26.9598C8.07456 29.1911 9.85643 31 12.0544 31C14.2525 31 16.0344 29.1911 16.0344 26.9598C16.0344 26.3884 15.9175 25.8447 15.7068 25.352C16.4301 26.3628 17.6038 27.0201 18.9289 27.0201C21.1269 27.0201 22.9088 25.2112 22.9088 22.9799C22.9088 20.9871 21.4874 19.3312 19.6177 19C21.4874 18.6688 22.9088 17.0129 22.9088 15.0201C22.9088 12.7888 21.1269 10.9799 18.9289 10.9799C17.6038 10.9799 16.4301 11.6372 15.7068 12.6481ZM15.2766 24.5878C15.0658 24.0951 14.949 23.5514 14.949 22.9799C14.949 20.9871 16.3702 19.3312 18.24 19C16.3702 18.6688 14.949 17.0129 14.949 15.0201C14.949 14.4487 15.0658 13.905 15.2766 13.4122C14.5532 14.4231 13.3795 15.0804 12.0544 15.0804C10.7295 15.0804 9.55576 14.4231 8.83236 13.4122C9.04314 13.905 9.16 14.4487 9.16 15.0201C9.16 17.0129 7.73868 18.6688 5.86898 19C7.73868 19.3312 9.16 20.9871 9.16 22.9799C9.16 23.5514 9.04314 24.0951 8.83236 24.5878C9.55576 23.5769 10.7295 22.9196 12.0544 22.9196C13.3795 22.9196 14.5532 23.5769 15.2766 24.5878Z" fill="#0A0A0A"/>
<path d="M33.6875 31V7.71875H48.625V11.25H37.9062V18.2344H47.5781V21.7188H37.9062V31H33.6875ZM50.7581 31V13.5312H54.8675V31H50.7581ZM52.8206 11.0781C52.1644 11.0781 51.6019 10.8594 51.1331 10.4219C50.6644 9.98438 50.43 9.45833 50.43 8.84375C50.43 8.21875 50.6644 7.6875 51.1331 7.25C51.6019 6.8125 52.1644 6.59375 52.8206 6.59375C53.4665 6.59375 54.0238 6.8125 54.4925 7.25C54.9613 7.6875 55.1956 8.21354 55.1956 8.82812C55.1956 9.45312 54.9613 9.98438 54.4925 10.4219C54.0238 10.8594 53.4665 11.0781 52.8206 11.0781ZM61.7038 20.7812V31H57.5944V13.5312H61.6256V16.5156H61.8288C62.2246 15.5365 62.8444 14.7604 63.6881 14.1875C64.5423 13.6042 65.6256 13.3125 66.9381 13.3125C68.1465 13.3125 69.1985 13.5677 70.0944 14.0781C70.9902 14.5885 71.6829 15.3385 72.1725 16.3281C72.6725 17.3073 72.9225 18.4948 72.9225 19.8906V31H68.8131V20.5312C68.8131 19.3646 68.511 18.4531 67.9069 17.7969C67.3027 17.1302 66.4694 16.7969 65.4069 16.7969C64.6881 16.7969 64.0475 16.9531 63.485 17.2656C62.9329 17.5781 62.4954 18.0312 62.1725 18.625C61.86 19.2083 61.7038 19.9271 61.7038 20.7812ZM84.3525 13.5312V16.7188H74.3369V13.5312H84.3525ZM76.79 9.375H80.8994V25.75C80.8994 26.4375 81.0504 26.9479 81.3525 27.2812C81.6546 27.6042 82.1338 27.7656 82.79 27.7656C82.9671 27.7656 83.165 27.75 83.3838 27.7188C83.6025 27.6875 83.8004 27.651 83.9775 27.6094L84.6806 30.8281C84.2431 30.9635 83.8004 31.0625 83.3525 31.125C82.9046 31.1979 82.4567 31.2344 82.0088 31.2344C80.3838 31.2344 79.1077 30.8073 78.1806 29.9531C77.2535 29.0885 76.79 27.9115 76.79 26.4219V9.375ZM93.72 31.3438C92.0117 31.3438 90.5325 30.9688 89.2825 30.2188C88.0325 29.4688 87.0638 28.4167 86.3763 27.0625C85.6992 25.7083 85.3606 24.1354 85.3606 22.3438C85.3606 20.5417 85.6992 18.9635 86.3763 17.6094C87.0638 16.2448 88.0325 15.1875 89.2825 14.4375C90.5325 13.6875 92.0117 13.3125 93.72 13.3125C95.4283 13.3125 96.9075 13.6875 98.1575 14.4375C99.4075 15.1875 100.376 16.2448 101.064 17.6094C101.751 18.9635 102.095 20.5417 102.095 22.3438C102.095 24.1354 101.751 25.7083 101.064 27.0625C100.376 28.4167 99.4075 29.4688 98.1575 30.2188C96.9075 30.9688 95.4283 31.3438 93.72 31.3438ZM93.72 28.0312C94.6679 28.0312 95.4492 27.7812 96.0638 27.2812C96.6783 26.7708 97.1367 26.0833 97.4388 25.2188C97.7513 24.3542 97.9075 23.3958 97.9075 22.3438C97.9075 21.2708 97.7513 20.3021 97.4388 19.4375C97.1367 18.5729 96.6783 17.8906 96.0638 17.3906C95.4492 16.8802 94.6679 16.625 93.72 16.625C92.7929 16.625 92.0169 16.8802 91.3919 17.3906C90.7669 17.8906 90.2981 18.5729 89.9856 19.4375C89.6835 20.3021 89.5325 21.2708 89.5325 22.3438C89.5325 23.3958 89.6835 24.3542 89.9856 25.2188C90.2981 26.0833 90.7669 26.7708 91.3919 27.2812C92.0169 27.7812 92.7929 28.0312 93.72 28.0312Z" fill="#0A0A0A"/>
</svg>
