<?xml version="1.0" encoding="UTF-8"?>
<svg id="Layer_2" data-name="Layer 2" xmlns="http://www.w3.org/2000/svg" viewBox="0 0 964.67 834.72">
  <defs>
    <style>
      .cls-1 {
        fill: #fff;
      }

      .cls-2 {
        fill: #9fe870;
      }
    </style>
  </defs>
  <g id="Layer_1-2" data-name="Layer 1">
    <g id="Layer_2-2" data-name="Layer 2">
      <polygon class="cls-2" points="184.65 5.49 65.75 5.49 6.3 108.46 65.75 211.43 184.65 211.43 244.11 108.46 184.65 5.49"/>
      <polygon class="cls-2" points="363.01 108.46 244.1 108.46 184.65 211.43 244.1 314.41 363.01 314.41 422.46 211.43 363.01 108.46"/>
      <polygon class="cls-2" points="184.65 211.43 65.75 211.43 6.3 314.41 65.75 417.38 184.65 417.38 244.1 314.41 184.65 211.43"/>
      <polygon class="cls-2" points="719.69 108.43 600.78 108.43 541.33 211.4 600.78 314.37 719.69 314.37 779.14 211.4 719.69 108.43"/>
      <polygon class="cls-2" points="363.01 314.4 244.1 314.4 184.65 417.38 244.1 520.35 363.01 520.35 422.46 417.38 363.01 314.4"/>
      <polygon class="cls-2" points="541.36 417.38 422.46 417.38 363.01 520.35 422.46 623.32 541.36 623.32 600.81 520.35 541.36 417.38"/>
      <polygon class="cls-2" points="363 520.35 244.1 520.35 184.65 623.32 244.1 726.3 363 726.3 422.46 623.32 363 520.35"/>
      <polygon class="cls-2" points="541.36 211.43 422.46 211.43 363.01 314.4 422.46 417.38 541.36 417.38 600.81 314.4 541.36 211.43"/>
      <polygon class="cls-2" points="898.04 5.45 779.14 5.45 719.69 108.43 779.14 211.4 898.04 211.4 957.49 108.43 898.04 5.45"/>
      <polygon class="cls-2" points="898.04 211.42 779.14 211.42 719.69 314.39 779.14 417.36 898.04 417.36 957.49 314.39 898.04 211.42"/>
      <polygon class="cls-2" points="719.68 314.39 600.78 314.39 541.33 417.36 600.78 520.34 719.68 520.34 779.14 417.36 719.68 314.39"/>
      <polygon class="cls-2" points="541.36 623.32 422.46 623.32 363.01 726.3 422.46 829.27 541.36 829.27 600.81 726.3 541.36 623.32"/>
      <polygon class="cls-2" points="184.65 623.32 65.75 623.32 6.3 726.3 65.75 829.27 184.65 829.27 244.1 726.3 184.65 623.32"/>
      <polygon class="cls-2" points="719.69 520.35 600.78 520.35 541.33 623.32 600.78 726.3 719.69 726.3 779.14 623.32 719.69 520.35"/>
      <path class="cls-1" d="M904.33,211.41l59.46-102.98L901.19,0h-125.2l-59.45,102.98h-118.9l-59.47,103h-112.56l-59.45-102.97h-118.9L187.8.03H62.6L0,108.55l57.53,102.88L0,313.55l62.6,109.28h118.9l56.3,97.52-56.3,97.52H62.6L0,726.3l62.6,108.43h125.2l59.45-102.97h112.61l59.45,102.97h125.2l59.45-102.97h118.87l62.6-108.43-59.46-102.98,56.31-97.53,121.88-.24,60.51-108.19-60.34-102.98ZM894.89,411.91h-112.61l-56.3-97.52,56.3-97.52h112.61l56.31,97.52-56.31,97.52ZM425.61,617.87l-56.3-97.52,56.3-97.52h112.58l56.3,97.52-56.31,97.53h-112.58ZM190.95,623.32l56.3-97.52h112.61l56.3,97.52-56.3,97.52h-112.61l-56.31-97.52ZM594.49,314.38l-56.32,97.54h-112.57l-28.15-48.76-28.15-48.76,56.31-97.52h112.59l56.29,97.5ZM247.25,319.86h112.61l28.15,48.76,28.15,48.76-56.3,97.52h-112.61l-56.3-97.52,56.3-97.52ZM782.29,10.9h112.61l56.31,97.52-56.31,97.52h-112.61l-20.15-34.9-36.16-62.63,56.3-97.52ZM603.93,113.88h112.61l31.36,54.33,24.94,43.2-56.31,97.52h-112.59l-56.31-97.53,56.3-97.51ZM416.16,211.43l-56.3,97.52h-112.61l-56.3-97.52,56.3-97.52h112.61l56.3,97.52ZM68.9,10.94h112.61l56.3,97.52-56.3,97.52h-112.56L12.62,108.42,68.9,10.94ZM12.6,314.41l56.31-97.53h112.6l56.3,97.52-56.3,97.52h-112.61l-56.3-97.51ZM181.5,823.82h-112.61l-56.3-97.52,56.3-97.52h112.6l56.31,97.52-56.3,97.52ZM538.21,823.82h-112.61l-56.3-97.52,56.3-97.52h112.58l56.32,97.55-56.29,97.49ZM716.54,720.85h-112.58l-56.3-97.52,56.3-97.52h112.58l56.31,97.52-56.31,97.52ZM716.54,514.88h-112.58l-56.3-97.51,56.31-97.54h112.57l56.3,97.52-56.3,97.52Z"/>
      <g>
        <path class="cls-1" d="M646.89,620.1l-1.85.24c-10.76,1.42-21.63,1.88-32.47,1.4l.16-2.06c.06-.79-.56-1.47-1.36-1.47h-6.14c-.79,0-1.42.68-1.36,1.47l.58,7.3c.09,1.16,1.05,2.05,2.21,2.05h3.28c1.1,0,2.03-.81,2.2-1.89h34.76v-7.04h0Z"/>
        <rect class="cls-1" x="606.82" y="614.85" width="2.2" height="6.02"/>
        <path class="cls-1" d="M618.59,613.37c-3.67,0-6.93.24-9.06.62-.1-.72-.78-1.28-1.62-1.28s-1.52.56-1.62,1.28c-2.12-.38-5.39-.62-9.06-.62-6.4,0-11.59,1.65-11.59,1.65,0,0,5.19,1.65,11.59,1.65,4.8,0,8.91-.42,10.67-1.01,1.76.59,5.88,1.01,10.67,1.01,6.4,0,11.59-1.65,11.59-1.65,0,0-5.19-1.65-11.58-1.65Z"/>
        <path class="cls-1" d="M673.61,620.1l1.85.24c10.76,1.42,21.63,1.88,32.47,1.4l-.16-2.06c-.06-.79.56-1.47,1.36-1.47h6.14c.8,0,1.42.68,1.36,1.47l-.58,7.3c-.09,1.16-1.06,2.05-2.21,2.05h-3.28c-1.1,0-2.03-.81-2.19-1.89h-34.76v-7.04h0Z"/>
        <rect class="cls-1" x="711.49" y="614.85" width="2.2" height="6.02"/>
        <path class="cls-1" d="M701.91,613.37c3.67,0,6.93.24,9.06.62.1-.72.79-1.28,1.62-1.28s1.52.56,1.62,1.28c2.12-.38,5.39-.62,9.06-.62,6.4,0,11.59,1.65,11.59,1.65,0,0-5.19,1.65-11.59,1.65-4.8,0-8.91-.42-10.67-1.01-1.76.59-5.88,1.01-10.67,1.01-6.4,0-11.59-1.65-11.59-1.65,0,0,5.19-1.65,11.59-1.65Z"/>
        <path class="cls-1" d="M680.13,614.16h-5.42c-2.27-1.34-7.92-2.3-14.53-2.3s-12.26.95-14.53,2.3h-5.11c-2.25,0-3.91,2.1-3.4,4.29l1.96,8.34c.35,1.51,1.7,2.57,3.25,2.57h4.33c.71,3.12,3.48,5.37,6.73,5.37h.69c.29,0,.53.24.53.54h0c0,1.59,1.29,2.88,2.88,2.88h1.44v2.2c-1.51.62-2.57,2.11-2.57,3.84,0,2.29,1.86,4.15,4.15,4.15s4.15-1.86,4.15-4.15c0-1.89-1.26-3.48-2.98-3.98v-2.06h1.1c1.59,0,2.88-1.29,2.88-2.88h0c0-.3.24-.54.53-.54h.73c3.24,0,6.02-2.25,6.73-5.37h4.64c1.55,0,2.9-1.07,3.25-2.57l1.96-8.34c.51-2.19-1.15-4.28-3.39-4.28ZM648.28,620.64c-.77,0-1.39-.62-1.39-1.39s.62-1.39,1.39-1.39,1.39.62,1.39,1.39-.62,1.39-1.39,1.39ZM654.27,620.64c-.77,0-1.39-.62-1.39-1.39s.62-1.39,1.39-1.39,1.39.62,1.39,1.39-.62,1.39-1.39,1.39ZM658.86,619.25c0-.77.62-1.39,1.39-1.39s1.39.62,1.39,1.39-.62,1.39-1.39,1.39-1.39-.62-1.39-1.39ZM662.26,644.18c0,.95-.77,1.72-1.72,1.72s-1.72-.77-1.72-1.72.77-1.72,1.72-1.72,1.72.77,1.72,1.72ZM666.24,620.64c-.77,0-1.39-.62-1.39-1.39s.62-1.39,1.39-1.39,1.39.62,1.39,1.39-.62,1.39-1.39,1.39ZM672.22,620.64c-.77,0-1.39-.62-1.39-1.39s.62-1.39,1.39-1.39,1.39.62,1.39,1.39c0,.77-.62,1.39-1.39,1.39Z"/>
        <g>
          <path class="cls-1" d="M660.48,652.39c2.72-.02,5.15-1.26,6.77-3.2.51-.61.37-1.53-.3-1.97l-.1-.06c-.56-.36-1.31-.25-1.74.26-1.12,1.33-2.79,2.18-4.66,2.19-1.84.01-3.5-.79-4.63-2.07-.44-.5-1.18-.61-1.74-.24l-.1.06c-.67.44-.8,1.37-.27,1.98,1.64,1.88,4.07,3.06,6.75,3.05Z"/>
          <path class="cls-1" d="M660.34,656.82c4.33-.03,8.16-2.11,10.57-5.32.47-.62.32-1.5-.33-1.92h0c-.58-.38-1.35-.24-1.77.31-1.91,2.51-4.93,4.13-8.32,4.16-3.37.02-6.38-1.55-8.33-4-.43-.54-1.2-.66-1.77-.28l-.21.14c-.65.43-.79,1.33-.3,1.94,2.46,3.06,6.24,5,10.47,4.98Z"/>
          <path class="cls-1" d="M660.6,661.23c5.84-.04,11-2.89,14.19-7.26.45-.62.29-1.48-.35-1.9l-.08-.05c-.59-.38-1.39-.25-1.8.32-2.7,3.69-7.06,6.1-11.98,6.13-4.92.03-9.31-2.32-12.06-5.98-.42-.56-1.2-.7-1.78-.32l-.11.07c-.64.42-.79,1.29-.33,1.91,3.26,4.33,8.45,7.12,14.29,7.09Z"/>
        </g>
      </g>
      <g>
        <path class="cls-1" d="M295.62,401l-1.36.18c-7.94,1.04-15.96,1.39-23.97,1.03l.12-1.52c.05-.59-.42-1.09-1-1.09h-4.53c-.59,0-1.05.5-1,1.09l.43,5.39c.07.85.78,1.51,1.63,1.51h2.42c.82,0,1.5-.6,1.62-1.39h25.65v-5.2h0Z"/>
        <rect class="cls-1" x="266.05" y="394.84" width="1.62" height="6.73"/>
        <path class="cls-1" d="M280.19,393.67c-4.58,0-8.66.3-11.31.78-.12-.9-.98-1.59-2.02-1.59s-1.89.7-2.02,1.59c-2.65-.47-6.73-.78-11.31-.78-7.99,0-14.47,2.06-14.47,2.06,0,0,6.48,2.06,14.47,2.06,5.99,0,11.13-.52,13.33-1.26,2.2.74,7.34,1.26,13.33,1.26,7.99,0,14.47-2.06,14.47-2.06,0,0-6.48-2.06-14.47-2.06Z"/>
        <rect class="cls-1" x="347.73" y="394.84" width="1.62" height="6.73"/>
        <path class="cls-1" d="M361.87,393.67c-4.58,0-8.66.3-11.31.78-.12-.9-.98-1.59-2.02-1.59s-1.9.7-2.02,1.59c-2.65-.47-6.73-.78-11.31-.78-7.99,0-14.47,2.06-14.47,2.06,0,0,6.48,2.06,14.47,2.06,5.99,0,11.13-.52,13.33-1.26,2.2.74,7.34,1.26,13.33,1.26,7.99,0,14.47-2.06,14.47-2.06,0,0-6.48-2.06-14.47-2.06Z"/>
        <path class="cls-1" d="M319.69,400.99l1.36.18c7.94,1.04,15.96,1.39,23.97,1.03l-.12-1.52c-.05-.59.42-1.09,1-1.09h4.53c.59,0,1.05.5,1,1.09l-.43,5.39c-.07.85-.78,1.51-1.63,1.51h-2.42c-.82,0-1.5-.6-1.62-1.39h-25.65v-5.2h0Z"/>
        <path class="cls-1" d="M313.16,425.03h-11.15c-.83,0-1.53-.61-1.65-1.43l-1.57-10.92c-.16-1.15.72-2.17,1.88-2.17h13.83c1.16,0,2.05,1.03,1.88,2.17l-1.57,10.92c-.12.82-.82,1.43-1.65,1.43Z"/>
        <rect class="cls-1" x="298.18" y="403.19" width="2.28" height="14.38" transform="translate(-190.06 274.33) rotate(-38.36)"/>
        <rect class="cls-1" x="309.21" y="409.16" width="14.38" height="2.28" transform="translate(-201.69 403.83) rotate(-51.65)"/>
        <path class="cls-1" d="M321.79,407.95h-26.93c-1.61,0-2.98-1.17-3.23-2.75l-.81-5.04c-.19-1.17.71-2.22,1.9-2.22h31.23c1.18,0,2.08,1.06,1.9,2.22l-.81,5.04c-.26,1.59-1.62,2.75-3.23,2.75Z"/>
        <path class="cls-1" d="M300.94,420.37l-.14-2.27-21.02,1.25-4.46,5.19h-1.49c-.58,0-1.07.43-1.14,1.01l-.61,4.88c-.04.34.22.64.57.64h6.57c.34,0,.61-.3.57-.64l-.61-4.88c-.06-.49-.42-.87-.88-.98l2.59-3.01,20.06-1.2Z"/>
        <path class="cls-1" d="M315.05,420.37l.14-2.27,21.02,1.25,4.46,5.19h1.49c.58,0,1.07.43,1.14,1.01l.61,4.88c.04.34-.22.64-.57.64h-6.57c-.34,0-.61-.3-.57-.64l.61-4.88c.06-.49.42-.87.88-.98l-2.59-3.01-20.06-1.2Z"/>
        <g>
          <g>
            <path class="cls-1" d="M272.67,432.93c-.13,0-.27-.05-.36-.16-.19-.2-.18-.52.02-.7l.26-.24c.2-.19.52-.18.7.02s.18.52-.02.7l-.26.24c-.1.09-.22.14-.34.14Z"/>
            <path class="cls-1" d="M262.08,442.83c-.13,0-.27-.05-.36-.16-.19-.2-.18-.52.02-.7l.53-.49c.2-.19.52-.18.7.02.19.2.18.52-.02.7l-.53.49c-.09.09-.22.14-.34.14ZM264.2,440.85c-.13,0-.27-.05-.36-.16-.19-.2-.18-.52.02-.7l.53-.49c.2-.19.52-.18.7.02.19.2.18.52-.02.7l-.53.49c-.09.09-.22.14-.34.14ZM266.31,438.87c-.13,0-.27-.05-.36-.16-.19-.2-.18-.52.02-.7l.53-.49c.2-.19.52-.18.7.02s.18.52-.02.7l-.53.49c-.1.09-.22.14-.34.14ZM268.43,436.89c-.13,0-.27-.05-.36-.16-.19-.2-.18-.52.02-.7l.53-.49c.2-.19.52-.18.7.02.19.2.18.52-.02.7l-.53.49c-.09.09-.22.14-.34.14ZM270.55,434.91c-.13,0-.27-.05-.36-.16-.19-.2-.18-.52.02-.7l.53-.49c.2-.19.52-.18.7.02s.18.52-.02.7l-.53.49c-.1.09-.22.14-.34.14Z"/>
            <path class="cls-1" d="M260.23,444.56c-.13,0-.27-.05-.36-.16-.19-.2-.18-.52.02-.7l.26-.24c.2-.19.52-.18.7.02s.18.52-.02.7l-.26.24c-.1.09-.22.14-.34.14Z"/>
          </g>
          <g>
            <path class="cls-1" d="M276.27,433.04c-.28,0-.5-.22-.5-.5v-.36c0-.28.22-.5.5-.5s.5.22.5.5v.36c0,.27-.22.5-.5.5Z"/>
            <path class="cls-1" d="M276.27,442.51c-.28,0-.5-.22-.5-.5v-.79c0-.28.22-.5.5-.5s.5.22.5.5v.79c0,.27-.22.5-.5.5ZM276.27,439.35c-.28,0-.5-.22-.5-.5v-.79c0-.28.22-.5.5-.5s.5.22.5.5v.79c0,.27-.22.5-.5.5ZM276.27,436.2c-.28,0-.5-.22-.5-.5v-.79c0-.28.22-.5.5-.5s.5.22.5.5v.79c0,.27-.22.5-.5.5Z"/>
            <path class="cls-1" d="M276.27,445.23c-.28,0-.5-.22-.5-.5v-.36c0-.28.22-.5.5-.5s.5.22.5.5v.36c0,.27-.22.5-.5.5Z"/>
          </g>
          <g>
            <path class="cls-1" d="M280.06,432.85c-.08,0-.16-.02-.23-.06l-.31-.17c-.24-.13-.34-.43-.21-.67s.43-.34.67-.21l.31.17c.24.13.34.43.21.67-.09.17-.26.26-.44.26Z"/>
            <path class="cls-1" d="M299.94,443.4c-.08,0-.16-.02-.23-.06l-.62-.33c-.24-.13-.34-.43-.21-.67s.43-.34.67-.21l.62.33c.24.13.34.43.21.67-.09.17-.26.26-.44.26ZM297.46,442.08c-.08,0-.16-.02-.23-.06l-.62-.33c-.24-.13-.34-.43-.21-.67s.43-.34.67-.21l.62.33c.24.13.34.43.21.67-.09.17-.26.26-.44.26ZM294.97,440.77c-.08,0-.16-.02-.23-.06l-.62-.33c-.24-.13-.34-.43-.21-.67s.43-.34.67-.21l.62.33c.24.13.34.43.21.67-.09.17-.26.26-.44.26ZM292.49,439.45c-.08,0-.16-.02-.23-.06l-.62-.33c-.24-.13-.34-.43-.21-.67s.43-.34.67-.21l.62.33c.24.13.34.43.21.67-.09.17-.26.26-.44.26ZM290,438.13c-.08,0-.16-.02-.23-.06l-.62-.33c-.24-.13-.34-.43-.21-.67s.43-.34.67-.21l.62.33c.24.13.34.43.21.67-.09.17-.26.26-.44.26ZM287.52,436.81c-.08,0-.16-.02-.23-.06l-.62-.33c-.24-.13-.34-.43-.21-.67s.43-.34.67-.21l.62.33c.24.13.34.43.21.67-.09.17-.26.26-.44.26ZM285.03,435.49c-.08,0-.16-.02-.23-.06l-.62-.33c-.24-.13-.34-.43-.21-.67s.43-.34.67-.21l.62.33c.24.13.34.43.21.67-.09.17-.26.26-.44.26ZM282.55,434.17c-.08,0-.16-.02-.23-.06l-.62-.33c-.24-.13-.34-.43-.21-.67s.43-.34.67-.21l.62.33c.24.13.34.43.21.67-.09.17-.26.26-.44.26Z"/>
            <path class="cls-1" d="M302.12,444.56c-.08,0-.16-.02-.23-.06l-.31-.17c-.24-.13-.34-.43-.21-.67.13-.24.43-.34.67-.21l.31.17c.24.13.34.43.21.67-.09.17-.26.26-.44.26Z"/>
          </g>
          <g>
            <path class="cls-1" d="M277.87,432.98c-.16,0-.32-.08-.41-.22l-.2-.3c-.15-.23-.09-.54.14-.69.23-.15.54-.09.69.14l.2.3c.15.23.09.54-.14.69-.09.06-.18.08-.28.08Z"/>
            <path class="cls-1" d="M284.6,443.05c-.16,0-.32-.08-.41-.22l-.42-.63c-.15-.23-.09-.54.14-.69.23-.15.54-.09.69.14l.42.63c.15.23.09.54-.14.69-.08.06-.18.08-.28.08ZM282.92,440.53c-.16,0-.32-.08-.41-.22l-.42-.63c-.15-.23-.09-.54.14-.69.23-.15.54-.09.69.14l.42.63c.15.23.09.54-.14.69-.09.06-.18.08-.28.08ZM281.24,438.01c-.16,0-.32-.08-.41-.22l-.42-.63c-.15-.23-.09-.54.14-.69.23-.15.54-.09.69.14l.42.63c.15.23.09.54-.14.69-.09.06-.18.08-.28.08ZM279.55,435.5c-.16,0-.32-.08-.41-.22l-.42-.63c-.15-.23-.09-.54.14-.69.23-.15.54-.09.69.14l.42.63c.15.23.09.54-.14.69-.08.06-.18.08-.28.08Z"/>
            <path class="cls-1" d="M286.06,445.23c-.16,0-.32-.08-.41-.22l-.2-.3c-.15-.23-.09-.54.14-.69.23-.15.54-.09.69.14l.2.3c.15.23.09.54-.14.69-.09.06-.18.08-.28.08Z"/>
          </g>
          <g>
            <path class="cls-1" d="M274.24,433c-.08,0-.16-.02-.23-.06-.24-.13-.34-.43-.21-.67l.16-.32c.13-.24.43-.34.67-.21.24.13.34.43.21.67l-.16.32c-.09.17-.26.27-.44.27Z"/>
            <path class="cls-1" d="M269.33,442.47c-.08,0-.16-.02-.23-.06-.24-.13-.34-.43-.21-.67l.31-.59c.13-.24.43-.34.67-.21.24.13.34.43.21.67l-.31.59c-.09.17-.26.27-.44.27ZM270.56,440.1c-.08,0-.16-.02-.23-.06-.24-.13-.34-.43-.21-.67l.31-.59c.13-.24.43-.34.67-.21.24.13.34.43.21.67l-.31.59c-.09.17-.26.27-.44.27ZM271.79,437.74c-.08,0-.16-.02-.23-.06-.24-.13-.34-.43-.21-.67l.31-.59c.13-.24.43-.34.67-.21.24.13.34.43.21.67l-.31.59c-.09.17-.26.27-.44.27ZM273.02,435.37c-.08,0-.16-.02-.23-.06-.24-.13-.34-.43-.21-.67l.31-.59c.13-.24.43-.34.67-.21.24.13.34.43.21.67l-.31.59c-.09.17-.26.27-.44.27Z"/>
            <path class="cls-1" d="M268.25,444.56c-.08,0-.16-.02-.23-.06-.24-.13-.34-.43-.21-.67l.16-.32c.13-.24.43-.34.67-.21s.34.43.21.67l-.16.32c-.09.17-.26.27-.44.27Z"/>
          </g>
        </g>
        <g>
          <g>
            <path class="cls-1" d="M343.21,432.93c.13,0,.27-.05.36-.16.19-.2.18-.52-.02-.7l-.26-.24c-.2-.19-.52-.18-.7.02s-.18.52.02.7l.26.24c.1.09.22.14.34.14Z"/>
            <path class="cls-1" d="M353.46,442.7l-.53-.49c-.2-.19-.21-.5-.02-.7s.5-.21.7-.02l.53.49c.2.19.21.5.02.7-.1.1-.23.16-.36.16-.12,0-.24-.05-.34-.14ZM351.34,440.72l-.53-.49c-.2-.19-.21-.5-.02-.7s.5-.21.7-.02l.53.49c.2.19.21.5.02.7-.1.1-.23.16-.36.16-.12,0-.24-.04-.34-.14ZM349.23,438.74l-.53-.49c-.2-.19-.21-.5-.02-.7s.5-.21.7-.02l.53.49c.2.19.21.5.02.7-.1.1-.23.16-.36.16-.12,0-.24-.05-.34-.14ZM347.11,436.75l-.53-.49c-.2-.19-.21-.5-.02-.7s.5-.21.7-.02l.53.49c.2.19.21.5.02.7-.1.1-.23.16-.36.16-.12,0-.24-.04-.34-.14ZM344.99,434.77l-.53-.49c-.2-.19-.21-.5-.02-.7s.5-.21.7-.02l.53.49c.2.19.21.5.02.7-.1.1-.23.16-.36.16-.12,0-.24-.04-.34-.14Z"/>
            <path class="cls-1" d="M355.65,444.56c.13,0,.27-.05.36-.16.19-.2.18-.52-.02-.7l-.26-.24c-.2-.19-.52-.18-.7.02s-.18.52.02.7l.26.24c.1.09.22.14.34.14Z"/>
          </g>
          <g>
            <path class="cls-1" d="M339.61,433.04c.28,0,.5-.22.5-.5v-.36c0-.28-.22-.5-.5-.5s-.5.22-.5.5v.36c0,.27.22.5.5.5Z"/>
            <path class="cls-1" d="M339.12,442.01v-.79c0-.28.22-.5.5-.5s.5.22.5.5v.79c0,.28-.22.5-.5.5-.27,0-.5-.22-.5-.5ZM339.12,438.85v-.79c0-.28.22-.5.5-.5s.5.22.5.5v.79c0,.28-.22.5-.5.5s-.5-.22-.5-.5ZM339.12,435.7v-.79c0-.28.22-.5.5-.5s.5.22.5.5v.79c0,.28-.22.5-.5.5-.27,0-.5-.22-.5-.5Z"/>
            <path class="cls-1" d="M339.61,445.23c.28,0,.5-.22.5-.5v-.36c0-.28-.22-.5-.5-.5s-.5.22-.5.5v.36c0,.27.22.5.5.5Z"/>
          </g>
          <g>
            <path class="cls-1" d="M335.82,432.85c.08,0,.16-.02.23-.06l.31-.17c.24-.13.34-.43.21-.67s-.43-.34-.67-.21l-.31.17c-.24.13-.34.43-.21.67.09.17.26.26.44.26Z"/>
            <path class="cls-1" d="M315.5,443.14c-.13-.24-.04-.54.21-.67l.62-.33c.24-.13.54-.04.67.21.13.24.04.54-.21.67l-.62.33c-.07.04-.15.06-.23.06-.18,0-.35-.1-.44-.26ZM317.98,441.82c-.13-.24-.04-.54.21-.67l.62-.33c.24-.13.54-.04.67.21.13.24.04.54-.21.67l-.62.33c-.07.04-.15.06-.23.06-.18,0-.35-.09-.44-.26ZM320.47,440.5c-.13-.24-.04-.54.21-.67l.62-.33c.24-.13.54-.04.67.21.13.24.04.54-.21.67l-.62.33c-.08.04-.15.06-.23.06-.18,0-.35-.09-.44-.26ZM322.95,439.18c-.13-.24-.04-.54.21-.67l.62-.33c.24-.13.54-.04.67.21.13.24.04.54-.21.67l-.62.33c-.08.04-.15.06-.23.06-.18,0-.35-.09-.44-.26ZM325.44,437.86c-.13-.24-.04-.54.21-.67l.62-.33c.24-.13.54-.04.67.21.13.24.04.54-.21.67l-.62.33c-.07.04-.15.06-.23.06-.18,0-.35-.09-.44-.26ZM327.92,436.54c-.13-.24-.04-.54.21-.67l.62-.33c.24-.13.54-.04.67.21.13.24.04.54-.21.67l-.62.33c-.07.04-.15.06-.23.06-.18,0-.35-.09-.44-.26ZM330.41,435.23c-.13-.24-.04-.54.21-.67l.62-.33c.24-.13.54-.04.67.21.13.24.04.54-.21.67l-.62.33c-.08.04-.15.06-.23.06-.18,0-.35-.09-.44-.26ZM332.89,433.91c-.13-.24-.04-.54.21-.67l.62-.33c.24-.13.54-.04.67.21.13.24.04.54-.21.67l-.62.33c-.07.04-.15.06-.23.06-.18,0-.35-.09-.44-.26Z"/>
            <path class="cls-1" d="M313.76,444.56c.08,0,.16-.02.23-.06l.31-.17c.24-.13.34-.43.21-.67-.13-.24-.43-.34-.67-.21l-.31.17c-.24.13-.34.43-.21.67.09.17.26.26.44.26Z"/>
          </g>
          <g>
            <path class="cls-1" d="M338.01,432.98c.16,0,.32-.08.41-.22l.2-.3c.15-.23.09-.54-.14-.69-.23-.15-.54-.09-.69.14l-.2.3c-.15.23-.09.54.14.69.09.06.18.08.28.08Z"/>
            <path class="cls-1" d="M331,442.96c-.23-.15-.29-.46-.14-.69l.42-.63c.15-.23.46-.29.69-.14.23.15.29.46.14.69l-.42.63c-.1.14-.25.22-.41.22-.1,0-.19-.03-.28-.08ZM332.68,440.44c-.23-.15-.29-.46-.14-.69l.42-.63c.15-.23.46-.29.69-.14.23.15.29.46.14.69l-.42.63c-.1.14-.25.22-.41.22-.1,0-.19-.03-.28-.08ZM334.36,437.93c-.23-.15-.29-.46-.14-.69l.42-.63c.15-.23.46-.29.69-.14.23.15.29.46.14.69l-.42.63c-.1.14-.25.22-.41.22-.1,0-.19-.03-.28-.08ZM336.05,435.41c-.23-.15-.29-.46-.14-.69l.42-.63c.15-.23.46-.29.69-.14.23.15.29.46.14.69l-.42.63c-.1.14-.25.22-.41.22-.1,0-.19-.03-.28-.08Z"/>
            <path class="cls-1" d="M329.82,445.23c.16,0,.32-.08.41-.22l.2-.3c.15-.23.09-.54-.14-.69-.23-.15-.54-.09-.69.14l-.2.3c-.15.23-.09.54.14.69.09.06.18.08.28.08Z"/>
          </g>
          <g>
            <path class="cls-1" d="M341.63,433c.08,0,.16-.02.23-.06.24-.13.34-.43.21-.67l-.16-.32c-.13-.24-.43-.34-.67-.21-.24.13-.34.43-.21.67l.16.32c.09.17.26.27.44.27Z"/>
            <path class="cls-1" d="M346.1,442.2l-.31-.59c-.13-.24-.03-.54.21-.67.24-.13.54-.03.67.21l.31.59c.13.24.03.54-.21.67-.07.04-.15.06-.23.06-.18,0-.35-.1-.44-.27ZM344.88,439.83l-.31-.59c-.13-.24-.03-.54.21-.67.24-.13.54-.03.67.21l.31.59c.13.24.03.54-.21.67-.07.04-.15.06-.23.06-.18,0-.35-.1-.44-.27ZM343.65,437.47l-.31-.59c-.13-.24-.03-.54.21-.67.24-.13.54-.03.67.21l.31.59c.13.24.03.54-.21.67-.07.04-.15.06-.23.06-.18,0-.35-.1-.44-.27ZM342.42,435.1l-.31-.59c-.13-.24-.03-.54.21-.67.24-.13.54-.03.67.21l.31.59c.13.24.03.54-.21.67-.07.04-.15.06-.23.06-.18,0-.35-.1-.44-.27Z"/>
            <path class="cls-1" d="M347.63,444.56c.08,0,.16-.02.23-.06.24-.13.34-.43.21-.67l-.16-.32c-.13-.24-.43-.34-.67-.21s-.34.43-.21.67l.16.32c.09.17.26.27.44.27Z"/>
          </g>
        </g>
      </g>
      <g>
        <g>
          <path class="cls-1" d="M421.62,725.58s2.9,14.48,11.32,11.93c0,0,2.13-9.12-11.32-11.93Z"/>
          <path class="cls-1" d="M433.7,739.94s1.09-13.08,12.8-14.8c0,0,.34,12.86-12.8,14.8Z"/>
          <path class="cls-1" d="M434,721.85s-4.55,7.42-.49,10.93c0,0,6.59-4.84.49-10.93Z"/>
          <path class="cls-1" d="M433.74,744.94c1.69-4.98-.04-14.79-.04-14.79-1.17,8.13-3.62,14.86-3.62,14.86l3.67-.07Z"/>
        </g>
        <g>
          <path class="cls-1" d="M449.35,725.58s2.9,14.48,11.32,11.93c0,0,2.13-9.12-11.32-11.93Z"/>
          <path class="cls-1" d="M461.43,739.94s1.09-13.08,12.8-14.8c0,0,.34,12.86-12.8,14.8Z"/>
          <path class="cls-1" d="M461.73,721.85s-4.55,7.42-.49,10.93c0,0,6.59-4.84.49-10.93Z"/>
          <path class="cls-1" d="M461.47,744.94c1.69-4.98-.04-14.79-.04-14.79-1.17,8.13-3.62,14.86-3.62,14.86l3.67-.07Z"/>
        </g>
        <g>
          <path class="cls-1" d="M542.35,726.47s-2.9,14.48-11.32,11.93c0,0-2.13-9.12,11.32-11.93Z"/>
          <path class="cls-1" d="M530.27,740.83s-1.09-13.08-12.8-14.8c0,0-.34,12.86,12.8,14.8Z"/>
          <path class="cls-1" d="M529.97,722.73s4.55,7.42.49,10.93c0,0-6.59-4.84-.49-10.93Z"/>
          <path class="cls-1" d="M530.23,745.82c-1.69-4.98.04-14.79.04-14.79,1.17,8.13,3.62,14.86,3.62,14.86l-3.67-.07Z"/>
        </g>
        <g>
          <path class="cls-1" d="M515.31,726.48s-2.9,14.48-11.32,11.93c0,0-2.13-9.12,11.32-11.93Z"/>
          <path class="cls-1" d="M503.23,740.85s-1.09-13.08-12.8-14.8c0,0-.34,12.86,12.8,14.8Z"/>
          <path class="cls-1" d="M502.94,722.75s4.55,7.42.49,10.94c0,0-6.59-4.84-.49-10.94Z"/>
          <path class="cls-1" d="M503.2,745.84c-1.69-4.98.04-14.79.04-14.79,1.17,8.13,3.62,14.86,3.62,14.86l-3.67-.07Z"/>
        </g>
        <rect class="cls-1" x="481.19" y="704.99" width="3.16" height="38.78"/>
        <path class="cls-1" d="M488.32,709.22h-11.1c-.54,0-.91-.56-.68-1.06l1.52-3.38c.17-.39.56-.63.98-.63h7.46c.42,0,.81.25.98.63l1.52,3.38c.23.49-.14,1.06-.68,1.06Z"/>
        <path class="cls-1" d="M485.48,704.99c0,1.23-1.21,2.23-2.71,2.23s-2.71-1-2.71-2.23,1.21-2.23,2.71-2.23,2.71,1,2.71,2.23Z"/>
        <g>
          <g>
            <path class="cls-1" d="M476.47,705.43h-.02l-1.08-.03c-.48-.01-.85-.41-.84-.89.01-.48.41-.86.89-.84l1.08.03c.48.01.85.41.84.89-.01.47-.4.84-.86.84Z"/>
            <path class="cls-1" d="M472.36,705.32h-.02l-2.02-.06c-.48-.01-.85-.41-.84-.89.01-.48.41-.86.89-.84l2.02.06c.48.01.85.41.84.89-.01.47-.4.84-.86.84ZM467.3,705.18h-.02l-2.02-.06c-.48-.01-.85-.41-.84-.89.01-.48.41-.85.89-.84l2.02.06c.48.01.85.41.84.89-.01.47-.4.84-.86.84Z"/>
            <path class="cls-1" d="M460.63,705.96c-.14,0-.28-.04-.42-.11-.42-.23-.57-.76-.34-1.17l.52-.95c.16-.28.45-.45.78-.45l1.08.03c.48.01.85.41.84.89-.01.48-.41.85-.89.84l-.55-.02-.27.48c-.15.29-.45.45-.76.45Z"/>
            <path class="cls-1" d="M456.04,714.3c-.14,0-.28-.04-.42-.11-.42-.23-.57-.76-.34-1.17l.92-1.67c.23-.42.76-.57,1.17-.34s.57.76.34,1.17l-.92,1.67c-.16.29-.45.45-.76.45ZM458.34,710.13c-.14,0-.28-.04-.42-.11-.42-.23-.57-.76-.34-1.17l.92-1.67c.23-.42.76-.57,1.17-.34.42.23.57.76.34,1.17l-.92,1.67c-.16.29-.45.45-.76.45Z"/>
            <path class="cls-1" d="M454.14,717.75c-.14,0-.28-.04-.42-.11-.42-.23-.57-.76-.34-1.17l.52-.95c.23-.42.76-.57,1.17-.34s.57.76.34,1.17l-.52.95c-.16.29-.45.45-.76.45Z"/>
          </g>
          <g>
            <path class="cls-1" d="M477.05,702.81c-.07,0-.14,0-.21-.03l-1.05-.27c-.46-.12-.74-.59-.62-1.05s.59-.74,1.05-.62l1.05.27c.46.12.74.59.62,1.05-.1.39-.45.65-.84.65Z"/>
            <path class="cls-1" d="M473.21,701.84c-.07,0-.14,0-.21-.03l-1.86-.47c-.46-.12-.74-.59-.62-1.05.12-.46.59-.74,1.05-.62l1.86.47c.46.12.74.59.62,1.05-.1.39-.45.65-.84.65ZM468.55,700.65c-.07,0-.14,0-.21-.03l-1.86-.47c-.46-.12-.74-.59-.62-1.05.12-.46.59-.74,1.05-.62l1.86.47c.46.12.74.59.62,1.05-.1.39-.45.65-.84.65ZM463.9,699.47c-.07,0-.14,0-.21-.03l-1.86-.47c-.46-.12-.74-.59-.62-1.05.12-.46.59-.74,1.05-.62l1.86.47c.46.12.74.59.62,1.05-.1.39-.45.65-.84.65Z"/>
            <path class="cls-1" d="M457.56,698.9c-.17,0-.35-.05-.51-.16-.39-.28-.47-.82-.2-1.21l.63-.88c.21-.29.57-.42.91-.33l1.05.27c.46.12.74.59.62,1.05-.12.46-.59.74-1.05.62l-.48-.12-.29.4c-.17.23-.43.36-.7.36Z"/>
            <path class="cls-1" d="M445.02,716.28c-.17,0-.35-.05-.51-.16-.39-.28-.47-.82-.2-1.21l1.25-1.74c.28-.39.82-.47,1.21-.19.39.28.47.82.2,1.21l-1.25,1.74c-.17.23-.43.36-.7.36ZM448.16,711.93c-.17,0-.35-.05-.51-.16-.39-.28-.47-.82-.2-1.21l1.25-1.74c.28-.39.82-.47,1.21-.19.39.28.47.82.2,1.21l-1.25,1.74c-.17.23-.43.36-.7.36ZM451.29,707.59c-.17,0-.35-.05-.51-.16-.39-.28-.47-.82-.2-1.21l1.25-1.74c.28-.39.82-.47,1.21-.19.39.28.47.82.2,1.21l-1.25,1.74c-.17.23-.43.36-.7.36ZM454.43,703.24c-.17,0-.35-.05-.51-.16-.39-.28-.47-.82-.2-1.21l1.25-1.74c.28-.39.82-.47,1.21-.19.39.28.47.82.2,1.21l-1.25,1.74c-.17.23-.43.36-.7.36Z"/>
            <path class="cls-1" d="M442.51,719.76c-.17,0-.35-.05-.51-.16-.39-.28-.47-.82-.2-1.21l.63-.88c.28-.39.82-.47,1.21-.19.39.28.47.82.2,1.21l-.63.88c-.17.23-.43.36-.7.36Z"/>
          </g>
          <g>
            <path class="cls-1" d="M474.8,708.28c-.41,0-.77-.29-.85-.7-.09-.47.22-.92.69-1.01l1.06-.2c.47-.09.92.22,1.01.69.09.47-.22.92-.69,1.01l-1.06.2c-.05.01-.11.02-.16.02Z"/>
            <path class="cls-1" d="M469.48,709.28c-.41,0-.77-.29-.85-.7-.09-.47.22-.92.69-1.01l2.13-.4c.47-.09.92.22,1.01.69.09.47-.22.92-.69,1.01l-2.13.4c-.05.01-.11.02-.16.02Z"/>
            <path class="cls-1" d="M464.91,711.12c-.08,0-.16-.01-.25-.04-.46-.14-.72-.62-.58-1.07l.31-1.04c.09-.31.35-.54.67-.6l1.06-.2c.47-.09.92.22,1.01.69.09.47-.22.92-.69,1.01l-.54.1-.16.53c-.11.37-.46.62-.83.62Z"/>
            <path class="cls-1" d="M463.24,716.75c-.08,0-.16-.01-.25-.04-.46-.14-.72-.62-.58-1.07l.67-2.25c.14-.46.62-.72,1.07-.58.46.14.72.62.58,1.07l-.67,2.25c-.11.38-.46.62-.83.62Z"/>
            <path class="cls-1" d="M461.93,721.16c-.08,0-.16-.01-.25-.04-.46-.14-.72-.62-.58-1.07l.31-1.04c.14-.46.62-.72,1.07-.58.46.14.72.62.58,1.07l-.31,1.04c-.11.38-.45.62-.83.62Z"/>
          </g>
          <g>
            <path class="cls-1" d="M481.19,702.14c-.13,0-.25-.03-.37-.09l-.97-.47c-.43-.21-.61-.72-.4-1.15.21-.43.72-.61,1.15-.4l.97.47c.43.21.61.72.4,1.15-.15.31-.46.49-.78.49Z"/>
            <path class="cls-1" d="M477.26,700.25c-.13,0-.25-.03-.37-.09l-1.97-.95c-.43-.21-.61-.72-.4-1.15.21-.43.72-.61,1.15-.4l1.97.95c.43.21.61.72.4,1.15-.15.31-.46.49-.78.49ZM472.34,697.88c-.13,0-.25-.03-.37-.09l-1.97-.95c-.43-.21-.61-.72-.4-1.15.21-.43.72-.61,1.15-.4l1.97.95c.43.21.61.72.4,1.15-.15.31-.46.49-.78.49ZM467.41,695.51c-.13,0-.25-.03-.37-.09l-1.97-.95c-.43-.21-.61-.72-.4-1.15.21-.43.72-.61,1.15-.4l1.97.95c.43.21.61.72.4,1.15-.15.31-.46.49-.78.49ZM462.49,693.14c-.12,0-.25-.03-.37-.09l-1.97-.95c-.43-.21-.61-.72-.4-1.15.21-.43.72-.61,1.15-.4l1.97.95c.43.21.61.72.4,1.15-.15.31-.46.49-.78.49Z"/>
            <path class="cls-1" d="M455.91,691.14c-.19,0-.38-.06-.54-.19-.37-.3-.43-.84-.13-1.21l.68-.84c.25-.31.68-.41,1.05-.24l.97.47c.43.21.61.72.4,1.15-.21.43-.72.61-1.15.4l-.35-.17-.25.31c-.17.21-.42.32-.67.32Z"/>
            <path class="cls-1" d="M438.02,713.39c-.19,0-.38-.06-.54-.19-.37-.3-.43-.84-.13-1.21l1.43-1.78c.3-.37.84-.43,1.22-.13.37.3.43.84.13,1.21l-1.43,1.78c-.17.21-.42.32-.67.32ZM441.6,708.94c-.19,0-.38-.06-.54-.19-.37-.3-.43-.84-.13-1.21l1.43-1.78c.3-.37.84-.43,1.22-.13.37.3.43.84.13,1.21l-1.43,1.78c-.17.21-.42.32-.67.32ZM445.18,704.49c-.19,0-.38-.06-.54-.19-.37-.3-.43-.84-.13-1.21l1.43-1.78c.3-.37.84-.43,1.22-.13.37.3.43.84.13,1.21l-1.43,1.78c-.17.21-.42.32-.67.32ZM448.76,700.04c-.19,0-.38-.06-.54-.19-.37-.3-.43-.84-.13-1.21l1.43-1.78c.3-.37.84-.43,1.22-.13.37.3.43.84.13,1.21l-1.43,1.78c-.17.21-.42.32-.67.32ZM452.34,695.59c-.19,0-.38-.06-.54-.19-.37-.3-.43-.84-.13-1.21l1.43-1.78c.3-.37.84-.43,1.22-.13.37.3.43.84.13,1.21l-1.43,1.78c-.17.21-.42.32-.67.32Z"/>
            <path class="cls-1" d="M435.2,716.9c-.19,0-.38-.06-.54-.19-.37-.3-.43-.84-.13-1.21l.68-.84c.3-.37.84-.43,1.22-.13.37.3.43.84.13,1.21l-.68.84c-.17.21-.42.32-.67.32Z"/>
          </g>
        </g>
        <g>
          <g>
            <path class="cls-1" d="M489.08,705.62h.02l1.08-.03c.48-.01.85-.41.84-.89-.01-.48-.41-.86-.89-.84l-1.08.03c-.48.01-.85.41-.84.89.01.47.4.84.86.84Z"/>
            <path class="cls-1" d="M492.33,704.67c-.01-.48.36-.88.84-.89l2.02-.06c.48-.02.88.36.89.84.01.48-.36.88-.84.89l-2.02.06h-.02c-.47,0-.85-.37-.86-.84ZM497.39,704.53c-.01-.48.36-.88.84-.89l2.02-.06c.47-.02.87.36.89.84.01.48-.36.88-.84.89l-2.02.06h-.02c-.47,0-.85-.37-.86-.84Z"/>
            <path class="cls-1" d="M504.92,706.15c.14,0,.28-.04.42-.11.42-.23.57-.76.34-1.17l-.52-.95c-.16-.28-.45-.45-.78-.45l-1.08.03c-.48.01-.85.41-.84.89.01.48.41.85.89.84l.55-.02.27.48c.16.29.45.45.76.45Z"/>
            <path class="cls-1" d="M508.76,714.04l-.92-1.67c-.23-.42-.08-.94.34-1.17s.94-.08,1.17.34l.92,1.67c.23.42.08.94-.34,1.17-.13.07-.28.11-.42.11-.3,0-.6-.16-.76-.45ZM506.46,709.87l-.92-1.67c-.23-.42-.08-.94.34-1.17.42-.23.94-.08,1.17.34l.92,1.67c.23.42.08.94-.34,1.17-.13.07-.28.11-.42.11-.3,0-.6-.16-.76-.45Z"/>
            <path class="cls-1" d="M511.41,717.94c.14,0,.28-.04.42-.11.42-.23.57-.76.34-1.17l-.52-.95c-.23-.42-.76-.57-1.17-.34-.42.23-.57.76-.34,1.17l.52.95c.16.29.45.45.76.45Z"/>
          </g>
          <g>
            <path class="cls-1" d="M488.5,703c.07,0,.14,0,.21-.03l1.05-.27c.46-.12.74-.59.62-1.05s-.59-.74-1.05-.62l-1.05.27c-.46.12-.74.59-.62,1.05.1.39.45.65.84.65Z"/>
            <path class="cls-1" d="M491.5,701.38c-.12-.46.16-.93.62-1.05l1.86-.47c.46-.12.93.16,1.05.62.12.46-.16.93-.62,1.05l-1.86.47c-.07.02-.14.03-.21.03-.39,0-.74-.26-.84-.65ZM496.16,700.19c-.12-.46.16-.93.62-1.05l1.86-.47c.46-.12.93.16,1.05.62s-.16.93-.62,1.05l-1.86.47c-.07.02-.14.03-.21.03-.39,0-.74-.26-.84-.65ZM500.81,699.01c-.12-.46.16-.93.62-1.05l1.86-.47c.46-.12.93.16,1.05.62.12.46-.16.93-.62,1.05l-1.86.47c-.07.02-.14.03-.21.03-.39,0-.74-.26-.84-.65Z"/>
            <path class="cls-1" d="M507.99,699.09c.17,0,.35-.05.51-.16.39-.28.47-.82.2-1.21l-.63-.88c-.21-.29-.57-.42-.91-.33l-1.05.27c-.46.12-.74.59-.62,1.05.12.46.59.74,1.05.62l.48-.12.29.4c.17.23.43.36.7.36Z"/>
            <path class="cls-1" d="M519.83,716.11l-1.25-1.74c-.28-.39-.19-.93.2-1.21.39-.28.93-.19,1.21.19l1.25,1.74c.28.39.19.93-.2,1.21-.15.11-.33.16-.51.16-.27,0-.53-.12-.7-.36ZM516.69,711.76l-1.25-1.74c-.28-.39-.19-.93.2-1.21.39-.28.93-.19,1.21.19l1.25,1.74c.28.39.19.93-.2,1.21-.15.11-.33.16-.51.16-.27,0-.53-.12-.7-.36ZM513.56,707.42l-1.25-1.74c-.28-.39-.19-.93.2-1.21.39-.28.93-.19,1.21.19l1.25,1.74c.28.39.19.93-.2,1.21-.15.11-.33.16-.51.16-.27,0-.53-.12-.7-.36ZM510.42,703.07l-1.25-1.74c-.28-.39-.19-.93.2-1.21.39-.28.93-.19,1.21.19l1.25,1.74c.28.39.19.93-.2,1.21-.15.11-.33.16-.51.16-.27,0-.53-.12-.7-.36Z"/>
            <path class="cls-1" d="M523.04,719.95c.17,0,.35-.05.51-.16.39-.28.47-.82.2-1.21l-.63-.88c-.28-.39-.82-.47-1.21-.19-.39.28-.47.82-.2,1.21l.63.88c.17.23.43.36.7.36Z"/>
          </g>
          <g>
            <path class="cls-1" d="M490.75,708.47c.41,0,.77-.29.85-.7.09-.47-.22-.92-.69-1.01l-1.06-.2c-.47-.09-.92.22-1.01.69-.09.47.22.92.69,1.01l1.06.2c.05.01.11.02.16.02Z"/>
            <path class="cls-1" d="M496.08,709.47c.41,0,.77-.29.85-.7.09-.47-.22-.92-.69-1.01l-2.13-.4c-.47-.09-.92.22-1.01.69-.09.47.22.92.69,1.01l2.13.4c.05.01.11.02.16.02Z"/>
            <path class="cls-1" d="M500.64,711.31c.08,0,.16-.01.25-.04.46-.14.72-.62.58-1.07l-.31-1.04c-.09-.31-.35-.54-.67-.6l-1.06-.2c-.47-.09-.92.22-1.01.69-.09.47.22.92.69,1.01l.54.1.16.53c.11.37.46.62.83.62Z"/>
            <path class="cls-1" d="M502.31,716.94c.08,0,.16-.01.25-.04.46-.14.72-.62.58-1.07l-.67-2.25c-.14-.46-.62-.72-1.07-.58-.46.14-.72.62-.58,1.07l.67,2.25c.11.38.45.62.83.62Z"/>
            <path class="cls-1" d="M503.61,721.35c.08,0,.16-.01.25-.04.46-.14.72-.62.58-1.07l-.31-1.04c-.14-.46-.62-.72-1.07-.58-.46.14-.72.62-.58,1.07l.31,1.04c.11.38.46.62.83.62Z"/>
          </g>
          <g>
            <path class="cls-1" d="M484.36,702.33c.13,0,.25-.03.37-.09l.97-.47c.43-.21.61-.72.4-1.15-.21-.43-.72-.61-1.15-.4l-.97.47c-.43.21-.61.72-.4,1.15.15.31.46.49.78.49Z"/>
            <path class="cls-1" d="M487.51,699.95c-.21-.43-.03-.95.4-1.15l1.97-.95c.43-.21.95-.03,1.15.4s.03.95-.4,1.15l-1.97.95c-.12.06-.25.09-.37.09-.32,0-.63-.18-.78-.49ZM492.43,697.58c-.21-.43-.03-.95.4-1.15l1.97-.95c.43-.21.95-.03,1.15.4s.03.95-.4,1.15l-1.97.95c-.12.06-.25.09-.37.09-.32,0-.63-.18-.78-.49ZM497.36,695.21c-.21-.43-.03-.95.4-1.15l1.97-.95c.43-.21.95-.03,1.15.4s.03.95-.4,1.15l-1.97.95c-.12.06-.25.09-.37.09-.32,0-.63-.18-.78-.49ZM502.28,692.84c-.21-.43-.03-.95.4-1.15l1.97-.95c.43-.21.95-.03,1.15.4.21.43.03.95-.4,1.15l-1.97.95c-.12.06-.25.09-.37.09-.32,0-.63-.18-.78-.49Z"/>
            <path class="cls-1" d="M509.64,691.33c.19,0,.38-.06.54-.19.37-.3.43-.84.13-1.21l-.68-.84c-.25-.31-.69-.41-1.05-.24l-.97.47c-.43.21-.61.72-.4,1.15.21.43.72.61,1.15.4l.35-.17.25.31c.17.21.42.32.67.32Z"/>
            <path class="cls-1" d="M526.85,713.26l-1.43-1.78c-.3-.37-.24-.92.13-1.21s.92-.24,1.22.13l1.43,1.78c.3.37.24.92-.13,1.21-.16.13-.35.19-.54.19-.25,0-.5-.11-.67-.32ZM523.28,708.81l-1.43-1.78c-.3-.37-.24-.92.13-1.21s.92-.24,1.22.13l1.43,1.78c.3.37.24.92-.13,1.21-.16.13-.35.19-.54.19-.25,0-.5-.11-.67-.32ZM519.7,704.36l-1.43-1.78c-.3-.37-.24-.92.13-1.21s.92-.24,1.22.13l1.43,1.78c.3.37.24.92-.13,1.21-.16.13-.35.19-.54.19-.25,0-.5-.11-.67-.32ZM516.12,699.91l-1.43-1.78c-.3-.37-.24-.92.13-1.21s.92-.24,1.22.13l1.43,1.78c.3.37.24.92-.13,1.21-.16.13-.35.19-.54.19-.25,0-.5-.11-.67-.32ZM512.54,695.46l-1.43-1.78c-.3-.37-.24-.92.13-1.21s.92-.24,1.22.13l1.43,1.78c.3.37.24.92-.13,1.21-.16.13-.35.19-.54.19-.25,0-.5-.11-.67-.32Z"/>
            <path class="cls-1" d="M530.35,717.09c.19,0,.38-.06.54-.19.37-.3.43-.84.13-1.21l-.68-.84c-.3-.37-.84-.43-1.22-.13-.37.3-.43.84-.13,1.21l.68.84c.17.21.42.32.67.32Z"/>
          </g>
        </g>
        <path class="cls-1" d="M492.07,760.89c-.51-.04-9.32-.67-9.32-.67l-.42-.03.21-.38c1.3-2.33,3.09-5.61,4.4-7.89,1.56-2.74,3.15-5.47,4.76-8.19,1.01,1.99,2.43,4.74,3.4,6.73l-.06.03c-.3-.51-.6-1.02-.9-1.53-.52-.88-1.77-3.07-2.45-4.25-1.37,2.53-2.76,5.04-4.17,7.54-1.22,2.16-2.98,5.2-4.29,7.46l9.15.8.28.02-.11.25s-3.08,7.33-5.21,12.34c6.76-.37,13.19-1.36,19.09-2.86l-2.7-3.96c.09.12-9.95-10.73-9.92-10.7l-.37-.4c1.28-.35,2.59-.66,3.88-.98,3.35-.81,6.71-1.58,10.09-2.25l.02.06c-.55.17-1.1.34-1.65.5-1.65.49-3.31.96-4.97,1.42-2.04.56-4.08,1.1-6.14,1.62,1.76,1.98,9.36,10.52,9.36,10.52-.02.01,1.24,1.94,2.66,4.11,6.43-1.65,12.23-3.9,17.15-6.63-3.97-1.32-7.96-2.65-11.66-3.9l-.7-.24.64-.36c2.84-1.62,5.87-3.27,8.8-4.73l.03.06c-.69.46-1.39.92-2.1,1.36l-2.12,1.32c-1.21.75-2.44,1.48-3.67,2.2,3.48,1.24,7.46,2.69,11.2,4.05,3.81-2.16,7.08-4.6,9.67-7.26-3.14-2.88-6.71-6.17-8.9-8.18-3.47-.11-6.94-.32-10.4-.65-1.16-.11-2.33-.23-3.49-.37v-.06c1.17-.01,2.34,0,3.51.01,3.54.06,7.08.23,10.62.5,2.16,2.09,5.71,5.54,8.83,8.57,4.27-4.45,6.69-9.5,6.69-14.86h-119.21c0,5.7,2.74,11.06,7.54,15.71,3.59-2.33,7.68-4.99,10.16-6.59,3.49-1.33,8.35-3.26,11.8-4.56l.21-.08.15.16c2.31,2.35,4.82,5,7.07,7.43.78.84,1.54,1.68,2.3,2.53l-.05.05c-.84-.77-1.67-1.55-2.49-2.34-2.35-2.24-4.88-4.73-7.16-7.04-3.42,1.27-8.25,3.02-11.67,4.27-2.32,1.46-6.51,4.05-10.17,6.31,6.35,6.08,16.25,10.94,28.18,13.74-2-2.5-4.18-5.24-5.54-6.95-.08-2.93-.08-5.86.07-8.79.04-.96.1-1.93.18-2.9h.07c.08.96.14,1.93.18,2.9.14,2.86.14,5.73.07,8.6l4.15,5.57,1.23,1.67c6.48,1.49,13.56,2.38,20.98,2.54-2.45-3.04-6.36-7.87-8.41-10.43v-.05s-1.73-6.49-1.73-6.49c-.53-2.03-1.29-4.77-1.77-6.79,1.81-.67,3.64-1.3,5.46-1.93l2.61-.87c.87-.28,1.74-.57,2.62-.84l.02.06c-1.45.63-3.59,1.51-5.08,2.11-1.61.64-3.22,1.27-4.85,1.88.48,1.86,1.09,4.42,1.53,6.24-.03-.09,1.55,6.3,1.55,6.46,2.01,2.6,5.82,7.58,8.17,10.65.74.02,1.48.03,2.22.03,2.01,0,3.99-.05,5.95-.16l4.93-12.25Z"/>
      </g>
      <g>
        <path class="cls-1" d="M150.03,334.99c-3.46-16.17-18.55-40.92-20.78-44.52-2.23,3.59-17.32,28.35-20.78,44.52-3.42,15.97,7.21,24.62,20.78,24.62s24.2-8.65,20.78-24.62ZM145.08,347.75c-1.68,2.96-4.56,4.86-8.55,5.67-.13.03-.27.04-.4.04-.93,0-1.77-.66-1.96-1.6-.22-1.08.48-2.14,1.56-2.36,2.84-.58,4.76-1.79,5.86-3.72,2.23-3.91.35-9.48.33-9.54-.36-1.04.19-2.18,1.23-2.54,1.04-.36,2.18.19,2.55,1.23.11.3,2.51,7.32-.62,12.82Z"/>
        <g>
          <path class="cls-1" d="M129.25,372.71c-12.73,0-24.71-4.96-33.71-13.96s-13.96-20.98-13.96-33.71,4.96-24.71,13.96-33.71,20.98-13.96,33.71-13.96c2.62,0,5.25.22,7.82.64,2.01.33,3.36,2.22,3.03,4.23-.33,2.01-2.23,3.36-4.23,3.03-2.17-.36-4.4-.54-6.62-.54-22.23,0-40.31,18.08-40.31,40.31s18.08,40.31,40.31,40.31,40.31-18.08,40.31-40.31c0-11.75-5.11-22.89-14.03-30.56-1.54-1.33-1.71-3.65-.39-5.19s3.65-1.71,5.19-.39c10.54,9.07,16.58,22.25,16.58,36.14,0,12.73-4.96,24.71-13.96,33.71-9,9-20.97,13.96-33.71,13.96Z"/>
          <polygon class="cls-1" points="153.19 302.13 145.93 281.35 167.56 285.44 153.19 302.13"/>
        </g>
      </g>
      <g>
        <path class="cls-1" d="M618.98,257.91c-.97,0-1.88-.57-2.27-1.52l-4.72-11.45c-1.08-2.61-.91-5.52.44-7.99,1.36-2.47,3.73-4.17,6.5-4.66l18.98-3.36c1.34-.24,2.61.66,2.85,1.99s-.66,2.61-1.99,2.85l-18.98,3.36c-1.3.23-2.41,1.03-3.05,2.19s-.71,2.53-.21,3.75l4.72,11.45c.52,1.26-.08,2.69-1.34,3.21-.31.13-.62.19-.94.19Z"/>
        <path class="cls-1" d="M638.35,201.88c-.12,0-.24,0-.37-.03l-23.55-3.53c-4.54-.68-8.39-3.59-10.29-7.77l-6.17-13.57c-.56-1.24-.02-2.69,1.22-3.25,1.24-.56,2.69-.02,3.25,1.22l6.17,13.57c1.21,2.66,3.66,4.51,6.55,4.94l23.55,3.53c1.34.2,2.27,1.45,2.07,2.79-.18,1.22-1.23,2.09-2.43,2.09Z"/>
        <path class="cls-1" d="M638.34,218.29h-37.05c-1.36,0-2.46-1.1-2.46-2.46s1.1-2.46,2.46-2.46h37.05c1.36,0,2.46,1.1,2.46,2.46s-1.1,2.46-2.46,2.46Z"/>
        <path class="cls-1" d="M687.81,257.91c.97,0,1.88-.57,2.27-1.52l4.72-11.45c1.07-2.61.91-5.52-.44-7.99-1.36-2.47-3.73-4.17-6.5-4.66l-18.98-3.36c-1.34-.24-2.61.66-2.85,1.99s.66,2.61,1.99,2.85l18.98,3.36c1.3.23,2.42,1.03,3.05,2.19s.71,2.53.21,3.75l-4.72,11.45c-.52,1.26.08,2.69,1.33,3.21.31.13.62.19.94.19Z"/>
        <path class="cls-1" d="M668.45,201.88c.12,0,.24,0,.37-.03l23.55-3.53c4.54-.68,8.39-3.59,10.29-7.77l6.17-13.57c.56-1.24.02-2.69-1.22-3.25-1.24-.56-2.69-.02-3.25,1.22l-6.17,13.57c-1.21,2.66-3.66,4.51-6.55,4.94l-23.55,3.53c-1.34.2-2.27,1.45-2.07,2.79.18,1.22,1.23,2.09,2.43,2.09Z"/>
        <path class="cls-1" d="M668.46,218.29h37.05c1.36,0,2.46-1.1,2.46-2.46s-1.1-2.46-2.46-2.46h-37.05c-1.36,0-2.46,1.1-2.46,2.46,0,1.36,1.1,2.46,2.46,2.46Z"/>
        <path class="cls-1" d="M662.57,179.25c0,4.56-5.01,7.59-8.29,9.08-1.77.81-3.8.81-5.57,0-3.28-1.49-8.29-4.52-8.29-9.08,0-6.78,4.96-13.19,11.08-13.19,6.12,0,11.08,6.41,11.08,13.19Z"/>
        <g>
          <path class="cls-1" d="M661.87,245.46c.45-1.21.7-2.51.7-3.88,0-5.18-3.56-9.53-8.37-10.74,1.3,5.43,3.95,10.48,7.67,14.62Z"/>
          <path class="cls-1" d="M651.49,234.38c-1.72,5.34-4.62,10.25-8.5,14.31,2.03,2.43,5.09,3.97,8.5,3.97s6.47-1.55,8.5-3.97c-3.88-4.06-6.78-8.97-8.5-14.31Z"/>
          <path class="cls-1" d="M648.78,230.84c-4.81,1.21-8.37,5.56-8.37,10.74,0,1.36.25,2.67.7,3.88,3.72-4.14,6.36-9.19,7.67-14.62Z"/>
        </g>
        <path class="cls-1" d="M638.53,248.03c7.04-6.26,11.18-15.42,11.18-24.98v-28.26h3.57v28.26c0,9.56,4.14,18.72,11.18,24.98,7.99-4.53,13.39-13.1,13.39-22.95v-25.8c0-4.44-3.6-13.41-8.04-13.41h-4.61c-1.49,0-2.93.58-3.95,1.67-1.52,1.62-3.69,3.09-6.44,4.35-1.05.48-2.18.72-3.31.72s-2.26-.24-3.31-.72c-2.75-1.25-4.92-2.72-6.44-4.35-1.02-1.08-2.46-1.67-3.95-1.67h-4.61c-4.44,0-8.03,8.98-8.03,13.41v25.8c0,9.84,5.4,18.42,13.39,22.95Z"/>
      </g>
      <g>
        <path class="cls-1" d="M506.82,489.15h3.07v5.97l5.73-5.97h4l-6.08,6.01,6.45,8.64h-4.03l-4.6-6.4-1.47,1.43v4.97h-3.07v-14.66h0Z"/>
        <g>
          <path class="cls-1" d="M438.26,525.74c-7.5,0-13.6-6-13.6-13.37s6.1-13.37,13.6-13.37,13.6,6,13.6,13.37-6.1,13.37-13.6,13.37ZM438.26,502.07c-5.78,0-10.49,4.62-10.49,10.31s4.71,10.31,10.49,10.31,10.49-4.62,10.49-10.31-4.71-10.31-10.49-10.31Z"/>
          <path class="cls-1" d="M477.92,579.74c-12.61,0-22.87-10.08-22.87-22.48s10.26-22.48,22.87-22.48,22.87,10.08,22.87,22.48-10.26,22.48-22.87,22.48ZM477.92,539.93c-9.73,0-17.64,7.78-17.64,17.33s7.91,17.33,17.64,17.33,17.64-7.78,17.64-17.33c0-9.56-7.91-17.33-17.64-17.33Z"/>
          <path class="cls-1" d="M512,514.44c-9.73,0-17.64-7.78-17.64-17.33s7.91-17.33,17.64-17.33,17.64,7.78,17.64,17.33c0,9.56-7.91,17.33-17.64,17.33ZM512,483.74c-7.5,0-13.6,6-13.6,13.37s6.1,13.37,13.6,13.37,13.6-6,13.6-13.37-6.1-13.37-13.6-13.37Z"/>
          <path class="cls-1" d="M471.11,549.06h3.69l6.62,11.41.05-11.41h3.25v16.41h-3.48l-6.8-11.68-.05,11.68h-3.27v-16.41h0Z"/>
          <path class="cls-1" d="M435.61,507.42h4.67c.48,0,.92.08,1.32.23.4.17.73.4.98.68.27.29.47.62.59.99.12.36.18.76.18,1.2,0,.97-.24,1.74-.73,2.33-.5.6-1.31.9-2.43.9h-2.46v3.59h-2.12v-9.93h0ZM439.7,512.05c.46,0,.8-.07,1.03-.21s.37-.31.44-.51c.06-.19.08-.44.08-.73,0-.47-.11-.83-.32-1.09-.22-.25-.71-.37-1.46-.37h-1.73v2.91h1.97Z"/>
          <polygon class="cls-1" points="450.87 511.58 450.28 508.2 496.48 500.38 497.08 503.76 450.87 511.58"/>
          <polygon class="cls-1" points="460.95 546.61 443.05 523.73 445.82 521.64 463.72 544.52 460.95 546.61"/>
          <polygon class="cls-1" points="495.35 545.2 492.14 543.84 506.41 511.37 509.61 512.73 495.35 545.2"/>
        </g>
      </g>
      <g>
        <path class="cls-1" d="M98.54,757.99c0,3.6-2.92,6.51-6.51,6.51s-6.51-2.92-6.51-6.51,2.92-6.51,6.51-6.51c3.6,0,6.51,2.92,6.51,6.51Z"/>
        <path class="cls-1" d="M158.27,757.99c0,3.6-2.92,6.51-6.51,6.51s-6.51-2.92-6.51-6.51,2.92-6.51,6.51-6.51c3.6,0,6.51,2.92,6.51,6.51Z"/>
        <path class="cls-1" d="M168.87,748.08h-.12c-.21,0-.39-.15-.42-.36l-1.89-12.96-11.41-17.11c-.41-.62-1.1-.99-1.84-.99h-20.6c-1.11,0-2.01.9-2.01,2.01v29.41h-53.12v-11.21h-1.98v18h9.14c1.22-2.9,4.08-4.93,7.42-4.93s6.2,2.03,7.42,4.93h44.89c1.22-2.9,4.08-4.93,7.42-4.93s6.2,2.03,7.42,4.93h11.62l-1.08-6.08c-.07-.41-.43-.71-.85-.71ZM135.54,726.81v-7.58h14.38l3.32,7.58v3.24h-17.7v-3.24Z"/>
        <path class="cls-1" d="M118.1,710.73c-.05,1.29-.34,2.59-.91,3.84-2.34,5.18-8.45,7.48-13.62,5.13-3.67-1.66-5.89-5.2-6.04-8.97h-18.97v35.55h50.81v-35.55h-11.27Z"/>
        <g>
          <path class="cls-1" d="M115.24,713.68c-1.86,4.1-6.69,5.92-10.79,4.06s-5.92-6.68-4.06-10.78c1.86-4.1,6.69-5.92,10.78-4.06,4.1,1.86,5.92,6.68,4.06,10.78Z"/>
          <path class="cls-1" d="M124.42,708.43l-5.12.79c-.4-3.92-2.81-7.52-6.66-9.26-3.88-1.76-8.25-1.16-11.48,1.19l-2.78-4.37c4.66-3.26,10.85-4.05,16.39-1.54,5.48,2.48,8.97,7.6,9.64,13.19Z"/>
          <path class="cls-1" d="M132.86,707.12l-5.38.83c-.83-6.57-4.95-12.58-11.43-15.51-6.52-2.95-13.81-2.05-19.31,1.74l-2.66-4.17c6.94-4.77,16.14-5.9,24.38-2.17,8.08,3.66,13.27,11.11,14.39,19.29Z"/>
          <path class="cls-1" d="M140.64,705.91l-5.12.79c-1.21-9.27-7.05-17.72-16.18-21.86-9.12-4.13-19.32-2.94-27.09,2.26l-2.77-4.36c9.18-6.11,21.2-7.49,31.99-2.6,10.8,4.89,17.7,14.83,19.17,25.77Z"/>
        </g>
      </g>
      <g>
        <path class="cls-1" d="M830.19,340.67v5.34h15.55c.45,0,.81-.36.81-.81v-4.53h-16.36Z"/>
        <path class="cls-1" d="M828.57,340.67h-14.34v4.53c0,.45.36.81.81.81h13.53v-5.34h0Z"/>
        <g>
          <path class="cls-1" d="M860.52,282.91c-1.92,3.02-5.92,3.91-8.93,1.99s-3.91-5.92-1.99-8.93,5.92-3.91,8.93-1.99c3.02,1.92,3.91,5.92,1.99,8.93Z"/>
          <path class="cls-1" d="M866.27,279.83h-.17c-.98.02-1.82-.69-1.97-1.65-.37-2.52-1.79-4.87-4.11-6.35-2.34-1.49-5.12-1.77-7.59-1-.94.29-1.95-.18-2.35-1.07l-.07-.16c-.48-1.07.06-2.33,1.17-2.68,3.59-1.13,7.63-.73,11.04,1.44,3.37,2.14,5.44,5.58,5.97,9.25.17,1.16-.75,2.2-1.93,2.22Z"/>
          <path class="cls-1" d="M873.06,279.74h-.37c-1.03.02-1.88-.77-1.98-1.79-.47-4.61-2.96-8.98-7.17-11.66-4.24-2.7-9.3-3.09-13.69-1.51-.97.35-2.05-.09-2.48-1.03h0c-.47-1.03.02-2.26,1.08-2.65,5.6-2.08,12.07-1.61,17.5,1.84,5.29,3.36,8.43,8.82,9.05,14.59.12,1.17-.76,2.19-1.93,2.21Z"/>
          <path class="cls-1" d="M879.35,279.67h-.17c-1.04.02-1.91-.78-1.98-1.81-.49-6.77-4.06-13.23-10.22-17.15-6.15-3.91-13.52-4.41-19.86-1.98-.97.37-2.06-.08-2.49-1.03l-.07-.15c-.46-1.03.03-2.24,1.08-2.65,7.5-2.89,16.22-2.29,23.53,2.35,7.31,4.65,11.55,12.29,12.13,20.32.08,1.13-.81,2.09-1.94,2.11Z"/>
        </g>
        <path class="cls-1" d="M847.52,283.4h-34.26c-.85,0-1.54.69-1.54,1.54v62.03c0,.85.69,1.54,1.54,1.54h34.26c.85,0,1.54-.69,1.54-1.54v-62.03c0-.85-.69-1.54-1.54-1.54ZM847.52,346.98h-34.26v-62.03h34.26v62.03Z"/>
        <rect class="cls-1" x="832.7" y="327.72" width="1.41" height="1.41"/>
        <rect class="cls-1" x="834.77" y="327.72" width="1.41" height="1.41"/>
        <rect class="cls-1" x="836.83" y="327.72" width="1.41" height="1.41"/>
        <rect class="cls-1" x="838.89" y="327.72" width="1.41" height="1.41"/>
        <polygon class="cls-1" points="829.05 334.14 829.05 336.83 829.38 336.83 829.05 334.14"/>
        <g>
          <path class="cls-1" d="M828.09,314.16c-.42,0-.81.1-1.17.3-.38.2-.71.54-.98,1.02-.14.23-.24.51-.33.84-.09.31-.14.64-.14.99,0,1.05.21,1.92.64,2.62.43.7,1.1,1.05,2.02,1.05.63,0,1.15-.17,1.55-.52.38-.34.66-.75.84-1.24.17-.48.26-.98.26-1.49,0-.85-.17-1.66-.52-2.43-.33-.76-1.06-1.14-2.19-1.14Z"/>
          <path class="cls-1" d="M845.74,285.91h-30.7c-.45,0-.81.36-.81.81v52.33h32.32v-52.33c0-.45-.36-.81-.81-.81ZM825.52,287.29c0-.32.26-.59.58-.59h8.57c.32,0,.58.26.58.59v.41c0,.32-.26.59-.58.59h-8.57c-.32,0-.58-.26-.58-.59v-.41ZM822.02,322.43h-2.05v-9.76h2.05v9.76ZM832.51,319.75c-.24.63-.55,1.16-.95,1.59-.41.43-.9.77-1.48,1.01-.6.23-1.24.35-1.93.35-.94,0-1.76-.21-2.44-.62-.71-.43-1.24-.98-1.6-1.66-.19-.37-.34-.76-.45-1.15-.12-.38-.18-.78-.18-1.21v-.35c0-1.04.16-1.96.49-2.76.33-.8.85-1.42,1.56-1.86.72-.45,1.62-.68,2.68-.68.61,0,1.18.1,1.72.3.58.21,1.08.52,1.49.92.44.42.78.95,1.03,1.6.25.65.38,1.44.38,2.38,0,.8-.11,1.52-.33,2.14ZM841.54,314.39h-2.95v8.04h-2.05v-8.04h-2.93v-1.72h7.93v1.72Z"/>
        </g>
      </g>
      <g>
        <g>
          <path class="cls-1" d="M281.54,159.24s-1.33,12.49,12.91,16.6c0,0,4.16-9.25-12.91-16.6Z"/>
          <path class="cls-1" d="M295.57,150.17s-7.61,6.97-1.07,17.24c0,0,7.59-3.43,1.07-17.24Z"/>
          <path class="cls-1" d="M280.67,170.24s-2.51,13.86,13.07,19.62c0,0,5.42-10-13.07-19.62Z"/>
          <path class="cls-1" d="M279.18,184.08s-2.79,15.36,14.48,21.74c0,0,6-11.08-14.48-21.74Z"/>
          <path class="cls-1" d="M277.68,200.05s-3.06,16.85,15.9,23.86c0,0,6.59-12.16-15.9-23.86Z"/>
          <path class="cls-1" d="M276.19,215.78s-3.33,18.35,17.31,25.98c0,0,7.17-13.24-17.31-25.98Z"/>
          <path class="cls-1" d="M306.48,158.47s2.24,12.36-11.66,17.5c0,0-4.83-8.92,11.66-17.5Z"/>
          <path class="cls-1" d="M308.29,170.24s2.51,13.86-13.07,19.62c0,0-5.42-10,13.07-19.62Z"/>
          <path class="cls-1" d="M309.78,184.08s2.79,15.36-14.48,21.74c0,0-6-11.08,14.48-21.74Z"/>
          <path class="cls-1" d="M311.27,200.05s3.06,16.85-15.9,23.86c0,0-6.59-12.16,15.9-23.86Z"/>
          <path class="cls-1" d="M312.77,215.78s3.33,18.35-17.31,25.98c0,0-7.17-13.24,17.31-25.98Z"/>
          <polygon class="cls-1" points="292.62 252.02 294.48 165.4 296.34 252.02 292.62 252.02"/>
        </g>
        <g>
          <path class="cls-1" d="M249.98,183.58s-.99,9.27,9.59,12.32c0,0,3.09-6.86-9.59-12.32Z"/>
          <path class="cls-1" d="M260.39,176.85s-5.65,5.17-.8,12.8c0,0,5.64-2.55.8-12.8Z"/>
          <path class="cls-1" d="M249.33,191.75s-1.87,10.29,9.7,14.57c0,0,4.02-7.42-9.7-14.57Z"/>
          <path class="cls-1" d="M248.22,202.02s-2.07,11.4,10.75,16.14c0,0,4.46-8.22-10.75-16.14Z"/>
          <path class="cls-1" d="M247.11,213.88s-2.27,12.51,11.8,17.71c0,0,4.89-9.02-11.8-17.71Z"/>
          <path class="cls-1" d="M246.01,225.56s-2.47,13.62,12.85,19.29c0,0,5.33-9.83-12.85-19.29Z"/>
          <path class="cls-1" d="M268.49,183.01s1.66,9.18-8.66,12.99c0,0-3.59-6.62,8.66-12.99Z"/>
          <path class="cls-1" d="M269.84,191.75s1.87,10.29-9.7,14.57c0,0-4.02-7.42,9.7-14.57Z"/>
          <path class="cls-1" d="M270.94,202.02s2.07,11.4-10.75,16.14c0,0-4.46-8.22,10.75-16.14Z"/>
          <path class="cls-1" d="M272.05,213.88s2.27,12.51-11.8,17.71c0,0-4.89-9.02,11.8-17.71Z"/>
          <path class="cls-1" d="M273.16,225.56s2.47,13.62-12.85,19.29c0,0-5.32-9.83,12.85-19.29Z"/>
          <polygon class="cls-1" points="258.21 252.46 259.58 188.15 260.96 252.46 258.21 252.46"/>
        </g>
        <path class="cls-1" d="M319.77,185.78c-1.44,0-2.61-1.17-2.61-2.61v-5.46c0-1.44,1.17-2.61,2.61-2.61s2.61,1.17,2.61,2.61v5.46c0,1.44-1.17,2.61-2.61,2.61Z"/>
        <path class="cls-1" d="M319.77,232.7c-1.44,0-2.61-1.17-2.61-2.61v-5.46c0-1.44,1.17-2.61,2.61-2.61s2.61,1.17,2.61,2.61v5.46c0,1.44-1.17,2.61-2.61,2.61Z"/>
        <g>
          <path class="cls-1" d="M319.77,245.91c-3.81,0-7.59-.52-11.23-1.54-2.78-.78-4.4-3.67-3.62-6.45.78-2.78,3.66-4.4,6.45-3.62,2.72.76,5.55,1.15,8.41,1.15,17.11,0,31.03-13.92,31.03-31.03s-13.92-31.03-31.03-31.03c-1.21,0-2.43.07-3.62.21-2.87.33-5.46-1.72-5.8-4.59-.33-2.87,1.72-5.46,4.59-5.8,1.59-.18,3.22-.28,4.83-.28,22.88,0,41.48,18.61,41.48,41.48,0,22.88-18.61,41.49-41.49,41.49Z"/>
          <path class="cls-1" d="M345.95,206.51h-5.46c-1.44,0-2.61-1.17-2.61-2.61s1.17-2.61,2.61-2.61h5.46c1.44,0,2.61,1.17,2.61,2.61,0,1.44-1.17,2.61-2.61,2.61Z"/>
          <path class="cls-1" d="M334.42,191.86c-.67,0-1.34-.26-1.85-.77-1.02-1.02-1.02-2.68,0-3.7l3.86-3.86c1.02-1.02,2.68-1.02,3.7,0,1.02,1.02,1.02,2.68,0,3.7l-3.86,3.86c-.51.51-1.18.77-1.85.77Z"/>
          <path class="cls-1" d="M338.28,225.03c-.67,0-1.34-.26-1.85-.77l-3.86-3.86c-1.02-1.02-1.02-2.68,0-3.7s2.68-1.02,3.7,0l3.86,3.86c1.02,1.02,1.02,2.68,0,3.7-.51.51-1.18.77-1.85.77Z"/>
          <path class="cls-1" d="M323.26,203.9c0,2.57-2.08,4.64-4.64,4.64s-4.64-2.08-4.64-4.64,2.08-4.64,4.64-4.64c2.57,0,4.64,2.08,4.64,4.64Z"/>
          <path class="cls-1" d="M318.61,207.27c-.37,0-.75-.08-1.11-.25-1.31-.62-1.86-2.17-1.25-3.48l7.28-15.41c.62-1.31,2.17-1.86,3.48-1.25,1.31.62,1.86,2.17,1.25,3.48l-7.28,15.41c-.45.95-1.39,1.5-2.37,1.5Z"/>
          <path class="cls-1" d="M328.26,207.38h-7.64c-1.92,0-3.49-1.56-3.49-3.49s1.56-3.49,3.49-3.49h7.64c1.92,0,3.49,1.56,3.49,3.49s-1.56,3.49-3.49,3.49Z"/>
        </g>
      </g>
      <g>
        <polygon class="cls-1" points="885.64 141.27 789.5 141.27 789.5 68.92 792.74 68.92 792.74 138.03 885.64 138.03 885.64 141.27"/>
        <rect class="cls-1" x="806.5" y="119.35" width="9.67" height="20.3"/>
        <rect class="cls-1" x="826.33" y="101.43" width="9.67" height="38.54"/>
        <rect class="cls-1" x="846.15" y="109.68" width="9.67" height="29.97"/>
        <rect class="cls-1" x="865.98" y="90.01" width="9.67" height="49.64"/>
        <polygon class="cls-1" points="799.57 123.82 797.26 122.18 812.62 100.41 832.47 118.59 852.14 91.97 858.06 94.1 879.15 75.47 881.03 77.59 858.67 97.34 853.17 95.35 832.88 122.81 813.08 104.67 799.57 123.82"/>
      </g>
      <g>
        <path class="cls-1" d="M141.2,91.8c0,2.1-1.7,3.8-3.8,3.8s-3.8-1.7-3.8-3.8,1.7-3.8,3.8-3.8,3.8,1.7,3.8,3.8Z"/>
        <path class="cls-1" d="M142.74,79.46c0,1.32-1.07,2.39-2.39,2.39s-2.39-1.07-2.39-2.39,1.07-2.39,2.39-2.39c1.32,0,2.39,1.07,2.39,2.39Z"/>
        <g>
          <path class="cls-1" d="M122.69,77.14v35.01c-1.48,1.2-3.25,2.16-5.35,2.8-.61.19-1.24.35-1.9.48,0,0-2.22-2.52-3.64-6.86-2.24-6.84-2.52-18.21,10.89-31.43Z"/>
          <path class="cls-1" d="M126.99,73.6h-.43c.11-.1.23-.2.34-.29,0,0,.03.1.08.29Z"/>
          <path class="cls-1" d="M116.71,122.09s-19-29.22-48.54-18.53c0,0,15.38,30.51,48.54,18.53Z"/>
          <path class="cls-1" d="M93.27,80.14s19.98,11.63,14.9,24.96c0,0-21.49-3.03-14.9-24.96Z"/>
          <path class="cls-1" d="M122.69,120.69v12.92c-2.84-2.72-5.53-6.63-7.93-10.85-1.44-2.54-2.78-5.19-3.98-7.75-1.79-3.82-3.27-7.46-4.36-10.28-1.28-3.34-2.01-5.54-2.01-5.54,1.32,1.79,2.66,3.53,3.99,5.21,1.14,1.43,2.27,2.83,3.39,4.17,1.9,2.27,3.76,4.41,5.54,6.38,1.9,2.11,3.71,4.03,5.35,5.74Z"/>
        </g>
        <g>
          <path class="cls-1" d="M125.3,72.77v71.43c0,9.28,7.55,16.83,16.83,16.83s16.83-7.55,16.83-16.83v-71.43h-33.66ZM157.26,144.2c0,8.35-6.79,15.14-15.14,15.14s-15.14-6.79-15.14-15.14v-69.74h30.27v69.74h0Z"/>
          <path class="cls-1" d="M155.57,96.47v47.73c0,7.42-6.02,13.44-13.44,13.44s-13.44-6.02-13.44-13.44v-47.73l.98.21c3.76.82,7.66.67,11.35-.43,2.12-.64,4.32-.96,6.51-.96,1.52,0,3.04.15,4.55.46l3.5.72Z"/>
          <path class="cls-1" d="M148.59,86.34c0,1.44-1.17,2.61-2.61,2.61s-2.61-1.17-2.61-2.61,1.17-2.61,2.61-2.61c1.44,0,2.61,1.17,2.61,2.61Z"/>
          <path class="cls-1" d="M160.05,74.75h-35.83c-1.91,0-3.45-1.55-3.45-3.45v-1.06c0-1.91,1.55-3.45,3.45-3.45h35.83c1.91,0,3.45,1.55,3.45,3.45v1.06c0,1.91-1.55,3.45-3.45,3.45Z"/>
        </g>
      </g>
      <g>
        <path class="cls-1" d="M443,310.01s-.08.03-.12.05h0s.08-.03.12-.05Z"/>
        <path class="cls-1" d="M521.12,310.06l-28.98-3.71-26.43-30.63h-29.86v4.94h-4.23v23.2h4.23v3.76h-.61c-2.62,0-4.74,2.12-4.74,4.74v5.45h2.67c.79-1.15,1.69-2.21,2.68-3.18.02-.02.04-.04.06-.06.07-.07.14-.13.21-.2.07-.07.14-.13.21-.2.11-.1.22-.2.33-.3.09-.08.17-.15.26-.22.04-.03.07-.06.11-.09.08-.07.17-.14.26-.21.06-.05.12-.09.17-.14.07-.06.15-.12.22-.17.05-.04.1-.08.15-.12.09-.07.19-.14.28-.21.04-.03.08-.06.12-.08.09-.07.18-.13.27-.2.05-.04.1-.07.15-.1.09-.06.19-.13.28-.19.12-.08.24-.16.36-.23.13-.08.26-.17.39-.24,0,0,.01,0,.01,0,.13-.08.26-.15.39-.23.03-.02.06-.03.09-.05.11-.06.22-.12.33-.18.04-.02.09-.05.13-.07.09-.05.18-.1.28-.15.08-.04.17-.09.25-.13.02-.01.04-.02.06-.03.12-.06.24-.12.36-.17.07-.04.15-.07.22-.1.09-.04.17-.08.26-.12.05-.02.09-.04.14-.06.11-.05.22-.1.33-.14.12-.05.24-.1.36-.14h0s.08-.03.12-.05c.14-.06.29-.11.43-.16.1-.04.21-.08.31-.11.13-.04.25-.09.38-.13.12-.04.24-.08.36-.11.02,0,.05-.02.08-.02.14-.04.28-.09.43-.12.01,0,.02,0,.03,0,.15-.04.31-.09.46-.12.03,0,.06-.02.09-.02.14-.04.27-.07.41-.1.04,0,.08-.02.11-.02.14-.03.27-.06.41-.09.39-.08.79-.15,1.19-.2.12-.02.25-.04.37-.05.16-.02.33-.04.49-.06.15-.02.3-.03.45-.04.21-.02.42-.03.63-.04.15,0,.3-.01.45-.02.22,0,.43-.01.65-.01,11.77,0,21.32,9.54,21.32,21.32,0,.3,0,.6-.02.9,0,.06,0,.13,0,.19,0,.18-.02.36-.03.54,0,.11-.02.21-.03.32,0,.09-.02.18-.03.27-.03.34-.08.68-.13,1.02-.02.12-.04.24-.06.35-.01.08-.03.16-.04.23-.04.24-.09.48-.14.72-.02.11-.05.23-.08.34-.01.04-.02.08-.03.13-.03.13-.06.26-.1.4-.01.04-.02.08-.03.12-.03.14-.07.27-.11.41,0,.02-.01.04-.02.06-.04.16-.09.31-.14.47,0,.01,0,.02-.01.04-.04.14-.09.29-.14.43-.02.06-.04.11-.06.17-.04.12-.08.23-.13.35-.01.03-.02.06-.03.08-.06.15-.11.3-.18.45-.06.15-.12.31-.19.46,0,.01-.01.02-.01.03h40.75c.82-5.34,5.43-9.43,11.01-9.43,2.39,0,4.61.76,6.43,2.04v-11.12l-7.37-9.79ZM488.91,310.84l-16.93-7.45h-32.68v-23.98h26.23l27.25,31.43h-3.87Z"/>
        <path class="cls-1" d="M450.75,310.84c-10.52,0-19.04,8.53-19.04,19.04s8.53,19.04,19.04,19.04,19.04-8.53,19.04-19.04-8.53-19.04-19.04-19.04ZM450.75,338.03c-4.5,0-8.15-3.65-8.15-8.15s3.65-8.15,8.15-8.15,8.15,3.65,8.15,8.15-3.65,8.15-8.15,8.15Z"/>
        <path class="cls-1" d="M522.06,331c-5,0-9.06,4.06-9.06,9.06s4.06,9.06,9.06,9.06,9.06-4.06,9.06-9.06-4.06-9.06-9.06-9.06ZM522.06,342.98c-1.61,0-2.92-1.31-2.92-2.92s1.31-2.92,2.92-2.92,2.92,1.31,2.92,2.92c0,1.61-1.31,2.92-2.92,2.92Z"/>
        <path class="cls-1" d="M443,310.01s-.08.03-.12.05h0s.08-.03.12-.05Z"/>
        <path class="cls-1" d="M453.96,329.88c0,1.78-1.44,3.21-3.21,3.21s-3.21-1.44-3.21-3.21,1.44-3.21,3.21-3.21,3.21,1.44,3.21,3.21Z"/>
        <path class="cls-1" d="M523.53,340.06c0,.74-.6,1.34-1.34,1.34s-1.34-.6-1.34-1.34.6-1.34,1.34-1.34,1.34.6,1.34,1.34Z"/>
        <rect class="cls-1" x="505.29" y="296.18" width="2.98" height="14.66"/>
        <g>
          <path class="cls-1" d="M514.52,282.27c-3.37-1.94-7.25-2.17-10.65-.95-1.08.39-1.58,1.63-1.07,2.65l.07.15c.43.84,1.42,1.26,2.31.94,2.35-.85,5.04-.69,7.36.65,2.3,1.33,3.76,3.53,4.22,5.95.17.92,1.03,1.56,1.96,1.51h.16c1.15-.07,1.98-1.14,1.76-2.27-.67-3.5-2.81-6.7-6.13-8.62Z"/>
          <path class="cls-1" d="M517.88,276.9c-5.37-3.1-11.62-3.29-16.92-1.06-1.01.42-1.44,1.63-.95,2.6h0c.45.89,1.5,1.27,2.42.89,4.17-1.71,9.06-1.54,13.26.89,4.17,2.41,6.76,6.52,7.39,10.95.14.98,1,1.69,1.98,1.64l.36-.02c1.11-.06,1.94-1.05,1.78-2.15-.82-5.56-4.08-10.71-9.33-13.74Z"/>
          <path class="cls-1" d="M520.75,271.27c-7.23-4.17-15.67-4.39-22.78-1.29-1,.43-1.42,1.62-.93,2.59l.07.15c.45.9,1.52,1.29,2.44.89,6.01-2.6,13.12-2.43,19.21,1.09,6.1,3.52,9.81,9.6,10.56,16.1.11.99.99,1.72,1.99,1.67h.17c1.09-.07,1.91-1.03,1.78-2.11-.88-7.71-5.28-14.91-12.52-19.09Z"/>
          <path class="cls-1" d="M520.75,271.27c-7.23-4.17-15.67-4.39-22.78-1.29-1,.43-1.42,1.62-.93,2.59l.07.15c.45.9,1.52,1.29,2.44.89,6.01-2.6,13.12-2.43,19.21,1.09,6.1,3.52,9.81,9.6,10.56,16.1.11.99.99,1.72,1.99,1.67h.17c1.09-.07,1.91-1.03,1.78-2.11-.88-7.71-5.28-14.91-12.52-19.09Z"/>
          <path class="cls-1" d="M513.67,296c-1.68,3.38-5.92,4.52-9.06,2.43-2.59-1.72-3.51-5.16-2.13-7.95,1.68-3.38,5.92-4.52,9.06-2.43,2.59,1.72,3.51,5.16,2.13,7.95Z"/>
          <path class="cls-1" d="M518.88,293.16h-.16c-.94.06-1.79-.58-1.96-1.5-.46-2.41-1.93-4.63-4.22-5.95-2.32-1.34-5.01-1.5-7.36-.65-.89.32-1.88-.1-2.31-.94l-.07-.15c-.52-1.02-.02-2.26,1.07-2.65,3.4-1.22,7.29-.99,10.65.95,3.32,1.92,5.45,5.12,6.13,8.62.22,1.13-.61,2.2-1.76,2.26Z"/>
          <path class="cls-1" d="M525.43,292.79l-.36.02c-.99.05-1.84-.66-1.98-1.64-.64-4.43-3.22-8.54-7.39-10.95-4.2-2.42-9.09-2.6-13.26-.89-.92.38-1.97,0-2.42-.89h0c-.49-.98-.07-2.18.95-2.6,5.3-2.23,11.55-2.04,16.92,1.06,5.25,3.03,8.51,8.18,9.33,13.74.16,1.1-.67,2.09-1.78,2.15Z"/>
          <path class="cls-1" d="M531.49,292.46h-.17c-1,.07-1.87-.67-1.99-1.66-.75-6.5-4.46-12.58-10.56-16.1-6.09-3.52-13.2-3.69-19.21-1.09-.92.4-1.99,0-2.44-.89l-.07-.15c-.49-.97-.07-2.16.93-2.59,7.11-3.09,15.54-2.89,22.78,1.29,7.24,4.18,11.64,11.38,12.52,19.09.12,1.08-.7,2.04-1.78,2.1Z"/>
        </g>
      </g>
      <g>
        <path class="cls-1" d="M304.9,581.48c5.57,0,10.08,4.52,10.08,10.08v61.89c2.67,2.61,4.32,6.26,4.32,10.29,0,7.96-6.45,14.41-14.41,14.41-.07,0-.14,0-.2,0-7.82-.11-14.17-6.53-14.2-14.35-.02-4.05,1.64-7.71,4.32-10.34v-61.89c0-5.57,4.51-10.08,10.08-10.08h0ZM304.9,577.8c-3.68,0-7.13,1.43-9.73,4.03-2.6,2.6-4.03,6.06-4.03,9.73v60.44c-1.19,1.39-2.15,2.94-2.88,4.64-.97,2.27-1.46,4.68-1.45,7.16.02,4.75,1.88,9.24,5.24,12.64,3.36,3.4,7.84,5.31,12.59,5.38.09,0,.17,0,.26,0,4.83,0,9.37-1.88,12.79-5.3,3.42-3.42,5.3-7.96,5.3-12.79,0-2.47-.49-4.87-1.46-7.12-.72-1.68-1.68-3.22-2.86-4.61v-60.44c0-3.68-1.43-7.13-4.03-9.73-2.6-2.6-6.06-4.03-9.73-4.03h0Z"/>
        <path class="cls-1" d="M311.05,655.09v-44.79c0-3.53-2.86-6.39-6.39-6.39h0c-3.53,0-6.39,2.86-6.39,6.39v45.12c-2.71,2.03-4.47,5.26-4.47,8.9,0,6.12,4.98,11.1,11.1,11.1s11.1-4.98,11.1-11.1c0-3.84-1.96-7.24-4.94-9.23ZM304.9,670.51c-3.41,0-6.19-2.78-6.19-6.19s2.78-6.19,6.19-6.19,6.19,2.78,6.19,6.19c0,3.41-2.78,6.19-6.19,6.19Z"/>
        <path class="cls-1" d="M324.58,648.68h-6.56c-1.02,0-1.84-.82-1.84-1.84s.82-1.84,1.84-1.84h6.56c1.02,0,1.84.82,1.84,1.84s-.82,1.84-1.84,1.84Z"/>
        <path class="cls-1" d="M324.58,640.23h-6.56c-1.02,0-1.84-.82-1.84-1.84s.82-1.84,1.84-1.84h6.56c1.02,0,1.84.82,1.84,1.84s-.82,1.84-1.84,1.84Z"/>
        <path class="cls-1" d="M328.81,631.78h-10.79c-1.02,0-1.84-.82-1.84-1.84s.82-1.84,1.84-1.84h10.79c1.02,0,1.84.82,1.84,1.84s-.82,1.84-1.84,1.84Z"/>
        <path class="cls-1" d="M324.58,623.32h-6.56c-1.02,0-1.84-.82-1.84-1.84s.82-1.84,1.84-1.84h6.56c1.02,0,1.84.82,1.84,1.84s-.82,1.84-1.84,1.84Z"/>
        <path class="cls-1" d="M324.58,614.87h-6.56c-1.02,0-1.84-.82-1.84-1.84s.82-1.84,1.84-1.84h6.56c1.02,0,1.84.82,1.84,1.84s-.82,1.84-1.84,1.84Z"/>
        <path class="cls-1" d="M328.81,606.42h-10.79c-1.02,0-1.84-.82-1.84-1.84s.82-1.84,1.84-1.84h10.79c1.02,0,1.84.82,1.84,1.84s-.82,1.84-1.84,1.84Z"/>
        <path class="cls-1" d="M324.58,597.97h-6.56c-1.02,0-1.84-.82-1.84-1.84s.82-1.84,1.84-1.84h6.56c1.02,0,1.84.82,1.84,1.84s-.82,1.84-1.84,1.84Z"/>
        <path class="cls-1" d="M285.28,602.77c5.03,0,8.96-3.2,7.69-9.12-1.28-5.99-6.87-15.15-7.69-16.48-.83,1.33-6.41,10.5-7.69,16.48-1.27,5.91,2.67,9.12,7.69,9.12ZM279.19,593.63c.14-.39.56-.59.94-.45s.59.56.46.94c0,.02-.7,2.09.12,3.53.41.71,1.12,1.16,2.17,1.38.4.08.66.47.58.87-.07.35-.38.59-.73.59-.05,0-.1,0-.15-.02-1.48-.3-2.54-1.01-3.17-2.1-1.16-2.04-.27-4.64-.23-4.75Z"/>
        <path class="cls-1" d="M269.42,613.3c5.03,0,8.96-3.2,7.69-9.12-1.28-5.99-6.87-15.15-7.69-16.48-.83,1.33-6.41,10.5-7.69,16.48-1.27,5.91,2.67,9.12,7.69,9.12ZM263.32,604.16c.14-.39.56-.59.94-.45s.59.56.46.94c0,.02-.7,2.09.12,3.53.41.71,1.12,1.16,2.17,1.38.4.08.66.47.58.87-.07.35-.38.59-.73.59-.05,0-.1,0-.15-.02-1.48-.3-2.54-1.01-3.17-2.1-1.16-2.04-.27-4.64-.23-4.75Z"/>
        <path class="cls-1" d="M283.48,624.99c3.55,0,6.33-2.27,5.44-6.45-.91-4.23-4.86-10.71-5.44-11.66-.58.94-4.53,7.42-5.44,11.66-.9,4.18,1.89,6.45,5.44,6.45ZM279.17,618.52c.09-.27.39-.42.67-.32s.42.39.32.67c0,.02-.5,1.47.09,2.5.29.5.79.82,1.53.97.28.06.47.33.41.62-.05.25-.27.42-.51.42-.03,0-.07,0-.1-.01-1.05-.21-1.8-.71-2.24-1.49-.82-1.44-.19-3.28-.16-3.36Z"/>
      </g>
      <g>
        <path class="cls-1" d="M672.4,465.93h-11.54l-.92-24h36.93s-9.49-40.43-9.49-40.43h-29.06s-29.06,0-29.06,0l-9.49,40.42h36.93s-.92,24.01-.92,24.01h-11.54c-1.67,0-3.02,1.35-3.02,3.02v.74h34.2v-.74c0-1.67-1.35-3.02-3.02-3.02ZM673.35,413.97l.64,4.61h-6.78l-.41-4.61h6.56ZM666.73,413.4l-.41-4.61h6.32l.64,4.61h-6.54ZM676.15,428.93l-.64-4.61h7.81l.97,4.61h-8.14ZM684.41,429.49l.97,4.61h-8.52l-.64-4.61h8.19ZM675.44,423.75l-.64-4.61h7.44l.97,4.61h-7.77ZM674.72,418.58l-.64-4.61h7.07l.97,4.61h-7.4ZM674.01,413.4l-.64-4.61h6.7l.97,4.61h-7.03ZM674.06,419.14l.64,4.61h-7.03l-.41-4.61h6.81ZM674.78,424.32l.64,4.61h-7.28l-.42-4.61h7.06ZM675.49,429.49l.64,4.61h-7.53l-.42-4.61h7.31ZM669.09,439.58l-.44-4.91h7.55l.68,4.91h-7.79ZM677.62,439.58l-.68-4.91h8.56l1.03,4.91h-8.91ZM694.21,439.58h-6.94l-1.03-4.91h6.8l1.17,4.91ZM692.91,434.1h-6.78l-.97-4.61h6.65l1.1,4.61ZM691.67,428.93h-6.63l-.97-4.61h6.5l1.1,4.61ZM690.44,423.75h-6.48l-.97-4.61h6.35l1.1,4.61ZM689.2,418.58h-6.33l-.97-4.61h6.2l1.1,4.61ZM687.97,413.4h-6.19l-.97-4.61h6.06l1.1,4.61ZM685.54,403.19l1.2,5.04h-6.04l-1.06-5.04h5.89ZM678.9,403.19l1.06,5.04h-6.66l-.69-5.04h6.29ZM671.86,403.19l.69,5.04h-6.29l-.45-5.04h6.05ZM658.96,403.19h6.11l.45,5.04h-6.57v-5.04h0ZM658.96,408.8h6.62l.41,4.61h-7.03v-4.61h0ZM658.96,413.97h7.09l.41,4.61h-7.5v-4.61ZM658.96,419.14h7.55l.41,4.61h-7.97v-4.61h0ZM658.96,424.32h8.02l.41,4.61h-8.43v-4.61ZM658.96,429.49h8.48l.42,4.61h-8.9v-4.61h0ZM658.96,434.67h8.95l.44,4.91h-9.39v-4.91h0ZM632.34,428.93l.97-4.61h7.81l-.64,4.61h-8.14ZM640.4,429.49l-.64,4.61h-8.52l.97-4.61h8.18ZM633.42,423.75l.97-4.61h7.44l-.64,4.61h-7.77ZM649.65,424.32h8.02v4.61h-8.43l.41-4.61ZM648.96,423.75h-7.03l.64-4.61h6.81l-.42,4.61ZM649.7,423.75l.41-4.61h7.55v4.61h-7.97ZM650.17,418.58l.41-4.61h7.09v4.61h-7.5ZM649.9,413.4h-6.54l.64-4.61h6.32l-.42,4.61ZM649.84,413.97l-.41,4.61h-6.78l.64-4.61h6.56ZM642.62,413.4h-7.03l.97-4.61h6.7l-.64,4.61ZM642.54,413.97l-.64,4.61h-7.4l.97-4.61h7.07ZM641.85,424.32h7.06l-.41,4.61h-7.28l.63-4.61ZM649.18,429.49h8.48v4.61h-8.9l.42-4.61ZM651.55,403.19h6.11v5.04h-6.57l.45-5.04ZM657.67,408.8v4.61h-7.03l.41-4.61h6.62ZM644.77,403.19h6.05l-.45,5.04h-6.29l.7-5.04ZM644.03,403.19l-.7,5.04h-6.66l1.06-5.04h6.29ZM631.09,403.19h5.9l-1.06,5.04h-6.04l1.2-5.04ZM629.76,408.8h6.05l-.97,4.61h-6.19l1.1-4.61ZM628.52,413.97h6.2l-.97,4.61h-6.34l1.1-4.61ZM627.29,419.14h6.35l-.97,4.61h-6.48l1.1-4.61ZM626.06,424.32h6.5l-.97,4.61h-6.63l1.1-4.61ZM624.82,429.49h6.65l-.97,4.61h-6.78l1.1-4.61ZM622.42,439.58l1.17-4.91h6.8l-1.03,4.91h-6.94ZM639.01,439.58h-8.91l1.03-4.91h8.56l-.68,4.91ZM647.54,439.58h-7.79l.68-4.91h7.55l-.44,4.91ZM640.51,434.1l.64-4.61h7.3l-.41,4.61h-7.53ZM648.72,434.67h8.95v4.91h-9.39l.44-4.91Z"/>
        <g>
          <polygon class="cls-1" points="665.97 383.32 665.47 381.89 663.64 383.73 664.35 385.06 666.55 385.79 667.68 387.84 669.89 388.56 671.02 390.61 673.22 391.33 674.3 392.73 673.56 391.12 671.52 389.99 670.79 387.79 668.74 386.66 668.02 384.46 665.97 383.32"/>
          <path class="cls-1" d="M667.21,376.44c0,4.85-3.93,8.79-8.78,8.79s-8.78-3.93-8.78-8.79,3.93-8.78,8.78-8.78,8.78,3.93,8.78,8.78Z"/>
          <polygon class="cls-1" points="665.97 383.32 665.47 381.89 663.64 383.73 664.35 385.06 666.55 385.79 667.68 387.84 669.89 388.56 671.02 390.61 673.22 391.33 674.3 392.73 673.56 391.12 671.52 389.99 670.79 387.79 668.74 386.66 668.02 384.46 665.97 383.32"/>
          <path class="cls-1" d="M679.48,376.04l-2.25.65-2.07-1.04-2.25.65-2.07-1.04-2.25.65-.96-.46c.04.33.06.67.06,1.01,0,.51-.04,1.01-.12,1.49l1.11.33,2.07-1.04,2.25.65,2.07-1.04,2.25.65,2.07-1.04,1.76.22-1.66-.62Z"/>
          <path class="cls-1" d="M673.56,391.12l-2.05-1.13-.73-2.2-2.05-1.13-.73-2.2-2.05-1.13-.36-1.03c-.53.65-1.15,1.22-1.83,1.71l.57,1.07,2.2.73,1.13,2.05,2.2.73,1.13,2.05,2.2.72,1.08,1.4-.74-1.61Z"/>
          <path class="cls-1" d="M658.86,386.72l.52-1.07c-.31.03-.63.05-.95.05-.53,0-1.06-.05-1.57-.14l-.37,1.24,1.04,2.07-.65,2.25,1.04,2.07-.65,2.25,1.04,2.07-.22,1.76.62-1.66-.65-2.25,1.04-2.07-.65-2.25,1.04-2.07-.65-2.25Z"/>
          <path class="cls-1" d="M650.9,381.83l-1.2.65-.73,2.2-2.05,1.13-.73,2.2-2.05,1.13-.72,2.2-1.4,1.09,1.61-.74,1.13-2.05,2.2-.73,1.13-2.05,2.2-.73,1.13-2.05,1.21-.42c-.67-.53-1.25-1.15-1.75-1.84Z"/>
          <path class="cls-1" d="M649.17,376.44c0-.48.04-.96.11-1.43l-1.33-.4-2.07,1.04-2.25-.65-2.07,1.04-2.25-.65-2.07,1.04-1.76-.22,1.66.62,2.25-.65,2.07,1.04,2.25-.65,2.07,1.04,2.25-.65,1.2.58c-.05-.37-.07-.75-.07-1.13Z"/>
          <path class="cls-1" d="M651.09,370.8c.52-.68,1.14-1.28,1.82-1.79l-.64-1.18-2.2-.73-1.13-2.05-2.2-.73-1.13-2.05-2.2-.72-1.09-1.4.74,1.61,2.05,1.13.73,2.2,2.05,1.13.73,2.2,2.05,1.13.43,1.23Z"/>
          <path class="cls-1" d="M657.77,366.17l-.53,1.1c.39-.05.79-.08,1.19-.08.46,0,.91.03,1.35.1l.36-1.2-1.04-2.07.65-2.25-1.04-2.07.65-2.25-1.04-2.07.22-1.76-.62,1.66.65,2.25-1.04,2.07.65,2.25-1.04,2.07.65,2.25Z"/>
          <path class="cls-1" d="M672.99,361.19l-1.13,2.05-2.2.73-1.13,2.05-2.2.73-1.13,2.05-1.06.37c.66.52,1.25,1.13,1.75,1.81l1.04-.56.73-2.2,2.05-1.13.73-2.2,2.05-1.13.72-2.2,1.4-1.09-1.61.74Z"/>
        </g>
      </g>
    </g>
  </g>
</svg>