<?xml version="1.0" encoding="UTF-8"?>
<svg xmlns="http://www.w3.org/2000/svg" viewBox="0 0 800 800">
  <defs>
    <style>
      .cls-1 {
        isolation: isolate;
      }

      .cls-2 {
        fill: #9fe870;
        mix-blend-mode: hard-light;
        opacity: .97;
      }

      .cls-2, .cls-3 {
        fill-rule: evenodd;
      }

      .cls-3 {
        fill: #163300;
        mix-blend-mode: color-dodge;
      }
    </style>
  </defs>
  <g class="cls-1">
    <g id="Layer_2" data-name="Layer 2">
      <g id="_Ñëîé_4" data-name="Ñëîé 4">
        <g id="_Ñëîé_8" data-name="Ñëîé 8">
          <path class="cls-3" d="M99.3,614.67c0-17.97-1.85-42.25-17.76-45.61-1.06-.22-2.15-.34-3.25-.34-2.58,0-5.24.61-7.93,1.82-7.29,3.28-12.19,7.32-16.51,10.88-5.92,4.88-10.6,8.73-19.74,8.73-2.06,0-4.35-.19-6.8-.58C8.44,586.65,0,569.71,0,554.21c0-15.49,8.44-32.44,27.31-35.38,2.45-.38,4.74-.57,6.8-.57,9.14,0,13.81,3.85,19.74,8.73,4.32,3.56,9.22,7.6,16.51,10.88,2.68,1.21,5.35,1.82,7.93,1.82,1.1,0,2.2-.11,3.25-.34,15.92-3.36,17.76-27.64,17.76-45.61v-86.04s86.03,0,86.03,0c17.97,0,42.25-1.85,45.61-17.76.75-3.56.25-7.32-1.48-11.18-3.28-7.29-7.32-12.19-10.88-16.51-6.22-7.55-10.34-12.54-8.16-26.53,2.94-18.86,19.88-27.31,35.38-27.31s32.43,8.44,35.37,27.3c2.18,13.99-1.94,18.98-8.16,26.54-3.57,4.33-7.6,9.22-10.88,16.52-1.73,3.86-2.23,7.62-1.48,11.18,3.36,15.92,27.64,17.76,45.61,17.76h86.04s0,86.57,0,86.57c.05,22.64-3.73,28.19-4.89,29.35-.52.52-.83.52-1,.52-.24,0-.65-.06-1.29-.35-4.99-2.24-8.7-5.26-12.64-8.45-2.39-1.94-4.86-3.94-7.73-5.87-6.76-4.56-13.76-6.68-22.03-6.68-2.88,0-5.95.26-9.36.79-27.85,4.33-40.32,28.55-40.32,50.62,0,22.07,12.47,46.29,40.32,50.62,3.41.53,6.47.79,9.35.79,8.28,0,15.28-2.12,22.03-6.68,2.87-1.94,5.34-3.94,7.72-5.87,3.93-3.19,7.65-6.2,12.64-8.45.64-.29,1.06-.35,1.29-.35.17,0,.48,0,1,.52,1.16,1.16,4.94,6.72,4.89,29.37v86.55s-87.44,0-87.44,0c-18.74,0-27.23-2.85-28.82-5.3-.13-.2-.4-.62.17-1.88,2.24-4.98,5.25-8.7,8.44-12.63,1.94-2.39,3.94-4.86,5.88-7.73,6.14-9.1,7.9-18.49,5.89-31.39-4.33-27.85-28.54-40.32-50.62-40.32s-46.29,12.47-50.62,40.32c-2.01,12.9-.25,22.29,5.89,31.39,1.93,2.86,3.93,5.32,5.86,7.7,3.21,3.95,6.22,7.67,8.46,12.66.57,1.26.3,1.68.17,1.88-1.58,2.45-10.08,5.3-28.84,5.3h-87.42s0-86.03,0-86.03Z"/>
          <path class="cls-3" d="M554.21,491.58c-15.49,0-32.44-8.44-35.37-27.3-2.18-13.99,1.93-18.98,8.16-26.54,3.56-4.32,7.6-9.22,10.88-16.51,1.74-3.86,2.23-7.62,1.48-11.18-3.36-15.91-27.64-17.76-45.61-17.76h-86.03s0-86.56,0-86.56c-.05-22.64,3.73-28.19,4.89-29.35.52-.52.83-.52,1-.52.24,0,.65.06,1.29.35,4.98,2.24,8.7,5.25,12.63,8.45,2.39,1.94,4.85,3.94,7.72,5.87,6.76,4.56,13.76,6.68,22.03,6.68,2.89,0,5.95-.26,9.36-.79,27.85-4.33,40.32-28.54,40.32-50.61,0-22.08-12.46-46.29-40.32-50.62-3.41-.53-6.47-.79-9.36-.79-8.27,0-15.27,2.12-22.03,6.68-2.87,1.94-5.34,3.94-7.73,5.88-3.93,3.19-7.65,6.2-12.63,8.45-.64.29-1.06.35-1.29.35-.17,0-.48,0-1-.52-1.16-1.16-4.94-6.71-4.89-29.36v-86.56h87.41c18.76,0,27.27,2.85,28.85,5.3.13.2.4.62-.17,1.88-2.24,4.98-5.26,8.7-8.45,12.64-1.95,2.4-3.95,4.87-5.88,7.73-6.14,9.09-7.9,18.48-5.89,31.39,4.33,27.85,28.54,40.32,50.62,40.32,22.08,0,46.29-12.47,50.62-40.32,2.01-12.9.25-22.29-5.89-31.39-1.93-2.86-3.93-5.33-5.87-7.72-3.2-3.94-6.21-7.66-8.45-12.64-.57-1.26-.3-1.68-.17-1.88,1.58-2.45,10.08-5.3,28.82-5.3h87.44s0,86.04,0,86.04c0,17.97,1.85,42.25,17.76,45.61,1.06.22,2.15.34,3.25.34,2.58,0,5.24-.61,7.93-1.82,7.29-3.28,12.19-7.32,16.51-10.88,5.93-4.88,10.6-8.74,19.74-8.74,2.06,0,4.35.19,6.8.58,18.86,2.93,27.31,19.88,27.31,35.38,0,15.49-8.44,32.43-27.3,35.36-2.45.38-4.74.58-6.8.58-9.14,0-13.81-3.85-19.73-8.73-4.32-3.56-9.22-7.6-16.51-10.88-2.69-1.21-5.35-1.82-7.93-1.82-1.1,0-2.2.11-3.26.34-15.92,3.36-17.76,27.64-17.76,45.61v86.04h-86.04c-10.35,0-41.87,0-45.61,17.77-.75,3.55-.25,7.31,1.48,11.17,3.28,7.29,7.32,12.19,10.88,16.51,6.23,7.55,10.34,12.54,8.16,26.54-2.93,18.86-19.88,27.3-35.37,27.3Z"/>
          <path class="cls-2" d="M554.21,800c-15.49,0-32.43-8.44-35.37-27.31-2.18-13.99,1.94-18.98,8.16-26.54,3.56-4.32,7.6-9.22,10.88-16.51,1.73-3.86,2.23-7.62,1.48-11.18-3.36-15.91-27.64-17.76-45.61-17.76h-86.03s0-86.03,0-86.03c0-17.97-1.84-42.25-17.76-45.61-1.06-.22-2.15-.34-3.26-.34-2.57,0-5.24.61-7.93,1.82-7.29,3.28-12.19,7.32-16.51,10.88-5.93,4.88-10.6,8.74-19.74,8.74-2.06,0-4.35-.19-6.8-.58-18.86-2.93-27.31-19.88-27.31-35.37,0-15.5,8.44-32.44,27.31-35.38,2.45-.38,4.73-.57,6.8-.57,9.14,0,13.82,3.85,19.74,8.74,4.32,3.56,9.22,7.6,16.51,10.88,2.69,1.21,5.35,1.82,7.92,1.82,1.1,0,2.2-.11,3.25-.34,15.93-3.36,17.76-27.64,17.76-45.61v-86.04h87.41c18.76,0,27.26,2.85,28.84,5.3.13.2.4.62-.17,1.88-2.24,4.99-5.26,8.7-8.45,12.64-1.94,2.39-3.94,4.86-5.87,7.72-6.14,9.1-7.9,18.48-5.89,31.39,4.33,27.85,28.55,40.32,50.62,40.32s46.29-12.47,50.62-40.32c2-12.9.24-22.29-5.89-31.39-1.93-2.87-3.94-5.34-5.87-7.72-3.2-3.95-6.21-7.66-8.45-12.64-.57-1.26-.3-1.68-.17-1.88,1.58-2.45,10.08-5.3,28.84-5.3h87.42s0,86.56,0,86.56c.05,22.65-3.73,28.2-4.89,29.36-.52.52-.83.52-1,.52-.24,0-.65-.06-1.29-.35-4.99-2.25-8.7-5.26-12.63-8.45-2.39-1.94-4.86-3.94-7.73-5.88-6.76-4.56-13.75-6.68-22.03-6.68-2.88,0-5.94.26-9.36.79-27.85,4.33-40.32,28.54-40.32,50.62s12.47,46.29,40.32,50.62c3.41.53,6.47.79,9.36.79,8.28,0,15.28-2.12,22.03-6.68,2.86-1.93,5.33-3.94,7.72-5.87,3.94-3.19,7.65-6.21,12.64-8.45.64-.29,1.06-.35,1.29-.35.17,0,.48,0,1,.52,1.16,1.16,4.93,6.71,4.89,29.34v86.57s-86.04,0-86.04,0c-17.97,0-42.25,1.84-45.61,17.76-.75,3.56-.25,7.32,1.48,11.18,3.28,7.29,7.31,12.19,10.87,16.51,6.23,7.56,10.34,12.55,8.16,26.54-2.93,18.86-19.88,27.3-35.37,27.31h0Z"/>
          <path class="cls-2" d="M304.87,392.29c-18.76,0-27.27-2.86-28.85-5.3-.13-.2-.4-.62.17-1.88,2.24-4.99,5.26-8.7,8.45-12.64,1.95-2.4,3.94-4.86,5.87-7.72,6.14-9.09,7.9-18.48,5.9-31.39-4.33-27.85-28.54-40.32-50.62-40.32s-46.29,12.47-50.62,40.32c-2.01,12.91-.24,22.29,5.89,31.39,1.93,2.86,3.93,5.32,5.86,7.71,3.21,3.95,6.22,7.67,8.47,12.66.57,1.26.3,1.68.17,1.88-1.58,2.44-10.07,5.3-28.79,5.3h-87.47s0-86.57,0-86.57c-.04-22.63,3.73-28.18,4.89-29.34.52-.52.83-.52,1-.52.24,0,.65.06,1.29.35,4.98,2.24,8.7,5.26,12.63,8.45,2.39,1.94,4.86,3.94,7.73,5.87,6.76,4.56,13.76,6.68,22.04,6.68,2.89,0,5.95-.26,9.35-.79,27.85-4.33,40.32-28.55,40.32-50.62s-12.47-46.29-40.32-50.62c-3.41-.53-6.47-.79-9.36-.79-8.27,0-15.27,2.12-22.03,6.68-2.86,1.93-5.33,3.93-7.72,5.87-3.94,3.19-7.66,6.21-12.64,8.45-.64.29-1.06.35-1.29.35-.17,0-.48,0-1-.52-1.16-1.16-4.94-6.71-4.89-29.36v-86.56s86.03,0,86.03,0c17.97,0,42.25-1.84,45.61-17.76.75-3.56.25-7.32-1.48-11.18-3.28-7.29-7.32-12.19-10.88-16.51-6.23-7.56-10.34-12.55-8.16-26.54,2.94-18.86,19.88-27.31,35.38-27.31s32.43,8.44,35.37,27.3c2.18,13.99-1.93,18.98-8.16,26.53-3.56,4.32-7.6,9.22-10.88,16.52-1.73,3.86-2.23,7.62-1.48,11.18,3.36,15.92,27.64,17.76,45.61,17.76h86.04s0,86.04,0,86.04c0,10.35,0,41.86,17.77,45.61,1.06.22,2.15.34,3.25.34,2.57,0,5.24-.61,7.92-1.82,7.29-3.28,12.19-7.32,16.51-10.88,5.92-4.88,10.6-8.74,19.74-8.74,2.06,0,4.35.19,6.8.57,18.86,2.93,27.31,19.88,27.31,35.38,0,15.49-8.44,32.43-27.3,35.36-2.45.38-4.74.57-6.8.57-9.14,0-13.81-3.85-19.74-8.73-4.32-3.56-9.22-7.6-16.51-10.88-2.69-1.21-5.35-1.82-7.92-1.82-1.1,0-2.2.11-3.26.34-15.92,3.36-17.76,27.64-17.76,45.61v86.03s-87.41,0-87.41,0Z"/>
        </g>
      </g>
    </g>
  </g>
</svg>