<?xml version="1.0" encoding="UTF-8"?>
<svg xmlns="http://www.w3.org/2000/svg" xmlns:xlink="http://www.w3.org/1999/xlink" viewBox="0 0 1200 631.83">
  <defs>
    <style>
      .cls-1 {
        fill: url(#radial-gradient);
      }

      .cls-1, .cls-2, .cls-3, .cls-4 {
        mix-blend-mode: screen;
      }

      .cls-5 {
        isolation: isolate;
      }

      .cls-2 {
        fill: url(#radial-gradient-3);
      }

      .cls-3 {
        fill: url(#radial-gradient-4);
      }

      .cls-4 {
        fill: url(#radial-gradient-2);
      }
    </style>
    <radialGradient id="radial-gradient" cx="449.82" cy="1220.61" fx="449.82" fy="1220.61" r="1475.43" gradientUnits="userSpaceOnUse">
      <stop offset=".12" stop-color="#9fe870"/>
      <stop offset=".24" stop-color="#86c75b"/>
      <stop offset=".51" stop-color="#568834"/>
      <stop offset=".73" stop-color="#335a18"/>
      <stop offset=".9" stop-color="#1e3d06"/>
      <stop offset="1" stop-color="#163300"/>
    </radialGradient>
    <radialGradient id="radial-gradient-2" cx="1081.83" cy="1894.2" fx="1081.83" fy="1894.2" r="1588.01" gradientTransform="translate(0 1731.6) scale(1 -1)" gradientUnits="userSpaceOnUse">
      <stop offset=".12" stop-color="#9fe870"/>
      <stop offset=".24" stop-color="#86c75b"/>
      <stop offset=".51" stop-color="#568834"/>
      <stop offset=".73" stop-color="#335a18"/>
      <stop offset=".9" stop-color="#1e3d06"/>
      <stop offset="1" stop-color="#163300"/>
    </radialGradient>
    <radialGradient id="radial-gradient-3" cx="901.35" cy="1686.2" fx="901.35" fy="1686.2" r="653.86" gradientTransform="translate(0 1731.6) scale(1 -1)" gradientUnits="userSpaceOnUse">
      <stop offset=".12" stop-color="#9fe870"/>
      <stop offset=".24" stop-color="#86c75b"/>
      <stop offset=".51" stop-color="#568834"/>
      <stop offset=".73" stop-color="#335a18"/>
      <stop offset=".9" stop-color="#1e3d06"/>
      <stop offset="1" stop-color="#163300"/>
    </radialGradient>
    <radialGradient id="radial-gradient-4" cx="1037" cy="1490.42" fx="1037" fy="1490.42" r="653.86" gradientTransform="translate(0 1731.6) scale(1 -1)" xlink:href="#radial-gradient"/>
  </defs>
  <g class="cls-5">
    <g id="Layer_2" data-name="Layer 2">
      <g id="Layer_1-2" data-name="Layer 1">
        <g>
          <path class="cls-1" d="M156.8,136.57c2.28,0,2.56.82,4.51,0,1.95-.82,7.71-4.62,9.66-5.15,1.95-.52,3.2.17.33,1.77-2.88,1.6-8.65,5.07-7.62,4.8,1.02-.26,3.95-1.51,8.08-3.46,4.13-1.95,3.76-1.08,4.82-3.16,1.07-2.08,1.63-3.16,1.63-3.16,0,0,6.55,6.71,7.15,6.97.6.26.84-.05,1.16-.87.32-.83,1.02-1.99,1.95-1.6.93.39.13,1.99.69,2.21.56.22,1.49-.04,3.21-.6,1.72-.56.84-1.81.84-1.81,0,0-.18-.05,1.81-.22s8.27,2.12,10.13,2.86c1.86.73,7.48,1.34,9.06,1.86,1.57.52,2.18-.91,4.37.26,2.18,1.17,3.81,2.72,2.18,3.55-1.62.83-5.71,1.43-3.62,1.95,2.08.52,5.25,1.17,8.27,1.08,3.02-.09,8.45-1.21,10.12-1.21s2.7,1.04,4.28,3.68c1.58,2.64,2.83,3.68,3.43,3.89.6.22-.6-1.25-.28-2.55.33-1.3-.32-3.85-.69-4.71-.37-.87,0-1.3-.74-2.56-.74-1.25-1.95-1.04.28-2.12,2.23-1.08,3.76-2.68,6.46-2.34,2.69.34,3.44,3.77,5.76,4.02,2.32.26,2.74,1.17,6.74,1.48,3.99.3,2.32.04,6.78.35,4.46.3,2.83-.48,3.76-2.77.93-2.3,1.95-2.73,3.02-2.64,1.07.09,4.83.6,4.83,1.08s-1.58,2.94-.79,4.15,4,3.2,4,3.2c0,0-.7-2.77-.7-3.07s-.23-2.46.23-2.86c.47-.39,3.11.22,4.78-3.03,1.67-3.24-1.12-3.07-1.12-3.07,0,0-1.02.05-.51-1.29.51-1.34,3.48-2.16,3.48-2.16,0,0,.19.6-.19-.48-.37-1.08-2.32-.86-4.41-.99-2.09-.13-3.52-.43-3.9-2.21-.37-1.77-.51-5.49-.51-8.05s2.05-1.65,2.41-3.07c.37-1.43-.09-8.39-.6-9.82-.51-1.43.74-4.5,1.03-6.53.27-2.03,2.36-1.13,2.36-1.13-.37-.69.6-2.64,3.39-3.46,2.79-.82,8.09.04,8.09.04,0,0-.47.04-1.77,1.73-1.3,1.69-.46,4.68-2.42,6.79-1.94,2.12-6.92,1.43-6.92,1.43,0,0,1.53,3.5.88,4.62-.65,1.13-1.07,3.42-1.07,3.42,0,0,4.37,1.21,4.6,3.98.23,2.77,2.41,3.24,2.92,5.8.51,2.55-2.14,4.67-1.58,5.06.56.39.74.56,2.33.65,1.57.09,3.71.39,3.71.39,0,0-.88,1.3-.09,2.68.79,1.39.19,2.25.28,3.72.09,1.47.98,2.72,1.34,2.47.38-.26,2.1-4.03,2.47-5.71.37-1.69.65-2.6,1.39-2.6s3.26,2.29,3.53,3.12c.28.82.47,1.95-.93,4.19-1.39,2.25-1.25,3.29-.04,4.15,1.2.86,1.25.61,3.43,1.65,2.18,1.04,1.77.95,3.11.56,1.35-.39-.56-3.81-.42-3.89.14-.09,3.21-.43,2.52-2.16-.7-1.73-1.4-2.59.04-3.46,1.45-.87,2.46-1.56,2.46-1.56-.6-1.08-.79-1.17-1.81-4.07-1.02-2.9.88-2.12,4.88-1.82,3.99.31,4.17,1.69,6.31,2.77,2.14,1.08.79,1.47,1.48,3.2.7,1.73-1.76,1.99-1.76,1.99,0,0-1.63.3-1.25,1.64.38,1.34,1.12,2.94,2.28,5.02,1.16,2.08-.32,3.5-2.14,5.19-1.81,1.69-3.95,2.17-6.08,2.21-2.14.04-3.07.91-3.2.3-.15-.6-1.17-1.17-2.32-.91-1.17.26-3.82,1.3-2.88,1.64.93.35,3.39.26,2.37,2.17-1.03,1.9-1.91,1.9-3.95,1.69-2.04-.22-3.95-.22-5.25-.31-1.29-.08-7.71-.47-7.71-.47,0,0,4.33,2.64,7.76,3.72,3.43,1.08,7.06.43,7.06.43,0,0-1.4,2.59-3.07,5.36-1.67,2.77-3.25,1.56-4.64,1.73-1.4.17-2.23,1.3-4.83,1.64-2.61.35-8.04-.73-7.2-.34.84.39,1.21,1.08,2.7,1.3,1.49.21,2.42.47,3.72,1.56s-.84,1.34-2.55,1.64c-1.72.31-2.19.61-2.97,1.69-.79,1.09-3.72,5.28-4.65,6.58-.93,1.3-1.76,3.46-2.14,6.01-.38,2.56-2.55,5.62-1.58,6.27.97.65,4.64.74,6.18,1.69,1.53.95,3.26,5.62,4.41,7.4,1.17,1.77,2.09,3.12,3.39,1.73,1.3-1.38,3.86-1.04,6.27-.17,2.42.87,7.34,4.28,8.88,5.79,1.53,1.52,4.22,1.26,7.24,1.69,3.02.43,3.36,1.57,3.36,1.57,0,0,3.15.16,1.85,1.5-1.3,1.34-1.67.04-.38,2.29,1.3,2.25,1.26,5.28.89,6.79-.38,1.52,4.16.75,6.07,1.88,1.9,1.12,2.01,5.7,2.99,5.13.98-.56,2.6-1.56,2.79-2.77.19-1.21-.04-2.81-.23-4.89-.19-2.08-.7-5.89-1.72-7.4-1.02-1.52,1.84-2.12,1.38-2.77-.46-.65-.35-1.94,1.6-2.47,1.95-.51,2.09-.04,3.16-.87,1.07-.82,1.25-4.67,1.44-6.05.19-1.38-.32-4.37-.78-5.49-.46-1.12-2.37-4.72-3.06-5.49-.71-.78-1.58-1,.33-3.42,1.9-2.42.78-1.9.51-2.64-.28-.74-.69-2.55-1.07-4.19-.38-1.65.79-3.46.09-5.8s-1.44-1.81-1.3-2.34c.14-.52,4.55-.39,7.81-.04,3.25.34,4.55-.35,5.48-.35s2.61.91,4.42,2.08c1.81,1.16,2.51.87,3.44,2.29.93,1.43,1.44,2.21,3.34,2.12,1.91-.09,3.96.82,3.96.82,0,0-1.35.78-1.12,3.33.23,2.55-.28,4.41-.24,5.45.04,1.04.56,1.08,1.44,1.21.88.13,3.26,2.25,5.71,3.11,2.46.87,3.11.6,3.9-1.38.8-1.99.98-1.82,1.96-1.94.97-.13,1.3.22,1.72-.22.42-.43-.74-1.3-.47-2.68.28-1.39,1.63-3.2,2.75-4.24,1.11-1.04,1.9,1.04,2.88,2.94.98,1.9,4.37,8.09,5.34,10.12.97,2.04,2.23,2.17,1.07,4.07-1.16,1.9-1.72,2.72.09,3.59,1.81.87,3.44,2.38,3.3,3.81-.15,1.43-.52,1.47.09,1.86.6.39,2.79-.78,4.37-.09,1.58.69,3.48,1.34,4.6,2.46,1.11,1.13,1.03,1.52-.56,2.07-1.58.56-3.16,1.13-3.95,1.6-.79.48-2.04,1.39-2,2.12.05.73-.33,1.94.93.99,1.25-.95,3.3-1.9,4.78-2.34,1.49-.43.37-.05,1.72-.22,1.35-.17,2.65.65,4.51,1.17,1.85.52,1.34,1.69.88,2.77-.46,1.08-.88,2.12-.14,3.33.75,1.21-.32,2.29-1.95,3.76-1.63,1.47-2.83,1.69-5.48,2.03-2.65.35-3.91,1.94-5.76,3.67-1.85,1.73-2.79,1.3-5.48,1.43-2.7.13-1.63-1.34-2.46-1.04-.84.31-1.9,1.21-3.62,1.39-1.72.17-7.53.26-9.76.91-2.23.65-1.53,2.16-2.09,3.41-.56,1.25-1.44.74-3.11,1.3-1.67.56-3.67,3.03-5.62,6.4-1.96,3.37-4.6,5.45-4.6,5.45.56-.13,3.3-1.82,4.64-3.46,1.35-1.64,6.97-5.53,8.69-6.74,1.72-1.21,5.43-2.99,6.32-2.73.89.26,3.07,1.95,3.07,2.81s-.65,1.56-2.23,3.03c-1.58,1.47-3.67,0-3.53.6.14.61,1.25,1.99,2.46,2.29s1.16,1.78,1.16,2.51-.69,1.69,2.09,4.02c2.79,2.34,4.74,2.51,6.79,2.38,2.04-.13.97.69,1.81.61.83-.09,1.02-1.69,1.3-2.99.28-1.3.75-2.51,1.49-3.07.75-.56,1.3-1.6,1.54.39.23,1.99-.84,4.71-1.91,5.32-1.06.6-.83,1.38-.83,1.99s-1.21.65-4.09,2.25c-2.88,1.6-3.81,1.99-4.32,1.77-.51-.22-1.58.26-2.97,1.52-1.4,1.25-2.88,2.95-3.9,2.9-1.03-.04-1.91-.47-.51-1.9,1.39-1.43,1.86-3.41,3.25-4.11,1.39-.69,2.04-.6,3.21-.6s.6-.69,1.53-1.38c.93-.69-.7-.48-2.28-.74-1.58-.26-.37-1.65-.37-1.65l-1.63.87s-2.46,1.3-3.11,1.39c-.65.08-.51.51-.69.78-.19.26-2.51.43-2.51.43,0,0-1.21,2.46-3.02,2.81-1.81.35-.55.22-1.86.78-1.3.56-1.06-.65-1.34-.3-.28.35-.51.65-1.95,1.73-1.44,1.09-2.28,1.43-3.3,5.37-1.02,3.94.18,5.36.14,5.97-.05.6-1.81-.39-2.32.08-.52.48-1.68,1.95-3.21,2.38-1.53.43-4.55,1.21-5.25,1.95-.7.74-.74,1.77-1.07,3.28-.32,1.52-2.14,5.07-2.14,5.07,0,0,.42-1.43-.84-2.47-1.25-1.04-1.06-1.99-1.06-1.99,0,0-.29,1.43.18,2.9s1.39,2.94.98,4.54c-.43,1.6-1.21,3.59-2.18,4.15-.98.56.23-1.08.23-2.38s-.65-1.38-1.07-2.03c-.42-.65-.42-2.3.32-4.51.75-2.21-.69-.86-1.53.61-.83,1.47-1.43,4.19-.14,5.97,1.3,1.77-.83,1.6.05,4.15.88,2.55-1.07,3.81-.7,4.2.38.39,1.4-.17,1.86,1.08.46,1.26-.93.69-1.39,1.04-.47.35-.24.82.05,1.52.28.69.84.25.6.47-.23.21-.89,1.08-2.09,1.47-1.2.39-1.3-.22-2.05.65-.74.86-1.29,1.64-2.09,2.63-.79,1-1.34.65-2.18,1.34-.84.69-1.16,1.25-2.19,2.12-1.02.87-3.34,2.21-4.6,3.89-1.25,1.69-.93,2.12-1.54,4.85-.6,2.72,1.54,7.48,2.88,11.98,1.35,4.5,1.9,3.24,1.72,4.67-.18,1.43-.79,3.16-1.77,4.15-.97,1-1.52-.69-2.87-1.69-1.35-.99-.28-1.68-1.58-3.76-1.3-2.08-1.21-2.81-1.35-4.33-.14-1.51-.37-3.68-1.07-5.32-.7-1.65-2.19-3.73-4.41-2.9-2.23.83-1.67.43-2.88.08-1.21-.34-4.41-1.64-6.04-.78-1.63.87-6.78-.26-7.85,0-1.07.26-1.86.35-1.86,1.09s-.46.86,1.45,1.38c1.9.52,1.63,1.08,1.49,1.9-.14.82-1.54-.43-2.28-.74-.75-.3-1.44.6-2.74.6s-1.54-1.25-2.7-1.43c-1.16-.18-1.62,0-2.74-.43-1.11-.44-2.6-1.17-3.9-1.08-1.3.09-6.32,3.42-8.69,5.19-2.36,1.78-4.18,3.5-4.73,4.93-.56,1.43-.61,1.56,1.3,3.68,1.9,2.12,1.02,1.78.65,2.99-.37,1.21-1.49,2.68-2.83,5.8-1.35,3.11-.56,4.63,1.06,7.61,1.63,2.99,3.07,5.15,4.37,6.4,1.3,1.25,2.23,2.6,3.34,3.07,1.12.47,1.34.65,1.86,1.17.51.52.37.74,2.14.26,1.76-.47,3.06-1.17,4.32-1.17s2.42.04,3.11.69c.69.65.79.26.79-.09s.56-1.64.74-1.99c.18-.35,1.86-2.72,2.14-4.02.28-1.3.28-3.9,1.91-4.07,1.62-.17,5.11-.99,8.27-.78,3.16.21,1.76,1.77.93,3.41-.84,1.65-1.17,1.82-1.17,3.07s.38,1.26-.64,1.99c-1.02.74-.38-.43-.79.3-.42.74-1.9,1.77-1.72,1.6.18-.17.65,1.25.65,1.94s-.14,1.04-.14,2.73-3.3,3.41-3.3,3.41c0,0,1.21.69,2.97.69s3.9,0,5.76.87c1.86.86,5.39-.69,7.99.6,2.6,1.3,1.67,2.08,1.85,3.29.19,1.21.47,5.36.29,6.31-.19.95-1.4,3.63-2.05,5.54-.65,1.9,1.86,3.29,4.19,4.84,2.32,1.56,4.36,2.25,5.58,2.59,1.2.35,3.43-1.82,7.52-1.56,4.08.26,5.48,3.72,5.48,3.72,0,0,.47-2.16,2.32-5.11,1.86-2.94,1.95-3.81,4.46-4.76,2.52-.95,3.35-1.12,7.44-2.42,4.09-1.3,3.34-.34,5.47-.17,2.14.17,7.07.6,11.99,2.07,4.92,1.47,12.45,1.9,15.33,3.11,2.88,1.21,4.18,4.59,7.16,7.36,2.97,2.77,6.69,5.28,8.27,6.58,1.58,1.3,10.41,2.51,12.36,3.29,1.95.78,4.64,3.98,4.83,5.88.18,1.9,2.14,2.86,4.83,3.98,2.7,1.13,3.53,2.43,5.3,5.89,1.77,3.46,1.2,4.41,3.62,5.28,2.42.87,19.14,5.36,23.32,7.01,4.18,1.65,9.48,6.06,10.87,6.58,1.4.52,3.9-.44,5.02.17s-.65,3.89.74,6.23c1.39,2.34,1.49,2.51.65,4.24-.83,1.73-4.18,5.89-5.48,7.96-1.31,2.08-4.09,3.37-5.67,4.24-1.58.86-2.98,0-1.58,1.73,1.39,1.73.09,3.2-1.12,4.76-1.21,1.56.09,1.38-.28,6.4-.37,5.02,0,10.46-.56,12.63-.56,2.17-3.8-1.9-7.52,2.77-3.71,4.67-4.73,8.22-6.96,8.74-2.23.52-7.43,3.12-9.2,4.76-1.77,1.64-2.14,2.25-3.26,4.67-1.11,2.42-2.23,7.35-3.44,10.38-1.21,3.03-3.16,4.76-7.62,8.82-4.46,4.07-6.41,8.22-9.3,11.42-2.88,3.2-2.14,2.5-2.74,3.11-1.54,1.54-7.88-2.49-6.24-.26,1.21,1.64-.68,0,.34,1.55,1.02,1.56,1.77,2.16-.46,4.93-2.23,2.77-4.8,2.22-6.57,2.66s-4.4-1.82-4.58-.69c-.18,1.12-1.21,3.92-2.6,4.61-1.39.69-5.11,1.73-5.01,2.17,1.76,8.2,5.36,9.05,1.54,8.68-10.48-1.02-3-3.51-10.28,11.74-1.11,2.34-2.23,1.13-2.04,3.9.19,2.77,0,4.84,1.49,6.58,1.49,1.73.46,1.64-2.05,3.98-2.51,2.34-2.7,1.99-5.02,5.54-2.32,3.55-4.55,3.37-3.72,6.06.84,2.68,1.03,6.66,2.42,10.64,1.39,3.98,4.27,3.28,8.83,6.06,4.55,2.76,5.11,1.29,7.34,1.99,2.23.69-1.58.87-5.58,1.56-3.99.69-6.59,1.47-9.38.87-2.79-.61-9.38-4.41-11.61-6.06-2.23-1.64-5.85-4.58-7.15-7.44-1.3-2.86-2.23-5.71-3.9-9.6-1.67-3.9-.47-6.32.28-14.88.74-8.57,1.3-15.23,2.51-19.81,1.2-4.59,4.93-25.01,5.94-30.29,1.03-5.28,5.76-26.73,6.13-30.11.37-3.37.65-5.97,1.39-9.35.74-3.37.28-10.21.28-10.55s-.28-.6-1.31-3.81c-1.02-3.2-2.69-4.5-5.01-5.88-2.32-1.39-4.74-3.12-6.6-4.42-1.86-1.29-4.09-3.12-5.95-5.45-1.86-2.34-3.63-7.09-4.55-9.09-.93-1.99-4.37-8.73-7.52-13.41-3.16-4.67-3.35-4.76-4.93-9.7-1.58-4.93,1.39-5.02,1.95-7.78.55-2.77,2.41-5.54,4.46-9.43,2.04-3.9,4.74-5.02,6.32-8.48,1.58-3.46.37-3.46-.19-6.84-.56-3.37.19-2.85-.84-4.67-1.02-1.81-1.57-4.06-2.5-4.67-.93-.61-2.32-1.04-3.16-.09-.84.95-2.32,3.72-3.25,3.89-.93.17-1.3-.87-1.86-1.47-.56-.6-3.25-.6-3.81-1.21-.56-.6-1.95-.69-2.88-1.12-.94-.43-4.56-2.34-5.58-3.2-1.02-.87-2.32-2.95-2.32-5.19s-1.95-3.12-6.31-6.23c-4.37-3.12-6.23-3.55-11.53-4.85-5.3-1.29-7.43-5.02-9.2-6.05-1.76-1.04-1.58-2.16-5.48-1.73-3.9.43-8.64-1.73-11.62-2.94-2.97-1.21-8.27-2.07-10.5-3.54-2.22-1.47-6.12-1.99-7.8-5.54-1.67-3.55-1.4-2.16-.74-5.28.65-3.12-3.81-5.71-6.51-8.65-2.69-2.94-4.74-3.37-6.13-7.01-1.4-3.64-3.44-3.46-6.13-6.06-2.7-2.6-2.79-5.89-3.9-8.83-1.11-2.94-8.54-7.18-8.54-7.18,0,0,1.94,4.93,2.78,6.92.84,1.99,2.79,6.75,5.02,10.3,2.23,3.55,4.18,4.41,6.22,7.96,2.04,3.55.09,5.71-.65,4.33-.74-1.39-3.72-1.99-3.72-3.64s-.74-2.68-1.39-3.98c-.65-1.3-3.53-2.77-6.32-5.02-2.79-2.25-4.73-3.28-2.97-3.28s4.28,1.64,3.81.6c-.47-1.04-3.62-4.24-5.11-6.49-1.48-2.25-1.96-4.76-3.44-8.57-1.49-3.81-6.96-7.44-9.66-7.7-2.69-.26-3.44-1.56-4.36-4.33-.93-2.77-1.12-5.71-2.32-7.87-1.21-2.16-6.41-9.43-6.5-12.2-.1-2.77-1.58-10.82.28-15.32,1.86-4.5,1.39-14.53,1.12-16.53-.28-1.99-3.63-5.79-3.63-7.27s1.96-.6,3.44-.18c1.48.44,4.64,1.73,4.64,1.73,0,0-2.41-4.5-3.9-6.05-1.49-1.56-5.86-3.55-7.81-3.98-1.96-.43-4.46-1.12-5.48-2.76-1.02-1.65-2.14-3.81-2.88-5.2-.74-1.38-3.9-3.02-4.64-4.5-.75-1.47-.56-4.33-1.58-5.8-1.02-1.47-2.51-2.34-4.19-1.73s-2.22-.87-3.53-3.03c-1.3-2.16-4.18-3.2-5.02-3.46-.84-.26-3.71-4.07-3.9-5.02-.18-.95-4.74-5.97-6.22-7.01-1.49-1.04-15.89-5.71-16.26-5.71s-4.56.6-5.67.26c-1.11-.35-4.93-3.64-6.87-4.33-1.96-.69-3.35.78-4.28,2.94-.93,2.16-5.49,5.88-7.99,7.52-2.51,1.65-4.55,1.82-4.37.96.19-.87.09-2.25.94-4.33.83-2.07,1.3-2.68,3.9-3.98,2.61-1.3,2.51-1.39,1.49-1.3-1.02.09-1.77-.17.28-1.38,2.04-1.22,2.88-1.39,2.79-2.43-.09-1.04-4.46,1.39-7.25,3.64-2.79,2.25-4.45,3.81-6.87,7.78-2.42,3.98.28,2.51-1.77,5.11-2.04,2.6-9.01,7.87-11.05,9.86-2.05,1.99-10.5,6.4-13.94,7.44-3.44,1.04-4.83,1.47-6.5,2.86-1.67,1.38-5.85,1.81-4.46.87,1.4-.96,3.99-3.12,5.76-4.16,1.76-1.04,6.5-2.94,7.9-3.46,1.4-.52,5.29-2.94,7.25-5.11,1.95-2.16,3.25-4.67,4.55-6.75,1.3-2.08,1.58-3.03-1.11-2.16-2.7.87-5.49.52-6.88,0-1.39-.52-5.02,1.64-6.32.69-1.3-.96.09-2.94-.75-3.9-.83-.95-3.71-.34-5.57-.69-1.86-.34-4.46-1.81-4.46-4.41s-1.86-4.84-.84-6.83c1.03-1.99,2.52-2.51,4.18-3.63,1.67-1.13,6.31-2.6,7.25-2.6s2.23-.95,3.07-1.82c.84-.86-1.95-3.98-1.95-3.98,0,0,.47-.34,1.58-1.04,1.11-.69.28-2.16-1.67-1.9-1.95.26-6.13,2.25-8.73,2.94-2.6.69-6.13.26-6.04-.86.09-1.12.65-1.82-.28-2.68-.92-.87-1.67-1.82-.74-2.25.93-.43,6.69-3.64,6.69-3.64,0,0,2.04,2.25,4.27,2.51,2.23.26,6.96-3.89,6.96-3.89-2.97-1.82-2.32-2.34-2.32-2.34,0,0-4.83-.09-5.95-.78-1.11-.69-1.49-2.07-1.76-3.28-.28-1.21-5.02-2.17-3.71-4.16,1.3-1.99,3.71-2.68,5.29-4.67,1.58-1.99,2.97-5.71,7.53-7.79,4.55-2.07,10.04-3.98,12.45-5.71,2.41-1.73,3.53-.08,4.46.17.93.26,6.69-.25,8.92-.25s2.6,2.5,3.35,3.11c.74.61,20.35,1.21,20.35,1.21,0,0,16.62.26,19.97,1.21,3.35.95,9.38,3.46,9.38,3.46,3.67-.47,3.35-4.93,5.62-4.93ZM380.2,36.21s-1.67,6.92-8.36,8.83c-6.69,1.9-18.96,7.27-19.52,7.61-.56.34.74,4.15,2.41,6.05,1.67,1.9,3.25,3.2,4.74,5.11,1.48,1.9,4.09,1.73,6.13,3.72,2.04,1.99,3.52,1.29,9.1,1.38,5.58.09,4.09.52,10.31.87,6.22.34,12.73.87,14.87,2.77,2.13,1.9,5.2,9.35,7.15,13.84,1.95,4.5,5.39,11.94,5.39,12.63s-2.14,6.14-2.14,7,1.12,2.34,2.14,3.55c1.02,1.21.46,2.16.27,3.28-.18,1.13,1.12,3.98,1.3,4.33.19.34,2.97-2.77,4.74-3.29,1.76-.52,6.13,3.12,6.13,5.63,0,5.69,1.55,3.75-7.71,10.47-1.22.89-2.41,7.7-1.49,10.98.93,3.29,3.16,7.18,4.92,11.86,1.76,4.67,6.97,11.24,8.64,14.28,1.67,3.03,2.14,7.18,5.85,8.14,3.72.95,7.25,2.25,9.94,2.85,2.7.6,4.46,1.47,5.76-1.04,1.31-2.51,3.9-12.02,6.05-18.95,2.13-6.92-.19-9,4.83-10.55,5.02-1.56,13-4.67,15.14-5.62,2.14-.96,1.77-7.79,6.51-10.04,4.74-2.25,5.39-2.07,10.03-3.55,4.65-1.47,11.15-4.41,15.8-7.7,4.64-3.29,5.94-1.56,7.62-4.59,1.67-3.03-1.67-7.44-2.04-11.94-.37-4.5,1.49-4.76,2.41-8.83.93-4.06,1.4-6.75,5.02-9.52,3.63-2.77,5.57-4.32,4.93-6.92-.65-2.6-2.51-6.49-2.51-9.35s.65-1.21-.84-5.19c-1.49-3.98-1.49-4.5-.1-8.22,1.4-3.72,5.11-2.77,4.84-4.42-.28-1.64-5.95-4.15-6.04-8.74-.09-4.59,1.02-5.97,1.95-7.09.93-1.13,10.41-8.65,11.06-9.34.65-.69-.18-2.59,4.46-4.84,4.64-2.25,6.22-3.72,7.99-4.41,1.77-.69,4.55-.6-.84-2.17-5.39-1.56-6.59-2.25-10.13-1.81-3.53.43-4.73,2.42-11.06,3.03-6.32.6-13.48,3.55-13.48,3.55,0,0,2.14-1.9.28-3.73-1.86-1.81,4.83-7.78,5.95-8.48,1.11-.69-8.74-3.11-13.85-4.06-5.11-.96-15.14-3.98-20.9-3.55-5.76.43-14.21.35-17.1,1.3-2.88.95-2.5,4.67-5.76,4.85-3.25.17-9.29-1.9-13.94-1.21-4.64.69-12.08,3.9-12.92,4.07-.84.17,2.88,2.42,5.3,2.94,2.41.52,5.57,5.54,5.57,5.54,0,0-6.5-2.17-13.1-3.98-6.6-1.82-14.31,0-17,.78-2.7.78-6.23,2.25-11.61,2.51-5.39.26-11.52,4.67-14.59,6.75-3.07,2.08-12.63,7.61-15.05,8.91-2.42,1.3-1.49,1.9,1.12,2.6,2.6.69,5.39,1.12,5.39,1.12ZM242.51,107.73c.74,3.17.74,7.73-1,5.77-1.73-1.96-3.16-5.94-5.94-4.33-2.79,1.62-5.82,1.16-5.33.81.49-.35-.06-2.08-1.49-2.6-1.42-.52-2.29.29-3.77,1.16-1.49.87-6.2,2.02-4.28.51,1.92-1.5,1.3-2.3.62-4.04-.68-1.73-5.58,1.21-8.18,3.06-2.6,1.84-4.15,4.67-5.7,6.57-1.55,1.9-.43,3.12,1.92,3.81,2.36.69,6.13,1.16,2.97,2.31-3.15,1.15-5.58,1.96-3.96,2.94,1.61.98,4.4,1.15,7.18.8,2.79-.35,5.14-1.09,9.6.12,4.46,1.21,7.12,1.15,7.12,1.15,0,0-1.67,1.04-4.64,1.56-2.97.51-8.43,0-11.22.51-2.78.52-7.18,1.27-6.07,2.31,1.11,1.04,1.98,2.65,5.82,3.86,3.84,1.21,4.53.06,6.81.63,2.3.58,1.06,3.17,1.67,3.58.62.4,4.96-.34,9.29-1.15,4.34-.81,2.72-1.5,6.13-2.37,3.4-.86,3.53-3.46,5.51-4.04,1.98-.58.56,1.33,2.91,1.9,2.36.58,1.05.75,3.59,1.16,2.54.4,2.04,1.38,4.52,1.21,2.48-.17,5.39-1.84,5.02-2.14-.37-.29-.74-1.04-.49-2.19.25-1.15-2.49.23-3.47.81-.99.58-.93-1.56,1.17-2.6,2.11-1.04,3.97,0,5.21,0s.13-3.58-2.11-4.15c-2.23-.58-3.22-1.96-6.57-3.81-3.34-1.85-1.61-2.66-2.6-5.07-.99-2.43-3.1-9.58-4.96-10.85-1.85-1.27-3.84-.92-5.69-2.19,0,0-.37,1.79.37,4.96ZM191.1,102.83c.81,2.3.93.86-.68,3.4-1.61,2.54-.68,3.46-1.8,5.37-1.11,1.9-4.08,4.44-3.16,5.71.93,1.27,3.9,2.02,5.14,3,1.24.98,2.48,3,4.7,2.25,2.23-.75,2.97-1.27,4.53-2.08,1.55-.81,2.85-1.73,2.79-3.75-.06-2.02-.12-2.99.5-2.82.62.17,1.61,1.09,2.1-.23.5-1.32,1.36-3.06,2.42-4.09,1.05-1.04,4.08-2.08,5.51-3.29,1.43-1.21,3.84-2.54,4.52-3.57.69-1.05-1.24-1.85-2.41-2.31-1.18-.46-2.54-2.3-5.27-2.3s-4.21,2.07-4.09,1.15c.13-.92-1.86-1.39-2.97-1.79-1.12-.4-2.17-1.04-5.7-.63-3.53.4-5,.64-7.81,1.44-2.41.69.87,2.25,1.67,4.56ZM271.74,130.46c-.37.51-1.98,1.04-2.97,2.19-.99,1.15,2.1.52,3.09.87.99.35,1.74,1.32,2.54,1.62.81.29,5.14.46,6.94-.41,1.79-.86,1.98-1.15,1.79-1.55-.19-.41-3.71-3.86-6.32-5.25-2.6-1.38-2.66-1.44-3.22-1.09-.56.34-1.49,3.11-1.86,3.64ZM260.03,103.47c-1.68.84-2.9,1.84-.06,3.29,2.84,1.44,3.78,2.65,5.7,3.86s2.72,4.67,6.75,3.12c4.02-1.56,5.64-3.4,6.2-5.02.55-1.62-.56-1.96-1.55-3.46-1-1.49-1.24-2.13-3.28-1.9-2.05.23-2.73.23-2.73.23,0,0,1.36-1.73,3.59-2.83,2.23-1.1.37-1.85,1.42-2.88,1.06-1.04-2.66-1.56-4.27-1.16-1.61.41-1.67-.11-4.34-.23-2.66-.11-6.87,2.31-6.69,3.17.19.87,2.17.52,4.03,1.56,1.86,1.04,2.41.92.56,3.86-1.85,2.94-2.85-.69-3.47-1.16-.62-.46-.12-1.32-1.86-.46ZM248.15,98.16c-2.78.26-3.72,2.19-2.66,2.48,1.05.29,1.73-.29,3.4,1.5,1.67,1.79,3.16,2.77,3.84-.17.68-2.94-.31-4.22-4.58-3.81ZM203.42,75.83c-3.1,2.48-3.71,4.44-6.13,6-2.42,1.55-1.86,2.88-1.05,3.74.8.87,3.22-.05,4.33-.63,1.12-.58,2.04-2.02,2.72-1.15.68.87,3.53-2.94,4.65-4.22,1.12-1.27,2.85-2.59,3.16-2.53.31.06-1.06,1.5-.56,2.71.49,1.21,2.72,1.27,4.71-.81,1.98-2.08.19-3.98,1.74-5.6,1.55-1.62,2.85-1.39-.18-2.83-3.03-1.44-4.96.18-5.58.93-.62.75-1.73-.47-7.81,4.38ZM222.31,79.76c-1.76.08-2.54.35-5.45,1.61-2.91,1.27-4.15,4.56-4.83,6.35-.69,1.79.31,1.79,2.97,2.83,2.66,1.04,6.38-.29,7.24-2.77.87-2.48,1.93.58,1.43,1.85-.49,1.27,1.86.11,2.97-.47,1.12-.57,4.46-.8,4.7-.8s-2.72,2.25-5.64,3.23c-2.91.98-5.26,1.5-6.07,1.61-.81.12.75,1.33,4.15,2.02,3.41.69,5.45-2.08,10.35-3.93,4.89-1.84,4.64-2.19,6.25-1.73,1.61.46,3.34-.81,5.33-1.27,1.98-.46,2.79.29,3.66-2.65.86-2.94,2.41-5.77-.38-5.94-2.79-.17-2.97-.17-3.34,3-.37,3.17-.62,1.21-.62,1.21,0,0-1.86-2.77-2.97-4.22-1.11-1.44-1.92-3.69-3.16-4.9-1.24-1.21-1.8.52-3.72,2.66-1.92,2.13-.37,2.94,1.55,3.86,1.92.92,3.28,3.29,2.36,3.92-.93.64-1.99-.11-5.51.29-3.53.4-3.41-1.09-4.4-1.56-.99-.47,1.67-1.44-2.11-3-3.77-1.56-3.52-1.27-4.77-1.21ZM210.86,82.76c.39-.67-4.7,3-5.48,4.18-.78,1.18.78.98,2.32.92,1.54-.06,1.86-2.88,3.15-5.1ZM220.65,75.11c-1.27.57-1.27,1.01.8,1.24,2.08.23,3.29-.69,2.85-1.56-.43-.87-2.63-.14-3.65.32ZM231.21,64.16c-1.36.22-5.39,1.64-5.61,2.33-.22.69.04,2.19.65,3.38.62,1.18.84,1.36,4.3.43,3.47-.92,5.86-2.71,4.71-3.03-1.14-.31-1.85-.84-2.87-.98-1.03-.15.89-.69,3.19-1.41s3.07-1.96-4.37-.72ZM219.47,65.97c-.98.45-1.34.46.71,1.24,2.04.78,4.24.72,3.96.09-.27-.64-1.92-2.6-4.67-1.33ZM227.46,60.29c-1.94.76-2.38,2.16-2.81,2.71-.43.55,2.2-.4,3.4-.69,1.21-.29,1.49.43,2.67-.61,1.18-1.04,3.5.03,5.61-.43,2.1-.46,2.44-1.84,1.98-3.05-.47-1.21-5.3-.12-10.84,2.07ZM248.46,65.51c-.57.27-.37,1.18.13,2.25.49,1.06.62.8,1.67,1.21,1.05.4,2.1,1.24,2.35,1.5.25.26.4.35.84-.69.44-1.04-.22-.87-1.39-2.25-1.18-1.38-2.1-2.74-3.59-2.02ZM255.61,74.57c-1.61-.44-2.51.49-3.1.78-.59.29.31.95.71,2.19.4,1.25.06,1.65,2.41,1.82,2.35.17,3.07-.26,3.25-1.76.19-1.5-1.79-2.62-3.28-3.03ZM264.75,77.28c-1.46-1.07-2.17-1.94-3.66-1.33-1.48.6-.25,1.35-.25,1.76s1.8-.06,1.83.92c.03.98.58,1.38-1.58,1.5-2.17.11-2.76.03-3.59.66-.83.63,1.61-.09,2.36.89.74.98,2.01,1.09,4.08.78,2.08-.32,4.89-.78,4.89-.78,0,0-1.52,1.44-2.14,2.45-.62,1.01-.87,2.45.22,3.17,1.09.73,1.21-.74,4.22-.8,3-.06,3.9-1.61,3.9-1.61,0,0-.68-.67-.59-2.17.09-1.5-.03-1.85-.03-1.85,0,0,1.21.87,1.49,1.21,0,0-.22-.89-.65-2.51-.43-1.61-.09-1.73-.56-3.92-.47-2.19-.37-2.65-2.63-2.6-2.26.06-3.81.84-5.67.84s-2.66.34-1.29,1.04c1.36.69,1.55,1.53,2.2,2.3.65.78.53,2.65.56,2.57.03-.09-3.1-2.54-3.1-2.54ZM253.44,85.5s-.07.03-.1.04c-.94.47-1.27,1.51-1.33,2.24-.06.75,1.24.31,3.32-.4,2.07-.72,1.05-2.82-1.89-1.88ZM282.68,81.58c-1.72.94-3.1,2.19-4.09,3.32-.99,1.12-.12,1.27,2.45,2.57,2.57,1.3,5.33,1.56,6.53.2,1.21-1.35-.56-8.45-4.89-6.08ZM294.63,71.51c-3.3.33-2.27.82-6.09-.43-3.81-1.26-8.59-1.39-9.89-1.39s-.69.61.65,2.82c1.34,2.2,1.72,2.98,4.5,2.29,2.79-.69,5.06-1.16,7.11,1.77,2.04,2.94,3.11,3.86,1.44,4.93-1.67,1.08-.89,2.81.09,5.06.98,2.25,3.2,2.16,6.32,2.16s22.81-.3,25.87-.86c3.06-.56,5.8-3.16,7.43-4.33,1.63-1.17,2.51-2.99.28-4.33-2.23-1.34-5.39-2.59-7.9-2.59s-4.64,1.3-8.46,1.69c-3.81.39-2.97,2.21-6.41,2.3-3.44.08-1.77,1.6-6-.13-4.22-1.73-7.34-3.9-5.33-4.2,1.99-.3,3.62-.56,2.5-1.51-1.12-.96-3.07-3.55-6.13-3.24ZM255.24,55.42c2.04.69,2.56,1.21.28,1.81-2.28.6-4.04,2.21-1.76,1.9,2.27-.3,4.23.22,7.15.69,2.93.47,2.69.17,3.99,1.82,1.31,1.64,2.7,1.64,4.7,1.17,1.99-.48,2.27-.61.98-2.04-1.3-1.43-2.65-4.06-4.42-5.1-1.77-1.04-3.25-2.51-5.02-2.33-1.76.17-2.18.21-3.72-1.86-1.53-2.08-2.74-1.09-4.97-.52-2.23.56-2.94,2.16-3.81,2.86-1.76,1.43,4.55.91,6.6,1.6ZM282,34.22c-2.42,3.03-4.37,5.58-1.63,5.88,2.74.3,3.95-.22,4.14.65.19.86-.47,1.47-4.55,1.47s-2.83.91-.56,3.59c2.28,2.68,2.51,1.77,5.99,1.69,3.48-.09,4.64-1.34,7.53-.6,2.88.74,3.76,1.47,1.16,2.25-2.61.78-8.74,2.25-7.34,3.55,1.39,1.3,5.71,4.41,7.67,4.72,1.95.3,2.37-1.3,6.6-.82,4.23.48,3.21.91,3.67-.26.47-1.17,2.79-4.15,3.25-5.24.47-1.08,1.63-1.77,3.95-2.29,2.32-.52,3.07-1.25.88-2.03-2.18-.78-4.64-1.12-4.41-1.73.23-.61,1.58-2.38.65-3.29-.93-.91-2.41-.87-3.62-1.34-1.2-.47-2.55-2.68-4.09-3.63-1.53-.95-2.88-1.04-4.74-2.47-1.85-1.43-4.83-4.91-8.54-4.71-2.5.13-3.58,1.6-5.99,4.63ZM277.25,59.53c-.93.47-3.25.56-1.53,1.98,1.72,1.43,1.25,1.47,3.43.65,2.19-.83,5.35-2.86,5.63-3.46.27-.6-2.19-1.77-3.86-2.29-1.67-.52-2.83-1.86-6.32-2.81-5.06-1.38,3.58,5.45,2.65,5.93ZM390.91,14.53c-3.84-1.04-17.59-3.7-22.05-2.66-4.46,1.04-4.21-2.3-10.41-1.49-6.19.8-15.73.34-18.7.8-2.97.46,1.48,1.73,3.1,2.77,1.61,1.04-7.68-1.15-14.75.81-7.06,1.96-11.64,3-4.08,5.88,7.55,2.88,8.54,3.69,8.54,3.69,0,0-9.66-1.73-13.75-3.34-4.09-1.61-1.85-1.5-9.54.69-7.68,2.19-15.11,3.35-14.74,5.65.37,2.31,6.2,5.42,10.03,6.23,3.84.81,11.77-1.15,12.39-1.38.62-.23-3.1,3.12-3.1,3.12,0,0,3.96-.81,8.42-1.96,4.46-1.15,7.93-2.42,12.14-3.92,4.21-1.5,4.95-1.96,4.95-1.96,0,0-7.31,5.66-12.39,7.61-5.08,1.96-11.65,3.23-14.74,3.35-3.1.11-2.61,2.08.49,3.69,3.1,1.61,5.45,5.07,7.06,6.22,1.61,1.16,1.86,3,1.86,3,0,0-4.83-3.81-10.16,0-5.33,3.8-4.59,5.77-3.22,6.23,1.36.46,6.07.92,6.94,2.54.87,1.61,7.06-1.5,7.06-1.5,0,0-3.09,3.92-6.07,3.92s-2.85-2.54-7.19-2.08c-4.34.46-4.09,1.5-2.23,3,1.85,1.5,3.34,1.96.12,3.46-3.22,1.5-4.71,1.96-4.83,3.81-.13,1.85,4.21,1.85,6.94,1.85s5.33-.24,10.28-.35c4.95-.12,4.33-1.73,6.19-1.73s3.72.58,2.97,2.42c-.74,1.85.74.69,6.2-1.27,5.44-1.96,2.97-4.97,2.6-6-.37-1.04-2.36-1.38-3.59-1.96-1.24-.58,3.72-5.66,2.97-7.38-.74-1.73,6.07-.35,9.17-4.39,3.1-4.04,1.99-7.04-.24-7.73-2.23-.69,4.09-.23,6.07-1.39,1.98-1.15,6.32-2.53,8.05-4.73,1.73-2.19,2.35-3-1.85-2.54-4.22.46,6.06-1.85,11.02-5.08,4.95-3.23,10.66-7.03,11.89-7.96,1.24-.92,2.36-.47-3.47-.11-5.82.34-12.76-.46-8.92-.92,3.84-.46,15.24-1.85,18.21-4.04,2.97-2.2,4.33-2.88,4.33-2.88ZM321.55,94.58c-6.2-.58-15.24-2.08-17.1,3.23-1.86,5.31-4.7,17.08-4.95,19.27-.25,2.19,7.43,5.42,12.76,5.65,5.33.23,14,.58,12.27-.69-1.74-1.27-.25-1.96,4.71-1.73,4.95.23,5.45-1.04,5.45-2.08s.87,1.27,4.33,3.11c3.46,1.85,6.45,7.04,9.54,10.04,3.09,3,10.03,7.03,8.67,9.35-1.37,2.3,1.48,10.38-9.17,12.23-10.65,1.84-11.27.57-11.14,3,.12,2.42.61,3.46,4.83,3.46s10.04-3.46,12.02-.92c1.98,2.54,4.71,3.46,6.45,4.04,1.73.58-2.11,1.61-3.1,1.96-.99.34,2.11.69,8.18,3.57,6.07,2.88,13.38,3.23,9.78,1.16-3.59-2.08-5.32-5.88-6.94-7.16-1.61-1.27-.12-.23,2.73.47,2.85.69,5.45,3,6.69,4.04,1.24,1.04,1.86-.34,2.72-4.39.87-4.04-.37-4.04-5.2-7.26-4.83-3.23-6.31-5.77-6.81-8.08-.49-2.31,2.48-2.77,3.72-4.39,1.24-1.61,4.71,2.89,7.06,5.54,2.35,2.65,4.33,7.27,6.19,3.93,1.85-3.34,3.59-10.84,3.59-12.58s-1.85.11-9.78-3.81c-7.93-3.92-12.02-5.42-12.76-5.42s2.1-1.5,5.58-3.23c3.46-1.73,4.95-1.5-2.48-8.54-7.43-7.04-9.54-8.54-14.37-9-4.83-.46-6.19-5.54-9.66-7.27-3.47-1.73-11.52,2.07-13.88,2.65-2.35.57-1.61,1.5-4.58-2.77-2.97-4.27-5.32-7.38-5.32-7.38ZM327.12,94.58c-3.08.37,1.86,6,5.82,6.23,3.97.23,7.31-1.73,8.18-1.96.87-.23-9.17-4.85-14-4.27ZM313.21,151.8c-.52,1.26-1.77,4.76-1.95,7.1-.19,2.34-.56,2.68-1.02,4.15-.46,1.47,1.49-.26,2.79,1.9,1.29,2.16.74,2.77,3.06.26,2.32-2.51,4.93-3.37,8.17-2.34,3.26,1.04,5.76,1.47,4.65-.51-1.12-1.99-2.6-1.82-4.83-4.5-2.23-2.68-3.9-3.37-6.69-4.42-2.79-1.04-3.07-4.33-4.18-1.65ZM336.59,353.94c-.96-2-2.4-5.24-8.43-6.36s-8.06,1.12-10.28,1.87c-2.23.75,2.08,1.12,4.95,0,2.86-1.12,5.05-.24,5.44.27.38.52-.97.83-1.45.28-.49-.55-.58,1.34,2.65,2.51,3.24,1.17,4.03,1.73,4.35,3.12.33,1.39.3,2.13,1.03,3.29.74,1.16,1.02,1.65-.34,2.16-1.37.51-.88.44.12,1.06,1,.62,3.01,1.65,5.86,1.89,2.83.24,3.77.77,1.8-1.82-1.97-2.59-5.39-7.64-5.69-8.27ZM345.59,366.61c1.57,1.61,1.12,3.36,1,4.28-.11.92-1.8.21-4.91-.61-3.11-.82-2.63-.42.07,1.04,2.7,1.46,4.45,1.1,4.33,3.05-.12,1.94,2.48.18,3.63-.95s1.07-.13,5.87.6c4.81.73,5.79,1.59,5.03-.51-.77-2.11,2.2-1.94-2.07-3.95-4.27-2.01-14.74-4.77-12.96-2.94ZM331.91,367.81c-1.81-2-4.07-2.29-4.09-.59-.03,1.7.61,1.6,2.28,2.07,1.68.47,2.97-.2,1.81-1.48ZM366.8,376.49c-1.96-.67-2.37.8-1.06,2.04,1.31,1.23,3.32.8,5.29.71,1.98-.09-.8-1.57-4.23-2.75ZM344.2,135.06c-2.61,1.1-4.13,1.86-1.86,4.84,2.28,2.99,3.63,4.84,4.5,2.68.89-2.16,1.77-9.39-2.64-7.53ZM323.34,167.09c-3.93.63-5.21.75-4.59,2.94.62,2.19,1.67,1.84,4.33.51,2.67-1.32,4.53-4.15.25-3.46ZM331.52,170.43c-.67.2-.87,1.73,0,3.11.87,1.39,2.54-.46,3.28-2.13.74-1.67-.81-1.73-3.28-.98ZM288.65,63.96c-3.71.12-9.29,1.44-6.2,1.5,3.1.06,5.64.69,10.66.41,5.02-.29,5.51-.64,5.63-3.06.12-2.42-3.28.92-10.1,1.16ZM265.43,43.59c-3.79,1.18-2.85,1.96,1.6,3.92,4.46,1.96,4.59,1.04,4.09-2.65-.5-3.69-3.47-1.96-5.7-1.27ZM530.2,140.14c-4.69,1.31-6.27.53-7.16,2.91-.89,2.37-2.73,1.1-3.79,1.4-1.06.29-2.56,6.94-3.3,5.95-.75-.99-1.01-1.53-2.1-3.81-1.08-2.28.36-1.88-1.71-4.29-2.06-2.41-6.14-2.13-6.43-1.15-.29.99,2.82,1.81,1.76,2.92-1.06,1.12-3.58,2.48-4.54,3.29-.96.8,1.84.45,3.59.04,1.75-.41,2.96,1.32,3.68,2.54.71,1.23-.8,2.42-1.56,3.02-.76.6,2.55.45,3.88.7,1.33.24,2.02,1.36,1.11,2.86-.91,1.5,3.94.21,6.62.06,2.67-.16,3.38,1.84,7.43.57,4.06-1.27,5.98-1.18,9.68-3.91s3.41-2.1,5.86-3.86c2.45-1.76,1.86-2.3,1.96-4.26.1-1.95,1.62.55,1.04-2.4-.57-2.95-3.6-2.15-5.71-2.38-2.12-.23-2.04-1.89-3.1-2.41-1.05-.53-2.46.88-7.22,2.21ZM843.79,394.28c-.2.7-.5,1.5-.5,3.06s-.18,3.24-.06,4.79c.12,1.56.22,2.65,1.08,3,.87.35,1.46.69,2.88.03,1.43-.66,2.76-1.85,2.05-3.64-.71-1.79-2.05-4.24-2.82-5.56-.77-1.32-2.26-3-2.63-1.67ZM842.65,392.14c.15.66.36.52.68.98.31.46.65.06.22-.55-.43-.6-.38-.68-.38-.68,0,0-.55-.19-.55.36M976.4,484.21c-.02.07-.1.11-.15.16-2.54,2.57-4.86,1.85-9.23,3.21-4.46,1.38-12.17,5.88-12.73,7.87-.56,1.99,0,2.25-.56,1.99-.56-.26-1.49-1.47-1.49-1.47,0,0-1.2,2.43-.93,4.59.28,2.16,1.3,3.46,1.21,6.23-.09,2.77-1.12,4.41-1.02,6.32.09,1.91,3.25,5.54,4.09,7.79.83,2.25,1.39,1.64,1.85,5.71.46,4.06,2.6,6.31.46,8.48-2.13,2.16-3.71,1.73-1.11,3.98,2.6,2.25,4.74,3.72,8.92,2.25,4.18-1.47,3.07-2.77,6.32-3.46,3.25-.69,3.9-1.38,6.69-1.56,2.79-.17,4.74.09,5.77-1.9,1.02-1.99.27-1.9,3.06-3.29,2.79-1.38,2.51-1.73,4.37-2.07,1.86-.34,3.06.96,5.57-1.04,2.51-1.99.65-2.17,6.22-2.17s7.9.78,9.94,1.47c2.05.69,5.39,2.51,6.22,3.81.84,1.3,1.95,2.86,2.32,2.86s.84.08,2.14-1.21c1.3-1.3,5.02-3.89,5.02-3.89,0,0-.19,2.77-1.02,3.81-.84,1.04-.84,2.51-.84,3.03s2.14-1.65,2.42-1.73c.28-.09.56,3.81.83,4.15.28.35,1.12.17,1.95,1.3.84,1.12,1.95,1.99,2.79,4.15.83,2.16,4.37,4.33,6.6,4.67,2.23.35,4.18.18,5.85-.09,1.67-.26,1.76-2.25,3.53-1.47,1.76.78-.09,2.42,4.09,2.07,4.18-.35,5.3-1.73,6.97-2.86,1.67-1.12,1.86,1.56,3.99-1.38,2.14-2.94,2.51-2.25,2.88-5.8.37-3.55.28-4.24,2.32-7.61,2.05-3.37,2.52-1.73,3.91-6.66,1.39-4.93,3.16-9.61,2.97-13.67-.19-4.07.09-1.38-.84-5.98-.93-4.58-.28-4.06-3.25-5.96-2.98-1.9-3.71-1.39-4.46-4.07-.74-2.68.19-3.46-1.21-3.46s-2.6.6-3.44-1.21c-.84-1.82-.74-2.51-2.32-4.24-1.58-1.73-3.06-1.38-5.95-2.68-2.88-1.3-1.4-1.65-1.4-3.9s.16-4.64-2.13-5.68c-2.29-1.04-.93.58-.93-3.12s0-3.17-1.86-3.8c-1.85-.64-2.48-.58-3.66-2.83-1.18-2.25-2.72-5.94-3.28-7.43-.56-1.5-1.24.17-1.98,1.27-.74,1.09-1.8,3.52-1.8,5.77s.99,3.52.99,6.52-2.1,6-3.41,7.73c-1.3,1.73-2.35.17-3.47-.29-1.11-.46-1.36-2.14-3.71-3.29-2.36-1.15-6.69-2.19-8.67-3.98-1.98-1.79-.62-1.85,0-3.69.62-1.85,1.49-3.35,2.97-4.56,1.49-1.21,1.05-1.67-.8-2.71-1.86-1.04-4.46-1.09-7.62-1.09s-5.02-.23-4.83,1.56c.19,1.79,2.04,2.48-.61,1.96-2.67-.52-4.96-.75-6.13.51-1.18,1.27-1.43,2.03-2.11,4.73-.68,2.71.19,2.88-.93,2.88s-5.51-2.13-7-2.76c-1.49-.64-2.29-.58-4.02,1.04-1.74,1.61-7.74,6.86-9.97,8.13-2.23,1.27-2.11.98-4.37,8.08ZM893.74,406.23c-1.31-.18-2.05-.52-.44,1.55,1.61,2.08,2.05,2.48,3.59,3.93,1.55,1.44,2.11-1.04,3.28,1.73,1.18,2.77.74,2.83,1.92,3.86,1.18,1.04,2.17,1.33,2.48,2.37.31,1.04.68,2.65,2.05,3.81,1.36,1.15,1.36.98,2.16,3.23.81,2.25,2.05,3.86,2.67,5.77.62,1.9,4.15,3.69,5.94,6,1.8,2.31,4.84,5.65,5.33,4.73.49-.92,1.79,0,2.72-.34.93-.35,1.24-1.67,1.86-4.91.62-3.23-.56-4.73-1.43-5.48-.86-.75-2.48-.92-2.9-1.61-.43-.69-1.18-3.05-2.23-3.81-1.06-.75-1.31.06-1.31-1.79s1.24-1.67-.31-2.71c-1.55-1.04-1.74-1.79-2.23-2.31-.49-.52-3.84-1.33-4.71-2.25-.86-.92-4.52-2.6-6.25-4.33-1.74-1.72-3.66-3.11-4.21-4.38-.56-1.27-2.3-2.31-7.99-3.06ZM929.79,443.43c-1.48,0-2.23-.87-3.22.92-.99,1.79-.87,1.79.68,1.79s1.24.81,1.17,1.04c-.06.23-.74-.18,2.42,1.09,3.16,1.27,5.39.75,6.26.29.87-.46,1.18,1.16,5.51,1.85,4.33.69,6.63-.4,9.41.29,2.79.69,2.11-.35.13-1.84-1.99-1.5-1.8-.69-3.78-2.14-1.97-1.44-4.77-1.5-6.07-1.73-1.3-.23,1.11,1.39-2.85.86-3.97-.51-2.54.35-4.59-.98-2.05-1.33-2.05-1.56-3.41-1.79-1.36-.23-1.67.35-1.67.35ZM961.26,449.78c-1.12.35-3.41.98-2.35,1.44,1.05.46.24.75,3.53.46,3.28-.29,6.13-.69,6.56-1.38.43-.69-.56-.23-1.92-.64-1.36-.4-1.24.29-3.1.52-1.85.23-2.72-.4-2.72-.4ZM972.78,449.54c-2.2.27-1.92.75-.19,1.27,1.74.51,3.35.74,4.64.4,1.3-.34,1.49-.69,3.9-1.09,2.41-.4,3.22-.35,5.13-.58l1.93-.23s-.19-.4-1.49-.34c-1.3.06-2.22.11-3.53.11s-3.53,1.15-4.46,1.09c-.93-.06-2.72-.63-3.16-.35-.44.29-.43-.58-2.79-.29ZM985.17,452.37s-.06.04-.08.06c-1.53,1.05-1.6,1.34-1.46,2.17.13.84-.17,1.21-.17,1.21,0,0,2.25-.11,3.97-1.84,1.72-1.73,1.79-1.71,3.55-2.34,1.77-.63,3.77-2.55,3.77-2.55,0,0-1.39.3-2.92.17-1.54-.13-3.04.8-3.53,1.21-.49.41.48.52-3.12,1.9ZM972.22,453.28c-1.61-1.16-3.18-.99-3.3-.28-.11.71-1.4.67.88,1.52,2.28.84,4.44,1.95,4.28.8-.16-1.14-1.16-1.54-1.86-2.03ZM957.42,405.19c-.93,1.33.87.98-.5,2.14-1.36,1.15-2.41.63-3.77,2.36-1.36,1.73-3.41,2.94-4.28,3.58-.87.64-3.66,1.38-4.9,3.06-1.24,1.67.44,2.59.44,2.59,0,0-.75.34-2.73-.4-1.98-.75-2.1-1.67-2.1-1.67,0,0-1.43-.06-2.23,2.07-.81,2.13-1.25,2.36.18,3.64,1.43,1.27-.98,1.32-.68,2.19.31.87.31,2.48,1.18,2.65.87.17,1.05-.81,2.11.52,1.05,1.33.18,5.07,1.54,5.25,1.36.17,2.35-.4,3.53.11,1.18.52,2.04.98,3.59.46,1.55-.52,3.22,0,4.03.46.8.46,3.71,1.44,5.14,1.33,1.43-.11,1.67.23,1.92-1.79.25-2.02.07-3.92,1.8-5.48,1.73-1.56,1.8-1.56,1.92-3,.13-1.44.13-2.94,1.18-4.44,1.05-1.5,1.67.87,2.23-.29.56-1.16,1.12-1.15.8-1.73-.31-.58-1.92-.58-2.54-1.67-.62-1.09.19-1.67-.56-3.92s-1.17-1.38-.12-2.65c1.05-1.27,1.92-1.5,2.04-2.48.13-.98.56-1.04,1.86-1.96,1.29-.92-.21-.49-1.45-1.41-1.23-.92-3.56-4.38-5-4.35-.78.01-3.72,3.52-4.64,4.84ZM1140.44,527.64c-.6-.44-1.11-.11.26,1.5,1.36,1.62,1.48,1.15,2.35,1.21.87.06,1.61,3.24,2.1,4.04.5.81,1.43,1.79,1.43,1.79,0,0,.5,3.46.07,5.02-.43,1.56-1.36,2.25-1.67,3.69-.31,1.44,1.42,1.04,2.54,1.5,1.11.46.93.46.49,1.73-.43,1.27-1.74,1.85-1.74,2.08s2.54,1.67,3.84.11c1.29-1.56,3.34-3.86,3.9-5.53.55-1.67-1-.93.8-2.14,1.79-1.21,1.55-.64,2.48-2.14.92-1.5,1.92-3.05.87-3.86-1.05-.81-2.23.98-3.17,1.33-.92.35-1.67.4-2.97-.23-1.3-.63-1.55-.63-2.04-1.79-.5-1.15-1.12-1.79-1.12-1.79,0,0-.38,1.96-1.3,1.33-.93-.64-.69-1.33-1.36-2.43-.68-1.09-.68-1.44-1.12-2.25-.43-.81-.06-2.37-2.23-2.6-2.17-.23-1.86-.17-2.42-.58ZM1140.82,548.58s-1.74,1.5-3.28,3.63c-1.55,2.14-1.8,2.94-2.29,4.1-.49,1.15-2.29,2.54-5.26,4.09-2.97,1.56-4.09,2.19-5.08,3.64-.99,1.45-4.52,5.94-4.95,6.46-.44.51,1.67,1.04,3.84,1.04s5.57,1.96,7.43-.06c1.86-2.02,3.72-6.81,4.89-8.54,1.18-1.73,2.29-2.36,4.15-4.04,1.85-1.67,4.95-4.79,4.95-6s-.8-3.17-.8-3.17c0,0-.68,1.32-2.3,1.15-1.61-.17-1.3-2.3-1.3-2.3ZM1126.21,570.74c-2.18-1.15-2.6.99-2.95,3.19-.36,2.2.94.33,2.83-.66,1.9-.99.95-2.09.12-2.53ZM1052.55,555.62c-2.45-.82-2.04,1.5-1.67,3.23.37,1.73.87,3.12,1.8,4.55.93,1.45,4.39,1.96,5.76,1.33,1.36-.64,2.35-2.77,3.71-4.79,1.36-2.02,1.98-4.33,1.74-5.53-.25-1.21-1.98,1.1-3.1,1.61-1.11.52-2.6,1.85-4.71,1.27-2.1-.58-2.66-1.38-3.53-1.67ZM1021.71,431.78c-1.98.46-2.97-1.27-4.59-4.62-1.61-3.35-2.85-3.8-6.94-2.31-4.09,1.5-3.47,1.16-.74,2.19,2.73,1.04,3.1,1.38,3.47,1.38s4.34.58,3.47,1.15c-.87.58-4.58,1.15-2.23,2.77,2.35,1.62,1.36.46,7.56,3.58,6.19,3.11,7.18.81,9.17,4.84,1.98,4.04,1.98,3.35.37,4.39-1.61,1.04-3.72,2.08-2.85,2.19.86.11,2.48.46,6.69.69,4.22.23.25,2.65,4.95,2.65s5.95-1.5,7.81-3.69c1.86-2.19,2.23-1.04,6.19-.11,3.97.92,5.33,4.38,10.28,5.77,4.95,1.38,7.06,3.23,3.96.35-3.1-2.88-4.21-4.96-8.43-8.31-4.21-3.34-4.46-3.69-5.69-6.23-1.24-2.54-5.57-5.54-10.4-7.5-4.84-1.96-7.6-2.23-13.26-3.81-5.82-1.61-6.81,4.15-8.79,4.62ZM989.12,420.24c-1.85,1.3-2.08.5-3.47-.36-1.39-.87-1,1.79-4.09.36-3.09-1.44-4.24-2.16-7.56.29-3.32,2.44-1.23,3.45-1.31,5.17-.08,1.72-2.78,6.61-3.78,8.41-1,1.8-.99,2.44-.23,3.59.77,1.14,1.85.71,2.32,1.29.46.57,0,5.1-.54,6.61-.54,1.51,1.32,1.8,3.24,1.36,1.93-.43.23-.57.23-2.15s.92-2.3.92-5.25v-4.31s.54-.29,1.24.71c.69,1.01,1.7,3.81,2.54,5.25.85,1.43,1.7,2.51,3.01,1.5,1.31-1,2.54-2.15,2.54-2.15,0,0-2.54-.79-2.54-1.65s1.08-1.58-.7-4.45c-1.77-2.88-2.7-3.02-.46-3.16,2.23-.15,2.16-2.37,3.47-3.02,1.31-.65,3.17-.43,3.17-.43,0,0-1.32-1.36-3.32-.79-2.01.57-3.78.86-5.48,1.8-1.69.93-3.17,1.51-3.47-.22-.31-1.72-.54-2.15-.31-4.53.23-2.37,2.93-.57,4.94-1.14,2.01-.58,2.01-.43,6.4-.15,4.39.29,4.71-.72,6.02-2.51,1.31-1.8,2.08-3.88,2.08-3.88,0,0-3.01,2.52-4.86,3.81ZM999.54,413.96c.39-.72-3.22,2.48-3.9,3.11-.68.64,0,1.56.49,2.48.5.92.38,4.09.56,4.78.19.69,2.05,1.33,2.05,1.33,0,0-.06-2.13.62-3.11.68-.98,0-2.19,0-3.98s-.99-2.48.19-4.62ZM992.41,432.89c-2.84-1.09-3.9-.37-3.9,1.12s-.31,2.23,2.71,2.23,6.45-1.34,1.19-3.34ZM998.07,431.93c-.7.22-1.43,2.45-1.03,3.78.39,1.34.87.45,2.47.15,1.59-.3,1.35-1.56,3.34-1.71,2-.15,6.14,1.41,6.14,1.41,0,0,.88-1.04-2.3-3.04-3.19-2.01-4.64-1.86-8.61-.6ZM941.4,358.56s-2.85.08-3.28.08-1.43,1.1-2.14,1.54c-.71.43-.71,1.03-.21,2.16.49,1.13,1.33,1.18,2.72,1.56,1.39.38.9-.6,1.92-.98,1.02-.38,1.3-1.3,1.52-2.13.21-.84.89-1.22,1.14-1.5.25-.29-.8-1.27-.8-1.36,0-.08-.87.64-.87.64ZM974.95,362.56c-1.12-.83-1.74,2.08-2.05,3.57-.31,1.5-.68,2.48-.12,3.58.56,1.09.31,1.45.31,1.45l-1.61-1.22s-.43,1.39-.43,2.6-.5,1.73,1.36,2.6c1.85.87,2.48.4,2.72,1.73.25,1.32.25,1.9,1.49,2.13,1.24.23,2.66.75,3.16,1.56.49.81.25-2.14,1.12-1.96.87.18,1.86,1.27,2.48,2.25.62.98,1.54,1.04,1.54,1.04,0,0-1.42-2.36-.8-2.65.62-.29.8-.51-.81-1.5-1.61-.98-2.91-.75-4.15-.92-1.24-.17-1.24.87-2.17-1.56-.93-2.42-.18-3.92-.18-4.44s.68.81,1.43-.87c.74-1.67.93-3,.8-4.61-.12-1.61,1.12-2.25.18-2.31-.93-.06-3.65,0-4.27-.46ZM989.68,393.56c.19,1.17-1.11-.33-1.6.34-.49.67-.74.54-1.53.87-.79.33-2.69,2.1-2.69,2.1,0,0-.02-1.14.02-1.41s-.58-1.6-1.16-.69c-.58.91-1.14,1.49-2.44,2.14-1.3.65-2.11,1.6-2.27,2.77-.17,1.17.79,1.13.79,1.13,0,0,.51-.39,1.37-1.73.86-1.34,1.02-1.3,2.57-1.49,1.56-.19,1.44-.17,1.93.67.49.85.11,2.12.16,3.06.04.93-.05,2.05,1.55,2.59,1.61.54.84.05,2.3-.09,1.47-.13,1.44-.09,1.23-.83-.21-.73-.65-1.38-.75-2.25-.09-.87.85-1.23,1.14-1.4.3-.17.49.87.93,1.94.44,1.09.62,1.04.81.22.19-.82.69-2.76.51-3.81-.19-1.04-.28-1.84-.28-2.7s-.72-1.9-1.14-2.21c-.42-.31-1.86-1.58-1.86-1.58,0,0,.21,1.19.39,2.36ZM982.56,386.5s.03-.74-1.31-2.05c-1.35-1.32-1.38-1.7-3.44-2.06-2.05-.35-4.1.18-3.24,2.38.87,2.2,1.12,2.52,2.86,2.79,1.73.26,2.79-.68,2.79-.68,0,0,.13.35-1.51,1.38-1.63,1.03-1.83,2.99-.54,3.76,1.28.76,1.25,1.94,1.99,1.35.74-.58,1.28-2.61,2.79-4.02,1.51-1.41,1.6-1.61,1.8-3.11.19-1.5.03-2.7.03-2.7l-2.21,2.97ZM986.07,382.27c-.19.15-1.26-.11-.14.97,1.12,1.08,2.14,1.32,2,2.12-.14.81-.04.96-.67.87-.63-.09-.82-.24-1.09-.26s-.32.52-.14,1.02c.18.5.14-.07.67.78.53.85.4,1.13.56,2.1.16.97.58.5.58.5,0,0-.14-2.34-.07-2.81.07-.48-.19-1.63.6-1.26.79.37.58,1.76,1.05.46.47-1.3.26-2.45.03-3.48-.23-1.04-1.05-1.08-2-1.08s-1.37.09-1.37.09ZM970.04,386.27c-.46.11-.75.56-1.03,2.14-.28,1.58-1.16,2.4-2.11,3.33-.96.93-3.54,3.42-3.67,3.92-.15.49-.17.19,1.76-.72,1.93-.91,3.46-2.12,3.68-3.35.24-1.23-.22-.47,1.47-1.27,1.69-.8.83-1.06.9-2.32.07-1.25-.17-1.94-1.02-1.73ZM1072.6,433.51c-.21,1.6.46,2.08-1.03,3.26-1.49,1.18-3.16,1.18-4.74,1.45-1.58.26-.42-.26-2.38-.32-1.95-.06-2.45.09-1.55,1.07.89.98.68,1.93,3.56,1.82,2.88-.11,5.27-1.67,7.13-2.25,1.86-.58,1.7-2.08,1.86-2.77.16-.69-2.63-3.98-2.85-2.25ZM1080.64,436.97c.8,1.13.49.96,1.52,2.45,1.03,1.5,2.64,1.76,3.84,2.17,1.2.4,0-.43-.89-1.64-.9-1.21-.96-1.88-2.3-3.09-1.33-1.21-3.56-1.87-2.17.11ZM976.03,339.98c-3.97,2.52-5.76,2.34-4.18,5.54,1.58,3.2,2.57,4.56,2.79,5.16.21.6,1.02-.4,2.1-2.94,1.09-2.54,1.21-5.86,1.65-6.86.44-1.01-.99-1.76-2.35-.9ZM1044.01,215.54c.44,1.67.87,4.27-.12,4.55-.99.29-1.67,2.14-1.92,4.04-.25,1.9-.74,4.32.31,5.82,1.06,1.5.31,1.61.31,2.88s.37,4.5-.25,6.4c-.62,1.9-.99,2.37-.74,4.38.25,2.02,0,2.42,0,5.31s-.18,5.19-.06,6.34c.13,1.16.74-.57,1.17-.98.43-.4,2.11-.64,3.03.35l.94.98s1.48.63-.56-3.75c-2.05-4.39-2.41-3.46-1.86-7.44.56-3.98.87-4.03,2.97-4.44,2.11-.4,3.22,2.48,3.47,2.77.25.29-.19-.98-.93-3.23-.74-2.25-1.43-3-1.67-5.82-.25-2.83-1.12-5.2-2.23-6-1.12-.8-.56-2.14-.06-3.23.49-1.1.68-2.77.44-4.67-.25-1.9-.81-4.56-1.11-5.6-.31-1.04-1.55.63-1.55.63l.43.69ZM1042.15,259.72c.12,1.27.25,2.42-.62,3.86-.87,1.44-.25,1.79-.74,3.81-.49,2.02-2.91,0-2.91.41s-.37,1.85-.99,2.36c-.62.52-2.73.64-2.11,2.66.62,2.02,1.74,4.15,1.74,4.15,0,0,1.24-1.15,1.61-1.27.38-.11,1.36-.4,1.36-.4,0,0-.18-.58-1.55-1.21-1.36-.63-1.24-1.96-1.05-2.36.19-.41,1.92.11,3.03,0,1.12-.12,2.05-.69,3.41.4,1.36,1.09,3.35,1.5,3.35,1.5,0,0,.24-1.62.86-2.77.62-1.15,2.42-.64,4.22-1.15,1.8-.52,3.16-.81,2.54-1.56-.62-.75-.56-2.42-.94-3.69-.37-1.27-1.55-.06-2.48.4-.93.46-2.1.11-3.35-.69-1.24-.81-3.47-3.86-4.27-5.08,0,0-1.24-.63-1.12.64ZM1036.6,278.64c-.59.29-1.34,1.82-1.2,3.5.14,1.69,1.58-.13-.28,5.06-1.85,5.19-2.79,6.36-4.6,7.7-1.81,1.34-3.48,1.34-4.18.99-.7-.34.19-1.52.7-1.86.51-.34-1.58-.47-2.46-.34-.88.13-.05,1.13-.14,1.94-.09.83-1.81,3.03-1.62,4.03.18.99.18,1.3-.93,1.64-1.12.35-1.85-.83-2.18-1-.33-.17-2,.31-4.18.6-2.19.3-2.74,1.04-3.67,2.64-.93,1.6-3.12,1.86-4.69,2.46-1.58.6-.98,2.86-2.7,3.64-1.72.78-1.72,2.21-1.86,3.37-.13,1.17,1.07.35,1.25.26.19-.09.19-1.65,1.26-1.47,1.07.17,1.2.21.65,1.43-.56,1.21-.88,1.82-1.43,2.86-.56,1.04.18,1.52,1.02,2.56.84,1.03,1.63-.31,3.39-2.16,1.77-1.86,1.91-2.3,1.77-4.42-.14-2.12-.84-2.17-2.14-2.77-1.3-.61-1.58,0-.14-1.65,1.44-1.64,2.09-.04,3.07-.78.98-.74,3.35-.69,5.62-1.25,2.27-.56,4.46-1.29,4.55-.56.09.74.79,3.2.88,3.72.09.52,1.59-.74,3.11-1.3,1.54-.56.1-.82-.05-1.81-.14-1,.7-1.56.7-1.56,0,0,.79,1.65,3.25.48,2.46-1.17,2.65-1.65,3.3-1.47.65.18,1.07.83,2.09.18,1.03-.65,1.21-.05,1.03.48-.18.51,2.97-1,3.67-1.47.7-.48.33-.05.05-1.86-.27-1.81-1.16-1.94-.65-4.28.51-2.34.37-2.56.51-4.03.14-1.47.69-1.68,1.07-1.77.38-.08.38-2.03,1.16-3.07.79-1.04.6-1.52.6-3.9s-1.3-1.95-1.39-3.63c-.09-1.69.32-3.33.32-3.33,0,0-2.65,1-2.92,1.6l-.29.6s-.41-.43-1.3,0ZM1019.26,304.64c-2.74.46-4.68.75-6.31,1.27-1.63.52-1.98,1.24-1.72,2.86.25,1.63.89,3.26,1.12,4.1.22.85,1.11,0,2.65-.81,1.53-.82,1.43-3.19,2.9-3.19s.92,1.7,2.9-.68c1.98-2.38.48-2.57.54-3.77.07-1.2-2.07.22-2.07.22ZM1192.85,176.52c-2.94-.57-3.79-1.21-4.06-.15-.28,1.07-.59,1.42,1.27,2.08,1.86.67,2.79-.49,4.53.81,1.73,1.29,2.23,1.24,3.56,1.07s1.86-.84,1.86-.84c0,0-4.92-2.54-7.15-2.97ZM1159.3,130.3c-1.08.3-1.96-.74-1.67,1.9.27,2.63.88,2.94,4.27,2.46,3.39-.47.84-.13,5.49-.47,4.64-.34,5.62-1,5.62-1,0,0-.65-1.3-2.23-2.51-1.58-1.21-3.67.83-7.25.22-3.57-.6-4.22-.6-4.22-.6ZM1054.63,91.32c.05,1.01,4.64,3.85,6.31,4.67,1.67.83,2.97.47,6.51.09,3.53-.39,3.81-1.9,4.22-2.77.42-.87-1.67-.56-4.04-1.04-2.38-.48-4.32.43-5.16,0-.84-.43,1.25-.87-.84-1.65-2.1-.78-2.6.26-3.07-.09-.46-.35-.56-1.09-1.58-1.17-1.02-.09-2.42,1-2.37,1.94ZM1036.42,97.25c-1.6.64-1.49,1.21.32,2.72,1.81,1.52,1.21,1.17.42,2.25-.78,1.08,0-.05,2.6,1.12,2.6,1.17,3.67,3.29,5.3,3.77,1.63.47,2.74-.13,2.74-.13,0,0-.56-1.73-2.09-3.81-1.53-2.07-4.84-2.68-5.44-4.5-.6-1.82-1.58-2.34-3.85-1.43ZM1053,88.77s-2.36-1.43-5.95-3.68c-3.57-2.25-4.92-2.86-6.13-3.03-1.21-.17-1.02,1.26-1.49,2.38-.46,1.13-.79.91-2.65,0-1.85-.91-3.72-2.29-5.62-2.73-1.91-.43-3.06,1.13-5.25,3.29-2.18,2.16-.93,2.77,1.72,5.97,2.65,3.21,3.81,3.38,5.94,2.12,2.14-1.25,1.53-2.08,3.07-1.47,1.54.6,6.83-.6,7.02-.6s-.33,2.94,2,2.17c2.32-.78,4.46-1.17,5.53-2.34,1.06-1.17,1.81-2.08,1.81-2.08ZM892.13,26.98c-.68.57-4.64.23-6.69,3.46-2.04,3.24-3.46.98-4.52,2.94-1.05,1.96-1.92,4.33-1.92,4.33,0,0,1.86,2.19,3.84,2.02,1.98-.18,5.45.69,7.37,3.35,1.92,2.65,3.35,2.65,7.99,3.4,4.65.75,2.54,1.39,4.96,1.16,2.41-.24,5.76.29,5.02-.93-.74-1.21-1.3-1.96-.99-4.33.31-2.36,2.47-2.25-.07-3.81-2.54-1.56-4.34-.29-4.21-.58.13-.29,2.29-1.16,1.43-1.21-.87-.06-5.14-.29-5.64-2.71-.5-2.42,1.17-2.6,2.04-2.77.87-.17.62-.46-1.86-2.25-2.48-1.79-5.82-3.64-5.82-3.64-1.55.81-.25.98-.93,1.56ZM915.42,44.46c-1.8.35-3.28,2.14-4.33,3.69-1.06,1.56-3.16,3.92-4.46,4.96-1.3,1.04-.93,1.33,1.18,2.08,2.11.74,5.82-1.33,6.87-1.39,1.05-.06,1.86,1.56,5.2,1.15,3.34-.4,8.42-1.04,5.95-2.83-2.48-1.78-1.61-.92-4.34-3.11-2.72-2.19-6.19-2.36-6.19-2.36,0,0,5.64-1.9,4.28-2.02-1.37-.12-4.15-.18-4.15-.18ZM772.22,16.02c-3.24,1.16-2.11,1.73-4.21,3.41-2.1,1.67-.69,2.13,3.84,1.04,4.52-1.09,4.77-1.56,7.68-2.88,2.91-1.33-2.48-3.29-7.31-1.56ZM779.4,24.16c-3.04,1.35-2.23,2.77-1.42,3.92.8,1.15,3.03-.69,3.65.58.62,1.27.81.74,3.66-1.16,2.85-1.9,1.8-1.32.69-3.34-1.12-2.02-1.36-2.31-6.57,0ZM762.48,23.32c-1.95.93-1.95.82-.1,1.69,1.86.87,6.37,1.56,8.69.04,2.32-1.51,2.14-1.21-.79-1.64-2.92-.43-5.62-1.13-7.8-.09ZM733.77,26.82c3.02-.26,5.81-.38,8.23-.13,2.41.26,1.53,2.34-2.93,2.81-4.46.47.42,1.17,3.58,1.04,3.16-.13,1.12-2.73,3.77-3.64,2.64-.91,4.32-.35,7.47-1.47,3.16-1.13-1.81-2.21-5.48-2.12-3.66.09-4.88.3-7.99.09-3.11-.22-5.63,1.18-8.83,1.73-6.6,1.12-.83,1.94,2.19,1.68ZM757.46,27.64c-2.65,0-9.06,1.47-3.67,1.99,5.39.52,4.98.87,7.2.04,2.23-.82-.74-2.03-3.53-2.03ZM776.23,28.77c-3.78-1.25-3.86-.74-6.79-.61-2.92.13-4.08,1.95-2.18,2.72,1.9.78,3.2.47,4.78.22,1.58-.26,1.49-.74.47-1.13-1.02-.39,5.95-.47,3.72-1.21ZM792.12,24.1c-2.9.36-3.07.87-3.35,1.81-.28.95.42.74,3.48.35,3.07-.39,4.5-.82,6.5-1.9,2-1.08-.42-3.72-.42-4.2s-2.83,1.43-3.62,2.12c-.79.69.83,1.39-2.6,1.82ZM564.62,190.04c-1.46,4.04-3.87,5.9-1.02,4.78,2.85-1.12,5.7-4.59,5.55-1.61-.15,2.98-2.92,2.54-2.05,5.46.88,2.92.22,2.67,4.97,3.72,4.75,1.06.87.69,2.05,3.48,1.16,2.79,1.97,3.66.73,4.47-1.24.8-4.89-2.55-5.11-1.12-.22,1.43.51,2.48,1.39,4.47.88,1.98-.58,3.1-3.36,4.41-2.78,1.31-.37,2.11,1.75,1.99,2.12-.12,7.45-1.12,6.57.74-.87,1.86-3.43-.31-5.25,2.79-1.83,3.1-8.56,5.77-5.05,5.59,3.51-.19,3-1.12,13.45-2.61,10.45-1.49,3.21-.13,10.08-2.24,6.87-2.11,4.68-2.67.88-2.05-3.8.62,2.49-3.73,1.61-7.76-.88-4.04-3.36-.19-4.97-2.74-1.61-2.54-1.39-3.29,1.68-2.36,3.07.93,2.78-.62-3.15-4.4-5.92-3.79-2.26-3.04-4.97-6.21-2.7-3.17-7.3-2.79-7.3-2.79,0,0,1.97-1.18,3.14-3.48,1.17-2.3,1.39-2.11,2.63-4.9,1.25-2.79-1.24-2.54-4.38-1.87-3.15.68-4.17,1-3.51-.24.66-1.24,1.09-1.74,2.56-3.29,1.46-1.55,1.75-2.36-.95-1.74-2.7.62-3.11.56-5.4,1.61-3.51,1.61-1.1,3.85-2.56,7.88ZM557.24,199.53c-4.77,1.88-3.43,3.11-2.63,3.79.81.69,2.26-.62-2.19,1.93-4.46,2.54-4.53,5.33-2.19,5.89,2.34.56,2.05-1.36-.43,3.29-2.49,4.65-4.17,7.82.88,6.64,5.04-1.18,6.43-3.79,8.83-4.1,2.41-.31,2.85-2.23,2.85-5.15s-1.61-2.98.29-5.4c1.9-2.42,2.04-4.97-1.69-6.14-3.72-1.18-.73-1.93-3.72-.75ZM617.25,264.68c-.26.65.31,2.42-1.61,3.63-1.92,1.21.93,2.31,1.55,3.46.62,1.15,1.43-3.92,1.24-6.35-.18-2.42-.37-2.83-1.17-.75ZM616.32,274.25c-3.15,1.49-3.34,2.59-3.72,4.96-.37,2.36,2.54.46,1.8,2.53-.74,2.08-.06,3.17,3.22,1.22,3.28-1.96,1.43-3.75,1.92-6.23.5-2.48.93-4.44-3.22-2.48ZM664.88,299.75c-2.77-.27-3.99,1.47.74,1.99,4.74.52,6.87.6,8.64.17,1.76-.43.27-.09-2.05-1.64-2.32-1.56-3.81-.18-7.34-.52ZM691.26,301.22c-3.81-.82-2.78,3.81,1.12,3.12,3.9-.69,2.41.26,4.18-2.6,1.76-2.86-1.3.34-5.3-.52ZM596.37,279.73c-3.1.4-3.34,1.45-.93,2.08,2.41.63,2.1-.11,3.47-1.1,1.36-.98-1.17-1.15-2.54-.98ZM408.72,223.26c-1.9,1.51-4.09,3.72-6.78,8.57-2.69,4.84-2.41,4.33-5.02,7.01-2.6,2.68-1.3,2.08,6.78,3.64,8.08,1.56,7.43,2.77,9.29,2.25,1.85-.52,2.23,1.03,2.23,2.68s1.76.69,2.6-1.9c.84-2.6-.84-7.27-2.5-9.95-1.67-2.69-2.05-2.69-4.65-1.99s-1.77-.6-2.69-2.68c-.93-2.08-2.42-.43-.19-3.55,2.23-3.12,2.79-5.53.93-4.07ZM161.43,217.73c0,2.57,2.72,6.98,4.77,8.42,2.04,1.44,1.61.64.68-2.43-.93-3.05-.18-3.05-.62-5.02-.43-1.96-4.83-1.9-4.83-.98ZM175,231.8c.53.56,2.16,2.88,5.01,4.79,2.85,1.9,3.59,2.13,6.57,3,2.97.87,4.27-.29,2.35-2.02-1.92-1.73-.31-1.56-3.78-2.37-3.47-.8-4.21-.51-5.95-1.61-1.73-1.09-5.39-3-4.21-1.79ZM99.48,203.11c-2.23-.51-3.11-.6-4.65.6-1.53,1.21-1.95,2.25-1.11,3.59.84,1.34.32.6,2.27-.74,1.96-1.34,1.03-1.52,3.49-2.12,2.47-.6,1.95-1.43,1.95-1.43,0,0-.6.39-1.95.09ZM98.69,200.13c-1.5.9-2,1.64-.33,1.29,1.67-.35,1.44-1.29,2.51-1.08,1.07.21,1.44-.21,1.44-.21,0,0-2.04-.96-3.62,0ZM55.81,193.24c-2.04,1-3.98-.17-2.72.58,1.25.76,2.97,1.47,4.32,1.32,1.35-.15,2.23-.17,1.74-.82-.49-.65-.62-.82-.65-1.49-.05-.91-.65-.58-2.7.41ZM741.5,475.15c-2.36,5.2-7.32,2.66-11.28,6.46-3.96,3.81-3.35,2.65-.37,7.96,2.97,5.31-2.47,4.73-3.84,10.96-1.36,6.23,1.61,5.08,3.22,10.38,1.62,5.3,2.36,3.69,5.33,3,2.97-.69,5.08-2.08,5.08-2.08,0,0,.5-4.62,2.48-11.42,1.99-6.8,3.35-11.77,3.72-16.26.38-4.5.74-7.73,1.74-6.35.99,1.38,1.11,1.38,1.11-.81s-1.19-8.36-3.1-9.8c-3.35-2.54-1.74,2.77-4.08,7.96ZM744.97,120.31c-3.25.74-4.79,2.73-2.42,3.5,2.37.78,2.14.35,6.04-1.04,3.9-1.38-.42-3.2-3.62-2.47ZM805.66,61.36c-1.11-1.73-2.1.58-13.5,5.54-11.4,4.96-11.28.69-21.93,9.11-10.66,8.42-8.3,7.38-8.92,12.46-.62,5.07-3.1,2.88-4.09,7.5-.99,4.61-6.44,4.85-3.72,8.65,2.73,3.81,6.32,6,12.01,7.61,5.7,1.61,7.31-.11,6.08-.69-1.24-.58-5.58-7.38-4.71-15.11.87-7.73,3.72-6.58,6.2-9.46,2.48-2.88,8.92-10.38,13.13-12.92,4.09-2.47,14.99-5.91,20.48-7.8.16-.06.35-.04.45-.16,4.33-4.84-.37-3-1.49-4.73ZM774.94,113.21c-1.35.19-1.98.23.5,2.66,2.47,2.42,4.64,4.27,3.83,1.04-.81-3.23-3.1-3.86-4.33-3.69ZM815.63,89.74c-1.81-.85-2.78-1.73-3.22-.35-.43,1.39,2.05,3.23,4.46,3.69,2.41.46.49-2.54-1.24-3.35ZM389.18,234.92c-2.75-1.38-5.45-2.48-7.24-2.48s.37,1.9,3.22,3.46c2.85,1.56,5.64-.17,4.02-.98ZM382.62,246.51c.15-2.29-1.52,2.63.52,3.72,2.05,1.09,3.1,1.38,4.4.05,1.3-1.33.24-.49-1.55-.8-1.79-.32-3.5-1.07-3.37-2.97ZM1194.18,167.03c-3.34.35-5.85-.61-5.85-.61,0,0-.19,2.69-1.2,3.98-1.03,1.3-.29,2.68-.29,2.68,0,0-3.34-1.47-5.29-2.16-1.95-.69-3.72-.09-4.84-3.03-1.12-2.94-4.46-2.42-7.06-2.42s-1.85-3.37-1.85-3.37l-1.58.08c-1.58.09-1.3,3.9-3.35,5.11-2.05,1.21-8.46,1.99-8.46,1.99,0,0,4.09,2.94,4.93,5.36.83,2.42,2.41,4.76,2.41,4.76,0,0-.38,1.13-5.3.17-4.93-.95-4.64.96-9.94,3.11-5.3,2.16-11.33,5.46-12.82,6.67-1.49,1.21-1.58.52-6.22-.6-4.64-1.13-5.57,1.29-6.78,1.9-1.2.6-.74-2.77-.74-2.77,0,0-1.67,0-3.72,1.04-21.18,10.76-6.57,10.19-7.24,12.37,0,0-2.23,8.39-2.23,8.4-3.11,9.27-5.27,4.42-7.9,11.76-8.36,23.36-13.2-3.6-13.2-9.77,0-3.81-.83-8.74,1.58-9.86,20.79-9.68,1.95-1.34,21.46-14.71,6.32-4.33,2.88-6.92,4.27-8.13,1.4-1.21,3.63-1.56,3.63-1.56l-3.44-.34c-3.44-.34-3.53.43-6.23,3.37-2.69,2.94-4.83,3.46-4.27,1.21.56-2.25.65-4.58-1.39-3.37-2.04,1.21-2.88,1.03-6.69,1.82-3.81.78-7.9,2.59-11.33,6.92-3.44,4.33-1.49,3.81-.37,4.84,1.11,1.04-5.49.78-8.64.52-3.17-.26-1.49-.87.37-1.47,1.86-.61-2.79-1.12-6.88-1.99-4.08-.87-2.51.69-4.92,1.64-2.42.96-2.32-.86-3.53-1.12-1.21-.26-6.6-.6-10.4-1.04-3.81-.43-3.53.26-4.55,1.56-1.03,1.3-8.08,7.53-11.15,11.08-3.07,3.55-6.87,4.33-10.31,7.61-3.44,3.28-3.99,3.11-1.21,3.64,2.79.51,3.16.25,3.62,2.85.47,2.6,1.77,3.46,4.74,3.46s2.14.78,2.69-1.47c.56-2.25-.74-4.84,1.77-2.86,2.5,1.99,4.55,3.46,5.29,6.32.75,2.86-.19,4.93-1.49,9.69-1.3,4.75-1.76,11.59-3.53,15.05-1.76,3.46-3.16,6.06-5.11,9.86-1.95,3.81-11.43,13.41-13.56,14.28-2.14.86-3.53.95-4.55-.95-1.02-1.9-1.77-1.56-4.18.6-2.41,2.16-3.53,3.46-4.46,6.92-.93,3.46-2.98,3.46-5.11,6.06-2.13,2.59-2.69,1.99-1.12,4.93,1.58,2.94,4.18,6.06,4.46,8.91.28,2.86-1.3,7.01-2.32,8.83-1.03,1.81-5.85,2.68-5.76,1.81.1-.87.18-5.19,0-7.7-.19-2.51-2.05-2.51-1.4-3.29.66-.78,3.35-2.08,1.4-3.9-1.95-1.81-3.35-.26-4.18-2.42-.84-2.16.37-3.9-.09-4.67-.47-.78-1.86-1.64-4.74-1.9-2.88-.26-3.53,2.59-4.19.08-.65-2.51.29-2.77-1.02-3.8-1.3-1.04-2.42-.35-5.76,2.51-3.35,2.86-4,2.25-6.79,3.46-2.79,1.22-2.79,1.9-2.14,2.86.65.95,2.97,5.1,4.92,5.53,1.95.44,3.35-.87,6.32-.87s3.53.43,2.79,1.56c-.75,1.13-2.79,2.25-6.41,5.89-3.62,3.64-2.52,2.94-1.3,4.42,1.21,1.47,2.97,3.28,4.27,6.14,1.3,2.85,0,3.89-.18,5.53-.19,1.65-.47,4.16,1.95,6.76,2.41,2.59.74,1.73.46,2.68-.27.95-4.37,8.39-6.22,12.11-1.86,3.72-1.86,4.06-7.9,8.3-6.04,4.24-8.74,4.67-11.99,5.27-3.25.61-6.04,1.56-7.71,2.25-1.67.69-1.02,2.08-1.2,2.94-.2.87-1.77.09-1.49-1.21.28-1.3.1-2.25-.74-2.59-.84-.35-3.44-1.39-6.13,1.21-2.7,2.6-5.95,2.77-7.07,6.06-1.11,3.28-.92,2.16.29,3.55,1.2,1.38,7.06,7.01,8.45,10.03,1.39,3.03,1.67,5.29,1.77,8.57.09,3.29-6.69,9.35-9.66,11.33-2.97,1.99-3.63,3.89-3.16.78.46-3.11-1.3-4.93-3.44-7.27-2.14-2.34-8.64-4.24-9.85-4.5-1.2-.26.47-2.16-.38-2.08-.83.09-2.78-.43-2.5,2.6.27,3.03-1.95,2.07-2.41,5.11-.47,3.03-1.03,6.14.93,5.88,1.95-.26,1.58,2.68,3.07,5.97,1.49,3.28.92,1.47,4.64,4.5,3.72,3.03,2.79,2.51,3.63,5.54.83,3.03.56,4.76,2.42,7.53,1.85,2.77,1.95,3.37-1.12,1.81-3.07-1.55-5.57-3.46-6.78-5.36-1.21-1.9-1.94-6.75-2.69-9.17-.75-2.42-5.76-5.28-7.43-7.01-1.67-1.73-.65-3.11.18-7.09.83-3.98-.37-7.79-.65-10.21-.27-2.43-2.23-9.21-3.16-11.51-.93-2.29-.56-1.99-2,0-1.44,1.99-2.55,3.2-3.95,3.2s-3.43-.22-3.25-1.13c.19-.91,1.58-4.37,1.16-5.67-.42-1.3-1.72-5.45-3.67-6.92-1.95-1.47-4.19-3.5-5.44-6.92-1.25-3.41-1.58-2.42-3.99-.65-2.42,1.77-7.95,1.99-10.59,2.21-2.65.22-.46,1.52-1.11,2.81-.65,1.3-3.76,2.98-10.03,9.52-6.27,6.53-7.22,6.75-8.84,7.44-1.63.69-2.64.47-2.59,3.15.04,2.68.29,4.14-.02,6.54-.31,2.39-1.02,3.37-1.71,4.9-.67,1.53-1.41,4.3-1.63,5.74-.22,1.44-1.61,3.11-3.66,4.58-2.04,1.47-2.04,1.21-2.97-.95-.93-2.16-5.76-10.47-9.66-18.25-3.9-7.78-2.97-9.17-3.35-11.42-.37-2.25-.45-15.75-.28-16.78.1-.58-1.89,1.58-2.45,2.68-.56,1.1-.53,2.43-2.75,2.63-2.23.2-2.7.23-4.8-1.87-2.11-2.1-3.07-3.28-2.7-3.23.38.06,2.79-.23,4.19-.92,1.39-.69.92-1.45.92-1.45,0,0-1.51.17-3.31.26-1.8.09-.99-.4-3.37-1.36-2.39-.95-2.92-1.04-3.32-2.1-.4-1.07-.99-2.57-1.33-3.38-.34-.8-.62-.87-1.02-1.87-.4-1.01-1.55.17-4.12.23-2.57.06-1.98.17-5.08,1.38-3.1,1.21-3.56.78-7.06.67-3.5-.11-5.94-1.62-7.71-2.22-1.76-.6-2.04-.35-4.64-.72-2.6-.37-2.04-1.7-2.7-2.8-.65-1.1-1.73-1.36-5.14-1.1-3.4.26-3.53.09-5.44-.43-1.92-.51-2.08-1.21-3.69-2.83-1.61-1.62-1.08-.34-2.14-1.18-1.05-.83-2.1-1.98-2.94-4.24-.84-2.25-.65-2.74-1.61-3.78-.96-1.04-.89-.78-3.9-.78s-1.63.2-2.01.4c-.37.2-1.3,1.53-2.14,2.57-.83,1.04.68,2.48,1.89,3.9,1.21,1.41.16,1.27,2.08,3.4,1.92,2.14,1.27,1.93,2.63,4.9,1.36,2.97,2.23,3.72,2.54,4.62.31.89.59-.35.9-1.16.31-.81-.12-3.69-.12-3.69,0,0,.59,1.21,1.11,3.35.53,2.13.16,2.16.53,3.52.38,1.36,0,1.18,2.32,1.18s3.75.09,6.32-.51c2.57-.6,3.68-2.94,4.89-3.64,1.21-.69,1.21-3.12,2.01-2.86.8.26.04,2.86.78,4.55.74,1.7.93,1.09,2.73,1.85,1.79.75,2.29,1.18,4.11,1.87,1.83.69.59.78,1.58,2.6.99,1.82.93.81,1.89,1.44.96.63.59.17-.09,2.34-.68,2.17-.8,2.19-2.41,3.95-1.61,1.76-1.61,1.21-1.86,1.16-.24-.06-.74-1.3-.74-1.3,0,0-1.03,2.1-1.18,4.56-.16,2.45.81,1.55-2.14,2.74-2.94,1.18-4.71,1.67-5.85,2.66-1.14.98-1.14,2.28-1.8,2.91-.65.63-1.55.06-3.53.75-1.98.69-1.43.55-3.1,1.82-1.67,1.27-.19,1.15-2.32,1.96-2.14.81-6.01,2.68-7.96,2.89-1.95.2-1.55.72-2.04,1.44-.5.72-.53,1.09-3.01,1.47-2.48.38-5.57.73-7.09,1.47-1.52.75-3.75,2.42-5.35,2.1-1.61-.32-1.18-.38-1.7-1.82-.53-1.44-.81-2.48-1.05-4.84-.25-2.37-1.09-5.97-2.45-8.25-1.36-2.28-1.33-2.43-2.81-4.82-1.49-2.39-2.48-4.41-3.78-5.33-1.3-.92-1.95-.98-2.57-1.67-.62-.69-.25-3.06-.89-5.08-.65-2.02-1.09-3.98-2.05-5.11-.96-1.12-2.45-2.42-3.78-4.81-1.33-2.4-1.42-2.66-3.34-6.35-1.93-3.69-2.61-4.15-3.88-6.63-1.27-2.48-.44-1.99-.9-3.46-.47-1.47-1.67,2.39-2.63,3.15-.96.75-1.45.38-2.23-1.82-.77-2.19-1.43-4.12-2.01-3.26-.59.86-1.05,1.73-.25,4.07.81,2.33,1.18,1.84,2.23,4.06,1.05,2.22,3.93,7.79,5.11,10.1,1.18,2.3.71,1.18,1.8,4.67,1.09,3.49,1.7,3.92,3.15,5.36,1.46,1.45,1.21.69,1.86,3.06.65,2.36.4,5.13.5,6.58.09,1.44.89,2.19,2.63,3.63,1.74,1.44.87.92,1.67,2.45.81,1.53,1.61,3.69,2.08,5.19.46,1.5,1.02,2.54,2.38,3.2,1.36.66,1.74.75,3.1,1.24,1.36.49.89.83,1.82,2.02.93,1.18,2.73,2.07,3.85,3.95,1.11,1.87.37,1.32.3,3.14-.06,1.82-.65.98.16,1.93.81.95,2.2,1.73,4.55,3.28,2.36,1.56.47.47,2.57.41,2.11-.06,2.54-.61,4.8-1.1,2.25-.49,5.17-1.33,7.96-1.99,2.79-.66,5.51-1.09,6.94-1.56,1.43-.46,1.46,1.1.37,3.52-1.09,2.42-1.61,4.44-2.54,6.4-.93,1.96-1.27,2.13-1.95,3.72-.68,1.58-5.27,8.07-6.22,10.12-.96,2.05-2.11,3.69-3.5,5.4-1.4,1.7-5.76,4.78-7.81,6.43-2.04,1.64-1.52,1.64-3.03,3.58-1.52,1.93-6.13,7.29-7.38,9.2-1.24,1.9-1.94,2.6-2.88,4.47-.93,1.88-3.56,4.53-3.72,5.88-.16,1.36-1.64,1.53-.53,2.72,1.12,1.18,1.7,1.38,2.11,2.88.4,1.5-1.24,3.2-.18,5.94,1.05,2.74.31.78,1.89,2.97,1.58,2.19,1.52,3.58,1.67,6.78.16,3.2.31,6.37-.18,8.45-.49,2.07-1.18,3.43-1.89,5.31-.71,1.87-4.62,3.15-6.91,4.15-2.29,1.01-2.19.6-3.25,1.88-1.05,1.27-4.08,3.92-5.11,5.88-1.03,1.96-1.8,1.76-1.39,3,.4,1.24,1.26,2.86,2.32,5.16,1.05,2.3.31,2.13.06,4.13-.25,1.99-.22,1.67-.49,4.09-.29,2.43-3.13,2.48-6.38,3.75-3.25,1.27-2.08.64-2.45,2.39-.37,1.76-.15,5.22-.28,7.29-.12,2.08-1.11,1.24-2.88,3.81-1.77,2.56-2.48,3.78-4.37,6.87-1.89,3.08-1.73,2.65-4.12,4.59-2.38,1.93-4.27,2.42-5.32,4.64-1.05,2.22-2.26.75-7.37,2.39-5.11,1.65-1.39.84-6.25,1.38-4.86.55-6.6.93-9.17,1.39-2.57.47-2.23-.14-3.81-1.87-1.58-1.73-1.83-1.59-2.53-3.03-.72-1.44-.19-1.79-.41-4.39-.22-2.59-.43-2.68-1.39-4.3-.96-1.61-.9-1.87-1.95-4.44-1.05-2.57-1.52-3.29-2.7-5.02-1.17-1.73-1.52-1.18-2.6-2.31-1.09-1.13-1.12-2.11-1.36-3.69-.25-1.58-.62-5.33-1.14-9.29-.53-3.95-.06-1.85-.69-3.52-.61-1.67-1.36-3.69-2.41-5.91-1.05-2.22-.68-1.65-2.29-4.39-1.61-2.74-1.46-2.36-2.48-4.75-1.02-2.4-1.17-1.33-1.23-2.25-.07-.92.52-2.59.59-4.21.06-1.62.59-3.49.98-5.97.41-2.48-.55-2.45.5-4.15,1.05-1.7,2.14-3.26,2.82-5.19.68-1.93.58-2.02.58-4.47s-.25-2.25-.99-4.3c-.74-2.05-1.02-4.44-1.92-7.73-.9-3.29-.87-3.17-1-4.44-.12-1.27-.74-4.13-1.36-5.85-.62-1.73-.93-1.04-2.29-2.16-1.36-1.13-.47-.64-1.64-1.88-1.18-1.24-.96-1.64-2.11-3-1.15-1.36-1.3-1.41-2.23-2.94-.92-1.53-.43-.6-.3-3.17.12-2.56.86-7.47,1.33-10.3.46-2.83.56-2.68-.53-3.86-1.09-1.18-1.86-2.88-2.7-3.17-.84-.29-2.85.29-5.79.23-2.94-.06-2.82-.72-4.08-2.19-1.27-1.47-2.95-3.52-3.54-4.06-.59-.55-1.61-.52-6.62-.15-5.02.38-1.98.47-5.33.98-3.34.52-4.64,2.27-7.21,3.17-2.57.89-3.31.66-7.83-.23-4.52-.89-6.78,1.04-9.08,2.02-2.29.98-3.41.51-5.08-.64s-2.66-2.11-5.24-3.37c-2.56-1.27-1.98-1.96-4.52-3.2-2.54-1.24-1.71-1.3-3.81-3.29-2.11-1.99-2.26-4.01-3.72-6.09-1.45-2.08-2.7-4.99-4.65-7.18-1.95-2.19-3.87-6.6-4.83-7.93-.96-1.33-1.7-1.45-1.67-2.08.03-.63,1.89-4.35,2.67-6.29.78-1.93.99-1.67,1.33-2.88.34-1.21-.46-4.7-1.2-6.6-.75-1.91-1.58-5.91-2.16-7.79-.59-1.87.3-1.9,1.02-2.97.71-1.07,2.41-3.29,4.18-6.58,1.76-3.29,2.76-4.91,3.68-6.44.93-1.53,3.06-6.22,4.46-7.49,1.39-1.27,4.95-3.81,6.47-4.59,1.52-.78,2.76-1.21,3.01-1.9.25-.69.89-6.4,1.33-8.79.44-2.4-.15-3.72,1.58-4.64,1.74-.92,4.52-2.66,5.98-3.46,1.45-.8,1.67-2.02,2.41-3.77.74-1.76,1.06-3.98,2.17-4.7,1.11-.72.8.32,2.26,1.3,1.45.98,1.7,1.04,2.39,1.21.68.18,1.3-.55,3.01-.58,1.7-.03,1.89.2,2.91.75,1.02.54.46.55,3.38-1.24,2.91-1.79,5.23-2.88,9.04-4.3,3.81-1.41,6.41-2.19,8.17-2.39,1.76-.2.87.02,2.85.81,1.98.78,2.07,1.12,2.48.54.4-.58,1.7-2.19,2.54-2.13.84.05,1.8.4,3.93.78,2.14.38,3.03.17,3.9-.29.86-.46,1.98-1.38,2.19-1.38s2.05.64,3.53,1.18c1.49.55,1.52.63,1.21,1-.31.38-.74.78-1.45,2.39-.71,1.62-.38.75.31,2.45.68,1.7,1.18,1.61.87,2.86-.31,1.24-1.7,2.39-2.72,3.6-1.02,1.21-.77,1.41,1.74,2.83,2.51,1.41,1.92,1.18,4.74,2.45,2.82,1.27,2.94.81,6.22,1.79,3.28.98,2.88,1.09,4.02,2.43,1.15,1.32,1.21,2.59,3.19,3.28,1.98.69,4.09.69,5.24,1.41,1.15.72,2.07,1.76,3.63,2.05,1.54.29,1.54.49,2.29-.64.75-1.12,1.36-2.13,1.09-2.71-.28-.58-1.12-1.47-.93-2.02.19-.55,1.49-2.74,1.89-3.4.41-.67,1.43-.84,3.88-.96,2.45-.11,4.15-.46,4.55.98.4,1.45.31.78,2.2,1.56,1.89.78,2.08.78,3.66,1.38,1.58.6.78,1.47,1.58,1.41.8-.06,2.11-.17,3.59.26,1.49.43,4.21,1.73,7.09,1.85,2.88.11,3.99-.75,4.43-.96.43-.2,2.48-2.7,3.69-.98,1.2,1.73,2.78,1.76,5.82,1.58,3.04-.17,3.07-.63,3.75-1.41.68-.78,2.51-3.72,3.1-5.74.58-2.02,2.19-6.43,2.63-8.42.44-1.99-.03-3.55-.18-4.73-.16-1.18.13-1.99.59-3.32.46-1.32-1.46-.52-2.23-.26-.77.26-.99-.4-1.7-.61-.71-.2-1.46-.38-1.98.96-.53,1.32-.28,1.99-3.13,1.85-2.85-.15-2.32-.32-3.25-1.33-.93-1-2.51-1.27-3.78-1.64-1.27-.38-1.39-.32-1.48.49-.09.81-.12,1.36-1.05,1.67-.93.32-3.03-.06-4.8-.89-1.76-.84-2.29-1.24-4.03-2.94-1.74-1.7-1.48-1.7-2.2-4.32-.71-2.63-.71-4.88-.4-5.65.3-.78.8-1.01-.53-.6-1.34.4-2.23.63-1.34-1.36.9-1.99,1.73-2.08,2.67-2.34.93-.26,2.35-.29,4.12-.4,1.76-.12,3.12-1.01,3.75-1.27.62-.26,1.9-.69,1.24-.87-.65-.17-2.6-.38-2.26-.92.34-.55.56-.52,1.61-.63,1.06-.12,2.7-.18,4.09-.26,1.39-.09,2.23.17,2.7-.67.46-.84,1.05-2.08,2.13-2.74,1.09-.66,2.26-.32,5.11-.43,2.85-.11,2.41.58,3.34,1.24.93.66,1.55.34,2.76.58,1.2.23.46.95,1.39,1.33.93.38,2.63.75,4.71,1.41,2.08.66.71.38,3.25.38s2.45.02,4.46-.32c2.01-.35,2.85-1.1,4.27-2.11,1.43-1,.43-3.2-.09-4.9-.53-1.7-2.76-2.79-3.78-3.57-1.02-.78-3.22-3.26-4.39-4.27-1.18-1.01-2.54-1.3-3.84-2.02-1.3-.73-3.62-1.91-3.84-2.86-.22-.95.5-.98,2.42-1.44,1.92-.47,1.3-.87,1.67-1.88.38-1,.53-.98,2.11-1.56,1.58-.58-1.82-1.79-2.29-2.45-.46-.67,1.05-.47,2.63-.84,1.58-.38,1.71-1.12,1.92-1.79.22-.66.15-.98-1.7-.95-1.85.02-4.21.8-7.34,1.64-3.13.83-1.7.87-3.59,2.34-1.89,1.47-2.01.83-1.76,1.64.25.81.37,1.58,2.29,2.6,1.92,1,1.11,1.04,1.65,1.18.53.14,1.83.34,1.24.52-.59.17-1.12,1.09-1.99,1.09s-1.24.89-2.72,1.73c-1.49.84-2.14.95-3.22,1.13-1.08.17-1.86-.18-1.71-2.02.16-1.85-.56-.6-1.7-1.03-1.14-.44-1.58-.93-1.58-.93,0,0,1.15-.4,2.3-1.12,1.15-.72,1.67-1.15,2.23-2.57.56-1.41-1.24-.64-2.54-.81-1.3-.17-.93-.29-2.2-.46-1.27-.17-1.76-1.18-1.76-1.18,0,0,.58.23,1.67.11,1.08-.11.84-.4,1.24-.69.4-.29.72-.55.4-.55s-1.64.14-2.54.09c-.9-.06-1.43-.2-2.73,0-1.3.2-.78.69-1.7,1.29-.93.61-.96.81-1.45,1.71-.49.89-.65.75-.99,1.32-.34.58-.31,2.02-.31,3s-.25,1.29-.84,2.1c-.59.81-.59.46-1.58.95-.99.49-.34.84-.46,1.82-.12.98-.47,1.36-.56,2.63-.09,1.27-.59,1.32-1.36,2.22-.78.89-1.21.89-1.27,1.82-.07.92-.22,1.33,0,3.11.22,1.79.71,1.33,2.11,3.14,1.39,1.82,2.14,1.13,1.64,2.05-.49.92-.4.58-2.11.38-1.7-.2-1.98.06-3.21,1.24-1.24,1.18-1.49,1.85-2.14,2.28-.65.43-.43-.87-.68-1.47-.25-.6-3.1-.8-5.05-1.39-1.95-.58-2.48-.92-2.97-.92s-1.25-.11-3.3,1.01c-2.04,1.12-1.58,1.77-1.44,3.24.14,1.47,1.76,1.77,1.3,5.23-.47,3.46,1.72,1.86,2.65,3.98.93,2.12.09,1.94-.46,2.21-.56.26-1.12,2.08-1.54,3.81-.42,1.73.04,1.95-.47,1.86-.51-.09-1.11.3-2.09-1.13-.98-1.43-1.76-.08-1.91-.91-.13-.83-1.35-2.21-.88-4.11.46-1.91,1.21-2.08-.47-3.07-1.67-1-1.25-1.13-2.04-3.16-.79-2.03-.98-2.42-2.5-4.28-1.54-1.86-1.4-1.34-.98-3.2.42-1.86.74-4.28-.19-5.58-.93-1.3-4.78-4.89-7.94-6.58-3.16-1.68-3.81-.39-5.2-3.07-1.39-2.68-2.03-5.49-4.36-7.14-2.32-1.64-1.16-1.77-3.39-.95-2.23.82-2.28,1.17-2.09,1.81.19.65.7,1.52.37,3.29-.33,1.77-.79,1.21,1.54,2.59,2.32,1.39,1.35,1.09,2.51,3.64,1.16,2.55,1.35,3.03,2.28,4.07.93,1.04,1.25,1.94,3.58,2.47,2.32.52,1.95-.13,2.55.43.61.56-1.63.78-1.2,1.04.42.26.93,1,2.88,2.21,1.95,1.21,3.95,2.47,4.46,3.42.51.95,2.23,4.54-.28,1.9-2.51-2.64-2.55-1.42-3.25.39-.7,1.82.65,3.2.56,4.54-.09,1.34-1.26.83-2.05,1.9-.79,1.08-1.21,2.38-2.14,3.07-.93.69-.65-.78-1.16-.78s-.7.65-1.35,1.9c-.65,1.25,0,1.78.27,3.46.28,1.69.75,1.82-1.07,1.73-1.81-.09-1.4-1.78-3.06-2.9-1.67-1.12-2.65-.74-4.04-1.61-1.39-.86.6-1.08,4.09-1.51s3.9-.78,4.97-1.6c1.07-.83.69-1.04,1.86-2.68,1.16-1.64,0-2.3-.79-4.29-.79-1.99-2.28-2.89-2.79-3.28-.51-.39-1.67-1.56-2.69-2.68-1.03-1.13-2.1-1.3-3.86-1.73-1.76-.43-1.44-2.03-2.41-2.51-.98-.47-1.95-1.86-4.18-3.94-2.23-2.07-1.39-3.64-2.41-5.45-1.02-1.82-2.04-3.2-4.28-3.2s-3.9,1.56-6.13,3.72c-2.23,2.16-1.76,3.2-4.37,1.56-2.6-1.65-3.53-1.47-5.39.09-1.85,1.56-2.23,3.12-2.23,6.23s-2.23,1.82-3.99,2.68c-1.76.87-3.35,3.03-6.04,8.14-2.7,5.11.18,2.68-.38,4.41-.56,1.73.19,3.12-2.32,5.36-2.51,2.25-1.4-.26-2.88,1.56-1.49,1.82-3.54,3.29-7.06,2.86-3.53-.43-2.51.95-4.74,1.47-2.23.52-3.43,1.3-2.88-1.21.56-2.51.09-2.16-4.18-1.99-4.28.17-5.76,1.3-5.39.69.38-.61.56-1.65,1.03-4.07.47-2.42,1.11-3.2.47-3.2s-2.05.35-1.03-3.98c1.03-4.33,1.39-5.11.93-7.61-.47-2.51.18-5.89-.37-7.36-.56-1.47,1.11-2.94.37-3.72-.74-.78-1.58-1.81-1.02-1.81s2.88.09,5.85.6c2.98.52,6.04-.43,7.81-.26,1.76.18,5.48.95,9.19,1.56,3.72.6,3.62-.52,3.26-5.97-.38-5.45.28-7.96-.84-9.08-1.12-1.13-2.32-1.04-3.53-2.51-1.21-1.47-.28-3.64-2.88-4.42-2.6-.78-5.49-.17-4.09-.69,1.39-.52,1.95-.69.47-1.82-1.5-1.12-1.87-2.33-.75-2.51,1.12-.17,4.27-.17,4.27-.17,0,0,.28,1.56,1.96.87,1.67-.69,3.81-1.38,3.35-2.51-.47-1.13-1.3-2.51-1.03-2.51s.94,1.56,4.46,1.56,3.25-.52,2.98-1.99c-.28-1.47,2.32-1.38,4.09-2.6,1.76-1.21-.65-2.59-.28-3.72.37-1.13,2.41-1.82,6.04-2.07,3.62-.26,2.97-.87,2.6-1.3-.37-.43.09-2.25.37-4.59.29-2.34-.27-3.12,1.58-4.24,1.86-1.12,1.3-.69,5.11-1.04,3.81-.34,1.48-1.21,2.13-1.38.66-.18,5.2-1.3,6.04-1.65.84-.34.75-.25,0-1.9-.75-1.64-1.76-2.59-2.6-10.2-.84-7.61-.65-7.61,3.99-9,4.65-1.38,3.63-.95,3.25,3.29-.37,4.24-2.41,4.24-2.88,7.35-.47,3.11-.09,5.02,1.86,8.31,1.96,3.29,1.77,1.64,5.95,1.64s3.25,1.04,6.04,1.99c2.79.95,1.86-1.73,4.56-2.68,2.69-.95,2.13.61,8.45-.34,2.41-.36,3.23-.45,3.42-.47-.19.01-.89.02-.17-.4,1.49-.87,1.86-2.42,4-2.68,2.14-.26,3.62.61,3.52-2.68-.09-3.28-1.3-2.76-.93-5.28.38-2.51.46-1.38.65-3.37.19-1.99-.27-2.34,2.42-3.03,2.7-.69.84,2.42,4.08,3.11,3.25.69,2.79,1.21,3.35-1.3.56-2.51,2.32-5.8.74-5.62-1.58.18-1.95-.09-3.53-2.42-1.58-2.34-2.5-2.86-1.48-2.86s4.46-.95,9.38-.78c4.92.17,6.32.6,6.6.09.28-.52-.83-1.03.84-2.07,1.67-1.04,7.16.52,6.32-.43-.84-.95-5.67-2.25-8.92-1.73-3.25.51-11.15,1.47-12.36,1.38-1.21-.08-3.44-.95-3.99-1.55-.56-.61-2.32-1.04-2.32-3.9s1.03-3.98-.65-6.75c-1.67-2.77,3.06-5.11,6.32-8.05,3.25-2.94,2.42-5.37,4.36-5.54,1.96-.17,2.7-1.21,1.77-2.17-.93-.95-4.37-4.24-6.04-4.58-1.67-.34-4.18-2.25-6.78,2.25-2.6,4.5.18,4.93.65,7.27.47,2.34-3.63,4.07-6.69,6.23-3.06,2.16-4.18,1.65-5.11,7.18-.93,5.54-1.86,5.71,1.58,7.61,3.44,1.91,4.09,2.86,2.51,4.5-1.58,1.65-4.93,1.56-6.97,5.46-2.04,3.89-1.2,5.79-2.04,7.52-.84,1.73-3.43,2.51-4.18,4.24-.74,1.73-.74,5.02-3.9,4.5-3.16-.52-1.39-4.76-2.79-6.93-1.39-2.16-2.51-3.98-4.18-6.66s-.37-5.28-1.95-6.67c-1.58-1.38-1.95-4.15-1.95-4.15l-.56,1.3c-.56,1.3-.28,2.08-3.44,5.97-3.16,3.89-7.9,4.15-10.22,3.2-2.32-.95-1.95-3.2-1.95-6.06s-.56-6.66-.09-11.16c.47-4.5,1.77-4.15,6.7-7.09,4.92-2.94,5.01-2.77,6.22-4.67,1.2-1.9,4.74-4.59,6.78-6.32,2.05-1.73,5.58-8.3,7.43-12.98,1.86-4.67,5.29-7.53,8.64-12.54,3.35-5.02,9.29-9.43,16.91-12.63,7.62-3.2,6.32-3.55,8.08-6.06,1.77-2.51,2.52-1.04,5.49-1.64,2.98-.6,2.51,0-.47,2.94-2.97,2.94-4.27,6.06-1.76,3.72,2.51-2.34,4.46-5.11,8.36-4.93,3.91.17,2.32,0,6.14,1.73,3.81,1.73,4.46,1.9,2.33,3.28-2.15,1.38-5.77,1.04-5.77,1.04,0,0,1.21,2.86,4.74,3.29,3.53.43,5.48-2.77,7.81-1.56,2.32,1.21,2.97,2.07-.19,1.82-3.16-.26-4.08,1.73-.18,3.11,3.91,1.38,4.27,1.56,9.38,2.25,5.11.69,7.34,4.41,11.24,6.06,3.91,1.65,8.46.26,7.16,3.81-1.3,3.55,1.02,7.01-5.76,8.65-6.78,1.64-6.6-.52-12.26-2.25-5.67-1.73-9.66-3.46-9.66-3.46,0,0,1.48,1.99,4.08,4.42,2.6,2.42,2.88,4.67,2.6,9.08-.28,4.41-1.49,5.62,2.98,7.78,4.46,2.17,3.81,1.56,5.2,1.21,1.4-.35,3.72-.78,3.16-1.47-.56-.69-1.02-1.98-2.51-2.68-1.49-.69-1.58-2.34-.09-3.12,1.48-.78,2.88.69,6.13.52,3.26-.17,0-1.21,1.58-2.85,1.58-1.65,1.68-4.41,5.49-5.89,3.81-1.47,7.89.69,8.92-.95,1.02-1.64,2.14-3.55,0-6.06-2.14-2.51-3.81-3.37-2.51-4.59,1.3-1.21,3.9-4.41,5.11-2.59,1.2,1.82,4.27,3.81.37,3.46-3.91-.34-1.21,5.8,2.32,5.45,3.53-.35,3.25-1.47,6.13-2.86,2.88-1.39,8.54-5.97,12.54-7.36,3.99-1.39,4.83-1.04,6.41-.34,1.58.69,1.58,1.99,5.95,1.12,4.37-.87,5.67-1.9,9.75-2.6,4.09-.69-.28,1.47,1.58,2.07,1.86.61,2.05,1.13,3.44.18,1.39-.96,5.85-2.51,3.81-4.07-2.05-1.56-3.54-2.6-3.54-2.6,0,0,1.49-3.28,5.39-3.03,3.9.26,9.84,3.89,13.66,6.49,3.81,2.59,8.46,8.13,8.46,8.13,0,0,1.67-2.85.27-7.61-1.39-4.75-4.92-3.63-4.92-8.13s-3.26-3.29-2.14-6.49c1.12-3.2,4.27-4.42,5.11-8.48.83-4.06,1.58-7.43,4.46-7.43s9.1.86,9.1.86c0,0,0,3.72-2.32,9.26-2.32,5.53,1.21,6.14.65,12.89-.56,6.75-.65,7.61.93,9.17,1.58,1.56,4.56,3.46,3.44,6.4-1.11,2.94-1.67,4.76-5.85,6.4-4.18,1.64-9.48.69-7.53,1.99,1.96,1.29,4.46,2.42,7.25,2.85,2.79.43,1.39-.17,3.62-1.99,2.23-1.82,7.25-5.45,7.06-7.18-.18-1.72-2.88-4.41-1.02-5.71,1.86-1.29,2.6-3.28,5.48-1.64,2.88,1.64,5.67,7.79,5.67,7.53s-.56-6.06-3.99-9.51c-3.44-3.46-9.1-.18-9.1-3.2s1.58-7.18,1.2-10.47c-.38-3.28-1.67-6.58.47-9.43,2.14-2.86,2.23-5.11,2.23-5.11,0,0,.93,2.68.18,6.05-.74,3.37.38,5.37,1.95,5.37s8.64.09,4.83-1.04c-3.81-1.13-4.92-2.17-1.12-4.24,3.81-2.07,3.62-.69,9.19.6,5.58,1.3,6.87,2.25,8.74,2.17,1.86-.09,1.58-.26.93-1.9-.64-1.65-1.49-2.77-3.25-3.9-1.77-1.12-2.97.26-3.53-1.47-.56-1.73-1.58-6.06-2.05-7.7-.47-1.65,1.4-.35,4.37-.35s11.06-.43,17.29-.6c6.22-.17.09-6.66-.38-11.25-.47-4.58,11.52-4.76,17.37-5.62,5.86-.87,12.64-.6,23.6-3.2,10.96-2.6,3.9-2.16,5.48-5.28,1.58-3.12,4.28-3.64,7.53-3.64s6.23.6,5.02,1.04c-1.21.43-4.83,2.25.83,3.46,5.67,1.21,4.19,1.12,1.21,2.16-2.97,1.04-.46,2.94,5.29,2.94s2.32-.52,1.39-2.42c-.92-1.9.84-1.21,5.58-.43,4.73.78,6.6,1.56,9.2,3.98,2.6,2.43,3.06,1.82,3.99,5.2.93,3.37-.09,2.85-4.08,5.97-4,3.12-6.41,3.12-12.17,6.75-5.76,3.63-4.37,5.53-7.52,7.96-3.16,2.42-2.32,1.73,4.36,0,6.69-1.73,10.31-2.85,13.76-2.51,3.43.34,5.11,1.64,7.71,1.64s-.18.43,7.99.43,6.96,0,3.99,2.34c-2.97,2.34.56,3.03,4.18,3.03s8.08.17,11.42-.35c3.35-.52.47-3.03,4.46-3.2,3.99-.17,5.29-.52,9.57-.52s2.97,1.73,4.46,3.29c1.49,1.56,3.53,2.59,2.14,5.71-1.39,3.12-2.14,3.2-1.3,7.44.84,4.24,2.98,4.84,5.58,5.62,2.6.78,2.6-3.8,5.11-5.36,2.51-1.56,3.07,3.11,5.95,2.42,2.88-.69,6.13-.35,8.64.43,2.51.78,4.64,1.22,8.18.44,3.53-.78,2.41-2.16,1.21-4.33-1.21-2.16-1.3-1.99.93-4.24,2.23-2.25,3.72-1.13,10.96.78,7.25,1.9,4.93,1.9,9.01,3.03,4.09,1.12,2.79.87,9.01,3.72,6.22,2.86,5.02,6.23,7.9,8.04,2.88,1.82,3.07,0,8.83-.51,5.76-.52,5.67.69,11.98,2.34,6.31,1.64,4.64,3.72,4.64,5.54s-1.76,3.2,2.14,4.06c3.9.87,5.48,1.64,8.83.78,3.35-.87.37.86,7.81.95,7.43.09,4.93-.86,7.16.69,2.23,1.56,2.79,4.67,6.41,4.33,3.62-.35,3.34-.26,1.86-3.46-1.49-3.2-2.42-3.72-.28-3.64,2.13.09,6.5,1.04,14.58,2.34,8.09,1.3,8.36,2.77,14.97,6.92,6.59,4.15,8.45,4.5,13.28,8.22,1.84,1.42,2.21,1.83,2.25,1.93.12,0,.64.15,2.5,1.01,5.2,2.42,4.27,1.65,8.73,3.81,4.45,2.17,8.26,5.19,8.26,5.19,0,0,.29.43-3.06.78ZM760.7,254.96s-.49.66,2.11-1.42c2.6-2.07-1.21-.09-2.7-.52-1.48-.43-1.95-1.13-1.48-3.03.47-1.91-.19-1.91-1.77-4.42,0,0-.84-.51-2.6.52-1.76,1.04-2.79-1.03-4.93-.26-2.14.78-4.46.43-5.76,3.64-1.29,3.2-2.79,1.12-3.25,3.72-.47,2.6-4.46,3.98-4.46,3.98,0,0,1.58,1.56,2.79,3.03,1.2,1.47.37.52,1.58,5.37,1.21,4.84,2.05,4.41,3.72,5.1,1.67.69,4.27,2.34,4.27,2.34,0,0-1.58-.96-1.58,1.64s-2.51,4.41-2.23,8.22c.28,3.81-3.44,7.35-.46,7.7,2.97.34,2.04,1.64,5.29,2.51,3.26.87,5.11,1.47,9.85,1.47s2.13-1.82,1.48-4.5c-.65-2.68-1.02-4.41-1.2-7.35-.19-2.94-1.3-2.16-2.05-3.98-.74-1.82.37-2.86,2.6-2.86s2.52-.09,1.3-2.08c-1.21-1.99-.46-2.77-1.96-3.64-1.48-.87-2.13,2.86-2.13,2.86,0,0-.93-.87-.56-4.5.37-3.64.65-1.9-.46-2.6-1.12-.69-1.77.17-3.26-2.25-1.49-2.43-.18-1.9-1.95-4.84-1.77-2.94-.84-1.39,1.11-1.39s.93-.43,0-1.38c-.93-.96-1.58-2.43.93-2.25,2.51.17,5.76.69,6.97.78,1.21.08.78.38.78.38ZM414.07,121.65c-.86,1.48,1.45,3.37,3.13,2.79,1.67-.59,2.22.07,3.17-.7.95-.76,1.04-1.88-.09-2.97-1.13-1.1-.67-1.74-.86-1.86-2.14-1.31-4.49,1.27-5.35,2.74ZM873.37,26.26c-2.51.09-5.3.18-2.97.95,2.32.78,1.39,4.67,5.85,2.51,4.46-2.17,3.53-2.34,6.6-3.64,3.06-1.29,1.29-.67-2.41-1.64-2.32-.6-4.55,1.73-7.06,1.82Z"/>
          <g>
            <polygon class="cls-4" points="1155.95 23.81 1112.79 184.92 1073.53 145.66 804.72 414.46 671.25 280.99 393.78 558.47 253.28 417.98 39.43 631.83 0 592.4 253.28 339.12 393.78 479.62 671.25 202.14 804.72 335.61 1034.1 106.23 994.83 66.96 1155.95 23.81"/>
            <polygon class="cls-2" points="931.87 122.15 914.09 188.49 897.93 172.32 787.25 283 732.29 228.05 618.04 342.3 560.19 284.45 472.14 372.5 455.91 356.27 560.19 251.98 618.04 309.83 732.29 195.58 787.25 250.53 881.69 156.09 865.53 139.92 931.87 122.15"/>
            <polygon class="cls-3" points="1067.52 317.93 1049.75 384.27 1033.58 368.11 922.9 478.79 867.94 423.83 753.69 538.08 695.85 480.23 607.79 568.29 591.56 552.05 695.85 447.77 753.69 505.61 867.94 391.36 922.9 446.32 1017.34 351.87 1001.18 335.7 1067.52 317.93"/>
          </g>
        </g>
      </g>
    </g>
  </g>
</svg>