<?xml version="1.0" encoding="UTF-8"?>
<svg id="Layer_2" data-name="Layer 2" xmlns="http://www.w3.org/2000/svg" viewBox="0 0 1200 1033.12">
  <defs>
    <style>
      .cls-1 {
        fill: none;
        stroke: #9fe870;
        stroke-miterlimit: 10;
      }

      .cls-2, .cls-3 {
        opacity: .4;
      }

      .cls-4, .cls-3 {
        fill: #9fe870;
      }
    </style>
  </defs>
  <g id="Layer_1-2" data-name="Layer 1">
    <g>
      <rect class="cls-3" x="1011.91" y="283.73" width="4.52" height="466.72"/>
      <path class="cls-3" d="M1032.53,237.07l-11.49-10.1-10.36-3.22h-14.88l-21.5,6.01-41.26,19.85-27.68,8.18h-32.38l-25.94-9.4-28.2-19.67-40.39-32.73-33.25-22.81-26.11-11.84-33.6-4.7h-32.9l-26.63,5.74v-25.07h-11.59l8.73-4.09,5.04-7.09v-8.19l-5.04-7.09-8.73-4.09v-20.11l17.47-11.01,11.01-19.07v-22.02l-11.01-19.07-19.07-11.01h-23.06l-19.07,11.01-11.01,19.07v22.02l11.01,19.07,17.47,11.01v20.11l-8.73,4.09-5.04,7.09v8.19l5.04,7.09,8.73,4.09h-11.59v25.07l-26.63-5.74h-32.9l-33.6,4.7-26.11,11.84-33.25,22.81-40.39,32.73-28.2,19.67-25.94,9.4h-32.38l-27.68-8.18-41.26-19.85-21.5-6.01h-14.88l-10.36,3.22-11.49,10.1-5.4,10.71v19.15l4.53,8.88,11.05,7.92h16.36l10.18-6.44,5.66-8.44v-17.84l47,24.02,35.86,12.88,32.03-.35,35.51-10.79,34.29-19.15,39.52-25.76,44.22-16.71,33.42-4.18,34.12,2.44,28.2,13.23v525.39l-4.53,38.99-15.32,36.91-12.53,14.62-11.49,8.36v16.71l-8.44,1-4.83,4.83v8.49l-43.22,36.17-15.8,4.18-8.62,5.61v5.74l2.87,4.83-26.77,25.72-12.4,2.09-12.93,5.09-5.48,11.49,1.04,14.36c0,19.18,90.67,34.73,203.16,34.73s203.16-15.55,203.16-34.73l1.04-14.36-5.48-11.49-12.93-5.09-12.4-2.09-26.77-25.72,2.87-4.83v-5.74l-8.62-5.61-15.8-4.18-43.22-36.17v-8.49l-4.83-4.83-8.44-1v-16.71l-11.49-8.36-12.53-14.62-15.32-36.91-4.53-38.99V226.63l28.2-13.23,34.12-2.44,33.42,4.18,44.22,16.71,39.52,25.76,34.29,19.15,35.51,10.79,32.03.35,35.86-12.88,47-24.02v17.84l5.66,8.44,10.18,6.44h16.36l11.05-7.92,4.53-8.88v-19.15l-5.4-10.71Z"/>
      <polygon class="cls-3" points="576.52 226.63 576.52 162.39 549.88 156.65 576.52 226.63"/>
      <polygon class="cls-3" points="625.96 226.63 625.96 162.39 652.59 156.65 625.96 226.63"/>
      <polyline class="cls-3" points="588.1 106.77 595.49 103.77 606.85 103.77 614.37 106.77"/>
      <polygon class="cls-3" points="614.37 137.32 623.1 133.23 628.13 126.14 628.13 117.42 614.37 137.32"/>
      <polyline class="cls-3" points="588.1 86.66 591.66 88.67 610.64 88.67 614.37 86.66"/>
      <path class="cls-3" d="M186.83,750.45c-184.09,0-182.53,8.88-182.53,8.88,0,0,17.76,9.4,182.53,9.4s182.53-9.4,182.53-9.4c0,0,1.57-8.88-182.53-8.88Z"/>
      <polygon class="cls-3" points="579.38 110.86 595.49 103.77 606.85 103.77 623.1 110.86 579.38 110.86"/>
      <polygon class="cls-3" points="570.64 75.66 591.66 88.67 610.64 88.67 631.83 75.66 570.64 75.66"/>
      <polygon class="cls-3" points="1005.98 283.73 1022.35 283.73 1033.4 275.81 1037.93 266.93 1005.98 283.73"/>
      <polygon class="cls-3" points="1022.35 283.73 1037.93 247.78 1037.93 266.93 1033.4 275.81 1022.35 283.73"/>
      <polygon class="cls-3" points="990.14 268.84 1022.35 283.73 1005.98 283.73 995.8 277.29 990.14 268.84"/>
      <polygon class="cls-3" points="990.14 251 1005.98 283.73 995.8 277.29 990.14 268.84 990.14 251"/>
      <polygon class="cls-3" points="196.32 283.73 179.95 283.73 168.9 275.81 164.37 266.93 196.32 283.73"/>
      <polygon class="cls-3" points="179.95 283.73 164.37 247.78 164.37 266.93 168.9 275.81 179.95 283.73"/>
      <polygon class="cls-3" points="212.16 268.84 179.95 283.73 196.32 283.73 206.5 277.29 212.16 268.84"/>
      <polygon class="cls-3" points="212.16 251 196.32 283.73 206.5 277.29 212.16 268.84 212.16 251"/>
      <path class="cls-3" d="M368.52,782.2c-6.67,3.19-54.4,23.61-182.47,23.61-138.92,0-181.03-24.02-181.03-24.02,8.17,29.41,86.44,52.49,181.81,52.49s172.9-22.85,181.69-52.07Z"/>
      <polygon class="cls-3" points="610.64 88.67 591.66 88.67 570.64 75.66 559.63 56.59 610.64 88.67"/>
      <polygon class="cls-3" points="589.71 4.5 612.77 4.5 631.83 15.51 642.84 34.57 589.71 4.5"/>
      <polygon class="cls-3" points="559.63 34.57 570.64 15.51 589.71 4.5 612.77 4.5 559.63 34.57"/>
      <polygon class="cls-3" points="591.66 88.67 559.63 34.57 559.63 56.59 570.64 75.66 591.66 88.67"/>
      <polygon class="cls-3" points="589.71 4.5 559.63 56.59 559.63 34.57 570.64 15.51 589.71 4.5"/>
      <polygon class="cls-3" points="631.83 15.51 631.83 75.66 642.84 56.59 642.84 34.57 631.83 15.51"/>
      <polygon class="cls-3" points="591.66 88.67 610.64 88.67 631.83 75.66 642.84 56.59 591.66 88.67"/>
      <polygon class="cls-3" points="606.85 103.77 623.1 110.86 628.13 117.42 628.13 126.14 606.85 103.77"/>
      <polygon class="cls-3" points="595.49 103.77 574.34 126.14 574.34 117.95 579.38 110.86 595.49 103.77"/>
      <polygon class="cls-3" points="574.34 117.95 588.1 137.32 579.38 133.23 574.34 126.14 574.34 117.95"/>
      <polygon class="cls-3" points="623.1 133.23 574.34 126.14 579.38 133.23 588.1 137.32 614.37 137.32 623.1 133.23"/>
      <path class="cls-3" d="M369.36,759.33l-.84,22.87s-1.5,27.93-95.62,45.28l96.46-68.15Z"/>
      <path class="cls-3" d="M4.3,759.29l.79,22.87s4.8,23.64,69.18,39.86l-69.98-62.73Z"/>
      <path class="cls-3" d="M369.36,759.33l-.84,22.87s-4.17,17.71-37.49,29.65l38.33-52.52Z"/>
      <g class="cls-2">
        <path class="cls-4" d="M4.3,759.33l.79,22.84,65.8-15.65c-58.1-2.77-66.55-7.17-66.6-7.19Z"/>
        <path class="cls-4" d="M4.3,759.29h0s0,.02,0,.02c0,0,0-.01,0-.02Z"/>
      </g>
      <path class="cls-4" d="M4.3,759.31l25.02,46.5s-21.28-10.38-24.23-23.64l-.79-22.86Z"/>
      <path class="cls-3" d="M1012.72,750.45c-184.09,0-182.53,8.88-182.53,8.88,0,0,17.76,9.4,182.53,9.4s182.53-9.4,182.53-9.4c0,0,1.57-8.88-182.53-8.88Z"/>
      <path class="cls-3" d="M1194.41,782.2c-6.67,3.19-54.4,23.61-182.47,23.61-138.92,0-181.03-24.02-181.03-24.02,8.17,29.41,86.44,52.49,181.81,52.49s172.9-22.85,181.69-52.07Z"/>
      <path class="cls-3" d="M1195.25,759.33l-.84,22.87s-1.5,27.93-95.62,45.28l96.46-68.15Z"/>
      <path class="cls-3" d="M830.19,759.29l.79,22.87s4.8,23.64,69.18,39.86l-69.98-62.73Z"/>
      <path class="cls-3" d="M1195.25,759.33l-.84,22.87s-4.17,17.71-37.49,29.65l38.33-52.52Z"/>
      <g class="cls-2">
        <path class="cls-4" d="M830.19,759.33l.79,22.84,65.8-15.65c-58.1-2.77-66.55-7.17-66.6-7.19Z"/>
        <path class="cls-4" d="M830.2,759.29h0s0,.02,0,.02c0,0,0-.01,0-.02Z"/>
      </g>
      <path class="cls-4" d="M830.19,759.31l25.02,46.5s-21.28-10.38-24.23-23.64l-.79-22.86Z"/>
      <polygon class="cls-3" points="514.19 210.96 548.32 213.4 576.52 226.63 576.52 162.39 514.19 210.96"/>
      <polygon class="cls-3" points="654.16 213.4 625.96 162.39 625.96 226.63 654.16 213.4"/>
      <polygon class="cls-3" points="212.16 251 259.34 275.02 295.2 287.91 327.23 287.56 212.16 251"/>
      <polygon class="cls-3" points="394.85 258.53 362.74 276.76 327.23 287.56 295.2 287.91 394.85 258.53"/>
      <polygon class="cls-3" points="436.55 231.85 327.23 287.56 362.74 276.76 394.85 258.53 436.55 231.85"/>
      <polygon class="cls-3" points="164.37 247.78 169.94 237.07 181.43 226.98 191.79 223.76 164.37 247.78"/>
      <polygon class="cls-3" points="168.9 275.81 169.94 237.07 164.37 247.78 164.37 266.93 168.9 275.81"/>
      <polygon class="cls-3" points="228.17 229.76 206.67 223.76 191.79 223.76 181.43 226.98 228.17 229.76"/>
      <polygon class="cls-3" points="206.67 223.76 228.17 229.76 269.43 249.61 297.11 257.79 257.77 255.09 206.67 223.76"/>
      <polygon class="cls-3" points="383.63 228.72 355.43 248.39 329.49 257.79 295.97 257.45 269.43 249.61 228.17 229.76 289.68 267.57 353.15 260.51 383.63 228.72"/>
      <polygon class="cls-3" points="457.27 173.18 424.02 195.99 383.63 228.72 355.43 248.39 410.77 221.58 457.27 173.18"/>
      <polygon class="cls-3" points="576.52 162.39 549.88 156.65 516.98 156.65 483.38 161.35 576.52 162.39"/>
      <polygon class="cls-3" points="424.02 195.99 457.27 173.18 483.38 161.35 516.98 156.65 424.02 195.99"/>
      <polygon class="cls-3" points="625.96 162.39 652.59 156.65 685.49 156.65 719.09 161.35 745.2 173.18 625.96 162.39"/>
      <polygon class="cls-4" points="1037.93 266.93 1021.04 226.98 1032.53 237.07 1037.93 247.78 1037.93 266.93"/>
      <polygon class="cls-3" points="974.3 229.76 995.8 223.76 1010.68 223.76 1021.04 226.98 1032.53 237.07 974.3 229.76"/>
      <polygon class="cls-3" points="933.04 249.61 974.3 229.76 995.8 223.76 1010.68 223.76 933.04 249.61"/>
      <polygon class="cls-3" points="905.36 257.79 964.75 253.03 995.8 223.76 974.3 229.76 933.04 249.61 905.36 257.79"/>
      <polygon class="cls-3" points="685.49 156.65 719.09 161.35 745.2 173.18 778.45 195.99 815.52 226.02 685.49 156.65"/>
      <polygon class="cls-3" points="847.04 248.39 815.52 226.02 778.45 195.99 745.2 173.18 823.53 243.48 847.04 248.39"/>
      <polygon class="cls-3" points="933.04 249.61 905.36 257.79 872.98 257.79 847.04 248.39 815.52 226.02 840.32 256.02 886.57 269.72 922.16 261.95 933.04 249.61"/>
      <polygon class="cls-3" points="625.96 226.63 654.16 213.4 688.28 210.96 721.7 215.14 668.47 193.29 625.96 226.63"/>
      <polygon class="cls-3" points="990.14 251 943.14 275.02 907.28 287.91 875.25 287.56 990.14 251"/>
      <polygon class="cls-3" points="805.44 257.62 839.73 276.76 875.25 287.56 907.28 287.91 805.44 257.62"/>
      <polygon class="cls-3" points="943.14 275.02 907.28 287.91 875.25 287.56 839.73 276.76 943.14 275.02"/>
      <polygon class="cls-3" points="688.28 210.96 721.7 215.14 765.92 231.85 697.02 194.28 654.16 213.4 688.28 210.96"/>
      <polygon class="cls-3" points="839.73 276.76 792.75 236.68 721.7 215.14 765.92 231.85 805.44 257.62 839.73 276.76"/>
      <polygon class="cls-3" points="625.96 226.63 625.96 137.32 588.1 137.32 625.96 226.63"/>
      <polygon class="cls-3" points="576.52 226.63 625.96 137.32 576.52 137.32 576.52 226.63"/>
      <polygon class="cls-3" points="625.96 752.02 625.96 137.32 608.67 416.22 625.96 752.02"/>
      <polygon class="cls-3" points="576.52 752.02 576.52 137.32 595.79 562.31 576.52 752.02"/>
      <rect class="cls-3" x="186.05" y="283.73" width="4.52" height="466.72"/>
      <polygon class="cls-3" points="180.13 283.73 45.58 753.41 53.39 752.97 186.05 283.73 180.13 283.73"/>
      <polygon class="cls-3" points="323.27 753.13 190.57 283.73 196.48 283.73 331.08 753.6 323.27 753.13"/>
      <polygon class="cls-3" points="1005.99 283.73 871.44 753.41 879.25 752.97 1011.91 283.73 1005.99 283.73"/>
      <polygon class="cls-3" points="1016.43 283.73 1149.09 752.97 1156.89 753.41 1022.35 283.73 1016.43 283.73"/>
      <path class="cls-3" d="M402.52,971.36l-5.48,11.49,1.04,14.36c0,19.18,90.67,34.73,203.16,34.73s203.16-15.55,203.16-34.73l1.04-14.36-5.48-11.49s-46.45,30.81-199.98,30.81-197.45-30.81-197.45-30.81Z"/>
      <path class="cls-3" d="M600.72,897.98c62.43,0,82.38-15.95,82.38-15.95l.06-.05-.06-.05v-8.49l-.22-.22c-2.33,1.7-23.48,15.79-82.15,15.79s-78.87-14.06-81.13-15.78l-.22.22v8.49l-.06.05.06.04s18.92,15.95,81.35,15.95Z"/>
      <path class="cls-3" d="M747.86,938.46l2.87-4.83v-5.74l-8.62-5.61-15.8-4.18s-30.48,21.41-125.86,21.41-124.3-21.41-124.3-21.41h0l-15.8,4.18-8.62,5.61v5.74l2.87,4.83-.05.05c1.85,1.01,36.92,19.28,145.75,19.28s145.68-18.29,147.59-19.28l-.05-.04Z"/>
      <path class="cls-3" d="M532.65,850.9v16.71h-.13c.08.06.13.09.13.09,0,0,15.85,9,68.16,9s69.02-9,69.02-9l.07-.08h-.07v-16.72s-75.67,18.33-137.18,0Z"/>
      <path class="cls-3" d="M710.79,1026.48c56.36-6.17,93.61-16.97,93.61-29.27l.07-.89-93.67,30.16Z"/>
      <path class="cls-3" d="M786,977.93l17.91,21.64c.3-.78.47-1.56.47-2.36l1.04-14.36-5.48-11.49s-4.12,2.73-13.95,6.57Z"/>
      <path class="cls-3" d="M409.9,975.32c-5.16-2.41-7.38-3.96-7.38-3.96l-5.48,11.49,1.04,14.36c0,11.38,31.9,21.47,81.32,27.81l-69.5-49.7Z"/>
      <path class="cls-3" d="M511.96,1028.43l-113.86-30.91c.69,13.58,46.83,25.3,113.86,30.91Z"/>
      <polygon class="cls-3" points="397.04 982.85 427.85 964.18 415.45 966.27 402.52 971.36 397.04 982.85"/>
      <polygon class="cls-3" points="805.44 982.85 774.62 964.18 787.03 966.27 799.95 971.36 805.44 982.85"/>
      <polygon class="cls-3" points="503.86 931.48 519.37 881.93 476.16 918.09 460.36 922.27 451.74 927.88 451.74 933.63 454.61 938.46 427.85 964.18 503.86 931.48"/>
      <polygon class="cls-3" points="737.16 942.66 774.62 964.18 747.86 938.46 750.73 933.63 750.73 927.88 742.11 922.27 726.32 918.09 683.1 881.93 683.1 881.93 737.16 942.66"/>
      <polygon class="cls-3" points="683.1 873.44 678.27 868.61 669.83 867.61 669.83 863.43 669.83 851.05 643.71 874.86 726.32 918.09 726.32 918.09 683.1 881.93 683.1 873.44"/>
      <polygon class="cls-3" points="532.65 850.9 532.65 850.9 532.65 863.43 532.65 867.61 524.2 868.61 519.37 873.44 519.37 881.93 476.16 918.09 550.14 869.72 532.65 850.9"/>
      <polygon class="cls-3" points="618.01 797.47 669.83 867.61 669.83 863.43 669.83 850.9 658.34 842.54 645.8 827.92 630.48 791.01 625.96 752.02 625.96 624.63 618.01 797.47"/>
      <polygon class="cls-3" points="584.9 813.8 576.52 641.3 576.52 752.02 571.99 791.01 556.67 827.92 544.14 842.54 532.65 850.9 532.65 863.43 532.65 867.61 532.65 867.61 584.9 813.8"/>
    </g>
    <g>
      <path class="cls-1" d="M369.36,759.33v17.36c0,31.8-81.72,57.58-182.53,57.58S4.3,808.49,4.3,776.69v-17.36s-1.57-8.88,182.53-8.88,182.53,8.88,182.53,8.88Z"/>
      <line class="cls-1" x1="180.13" y1="283.73" x2="45.58" y2="753.41"/>
      <line class="cls-1" x1="186.05" y1="283.73" x2="53.39" y2="752.97"/>
      <line class="cls-1" x1="196.48" y1="283.73" x2="331.03" y2="753.41"/>
      <line class="cls-1" x1="190.57" y1="283.73" x2="323.22" y2="752.97"/>
      <line class="cls-1" x1="190.57" y1="283.73" x2="190.57" y2="750.45"/>
      <line class="cls-1" x1="186.05" y1="750.45" x2="186.05" y2="283.73"/>
      <path class="cls-1" d="M1195.22,759.33v17.36c0,31.8-81.72,57.58-182.53,57.58s-182.53-25.78-182.53-57.58v-17.36s-1.57-8.88,182.53-8.88,182.53,8.88,182.53,8.88Z"/>
      <line class="cls-1" x1="1005.99" y1="283.73" x2="871.44" y2="753.41"/>
      <line class="cls-1" x1="1011.91" y1="283.73" x2="879.25" y2="752.97"/>
      <line class="cls-1" x1="1022.35" y1="283.73" x2="1156.89" y2="753.41"/>
      <line class="cls-1" x1="1016.43" y1="283.73" x2="1149.09" y2="752.97"/>
      <line class="cls-1" x1="1016.43" y1="283.73" x2="1016.43" y2="750.45"/>
      <line class="cls-1" x1="1011.91" y1="750.45" x2="1011.91" y2="283.73"/>
      <path class="cls-1" d="M369.36,759.33s-17.76,9.4-182.53,9.4-182.53-9.4-182.53-9.4"/>
      <path class="cls-1" d="M369.36,781.78s-44.39,24.02-183.31,24.02-181.03-24.02-181.03-24.02"/>
      <path class="cls-1" d="M1194.44,759.33s-17.76,9.4-182.53,9.4-182.53-9.4-182.53-9.4"/>
      <path class="cls-1" d="M1194.44,781.78s-44.39,24.02-183.31,24.02-180.12-23.57-180.12-23.57"/>
      <path class="cls-1" d="M799.95,971.36s-46.45,30.81-199.98,30.81-197.45-30.81-197.45-30.81"/>
      <path class="cls-1" d="M774.62,964.18s-43.29,24.19-174.47,24.19-172.31-24.19-172.31-24.19"/>
      <path class="cls-1" d="M747.99,938.46s-35.76,19.33-147.67,19.33-145.83-19.33-145.83-19.33"/>
      <path class="cls-1" d="M726.32,918.09s-30.48,21.41-125.86,21.41-124.3-21.41-124.3-21.41"/>
      <path class="cls-1" d="M669.83,867.69s-16.71,9-69.02,9-68.16-9-68.16-9"/>
      <path class="cls-1" d="M683.1,873.05s-19.95,15.95-82.38,15.95-81.35-15.95-81.35-15.95"/>
      <path class="cls-1" d="M683.1,882.02s-19.95,15.95-82.38,15.95-81.35-15.95-81.35-15.95"/>
      <g>
        <path class="cls-1" d="M1032.53,237.07l-11.49-10.1-10.36-3.22h-14.88l-21.5,6.01-41.26,19.85-27.68,8.18h-32.38l-25.94-9.4-28.2-19.67-40.39-32.73-33.25-22.81-26.11-11.84-33.6-4.7h-32.9l-26.63,5.74v-25.07h-11.59l8.73-4.09,5.04-7.09v-8.19l-5.04-7.09-8.73-4.09v-20.11l17.47-11.01,11.01-19.07v-22.02l-11.01-19.07-19.07-11.01h-23.06l-19.07,11.01-11.01,19.07v22.02l11.01,19.07,17.47,11.01v20.11l-8.73,4.09-5.04,7.09v8.19l5.04,7.09,8.73,4.09h-11.59v25.07l-26.63-5.74h-32.9l-33.6,4.7-26.11,11.84-33.25,22.81-40.39,32.73-28.2,19.67-25.94,9.4h-32.38l-27.68-8.18-41.26-19.85-21.5-6.01h-14.88l-10.36,3.22-11.49,10.1-5.4,10.71v19.15l4.53,8.88,11.05,7.92h16.36l10.18-6.44,5.66-8.44v-17.84l47,24.02,35.86,12.88,32.03-.35,35.51-10.79,34.29-19.15,39.52-25.76,44.22-16.71,33.42-4.18,34.12,2.44,28.2,13.23v525.39l-4.53,38.99-15.32,36.91-12.53,14.62-11.49,8.36v16.71l-8.44,1-4.83,4.83v8.49l-43.22,36.17-15.8,4.18-8.62,5.61v5.74l2.87,4.83-26.77,25.72-12.4,2.09-12.93,5.09-5.48,11.49,1.04,14.36c0,19.18,90.67,34.73,203.16,34.73s203.16-15.55,203.16-34.73l1.04-14.36-5.48-11.49-12.93-5.09-12.4-2.09-26.77-25.72,2.87-4.83v-5.74l-8.62-5.61-15.8-4.18-43.22-36.17v-8.49l-4.83-4.83-8.44-1v-16.71l-11.49-8.36-12.53-14.62-15.32-36.91-4.53-38.99V226.63l28.2-13.23,34.12-2.44,33.42,4.18,44.22,16.71,39.52,25.76,34.29,19.15,35.51,10.79,32.03.35,35.86-12.88,47-24.02v17.84l5.66,8.44,10.18,6.44h16.36l11.05-7.92,4.53-8.88v-19.15l-5.4-10.71Z"/>
        <line class="cls-1" x1="576.52" y1="162.39" x2="576.52" y2="226.63"/>
        <line class="cls-1" x1="625.96" y1="162.39" x2="625.96" y2="226.63"/>
        <polyline class="cls-1" points="588.1 106.77 595.49 103.77 606.85 103.77 614.37 106.77"/>
        <line class="cls-1" x1="588.1" y1="137.32" x2="614.37" y2="137.32"/>
        <polyline class="cls-1" points="588.1 86.66 591.66 88.67 610.64 88.67 614.37 86.66"/>
      </g>
      <line class="cls-1" x1="576.52" y1="162.39" x2="483.38" y2="161.35"/>
      <line class="cls-1" x1="383.63" y1="228.72" x2="516.98" y2="156.65"/>
      <line class="cls-1" x1="559.63" y1="34.57" x2="588.1" y2="86.66"/>
      <line class="cls-1" x1="610.64" y1="88.67" x2="642.84" y2="56.59"/>
      <line class="cls-1" x1="631.83" y1="75.66" x2="631.83" y2="15.51"/>
      <line class="cls-1" x1="559.63" y1="56.59" x2="589.71" y2="4.5"/>
      <line class="cls-1" x1="642.84" y1="34.57" x2="589.71" y2="4.5"/>
      <line class="cls-1" x1="565.99" y1="45.58" x2="612.77" y2="4.5"/>
      <polyline class="cls-1" points="642.84 56.59 631.83 28.34 612.77 4.5"/>
      <polyline class="cls-1" points="570.64 75.66 565.99 45.58 570.64 15.51"/>
      <line class="cls-1" x1="610.64" y1="88.67" x2="570.64" y2="75.66"/>
      <line class="cls-1" x1="631.83" y1="28.34" x2="584.56" y2="80.19"/>
      <line class="cls-1" x1="565.99" y1="45.58" x2="631.83" y2="67.55"/>
      <polyline class="cls-1" points="610.64 88.67 604.42 58.41 589.71 4.5"/>
      <line class="cls-1" x1="574.34" y1="126.14" x2="588.1" y2="106.77"/>
      <line class="cls-1" x1="628.13" y1="126.14" x2="614.37" y2="106.77"/>
      <line class="cls-1" x1="588.1" y1="137.32" x2="574.34" y2="117.95"/>
      <line class="cls-1" x1="614.37" y1="137.32" x2="628.13" y2="117.95"/>
      <line class="cls-1" x1="591.66" y1="88.67" x2="588.1" y2="106.77"/>
      <line class="cls-1" x1="610.64" y1="88.67" x2="614.37" y2="106.77"/>
      <line class="cls-1" x1="606.85" y1="103.77" x2="614.37" y2="87.67"/>
      <line class="cls-1" x1="595.49" y1="103.77" x2="588.1" y2="86.66"/>
      <line class="cls-1" x1="614.65" y1="136.93" x2="577.43" y2="121.8"/>
      <line class="cls-1" x1="588.1" y1="106.77" x2="625.22" y2="122.05"/>
      <line class="cls-1" x1="577.43" y1="121.8" x2="606.85" y2="103.77"/>
      <line class="cls-1" x1="398.21" y1="998.45" x2="513.26" y2="1028.54"/>
      <line class="cls-1" x1="804.39" y1="997.21" x2="710.16" y2="1026.55"/>
      <line class="cls-1" x1="805.44" y1="982.85" x2="764.97" y2="984.81"/>
      <line class="cls-1" x1="799.95" y1="971.36" x2="804.39" y2="997.21"/>
      <line class="cls-1" x1="402.52" y1="971.36" x2="398.21" y2="998.45"/>
      <line class="cls-1" x1="397.04" y1="982.85" x2="427.85" y2="964.18"/>
      <line class="cls-1" x1="747.99" y1="938.46" x2="742.11" y2="922.27"/>
      <line class="cls-1" x1="750.73" y1="933.63" x2="726.32" y2="918.09"/>
      <line class="cls-1" x1="454.48" y1="938.46" x2="460.36" y2="922.27"/>
      <line class="cls-1" x1="451.74" y1="933.63" x2="476.16" y2="918.09"/>
      <line class="cls-1" x1="513.26" y1="1028.54" x2="787.11" y2="1011.27"/>
      <line class="cls-1" x1="710.16" y1="1026.55" x2="424.74" y2="1014.44"/>
      <line class="cls-1" x1="409.65" y1="975.21" x2="466.07" y2="1016.2"/>
      <line class="cls-1" x1="398.21" y1="998.45" x2="479.62" y2="979.28"/>
      <line class="cls-1" x1="802.17" y1="983.01" x2="752.17" y2="1013.47"/>
      <line class="cls-1" x1="774.62" y1="964.18" x2="802.17" y2="983.01"/>
      <line class="cls-1" x1="726.32" y1="918.09" x2="675.11" y2="886.38"/>
      <line class="cls-1" x1="476.16" y1="918.09" x2="526.01" y2="885.89"/>
      <line class="cls-1" x1="532.65" y1="867.69" x2="519.37" y2="882.02"/>
      <line class="cls-1" x1="669.83" y1="867.69" x2="683.1" y2="882.02"/>
      <line class="cls-1" x1="683.1" y1="873.05" x2="647.03" y2="894.36"/>
      <line class="cls-1" x1="675.11" y1="886.38" x2="625.06" y2="888.11"/>
      <line class="cls-1" x1="427.85" y1="964.18" x2="472.13" y2="944.86"/>
      <line class="cls-1" x1="476.16" y1="918.09" x2="472.13" y2="944.86"/>
      <line class="cls-1" x1="726.32" y1="918.09" x2="748.5" y2="968"/>
      <line class="cls-1" x1="427.85" y1="964.18" x2="609.24" y2="988.37"/>
      <line class="cls-1" x1="774.62" y1="964.18" x2="609.24" y2="988.37"/>
      <line class="cls-1" x1="532.65" y1="867.69" x2="556.67" y2="827.92"/>
      <line class="cls-1" x1="669.83" y1="867.69" x2="645.8" y2="827.92"/>
      <line class="cls-1" x1="556.67" y1="827.92" x2="630.48" y2="791.01"/>
      <line class="cls-1" x1="645.8" y1="827.92" x2="576.52" y2="752.02"/>
      <line class="cls-1" x1="652.59" y1="156.65" x2="738.12" y2="176.31"/>
      <line class="cls-1" x1="805.44" y1="257.62" x2="907.28" y2="287.91"/>
      <line class="cls-1" x1="1005.99" y1="283.73" x2="1037.93" y2="266.93"/>
      <line class="cls-1" x1="990.14" y1="251" x2="1005.99" y2="283.73"/>
      <line class="cls-1" x1="1037.93" y1="266.93" x2="1021.04" y2="226.98"/>
      <line class="cls-1" x1="933.04" y1="249.61" x2="1011.91" y2="224.14"/>
      <line class="cls-1" x1="1022.35" y1="283.73" x2="1037.93" y2="247.78"/>
      <line class="cls-1" x1="1011.91" y1="224.14" x2="1037.93" y2="247.78"/>
      <line class="cls-1" x1="990.14" y1="268.84" x2="1022.35" y2="283.73"/>
      <line class="cls-1" x1="1000.68" y1="272.76" x2="1024.84" y2="235.96"/>
      <line class="cls-1" x1="1027.86" y1="271" x2="990.14" y2="251"/>
      <line class="cls-1" x1="1011.91" y1="224.14" x2="990.14" y2="251"/>
      <line class="cls-1" x1="1024.84" y1="235.96" x2="990.14" y2="251"/>
      <line class="cls-1" x1="907.28" y1="287.91" x2="1011.91" y2="224.14"/>
      <line class="cls-1" x1="990.14" y1="251" x2="905.36" y2="257.79"/>
      <line class="cls-1" x1="625.96" y1="226.63" x2="652.59" y2="156.65"/>
      <line class="cls-1" x1="765.92" y1="231.85" x2="875.25" y2="287.56"/>
      <line class="cls-1" x1="847.04" y1="248.39" x2="765.92" y2="231.85"/>
      <line class="cls-1" x1="872.98" y1="257.79" x2="907.28" y2="287.91"/>
      <line class="cls-1" x1="943.14" y1="275.02" x2="872.98" y2="257.79"/>
      <line class="cls-1" x1="905.36" y1="257.79" x2="932.64" y2="272.45"/>
      <line class="cls-1" x1="831.97" y1="265.51" x2="872.98" y2="257.79"/>
      <line class="cls-1" x1="847.04" y1="248.39" x2="831.97" y2="265.51"/>
      <line class="cls-1" x1="816.26" y1="226.63" x2="833.74" y2="266.41"/>
      <line class="cls-1" x1="778.45" y1="195.99" x2="765.92" y2="231.85"/>
      <line class="cls-1" x1="745.2" y1="173.18" x2="654.16" y2="213.4"/>
      <line class="cls-1" x1="652.59" y1="156.65" x2="721.7" y2="215.14"/>
      <line class="cls-1" x1="719.09" y1="161.35" x2="696.71" y2="193.99"/>
      <line class="cls-1" x1="654.16" y1="213.4" x2="625.96" y2="162.39"/>
      <line class="cls-1" x1="696.71" y1="193.99" x2="640.7" y2="187.89"/>
      <line class="cls-1" x1="765.92" y1="231.85" x2="745.2" y2="173.18"/>
      <line class="cls-1" x1="688.28" y1="210.96" x2="778.45" y2="195.99"/>
      <line class="cls-1" x1="719.09" y1="161.35" x2="823.74" y2="243.64"/>
      <line class="cls-1" x1="816.26" y1="226.63" x2="775.15" y2="205.43"/>
      <line class="cls-1" x1="721.7" y1="215.14" x2="754.65" y2="199.94"/>
      <line class="cls-1" x1="754.65" y1="199.94" x2="696.71" y2="193.99"/>
      <line class="cls-1" x1="455.8" y1="174.19" x2="576.52" y2="162.39"/>
      <line class="cls-1" x1="164.55" y1="247.78" x2="180.13" y2="283.73"/>
      <line class="cls-1" x1="212.33" y1="268.84" x2="196.49" y2="283.73"/>
      <line class="cls-1" x1="206.67" y1="223.76" x2="164.55" y2="247.78"/>
      <line class="cls-1" x1="164.55" y1="266.93" x2="181.43" y2="226.98"/>
      <line class="cls-1" x1="228.17" y1="229.76" x2="181.43" y2="226.98"/>
      <line class="cls-1" x1="164.55" y1="266.93" x2="196.49" y2="283.73"/>
      <line class="cls-1" x1="180.13" y1="283.73" x2="212.33" y2="268.84"/>
      <line class="cls-1" x1="174.65" y1="272.24" x2="212.33" y2="251"/>
      <line class="cls-1" x1="212.33" y1="268.84" x2="169.94" y2="237.07"/>
      <line class="cls-1" x1="212.33" y1="251" x2="175.43" y2="241.18"/>
      <line class="cls-1" x1="228.17" y1="229.76" x2="295.2" y2="287.91"/>
      <line class="cls-1" x1="259.34" y1="275.02" x2="329.49" y2="257.79"/>
      <line class="cls-1" x1="383.63" y1="228.72" x2="327.23" y2="287.56"/>
      <line class="cls-1" x1="175.43" y1="241.18" x2="228.17" y2="229.76"/>
      <line class="cls-1" x1="212.33" y1="251" x2="269.43" y2="249.61"/>
      <line class="cls-1" x1="295.2" y1="287.91" x2="394.85" y2="258.83"/>
      <line class="cls-1" x1="576.52" y1="162.39" x2="512.77" y2="211.14"/>
      <line class="cls-1" x1="576.52" y1="226.63" x2="549.88" y2="156.65"/>
      <line class="cls-1" x1="548.32" y1="213.4" x2="557.58" y2="176.87"/>
      <line class="cls-1" x1="436.55" y1="231.85" x2="490.85" y2="170.77"/>
      <line class="cls-1" x1="483.22" y1="213.92" x2="422.82" y2="196.96"/>
      <line class="cls-1" x1="480.77" y1="215.14" x2="557.58" y2="176.87"/>
      <line class="cls-1" x1="355.43" y1="248.39" x2="436.55" y2="231.85"/>
      <line class="cls-1" x1="362.74" y1="276.76" x2="490.85" y2="170.77"/>
      <line class="cls-1" x1="297.11" y1="257.79" x2="212.33" y2="251"/>
      <line class="cls-1" x1="228.17" y1="229.76" x2="212.33" y2="251"/>
      <line class="cls-1" x1="295.2" y1="287.91" x2="330.32" y2="257.49"/>
      <line class="cls-1" x1="378.73" y1="263.54" x2="330.32" y2="257.49"/>
      <line class="cls-1" x1="297.11" y1="257.79" x2="275.71" y2="271"/>
      <line class="cls-1" x1="459.42" y1="207.24" x2="557.58" y2="176.87"/>
      <line class="cls-1" x1="490.85" y1="170.77" x2="557.58" y2="176.87"/>
      <line class="cls-1" x1="588.1" y1="137.32" x2="576.52" y2="226.63"/>
      <line class="cls-1" x1="576.52" y1="162.39" x2="614.37" y2="137.32"/>
      <line class="cls-1" x1="588.1" y1="137.32" x2="625.96" y2="162.39"/>
      <line class="cls-1" x1="625.96" y1="137.32" x2="601.24" y2="146.02"/>
      <line class="cls-1" x1="625.96" y1="226.63" x2="601.24" y2="146.02"/>
      <line class="cls-1" x1="576.52" y1="137.32" x2="585.64" y2="156.35"/>
      <line class="cls-1" x1="774.62" y1="964.18" x2="737.15" y2="942.66"/>
      <line class="cls-1" x1="526.01" y1="885.89" x2="574.27" y2="887.93"/>
      <line class="cls-1" x1="647.03" y1="894.36" x2="574.27" y2="887.93"/>
      <line class="cls-1" x1="524.7" y1="876.27" x2="526.01" y2="885.89"/>
      <line class="cls-1" x1="472.13" y1="944.86" x2="577.21" y2="939.05"/>
      <line class="cls-1" x1="737.15" y1="942.66" x2="577.21" y2="939.05"/>
      <line class="cls-1" x1="609.24" y1="988.37" x2="737.15" y2="942.66"/>
      <line class="cls-1" x1="472.13" y1="944.86" x2="609.24" y2="988.37"/>
      <line class="cls-1" x1="479.62" y1="979.28" x2="535.07" y2="1000.1"/>
      <line class="cls-1" x1="609.24" y1="988.37" x2="535.07" y2="1000.1"/>
      <line class="cls-1" x1="748.5" y1="968" x2="791.45" y2="975.68"/>
      <line class="cls-1" x1="609.24" y1="988.37" x2="708.07" y2="995.89"/>
      <line class="cls-1" x1="760.63" y1="969.78" x2="708.07" y2="995.89"/>
      <line class="cls-1" x1="479.62" y1="979.28" x2="454.48" y2="938.46"/>
      <line class="cls-1" x1="476.16" y1="918.09" x2="570.44" y2="896.55"/>
      <line class="cls-1" x1="726.32" y1="918.09" x2="647.03" y2="894.36"/>
      <line class="cls-1" x1="577.21" y1="939.05" x2="727.36" y2="918.09"/>
      <line class="cls-1" x1="526.01" y1="885.89" x2="577.21" y2="939.05"/>
      <line class="cls-1" x1="476.16" y1="918.09" x2="561.42" y2="922.65"/>
      <line class="cls-1" x1="555.83" y1="873.78" x2="532.65" y2="850.9"/>
      <line class="cls-1" x1="669.83" y1="850.9" x2="643.71" y2="874.12"/>
      <line class="cls-1" x1="524.7" y1="876.27" x2="555.83" y2="873.78"/>
      <line class="cls-1" x1="677.73" y1="876.22" x2="643.71" y2="874.12"/>
      <line class="cls-1" x1="574.27" y1="887.93" x2="643.71" y2="874.12"/>
      <line class="cls-1" x1="555.83" y1="873.78" x2="574.27" y2="887.93"/>
      <line class="cls-1" x1="576.52" y1="752.02" x2="626.83" y2="223.77"/>
      <line class="cls-1" x1="625.96" y1="752.02" x2="576.52" y2="226.63"/>
      <line class="cls-1" x1="601.24" y1="146.02" x2="576.52" y2="447.72"/>
      <line class="cls-1" x1="555.83" y1="873.78" x2="571.99" y2="791.01"/>
      <line class="cls-1" x1="630.48" y1="791.01" x2="643.71" y2="874.12"/>
      <line class="cls-1" x1="658.34" y1="842.54" x2="643.71" y2="874.12"/>
      <line class="cls-1" x1="544.14" y1="842.54" x2="555.83" y2="873.78"/>
      <line class="cls-1" x1="656.77" y1="845.92" x2="555.83" y2="873.78"/>
      <line class="cls-1" x1="545.55" y1="846.32" x2="643.71" y2="874.12"/>
      <line class="cls-1" x1="617.87" y1="797.32" x2="599.73" y2="861.67"/>
      <line class="cls-1" x1="565.05" y1="823.73" x2="601.24" y2="862.09"/>
      <line class="cls-1" x1="571.99" y1="791.01" x2="625.96" y2="750.45"/>
      <line class="cls-1" x1="630.48" y1="791.01" x2="576.52" y2="641.3"/>
      <line class="cls-1" x1="586.2" y1="329.53" x2="625.96" y2="484.1"/>
      <line class="cls-1" x1="625.96" y1="226.63" x2="586.2" y2="329.53"/>
      <polyline class="cls-1" points="625.96 162.39 598.64 177.67 576.52 226.63"/>
      <line class="cls-1" x1="585.64" y1="156.35" x2="625.96" y2="226.63"/>
      <line class="cls-1" x1="576.79" y1="444.42" x2="584.9" y2="663.96"/>
      <line class="cls-1" x1="584.9" y1="663.96" x2="625.96" y2="484.1"/>
      <line class="cls-1" x1="576.52" y1="752.02" x2="625.96" y2="619.01"/>
      <line class="cls-1" x1="584.9" y1="663.96" x2="625.96" y2="619.01"/>
      <line class="cls-1" x1="598.64" y1="177.67" x2="625.96" y2="484.1"/>
      <line class="cls-1" x1="617.87" y1="797.32" x2="625.96" y2="750.45"/>
      <line class="cls-1" x1="615.51" y1="647.11" x2="618.01" y2="756.42"/>
      <line class="cls-1" x1="561.42" y1="922.65" x2="647.03" y2="894.36"/>
      <line class="cls-1" x1="675.11" y1="886.38" x2="577.21" y2="939.05"/>
      <line class="cls-1" x1="570.44" y1="896.55" x2="561.42" y2="922.65"/>
      <line class="cls-1" x1="1194.44" y1="781.78" x2="1089.62" y2="828.92"/>
      <line class="cls-1" x1="831.01" y1="782.24" x2="917.71" y2="825.87"/>
      <line class="cls-1" x1="1041.67" y1="805.35" x2="1179.84" y2="799.85"/>
      <line class="cls-1" x1="855.19" y1="805.81" x2="910.13" y2="800.54"/>
      <line class="cls-1" x1="917.71" y1="825.87" x2="1043.31" y2="805.35"/>
      <line class="cls-1" x1="908.63" y1="800.69" x2="1089.62" y2="828.92"/>
      <line class="cls-1" x1="1043.31" y1="805.35" x2="1089.62" y2="828.92"/>
      <line class="cls-1" x1="917.71" y1="825.87" x2="1144.32" y2="816.58"/>
      <line class="cls-1" x1="1151.77" y1="800.97" x2="1144.32" y2="816.58"/>
      <line class="cls-1" x1="1043.31" y1="805.35" x2="1144.32" y2="816.58"/>
      <line class="cls-1" x1="830.16" y1="759.33" x2="1011.91" y2="750.45"/>
      <line class="cls-1" x1="1156.89" y1="753.41" x2="879.25" y2="752.97"/>
      <line class="cls-1" x1="1194.44" y1="759.33" x2="1016.43" y2="750.45"/>
      <line class="cls-1" x1="830.16" y1="759.33" x2="1194.44" y2="759.33"/>
      <line class="cls-1" x1="908.63" y1="800.69" x2="830.54" y2="759.52"/>
      <line class="cls-1" x1="1194.44" y1="759.33" x2="1151.77" y2="800.97"/>
      <line class="cls-1" x1="908.63" y1="800.69" x2="1093.81" y2="768.73"/>
      <line class="cls-1" x1="1160.36" y1="792.59" x2="1093.81" y2="768.73"/>
      <line class="cls-1" x1="5.02" y1="781.78" x2="74.28" y2="822.02"/>
      <line class="cls-1" x1="369.36" y1="781.78" x2="272.9" y2="827.48"/>
      <line class="cls-1" x1="74.28" y1="822.02" x2="196.48" y2="805.76"/>
      <line class="cls-1" x1="272.9" y1="827.48" x2="196.48" y2="805.76"/>
      <line class="cls-1" x1="74.28" y1="822.02" x2="331.03" y2="811.99"/>
      <line class="cls-1" x1="29.33" y1="805.81" x2="198.06" y2="805.81"/>
      <line class="cls-1" x1="4.3" y1="759.33" x2="46.37" y2="805.81"/>
      <line class="cls-1" x1="303.3" y1="813.08" x2="369.36" y2="759.33"/>
      <line class="cls-1" x1="190.57" y1="750.45" x2="369.36" y2="759.33"/>
      <line class="cls-1" x1="4.3" y1="759.33" x2="186.83" y2="750.45"/>
      <line class="cls-1" x1="53.39" y1="752.97" x2="293.8" y2="766.92"/>
      <line class="cls-1" x1="323.22" y1="752.97" x2="293.8" y2="766.92"/>
      <line class="cls-1" x1="45.58" y1="753.41" x2="116.24" y2="768.03"/>
      <line class="cls-1" x1="190.57" y1="750.45" x2="119.72" y2="768.11"/>
      <line class="cls-1" x1="33.38" y1="791.45" x2="119.72" y2="768.11"/>
      <line class="cls-1" x1="293.8" y1="766.92" x2="326.05" y2="794.56"/>
      <line class="cls-1" x1="198.06" y1="805.81" x2="293.8" y2="766.92"/>
      <line class="cls-1" x1="119.72" y1="768.11" x2="198.06" y2="805.81"/>
      <line class="cls-1" x1="712.82" y1="170.49" x2="685.49" y2="156.65"/>
    </g>
    <g>
      <path class="cls-4" d="M54.17,749.54c-1.58,0-2.86,1.28-2.86,2.86s1.28,2.86,2.86,2.86,2.86-1.28,2.86-2.86-1.28-2.86-2.86-2.86Z"/>
      <path class="cls-4" d="M90.62,750.7c-2.45,0-4.43,1.98-4.43,4.43s1.98,4.43,4.43,4.43,4.43-1.98,4.43-4.43-1.98-4.43-4.43-4.43Z"/>
      <path class="cls-4" d="M186.05,285.95c1.23,0,2.22-.99,2.22-2.22s-.99-2.22-2.22-2.22-2.22.99-2.22,2.22.99,2.22,2.22,2.22Z"/>
      <path class="cls-4" d="M331.03,750.56c-1.58,0-2.86,1.28-2.86,2.86s1.28,2.86,2.86,2.86,2.86-1.28,2.86-2.86-1.28-2.86-2.86-2.86Z"/>
      <path class="cls-4" d="M188.8,283.95c0,1.04.84,1.88,1.88,1.88s1.88-.84,1.88-1.88-.84-1.88-1.88-1.88-1.88.84-1.88,1.88Z"/>
      <path class="cls-4" d="M190.87,747.57c-1.59,0-2.88,1.29-2.88,2.88s1.29,2.88,2.88,2.88,2.88-1.29,2.88-2.88-1.29-2.88-2.88-2.88Z"/>
      <path class="cls-4" d="M185.82,748.58c-1.03,0-1.87.84-1.87,1.87s.84,1.87,1.87,1.87,1.87-.84,1.87-1.87-.84-1.87-1.87-1.87Z"/>
      <path class="cls-4" d="M830.16,764.63c2.93,0,5.3-2.37,5.3-5.3s-2.37-5.3-5.3-5.3-5.3,2.37-5.3,5.3,2.37,5.3,5.3,5.3Z"/>
      <path class="cls-4" d="M992.13,809.95c-2.08,0-3.77,1.69-3.77,3.77s1.69,3.77,3.77,3.77,3.77-1.69,3.77-3.77-1.69-3.77-3.77-3.77Z"/>
      <path class="cls-4" d="M1194.44,753.76c-3.07,0-5.56,2.49-5.56,5.56s2.49,5.56,5.56,5.56,5.56-2.49,5.56-5.56-2.49-5.56-5.56-5.56Z"/>
      <path class="cls-4" d="M874.77,753.41c0-1.84-1.49-3.33-3.33-3.33s-3.33,1.49-3.33,3.33,1.49,3.33,3.33,3.33,3.33-1.49,3.33-3.33Z"/>
      <path class="cls-4" d="M879.25,750.12c-1.57,0-2.85,1.27-2.85,2.85s1.27,2.85,2.85,2.85,2.85-1.27,2.85-2.85-1.27-2.85-2.85-2.85Z"/>
      <path class="cls-4" d="M1011.91,282.02c-.95,0-1.71.77-1.71,1.71s.77,1.71,1.71,1.71,1.71-.77,1.71-1.71-.77-1.71-1.71-1.71Z"/>
      <path class="cls-4" d="M1156.89,757.74c2.39,0,4.33-1.94,4.33-4.32s-1.94-4.32-4.33-4.32-4.32,1.94-4.32,4.32,1.94,4.32,4.32,4.32Z"/>
      <path class="cls-4" d="M1022.35,281.16c-1.42,0-2.57,1.15-2.57,2.57s1.15,2.57,2.57,2.57,2.57-1.15,2.57-2.57-1.15-2.57-2.57-2.57Z"/>
      <path class="cls-4" d="M1149.08,755.77c1.55,0,2.8-1.25,2.8-2.8s-1.25-2.8-2.8-2.8-2.8,1.25-2.8,2.8,1.25,2.8,2.8,2.8Z"/>
      <path class="cls-4" d="M1016.95,747.33c-1.3,0-2.38.87-2.74,2.05-.35-.94-1.24-1.61-2.3-1.61-1.36,0-2.46,1.1-2.46,2.46s1.1,2.46,2.46,2.46c1.07,0,1.97-.68,2.31-1.63.36,1.17,1.44,2.03,2.73,2.03,1.59,0,2.88-1.29,2.88-2.88s-1.29-2.88-2.88-2.88Z"/>
      <path class="cls-4" d="M1074.4,748.98c-2.41,0-4.36,1.95-4.36,4.36s1.95,4.36,4.36,4.36,4.36-1.95,4.36-4.36-1.95-4.36-4.36-4.36Z"/>
      <path class="cls-4" d="M1014.55,283.73c0,1.16.94,2.1,2.1,2.1s2.1-.94,2.1-2.1-.94-2.1-2.1-2.1-2.1.94-2.1,2.1Z"/>
      <path class="cls-4" d="M1011.13,279.63c0,1.29,1.05,2.34,2.34,2.34s2.34-1.05,2.34-2.34-1.05-2.34-2.34-2.34-2.34,1.05-2.34,2.34Z"/>
      <path class="cls-4" d="M156.46,754.69c-2.35,0-4.26,1.91-4.26,4.26s1.91,4.26,4.26,4.26,4.26-1.91,4.26-4.26-1.91-4.26-4.26-4.26Z"/>
      <path class="cls-4" d="M366.44,759.33c0,1.61,1.3,2.91,2.91,2.91s2.91-1.3,2.91-2.91-1.3-2.91-2.91-2.91-2.91,1.3-2.91,2.91Z"/>
      <path class="cls-4" d="M5.02,777.72c-2.25,0-4.07,1.82-4.07,4.07s1.82,4.07,4.07,4.07,4.07-1.82,4.07-4.07-1.82-4.07-4.07-4.07Z"/>
      <path class="cls-4" d="M369.36,778.22c-1.97,0-3.57,1.6-3.57,3.57s1.6,3.57,3.57,3.57,3.57-1.6,3.57-3.57-1.6-3.57-3.57-3.57Z"/>
      <path class="cls-4" d="M604.21,1002.17c0-2.34-1.9-4.23-4.23-4.23s-4.23,1.89-4.23,4.23,1.9,4.23,4.23,4.23,4.23-1.9,4.23-4.23Z"/>
      <path class="cls-4" d="M541.86,898.45c-2.09,0-3.79,1.69-3.79,3.79s1.69,3.79,3.79,3.79,3.79-1.69,3.79-3.79-1.7-3.79-3.79-3.79Z"/>
      <path class="cls-4" d="M774.62,959.32c-2.68,0-4.86,2.17-4.86,4.86s2.17,4.86,4.86,4.86,4.86-2.17,4.86-4.86-2.17-4.86-4.86-4.86Z"/>
      <path class="cls-4" d="M454.48,935.53s-.05,0-.08,0c.39-.54.62-1.19.62-1.91,0-1.78-1.41-3.21-3.17-3.27,1.32-.06,2.37-1.14,2.37-2.47s-1.11-2.48-2.48-2.48-2.48,1.11-2.48,2.48,1.05,2.41,2.37,2.47c-1.76.06-3.17,1.5-3.17,3.27s1.47,3.28,3.28,3.28c.1,0,.18-.02.28-.03-.29.46-.47.99-.47,1.57,0,1.62,1.31,2.93,2.93,2.93s2.93-1.31,2.93-2.93-1.31-2.93-2.93-2.93Z"/>
      <path class="cls-4" d="M600.32,961.41c2,0,3.62-1.62,3.62-3.62s-1.62-3.62-3.62-3.62-3.62,1.62-3.62,3.62,1.62,3.62,3.62,3.62Z"/>
      <path class="cls-4" d="M532.65,864.47c-1.78,0-3.22,1.44-3.22,3.22s1.44,3.22,3.22,3.22,3.22-1.44,3.22-3.22-1.44-3.22-3.22-3.22Z"/>
      <path class="cls-4" d="M600.81,872.5c-2.31,0-4.19,1.88-4.19,4.19s1.88,4.19,4.19,4.19,4.19-1.88,4.19-4.19-1.88-4.19-4.19-4.19Z"/>
      <path class="cls-4" d="M1036.27,275.81c0-1.58-1.28-2.87-2.87-2.87s-2.87,1.28-2.87,2.87,1.28,2.87,2.87,2.87,2.87-1.28,2.87-2.87Z"/>
      <path class="cls-4" d="M995.8,274.51c-1.54,0-2.78,1.25-2.78,2.78s1.25,2.78,2.78,2.78,2.78-1.25,2.78-2.78-1.25-2.78-2.78-2.78Z"/>
      <path class="cls-4" d="M994.44,251c0-2.38-1.93-4.3-4.3-4.3s-4.3,1.93-4.3,4.3,1.93,4.3,4.3,4.3,4.3-1.93,4.3-4.3Z"/>
      <path class="cls-4" d="M872.22,287.56c0,1.67,1.35,3.02,3.02,3.02s3.02-1.35,3.02-3.02-1.35-3.02-3.02-3.02-3.02,1.35-3.02,3.02Z"/>
      <path class="cls-4" d="M839.73,273.03c-2.06,0-3.73,1.67-3.73,3.73s1.67,3.73,3.73,3.73,3.73-1.67,3.73-3.73-1.67-3.73-3.73-3.73Z"/>
      <path class="cls-4" d="M765.92,227.97c-2.14,0-3.88,1.74-3.88,3.88s1.74,3.88,3.88,3.88,3.88-1.74,3.88-3.88-1.74-3.88-3.88-3.88Z"/>
      <path class="cls-4" d="M688.28,206.58c-2.42,0-4.38,1.96-4.38,4.38s1.96,4.38,4.38,4.38,4.38-1.96,4.38-4.38-1.96-4.38-4.38-4.38Z"/>
      <path class="cls-4" d="M649.64,213.4c0,2.49,2.02,4.51,4.51,4.51s4.51-2.02,4.51-4.51-2.02-4.51-4.51-4.51-4.51,2.02-4.51,4.51Z"/>
      <path class="cls-4" d="M629.87,752.02c0-2.16-1.75-3.92-3.92-3.92s-3.92,1.75-3.92,3.92,1.75,3.92,3.92,3.92,3.92-1.75,3.92-3.92Z"/>
      <path class="cls-4" d="M645.8,823.89c-2.22,0-4.03,1.8-4.03,4.03s1.8,4.03,4.03,4.03,4.03-1.8,4.03-4.03-1.8-4.03-4.03-4.03Z"/>
      <path class="cls-4" d="M678.27,870.89c1.26,0,2.29-1.02,2.29-2.28s-1.02-2.28-2.29-2.28-2.28,1.02-2.28,2.28,1.02,2.28,2.28,2.28Z"/>
      <path class="cls-4" d="M750.73,925.52c-1.3,0-2.36,1.06-2.36,2.36s1.06,2.36,2.36,2.36,2.36-1.06,2.36-2.36-1.06-2.36-2.36-2.36Z"/>
      <path class="cls-4" d="M753.21,933.63c0-1.37-1.11-2.48-2.48-2.48s-2.48,1.11-2.48,2.48,1.11,2.48,2.48,2.48,2.48-1.11,2.48-2.48Z"/>
      <path class="cls-4" d="M787.03,969.45c1.76,0,3.19-1.43,3.19-3.19s-1.43-3.19-3.19-3.19-3.19,1.43-3.19,3.19,1.43,3.19,3.19,3.19Z"/>
      <path class="cls-4" d="M611.16,1016.56c-2.8,0-5.06,2.27-5.06,5.06s2.27,5.06,5.06,5.06,5.06-2.27,5.06-5.06-2.27-5.06-5.06-5.06Z"/>
      <path class="cls-4" d="M401.96,982.85c0-2.72-2.2-4.92-4.92-4.92s-4.92,2.2-4.92,4.92,2.2,4.92,4.92,4.92,4.92-2.2,4.92-4.92Z"/>
      <path class="cls-4" d="M402.52,967.9c-1.91,0-3.47,1.55-3.47,3.47s1.55,3.47,3.47,3.47,3.47-1.55,3.47-3.47-1.55-3.47-3.47-3.47Z"/>
      <path class="cls-4" d="M415.45,962.74c-1.95,0-3.53,1.58-3.53,3.53s1.58,3.53,3.53,3.53,3.53-1.58,3.53-3.53-1.58-3.53-3.53-3.53Z"/>
      <path class="cls-4" d="M455.06,929.89c0,1.42,1.15,2.56,2.56,2.56s2.56-1.15,2.56-2.56-1.15-2.56-2.56-2.56-2.56,1.15-2.56,2.56Z"/>
      <path class="cls-4" d="M464.08,922.27c0-2.06-1.67-3.72-3.72-3.72s-3.72,1.67-3.72,3.72,1.67,3.72,3.72,3.72,3.72-1.67,3.72-3.72Z"/>
      <path class="cls-4" d="M519.37,879.7c-1.23,0-2.23,1-2.23,2.23s1,2.23,2.23,2.23,2.23-1,2.23-2.23-1-2.23-2.23-2.23Z"/>
      <path class="cls-4" d="M519.37,871.21c-1.23,0-2.23,1-2.23,2.23s1,2.23,2.23,2.23,2.23-1,2.23-2.23-1-2.23-2.23-2.23Z"/>
      <path class="cls-4" d="M527.49,868.61c0-1.81-1.47-3.28-3.28-3.28s-3.28,1.47-3.28,3.28,1.47,3.28,3.28,3.28,3.28-1.47,3.28-3.28Z"/>
      <path class="cls-4" d="M662.96,854.02c-1.64,0-2.98,1.33-2.98,2.98s1.33,2.98,2.98,2.98,2.98-1.33,2.98-2.98-1.33-2.98-2.98-2.98Z"/>
      <path class="cls-4" d="M580.6,752.02c0-2.25-1.83-4.08-4.08-4.08s-4.08,1.83-4.08,4.08,1.83,4.08,4.08,4.08,4.08-1.83,4.08-4.08Z"/>
      <path class="cls-4" d="M436.55,227.16c-2.59,0-4.69,2.1-4.69,4.69s2.1,4.69,4.69,4.69,4.69-2.1,4.69-4.69-2.1-4.69-4.69-4.69Z"/>
      <path class="cls-4" d="M362.74,272.9c-2.14,0-3.87,1.73-3.87,3.87s1.73,3.87,3.87,3.87,3.87-1.73,3.87-3.87-1.73-3.87-3.87-3.87Z"/>
      <path class="cls-4" d="M327.23,291.99c2.45,0,4.44-1.99,4.44-4.44s-1.99-4.44-4.44-4.44-4.44,1.99-4.44,4.44,1.99,4.44,4.44,4.44Z"/>
      <path class="cls-4" d="M206.67,275.34c-1.07,0-1.94.87-1.94,1.94s.87,1.94,1.94,1.94,1.94-.87,1.94-1.94-.87-1.94-1.94-1.94Z"/>
      <path class="cls-4" d="M180.13,281.62c-1.17,0-2.11.95-2.11,2.11s.95,2.11,2.11,2.11,2.11-.95,2.11-2.11-.95-2.11-2.11-2.11Z"/>
      <path class="cls-4" d="M188.84,281.55c1.02,0,1.84-.83,1.84-1.84s-.83-1.84-1.84-1.84-1.84.83-1.84,1.84.83,1.84,1.84,1.84Z"/>
      <path class="cls-4" d="M169.07,272.75c-1.69,0-3.05,1.37-3.05,3.05s1.37,3.06,3.05,3.06,3.06-1.37,3.06-3.06-1.37-3.05-3.06-3.05Z"/>
      <path class="cls-4" d="M164.55,250.01c1.23,0,2.23-1,2.23-2.23s-1-2.23-2.23-2.23-2.23,1-2.23,2.23,1,2.23,2.23,2.23Z"/>
      <path class="cls-4" d="M191.79,220.97c-1.54,0-2.79,1.25-2.79,2.79s1.25,2.79,2.79,2.79,2.79-1.25,2.79-2.79-1.25-2.79-2.79-2.79Z"/>
      <path class="cls-4" d="M272.52,249.61c0-1.71-1.38-3.09-3.09-3.09s-3.09,1.38-3.09,3.09,1.38,3.09,3.09,3.09,3.09-1.38,3.09-3.09Z"/>
      <path class="cls-4" d="M297.11,261.79c2.21,0,4-1.79,4-4s-1.79-4-4-4-4,1.79-4,4,1.79,4,4,4Z"/>
      <path class="cls-4" d="M329.49,261.3c1.94,0,3.51-1.57,3.51-3.51s-1.57-3.51-3.51-3.51-3.51,1.57-3.51,3.51,1.57,3.51,3.51,3.51Z"/>
      <path class="cls-4" d="M355.43,244.69c-2.04,0-3.7,1.66-3.7,3.7s1.66,3.7,3.7,3.7,3.7-1.66,3.7-3.7-1.66-3.7-3.7-3.7Z"/>
      <path class="cls-4" d="M367.49,249.75c1.81,0,3.27-1.46,3.27-3.27s-1.46-3.27-3.27-3.27-3.27,1.46-3.27,3.27,1.46,3.27,3.27,3.27Z"/>
      <path class="cls-4" d="M427.7,195.99c0-2.04-1.65-3.69-3.69-3.69s-3.69,1.65-3.69,3.69,1.65,3.69,3.69,3.69,3.69-1.65,3.69-3.69Z"/>
      <path class="cls-4" d="M436.03,203.51c1.94,0,3.52-1.58,3.52-3.52s-1.58-3.52-3.52-3.52-3.52,1.58-3.52,3.52,1.58,3.52,3.52,3.52Z"/>
      <path class="cls-4" d="M450.31,207.59c1.81,0,3.28-1.47,3.28-3.28s-1.47-3.28-3.28-3.28-3.28,1.47-3.28,3.28,1.47,3.28,3.28,3.28Z"/>
      <path class="cls-4" d="M457.27,177.3c2.27,0,4.12-1.84,4.12-4.12s-1.84-4.12-4.12-4.12-4.12,1.84-4.12,4.12,1.84,4.12,4.12,4.12Z"/>
      <path class="cls-4" d="M483.38,157.76c-1.98,0-3.59,1.61-3.59,3.59s1.61,3.59,3.59,3.59,3.59-1.61,3.59-3.59-1.61-3.59-3.59-3.59Z"/>
      <circle class="cls-4" cx="579.38" cy="133.23" r="2.11"/>
      <path class="cls-4" d="M579.38,113.39c1.4,0,2.53-1.13,2.53-2.53s-1.13-2.53-2.53-2.53-2.53,1.13-2.53,2.53,1.13,2.53,2.53,2.53Z"/>
      <path class="cls-4" d="M559.63,37.99c1.89,0,3.42-1.53,3.42-3.42s-1.53-3.42-3.42-3.42-3.42,1.53-3.42,3.42,1.53,3.42,3.42,3.42Z"/>
      <path class="cls-4" d="M570.64,20.18c2.58,0,4.67-2.09,4.67-4.67s-2.09-4.67-4.67-4.67-4.67,2.09-4.67,4.67,2.09,4.67,4.67,4.67Z"/>
      <path class="cls-4" d="M631.83,18.36c1.57,0,2.85-1.28,2.85-2.85s-1.28-2.85-2.85-2.85-2.85,1.28-2.85,2.85,1.28,2.85,2.85,2.85Z"/>
      <path class="cls-4" d="M642.84,38.34c2.08,0,3.76-1.69,3.76-3.76s-1.69-3.76-3.76-3.76-3.76,1.68-3.76,3.76,1.68,3.76,3.76,3.76Z"/>
      <path class="cls-4" d="M616.28,87.06c0-1.06-.86-1.91-1.91-1.91s-1.91.86-1.91,1.91.86,1.91,1.91,1.91,1.91-.86,1.91-1.91Z"/>
      <path class="cls-4" d="M614.37,103.59c-1.76,0-3.18,1.42-3.18,3.18s1.42,3.18,3.18,3.18,3.18-1.42,3.18-3.18-1.42-3.18-3.18-3.18Z"/>
      <path class="cls-4" d="M623.1,113.55c1.48,0,2.69-1.2,2.69-2.69s-1.2-2.69-2.69-2.69-2.69,1.2-2.69,2.69,1.2,2.69,2.69,2.69Z"/>
      <path class="cls-4" d="M620.77,133.23c0,1.29,1.04,2.33,2.33,2.33s2.33-1.04,2.33-2.33-1.04-2.33-2.33-2.33-2.33,1.04-2.33,2.33Z"/>
      <path class="cls-4" d="M652.59,161.11c2.46,0,4.46-2,4.46-4.46s-2-4.46-4.46-4.46-4.46,2-4.46,4.46,2,4.46,4.46,4.46Z"/>
      <path class="cls-4" d="M685.49,160.29c2.01,0,3.64-1.63,3.64-3.64s-1.63-3.64-3.64-3.64-3.64,1.63-3.64,3.64,1.63,3.64,3.64,3.64Z"/>
      <path class="cls-4" d="M815.45,221.98c-2.34,0-4.23,1.89-4.23,4.23s1.89,4.23,4.23,4.23,4.23-1.89,4.23-4.23-1.89-4.23-4.23-4.23Z"/>
      <path class="cls-4" d="M872.98,262.05c2.35,0,4.26-1.91,4.26-4.26s-1.91-4.26-4.26-4.26-4.26,1.91-4.26,4.26,1.91,4.26,4.26,4.26Z"/>
      <path class="cls-4" d="M908.61,257.79c0-1.79-1.45-3.24-3.24-3.24s-3.24,1.45-3.24,3.24,1.45,3.24,3.24,3.24,3.24-1.45,3.24-3.24Z"/>
      <path class="cls-4" d="M974.3,226.02c-2.06,0-3.74,1.67-3.74,3.74s1.67,3.74,3.74,3.74,3.74-1.67,3.74-3.74-1.67-3.74-3.74-3.74Z"/>
      <path class="cls-4" d="M995.8,226.5c1.51,0,2.74-1.23,2.74-2.74s-1.23-2.74-2.74-2.74-2.74,1.23-2.74,2.74,1.23,2.74,2.74,2.74Z"/>
      <path class="cls-4" d="M1010.68,226.43c1.48,0,2.68-1.2,2.68-2.68s-1.2-2.68-2.68-2.68-2.68,1.2-2.68,2.68,1.2,2.68,2.68,2.68Z"/>
      <path class="cls-4" d="M1021.04,229.48c1.38,0,2.5-1.12,2.5-2.5s-1.12-2.5-2.5-2.5-2.5,1.12-2.5,2.5,1.12,2.5,2.5,2.5Z"/>
      <path class="cls-4" d="M1035.4,237.07c0-1.59-1.29-2.87-2.87-2.87s-2.87,1.29-2.87,2.87,1.29,2.87,2.87,2.87,2.87-1.29,2.87-2.87Z"/>
      <path class="cls-4" d="M595.49,101.58c-1.21,0-2.19.98-2.19,2.19s.98,2.19,2.19,2.19,2.19-.98,2.19-2.19-.98-2.19-2.19-2.19Z"/>
      <path class="cls-4" d="M591.66,90.31c.91,0,1.64-.74,1.64-1.64s-.74-1.64-1.64-1.64-1.64.74-1.64,1.64.74,1.64,1.64,1.64Z"/>
      <path class="cls-4" d="M516.98,159.94c1.82,0,3.3-1.48,3.3-3.3s-1.48-3.3-3.3-3.3-3.3,1.48-3.3,3.3,1.48,3.3,3.3,3.3Z"/>
      <path class="cls-4" d="M383.63,224.89c-2.11,0-3.82,1.71-3.82,3.82s1.71,3.82,3.82,3.82,3.82-1.71,3.82-3.82-1.71-3.82-3.82-3.82Z"/>
      <path class="cls-4" d="M631.83,72.54c-1.72,0-3.12,1.39-3.12,3.12s1.39,3.12,3.12,3.12,3.12-1.39,3.12-3.12-1.39-3.12-3.12-3.12Z"/>
      <path class="cls-4" d="M559.63,60.48c2.15,0,3.89-1.74,3.89-3.89s-1.74-3.89-3.89-3.89-3.89,1.74-3.89,3.89,1.74,3.89,3.89,3.89Z"/>
      <path class="cls-4" d="M589.71,8.55c2.24,0,4.06-1.82,4.06-4.06s-1.82-4.06-4.06-4.06-4.06,1.82-4.06,4.06,1.82,4.06,4.06,4.06Z"/>
      <path class="cls-4" d="M612.77,8.99c2.48,0,4.5-2.01,4.5-4.5s-2.01-4.5-4.5-4.5-4.5,2.01-4.5,4.5,2.01,4.5,4.5,4.5Z"/>
      <path class="cls-4" d="M642.84,60.79c2.32,0,4.2-1.88,4.2-4.2s-1.88-4.2-4.2-4.2-4.2,1.88-4.2,4.2,1.88,4.2,4.2,4.2Z"/>
      <path class="cls-4" d="M565.99,48.91c1.84,0,3.33-1.49,3.33-3.33s-1.49-3.33-3.33-3.33-3.33,1.49-3.33,3.33,1.49,3.33,3.33,3.33Z"/>
      <path class="cls-4" d="M570.64,78.45c1.54,0,2.8-1.25,2.8-2.8s-1.25-2.8-2.8-2.8-2.8,1.25-2.8,2.8,1.25,2.8,2.8,2.8Z"/>
      <path class="cls-4" d="M584.56,82.65c1.36,0,2.46-1.1,2.46-2.46s-1.1-2.46-2.46-2.46-2.46,1.1-2.46,2.46,1.1,2.46,2.46,2.46Z"/>
      <path class="cls-4" d="M631.83,24.88c-1.91,0-3.47,1.55-3.47,3.47s1.55,3.47,3.47,3.47,3.47-1.55,3.47-3.47-1.55-3.47-3.47-3.47Z"/>
      <path class="cls-4" d="M631.83,64.44c-1.72,0-3.12,1.39-3.12,3.12s1.39,3.12,3.12,3.12,3.12-1.39,3.12-3.12-1.39-3.12-3.12-3.12Z"/>
      <path class="cls-4" d="M591.08,20.92c0,1.65,1.34,2.99,2.99,2.99s2.99-1.34,2.99-2.99-1.34-2.99-2.99-2.99-2.99,1.34-2.99,2.99Z"/>
      <path class="cls-4" d="M604.42,61.77c1.86,0,3.37-1.51,3.37-3.37s-1.51-3.37-3.37-3.37-3.37,1.51-3.37,3.37,1.51,3.37,3.37,3.37Z"/>
      <path class="cls-4" d="M610.64,87.03c-.9,0-1.63.73-1.63,1.63s.73,1.63,1.63,1.63,1.63-.73,1.63-1.63-.73-1.63-1.63-1.63Z"/>
      <path class="cls-4" d="M572.23,126.14c0,1.17.95,2.12,2.12,2.12s2.12-.95,2.12-2.12-.95-2.12-2.12-2.12-2.12.95-2.12,2.12Z"/>
      <path class="cls-4" d="M628.13,123.79c-1.3,0-2.35,1.05-2.35,2.35s1.05,2.35,2.35,2.35,2.35-1.05,2.35-2.35-1.05-2.35-2.35-2.35Z"/>
      <circle class="cls-4" cx="574.34" cy="117.95" r="2.29"/>
      <path class="cls-4" d="M588.1,134.76c-1.42,0-2.57,1.15-2.57,2.57s1.15,2.57,2.57,2.57,2.57-1.15,2.57-2.57-1.15-2.57-2.57-2.57Z"/>
      <circle class="cls-4" cx="628.13" cy="117.95" r="2.02"/>
      <path class="cls-4" d="M592.85,93.21c0-.99-.8-1.79-1.79-1.79s-1.79.8-1.79,1.79.8,1.79,1.79,1.79,1.79-.8,1.79-1.79Z"/>
      <path class="cls-4" d="M609.2,94.22c0,1.26,1.02,2.29,2.29,2.29s2.29-1.02,2.29-2.29-1.02-2.29-2.29-2.29-2.29,1.02-2.29,2.29Z"/>
      <path class="cls-4" d="M588.1,84.75c-1.06,0-1.92.86-1.92,1.92s.86,1.92,1.92,1.92,1.92-.86,1.92-1.92-.86-1.92-1.92-1.92Z"/>
      <path class="cls-4" d="M577.43,123.98c1.21,0,2.18-.98,2.18-2.18s-.98-2.18-2.18-2.18-2.18.98-2.18,2.18.98,2.18,2.18,2.18Z"/>
      <path class="cls-4" d="M627.04,122.05c0-1-.81-1.81-1.81-1.81s-1.81.81-1.81,1.81.81,1.81,1.81,1.81,1.81-.81,1.81-1.81Z"/>
      <path class="cls-4" d="M588.1,104.12c-1.46,0-2.65,1.19-2.65,2.65s1.19,2.65,2.65,2.65,2.65-1.19,2.65-2.65-1.19-2.65-2.65-2.65Z"/>
      <path class="cls-4" d="M606.85,106.11c1.3,0,2.35-1.05,2.35-2.35s-1.05-2.35-2.35-2.35-2.35,1.05-2.35,2.35,1.05,2.35,2.35,2.35Z"/>
      <path class="cls-4" d="M593.94,109.86c0,1.64,1.33,2.97,2.97,2.97s2.97-1.33,2.97-2.97-1.33-2.97-2.97-2.97-2.97,1.33-2.97,2.97Z"/>
      <path class="cls-4" d="M398.79,994.42c-.23-.06-.46-.1-.71-.1-.45,0-.87.11-1.25.3-1.57.57-2.7,2.06-2.7,3.83,0,2.26,1.83,4.08,4.08,4.08s4.08-1.83,4.08-4.08c0-2.06-1.52-3.74-3.5-4.03Z"/>
      <path class="cls-4" d="M710.16,1022.41c-2.29,0-4.14,1.85-4.14,4.14s1.85,4.14,4.14,4.14,4.14-1.85,4.14-4.14-1.85-4.14-4.14-4.14Z"/>
      <path class="cls-4" d="M804.39,993.85c-1.86,0-3.37,1.51-3.37,3.37s1.51,3.37,3.37,3.37,3.37-1.51,3.37-3.37-1.51-3.37-3.37-3.37Z"/>
      <path class="cls-4" d="M764.97,981.84c-1.64,0-2.97,1.33-2.97,2.97s1.33,2.97,2.97,2.97,2.97-1.33,2.97-2.97-1.33-2.97-2.97-2.97Z"/>
      <path class="cls-4" d="M805.77,980.33c-.82,0-1.55.4-2,1.01-.49-.61-1.24-1.01-2.09-1.01-1.49,0-2.7,1.21-2.7,2.7s1.21,2.7,2.7,2.7c.94,0,1.77-.48,2.25-1.21.46.5,1.11.82,1.84.82,1.38,0,2.5-1.12,2.5-2.5s-1.12-2.5-2.5-2.5Z"/>
      <path class="cls-4" d="M803.86,971.36c0-2.16-1.75-3.9-3.9-3.9s-3.9,1.75-3.9,3.9,1.75,3.9,3.9,3.9,3.9-1.75,3.9-3.9Z"/>
      <path class="cls-4" d="M431.24,987.7c-1.76,0-3.19,1.43-3.19,3.19s1.43,3.19,3.19,3.19,3.19-1.43,3.19-3.19-1.43-3.19-3.19-3.19Z"/>
      <path class="cls-4" d="M739.48,922.27c0,1.45,1.18,2.63,2.63,2.63s2.63-1.18,2.63-2.63-1.18-2.63-2.63-2.63-2.63,1.18-2.63,2.63Z"/>
      <path class="cls-4" d="M745.86,938.46c0,1.18.95,2.13,2.13,2.13s2.13-.95,2.13-2.13-.95-2.13-2.13-2.13-2.13.95-2.13,2.13Z"/>
      <path class="cls-4" d="M747.2,930.06c0-1.57-1.27-2.85-2.85-2.85s-2.85,1.27-2.85,2.85,1.27,2.85,2.85,2.85,2.85-1.27,2.85-2.85Z"/>
      <path class="cls-4" d="M787.11,1006.89c-2.41,0-4.37,1.96-4.37,4.37s1.96,4.37,4.37,4.37,4.37-1.96,4.37-4.37-1.96-4.37-4.37-4.37Z"/>
      <path class="cls-4" d="M513.26,1023.96c-2.53,0-4.58,2.05-4.58,4.58s2.05,4.58,4.58,4.58,4.58-2.05,4.58-4.58-2.05-4.58-4.58-4.58Z"/>
      <path class="cls-4" d="M424.74,1011.23c-1.77,0-3.21,1.44-3.21,3.21s1.44,3.21,3.21,3.21,3.21-1.44,3.21-3.21-1.44-3.21-3.21-3.21Z"/>
      <path class="cls-4" d="M466.07,1013.57c-1.45,0-2.63,1.18-2.63,2.63s1.18,2.63,2.63,2.63,2.63-1.18,2.63-2.63-1.18-2.63-2.63-2.63Z"/>
      <path class="cls-4" d="M410.07,971.84c-2.03,0-3.67,1.64-3.67,3.67s1.65,3.67,3.67,3.67,3.67-1.65,3.67-3.67-1.65-3.67-3.67-3.67Z"/>
      <path class="cls-4" d="M752.17,1009.04c-2.45,0-4.43,1.98-4.43,4.43s1.98,4.43,4.43,4.43,4.43-1.98,4.43-4.43-1.98-4.43-4.43-4.43Z"/>
      <path class="cls-4" d="M675.11,883.77c-1.44,0-2.61,1.17-2.61,2.61s1.17,2.61,2.61,2.61,2.61-1.17,2.61-2.61-1.17-2.61-2.61-2.61Z"/>
      <path class="cls-4" d="M683.1,879.05c-1.64,0-2.97,1.33-2.97,2.97s1.33,2.97,2.97,2.97,2.97-1.33,2.97-2.97-1.33-2.97-2.97-2.97Z"/>
      <path class="cls-4" d="M683.1,869.72c-1.84,0-3.33,1.49-3.33,3.33s1.49,3.33,3.33,3.33,3.33-1.49,3.33-3.33-1.49-3.33-3.33-3.33Z"/>
      <path class="cls-4" d="M625.06,884.78c-1.84,0-3.33,1.49-3.33,3.33s1.49,3.33,3.33,3.33,3.33-1.49,3.33-3.33-1.49-3.33-3.33-3.33Z"/>
      <path class="cls-4" d="M423.36,964.18c0,2.48,2.01,4.49,4.49,4.49s4.49-2.01,4.49-4.49-2.01-4.49-4.49-4.49-4.49,2.01-4.49,4.49Z"/>
      <path class="cls-4" d="M753.05,968c0-2.51-2.04-4.55-4.55-4.55s-4.55,2.04-4.55,4.55,2.04,4.55,4.55,4.55,4.55-2.04,4.55-4.55Z"/>
      <path class="cls-4" d="M444.95,983.43c-1.84,0-3.34,1.49-3.34,3.34s1.49,3.34,3.34,3.34,3.34-1.49,3.34-3.34-1.49-3.34-3.34-3.34Z"/>
      <path class="cls-4" d="M609.24,984.43c-2.18,0-3.94,1.77-3.94,3.94s1.77,3.94,3.94,3.94,3.94-1.77,3.94-3.94-1.77-3.94-3.94-3.94Z"/>
      <path class="cls-4" d="M669.83,864.34c-1.85,0-3.35,1.5-3.35,3.35s1.5,3.35,3.35,3.35,3.35-1.5,3.35-3.35-1.5-3.35-3.35-3.35Z"/>
      <path class="cls-4" d="M560.26,827.92c0-1.98-1.61-3.59-3.59-3.59s-3.59,1.61-3.59,3.59,1.61,3.59,3.59,3.59,3.59-1.61,3.59-3.59Z"/>
      <path class="cls-4" d="M719.09,164c1.46,0,2.65-1.19,2.65-2.65s-1.19-2.65-2.65-2.65-2.65,1.19-2.65,2.65,1.19,2.65,2.65,2.65Z"/>
      <path class="cls-4" d="M805.44,253.28c-2.39,0-4.34,1.94-4.34,4.34s1.94,4.34,4.34,4.34,4.34-1.94,4.34-4.34-1.94-4.34-4.34-4.34Z"/>
      <path class="cls-4" d="M1037.93,270.04c1.72,0,3.11-1.39,3.11-3.11s-1.39-3.11-3.11-3.11-3.11,1.39-3.11,3.11,1.39,3.11,3.11,3.11Z"/>
      <path class="cls-4" d="M1005.99,281.42c-1.28,0-2.31,1.03-2.31,2.31s1.03,2.31,2.31,2.31,2.31-1.03,2.31-2.31-1.03-2.31-2.31-2.31Z"/>
      <path class="cls-4" d="M933.04,245.72c-2.15,0-3.89,1.74-3.89,3.89s1.74,3.89,3.89,3.89,3.89-1.74,3.89-3.89-1.74-3.89-3.89-3.89Z"/>
      <path class="cls-4" d="M1037.93,250.75c1.64,0,2.97-1.33,2.97-2.97s-1.33-2.97-2.97-2.97-2.97,1.33-2.97,2.97,1.33,2.97,2.97,2.97Z"/>
      <path class="cls-4" d="M992.92,268.84c0-1.53-1.24-2.78-2.78-2.78s-2.78,1.24-2.78,2.78,1.24,2.78,2.78,2.78,2.78-1.24,2.78-2.78Z"/>
      <path class="cls-4" d="M1001.02,270.97c-1.35,0-2.44,1.09-2.44,2.44s1.09,2.44,2.44,2.44,2.44-1.09,2.44-2.44-1.09-2.44-2.44-2.44Z"/>
      <path class="cls-4" d="M1011.83,261c0-1.56-1.27-2.83-2.83-2.83s-2.83,1.27-2.83,2.83,1.27,2.83,2.83,2.83,2.83-1.27,2.83-2.83Z"/>
      <path class="cls-4" d="M1027.86,268.54c-1.36,0-2.46,1.1-2.46,2.46s1.1,2.46,2.46,2.46,2.46-1.1,2.46-2.46-1.1-2.46-2.46-2.46Z"/>
      <path class="cls-4" d="M1033.56,255.4c-1.36,0-2.46,1.1-2.46,2.46s1.1,2.46,2.46,2.46,2.46-1.1,2.46-2.46-1.1-2.46-2.46-2.46Z"/>
      <path class="cls-4" d="M1022.48,235.96c0,1.3,1.06,2.36,2.36,2.36s2.36-1.06,2.36-2.36-1.06-2.36-2.36-2.36-2.36,1.06-2.36,2.36Z"/>
      <path class="cls-4" d="M911.19,287.91c0-2.16-1.75-3.91-3.91-3.91s-3.91,1.75-3.91,3.91,1.75,3.91,3.91,3.91,3.91-1.75,3.91-3.91Z"/>
      <path class="cls-4" d="M943.14,271.07c-2.18,0-3.95,1.77-3.95,3.95s1.77,3.95,3.95,3.95,3.95-1.77,3.95-3.95-1.77-3.95-3.95-3.95Z"/>
      <path class="cls-4" d="M964.75,249.79c-1.91,0-3.45,1.55-3.45,3.45s1.55,3.45,3.45,3.45,3.45-1.55,3.45-3.45-1.55-3.45-3.45-3.45Z"/>
      <path class="cls-4" d="M932.64,269.58c-1.58,0-2.87,1.28-2.87,2.87s1.28,2.87,2.87,2.87,2.87-1.28,2.87-2.87-1.28-2.87-2.87-2.87Z"/>
      <path class="cls-4" d="M831.97,269.72c2.33,0,4.21-1.89,4.21-4.21s-1.89-4.21-4.21-4.21-4.21,1.89-4.21,4.21,1.89,4.21,4.21,4.21Z"/>
      <path class="cls-4" d="M847.04,244.18c-2.33,0-4.21,1.89-4.21,4.21s1.89,4.21,4.21,4.21,4.21-1.89,4.21-4.21-1.89-4.21-4.21-4.21Z"/>
      <path class="cls-4" d="M778.45,191.79c-2.32,0-4.2,1.88-4.2,4.2s1.88,4.2,4.2,4.2,4.2-1.88,4.2-4.2-1.88-4.2-4.2-4.2Z"/>
      <path class="cls-4" d="M726.25,215.14c0-2.51-2.04-4.55-4.55-4.55s-4.55,2.04-4.55,4.55,2.04,4.55,4.55,4.55,4.55-2.04,4.55-4.55Z"/>
      <path class="cls-4" d="M737.98,180.67c2.37,0,4.29-1.92,4.29-4.29s-1.92-4.29-4.29-4.29-4.29,1.92-4.29,4.29,1.92,4.29,4.29,4.29Z"/>
      <path class="cls-4" d="M640.7,191.18c1.81,0,3.28-1.47,3.28-3.28s-1.47-3.28-3.28-3.28-3.28,1.47-3.28,3.28,1.47,3.28,3.28,3.28Z"/>
      <path class="cls-4" d="M745.2,176.03c1.57,0,2.84-1.27,2.84-2.84s-1.27-2.84-2.84-2.84-2.84,1.27-2.84,2.84,1.27,2.84,2.84,2.84Z"/>
      <path class="cls-4" d="M745.84,185.58c0,2.07,1.68,3.74,3.74,3.74s3.74-1.68,3.74-3.74-1.68-3.74-3.74-3.74-3.74,1.68-3.74,3.74Z"/>
      <path class="cls-4" d="M828.4,243.64c0-2.57-2.09-4.66-4.66-4.66s-4.66,2.09-4.66,4.66,2.09,4.66,4.66,4.66,4.66-2.09,4.66-4.66Z"/>
      <path class="cls-4" d="M713.16,165.47c-2.5,0-4.52,2.03-4.52,4.52s2.03,4.52,4.52,4.52,4.52-2.03,4.52-4.52-2.03-4.52-4.52-4.52Z"/>
      <path class="cls-4" d="M775.15,208.41c1.64,0,2.97-1.33,2.97-2.97s-1.33-2.97-2.97-2.97-2.97,1.33-2.97,2.97,1.33,2.97,2.97,2.97Z"/>
      <path class="cls-4" d="M696.71,189.01c-2.75,0-4.97,2.23-4.97,4.97s2.23,4.97,4.97,4.97,4.97-2.23,4.97-4.97-2.23-4.97-4.97-4.97Z"/>
      <path class="cls-4" d="M754.65,197.1c-1.57,0-2.84,1.27-2.84,2.84s1.27,2.84,2.84,2.84,2.84-1.27,2.84-2.84-1.27-2.84-2.84-2.84Z"/>
      <circle class="cls-4" cx="206.67" cy="223.76" r="2.62"/>
      <path class="cls-4" d="M181.43,224.19c-1.54,0-2.79,1.25-2.79,2.79s1.25,2.79,2.79,2.79,2.79-1.25,2.79-2.79-1.25-2.79-2.79-2.79Z"/>
      <path class="cls-4" d="M164.55,264.93c-1.1,0-2,.9-2,2s.9,2,2,2,2-.9,2-2-.9-2-2-2Z"/>
      <path class="cls-4" d="M196.65,285.83c1.16,0,2.1-.94,2.1-2.1s-.94-2.1-2.1-2.1-2.1.94-2.1,2.1.94,2.1,2.1,2.1Z"/>
      <path class="cls-4" d="M166.49,257.23c0,1.19.97,2.16,2.16,2.16s2.16-.97,2.16-2.16-.97-2.16-2.16-2.16-2.16.97-2.16,2.16Z"/>
      <path class="cls-4" d="M174.65,269.24c-1.66,0-3,1.34-3,3s1.34,3,3,3,3-1.34,3-3-1.34-3-3-3Z"/>
      <path class="cls-4" d="M169.94,240.26c1.76,0,3.19-1.43,3.19-3.19s-1.43-3.19-3.19-3.19-3.19,1.43-3.19,3.19,1.43,3.19,3.19,3.19Z"/>
      <path class="cls-4" d="M212.33,265.86c-1.65,0-2.99,1.34-2.99,2.99s1.34,2.99,2.99,2.99,2.99-1.34,2.99-2.99-1.34-2.99-2.99-2.99Z"/>
      <path class="cls-4" d="M175.43,244.07c1.6,0,2.89-1.29,2.89-2.89s-1.29-2.89-2.89-2.89-2.89,1.29-2.89,2.89,1.29,2.89,2.89,2.89Z"/>
      <path class="cls-4" d="M232.67,229.76c0-2.48-2.01-4.5-4.5-4.5s-4.5,2.01-4.5,4.5,2.01,4.5,4.5,4.5,4.5-2.01,4.5-4.5Z"/>
      <path class="cls-4" d="M259.34,271.47c-1.96,0-3.55,1.59-3.55,3.55s1.59,3.55,3.55,3.55,3.55-1.59,3.55-3.55-1.59-3.55-3.55-3.55Z"/>
      <path class="cls-4" d="M199.17,225c-1.67,0-3.03,1.36-3.03,3.03s1.36,3.03,3.03,3.03,3.03-1.36,3.03-3.03-1.36-3.03-3.03-3.03Z"/>
      <path class="cls-4" d="M212.33,246.53c-2.47,0-4.47,2-4.47,4.47s2,4.47,4.47,4.47,4.47-2,4.47-4.47-2-4.47-4.47-4.47Z"/>
      <path class="cls-4" d="M394.85,261.7c1.58,0,2.87-1.28,2.87-2.87s-1.28-2.87-2.87-2.87-2.87,1.28-2.87,2.87,1.28,2.87,2.87,2.87Z"/>
      <path class="cls-4" d="M410.64,241.8c2.58,0,4.67-2.09,4.67-4.67s-2.09-4.67-4.67-4.67-4.67,2.09-4.67,4.67,2.09,4.67,4.67,4.67Z"/>
      <path class="cls-4" d="M295.2,283.28c-2.55,0-4.62,2.07-4.62,4.62s2.07,4.62,4.62,4.62,4.62-2.07,4.62-4.62-2.07-4.62-4.62-4.62Z"/>
      <path class="cls-4" d="M549.88,161.02c2.41,0,4.37-1.96,4.37-4.37s-1.96-4.37-4.37-4.37-4.37,1.96-4.37,4.37,1.96,4.37,4.37,4.37Z"/>
      <path class="cls-4" d="M548.32,209.84c-1.96,0-3.56,1.59-3.56,3.56s1.59,3.56,3.56,3.56,3.56-1.59,3.56-3.56-1.59-3.56-3.56-3.56Z"/>
      <path class="cls-4" d="M514.33,208c-1.59,0-2.88,1.29-2.88,2.88s1.29,2.88,2.88,2.88,2.88-1.29,2.88-2.88-1.29-2.88-2.88-2.88Z"/>
      <path class="cls-4" d="M557.58,180.2c1.84,0,3.33-1.49,3.33-3.33s-1.49-3.33-3.33-3.33-3.33,1.49-3.33,3.33,1.49,3.33,3.33,3.33Z"/>
      <path class="cls-4" d="M480.77,218.27c1.73,0,3.13-1.4,3.13-3.13s-1.4-3.13-3.13-3.13-3.13,1.4-3.13,3.13,1.4,3.13,3.13,3.13Z"/>
      <path class="cls-4" d="M353.3,257.45c-1.61,0-2.91,1.3-2.91,2.91s1.3,2.91,2.91,2.91,2.91-1.3,2.91-2.91-1.3-2.91-2.91-2.91Z"/>
      <path class="cls-4" d="M490.85,167.44c-1.84,0-3.32,1.49-3.32,3.32s1.49,3.32,3.32,3.32,3.32-1.49,3.32-3.32-1.49-3.32-3.32-3.32Z"/>
      <path class="cls-4" d="M201.41,258.14c0-1.68-1.36-3.04-3.04-3.04s-3.04,1.36-3.04,3.04,1.36,3.04,3.04,3.04,3.04-1.36,3.04-3.04Z"/>
      <path class="cls-4" d="M260.87,255.44c0-1.71-1.39-3.09-3.09-3.09s-3.09,1.38-3.09,3.09,1.38,3.09,3.09,3.09,3.09-1.38,3.09-3.09Z"/>
      <path class="cls-4" d="M251.05,245.98c-2,0-3.63,1.62-3.63,3.63s1.62,3.63,3.63,3.63,3.63-1.62,3.63-3.63-1.62-3.63-3.63-3.63Z"/>
      <path class="cls-4" d="M339.36,271.31c-2.05,0-3.72,1.66-3.72,3.72s1.66,3.72,3.72,3.72,3.72-1.66,3.72-3.72-1.66-3.72-3.72-3.72Z"/>
      <path class="cls-4" d="M378.73,260.5c-1.68,0-3.04,1.36-3.04,3.04s1.36,3.04,3.04,3.04,3.04-1.36,3.04-3.04-1.36-3.04-3.04-3.04Z"/>
      <path class="cls-4" d="M275.71,267.76c-1.79,0-3.24,1.45-3.24,3.24s1.45,3.24,3.24,3.24,3.24-1.45,3.24-3.24-1.45-3.24-3.24-3.24Z"/>
      <path class="cls-4" d="M455.78,207.24c0,2.01,1.63,3.64,3.64,3.64s3.64-1.63,3.64-3.64-1.63-3.64-3.64-3.64-3.64,1.63-3.64,3.64Z"/>
      <path class="cls-4" d="M614.37,134.76c-1.42,0-2.57,1.15-2.57,2.57s1.15,2.57,2.57,2.57,2.57-1.15,2.57-2.57-1.15-2.57-2.57-2.57Z"/>
      <path class="cls-4" d="M576.52,159.33c-1.69,0-3.06,1.37-3.06,3.06s1.37,3.06,3.06,3.06,3.06-1.37,3.06-3.06-1.37-3.06-3.06-3.06Z"/>
      <path class="cls-4" d="M625.96,135.15c-1.2,0-2.18.97-2.18,2.18s.97,2.18,2.18,2.18,2.18-.97,2.18-2.18-.97-2.18-2.18-2.18Z"/>
      <path class="cls-4" d="M585.63,159.59c1.79,0,3.24-1.45,3.24-3.24s-1.45-3.24-3.24-3.24-3.24,1.45-3.24,3.24,1.45,3.24,3.24,3.24Z"/>
      <path class="cls-4" d="M576.52,135.16c-1.2,0-2.17.97-2.17,2.17s.97,2.17,2.17,2.17,2.17-.97,2.17-2.17-.97-2.17-2.17-2.17Z"/>
      <path class="cls-4" d="M737.15,938.97c-2.04,0-3.69,1.65-3.69,3.69s1.65,3.69,3.69,3.69,3.69-1.65,3.69-3.69-1.65-3.69-3.69-3.69Z"/>
      <path class="cls-4" d="M574.27,892.47c2.51,0,4.54-2.03,4.54-4.54s-2.03-4.54-4.54-4.54-4.54,2.03-4.54,4.54,2.03,4.54,4.54,4.54Z"/>
      <path class="cls-4" d="M527.49,876.27c0-1.54-1.25-2.79-2.79-2.79s-2.79,1.25-2.79,2.79,1.25,2.79,2.79,2.79,2.79-1.25,2.79-2.79Z"/>
      <path class="cls-4" d="M476.55,944.86c0-2.44-1.98-4.42-4.42-4.42s-4.42,1.98-4.42,4.42,1.98,4.42,4.42,4.42,4.42-1.98,4.42-4.42Z"/>
      <path class="cls-4" d="M535.07,994.17c-3.28,0-5.93,2.66-5.93,5.93s2.66,5.93,5.93,5.93,5.93-2.66,5.93-5.93-2.66-5.93-5.93-5.93Z"/>
      <path class="cls-4" d="M791.45,972.81c-1.58,0-2.87,1.28-2.87,2.87s1.28,2.87,2.87,2.87,2.87-1.28,2.87-2.87-1.28-2.87-2.87-2.87Z"/>
      <path class="cls-4" d="M713.23,995.89c0-2.85-2.31-5.16-5.16-5.16s-5.16,2.31-5.16,5.16,2.31,5.16,5.16,5.16,5.16-2.31,5.16-5.16Z"/>
      <path class="cls-4" d="M763.95,969.78c0-1.84-1.49-3.33-3.33-3.33s-3.33,1.49-3.33,3.33,1.49,3.33,3.33,3.33,3.33-1.49,3.33-3.33Z"/>
      <path class="cls-4" d="M465.09,949.57c0-2.08-1.69-3.76-3.76-3.76s-3.76,1.69-3.76,3.76,1.69,3.76,3.76,3.76,3.76-1.68,3.76-3.76Z"/>
      <path class="cls-4" d="M479.62,974.58c-2.6,0-4.7,2.11-4.7,4.7s2.11,4.7,4.7,4.7,4.7-2.11,4.7-4.7-2.11-4.7-4.7-4.7Z"/>
      <path class="cls-4" d="M476.16,922.46c2.41,0,4.37-1.96,4.37-4.37s-1.96-4.37-4.37-4.37-4.37,1.96-4.37,4.37,1.96,4.37,4.37,4.37Z"/>
      <path class="cls-4" d="M647.03,890.05c-2.38,0-4.31,1.93-4.31,4.31s1.93,4.31,4.31,4.31,4.31-1.93,4.31-4.31-1.93-4.31-4.31-4.31Z"/>
      <path class="cls-4" d="M726.32,913.4c-2.59,0-4.69,2.1-4.69,4.69s2.1,4.69,4.69,4.69,4.69-2.1,4.69-4.69-2.1-4.69-4.69-4.69Z"/>
      <path class="cls-4" d="M577.21,934.71c-2.39,0-4.34,1.94-4.34,4.34s1.94,4.34,4.34,4.34,4.34-1.94,4.34-4.34-1.94-4.34-4.34-4.34Z"/>
      <path class="cls-4" d="M526.01,883.14c-1.52,0-2.75,1.23-2.75,2.75s1.23,2.75,2.75,2.75,2.75-1.23,2.75-2.75-1.23-2.75-2.75-2.75Z"/>
      <path class="cls-4" d="M532.65,854.19c1.82,0,3.29-1.47,3.29-3.29s-1.47-3.29-3.29-3.29-3.29,1.47-3.29,3.29,1.47,3.29,3.29,3.29Z"/>
      <path class="cls-4" d="M669.83,854.81c2.16,0,3.91-1.75,3.91-3.91s-1.75-3.91-3.91-3.91-3.91,1.75-3.91,3.91,1.75,3.91,3.91,3.91Z"/>
      <path class="cls-4" d="M560.15,873.78c0-2.39-1.93-4.32-4.32-4.32s-4.32,1.93-4.32,4.32,1.93,4.32,4.32,4.32,4.32-1.93,4.32-4.32Z"/>
      <path class="cls-4" d="M677.73,873.62c-1.44,0-2.6,1.16-2.6,2.6s1.16,2.6,2.6,2.6,2.6-1.16,2.6-2.6-1.16-2.6-2.6-2.6Z"/>
      <path class="cls-4" d="M647.8,874.12c0-2.26-1.83-4.09-4.09-4.09s-4.09,1.83-4.09,4.09,1.83,4.09,4.09,4.09,4.09-1.83,4.09-4.09Z"/>
      <path class="cls-4" d="M601.24,142.43c-1.98,0-3.59,1.61-3.59,3.59s1.61,3.59,3.59,3.59,3.59-1.61,3.59-3.59-1.61-3.59-3.59-3.59Z"/>
      <path class="cls-4" d="M571.99,794.93c2.16,0,3.92-1.75,3.92-3.92s-1.75-3.92-3.92-3.92-3.92,1.75-3.92,3.92,1.75,3.92,3.92,3.92Z"/>
      <path class="cls-4" d="M630.48,786.74c-2.36,0-4.27,1.91-4.27,4.27s1.91,4.27,4.27,4.27,4.27-1.91,4.27-4.27-1.91-4.27-4.27-4.27Z"/>
      <path class="cls-4" d="M655.9,842.54c0,.56.2,1.07.51,1.48-1.2.05-2.16,1.04-2.16,2.25s1.01,2.26,2.26,2.26,2.26-1.01,2.26-2.26c0-.48-.15-.93-.41-1.3,1.34-.01,2.42-1.1,2.42-2.44s-1.09-2.44-2.44-2.44-2.44,1.09-2.44,2.44Z"/>
      <path class="cls-4" d="M560.37,853.47c1.63,0,2.95-1.32,2.95-2.95s-1.32-2.95-2.95-2.95-2.95,1.32-2.95,2.95,1.32,2.95,2.95,2.95Z"/>
      <path class="cls-4" d="M545.55,844.11c-.12,0-.23.02-.35.04.72-.43,1.2-1.2,1.2-2.1,0-1.35-1.1-2.45-2.45-2.45s-2.45,1.1-2.45,2.45,1.1,2.45,2.45,2.45c.14,0,.28-.02.42-.04-.62.39-1.03,1.08-1.03,1.87,0,1.22.99,2.22,2.22,2.22s2.22-.99,2.22-2.22-.99-2.22-2.22-2.22Z"/>
      <path class="cls-4" d="M599.73,866.67c2.77,0,5.01-2.24,5.01-5.01s-2.24-5.01-5.01-5.01-5.01,2.24-5.01,5.01,2.24,5.01,5.01,5.01Z"/>
      <path class="cls-4" d="M617.87,793.32c-2.2,0-3.99,1.79-3.99,3.99s1.79,3.99,3.99,3.99,3.99-1.79,3.99-3.99-1.79-3.99-3.99-3.99Z"/>
      <path class="cls-4" d="M644.01,850.56c0-2.24-1.81-4.05-4.05-4.05s-4.05,1.81-4.05,4.05,1.81,4.05,4.05,4.05,4.05-1.81,4.05-4.05Z"/>
      <path class="cls-4" d="M568.6,823.73c0-1.96-1.59-3.54-3.55-3.54s-3.55,1.59-3.55,3.54,1.59,3.54,3.55,3.54,3.55-1.59,3.55-3.54Z"/>
      <path class="cls-4" d="M594.04,697.51c0,1.51,1.23,2.74,2.74,2.74s2.74-1.23,2.74-2.74-1.23-2.74-2.74-2.74-2.74,1.23-2.74,2.74Z"/>
      <path class="cls-4" d="M599.76,773.12c0-2.2-1.78-3.98-3.98-3.98s-3.98,1.78-3.98,3.98,1.78,3.98,3.98,3.98,3.98-1.78,3.98-3.98Z"/>
      <path class="cls-4" d="M576.52,636.98c-2.38,0-4.31,1.93-4.31,4.31s1.93,4.31,4.31,4.31,4.31-1.93,4.31-4.31-1.93-4.31-4.31-4.31Z"/>
      <path class="cls-4" d="M614.12,635.11c2.16,0,3.91-1.75,3.91-3.91s-1.75-3.91-3.91-3.91-3.91,1.75-3.91,3.91,1.75,3.91,3.91,3.91Z"/>
      <path class="cls-4" d="M625.96,480.71c-1.87,0-3.39,1.52-3.39,3.39s1.52,3.39,3.39,3.39,3.39-1.52,3.39-3.39-1.52-3.39-3.39-3.39Z"/>
      <path class="cls-4" d="M586.2,325.35c-2.31,0-4.18,1.87-4.18,4.18s1.87,4.18,4.18,4.18,4.18-1.87,4.18-4.18-1.87-4.18-4.18-4.18Z"/>
      <path class="cls-4" d="M610.47,274.89c0-1.74-1.41-3.16-3.16-3.16s-3.16,1.41-3.16,3.16,1.41,3.16,3.16,3.16,3.16-1.41,3.16-3.16Z"/>
      <path class="cls-4" d="M611.6,354.34c0,1.54,1.25,2.79,2.79,2.79s2.79-1.25,2.79-2.79-1.25-2.79-2.79-2.79-2.79,1.25-2.79,2.79Z"/>
      <path class="cls-4" d="M572.98,226.63c0,1.95,1.58,3.54,3.54,3.54s3.54-1.58,3.54-3.54-1.58-3.54-3.54-3.54-3.54,1.58-3.54,3.54Z"/>
      <path class="cls-4" d="M625.96,159.3c-1.71,0-3.09,1.38-3.09,3.09s1.38,3.09,3.09,3.09,3.09-1.38,3.09-3.09-1.38-3.09-3.09-3.09Z"/>
      <path class="cls-4" d="M625.96,229.62c1.65,0,2.99-1.34,2.99-2.99s-1.34-2.99-2.99-2.99-2.99,1.34-2.99,2.99,1.34,2.99,2.99,2.99Z"/>
      <path class="cls-4" d="M576.79,439.9c-2.49,0-4.51,2.02-4.51,4.51s2.02,4.51,4.51,4.51,4.51-2.02,4.51-4.51-2.02-4.51-4.51-4.51Z"/>
      <path class="cls-4" d="M604.17,489.32c0-1.62-1.31-2.93-2.93-2.93s-2.93,1.31-2.93,2.93,1.31,2.93,2.93,2.93,2.93-1.31,2.93-2.93Z"/>
      <path class="cls-4" d="M605.54,416.22c0,1.63,1.32,2.96,2.96,2.96s2.96-1.32,2.96-2.96-1.32-2.96-2.96-2.96-2.96,1.32-2.96,2.96Z"/>
      <path class="cls-4" d="M584.9,660c-2.19,0-3.96,1.77-3.96,3.96s1.77,3.96,3.96,3.96,3.96-1.77,3.96-3.96-1.77-3.96-3.96-3.96Z"/>
      <path class="cls-4" d="M625.96,615.88c-1.73,0-3.14,1.41-3.14,3.14s1.41,3.14,3.14,3.14,3.14-1.41,3.14-3.14-1.41-3.14-3.14-3.14Z"/>
      <path class="cls-4" d="M608.11,565.28c1.64,0,2.97-1.33,2.97-2.97s-1.33-2.97-2.97-2.97-2.97,1.33-2.97,2.97,1.33,2.97,2.97,2.97Z"/>
      <path class="cls-4" d="M602.04,177.67c0-1.88-1.52-3.4-3.4-3.4s-3.4,1.52-3.4,3.4,1.52,3.4,3.4,3.4,3.4-1.52,3.4-3.4Z"/>
      <path class="cls-4" d="M609.85,174.92c1.83,0,3.31-1.48,3.31-3.31s-1.48-3.31-3.31-3.31-3.31,1.48-3.31,3.31,1.48,3.31,3.31,3.31Z"/>
      <path class="cls-4" d="M620.02,769.04c0,1.41,1.14,2.55,2.55,2.55s2.55-1.14,2.55-2.55-1.14-2.55-2.55-2.55-2.55,1.14-2.55,2.55Z"/>
      <path class="cls-4" d="M614.79,756.42c0,1.78,1.44,3.23,3.23,3.23s3.23-1.44,3.23-3.23-1.44-3.23-3.23-3.23-3.23,1.44-3.23,3.23Z"/>
      <path class="cls-4" d="M618.45,647.11c0-1.62-1.31-2.93-2.93-2.93s-2.93,1.31-2.93,2.93,1.31,2.93,2.93,2.93,2.93-1.31,2.93-2.93Z"/>
      <path class="cls-4" d="M659.56,883.77c-1.44,0-2.61,1.17-2.61,2.61s1.17,2.61,2.61,2.61,2.61-1.17,2.61-2.61-1.17-2.61-2.61-2.61Z"/>
      <path class="cls-4" d="M561.42,918.13c-2.5,0-4.52,2.02-4.52,4.52s2.02,4.52,4.52,4.52,4.52-2.02,4.52-4.52-2.02-4.52-4.52-4.52Z"/>
      <path class="cls-4" d="M656.17,892.41c-2.3,0-4.17,1.87-4.17,4.17s1.87,4.17,4.17,4.17,4.17-1.87,4.17-4.17-1.87-4.17-4.17-4.17Z"/>
      <path class="cls-4" d="M574.14,896.55c0-2.05-1.66-3.71-3.71-3.71s-3.71,1.66-3.71,3.71,1.66,3.71,3.71,3.71,3.71-1.66,3.71-3.71Z"/>
      <path class="cls-4" d="M1194.44,778.16c-2,0-3.63,1.62-3.63,3.63s1.62,3.63,3.63,3.63,3.63-1.62,3.63-3.63-1.62-3.63-3.63-3.63Z"/>
      <path class="cls-4" d="M831.01,776.3c-3.28,0-5.94,2.66-5.94,5.94s2.66,5.94,5.94,5.94,5.94-2.66,5.94-5.94-2.66-5.94-5.94-5.94Z"/>
      <path class="cls-4" d="M1179.84,796.24c-2,0-3.62,1.62-3.62,3.62s1.62,3.62,3.62,3.62,3.62-1.62,3.62-3.62-1.62-3.62-3.62-3.62Z"/>
      <path class="cls-4" d="M855.19,802.98c-1.56,0-2.82,1.26-2.82,2.82s1.26,2.82,2.82,2.82,2.82-1.26,2.82-2.82-1.26-2.82-2.82-2.82Z"/>
      <path class="cls-4" d="M874.22,799.63c-2.41,0-4.36,1.95-4.36,4.36s1.95,4.36,4.36,4.36,4.36-1.95,4.36-4.36-1.95-4.36-4.36-4.36Z"/>
      <path class="cls-4" d="M1089.62,825.55c-1.86,0-3.37,1.51-3.37,3.37s1.51,3.37,3.37,3.37,3.37-1.51,3.37-3.37-1.51-3.37-3.37-3.37Z"/>
      <path class="cls-4" d="M908.63,796.67c-2.22,0-4.02,1.8-4.02,4.02s1.8,4.02,4.02,4.02,4.02-1.8,4.02-4.02-1.8-4.02-4.02-4.02Z"/>
      <path class="cls-4" d="M1043.31,801.23c-2.28,0-4.12,1.85-4.12,4.12s1.85,4.12,4.12,4.12,4.12-1.85,4.12-4.12-1.85-4.12-4.12-4.12Z"/>
      <path class="cls-4" d="M917.71,821.7c-2.3,0-4.17,1.87-4.17,4.17s1.87,4.17,4.17,4.17,4.17-1.87,4.17-4.17-1.87-4.17-4.17-4.17Z"/>
      <path class="cls-4" d="M1144.32,812.88c-2.04,0-3.7,1.66-3.7,3.7s1.66,3.7,3.7,3.7,3.7-1.66,3.7-3.7-1.66-3.7-3.7-3.7Z"/>
      <path class="cls-4" d="M958.76,749.36c-2.24,0-4.05,1.81-4.05,4.05s1.81,4.05,4.05,4.05,4.05-1.81,4.05-4.05-1.81-4.05-4.05-4.05Z"/>
      <path class="cls-4" d="M1151.77,797.34c-2.01,0-3.63,1.63-3.63,3.63s1.63,3.63,3.63,3.63,3.63-1.63,3.63-3.63-1.63-3.63-3.63-3.63Z"/>
      <path class="cls-4" d="M1093.81,764.54c-2.31,0-4.19,1.87-4.19,4.19s1.87,4.19,4.19,4.19,4.19-1.87,4.19-4.19-1.87-4.19-4.19-4.19Z"/>
      <path class="cls-4" d="M1160.36,788.78c-2.1,0-3.81,1.71-3.81,3.81s1.71,3.81,3.81,3.81,3.81-1.71,3.81-3.81-1.71-3.81-3.81-3.81Z"/>
      <path class="cls-4" d="M272.9,823.73c-2.07,0-3.75,1.68-3.75,3.75s1.68,3.75,3.75,3.75,3.75-1.68,3.75-3.75-1.68-3.75-3.75-3.75Z"/>
      <path class="cls-4" d="M74.28,817.38c-2.56,0-4.64,2.08-4.64,4.64s2.08,4.64,4.64,4.64,4.64-2.08,4.64-4.64-2.08-4.64-4.64-4.64Z"/>
      <path class="cls-4" d="M331.03,809.36c-1.45,0-2.63,1.18-2.63,2.63s1.18,2.63,2.63,2.63,2.63-1.18,2.63-2.63-1.18-2.63-2.63-2.63Z"/>
      <path class="cls-4" d="M29.33,801.3c-2.49,0-4.5,2.02-4.5,4.5s2.02,4.5,4.5,4.5,4.5-2.02,4.5-4.5-2.02-4.5-4.5-4.5Z"/>
      <path class="cls-4" d="M46.37,801.8c-2.21,0-4.01,1.79-4.01,4.01s1.79,4.01,4.01,4.01,4.01-1.79,4.01-4.01-1.79-4.01-4.01-4.01Z"/>
      <path class="cls-4" d="M303.3,809.47c-1.99,0-3.6,1.61-3.6,3.6s1.61,3.6,3.6,3.6,3.6-1.61,3.6-3.6-1.61-3.6-3.6-3.6Z"/>
      <path class="cls-4" d="M4.3,763.63c2.38,0,4.3-1.93,4.3-4.3s-1.93-4.3-4.3-4.3-4.3,1.93-4.3,4.3,1.93,4.3,4.3,4.3Z"/>
      <path class="cls-4" d="M61.31,753.84c-1.68,0-3.05,1.37-3.05,3.05s1.37,3.05,3.05,3.05,3.05-1.37,3.05-3.05-1.37-3.05-3.05-3.05Z"/>
      <path class="cls-4" d="M327.52,752.97c0-2.38-1.93-4.3-4.3-4.3s-4.3,1.93-4.3,4.3,1.93,4.3,4.3,4.3,4.3-1.93,4.3-4.3Z"/>
      <path class="cls-4" d="M118.33,764.65c-1.87,0-3.38,1.51-3.38,3.38s1.51,3.38,3.38,3.38,3.38-1.51,3.38-3.38-1.51-3.38-3.38-3.38Z"/>
      <path class="cls-4" d="M45.34,756.12c1.66,0,3.01-1.35,3.01-3.01s-1.35-3.01-3.01-3.01-3.01,1.35-3.01,3.01,1.35,3.01,3.01,3.01Z"/>
      <path class="cls-4" d="M33.38,788.65c-1.55,0-2.8,1.25-2.8,2.8s1.25,2.8,2.8,2.8,2.8-1.25,2.8-2.8-1.25-2.8-2.8-2.8Z"/>
      <path class="cls-4" d="M330.22,794.56c0-2.3-1.86-4.16-4.16-4.16s-4.16,1.86-4.16,4.16,1.86,4.16,4.16,4.16,4.16-1.86,4.16-4.16Z"/>
      <path class="cls-4" d="M293.8,762.29c-2.56,0-4.63,2.07-4.63,4.63s2.07,4.63,4.63,4.63,4.63-2.07,4.63-4.63-2.07-4.63-4.63-4.63Z"/>
      <path class="cls-4" d="M198.06,801.75c-2.24,0-4.05,1.81-4.05,4.05s1.81,4.05,4.05,4.05,4.05-1.81,4.05-4.05-1.81-4.05-4.05-4.05Z"/>
      <path class="cls-4" d="M231.3,811.11c-2.37,0-4.28,1.92-4.28,4.28s1.92,4.28,4.28,4.28,4.28-1.92,4.28-4.28-1.92-4.28-4.28-4.28Z"/>
      <path class="cls-4" d="M1037.93,816.9c-2.23,0-4.05,1.81-4.05,4.05s1.81,4.05,4.05,4.05,4.05-1.81,4.05-4.05-1.81-4.05-4.05-4.05Z"/>
      <path class="cls-4" d="M1071.26,816.65c-1.62,0-2.93,1.31-2.93,2.93s1.31,2.93,2.93,2.93,2.93-1.31,2.93-2.93-1.31-2.93-2.93-2.93Z"/>
      <path class="cls-4" d="M1122.46,811.24c-1.61,0-2.91,1.3-2.91,2.91s1.3,2.91,2.91,2.91,2.91-1.3,2.91-2.91-1.3-2.91-2.91-2.91Z"/>
      <path class="cls-4" d="M1113.65,814.51c-1.99,0-3.6,1.61-3.6,3.6s1.61,3.6,3.6,3.6,3.6-1.61,3.6-3.6-1.61-3.6-3.6-3.6Z"/>
    </g>
  </g>
</svg>