<?xml version="1.0" encoding="UTF-8"?>
<svg xmlns="http://www.w3.org/2000/svg" xmlns:xlink="http://www.w3.org/1999/xlink" viewBox="0 0 1326.8 961.24">
  <defs>
    <style>
      .cls-1, .cls-2 {
        stroke: #c5f1a9;
        stroke-miterlimit: 10;
      }

      .cls-1, .cls-2, .cls-3, .cls-4 {
        fill: #9fe870;
      }

      .cls-5 {
        fill: url(#linear-gradient-2);
      }

      .cls-2, .cls-6, .cls-4, .cls-7, .cls-8, .cls-9, .cls-10 {
        mix-blend-mode: overlay;
      }

      .cls-11, .cls-12 {
        mix-blend-mode: color-dodge;
      }

      .cls-13 {
        fill: url(#linear-gradient-4);
      }

      .cls-6 {
        opacity: .45;
      }

      .cls-6, .cls-9, .cls-14 {
        fill: #c5f1a9;
      }

      .cls-15 {
        fill: url(#radial-gradient);
      }

      .cls-16 {
        fill: url(#linear-gradient-3);
      }

      .cls-17 {
        fill: url(#linear-gradient-5);
      }

      .cls-12 {
        fill: url(#linear-gradient);
      }

      .cls-18 {
        fill: #163300;
      }

      .cls-19 {
        isolation: isolate;
      }

      .cls-7 {
        fill: #fff;
      }

      .cls-20 {
        mix-blend-mode: screen;
      }

      .cls-8 {
        fill: #b2ed8d;
      }

      .cls-21 {
        fill: url(#linear-gradient-6);
      }
    </style>
    <radialGradient id="radial-gradient" cx="681.42" cy="2041.09" fx="681.42" fy="2041.09" r="317.06" gradientTransform="translate(0 640.41) scale(1 .13)" gradientUnits="userSpaceOnUse">
      <stop offset="0" stop-color="#9fe870"/>
      <stop offset=".28" stop-color="#a0e872"/>
      <stop offset=".45" stop-color="#a6e97a"/>
      <stop offset=".58" stop-color="#afeb88"/>
      <stop offset=".7" stop-color="#bcef9c"/>
      <stop offset=".8" stop-color="#cef3b6"/>
      <stop offset=".9" stop-color="#e3f8d6"/>
      <stop offset=".99" stop-color="#fcfefa"/>
      <stop offset="1" stop-color="#fff"/>
    </radialGradient>
    <linearGradient id="linear-gradient" x1="-74.55" y1="419.62" x2="-566.2" y2="915.64" gradientTransform="translate(-1.88 629.4) rotate(-93.99)" gradientUnits="userSpaceOnUse">
      <stop offset="0" stop-color="#9fe870"/>
      <stop offset=".33" stop-color="#abea82"/>
      <stop offset=".87" stop-color="#c5f1a9"/>
      <stop offset="1" stop-color="#fff"/>
    </linearGradient>
    <linearGradient id="linear-gradient-2" x1="782.65" y1="512.46" x2="804.08" y2="189.87" gradientUnits="userSpaceOnUse">
      <stop offset="0" stop-color="#163300"/>
      <stop offset=".1" stop-color="#1a3705"/>
      <stop offset=".21" stop-color="#284314"/>
      <stop offset=".35" stop-color="#3f572d"/>
      <stop offset=".49" stop-color="#5f7450"/>
      <stop offset=".56" stop-color="#738566"/>
      <stop offset=".63" stop-color="#778a69"/>
      <stop offset=".72" stop-color="#829972"/>
      <stop offset=".82" stop-color="#95b282"/>
      <stop offset=".92" stop-color="#b0d598"/>
      <stop offset=".99" stop-color="#c5f1a9"/>
    </linearGradient>
    <linearGradient id="linear-gradient-3" x1="648.56" y1="533.71" x2="467.62" y2="344.44" gradientUnits="userSpaceOnUse">
      <stop offset="0" stop-color="#163300"/>
      <stop offset=".1" stop-color="#1a3705"/>
      <stop offset=".21" stop-color="#284314"/>
      <stop offset=".35" stop-color="#3f572d"/>
      <stop offset=".49" stop-color="#5f7450"/>
      <stop offset=".56" stop-color="#738566"/>
      <stop offset=".63" stop-color="#778a69"/>
      <stop offset=".72" stop-color="#829972"/>
      <stop offset=".82" stop-color="#95b282"/>
      <stop offset=".92" stop-color="#b0d598"/>
      <stop offset=".99" stop-color="#c5f1a9"/>
    </linearGradient>
    <linearGradient id="linear-gradient-4" x1="824.6" y1="703.51" x2="930.65" y2="584.4" gradientUnits="userSpaceOnUse">
      <stop offset="0" stop-color="#163300"/>
      <stop offset=".13" stop-color="#183602"/>
      <stop offset=".25" stop-color="#214209"/>
      <stop offset=".37" stop-color="#305515"/>
      <stop offset=".49" stop-color="#447026"/>
      <stop offset=".6" stop-color="#5f933b"/>
      <stop offset=".72" stop-color="#7ebd55"/>
      <stop offset=".82" stop-color="#9fe870"/>
      <stop offset=".87" stop-color="#a7ea7d"/>
      <stop offset=".97" stop-color="#beef9f"/>
      <stop offset="1" stop-color="#c5f1a9"/>
    </linearGradient>
    <linearGradient id="linear-gradient-5" x1="466.21" y1="674.47" x2="440.4" y2="595.6" gradientUnits="userSpaceOnUse">
      <stop offset=".54" stop-color="#163300"/>
      <stop offset=".58" stop-color="#193803"/>
      <stop offset=".63" stop-color="#25470c"/>
      <stop offset=".69" stop-color="#375f1b"/>
      <stop offset=".74" stop-color="#518230"/>
      <stop offset=".81" stop-color="#73ae4c"/>
      <stop offset=".87" stop-color="#9be36d"/>
      <stop offset=".87" stop-color="#9fe870"/>
      <stop offset=".91" stop-color="#a7ea7d"/>
      <stop offset=".98" stop-color="#beef9f"/>
      <stop offset="1" stop-color="#c5f1a9"/>
    </linearGradient>
    <linearGradient id="linear-gradient-6" x1="511.95" y1="696.29" x2="498.64" y2="582.46" gradientUnits="userSpaceOnUse">
      <stop offset=".19" stop-color="#163300"/>
      <stop offset=".29" stop-color="#183602"/>
      <stop offset=".39" stop-color="#214109"/>
      <stop offset=".49" stop-color="#2f5414"/>
      <stop offset=".58" stop-color="#436f25"/>
      <stop offset=".67" stop-color="#5d913a"/>
      <stop offset=".76" stop-color="#7cba53"/>
      <stop offset=".84" stop-color="#9fe870"/>
      <stop offset=".89" stop-color="#a7ea7d"/>
      <stop offset=".98" stop-color="#beef9f"/>
      <stop offset="1" stop-color="#c5f1a9"/>
    </linearGradient>
  </defs>
  <g class="cls-19">
    <g id="Layer_2" data-name="Layer 2">
      <g id="Plant_scan" data-name="Plant scan">
        <g id="Circle_Tech" data-name="Circle Tech">
          <g class="cls-10">
            <path class="cls-3" d="M1010.85,898.2c-.05-4.36-5.37-8.71-16.03-12.86-10.29-4-25.42-7.8-44.72-11.22-19.11-3.39-42.19-6.41-68.33-8.95-26.35-2.56-55.75-4.6-86.94-6.05-32.19-1.49-66.23-2.33-100.49-2.5-34.66-.17-69.53.35-102.91,1.54-32.12,1.15-62.82,2.92-90.71,5.24-27.66,2.3-52.57,5.12-73.62,8.35-20.99,3.22-38.1,6.83-50.64,10.68-12.95,3.99-20.85,8.22-23.49,12.52-2.7,4.38.09,8.82,8.3,13.1,7.9,4.11,20.84,8.06,38.19,11.68,17.16,3.58,38.61,6.83,63.39,9.6,24.76,2.77,52.8,5.08,82.97,6.8,30.8,1.76,63.65,2.9,97.22,3.4,34.67.51,69.99.32,104.2-.55,32.94-.84,64.81-2.33,94.18-4.4,28.96-2.04,55.46-4.63,78.34-7.66,22.81-3.02,42.03-6.47,56.75-10.21,15.04-3.82,25.38-7.93,30.49-12.15,2.55-2.11,3.82-4.23,3.84-6.37,0-.25-3.02-.25-3.02,0-.05,4.33-5.34,8.64-15.92,12.76-10.16,3.95-25.14,7.7-44.17,11.09-19,3.38-42.09,6.4-68.18,8.92-26.06,2.52-55.13,4.54-85.95,5.96-31.97,1.48-65.72,2.31-99.73,2.47-34.26.16-68.66-.35-101.64-1.53-31.88-1.14-62.3-2.9-89.99-5.2-27.21-2.26-51.69-5.04-72.46-8.2-21.06-3.21-38.28-6.84-50.74-10.7-12.71-3.94-20.52-8.13-23.08-12.37-2.62-4.35.13-8.75,8.33-12.99,7.85-4.06,20.63-7.96,37.79-11.53,16.96-3.54,38.14-6.74,62.6-9.49,24.43-2.74,52.12-5.02,81.88-6.73,30.77-1.77,63.79-2.92,97.38-3.4,34.26-.49,69.14-.31,102.94.56,32.68.84,64.27,2.32,93.39,4.37,28.47,2.01,54.51,4.55,77.05,7.53,22.67,2.99,41.74,6.41,56.38,10.12,14.9,3.77,25.1,7.83,30.24,11.99,2.6,2.11,3.85,4.24,3.87,6.38,0,.25,3.03.25,3.02,0Z"/>
          </g>
          <g class="cls-10">
            <path class="cls-3" d="M1010.85,898.2c-.05-4.36-5.37-8.71-16.03-12.86-10.29-4-25.42-7.8-44.72-11.22-19.11-3.39-42.19-6.41-68.33-8.95-26.35-2.56-55.75-4.6-86.94-6.05-32.19-1.49-66.23-2.33-100.49-2.5-34.66-.17-69.53.35-102.91,1.54-32.12,1.15-62.82,2.92-90.71,5.24-27.66,2.3-52.57,5.12-73.62,8.35-20.99,3.22-38.1,6.83-50.64,10.68-12.95,3.99-20.85,8.22-23.49,12.52-2.7,4.38.09,8.82,8.3,13.1,7.9,4.11,20.84,8.06,38.19,11.68,17.16,3.58,38.61,6.83,63.39,9.6,24.76,2.77,52.8,5.08,82.97,6.8,30.8,1.76,63.65,2.9,97.22,3.4,34.67.51,69.99.32,104.2-.55,32.94-.84,64.81-2.33,94.18-4.4,28.96-2.04,55.46-4.63,78.34-7.66,22.81-3.02,42.03-6.47,56.75-10.21,15.04-3.82,25.38-7.93,30.49-12.15,2.55-2.11,3.82-4.23,3.84-6.37,0-.25-3.02-.25-3.02,0-.05,4.33-5.34,8.64-15.92,12.76-10.16,3.95-25.14,7.7-44.17,11.09-19,3.38-42.09,6.4-68.18,8.92-26.06,2.52-55.13,4.54-85.95,5.96-31.97,1.48-65.72,2.31-99.73,2.47-34.26.16-68.66-.35-101.64-1.53-31.88-1.14-62.3-2.9-89.99-5.2-27.21-2.26-51.69-5.04-72.46-8.2-21.06-3.21-38.28-6.84-50.74-10.7-12.71-3.94-20.52-8.13-23.08-12.37-2.62-4.35.13-8.75,8.33-12.99,7.85-4.06,20.63-7.96,37.79-11.53,16.96-3.54,38.14-6.74,62.6-9.49,24.43-2.74,52.12-5.02,81.88-6.73,30.77-1.77,63.79-2.92,97.38-3.4,34.26-.49,69.14-.31,102.94.56,32.68.84,64.27,2.32,93.39,4.37,28.47,2.01,54.51,4.55,77.05,7.53,22.67,2.99,41.74,6.41,56.38,10.12,14.9,3.77,25.1,7.83,30.24,11.99,2.6,2.11,3.85,4.24,3.87,6.38,0,.25,3.03.25,3.02,0Z"/>
          </g>
          <g class="cls-10">
            <path class="cls-14" d="M1030.51,898.2c-.05-4.56-5.56-9.17-16.73-13.52-10.79-4.2-26.44-8.22-46.7-11.82-21.21-3.77-46.36-7.03-75.38-9.84-27.79-2.69-58.8-4.77-91.64-6.3-33.79-1.57-69.77-2.41-105.71-2.59-36.29-.18-73.19.38-108.13,1.63-33.64,1.2-66.18,3.06-95.4,5.49-29.03,2.41-55.49,5.35-77.59,8.74-23.33,3.58-41.77,7.49-55.69,11.78-13.64,4.2-21.41,8.66-24.19,13.18-2.83,4.6.39,9.28,9,13.76,8.27,4.3,22,8.49,40.18,12.27,17.98,3.75,40.5,7.2,66.46,10.1,26,2.91,55.25,5.38,86.94,7.19,34.24,1.95,69.84,3.19,107.14,3.74,36.44.54,73.5.28,109.43-.64,34.52-.88,68.11-2.49,98.87-4.65,30.32-2.13,58.36-4.87,82.32-8.04,23.91-3.16,44.4-6.79,59.82-10.71,15.8-4.01,27.1-8.31,32.47-12.74,2.82-2.33,4.52-4.67,4.54-7.03.02-1.4-9.75-2.74-21.17-2.67-11.48.06-21.15,1.17-21.17,2.67-.02,1.85-.98,3.69-2.89,5.53.25-.24.5-.47.76-.71-3.87,3.62-11.5,7.17-22.71,10.54.71-.21,1.42-.43,2.13-.64-11.02,3.29-25.37,6.39-42.64,9.22,1.1-.18,2.21-.36,3.31-.54-17.21,2.81-37.19,5.33-59.41,7.5,1.43-.14,2.86-.28,4.28-.42-22.42,2.18-46.97,3.99-73.03,5.39,1.69-.09,3.37-.18,5.06-.27-26.7,1.42-54.79,2.38-83.49,2.87,1.88-.03,3.75-.06,5.63-.1-29.02.48-58.48.48-87.5,0,1.88.03,3.75.06,5.63.1-28.7-.49-56.79-1.45-83.49-2.87,1.69.09,3.37.18,5.06.27-26.06-1.39-50.61-3.2-73.03-5.39,1.43.14,2.86.28,4.28.42-22.23-2.17-42.2-4.7-59.41-7.5,1.1.18,2.21.36,3.31.54-17.27-2.83-31.62-5.93-42.64-9.22.71.21,1.42.43,2.13.64-11.21-3.37-18.84-6.92-22.71-10.54.25.24.5.47.76.71-3.83-3.67-3.83-7.39,0-11.05-.25.24-.5.47-.76.71,3.87-3.62,11.5-7.17,22.71-10.54-.71.21-1.42.43-2.13.64,11.02-3.29,25.37-6.39,42.64-9.22-1.1.18-2.21.36-3.31.54,17.21-2.81,37.19-5.33,59.41-7.5-1.43.14-2.86.28-4.28.42,22.42-2.18,46.97-3.99,73.03-5.39-1.69.09-3.37.18-5.06.27,26.7-1.42,54.79-2.38,83.49-2.87-1.88.03-3.75.06-5.63.1,29.02-.48,58.48-.48,87.5,0-1.88-.03-3.75-.06-5.63-.1,28.7.49,56.79,1.45,83.49,2.87-1.69-.09-3.37-.18-5.06-.27,26.06,1.39,50.61,3.2,73.03,5.39-1.43-.14-2.86-.28-4.28-.42,22.23,2.17,42.2,4.7,59.41,7.5-1.1-.18-2.21-.36-3.31-.54,17.27,2.83,31.62,5.93,42.64,9.22-.71-.21-1.42-.43-2.13-.64,11.21,3.37,18.84,6.92,22.71,10.54-.25-.24-.5-.47-.76-.71,1.91,1.83,2.87,3.68,2.89,5.53.02,1.4,9.73,2.74,21.17,2.67,11.46-.06,21.19-1.18,21.17-2.67Z"/>
          </g>
          <g class="cls-11">
            <ellipse class="cls-15" cx="681.42" cy="898.2" rx="317.06" ry="40.05"/>
          </g>
          <path class="cls-4" d="M336.77,922.91c20.56,4.56,46.59,8.72,77.28,12.25,29.55,3.41,63.13,6.23,99.37,8.37,35.95,2.12,74.41,3.56,113.72,4.25,39.61.7,80.04.63,119.48-.2,40.71-.86,80.31-2.53,116.95-4.93,37.07-2.43,71.14-5.58,100.43-9.34,28.2-3.62,51.97-7.78,70.23-12.3,18-4.46,30.68-9.24,37.56-14.17,6.94-4.97,7.87-10.06,2.79-15.06-5.23-5.14-16.92-10.17-34.4-14.87-17.85-4.79-41.67-9.23-70.41-13.08-27.65-3.71-59.81-6.87-95.03-9.35-34.7-2.44-72.26-4.22-111.12-5.26-38.91-1.04-78.94-1.34-118.55-.89-40.68.47-80.72,1.75-118.31,3.76-38.66,2.07-74.75,4.93-106.39,8.42-30.47,3.36-56.79,7.32-77.75,11.69-20.52,4.28-35.94,8.95-45.58,13.8-9.69,4.88-13.6,9.93-11.42,14.95,2.22,5.12,10.71,10.17,25.1,14.97,7.24,2.41,15.98,4.74,26.03,6.99,1.15.26,4.41.05,3.25-.21-20.33-4.53-35.1-9.45-43.39-14.55-7.97-4.91-9.93-9.96-5.92-14.94,3.97-4.93,13.82-9.78,29.06-14.34,15.42-4.62,36.42-8.93,62.06-12.76,26.36-3.93,57.7-7.33,92.37-10.05,35.24-2.76,73.83-4.82,114.11-6.07,38.62-1.19,78.62-1.63,118.3-1.31,39.16.32,77.88,1.39,114.57,3.15,37.02,1.78,71.85,4.26,103,7.35,31.98,3.17,59.96,6.98,82.68,11.24,23.2,4.35,41.03,9.16,52.4,14.2,10.96,4.86,15.95,9.93,14.76,14.98-1.16,4.94-8.18,9.85-20.75,14.53-12.7,4.73-31.03,9.21-54.28,13.25-23.75,4.13-52.6,7.78-85.19,10.79-33.61,3.11-71.2,5.55-110.81,7.18-38.17,1.57-78.22,2.4-118.37,2.43-39.29.03-78.57-.68-116.2-2.11-37.68-1.43-73.62-3.57-106.28-6.34-33.5-2.84-63.42-6.34-88.47-10.34-12.48-1.99-23.7-4.1-33.65-6.31-1.16-.26-4.41-.05-3.25.21Z"/>
          <path class="cls-9" d="M336.77,922.91c20.56,4.56,46.59,8.72,77.28,12.25,29.55,3.41,63.13,6.23,99.37,8.37,35.95,2.12,74.41,3.56,113.72,4.25,39.61.7,80.04.63,119.48-.2,40.71-.86,80.31-2.53,116.95-4.93,37.07-2.43,71.14-5.58,100.43-9.34,28.2-3.62,51.97-7.78,70.23-12.3,18-4.46,30.68-9.24,37.56-14.17,6.94-4.97,7.87-10.06,2.79-15.06-5.23-5.14-16.92-10.17-34.4-14.87-17.85-4.79-41.67-9.23-70.41-13.08-27.65-3.71-59.81-6.87-95.03-9.35-34.7-2.44-72.26-4.22-111.12-5.26-38.91-1.04-78.94-1.34-118.55-.89-40.68.47-80.72,1.75-118.31,3.76-38.66,2.07-74.75,4.93-106.39,8.42-30.47,3.36-56.79,7.32-77.75,11.69-20.52,4.28-35.94,8.95-45.58,13.8-9.69,4.88-13.6,9.93-11.42,14.95,2.22,5.12,10.71,10.17,25.1,14.97,7.24,2.41,15.98,4.74,26.03,6.99,1.15.26,4.41.05,3.25-.21-20.33-4.53-35.1-9.45-43.39-14.55-7.97-4.91-9.93-9.96-5.92-14.94,3.97-4.93,13.82-9.78,29.06-14.34,15.42-4.62,36.42-8.93,62.06-12.76,26.36-3.93,57.7-7.33,92.37-10.05,35.24-2.76,73.83-4.82,114.11-6.07,38.62-1.19,78.62-1.63,118.3-1.31,39.16.32,77.88,1.39,114.57,3.15,37.02,1.78,71.85,4.26,103,7.35,31.98,3.17,59.96,6.98,82.68,11.24,23.2,4.35,41.03,9.16,52.4,14.2,10.96,4.86,15.95,9.93,14.76,14.98-1.16,4.94-8.18,9.85-20.75,14.53-12.7,4.73-31.03,9.21-54.28,13.25-23.75,4.13-52.6,7.78-85.19,10.79-33.61,3.11-71.2,5.55-110.81,7.18-38.17,1.57-78.22,2.4-118.37,2.43-39.29.03-78.57-.68-116.2-2.11-37.68-1.43-73.62-3.57-106.28-6.34-33.5-2.84-63.42-6.34-88.47-10.34-12.48-1.99-23.7-4.1-33.65-6.31-1.16-.26-4.41-.05-3.25.21Z"/>
          <path class="cls-12" d="M970.15,851.71c-38.62-3.82-81.79-6.88-127.85-9.01-44.35-2.05-91.05-3.24-138.22-3.52-46.79-.29-93.87.33-139.24,1.79-45.72,1.48-89.64,3.84-129.78,6.98-41.43,3.24-78.72,7.31-110.23,12-31.87,4.75-57.89,10.12-76.55,15.88-17.96,5.55-29.16,11.44-33.07,17.41-3.85,5.89-.72,11.83,9.23,17.6,10.03,5.81,27.07,11.43,50.36,16.6,23.95,5.32,54.56,10.15,90.28,14.29,36.47,4.22,78.22,7.72,123.27,10.3,43.33,2.48,89.68,4.12,136.93,4.83,46.54.7,93.89.52,140-.54,46.18-1.06,90.97-3,132.61-5.74,42.77-2.81,81.95-6.47,115.85-10.8,34.86-4.45,64.16-9.61,86.34-15.21,21.35-5.39,36.06-11.2,43.46-17.16,7.24-5.83,7.53-11.8.85-17.65-6.71-5.87-20.37-11.61-40.56-16.97-20.58-5.46-47.78-10.51-80.49-14.92-16.45-2.22-34.27-4.28-53.2-6.16-2.17-.22-5,.19-2.82.41,38.28,3.8,71.83,8.33,98.99,13.44,26.1,4.91,46.16,10.31,59.45,15.98,13.15,5.61,19.59,11.46,19.13,17.31-.47,5.91-8.1,11.82-22.53,17.44-14.84,5.79-37.01,11.27-65.25,16.2-28.7,5.01-63.52,9.44-103.1,13.08-37.95,3.49-80.07,6.23-124.56,8.12-43.91,1.86-89.97,2.89-136.27,3.04-46.72.15-93.58-.59-138.54-2.2-46.16-1.65-90.23-4.23-130.14-7.59-40.76-3.44-77.29-7.68-107.59-12.55-29.2-4.69-52.62-9.94-69.24-15.52-16.26-5.46-26-11.22-28.88-17.04-2.9-5.88,1.23-11.81,12.29-17.54,11.3-5.85,29.86-11.47,54.76-16.61,25.67-5.3,58.06-10.09,95.53-14.11,36.11-3.88,76.92-7.04,120.64-9.35,42.79-2.26,88.21-3.7,134.36-4.27,46.22-.57,93.06-.26,138.56.91,46.67,1.21,91.75,3.34,133.27,6.29,20.69,1.47,40.44,3.14,59.14,4.99,2.17.21,5-.19,2.82-.41Z"/>
          <g>
            <path class="cls-4" d="M681.38,961.24c-55.62,0-110.25-1.15-162.37-3.41l6.92-2.54c49.89,2.17,102.19,3.26,155.45,3.26s103.4-1.05,152.36-3.13l6.78,2.55c-51.14,2.17-104.69,3.27-159.14,3.27Z"/>
            <path class="cls-4" d="M266.62,868.1l-18.47-1.34c47.34-10.4,116.73-18.84,200.67-24.43l9.93,2.38c-80.37,5.35-146.81,13.44-192.14,23.39Z"/>
            <path class="cls-4" d="M1006.94,853.93c-54.97-6.46-121.95-11.24-193.72-13.84l5.86-2.59c74.97,2.71,144.95,7.71,202.36,14.45l-14.51,1.97Z"/>
          </g>
          <g>
            <path class="cls-2" d="M681.96,955.36c-1.65,0-3.29,0-4.94,0l.17-2.08c4.72,0,9.5,0,14.25,0l.35,2.08c-3.27,0-6.58.01-9.84.01ZM652.19,955.24c-4.9-.04-9.86-.09-14.73-.15l1.6-2.07c4.69.06,9.47.11,14.19.15l-1.07,2.08ZM716.62,955.2l-1.25-2.08c4.71-.05,9.48-.1,14.18-.16l1.78,2.07c-4.88.07-9.83.12-14.71.17ZM612.81,954.7c-4.85-.09-9.76-.2-14.57-.31l3.03-2.05c4.64.11,9.36.21,14.04.3l-2.5,2.06ZM755.96,954.6l-2.68-2.06c4.66-.1,9.39-.21,14.04-.32l3.21,2.04c-4.83.12-9.73.23-14.58.33ZM573.94,953.73c-4.76-.15-9.57-.31-14.3-.47l4.45-2.01c4.55.16,9.19.31,13.77.46l-3.92,2.02ZM794.78,953.57l-4.1-2.02c4.59-.15,9.22-.31,13.76-.48l4.62,2c-4.71.17-9.51.34-14.28.49ZM535.94,952.32c-4.64-.2-9.31-.41-13.88-.63l5.83-1.95c4.4.21,8.9.41,13.37.61l-5.32,1.97ZM832.73,952.12l-5.49-1.96c4.46-.2,8.96-.41,13.36-.63l6,1.94c-4.58.23-9.24.45-13.87.65ZM499.08,950.51c-4.47-.25-8.98-.51-13.39-.78l7.16-1.88c4.26.26,8.6.51,12.9.75l-6.67,1.91ZM869.51,950.24l-6.84-1.9c4.29-.25,8.62-.51,12.87-.77l7.33,1.87c-4.41.28-8.9.55-13.36.8ZM463.62,948.28c-4.29-.3-8.6-.61-12.81-.93l8.43-1.79c4.05.3,8.2.6,12.34.89l-7.97,1.82ZM904.82,947.96l-8.13-1.81c4.12-.29,8.25-.6,12.28-.91l8.6,1.78c-4.19.32-8.47.64-12.75.95ZM429.82,945.68c-4.06-.34-8.14-.7-12.12-1.07l9.64-1.69c3.84.35,7.77.69,11.68,1.03l-9.2,1.73ZM938.42,945.31l-9.36-1.72c3.89-.34,7.8-.69,11.6-1.04l9.79,1.68c-3.95.37-8,.73-12.04,1.08ZM397.95,942.71c-3.81-.39-7.62-.79-11.35-1.2l10.77-1.58c3.59.39,7.26.78,10.93,1.15l-10.35,1.62ZM970.05,942.29l-10.5-1.61c3.66-.38,7.3-.77,10.83-1.17l10.91,1.56c-3.66.41-7.45.82-11.24,1.21ZM368.23,939.4c-3.54-.43-7.06-.87-10.48-1.32l11.81-1.45c3.3.43,6.69.85,10.1,1.27l-11.43,1.5ZM999.47,938.94l-11.57-1.48c3.36-.42,6.72-.85,9.99-1.28l11.94,1.44c-3.39.45-6.87.9-10.36,1.33ZM340.9,935.78c-3.22-.47-6.43-.95-9.54-1.43l12.77-1.32c3,.46,6.09.93,9.19,1.37l-12.42,1.37ZM1026.47,935.28l-12.55-1.35c3.07-.45,6.12-.92,9.06-1.39l12.89,1.3c-3.05.48-6.22.97-9.4,1.44ZM316.15,931.87c-2.9-.5-5.76-1.01-8.52-1.53l13.63-1.17c2.66.49,5.42.99,8.21,1.47l-13.32,1.23ZM1050.84,931.33l-13.43-1.21c1.81-.32,3.63-.65,5.4-.98l13.63,1.17c-1.83.34-3.72.68-5.6,1.02ZM294.2,927.7c-2.54-.53-5.04-1.07-7.44-1.62l14.39-1.02c2.31.52,4.72,1.04,7.17,1.56l-14.12,1.08ZM275.21,923.3c-2.16-.56-4.28-1.13-6.29-1.69l15.04-.85c1.93.54,3.97,1.09,6.06,1.63l-14.81.92ZM259.36,918.71c-1.76-.58-3.48-1.17-5.09-1.76l15.58-.68c1.55.57,3.2,1.13,4.9,1.69l-15.39.75Z"/>
            <path class="cls-2" d="M279.31,877l-15.22-.8c1.89-.57,3.87-1.15,5.9-1.71l15,.86c-1.96.54-3.87,1.1-5.69,1.65ZM295.53,872.64l-14.6-.97c2.28-.55,4.65-1.1,7.07-1.64l14.34,1.03c-2.33.52-4.62,1.05-6.81,1.58ZM314.72,868.47l-13.88-1.13c2.65-.52,5.4-1.04,8.18-1.55l13.58,1.18c-2.68.49-5.33.99-7.88,1.5ZM336.72,864.53l-13.05-1.27c2.99-.49,6.1-.98,9.22-1.46l12.71,1.33c-3.01.46-6,.93-8.89,1.4ZM361.37,860.85l-12.12-1.41c3.32-.46,6.75-.91,10.19-1.35l11.75,1.46c-3.32.43-6.62.86-9.83,1.3ZM388.46,857.45l-11.1-1.54c3.62-.42,7.35-.83,11.09-1.23l10.7,1.59c-3.6.39-7.2.79-10.69,1.19ZM417.8,854.36l-10-1.66c3.9-.38,7.9-.75,11.9-1.11l9.57,1.7c-3.85.35-7.71.71-11.47,1.07ZM449.16,851.61l-8.82-1.76c4.15-.33,8.4-.66,12.63-.97l8.36,1.8c-4.08.3-8.17.62-12.17.94ZM482.31,849.21l-7.56-1.85c4.37-.28,8.83-.56,13.26-.83l7.08,1.88c-4.27.26-8.57.53-12.78.8ZM517.01,847.19l-6.24-1.93c4.55-.23,9.19-.46,13.8-.68l5.73,1.95c-4.44.21-8.91.43-13.29.65ZM829.71,846.35c-4.44-.2-8.98-.4-13.47-.58l5.07-1.98c4.67.19,9.37.39,13.99.6l-5.59,1.96ZM553,845.56l-4.87-1.99c4.7-.18,9.48-.36,14.23-.52l4.35,2.01c-4.57.16-9.18.33-13.71.5ZM793.26,844.92c-4.57-.15-9.22-.3-13.83-.43l3.67-2.03c4.78.14,9.61.29,14.35.45l-4.2,2.01ZM589.97,844.34l-3.46-2.04c4.79-.13,9.67-.25,14.5-.36l2.93,2.05c-4.65.11-9.35.22-13.97.35ZM755.95,843.9c-4.66-.1-9.39-.19-14.07-.27l2.24-2.06c4.86.08,9.77.18,14.61.28l-2.78,2.05ZM627.61,843.54l-2.03-2.07c4.86-.08,9.81-.14,14.69-.2l1.5,2.07c-4.71.05-9.47.12-14.16.19ZM718.07,843.3c-4.7-.05-9.49-.09-14.21-.12l.81-2.08c4.9.03,9.86.07,14.74.12l-1.35,2.08ZM665.67,843.15l-.61-2.08c4.89-.02,9.86-.04,14.77-.04l.08,2.08c-4.74,0-9.53.02-14.24.04Z"/>
            <path class="cls-2" d="M1103.32,883.93c-1.22-.58-2.53-1.16-3.9-1.73l15.78-.6c1.42.59,2.79,1.2,4.05,1.8l-15.93.54ZM1091.84,879.33c-1.61-.56-3.33-1.12-5.1-1.68l15.3-.78c1.83.58,3.61,1.16,5.29,1.74l-15.49.71ZM1077.19,874.88c-2-.54-4.1-1.08-6.25-1.62l14.7-.94c2.23.55,4.41,1.12,6.48,1.68l-14.94.88ZM1059.5,870.6c-2.37-.52-4.84-1.04-7.35-1.54l13.99-1.1c2.6.53,5.16,1.06,7.62,1.6l-14.27,1.05ZM1038.92,866.54c-2.71-.49-5.53-.98-8.38-1.45l13.17-1.25c2.96.5,5.88,1,8.7,1.51l-13.49,1.2ZM1015.6,862.72c-2.26-.34-4.59-.68-6.94-1.01l12.35-1.38c2.43.35,4.85.7,7.2,1.05l-12.61,1.34Z"/>
            <path class="cls-2" d="M1118.48,913.36l-15.9-.55c1.25-.58,2.44-1.16,3.54-1.74l16.04.48c-1.14.6-2.38,1.21-3.68,1.81ZM1127.27,908.48l-16.23-.37c.84-.59,1.62-1.18,2.32-1.77l16.31.31c-.72.61-1.53,1.23-2.4,1.84ZM1132.64,903.52l-16.42-.19c.43-.59.8-1.2,1.08-1.79l16.46.12c-.29.62-.67,1.25-1.12,1.86ZM1134.57,898.52h-16.49c0-.12,0-.22,0-.32,0-.49-.05-1-.16-1.49l16.49-.06c.11.51.16,1.03.16,1.54,0,.11,0,.22,0,.32ZM1116.64,893.69c-.38-.59-.84-1.2-1.38-1.79l16.39-.24c.56.62,1.04,1.24,1.43,1.86l-16.44.17Z"/>
          </g>
          <g>
            <path class="cls-2" d="M681.96,955.36c-1.65,0-3.29,0-4.94,0l.17-2.08c4.72,0,9.5,0,14.25,0l.35,2.08c-3.27,0-6.58.01-9.84.01ZM652.19,955.24c-4.9-.04-9.86-.09-14.73-.15l1.6-2.07c4.69.06,9.47.11,14.19.15l-1.07,2.08ZM716.62,955.2l-1.25-2.08c4.71-.05,9.48-.1,14.18-.16l1.78,2.07c-4.88.07-9.83.12-14.71.17ZM612.81,954.7c-4.85-.09-9.76-.2-14.57-.31l3.03-2.05c4.64.11,9.36.21,14.04.3l-2.5,2.06ZM755.96,954.6l-2.68-2.06c4.66-.1,9.39-.21,14.04-.32l3.21,2.04c-4.83.12-9.73.23-14.58.33ZM573.94,953.73c-4.76-.15-9.57-.31-14.3-.47l4.45-2.01c4.55.16,9.19.31,13.77.46l-3.92,2.02ZM794.78,953.57l-4.1-2.02c4.59-.15,9.22-.31,13.76-.48l4.62,2c-4.71.17-9.51.34-14.28.49ZM535.94,952.32c-4.64-.2-9.31-.41-13.88-.63l5.83-1.95c4.4.21,8.9.41,13.37.61l-5.32,1.97ZM832.73,952.12l-5.49-1.96c4.46-.2,8.96-.41,13.36-.63l6,1.94c-4.58.23-9.24.45-13.87.65ZM499.08,950.51c-4.47-.25-8.98-.51-13.39-.78l7.16-1.88c4.26.26,8.6.51,12.9.75l-6.67,1.91ZM869.51,950.24l-6.84-1.9c4.29-.25,8.62-.51,12.87-.77l7.33,1.87c-4.41.28-8.9.55-13.36.8ZM463.62,948.28c-4.29-.3-8.6-.61-12.81-.93l8.43-1.79c4.05.3,8.2.6,12.34.89l-7.97,1.82ZM904.82,947.96l-8.13-1.81c4.12-.29,8.25-.6,12.28-.91l8.6,1.78c-4.19.32-8.47.64-12.75.95ZM429.82,945.68c-4.06-.34-8.14-.7-12.12-1.07l9.64-1.69c3.84.35,7.77.69,11.68,1.03l-9.2,1.73ZM938.42,945.31l-9.36-1.72c3.89-.34,7.8-.69,11.6-1.04l9.79,1.68c-3.95.37-8,.73-12.04,1.08ZM397.95,942.71c-3.81-.39-7.62-.79-11.35-1.2l10.77-1.58c3.59.39,7.26.78,10.93,1.15l-10.35,1.62ZM970.05,942.29l-10.5-1.61c3.66-.38,7.3-.77,10.83-1.17l10.91,1.56c-3.66.41-7.45.82-11.24,1.21ZM368.23,939.4c-3.54-.43-7.06-.87-10.48-1.32l11.81-1.45c3.3.43,6.69.85,10.1,1.27l-11.43,1.5ZM999.47,938.94l-11.57-1.48c3.36-.42,6.72-.85,9.99-1.28l11.94,1.44c-3.39.45-6.87.9-10.36,1.33ZM340.9,935.78c-3.22-.47-6.43-.95-9.54-1.43l12.77-1.32c3,.46,6.09.93,9.19,1.37l-12.42,1.37ZM1026.47,935.28l-12.55-1.35c3.07-.45,6.12-.92,9.06-1.39l12.89,1.3c-3.05.48-6.22.97-9.4,1.44ZM316.15,931.87c-2.9-.5-5.76-1.01-8.52-1.53l13.63-1.17c2.66.49,5.42.99,8.21,1.47l-13.32,1.23ZM1050.84,931.33l-13.43-1.21c1.81-.32,3.63-.65,5.4-.98l13.63,1.17c-1.83.34-3.72.68-5.6,1.02ZM294.2,927.7c-2.54-.53-5.04-1.07-7.44-1.62l14.39-1.02c2.31.52,4.72,1.04,7.17,1.56l-14.12,1.08ZM275.21,923.3c-2.16-.56-4.28-1.13-6.29-1.69l15.04-.85c1.93.54,3.97,1.09,6.06,1.63l-14.81.92ZM259.36,918.71c-1.76-.58-3.48-1.17-5.09-1.76l15.58-.68c1.55.57,3.2,1.13,4.9,1.69l-15.39.75Z"/>
            <path class="cls-2" d="M279.31,877l-15.22-.8c1.89-.57,3.87-1.15,5.9-1.71l15,.86c-1.96.54-3.87,1.1-5.69,1.65ZM295.53,872.64l-14.6-.97c2.28-.55,4.65-1.1,7.07-1.64l14.34,1.03c-2.33.52-4.62,1.05-6.81,1.58ZM314.72,868.47l-13.88-1.13c2.65-.52,5.4-1.04,8.18-1.55l13.58,1.18c-2.68.49-5.33.99-7.88,1.5ZM336.72,864.53l-13.05-1.27c2.99-.49,6.1-.98,9.22-1.46l12.71,1.33c-3.01.46-6,.93-8.89,1.4ZM361.37,860.85l-12.12-1.41c3.32-.46,6.75-.91,10.19-1.35l11.75,1.46c-3.32.43-6.62.86-9.83,1.3ZM388.46,857.45l-11.1-1.54c3.62-.42,7.35-.83,11.09-1.23l10.7,1.59c-3.6.39-7.2.79-10.69,1.19ZM417.8,854.36l-10-1.66c3.9-.38,7.9-.75,11.9-1.11l9.57,1.7c-3.85.35-7.71.71-11.47,1.07ZM449.16,851.61l-8.82-1.76c4.15-.33,8.4-.66,12.63-.97l8.36,1.8c-4.08.3-8.17.62-12.17.94ZM482.31,849.21l-7.56-1.85c4.37-.28,8.83-.56,13.26-.83l7.08,1.88c-4.27.26-8.57.53-12.78.8ZM517.01,847.19l-6.24-1.93c4.55-.23,9.19-.46,13.8-.68l5.73,1.95c-4.44.21-8.91.43-13.29.65ZM829.71,846.35c-4.44-.2-8.98-.4-13.47-.58l5.07-1.98c4.67.19,9.37.39,13.99.6l-5.59,1.96ZM553,845.56l-4.87-1.99c4.7-.18,9.48-.36,14.23-.52l4.35,2.01c-4.57.16-9.18.33-13.71.5ZM793.26,844.92c-4.57-.15-9.22-.3-13.83-.43l3.67-2.03c4.78.14,9.61.29,14.35.45l-4.2,2.01ZM589.97,844.34l-3.46-2.04c4.79-.13,9.67-.25,14.5-.36l2.93,2.05c-4.65.11-9.35.22-13.97.35ZM755.95,843.9c-4.66-.1-9.39-.19-14.07-.27l2.24-2.06c4.86.08,9.77.18,14.61.28l-2.78,2.05ZM627.61,843.54l-2.03-2.07c4.86-.08,9.81-.14,14.69-.2l1.5,2.07c-4.71.05-9.47.12-14.16.19ZM718.07,843.3c-4.7-.05-9.49-.09-14.21-.12l.81-2.08c4.9.03,9.86.07,14.74.12l-1.35,2.08ZM665.67,843.15l-.61-2.08c4.89-.02,9.86-.04,14.77-.04l.08,2.08c-4.74,0-9.53.02-14.24.04Z"/>
            <path class="cls-2" d="M1103.32,883.93c-1.22-.58-2.53-1.16-3.9-1.73l15.78-.6c1.42.59,2.79,1.2,4.05,1.8l-15.93.54ZM1091.84,879.33c-1.61-.56-3.33-1.12-5.1-1.68l15.3-.78c1.83.58,3.61,1.16,5.29,1.74l-15.49.71ZM1077.19,874.88c-2-.54-4.1-1.08-6.25-1.62l14.7-.94c2.23.55,4.41,1.12,6.48,1.68l-14.94.88ZM1059.5,870.6c-2.37-.52-4.84-1.04-7.35-1.54l13.99-1.1c2.6.53,5.16,1.06,7.62,1.6l-14.27,1.05ZM1038.92,866.54c-2.71-.49-5.53-.98-8.38-1.45l13.17-1.25c2.96.5,5.88,1,8.7,1.51l-13.49,1.2ZM1015.6,862.72c-2.26-.34-4.59-.68-6.94-1.01l12.35-1.38c2.43.35,4.85.7,7.2,1.05l-12.61,1.34Z"/>
            <path class="cls-2" d="M1118.48,913.36l-15.9-.55c1.25-.58,2.44-1.16,3.54-1.74l16.04.48c-1.14.6-2.38,1.21-3.68,1.81ZM1127.27,908.48l-16.23-.37c.84-.59,1.62-1.18,2.32-1.77l16.31.31c-.72.61-1.53,1.23-2.4,1.84ZM1132.64,903.52l-16.42-.19c.43-.59.8-1.2,1.08-1.79l16.46.12c-.29.62-.67,1.25-1.12,1.86ZM1134.57,898.52h-16.49c0-.12,0-.22,0-.32,0-.49-.05-1-.16-1.49l16.49-.06c.11.51.16,1.03.16,1.54,0,.11,0,.22,0,.32ZM1116.64,893.69c-.38-.59-.84-1.2-1.38-1.79l16.39-.24c.56.62,1.04,1.24,1.43,1.86l-16.44.17Z"/>
          </g>
          <g class="cls-10">
            <polygon class="cls-1" points="982.28 896.07 982.22 895.96 962.23 896.11 962.29 896.21 982.28 896.07"/>
            <polygon class="cls-1" points="980.75 893.84 980.65 893.74 960.76 894.03 960.86 894.13 980.75 893.84"/>
            <polygon class="cls-1" points="978.22 891.63 978.07 891.53 958.35 891.97 958.49 892.07 978.22 891.63"/>
            <polygon class="cls-1" points="974.67 889.44 974.48 889.34 955.01 889.93 955.18 890.02 974.67 889.44"/>
            <polygon class="cls-1" points="970.13 887.28 969.9 887.18 950.74 887.91 950.95 888.01 970.13 887.28"/>
            <path class="cls-1" d="M964.62,885.16c-.09-.03-.18-.07-.29-.1l-18.79.87c.1.03.19.06.27.09l18.81-.87Z"/>
            <polygon class="cls-1" points="958.03 883.08 957.68 882.99 939.33 884 939.65 884.09 958.03 883.08"/>
            <polygon class="cls-1" points="950.49 881.06 950.11 880.97 932.26 882.11 932.62 882.2 950.49 881.06"/>
            <polygon class="cls-1" points="942.05 879.1 941.63 879.01 924.35 880.28 924.74 880.37 942.05 879.1"/>
            <polygon class="cls-1" points="932.74 877.2 932.29 877.11 915.63 878.51 916.05 878.6 932.74 877.2"/>
            <polygon class="cls-1" points="922.57 875.37 922.05 875.29 906.07 876.81 906.56 876.89 922.57 875.37"/>
            <polygon class="cls-1" points="911.5 873.63 910.95 873.55 895.7 875.19 896.22 875.26 911.5 873.63"/>
            <polygon class="cls-1" points="899.67 871.97 899.09 871.89 884.62 873.64 885.17 873.71 899.67 871.97"/>
            <polygon class="cls-1" points="887.12 870.39 886.51 870.32 872.87 872.17 873.44 872.24 887.12 870.39"/>
            <polygon class="cls-1" points="873.88 868.91 873.24 868.84 860.49 870.79 861.08 870.86 873.88 868.91"/>
            <polygon class="cls-1" points="859.93 867.54 859.25 867.47 847.42 869.51 848.06 869.57 859.93 867.54"/>
            <polygon class="cls-1" points="845.37 866.27 844.66 866.21 833.8 868.33 834.46 868.39 845.37 866.27"/>
            <polygon class="cls-1" points="830.25 865.11 829.52 865.05 819.67 867.25 820.35 867.3 830.25 865.11"/>
            <polygon class="cls-1" points="814.64 864.05 813.89 864.01 805.08 866.28 805.78 866.32 814.64 864.05"/>
            <polygon class="cls-1" points="798.57 863.12 797.79 863.08 790.05 865.41 790.78 865.45 798.57 863.12"/>
            <polygon class="cls-1" points="782.05 862.32 781.25 862.28 774.62 864.67 775.36 864.7 782.05 862.32"/>
            <polygon class="cls-1" points="765.19 861.64 764.38 861.61 758.88 864.04 759.64 864.07 765.19 861.64"/>
            <polygon class="cls-1" points="748.06 861.08 747.23 861.06 742.88 863.52 743.64 863.55 748.06 861.08"/>
            <polygon class="cls-1" points="730.69 860.65 729.86 860.63 726.67 863.13 727.44 863.14 730.69 860.65"/>
            <polygon class="cls-1" points="713.16 860.35 712.33 860.33 710.3 862.85 711.08 862.86 713.16 860.35"/>
            <polygon class="cls-1" points="695.52 860.18 694.68 860.18 693.81 862.7 694.6 862.71 695.52 860.18"/>
            <polygon class="cls-1" points="677.84 860.15 677 860.15 677.29 862.68 678.07 862.67 677.84 860.15"/>
            <polygon class="cls-1" points="660.17 860.24 659.33 860.25 660.78 862.77 661.57 862.76 660.17 860.24"/>
            <polygon class="cls-1" points="642.57 860.46 641.73 860.47 644.35 862.98 645.13 862.97 642.57 860.46"/>
            <polygon class="cls-1" points="625.09 860.81 624.26 860.83 628.04 863.31 628.82 863.29 625.09 860.81"/>
            <polygon class="cls-1" points="607.8 861.28 606.98 861.31 611.91 863.76 612.68 863.74 607.8 861.28"/>
            <polygon class="cls-1" points="590.77 861.89 589.97 861.92 596.04 864.33 596.79 864.3 590.77 861.89"/>
            <polygon class="cls-1" points="574.07 862.63 573.29 862.67 580.47 865.03 581.21 864.99 574.07 862.63"/>
            <polygon class="cls-1" points="557.74 863.49 556.97 863.53 565.25 865.84 565.97 865.8 557.74 863.49"/>
            <polygon class="cls-1" points="541.82 864.47 541.07 864.52 550.41 866.75 551.11 866.71 541.82 864.47"/>
            <polygon class="cls-1" points="526.37 865.56 525.64 865.61 536.01 867.77 536.69 867.72 526.37 865.56"/>
            <polygon class="cls-1" points="511.49 866.76 510.8 866.83 522.15 868.91 522.79 868.85 511.49 866.76"/>
            <polygon class="cls-1" points="497.21 868.08 496.55 868.15 508.84 870.14 509.46 870.08 497.21 868.08"/>
            <polygon class="cls-1" points="483.55 869.5 482.91 869.57 496.11 871.47 496.7 871.41 483.55 869.5"/>
            <polygon class="cls-1" points="470.54 871.02 469.93 871.09 483.98 872.89 484.55 872.82 470.54 871.02"/>
            <polygon class="cls-1" points="458.23 872.62 457.68 872.7 472.55 874.4 473.06 874.32 458.23 872.62"/>
            <polygon class="cls-1" points="446.77 874.32 446.25 874.41 461.87 875.99 462.36 875.91 446.77 874.32"/>
            <polygon class="cls-1" points="436.09 876.1 435.61 876.19 451.93 877.66 452.39 877.57 436.09 876.1"/>
            <polygon class="cls-1" points="426.23 877.96 425.78 878.05 442.75 879.39 443.18 879.31 426.23 877.96"/>
            <polygon class="cls-1" points="417.22 879.88 416.8 879.98 434.37 881.19 434.76 881.1 417.22 879.88"/>
            <polygon class="cls-1" points="409.15 881.87 408.8 881.97 426.91 883.05 427.23 882.96 409.15 881.87"/>
            <polygon class="cls-1" points="402.07 883.92 401.76 884.02 420.34 884.96 420.62 884.87 402.07 883.92"/>
            <polygon class="cls-1" points="395.92 886.02 395.65 886.12 414.64 886.92 414.89 886.83 395.92 886.02"/>
            <polygon class="cls-1" points="390.75 888.15 390.52 888.26 409.85 888.91 410.06 888.82 390.75 888.15"/>
            <polygon class="cls-1" points="386.56 890.33 386.37 890.43 405.97 890.94 406.15 890.85 386.56 890.33"/>
            <polygon class="cls-1" points="383.41 892.52 383.31 892.63 403.12 893 403.22 892.9 383.41 892.52"/>
            <polygon class="cls-1" points="381.36 894.74 381.29 894.85 401.24 895.07 401.3 894.97 381.36 894.74"/>
            <polygon class="cls-1" points="380.31 896.97 380.29 897.08 400.3 897.15 400.32 897.05 380.31 896.97"/>
            <polygon class="cls-1" points="380.26 899.21 380.29 899.31 400.3 899.24 400.28 899.14 380.26 899.21"/>
            <polygon class="cls-1" points="381.23 901.44 381.29 901.54 401.24 901.32 401.18 901.22 381.23 901.44"/>
            <polygon class="cls-1" points="383.2 903.66 383.31 903.76 403.12 903.4 403.02 903.3 383.2 903.66"/>
            <polygon class="cls-1" points="386.18 905.86 386.37 905.96 405.97 905.45 405.8 905.35 386.18 905.86"/>
            <polygon class="cls-1" points="390.29 908.04 390.52 908.14 409.85 907.48 409.63 907.38 390.29 908.04"/>
            <polygon class="cls-1" points="395.38 910.18 395.65 910.28 414.64 909.47 414.39 909.38 395.38 910.18"/>
            <polygon class="cls-1" points="401.45 912.28 401.76 912.37 420.34 911.43 420.05 911.34 401.45 912.28"/>
            <polygon class="cls-1" points="408.46 914.33 408.8 914.42 426.91 913.35 426.59 913.25 408.46 914.33"/>
            <path class="cls-1" d="M416.38,916.33c.13.03.28.06.41.09l17.57-1.21c-.13-.03-.27-.06-.39-.09l-17.6,1.21Z"/>
            <polygon class="cls-1" points="425.32 918.25 425.78 918.34 442.75 917 442.33 916.92 425.32 918.25"/>
            <polygon class="cls-1" points="435.12 920.12 435.61 920.2 451.93 918.74 451.48 918.66 435.12 920.12"/>
            <polygon class="cls-1" points="445.73 921.9 446.25 921.99 461.87 920.4 461.39 920.33 445.73 921.9"/>
            <polygon class="cls-1" points="457.13 923.61 457.68 923.69 472.55 922 472.03 921.92 457.13 923.61"/>
            <polygon class="cls-1" points="469.32 925.23 469.93 925.3 483.98 923.5 483.41 923.43 469.32 925.23"/>
            <polygon class="cls-1" points="482.27 926.75 482.91 926.82 496.11 924.92 495.51 924.86 482.27 926.75"/>
            <polygon class="cls-1" points="495.88 928.18 496.55 928.24 508.84 926.25 508.23 926.19 495.88 928.18"/>
            <polygon class="cls-1" points="510.11 929.51 510.8 929.57 522.15 927.48 521.51 927.43 510.11 929.51"/>
            <path class="cls-1" d="M524.92,930.73c.23.02.48.04.72.05l10.36-2.16c-.23-.02-.46-.03-.68-.05l-10.41,2.16Z"/>
            <polygon class="cls-1" points="540.32 931.83 541.07 931.88 550.41 929.64 549.71 929.6 540.32 931.83"/>
            <polygon class="cls-1" points="556.2 932.82 556.97 932.86 565.25 930.56 564.53 930.52 556.2 932.82"/>
            <polygon class="cls-1" points="572.5 933.69 573.29 933.72 580.47 931.36 579.74 931.33 572.5 933.69"/>
            <polygon class="cls-1" points="589.17 934.44 589.97 934.47 596.04 932.06 595.3 932.03 589.17 934.44"/>
            <polygon class="cls-1" points="606.16 935.06 606.98 935.09 611.91 932.64 611.15 932.61 606.16 935.06"/>
            <polygon class="cls-1" points="623.44 935.55 624.26 935.57 628.04 933.08 627.27 933.07 623.44 935.55"/>
            <polygon class="cls-1" points="640.9 935.91 641.73 935.92 644.35 933.41 643.57 933.4 640.9 935.91"/>
            <polygon class="cls-1" points="658.49 936.14 659.33 936.15 660.78 933.62 660 933.62 658.49 936.14"/>
            <polygon class="cls-1" points="676.16 936.24 677 936.25 677.29 933.72 676.5 933.71 676.16 936.24"/>
            <polygon class="cls-1" points="693.84 936.22 694.68 936.22 693.81 933.69 693.03 933.69 693.84 936.22"/>
            <path class="cls-1" d="M711.49,936.07c.28,0,.56,0,.84,0l-2.03-2.52c-.26,0-.52,0-.78,0l1.97,2.52Z"/>
            <polygon class="cls-1" points="729.03 935.78 729.86 935.76 726.67 933.27 725.89 933.28 729.03 935.78"/>
            <polygon class="cls-1" points="746.41 935.36 747.23 935.34 742.88 932.87 742.11 932.89 746.41 935.36"/>
            <polygon class="cls-1" points="763.57 934.82 764.38 934.79 758.88 932.36 758.12 932.38 763.57 934.82"/>
            <polygon class="cls-1" points="780.45 934.15 781.25 934.11 774.62 931.73 773.87 931.76 780.45 934.15"/>
            <polygon class="cls-1" points="797 933.35 797.79 933.31 790.05 930.98 789.32 931.02 797 933.35"/>
            <polygon class="cls-1" points="813.14 932.44 813.89 932.39 805.08 930.12 804.38 930.16 813.14 932.44"/>
            <polygon class="cls-1" points="828.79 931.39 829.52 931.34 819.67 929.14 818.99 929.19 828.79 931.39"/>
            <polygon class="cls-1" points="843.95 930.24 844.66 930.18 833.8 928.06 833.13 928.11 843.95 930.24"/>
            <polygon class="cls-1" points="858.56 928.98 859.25 928.92 847.42 926.88 846.78 926.94 858.56 928.98"/>
            <path class="cls-1" d="M872.58,927.62c.22-.02.45-.04.66-.07l-12.75-1.95c-.2.02-.41.04-.61.06l12.71,1.95Z"/>
            <polygon class="cls-1" points="885.9 926.15 886.51 926.08 872.87 924.22 872.3 924.29 885.9 926.15"/>
            <polygon class="cls-1" points="898.51 924.58 899.09 924.5 884.62 922.76 884.08 922.83 898.51 924.58"/>
            <polygon class="cls-1" points="910.4 922.93 910.95 922.85 895.7 921.21 895.19 921.28 910.4 922.93"/>
            <polygon class="cls-1" points="921.53 921.19 922.05 921.11 906.07 919.58 905.58 919.66 921.53 921.19"/>
            <polygon class="cls-1" points="931.83 919.37 932.29 919.29 915.63 917.88 915.2 917.97 931.83 919.37"/>
            <polygon class="cls-1" points="941.21 917.48 941.63 917.39 924.35 916.11 923.96 916.2 941.21 917.48"/>
            <polygon class="cls-1" points="949.72 915.52 950.11 915.43 932.26 914.28 931.9 914.37 949.72 915.52"/>
            <polygon class="cls-1" points="957.33 913.5 957.68 913.41 939.33 912.39 939.01 912.49 957.33 913.5"/>
            <polygon class="cls-1" points="964.02 911.43 964.33 911.33 945.53 910.46 945.25 910.55 964.02 911.43"/>
            <polygon class="cls-1" points="969.67 909.32 969.9 909.21 950.74 908.48 950.52 908.58 969.67 909.32"/>
            <polygon class="cls-1" points="974.29 907.16 974.48 907.05 955.01 906.47 954.83 906.56 974.29 907.16"/>
            <polygon class="cls-1" points="977.92 904.97 978.07 904.87 958.35 904.43 958.21 904.52 977.92 904.97"/>
            <polygon class="cls-1" points="980.54 902.76 980.65 902.65 960.76 902.36 960.66 902.46 980.54 902.76"/>
            <polygon class="cls-1" points="982.15 900.54 982.22 900.43 962.23 900.28 962.17 900.38 982.15 900.54"/>
            <polygon class="cls-1" points="982.75 898.3 982.77 898.2 962.75 898.2 962.73 898.3 982.75 898.3"/>
          </g>
          <g>
            <path class="cls-2" d="M892.4,858.37c-62.48-5.29-135.44-8.09-210.98-8.09-33.59,0-66.91.55-99.03,1.65l-7.87-3.69c34.68-1.18,70.65-1.78,106.9-1.78,81.56,0,160.34,3.02,227.82,8.73l-16.84,3.17Z"/>
            <path class="cls-2" d="M1075.59,912.32l-29.1-1.04c9.5-4.24,14.31-8.64,14.31-13.08,0-5.32-6.86-10.55-20.38-15.53l28.61-1.24c14.6,5.39,22.01,11.03,22.01,16.77,0,4.8-5.2,9.55-15.46,14.12Z"/>
            <path class="cls-2" d="M870.55,945l-19.55-4.83c60.23-3.89,111.05-9.78,146.97-17.04l36.42,2.88c-40.04,8.09-96.69,14.66-163.84,18.99Z"/>
            <path class="cls-2" d="M681.42,949.93c-16.4,0-32.92-.12-49.09-.37l3.59-3.79c14.99.23,30.3.34,45.5.34,50.78,0,100.07-1.25,146.5-3.7l11.69,3.52c-50.15,2.65-103.37,4-158.19,4Z"/>
            <path class="cls-2" d="M584.93,948.49c-44.53-1.36-86.69-3.64-125.3-6.79l16.4-3.21c35.75,2.91,74.78,5.03,116,6.29l-7.1,3.71Z"/>
            <path class="cls-2" d="M428.02,939.87c-26.68-2.59-50.85-5.59-71.86-8.91l33.56-3.38c18.85,2.98,40.54,5.67,64.48,8l-26.18,4.3Z"/>
            <path class="cls-2" d="M317.88,923.75c-12.82-2.9-23.48-5.97-31.69-9.12l40.8-1.7c7.36,2.82,16.91,5.58,28.4,8.18l-37.51,2.64Z"/>
            <path class="cls-2" d="M381.77,869.94l-32.94-3.11c40.42-6.83,93.9-12.36,154.67-16.01l17.65,4.69c-54.76,3.29-102.95,8.27-139.38,14.43Z"/>
          </g>
          <g>
            <path class="cls-2" d="M933.43,939.02l-18.54-3.02c59.42-5.83,103.4-13.69,127.19-22.75,10.57-4.03,16.89-8.2,18.78-12.39l30.19.22c-2.04,4.53-8.86,9.03-20.27,13.38-25.67,9.78-73.17,18.27-137.35,24.56Z"/>
            <path class="cls-2" d="M682.03,949.92c-43.72,0-87.1-.89-129-2.64-36.06-1.51-70.14-3.63-101.28-6.3l16.98-3.16c28.84,2.47,60.4,4.43,93.82,5.83,39.99,1.68,81.45,2.5,123.16,2.45l.3,3.82c-1.32,0-2.65,0-3.97,0Z"/>
            <path class="cls-2" d="M361.84,931.73c-48.18-7.35-79.7-16.2-91.15-25.62l42.45-.82c10.27,8.45,38.55,16.39,81.77,22.98l-33.07,3.46Z"/>
            <path class="cls-2" d="M273.43,902.11c-4.16-6.85,2.48-13.65,19.74-20.22,5.16-1.97,11.29-3.91,18.22-5.77l27.37,1.62c-6.42,1.73-12.1,3.53-16.89,5.35-15.99,6.09-22.14,12.39-18.29,18.73l-30.16.29Z"/>
            <path class="cls-2" d="M360.07,872.79l-25.67-2.02c24.23-4.91,54.66-9.25,90.46-12.88l18.96,2.98c-33.15,3.37-61.32,7.38-83.75,11.93Z"/>
            <path class="cls-2" d="M472.67,859.17l-24.07-4.49c27.87-2.38,58.02-4.34,89.6-5.81l14.87,5.09c-28.34,1.32-55.39,3.07-80.4,5.21Z"/>
            <path class="cls-2" d="M612.41,851.87l-8.05-5.33c25.85-.62,52.24-.93,78.54-.93l-.1,5.42c-.29,0-.59,0-.88,0-23.25,0-46.63.28-69.51.83Z"/>
            <path class="cls-2" d="M1053.2,892.39c-7.46-7.6-29.77-14.95-64.54-21.25l33.75-2.97c38.57,6.99,63.33,15.15,71.61,23.58l-40.82.64Z"/>
          </g>
          <path class="cls-2" d="M336.77,922.91c20.56,4.56,46.59,8.72,77.28,12.25,29.55,3.41,63.13,6.23,99.37,8.37,35.95,2.12,74.41,3.56,113.72,4.25,39.61.7,80.04.63,119.48-.2,40.71-.86,80.31-2.53,116.95-4.93,37.07-2.43,71.14-5.58,100.43-9.34,28.2-3.62,51.97-7.78,70.23-12.3,18-4.46,30.68-9.24,37.56-14.17,6.94-4.97,7.87-10.06,2.79-15.06-5.23-5.14-16.92-10.17-34.4-14.87-17.85-4.79-41.67-9.23-70.41-13.08-27.65-3.71-59.81-6.87-95.03-9.35-34.7-2.44-72.26-4.22-111.12-5.26-38.91-1.04-78.94-1.34-118.55-.89-40.68.47-80.72,1.75-118.31,3.76-38.66,2.07-74.75,4.93-106.39,8.42-30.47,3.36-56.79,7.32-77.75,11.69-20.52,4.28-35.94,8.95-45.58,13.8-9.69,4.88-13.6,9.93-11.42,14.95,2.22,5.12,10.71,10.17,25.1,14.97,7.24,2.41,15.98,4.74,26.03,6.99,1.15.26,4.41.05,3.25-.21-20.33-4.53-35.1-9.45-43.39-14.55-7.97-4.91-9.93-9.96-5.92-14.94,3.97-4.93,13.82-9.78,29.06-14.34,15.42-4.62,36.42-8.93,62.06-12.76,26.36-3.93,57.7-7.33,92.37-10.05,35.24-2.76,73.83-4.82,114.11-6.07,38.62-1.19,78.62-1.63,118.3-1.31,39.16.32,77.88,1.39,114.57,3.15,37.02,1.78,71.85,4.26,103,7.35,31.98,3.17,59.96,6.98,82.68,11.24,23.2,4.35,41.03,9.16,52.4,14.2,10.96,4.86,15.95,9.93,14.76,14.98-1.16,4.94-8.18,9.85-20.75,14.53-12.7,4.73-31.03,9.21-54.28,13.25-23.75,4.13-52.6,7.78-85.19,10.79-33.61,3.11-71.2,5.55-110.81,7.18-38.17,1.57-78.22,2.4-118.37,2.43-39.29.03-78.57-.68-116.2-2.11-37.68-1.43-73.62-3.57-106.28-6.34-33.5-2.84-63.42-6.34-88.47-10.34-12.48-1.99-23.7-4.1-33.65-6.31-1.16-.26-4.41-.05-3.25.21Z"/>
        </g>
        <g>
          <g>
            <polygon class="cls-6" points="402.89 811.98 0 894.89 0 0 402.89 82.91 402.89 811.98"/>
            <g>
              <g>
                <path class="cls-9" d="M222.03,467.69l-.03-37.42c19.81-.01,35.94-18.94,35.94-42.18h37.42c0,20.9-7.32,40.61-20.61,55.5-13.86,15.52-32.58,24.08-52.71,24.1Z"/>
                <path class="cls-4" d="M221.97,467.69c-20.65,0-40.03-8.88-54.6-25.01-14.14-15.66-21.93-36.29-21.93-58.1,0-23.29,9.17-45.25,25.16-60.26,14.5-13.61,33.18-20.42,52.6-19.2,19.86,1.26,38.29,10.8,51.87,26.87,13.08,15.46,20.28,35.39,20.28,56.11s-7.32,40.61-20.61,55.5c-13.86,15.52-32.58,24.08-52.71,24.1h-.06ZM218.81,342.4c-8.28,0-16.24,3.22-22.6,9.2-8.49,7.96-13.35,19.98-13.35,32.98s4.36,24.25,12.28,33.02c7.38,8.17,16.91,12.67,26.84,12.67h.03c19.82-.01,35.94-18.94,35.94-42.18s-16.64-44.34-37.1-45.63c-.68-.04-1.35-.06-2.02-.06Z"/>
                <path class="cls-8" d="M221.97,456.4c-17.41,0-33.83-7.56-46.22-21.29-12.26-13.58-19.02-31.53-19.02-50.53,0-20.18,7.87-39.14,21.6-52.03,12.2-11.45,27.88-17.2,44.16-16.16l-.94,14.81c-12.14-.77-23.89,3.55-33.07,12.17-10.75,10.09-16.92,25.11-16.92,41.21s5.4,29.74,15.19,40.59c9.55,10.58,22.05,16.4,35.21,16.4h.04c26.04-.02,47.22-24,47.22-53.47h14.84c0,18.12-6.3,35.16-17.74,47.98-11.69,13.1-27.43,20.31-44.3,20.33h-.05Z"/>
                <path class="cls-9" d="M182.85,384.57h-37.42c0-23.29,9.17-45.25,25.16-60.26,14.5-13.61,33.18-20.42,52.6-19.2l-2.37,37.34c-8.99-.57-17.74,2.67-24.63,9.13-8.49,7.96-13.35,19.98-13.35,32.98Z"/>
              </g>
              <g>
                <path class="cls-4" d="M317.79,294.67c-1.91,0-3.83-.09-5.76-.27-38.31-3.53-69.47-41.58-69.47-84.81,0-23.19,9.03-44.21,24.76-57.68,13.79-11.8,31.31-16.75,49.32-13.94,36.73,5.74,65.5,42.78,65.5,84.31,0,22.28-8.51,42.81-23.35,56.35-11.45,10.44-25.83,16.02-41.01,16.02ZM306.87,174.64c-6.94,0-12.02,2.97-15.22,5.71-7.42,6.35-11.67,17.01-11.67,29.25,0,24,16.25,45.77,35.5,47.55,8.54.79,14.56-2.91,18.11-6.15,7.08-6.46,11.14-16.92,11.14-28.7,0-22.79-15.51-44.48-33.86-47.35-1.39-.22-2.72-.32-3.99-.32Z"/>
                <path class="cls-8" d="M317.75,283.38c-1.55,0-3.11-.07-4.68-.22-32.65-3.01-59.22-36.01-59.22-73.56,0-19.88,7.59-37.78,20.81-49.1,11.25-9.62,25.53-13.66,40.24-11.36l-2.29,14.66c-10.35-1.62-20.4,1.21-28.3,7.97-9.93,8.5-15.62,22.28-15.62,37.83,0,29.58,20.95,56.5,45.75,58.79,10,.92,19.25-2.21,26.76-9.05,9.42-8.59,14.82-22.09,14.82-37.04h14.84c0,19.11-7.17,36.61-19.66,48-9.34,8.52-21.07,13.07-33.43,13.08Z"/>
                <path class="cls-9" d="M279.98,209.6h-37.42c0-23.19,9.03-44.21,24.76-57.68,13.79-11.8,31.31-16.75,49.32-13.94l-5.78,36.97c-9.02-1.41-15.43,2.16-19.21,5.4-7.42,6.35-11.67,17.01-11.67,29.25Z"/>
              </g>
              <g>
                <path class="cls-4" d="M133.44,277.6c-2.36,0-4.73-.11-7.12-.33-44.47-4.1-80.65-45.44-80.65-92.15,0-23.78,9.62-45.64,26.38-59.99,16.18-13.85,37.09-19.59,58.88-16.19,42.48,6.64,75.75,46.85,75.75,91.54,0,22.79-9.04,44.11-24.8,58.49-13.31,12.14-30.3,18.62-48.44,18.62ZM118.94,145.42c-8.47,0-16.32,2.8-22.56,8.14-8.57,7.33-13.29,18.54-13.29,31.56,0,27.42,21.37,52.56,46.67,54.89,10.33.96,19.63-2.05,26.91-8.68,8.13-7.41,12.6-18.36,12.6-30.84,0-26.29-19.79-50.77-44.12-54.57-2.1-.33-4.17-.49-6.21-.49Z"/>
                <path class="cls-8" d="M133.37,266.31c-1.9,0-3.81-.08-5.73-.25-19.75-1.73-38.78-12.37-52.23-29.19-13.84-17.31-20.41-39.28-18.04-60.27,2.04-18.01,10.48-33.73,23.77-44.28l9.22,11.62c-10.18,8.08-16.66,20.27-18.25,34.33-1.94,17.1,3.49,35.09,14.88,49.34,10.92,13.67,26.21,22.29,41.93,23.67,13.03,1.14,25.4-2.79,34.81-11.07,20.91-18.4,22.31-54.39,3.13-80.23l11.91-8.85c24.07,32.42,21.77,76.43-5.23,100.21-11.08,9.76-25.17,14.97-40.17,14.97Z"/>
                <path class="cls-9" d="M83.09,185.12h-37.42c0-23.78,9.62-45.64,26.38-59.99,16.18-13.85,37.09-19.59,58.88-16.19l-5.78,36.97c-10.82-1.69-21.03,1.02-28.77,7.65-8.57,7.34-13.29,18.54-13.29,31.56Z"/>
              </g>
            </g>
            <g>
              <g>
                <g>
                  <polygon class="cls-3" points="191.98 803.71 228.19 797.2 228.19 552.95 191.98 554.92 191.98 803.71"/>
                  <polygon class="cls-14" points="191.98 803.71 228.19 797.2 228.19 623.73 191.98 627.01 191.98 803.71"/>
                  <polygon class="cls-3" points="127.58 815.28 166.15 808.35 166.15 660.29 127.58 664.38 127.58 815.28"/>
                  <polygon class="cls-14" points="127.58 815.28 166.15 808.35 166.15 693.08 127.58 697.79 127.58 815.28"/>
                  <polygon class="cls-3" points="58.85 827.64 100.03 820.24 100.03 640.62 58.85 644.46 58.85 827.64"/>
                  <polygon class="cls-14" points="58.85 827.64 100.03 820.24 100.03 760.7 58.85 766.92 58.85 827.64"/>
                </g>
                <g>
                  <polygon class="cls-3" points="320.51 780.61 352.21 774.91 352.21 641.07 320.51 644.43 320.51 780.61"/>
                  <polygon class="cls-14" points="320.51 780.61 352.21 774.91 352.21 670.32 320.51 674.19 320.51 780.61"/>
                  <polygon class="cls-3" points="264.31 790.71 297.94 784.67 297.94 679.19 264.31 683.34 264.31 790.71"/>
                  <polygon class="cls-14" points="264.31 790.71 297.94 784.67 297.94 730.81 264.31 735.89 264.31 790.71"/>
                </g>
              </g>
              <path class="cls-7" d="M40.9,853.8c-.71,0-1.35-.5-1.48-1.23-.16-.82.38-1.61,1.2-1.77l311.78-59.17c.82-.15,1.61.38,1.77,1.2.16.82-.38,1.61-1.2,1.77l-98.12,18.62s-.03,0-.05,0l-213.62,40.54c-.1.02-.19.03-.28.03Z"/>
            </g>
          </g>
          <g>
            <polygon class="cls-6" points="1326.8 890.32 1028.57 821.12 1028.57 73.77 1326.8 4.57 1326.8 890.32"/>
            <g>
              <g class="cls-20">
                <path class="cls-18" d="M1183.57,252.74c-6.81,0-9.26-18.51-12.64-48.39-2.21-19.5-4.71-41.59-8.82-44.7-.29-.22-.45-.2-.53-.18-4.75.79-7.68,12.8-10.26,23.39-3.07,12.59-5.97,24.47-12.72,25.42-.96.14-1.91-.14-2.75-.79-4.79-3.73-6.99-21.38-10.05-50-2.11-19.72-4.74-44.27-8.7-47.18-.17-.13-.25-.12-.28-.11-.43.09-2.73,1.25-5.34,15.77-1.75,9.73-3.19,22.76-4.59,35.35-4.03,36.3-6.42,52.3-12.41,53.14-6.73.95-9.51-9.95-12.43-21.49-2.19-8.67-4.88-19.48-8.75-18.84l-16.12,2.68-.52-3.13,16.12-2.68c6.69-1.12,9.44,9.72,12.35,21.19,2.22,8.76,4.97,19.65,8.91,19.12.25-.04,2.54-.76,5.15-15.28,1.73-9.59,3.16-22.54,4.55-35.06,3.96-35.73,6.48-52.69,12.46-53.88.97-.19,1.93.04,2.79.66,4.75,3.49,6.93,20.99,9.97,49.4,2.13,19.9,4.78,44.66,8.85,47.84.22.17.32.16.35.15,4.62-.65,7.52-12.54,10.08-23.03,3.09-12.67,6.01-24.64,12.83-25.77,1.03-.17,2.06.1,2.96.78,4.85,3.66,7.04,20.15,10.06,46.88,1.32,11.66,2.68,23.72,4.42,32.51,2.56,12.95,4.91,13.09,5.14,13.06.67-.07,3.08-1.36,5.91-14.78,1.96-9.3,3.63-21.87,5.24-34.03,4.19-31.7,7.12-51.19,14.03-52.34,7.55-1.26,10.77,10.36,14.15,22.66,2.76,10.02,5.87,21.39,10.77,20.7,5.29-.74,8.53-13.36,11.39-24.5,3.44-13.37,6.68-26,14.15-27.24l33.59-5.58.52,3.13-33.59,5.58c-5.43.9-8.71,13.65-11.6,24.9-3.41,13.28-6.63,25.82-14.03,26.85-7.66,1.07-10.87-10.62-14.27-23-2.73-9.92-5.82-21.14-10.57-20.37-.9.15-3.3,1.94-6.12,15.29-1.99,9.44-3.67,22.1-5.28,34.34-4.16,31.47-7.06,50.79-13.94,51.56-.15.02-.29.02-.43.02Z"/>
              </g>
              <g class="cls-10">
                <path class="cls-3" d="M1150.26,237.62c-6.49,0-9.4-14.17-12.75-30.51-2.57-12.51-5.75-28.02-10.01-28.02-.09,0-.19,0-.28.02-4.81.76-7.49,8.22-10.09,15.44-2.83,7.87-5.75,16-11.99,16.88-6.41.89-9.35-6.48-12.18-13.62-2.56-6.44-4.98-12.52-9.29-11.84l-26.55,4.19-.4-2.54,26.55-4.19c6.36-1.01,9.26,6.33,12.08,13.43,2.58,6.5,5.01,12.65,9.44,12.02,4.7-.66,7.36-8.06,9.93-15.21,2.85-7.92,5.79-16.12,12.1-17.11,6.82-1.09,9.78,13.33,13.2,30.02,2.65,12.92,5.91,28.99,10.49,28.44,4.82-.59,7.66-17.76,9.94-31.55,2.94-17.75,5.47-33.08,12.25-34.15,6.91-1.09,10.13,6.58,13.25,13.99,2.89,6.87,5.58,13.37,10.65,12.65,5.15-.72,8.3-19.97,10.84-35.43,3.24-19.76,6.04-36.83,13.12-38.1,7.49-1.34,10.64,15.05,14.28,34.03,2.84,14.81,6.4,33.23,11.53,32.51,5.68-.8,8.83-8.9,11.87-16.73,3.33-8.59,6.78-17.47,14.05-18.62l20.67-3.26.4,2.54-20.67,3.26c-5.81.92-8.99,9.1-12.06,17.01-3.31,8.52-6.73,17.34-13.9,18.35-7.57,1.05-10.74-15.45-14.41-34.57-2.81-14.65-6.29-32.89-11.3-31.98-5.29.95-8.48,20.38-11.04,35.99-3.22,19.62-6,36.57-13.02,37.56-7.01.99-10.24-6.74-13.38-14.2-2.86-6.8-5.57-13.22-10.48-12.45-4.94.78-7.81,18.11-10.12,32.03-2.92,17.63-5.44,32.86-12.16,33.68-.19.02-.38.03-.56.03Z"/>
              </g>
            </g>
            <g>
              <path class="cls-3" d="M1303.07,317.64l-251.36,17.31c-2.53.17-4.57-2.08-4.57-5.03v-4.11c0-2.95,2.04-5.5,4.57-5.7l251.36-19.59c3.38-.26,6.12,2.3,6.12,5.72v4.77c0,3.42-2.75,6.39-6.12,6.62Z"/>
              <path class="cls-3" d="M1304.85,360.79l-254.47,11.69c-1.79.08-3.24-1.55-3.24-3.64v-2.91c0-2.09,1.45-3.86,3.24-3.95l254.47-13.32c2.4-.13,4.34,1.74,4.34,4.17v3.38c0,2.43-1.95,4.48-4.34,4.59Z"/>
              <path class="cls-3" d="M1304.85,390.74l-254.47,7.65c-1.79.05-3.24-1.6-3.24-3.69v-2.91c0-2.09,1.45-3.84,3.24-3.9l254.47-9.28c2.4-.09,4.34,1.81,4.34,4.24v3.38c0,2.43-1.95,4.45-4.34,4.52Z"/>
              <path class="cls-3" d="M1304.85,420.7l-254.47,3.61c-1.79.03-3.24-1.65-3.24-3.74v-2.91c0-2.09,1.45-3.81,3.24-3.85l254.47-5.24c2.4-.05,4.34,1.88,4.34,4.3v3.38c0,2.43-1.95,4.42-4.34,4.45Z"/>
              <path class="cls-3" d="M1304.85,450.66l-254.47-.43c-1.79,0-3.24-1.7-3.24-3.79v-2.91c0-2.09,1.45-3.79,3.24-3.8l254.47-1.2c2.4-.01,4.34,1.95,4.34,4.37v3.38c0,2.43-1.95,4.39-4.34,4.39Z"/>
            </g>
            <g>
              <g>
                <g>
                  <polygon class="cls-3" points="1057.13 629.07 1057.13 659.41 1271.09 687.08 1271.09 652.77 1057.13 629.07"/>
                  <polygon class="cls-14" points="1057.13 629.07 1057.13 659.41 1203.55 678.34 1203.55 645.29 1057.13 629.07"/>
                  <polygon class="cls-3" points="1057.13 577.74 1057.13 608.09 1176.4 619.77 1176.4 587.23 1057.13 577.74"/>
                  <polygon class="cls-14" points="1057.13 577.74 1057.13 608.09 1148.52 617.04 1148.52 585.01 1057.13 577.74"/>
                  <polygon class="cls-3" points="1057.13 526.42 1057.13 556.76 1199 566.22 1199 533.26 1057.13 526.42"/>
                  <polygon class="cls-14" points="1057.13 526.42 1057.13 556.76 1101.59 559.73 1101.59 528.56 1057.13 526.42"/>
                </g>
                <g>
                  <polygon class="cls-3" points="1057.13 742.14 1057.13 772.48 1175.93 796.04 1175.93 763.5 1057.13 742.14"/>
                  <polygon class="cls-14" points="1057.13 742.14 1057.13 772.48 1148.52 790.61 1148.52 758.57 1057.13 742.14"/>
                  <polygon class="cls-3" points="1057.13 690.82 1057.13 721.16 1146.52 736.09 1146.52 704.09 1057.13 690.82"/>
                  <polygon class="cls-14" points="1057.13 690.82 1057.13 721.16 1101.59 728.59 1101.59 697.42 1057.13 690.82"/>
                </g>
              </g>
              <path class="cls-7" d="M1045.69,771.85c-.65,0-1.18-.53-1.18-1.18v-257.57c0-.65.53-1.18,1.18-1.18s1.18.53,1.18,1.18v257.57c0,.65-.53,1.18-1.18,1.18Z"/>
            </g>
          </g>
        </g>
        <g id="Plarnt">
          <g id="Plent">
            <g id="Tree">
              <g>
                <path class="cls-5" d="M688.49,471.62s-67.66-173.74,64.62-271.06c0,0,62.85-47.12,169.02-73.68,0,0,34.66,242.7-130.09,305.13,0,0-63.82,32.49-103.54,39.61Z"/>
                <path class="cls-3" d="M669.41,629.81c-4.12-26.88-3.27-54.35-.53-81.29,5.27-50.31,19.56-99.67,39.38-146.11,44.87-103.35,118.65-192.07,203.11-265.6-77.93,71.33-146,155.44-188.75,252.55-19.87,45.35-34.27,93.73-40.26,142.89-2.86,22.97-3.92,46.41-2.5,69.49.53,8.47,1.35,17.01,2.93,25.34,0,0-13.38,2.73-13.38,2.73h0Z"/>
                <path class="cls-3" d="M712.46,398.86c22.89-1.4,45.92-4.24,68.48-8.6,16.95-3.34,33.83-7.54,49.89-13.99,5.35-2.17,10.6-4.59,15.64-7.44-4.89,3.09-10.04,5.78-15.3,8.22-15.83,7.29-32.61,12.34-49.49,16.54-22.64,5.53-45.5,9.5-68.71,12.07-4.61.34-5.19-6.44-.5-6.81h0Z"/>
                <path class="cls-3" d="M789.67,266.97c36.1-1.58,71.73-9.71,106.7-18.44,0,0,15.01-4.03,15.01-4.03l-14.9,4.44c-24.93,7.12-50.12,13.42-75.71,17.73-10.22,1.64-20.69,3.22-31.06,3.72-2.29.04-2.39-3.38-.04-3.41h0Z"/>
                <path class="cls-3" d="M750.02,325.27c25.56,1.3,51.5-.09,76.9-3.3,16.26-2.11,33.27-5.31,49.11-9.61,5.03-1.22,12.51-3.68,17.49-5.18-4.96,1.76-12.28,4.54-17.25,6-15.71,5.06-32.63,9.07-48.86,11.96-25.62,4.46-51.66,7.07-77.71,6.96-4.61-.2-4.4-7.02.32-6.82h0Z"/>
                <path class="cls-3" d="M836.71,209.75c23.75-.88,47.33-6.47,69.93-13.66,3.25-1.06,6.46-2.21,9.7-3.3-3.2,1.2-6.38,2.44-9.6,3.61-9.59,3.44-19.56,6.54-29.41,9.07-13.36,3.31-26.78,6.04-40.6,6.85-1.72.05-1.81-2.56-.03-2.56h0Z"/>
                <path class="cls-3" d="M827.9,220.7c-7.55-11.51-8.5-26.1-6.23-39.33.71-4.33,2.03-8.76,3.34-12.93-.8,3.1-1.72,6.55-2.2,9.74-1.72,9.7-1.52,19.97,1.43,29.4,1.27,4.04,3.16,8.27,5.71,11.59,1.03,1.36-1.03,2.93-2.05,1.53h0Z"/>
                <path class="cls-3" d="M792.67,264.46c-10.26-10.48-16.04-24.51-18.21-38.83-.15-1.45-.51-5.27-.65-6.77-.02-1.45-.08-5.37-.09-6.78.2-2.6.32-6.41.73-8.99.23-1.5.8-5.15,1.03-6.67-.17,1.55-.55,5.22-.71,6.7-.29,2.57-.22,6.37-.3,8.96.09,1.38.32,5.25.41,6.7,1.42,13.22,6.09,26.18,14.22,36.74,1.8,2.27,3.73,4.54,5.89,6.43,1.69,1.52-.62,4.1-2.32,2.51h0Z"/>
                <path class="cls-3" d="M747.91,331.64c-16.88-14.2-26.78-35.56-29.57-57.16-.91-7.11-1.1-14.28-.66-21.38.26,14.13,2.99,28.21,8.87,41.06,4.33,9.49,10.24,18.17,17.62,25.47,2.36,2.3,4.96,4.62,7.67,6.42,3.86,2.67-.08,8.32-3.93,5.59h0Z"/>
                <path class="cls-3" d="M703.33,421.25c-17.67-25.71-25.6-58.26-20.94-89.13-.58,7.67-.44,15.37.44,22.96,1.79,15.08,6.49,29.82,13.52,43.24,2.62,5,5.54,9.83,8.82,14.41,1.09,1.52,2.27,3.08,3.39,4.38,2.86,3.54-2.41,7.76-5.24,4.15h0Z"/>
              </g>
              <g>
                <path class="cls-16" d="M647.17,534.57s21.66-118.42-74.1-163.95c0,0-45.61-22.19-116.16-26.05,0,0,7.69,158.11,119.78,177.54,0,0,44.43,12.8,70.49,12.45Z"/>
                <path class="cls-3" d="M669.78,632.43c-.25-14.83-2.98-29.57-6.61-43.95-9.54-37.39-27.29-72.62-49.29-104.24-38.96-55.2-91.58-99.5-148.95-134.69,57.59,33.46,110.98,76.03,151.17,129.55,24.12,32.24,43.54,68.51,54.52,107.38,4.17,15,7.4,30.42,7.97,46.04,0,0-8.82-.1-8.82-.1h0Z"/>
                <path class="cls-3" d="M623.59,495.75c-27.59,1.94-63.1,2.5-89.14-7.03,7.11,2.33,14.49,3.58,21.88,4.43,14.76,1.57,29.8,1.35,44.59.38,7.42-.51,14.88-1.18,22.19-2.16,2.93-.32,3.46,4.04.48,4.38h0Z"/>
                <path class="cls-3" d="M558.4,419.36c-13.34,1.75-26.85,1.68-40.25,1.33-12.97-.37-27.1-1.52-40.05-2.86,19.84,1.52,40.24,2.34,60.09,1.32,6.51-.38,13.43-.86,19.82-1.96,1.45-.29,1.89,1.92.39,2.17h0Z"/>
                <path class="cls-3" d="M591.3,453.59c-28.14,5.37-57.06,6.68-85.49,3.15-1.95-.3-6.75-1.06-8.74-1.37,2.03.22,6.85.74,8.79.95,6.5.47,14.06.87,20.57.76,21.43-.17,43.04-2.75,63.84-7.79,2.88-.74,4.01,3.59,1.03,4.29h0Z"/>
                <path class="cls-3" d="M521.48,388.29c-17.64,2.14-35.45.45-52.85-2.65,2.19.3,4.37.63,6.55.91,15.22,1.8,30.84,2.46,46.01.11,1.09-.22,1.42,1.44.29,1.63h0Z"/>
                <path class="cls-3" d="M526.65,391.76c4.14-9.04,2.44-19.87-1.28-28.81-.58-1.31-1.21-2.6-1.81-3.9.66,1.27,1.36,2.53,2,3.82,3.09,6.54,5,13.73,4.51,21.02-.22,2.93-.71,5.8-1.95,8.65-.18.42-.67.61-1.09.43-.47-.2-.63-.77-.37-1.2h0Z"/>
                <path class="cls-3" d="M554.06,414.61c6.66-9.25,8.72-21.47,7.06-32.64-.07-.76-.3-2.09-.49-2.85-.51-2.76-1.42-5.72-2.26-8.39.63,1.83,1.35,3.63,1.91,5.49.26.97.88,3.3,1.12,4.22.16.89.6,3.38.77,4.31.09.98.34,3.42.41,4.37,0,1.42.08,2.98.02,4.4-.13,3.91-.79,7.82-1.88,11.6-1.13,3.8-2.62,7.42-4.94,10.84-.34.5-1.03.64-1.53.29-.55-.37-.64-1.15-.21-1.65h0Z"/>
                <path class="cls-3" d="M589.23,450.01c8.41-8.94,12.71-21.22,13.67-33.34.03-1.08.12-4.06.15-5.12-.08-3.92-.52-8.07-1.11-11.95.99,4.39,1.97,9.11,2.16,13.63l.17,3.47c-.06,3.38-.23,7.12-.78,10.44-1.4,8.7-4.66,17.3-9.92,24.45-.37.5-.72.95-1.2,1.49-.8.92-2.2,1.01-3.11.21-.99-.85-1.01-2.41-.04-3.29h0Z"/>
                <path class="cls-3" d="M627.76,502.39c6.74-12.87,9.75-27.89,8.69-42.39-.26-4.94-1.29-9.79-2.47-14.62,3.25,9.43,4.85,19.51,4.35,29.5-.27,7.56-1.65,15.11-3.92,22.35-.8,2.44-1.63,4.78-2.77,7.24-.51,1.11-1.82,1.59-2.93,1.08-1.19-.54-1.64-2.04-.96-3.16h0Z"/>
              </g>
              <path class="cls-3" d="M688.27,899.99l-13.6-1.23c6.39-70.45-8.41-295.76-8.56-298.03l13.63-.9c.62,9.3,15.02,228.65,8.53,300.17Z"/>
              <g>
                <path class="cls-13" d="M719.45,623.54s75.55-23.94,175.78,0c100.23,23.94,120.43,32.16,150.35,31.42,0,0-99.69-95.52-187-105.47-70.79-8.07-83.77,7.48-139.13,74.05Z"/>
                <path class="cls-3" d="M1016.75,643.4c-68.49-26.57-153.15-49.64-226.84-41.8-31.66,3.7-58.91,13.83-82.02,36.17-10.34,9.9-21.43,21.91-24.32,35.96,0,0-8.34-1.55-8.34-1.55,1.75-8.43,6.08-15.76,11.14-22.41,9.93-12.71,22.11-23.16,35.42-32.07,20.12-13.01,44.05-19.12,67.55-21.37,74.56-6.25,158.9,18.7,227.4,47.07h0Z"/>
                <path class="cls-3" d="M762.84,603.01c.63-5.2,3.52-9.59,6.45-13.73,5.96-7.86,13.66-14.34,21.62-20.08l5.07-3.49c-6.1,5.23-12.26,10.97-17.28,17.23-3.66,4.54-7.12,9.67-9.12,15.15-.52,1.59-1.01,3.15-1.08,4.8v.12s0,0,0,0h-5.65Z"/>
                <path class="cls-3" d="M920.92,612.04c3.57-9.92,13.96-15.26,23.79-16.92,0,0,4.19-.54,4.19-.54l-4.12.88c-8.96,2.32-18.42,7.85-21.12,17.23,0,0-2.75-.66-2.75-.66h0Z"/>
                <path class="cls-3" d="M866.01,601.26c3.95-11.19,26.45-21.47,36.99-26.15-9.88,5.13-19.92,10.71-28.11,18.3-2.41,2.42-5.04,5.02-6.09,8.26,0,0-2.8-.42-2.8-.42h0Z"/>
                <path class="cls-3" d="M813.63,596.96c8.61-14.33,21.89-25.43,36.97-32.38-10.86,5.73-20.51,13.74-27.94,23.5-2.45,3.21-4.75,6.65-6.5,10.14l-2.53-1.27h0Z"/>
                <path class="cls-3" d="M770.03,601.17c1.06,3.17,3.18,6.06,5.89,8.07.95.74,2.05,1.26,3.2,1.76-1.24-.03-2.54-.12-3.79-.47-3.96-1.04-7.56-3.44-10.23-6.57,0,0,4.92-2.78,4.92-2.78h0Z"/>
                <path class="cls-3" d="M810.05,597.6c4.3,4.98,9.26,9.9,15.59,12.21-5.04-1.01-9.57-3.9-13.65-6.95-1.38-1.05-2.7-2.12-4.01-3.34l2.07-1.92h0Z"/>
                <path class="cls-3" d="M864.13,599.92c4.32,5.15,8.72,10.47,14.14,14.52-6.02-3.33-11.13-8.01-16.22-12.61,0,0,2.08-1.92,2.08-1.92h0Z"/>
                <path class="cls-3" d="M927.8,612.81c3.55,7.38,8.92,14.28,16.06,18.5-3.87-1.73-7.4-4.23-10.46-7.18-3.13-3.02-5.83-6.29-8.12-10.04,0,0,2.52-1.28,2.52-1.28h0Z"/>
                <path class="cls-3" d="M967.39,624.92c4.34-1.2,8.71-2.22,13.13-3.03,4.4-.73,8.94-1.55,13.39-.88-4.46-.52-8.94.46-13.3,1.34-4.37.96-8.7,2.14-12.95,3.47l-.27-.9h0Z"/>
                <path class="cls-3" d="M976.08,627.76c5.96,6.27,12.92,11.6,20.3,16.09-5.7-3.17-11.12-6.86-16.13-11.05-1.67-1.4-3.3-2.84-4.86-4.4l.69-.64h0Z"/>
              </g>
              <g>
                <path class="cls-17" d="M529.75,581.46s-116.63,61.55-168.61,59.08c0,0,69.12-65.2,156.74-59.43"/>
                <g>
                  <path class="cls-21" d="M654.53,681.58c-27-19.6-76.34-44.51-133.86-36.16-48.9,7.1-134.55-1.95-159.54-4.88,27.78-15.78,96.68-32.4,157.67-55.63,60.78-23.15,103.36,25.38,135.72,96.67Z"/>
                  <path class="cls-3" d="M361.13,640.54c45.15,4.55,90.69,8.01,136.07,5.69,10.46-.49,21.67-2.12,32.06-3.45,42.58-4.98,85.87,5.55,120.33,31.38,11.78,9.28,20.69,22.1,25.1,36.45.23.97,2.21,7.9,2.43,8.83,6.53,27.63,8.59,56.2,9.45,84.49.25,9.65.35,19.23.14,28.96l-8.76-.32c.38-9.41.46-18.99.4-28.49-.23-23.68-1.44-47.57-5.31-70.95-.75-4.56-1.7-9.36-2.79-13.86,0,0-1.74-6.82-1.74-6.82-1.91-6.6-4.82-12.88-8.61-18.61-5.07-7.66-11.78-14.31-19.4-19.43-36.34-25.44-78.01-33.31-121.58-27.26-6.83.83-14.73,1.46-21.59,1.68-45.52,1.47-91.06-2.86-136.2-8.29h0Z"/>
                  <path class="cls-3" d="M611.73,656.52c-2.09-9.84-4.67-19.67-7.83-29.24-2.44-7.15-5.09-14.32-9.11-20.76-1.36-2.12-2.9-4.16-4.86-5.78,2.05,1.5,3.72,3.48,5.21,5.54,7.21,10.54,11.43,22.79,15.51,34.8,1.58,4.85,3.05,9.71,4.38,14.67.24.9-.29,1.83-1.19,2.07-.94.26-1.91-.35-2.1-1.31h0Z"/>
                  <path class="cls-3" d="M571.82,645.27c-2.87-9.39-6.14-18.73-9.86-27.84-3.85-9.02-7.72-18.31-14.17-25.82,3.52,3.49,6.24,7.72,8.77,11.97,5.03,8.56,9.16,17.62,13.01,26.76,1.91,4.59,3.74,9.18,5.46,13.88.32.88-.13,1.85-1.01,2.17-.91.34-1.93-.18-2.2-1.12h0Z"/>
                  <path class="cls-3" d="M530.66,644.92c-3.1-16.4-8.81-33.02-19.79-45.89,5.83,6.19,10.28,13.56,13.77,21.29,3.48,7.8,6.19,15.87,8.01,24.25.26,1.34-1.77,1.72-2,.35h0Z"/>
                  <path class="cls-3" d="M488.43,648.19c-2.75-12.05-6.62-23.99-12.5-34.91,4.91,7.97,8.6,16.64,11.67,25.47,1.02,2.96,1.96,5.92,2.8,8.97.15.54-.17,1.1-.71,1.25-.57.16-1.15-.21-1.26-.78h0Z"/>
                  <path class="cls-3" d="M439.16,646.98c-2.22-8.37-7.19-15.94-12.18-22.95,0,0,2.12,2.54,2.12,2.54,3.45,4.29,6.73,8.85,9.32,13.72,1.06,2.05,2.02,3.98,2.71,6.25.16.54-.15,1.1-.69,1.26-.58.18-1.2-.22-1.29-.82h0Z"/>
                </g>
              </g>
            </g>
          </g>
        </g>
      </g>
    </g>
  </g>
</svg>