<?xml version="1.0" encoding="UTF-8"?>
<svg id="Layer_2" data-name="Layer 2" xmlns="http://www.w3.org/2000/svg" viewBox="0 0 908.56 908.56">
  <defs>
    <style>
      .cls-1 {
        fill: #163300;
      }

      .cls-2 {
        fill: #9fe870;
      }
    </style>
  </defs>
  <g id="Layer_1-2" data-name="Layer 1">
    <g>
      <g>
        <path class="cls-1" d="M387.65,222.8c4.33,9.07,9.42,18.12,12.54,25.67,10.23,19.24,38.99,58.49,87.72,14.1,1.2-3.66,1.83-7.58,1.78-11.64-12,5.16-25.8,3.96-25.8,3.96,12.02-1.26,21.31-7.64,27.76-13.99,2.36-2.98,6.41-8.16,10.81-14.05,7.67-10.25,16.4-22.64,19.11-29.27,5.16-12.6,25.64-54.81,44.5-63.45,0,0,11.33-15.48-13.77-13.51-19.77,1.55-38.27,26.04-45.24,36.37-1.96,2.91-5.05,4.86-8.52,5.36-.14.02-.28.04-.42.05-5.26.58-10.11-2.95-11.36-8.09-6.07-25.08-.88-53.61,2.09-66.28,6.96-26.3,13.08-56.57,12.21-64.06-1.22-10.5-14.1-19.16-20.36-3.41-5.49,13.83-23.88,76.21-27.58,89.23-.52,1.83-1.77,3.37-3.46,4.26-2.08,1.1-4.54-.61-4.34-2.95,1.49-16.89,8.39-75.41,4.95-90.98C446.12,1.3,442.78.21,435.18,0c-7.61-.21-9.19,7.24-7.81,32.16,1.27,23.02-4.85,72.97-5.85,79.55-.08.54-.31,1.05-.65,1.48l-1.54,1.91c-.89,1.1-2.4,1.53-3.7.97-.94-.4-1.6-1.23-1.81-2.19l-16.91-80.5c-1.15-5.21-6.26-8.65-11.48-7.55-3,.63-5.91,2.75-7.54,7.9,0,0,4.5,33.23,4.9,41.99.4,8.76,6.83,40.97,7.73,46.02.53,2.99.79,6.13-.49,8.66-1.51,2.99-5.82,2.92-7.23-.12-6.04-12.96-24.02-51.18-27.49-54.49-4.19-3.99-16.57-7.99-15.25,6.41,1.32,14.4,22.72,53.27,26.67,72.08,3.96,18.82,14.78,55.6,20.93,68.52Z"/>
        <path class="cls-1" d="M520.91,685.76c-4.33-9.07-9.42-18.12-12.54-25.67-10.23-19.24-38.99-58.49-87.72-14.1-1.2,3.66-1.83,7.58-1.78,11.64,12-5.16,25.8-3.96,25.8-3.96-12.02,1.26-21.31,7.64-27.76,13.99-2.36,2.98-6.41,8.16-10.81,14.05-7.67,10.25-16.4,22.64-19.11,29.27-5.16,12.6-25.64,54.81-44.5,63.45,0,0-11.33,15.48,13.77,13.51,19.77-1.55,38.27-26.04,45.24-36.37,1.96-2.91,5.05-4.86,8.52-5.36.14-.02.28-.04.42-.05,5.26-.58,10.11,2.95,11.36,8.09,6.07,25.08.88,53.61-2.09,66.28-6.96,26.3-13.08,56.57-12.21,64.06,1.22,10.5,14.1,19.16,20.36,3.41,5.49-13.83,23.88-76.21,27.58-89.23.52-1.83,1.77-3.37,3.46-4.26,2.08-1.1,4.54.61,4.34,2.95-1.49,16.89-8.39,75.41-4.95,90.98,4.15,18.81,7.49,19.91,15.1,20.11,7.61.21,9.19-7.24,7.81-32.16-1.27-23.02,4.85-72.97,5.85-79.55.08-.54.31-1.05.65-1.48l1.54-1.91c.89-1.1,2.4-1.53,3.7-.97.94.4,1.6,1.23,1.81,2.19l16.91,80.5c1.15,5.21,6.26,8.65,11.48,7.55,3-.63,5.91-2.75,7.54-7.9,0,0-4.5-33.23-4.9-41.99-.4-8.76-6.83-40.97-7.73-46.02-.53-2.99-.79-6.13.49-8.66,1.51-2.99,5.82-2.92,7.23.12,6.04,12.96,24.02,51.18,27.49,54.49,4.19,3.99,16.57,7.99,15.25-6.41-1.32-14.4-22.72-53.27-26.67-72.08-3.96-18.82-14.78-55.6-20.93-68.52Z"/>
        <path class="cls-1" d="M685.76,387.65c-9.07,4.33-18.12,9.42-25.67,12.54-19.24,10.23-58.49,38.99-14.1,87.72,3.66,1.2,7.58,1.83,11.64,1.78-5.16-12-3.96-25.8-3.96-25.8,1.26,12.02,7.64,21.31,13.99,27.76,2.98,2.36,8.16,6.41,14.05,10.81,10.25,7.67,22.64,16.4,29.27,19.11,12.6,5.16,54.81,25.64,63.45,44.5,0,0,15.48,11.33,13.51-13.77-1.55-19.77-26.04-38.27-36.37-45.24-2.91-1.96-4.86-5.05-5.36-8.52-.02-.14-.04-.28-.05-.42-.58-5.26,2.95-10.11,8.09-11.36,25.08-6.07,53.61-.88,66.28,2.09,26.3,6.96,56.57,13.08,64.06,12.21,10.5-1.22,19.16-14.1,3.41-20.36-13.83-5.49-76.21-23.88-89.23-27.58-1.83-.52-3.37-1.77-4.26-3.46-1.1-2.08.61-4.54,2.95-4.34,16.89,1.49,75.41,8.39,90.98,4.95,18.81-4.15,19.91-7.49,20.11-15.1.21-7.61-7.24-9.19-32.16-7.81-23.02,1.27-72.97-4.85-79.55-5.85-.54-.08-1.05-.31-1.48-.65l-1.91-1.54c-1.1-.89-1.53-2.4-.97-3.7.4-.94,1.23-1.6,2.19-1.81l80.5-16.91c5.21-1.15,8.65-6.26,7.55-11.48-.63-3-2.75-5.91-7.9-7.54,0,0-33.23,4.5-41.99,4.9-8.76.4-40.97,6.83-46.02,7.73-2.99.53-6.13.79-8.66-.49-2.99-1.51-2.92-5.82.12-7.23,12.96-6.04,51.18-24.02,54.49-27.49,3.99-4.19,7.99-16.57-6.41-15.25-14.4,1.32-53.27,22.72-72.08,26.67-18.82,3.96-55.6,14.78-68.52,20.93Z"/>
        <path class="cls-1" d="M222.8,520.91c9.07-4.33,18.12-9.42,25.67-12.54,19.24-10.23,58.49-38.99,14.1-87.72-3.66-1.2-7.58-1.83-11.64-1.78,5.16,12,3.96,25.8,3.96,25.8-1.26-12.02-7.64-21.31-13.99-27.76-2.98-2.36-8.16-6.41-14.05-10.81-10.25-7.67-22.64-16.4-29.27-19.11-12.6-5.16-54.81-25.64-63.45-44.5,0,0-15.48-11.33-13.51,13.77,1.55,19.77,26.04,38.27,36.37,45.24,2.91,1.96,4.86,5.05,5.36,8.52.02.14.04.28.05.42.58,5.26-2.95,10.11-8.09,11.36-25.08,6.07-53.61.88-66.28-2.09-26.3-6.96-56.57-13.08-64.06-12.21-10.5,1.22-19.16,14.1-3.41,20.36,13.83,5.49,76.21,23.88,89.23,27.58,1.83.52,3.37,1.77,4.26,3.46,1.1,2.08-.61,4.54-2.95,4.34-16.89-1.49-75.41-8.39-90.98-4.95C1.3,462.44.21,465.78,0,473.39c-.21,7.61,7.24,9.19,32.16,7.81,23.02-1.27,72.97,4.85,79.55,5.85.54.08,1.05.31,1.48.65l1.91,1.54c1.1.89,1.53,2.4.97,3.7-.4.94-1.23,1.6-2.19,1.81l-80.5,16.91c-5.21,1.15-8.65,6.26-7.55,11.48.63,3,2.75,5.91,7.9,7.54,0,0,33.23-4.5,41.99-4.9,8.76-.4,40.97-6.83,46.02-7.73,2.99-.53,6.13-.79,8.66.49,2.99,1.51,2.92,5.82-.12,7.23-12.96,6.04-51.18,24.02-54.49,27.49-3.99,4.19-7.99,16.57,6.41,15.25,14.4-1.32,53.27-22.72,72.08-26.67,18.82-3.96,55.6-14.78,68.52-20.93Z"/>
        <path class="cls-2" d="M570.85,243.49c-3.36,9.47-6.16,19.47-9.29,27.02-6.37,20.84-13.79,68.92,52.06,72,3.44-1.74,6.65-4.07,9.49-6.97-12.13-4.84-21.05-15.45-21.05-15.45,9.39,7.61,20.47,9.67,29.52,9.74,3.77-.44,10.3-1.24,17.58-2.29,12.67-1.83,27.61-4.41,34.22-7.18,12.56-5.26,56.89-20.63,76.33-13.4,0,0,18.95-2.93-.18-19.29-15.07-12.89-45.47-8.65-57.71-6.27-3.44.67-7.01-.14-9.82-2.23-.11-.09-.23-.17-.34-.26-4.13-3.31-5.07-9.24-2.31-13.76,13.44-22.02,37.29-38.53,48.35-45.39,23.52-13.68,49.25-30.75,53.93-36.66,6.56-8.29,3.58-23.52-11.98-16.81-13.66,5.89-70.77,37.01-82.59,43.59-1.67.93-3.64,1.14-5.46.57-2.25-.69-2.78-3.65-.98-5.16,12.99-10.89,59.26-47.39,67.83-60.83,10.37-16.24,8.78-19.37,3.54-24.9-5.23-5.53-11.61-1.38-28.26,17.21-15.38,17.18-55.03,48.17-60.39,52.11-.44.32-.96.53-1.51.58l-2.43.26c-1.41.15-2.78-.61-3.3-1.93-.38-.95-.26-2,.27-2.83l44.97-68.88c2.87-4.5,1.69-10.54-2.78-13.45-2.57-1.68-6.12-2.24-10.92.26,0,0-20.32,26.68-26.23,33.16-5.91,6.48-24.15,33.8-27.08,38.01-1.74,2.49-3.77,4.9-6.47,5.78-3.19,1.05-6.18-2.05-5.03-5.2,4.89-13.44,19.21-53.18,19.09-57.97-.14-5.79-6.07-17.36-15.31-6.25-9.25,11.11-21.6,53.73-32.11,69.83-10.51,16.1-28.87,49.77-33.65,63.25Z"/>
        <path class="cls-2" d="M337.72,665.08c3.36-9.47,6.16-19.47,9.29-27.02,6.37-20.84,13.79-68.92-52.06-72-3.44,1.74-6.65,4.07-9.49,6.97,12.13,4.84,21.05,15.45,21.05,15.45-9.39-7.61-20.47-9.67-29.52-9.74-3.77.44-10.3,1.24-17.58,2.29-12.67,1.83-27.61,4.41-34.22,7.18-12.56,5.26-56.89,20.63-76.33,13.4,0,0-18.95,2.93.18,19.29,15.07,12.89,45.47,8.65,57.71,6.27,3.44-.67,7.01.14,9.82,2.23.11.09.23.17.34.26,4.13,3.31,5.07,9.24,2.31,13.76-13.44,22.02-37.29,38.53-48.35,45.39-23.52,13.68-49.25,30.75-53.93,36.66-6.56,8.29-3.58,23.52,11.98,16.81,13.66-5.89,70.77-37.01,82.59-43.59,1.67-.93,3.64-1.14,5.46-.57,2.25.69,2.78,3.65.98,5.16-12.99,10.89-59.26,47.39-67.83,60.83-10.37,16.24-8.78,19.37-3.54,24.9,5.23,5.53,11.61,1.38,28.26-17.21,15.38-17.18,55.03-48.17,60.39-52.11.44-.32.96-.53,1.51-.58l2.43-.26c1.41-.15,2.78.61,3.3,1.93.38.95.26,2-.27,2.83l-44.97,68.88c-2.87,4.5-1.69,10.54,2.78,13.45,2.57,1.68,6.12,2.24,10.92-.26,0,0,20.32-26.68,26.23-33.16,5.91-6.48,24.15-33.8,27.08-38.01,1.74-2.49,3.77-4.9,6.47-5.78,3.19-1.05,6.18,2.05,5.03,5.2-4.89,13.44-19.21,53.18-19.09,57.97.14,5.79,6.07,17.36,15.31,6.25,9.25-11.11,21.6-53.73,32.11-69.83,10.51-16.1,28.87-49.77,33.65-63.25Z"/>
        <path class="cls-2" d="M665.08,570.85c-9.47-3.36-19.47-6.16-27.02-9.29-20.84-6.37-68.92-13.79-72,52.06,1.74,3.44,4.07,6.65,6.97,9.49,4.84-12.13,15.45-21.05,15.45-21.05-7.61,9.39-9.67,20.47-9.74,29.52.44,3.77,1.24,10.3,2.29,17.58,1.83,12.67,4.41,27.61,7.18,34.22,5.26,12.56,20.63,56.89,13.4,76.33,0,0,2.93,18.95,19.29-.18,12.89-15.07,8.65-45.47,6.27-57.71-.67-3.44.14-7.01,2.23-9.82.09-.11.17-.23.26-.34,3.31-4.13,9.24-5.07,13.76-2.31,22.02,13.44,38.53,37.29,45.39,48.35,13.68,23.52,30.75,49.25,36.66,53.93,8.29,6.56,23.52,3.58,16.81-11.98-5.89-13.66-37.01-70.77-43.59-82.59-.93-1.67-1.14-3.64-.57-5.46.69-2.25,3.65-2.78,5.16-.98,10.89,12.99,47.39,59.26,60.83,67.83,16.24,10.37,19.37,8.78,24.9,3.54,5.53-5.23,1.38-11.61-17.21-28.26-17.18-15.38-48.17-55.03-52.11-60.39-.32-.44-.53-.96-.58-1.51l-.26-2.43c-.15-1.41.61-2.78,1.93-3.3.95-.38,2-.26,2.83.27l68.88,44.97c4.5,2.87,10.54,1.69,13.45-2.78,1.68-2.57,2.24-6.12-.26-10.92,0,0-26.68-20.32-33.16-26.23-6.48-5.91-33.8-24.15-38.01-27.08-2.49-1.74-4.9-3.77-5.78-6.47-1.05-3.19,2.05-6.18,5.2-5.03,13.44,4.89,53.18,19.21,57.97,19.09,5.79-.14,17.36-6.07,6.25-15.31-11.11-9.25-53.73-21.6-69.83-32.11-16.1-10.51-49.77-28.87-63.25-33.65Z"/>
        <path class="cls-2" d="M243.49,337.72c9.47,3.36,19.47,6.16,27.02,9.29,20.84,6.37,68.92,13.79,72-52.06-1.74-3.44-4.07-6.65-6.97-9.49-4.84,12.13-15.45,21.05-15.45,21.05,7.61-9.39,9.67-20.47,9.74-29.52-.44-3.77-1.24-10.3-2.29-17.58-1.83-12.67-4.41-27.61-7.18-34.22-5.26-12.56-20.63-56.89-13.4-76.33,0,0-2.93-18.95-19.29.18-12.89,15.07-8.65,45.47-6.27,57.71.67,3.44-.14,7.01-2.23,9.82-.09.11-.17.23-.26.34-3.31,4.13-9.24,5.07-13.76,2.31-22.02-13.44-38.53-37.29-45.39-48.35-13.68-23.52-30.75-49.25-36.66-53.93-8.29-6.56-23.52-3.58-16.81,11.98,5.89,13.66,37.01,70.77,43.59,82.59.93,1.67,1.14,3.64.57,5.46-.69,2.25-3.65,2.78-5.16.98-10.89-12.99-47.39-59.26-60.83-67.83-16.24-10.37-19.37-8.78-24.9-3.54-5.53,5.23-1.38,11.61,17.21,28.26,17.18,15.38,48.17,55.03,52.11,60.39.32.44.53.96.58,1.51l.26,2.43c.15,1.41-.61,2.78-1.93,3.3-.95.38-2,.26-2.83-.27l-68.88-44.97c-4.5-2.87-10.54-1.69-13.45,2.78-1.68,2.57-2.24,6.12.26,10.92,0,0,26.68,20.32,33.16,26.23,6.48,5.91,33.8,24.15,38.01,27.08,2.49,1.74,4.9,3.77,5.78,6.47,1.05,3.19-2.05,6.18-5.2,5.03-13.44-4.89-53.18-19.21-57.97-19.09-5.79.14-17.36,6.07-6.25,15.31,11.11,9.25,53.73,21.6,69.83,32.11,16.1,10.51,49.77,28.87,63.25,33.65Z"/>
      </g>
      <g>
        <path class="cls-1" d="M521.1,561.98c2.33.86,2.63,4.07.5,5.35-19.84,11.95-43.09,18.83-67.94,18.83-20.9,0-40.67-4.86-58.24-13.52-1.62-.8-2.21-2.87-1.17-4.34,0,0,.01-.02.02-.03,1.96-2.75,5.82-3.4,9.17-2.96,3.35.44,6.57,1.72,9.94,1.93,8.48.51,16.58-5.8,24.9-4.11,5.22,1.06,10.07,5.21,15.24,3.93,1.37-.34,2.62-1.05,3.91-1.62,10-4.43,21.69-.48,32.48-2.23,5.62-.91,10.95-3.36,16.63-3.79,5-.38,9.81.82,14.55,2.57Z"/>
        <path class="cls-1" d="M532.91,348.87c-3.68-2.77-8.93-2.48-12.09.87-1.22,1.29-1.97,2.88-1.93,4.77.07,3.76,3.31,6.83,5.79,9.9,1.37,1.71,1.65,4.04.74,6.03,0,0,0,.02-.01.03-.82,1.79-1.77,3.34-3.25,4.67-2.53,2.26-5.7,3.63-8.69,5.24-3.82,2.06-7.41,4.54-10.68,7.41-.87.76-1.72,1.55-2.42,2.47-1.46,1.92-2.2,4.38-2.03,6.79-.19.61-.27,1.26-.21,1.94,5.73,1.33,11.45-1.64,16.99-3.63,5.54-1.99,12.72-2.6,16.38,2.02.85,1.07,1.45,2.38,2.55,3.2,1.27.94,2.98,1.04,4.56.91,6.98-.55,13.95-4.64,20.6-2.47,6,1.96,9.5,9.44,7.15,15.3-2.35,5.85-10.05,8.84-15.74,6.11-3.87-1.86-6.72-5.86-10.96-6.58-2.46-.41-4.93.38-7.35.94-6.81,1.59-14.03,1.44-20.77-.43-4.32-1.2-9.21-3.03-13.01-.64-3.62,2.28-4.26,7.25-4.14,11.53.12,4.28.5,8.98-2.09,12.4-2.22,2.93-6.33,4.38-7.6,7.83-.56,1.52-.46,3.2-.34,4.81.17,2.49.34,4.97.51,7.45.26,3.77.69,7.92,3.43,10.52.19.18.38.34.58.5,1.69,1.32,2.92,3.12,3.75,5.11.48,1.15,1.15,2.18,2.11,3.01,1.86,1.6,4.42,2.05,6.84,2.44,3.41.55,6.82,1.1,10.23,1.64,3.8.61,7.74,1.28,10.89,3.48,2.54,1.78,4.34,4.4,6.08,6.96,2.62,3.86,5.26,7.75,7.04,12.06,1.76,4.25,2.63,8.82,4.2,13.14,1.2,3.32,2.8,6.46,4.38,9.61.91,1.81,1.67,4,2.59,5.99,0,.02.02.04.02.06.71,1.76,2.3,4.96,4.28,7.62.65.87,1.94.9,2.64.07v-.02s-.09,0-.15,0c.06,0,.12,0,.18,0h0c1.21-1.42,2.4-2.86,3.55-4.33.95-1.21,1.56-2.64,1.78-4.15v-.02c.88-5.89,2.56-11.62,4.24-17.33,2.4-8.15,4.8-16.31,7.2-24.46,1.16-3.95,2.38-8,4.95-11.21.77-.96,1.65-1.83,2.59-2.63,4.14-3.52,6.75-8.51,7.05-13.93.14-2.5.21-5.02.21-7.55,0-43.09-20.66-81.35-52.62-105.41Z"/>
        <path class="cls-1" d="M503.81,332.28h0c-15.46-6.36-32.4-9.87-50.15-9.87-48.5,0-90.89,26.18-113.8,65.19-2.89,4.92-3.03,10.99-.4,16.05.03.05.08.09.13.09.25.01.51-.13.73-.35.18,1.89,2.09,4.49,2.78,6.19,1.82,4.52,3.36,9.26,6.34,13.19.07.09.14.18.21.28.65.83,1.36,1.61,2.12,2.33.63.6,1.29,1.16,1.99,1.67,1.05.77,2.19,1.46,3.44,1.82,1.26.37,2.6.4,3.91.39,1.58,0,3.16-.05,4.73-.15.64-.04,1.3-.09,1.86-.4.43-.24.74-.63.94-1.07.49.38.96.78,1.45,1.16,3.13,2.4,6.95,3.66,10.69,4.9,4.35,1.45,8.88,3.04,11.52,7.09.92,1.42,1.45,3.07,1.39,4.73-1.01.46-2.01.97-2.99,1.48-2.29,1.18-4.57,2.36-6.86,3.54-2.15,1.11-4.42,2.33-5.65,4.42-1.74,2.94-.86,6.85,1.16,9.6,2.03,2.75,5,4.62,7.85,6.5,2.85,1.89,5.73,3.95,7.43,6.92,1.87,3.28,2.05,7.21,2.85,10.9.79,3.66,2.22,7.14,3.65,10.61,2.11,5.15,4.31,10.4,7.59,14.85,1.19,2.23,2.82,4.29,5.08,5.34,2.92,2.33,6.32,4.06,9.93,5.03,1.45.39,3.3,1.02,4.79.68,1.92.49,3.93-1.19,3.56-3.35-.1-.57-.18-1.14-.26-1.71.2-.93.32-1.82.36-2.5.14-2.05-.22-4.08-.87-6.04.19-7.66,2.19-15.13,6.66-21.32,1.66-2.3,3.64-4.4,4.9-6.93,1.79-3.62,1.97-7.88,1.13-11.83-.36-1.67-.89-3.36-.63-5.05.56-3.52,4.5-6.28,3.75-9.76-.8-3.67-6.09-4.53-9.19-4.93-1.6-.2-3.11-.91-4.2-2.09-3.34-3.6.46-7.16.41-10.91-.03-2.16-1.37-4.14-3.11-5.42-1.73-1.28-3.83-1.96-5.91-2.52-9.43-2.51-19.45-2.79-28.99-.79-1.83.38-3.68.84-5.53.64-3.33-.36-6.26-3.08-6.85-6.37-.62-3.42-.08-6.73.41-10.13.32-2.16-1.43-4.08-3.61-3.95-1.12.07-2.26.28-3.35.51-2.46.51-5.07,1.07-7.42.2-2.35-.88-4.09-3.85-2.75-5.97,3.52-2.08,7.89-2.66,11.83-1.56,1.2.33,2.46.81,3.65.46,1.23-.36,2.06-1.51,3.17-2.16.46-.27.93-.43,1.41-.53.09.06.18.12.28.18,1.88,1.11,4.12,1.35,6.32,1.48.23.01.46.03.68.04,2.13.11,4.31.23,6.36-.36.26-.08.51-.16.76-.26,1.33-.49,2.55-1.23,3.76-1.98,3.85-2.39,7.64-4.89,11.35-7.51,1.49-1.05,2.02-3.02,1.26-4.68v-.03c-.69-1.48-.66-3.28-1.65-4.57-1.26-1.62-3.6-1.79-5.66-1.81-2.13-.02-4.28-.05-6.36.44-1.74.4-3.4,1.16-5.16,1.49-3.37.63-6.83-.33-10.04-1.54-1.93-.73-3.91-1.62-5.14-3.31-.65-.89-.98-1.98-.92-3.07.12-2.16,1.66-2.96,3.15-3.58,5.94-2.49,12.6-3.27,18.95-2.2,7.46,1.25,14.54,4.96,22.1,4.76,2.33-.06,4.66-.5,6.85-1.3,2.26-.82,4.36-2.01,6.42-3.23.48-.28.96-.63,1.43-.99,2.3-2.8,5.08-7.23,4.55-10.46-.15-.94-.14-1.9.18-2.79.02-.06.04-.11.05-.17.46-1.55-.59-3.24-2-4.06-1.41-.81-3.09-.96-4.71-1.09-1.84-.15-3.68-.3-5.52-.44-.28-1.12-.32-2.24.19-3.25.34-.67.89-1.18,1.53-1.56.92.18,1.85.31,2.79.36,2.23.13,4.58-.12,6.73.28.67.26,1.35.47,2.05.64.18.08.35.17.52.27,2.03,1.16,3.27,3.29,4.75,5.1.93,1.14,2.12,2.23,3.46,2.78,1.09.45,2.22-.55,1.89-1.69l-1.72-5.92c-.67-2.3,1.17-4.56,3.56-4.37,3.71.29,7.35,1.41,10.57,3.27,2.36,1.36,4.88,3.18,7.45,3.57,1.47.23,2.76-.97,2.64-2.45l-.47-5.64c-.04-.5-.07-1.06.23-1.46.34-.44.96-.54,1.52-.58,6.79-.52,13.75,1.31,20.34-.81,1.14-.37,2.12-1.15,2.6-2.24.75-1.72.01-3.17-1.21-4.31Z"/>
        <path class="cls-1" d="M413.63,407.93c.12-1.53.67-3.23,2.08-3.84,1.68-.73,3.66.5,5.43.01,2.14-.59,2.82-3.19,3.98-5.09,1.44-2.36,4.12-3.92,6.89-4s5.53,1.31,7.11,3.58c.63.9,1.09,1.98,1.03,3.08-.05,1.1-.7,2.22-1.74,2.59-.4.14-.83.17-1.22.34-.53.23-.92.68-1.23,1.17-1.95,3.05-1,7.01-1.18,10.63-.04.77-.14,1.56-.53,2.23-.39.67-1.13,1.17-1.9,1.08-.62-.08-1.13-.51-1.54-.98-.73-.81-1.3-1.75-1.67-2.77-.2-.53-.34-1.1-.67-1.56s-.89-.82-1.45-.69c-.36.08-.65.35-.91.62-1.17,1.2-2.15,2.59-2.9,4.09-.71,1.42-1.59,3.43-3.54,3.21-1.56-.18-1.88-1.73-2.45-2.95-1.73-3.69-3.94-6.4-3.59-10.75Z"/>
      </g>
    </g>
  </g>
</svg>