<?xml version="1.0" encoding="UTF-8"?>
<svg id="Layer_2" data-name="Layer 2" xmlns="http://www.w3.org/2000/svg" viewBox="0 0 222.41 262.15">
  <defs>
    <style>
      .cls-1 {
        fill: #9fe870;
      }

      .cls-2 {
        fill: #33cfff;
      }
    </style>
  </defs>
  <g id="Logo">
    <g id="Symbol">
      <path class="cls-2" d="M.02,164.91v-1.95C.02,130.26.03,97.56,0,64.86c0-1.04.3-1.57,1.23-2.08,5.39-2.98,10.74-6.05,16.1-9.1,7.78-4.42,15.58-8.83,23.34-13.29,4.9-2.82,9.73-5.76,14.62-8.58,5.09-2.94,10.23-5.78,15.33-8.71,5.42-3.12,10.8-6.33,16.23-9.44,5.62-3.22,11.3-6.33,16.91-9.56,1.92-1.1,3.72-2.41,5.58-3.61,1.16-.75,2.44-.63,3.46.22.58.48,1.22.88,1.87,1.26,2.86,1.66,5.73,3.29,8.6,4.93,3.29,1.88,6.59,3.77,9.88,5.65,3.83,2.2,7.65,4.41,11.48,6.6,4.12,2.36,8.25,4.68,12.35,7.06,5.6,3.23,11.16,6.52,16.76,9.74,5.49,3.16,11.02,6.24,16.53,9.38,2.46,1.4,4.88,2.86,7.34,4.27,5.64,3.25,11.29,6.48,16.94,9.71,2.39,1.37,4.76,2.75,7.18,4.06.63.34.65.78.65,1.35,0,8.83-.03,17.67.03,26.5,0,1.12-.64,1.35-1.36,1.56-3.51,1.03-7.04,2.01-10.56,3.02-1.06.31-2.11.67-3.24,1.04-.03-.34-.07-.57-.08-.79-.04-6.31-.09-12.63-.1-18.94,0-.76-.15-1.27-.84-1.67-4.72-2.77-9.41-5.59-14.13-8.35-6.69-3.91-13.38-7.81-20.09-11.68-11.42-6.58-22.85-13.14-34.28-19.71-6.03-3.46-12.05-6.93-18.07-10.4-2.78-1.6-5.57-3.21-8.51-4.91-5.42,3.12-10.92,6.28-16.41,9.45-10.03,5.79-20.06,11.59-30.09,17.39-6.99,4.03-13.97,8.08-20.97,12.09-8.25,4.73-16.51,9.43-24.76,14.16-3.57,2.05-3.54,2.06-3.54,6.17,0,26.18,0,52.37-.02,78.55,0,1.82-.03,1.77-1.75,2.33-3.47,1.12-6.91,2.32-10.37,3.45-1.03.34-2.09.6-3.22.92Z"/>
      <path class="cls-1" d="M15.17,165.61c0,3.31,0,6.55,0,9.78,0,3.36.02,6.72-.02,10.07-.01.81.2,1.29.94,1.71,25.13,14.46,50.25,28.95,75.37,43.44,6.23,3.59,12.47,7.17,18.67,10.8.89.52,1.49.46,2.36-.04,15.42-8.93,30.86-17.82,46.29-26.71,15.88-9.16,31.76-18.32,47.66-27.46.7-.4.99-.86.99-1.7-.03-26.22-.04-52.44-.05-78.66,0-1.08.04-2.17-.09-3.23-.13-1.06.32-1.44,1.26-1.73,3.84-1.19,7.66-2.44,11.49-3.69.74-.24,1.46-.56,2.34-.89,0,.61,0,.97,0,1.32,0,32.78,0,65.55.01,98.33,0,.94-.16,1.48-1.15,2.02-4.6,2.54-9.08,5.29-13.63,7.91-3.92,2.26-7.89,4.42-11.81,6.68-5.16,2.98-10.27,6.03-15.43,9.02-3.9,2.26-7.84,4.46-11.75,6.71-4.51,2.59-9,5.23-13.5,7.82-3.46,2-6.95,3.95-10.42,5.95-4.71,2.71-9.41,5.42-14.12,8.14-4,2.31-8.01,4.62-12.01,6.95-1.95,1.14-3.85,2.35-5.8,3.49-.99.58-1.98.72-3.1.06-3.95-2.34-7.96-4.59-11.94-6.88-5.3-3.06-10.59-6.14-15.88-9.2-4.66-2.7-9.32-5.4-13.98-8.09-5.75-3.31-11.52-6.6-17.27-9.92-9.4-5.42-18.81-10.85-28.2-16.3-5.73-3.32-11.43-6.69-17.16-10.02-1.42-.83-2.92-1.53-4.3-2.42-.44-.28-.87-.96-.87-1.46-.05-8.71-.04-17.43,0-26.14,0-.35.33-.92.63-1.02,4.62-1.58,9.27-3.1,13.9-4.63.11-.03.23,0,.58,0Z"/>
      <path class="cls-2" d="M85.26,219.57c-2.48-.96-4.7-2.27-6.75-3.86-7.67-5.95-11.9-13.77-12.8-23.45-.63-6.84,1.33-13.09,4.12-19.18,4.56-9.95,10.65-18.93,17.69-27.23,7.67-9.05,15.63-17.85,23.41-26.8,7.95-9.15,15.35-18.7,20.96-29.52,2.63-5.07,4.78-10.33,6.47-15.95.22.23.35.34.45.48,6.57,9.32,9.6,19.64,8.69,31.05-.4,5.03-1.51,9.94-3.28,14.67-1.14,3.02-2.37,6.03-3.81,8.92-4.72,9.47-10.97,17.9-17.82,25.92-6.64,7.77-13.34,15.5-19.66,23.53-6.69,8.49-11.81,17.93-14.8,28.38-1.17,4.09-1.83,8.33-2.72,12.49-.03.15-.08.29-.14.55Z"/>
      <path class="cls-1" d="M121.61,223.7c21.52-17.94,31.15-41.59,34.35-68.49-9.65,25.74-25.85,46.18-49.31,61.17-.13-1.48-.27-2.64-.34-3.81-.72-12.05,2.22-23.16,8.47-33.45,4.84-7.97,11.02-14.86,17.28-21.71,6.14-6.72,12.35-13.39,18.19-20.37,5.83-6.97,10.48-14.73,13.41-23.42.02-.07.1-.12.26-.3.26.44.49.82.71,1.21,4.57,8.48,8.67,17.18,11.14,26.52,6.53,24.7.58,46.14-17.17,64.37-4.46,4.58-9.6,8.32-15.22,11.34-5.07,2.72-10.26,5.21-15.96,6.35-1.9.38-3.87.39-5.81.58Z"/>
      <path class="cls-2" d="M114.4,34.71c.14.23.25.48.42.69,5.43,6.67,8.26,14.4,9.45,22.82,2.03,14.3-2.35,26.95-10.03,38.74-5.67,8.71-12.61,16.38-19.62,24-7.39,8.02-14.99,15.85-21.39,24.73-9.1,12.62-15.54,26.45-18.96,41.65-.26,1.16-.46,2.33-.69,3.49-.11.03-.22.06-.34.1-1.23-2.69-2.58-5.34-3.67-8.09-3.55-8.93-5.05-18.21-4.43-27.8.56-8.63,3.36-16.6,7.34-24.19,5.02-9.57,11.55-18.1,18.52-26.3,7.42-8.74,15.03-17.32,22.41-26.09,5.97-7.1,11.42-14.59,15.46-23.01,3.04-6.32,5.08-12.91,5.18-20,0-.19.05-.37.07-.56.09-.06.18-.12.27-.18Z"/>
    </g>
  </g>
</svg>